<?xml version="1.0" encoding="utf-8"?>
<!-- Generator: Adobe Illustrator 24.0.0, SVG Export Plug-In . SVG Version: 6.00 Build 0)  -->
<svg version="1.0" id="Layer_1" xmlns="http://www.w3.org/2000/svg" xmlns:xlink="http://www.w3.org/1999/xlink" x="0px" y="0px"
	 viewBox="0 0 578.6 809.5" style="enable-background:new 0 0 578.6 809.5;" xml:space="preserve">
<style type="text/css">
	.st0{fill:#FEFEFE;}
	.st1{fill:#FE2222;}
</style>
<g>
	<path class="st0" d="M539.2,809.5H39c-21.5,0-39-17.5-39-39V39C0,17.5,17.5,0,39,0c166.7,0,333.5,0,500.2,0c21.5,0,39,17.5,39,39
		v731.5C578.2,792,560.7,809.5,539.2,809.5z M163.2,44.3c-0.8,0.7-2.4,1.5-3,2.8c-1.2,2.4-1.8,5-2.7,7.6C154,64.5,151.1,74.5,147,84
		c-4,9.4-10.4,17.3-17.9,24.3c-3.7,3.5-3.8,6-1.1,9.3c4.7,5.9,9.8,11.6,13.7,18c4,6.6,7.2,13.8,9.8,21.1c1.6,4.5,1.7,9.5,2.2,14.3
		c0.3,2.7,1.3,5,4,5.4c3.1,0.4,4-2.2,4.7-4.6c0.3-1.1,0.1-2.3,0.3-3.4c0.6-4.2,0.9-8.4,2.1-12.4c4.5-15.8,15.9-27,27.2-38
		c7.3-7.1,8.1-7.1-0.2-13.6c-8.1-6.4-13.4-14.6-16-24.3c-2.7-10.2-4.5-20.7-6.4-31.2C168.6,45.7,166.8,44.8,163.2,44.3z
		 M163.3,238.4c-0.8,0.7-2.4,1.4-3,2.7c-1.2,2.4-1.9,5-2.8,7.6c-3.6,10-6.6,20.2-10.8,29.9c-3.9,9.1-10.3,16.8-17.5,23.7
		c-3.7,3.5-3.9,6-1.3,9.3c4.6,5.9,9.8,11.6,13.7,18c4,6.6,7.2,13.8,9.8,21.1c1.7,4.6,1.7,9.8,2.3,14.7c0.3,2.7,1.5,5.2,4.2,5
		c1.5-0.1,3.1-2.4,4.2-4.1c0.6-0.9,0.3-2.5,0.5-3.7c0.6-4.2,0.9-8.4,2-12.5c4.5-15.8,15.8-27.1,27.1-38c7.4-7.2,8.2-7.1-0.1-13.6
		c-8.2-6.5-13.6-14.8-16.2-24.6c-2.7-10.1-4.5-20.5-6.3-30.8C168.7,239.9,166.9,238.9,163.3,238.4z M159.7,568.9
		c0.7-0.6,2.4-1.3,3-2.6c1.1-2.1,1.6-4.6,2.4-6.8c3.5-9.9,6.6-20.1,10.7-29.8c3.7-8.8,9.3-16.8,16.4-23.2c4.7-4.2,5.3-6.3,2.7-9.7
		c-4.1-5.2-8.2-10.5-12.1-15.8c-8.2-11.3-13.5-23.8-13.9-38c-0.1-2.6-1.1-5.2-3.7-4.8c-1.5,0.2-3.2,2.9-3.9,4.7
		c-0.7,2.1-0.3,4.6-0.6,6.8c-1.5,12.1-7,22.4-14.9,31.5c-5,5.8-10.3,11.5-16.1,16.5c-4.8,4.2-5.5,5.1-0.2,9.1
		c12,9.1,18.2,21.6,21.3,35.8c1.5,7,2.4,14.1,3.4,21.2C154.9,566.5,155.9,568.4,159.7,568.9z M286.8,669.8c0.7-0.6,2.3-1.4,3-2.7
		c1.1-2.1,1.6-4.6,2.4-6.9c3.5-10,6.7-20.2,10.8-30c4-9.4,10.6-17.2,17.8-24.3c2.4-2.4,3.9-4.8,1.4-8c-4.2-5.3-8.4-10.7-12.4-16.1
		c-8.2-11.3-13.5-23.8-13.9-38c-0.1-2.6-1.1-5.1-3.7-4.7c-1.5,0.2-3.1,2.9-3.8,4.8c-0.7,2-0.2,4.3-0.5,6.5c-1.6,12.2-7,22.7-15,31.8
		c-5.3,6-11.1,11.7-17.1,17.1c-3.3,3-3.8,4.5-0.4,7.6c3,2.6,6.1,5.1,8.8,7.9c7.7,8.2,11.4,18.5,13.7,29.2c1.5,6.9,2.3,13.9,3.4,20.8
		C281.9,667.5,283,669.4,286.8,669.8z M159.8,763c0.7-0.6,2.3-1.4,3-2.6c1.1-2.1,1.6-4.6,2.4-6.8c3.5-10,6.7-20.2,10.8-30
		c4-9.4,10.6-17.2,17.8-24.4c3.3-3.3,3.6-5.3,1.2-8.3c-4.1-5.2-8.2-10.5-12.1-15.8c-8.2-11.3-13.5-23.8-13.9-38
		c-0.1-2.6-1.1-5.2-3.7-4.8c-1.5,0.2-3.1,2.9-3.8,4.8c-0.7,1.9-0.2,4.3-0.5,6.5c-1.6,12.2-7,22.7-15,31.8
		c-5,5.7-10.1,11.3-15.8,16.2c-5.3,4.6-5.9,5.1-0.2,9.5c12.2,9.4,18.2,22.2,21.2,36.7c1.4,6.6,2.2,13.4,3.2,20.1
		C154.9,760.7,155.9,762.5,159.8,763z M450.8,501.2c-0.6-1.2-0.9-2.2-1.5-3c-2-2.6-4.2-5.1-6.3-7.8c-10.6-13.8-19.7-28.2-20-46.5
		c0-2.3-0.6-5-3.7-4.9c-3.3,0.1-3.2,2.8-3.6,5.3c-0.8,5.4-1.4,11-3,16.2c-4.7,15.1-15.3,26.4-26.8,36.4c-8.6,7.4-5.6,7.8,0.3,12.6
		c8,6.5,13.5,14.5,16.1,24.2c2.7,10.2,4.5,20.7,6.5,31.1c0.5,2.5,1.5,4.5,3.9,4.3c1.6-0.2,3.6-1.7,4.5-3.2c1.2-1.7,1.5-4,2.1-6.2
		c5.3-20.5,13-39.7,29.1-54.5C449.5,504.3,450,502.6,450.8,501.2z M412.7,764.8c2.2-2.2,3.8-3.2,4.6-4.7c1.1-2,1.4-4.4,2.2-6.6
		c3.4-9.7,6.4-19.5,10.4-28.9c4-9.4,10.4-17.3,17.8-24.4c2.4-2.3,4.1-4.8,1.7-8c-2-2.6-4.3-5.1-6.3-7.8
		c-9.1-11.9-17.3-24.2-19.4-39.5c-0.3-2.4-0.3-4.9-0.6-7.3c-0.3-2.2-0.8-4.6-3.7-4.5c-2.8,0.1-3.4,2.3-3.5,4.6c0,0.5,0.1,1,0,1.5
		c-1,5.1-1.4,10.4-3,15.4c-4.9,15.3-15.9,26.4-27.3,37c-6.3,5.8-6.6,5.5-0.2,11.3c0.1,0.1,0.2,0.2,0.3,0.3
		c11.8,8.6,16.8,21,19.8,34.5c1.6,7.1,2.3,14.4,3.7,21.6C409.3,761,411,762.4,412.7,764.8z M380.9,113.9c0.3,1.2,0.3,1.9,0.7,2.4
		c2.1,2.8,4.3,5.4,6.4,8.1c11,13.8,20.1,28.5,20.6,47c0.1,2.3,0.4,5.1,3.6,4.9c3.1-0.1,3.7-2.7,3.7-5.3c0.2-9.4,2.7-18.3,7.5-26.3
		c6.8-11.2,15.4-21.1,25.8-29.1c2.5-1.9,2.7-3.9,0.4-6.1c-0.8-0.8-1.6-1.7-2.5-2.4c-12.9-9.4-18.3-23-21.3-37.9
		c-1.3-6.3-1.9-12.7-3.1-18.9c-0.3-1.5-2.1-3.8-3.3-3.9c-1.6-0.1-3.7,1.3-4.8,2.6c-1.1,1.3-1.3,3.3-1.8,5
		c-5.6,20.9-12.9,40.9-29.5,55.9C382,111.1,381.5,112.8,380.9,113.9z M291.9,138.1c-2.1,1.7-3.6,2.5-4.4,3.8c-0.9,1.5-1.2,3.3-1.8,5
		c-3.5,10.2-6.7,20.5-10.7,30.4c-3.9,9.7-10.5,17.8-18.1,25.1c-2.4,2.3-4.2,4.8-1.8,8c1.8,2.5,3.8,4.8,5.8,7.2
		c11,13.8,20.1,28.5,20.6,47c0.1,2.3,0.4,5.1,3.6,5c3.1-0.1,3.7-2.6,3.7-5.3c0.1-9.4,2.7-18.3,7.5-26.3c6.8-11.2,15.4-21,25.8-29.1
		c2.5-1.9,2.7-3.9,0.4-6.1c-0.8-0.8-1.6-1.7-2.5-2.4c-12.9-9.4-18.3-23-21.3-37.9c-1.3-6.3-1.9-12.7-3.1-18.9
		C295.2,141.8,293.5,140.3,291.9,138.1z M380.7,308.4c0.7,1.3,1.1,2.4,1.8,3.2c4.3,5.6,8.8,11,12.8,16.8
		c6.1,8.9,11.1,18.4,12.4,29.4c0.4,3.1,0.6,6.1,1.1,9.2c0.3,2.3,1.8,4.3,4.1,3.2c1.5-0.8,2.8-3.3,2.9-5.1c0.5-9.4,2.8-18.3,7.7-26.3
		c6.8-11.2,15.4-21.1,25.8-29.1c2.3-1.7,2.7-3.7,0.6-5.8c-0.9-0.9-1.8-1.9-2.8-2.6c-12.9-9.4-18.3-23-21.3-37.9
		c-1.3-6.3-1.9-12.7-3.1-18.9c-0.3-1.5-2.1-3.7-3.3-3.8c-1.6-0.1-3.6,1.3-4.8,2.7c-1.1,1.3-1.3,3.3-1.7,5
		c-5.6,20.9-12.9,40.8-29.6,55.9C382,305.2,381.5,306.9,380.7,308.4z M550.3,633c-0.5-1.2-0.8-2.3-1.5-3.2c-1.8-2.3-3.9-4.4-5.7-6.8
		c-7.4-9.8-13.4-20.3-14.1-33.1c-0.1-1.6-1.9-3.2-2.9-4.7c-1.2,1.6-3.5,3.1-3.5,4.7c-0.7,17.7-11.4,29.4-23.6,40.2
		c-3.9,3.5-4.4,4.8-0.3,8c7.1,5.5,12.3,13.2,14.4,21.9c1.6,6.8,2.6,13.7,4.2,20.5c0.4,1.6,2.1,3.6,3.6,4c1.1,0.3,3.2-1.6,4.1-3
		c1-1.5,1.3-3.6,1.7-5.5c3.8-14.9,9.8-28.6,21.2-39.4C549,635.7,549.5,634.3,550.3,633z M27.1,175.9c0.6,1.1,0.9,2.2,1.6,3.1
		c1.7,2.2,3.7,4.2,5.4,6.5c7.5,9.9,13.6,20.4,14.3,33.3c0.1,1.6,1.9,3.1,3,4.7c1.2-1.6,3.4-3.1,3.5-4.7
		c0.6-17.7,11.4-29.4,23.5-40.2c3.9-3.5,4.4-4.8,0.4-7.9c-7-5.5-12-12.3-14.2-20.9c-1.8-7-2.7-14.3-4.4-21.4c-0.4-1.6-2.1-3.9-3.5-4
		c-1.4-0.2-3.2,1.7-4.4,3.1c-0.8,1-0.9,2.6-1.3,4c-4,15.3-9.8,29.7-21.7,40.8C28.4,173.1,27.9,174.5,27.1,175.9z M483.2,733.7
		c0.7,6.7,0.3,13.2,4.8,18c5.7,6,13,8.4,21,6.1c8.3-2.4,13.3-8.4,14.7-17c1.7-10.8-1.9-20-7.8-28.9c-4.4-6.7-16.3-6.8-21.3-2.6
		C486.8,715.8,484,724.5,483.2,733.7z M94.5,71.9c-1-3.4-1.4-9.8-4.6-14.1c-7.5-10.1-26.7-12.5-34.4,4.5
		c-5.5,12.3-1.4,23.8,5.9,34.1c4.9,7,14.6,8.4,21.2,3.1C90.8,93,93.5,84.1,94.5,71.9z M43.8,61.6c0,0,0.1,0,0.1,0c0-1.4,0-2.8,0-4.2
		c0-4.2-1.8-6.7-5.1-6.8c-3.3-0.1-5.4,2.1-5.6,6.4c-0.6,12.5-1.2,25.1-1.6,37.6c-0.1,3.9,2.1,6.8,5.1,6.9c3,0.1,5.4-2.7,5.6-6.5
		C42.9,83.8,43.3,72.7,43.8,61.6z M534,739c-0.2,0-0.3,0-0.5,0c0,4.3-0.1,8.7,0,13c0,1.3,0.2,3.3,1.1,3.8c1.6,1.1,3.9,2.1,5.7,1.8
		c3.2-0.5,3.7-3.5,3.9-6.3c0.6-12.3,1.1-24.6,1.6-36.8c0.2-4.2-2-7.2-5.1-7.4c-3.2-0.2-5.5,2.8-5.7,7.2
		C534.7,722.6,534.4,730.8,534,739z"/>
	<path class="st1" d="M163.2,44.3c3.6,0.5,5.4,1.3,6,4.6c1.9,10.4,3.7,20.9,6.4,31.2c2.6,9.7,7.9,17.9,16,24.3
		c8.3,6.5,7.6,6.5,0.2,13.6c-11.3,10.9-22.6,22.1-27.2,38c-1.1,4-1.4,8.3-2.1,12.4c-0.2,1.1,0,2.3-0.3,3.4c-0.6,2.4-1.5,5-4.7,4.6
		c-2.8-0.4-3.7-2.6-4-5.4c-0.5-4.8-0.6-9.9-2.2-14.3c-2.6-7.3-5.8-14.5-9.8-21.1c-3.9-6.4-9-12.1-13.7-18c-2.7-3.4-2.5-5.9,1.1-9.3
		c7.4-7,13.8-15,17.9-24.3c4.1-9.5,7.1-19.5,10.5-29.2c0.9-2.5,1.5-5.2,2.7-7.6C160.9,45.9,162.4,45,163.2,44.3z"/>
	<path class="st1" d="M163.3,238.4c3.6,0.5,5.4,1.5,5.9,4.7c1.8,10.3,3.6,20.7,6.3,30.8c2.6,9.8,7.9,18.1,16.2,24.6
		c8.2,6.5,7.5,6.4,0.1,13.6c-11.3,11-22.6,22.2-27.1,38c-1.1,4-1.4,8.3-2,12.5c-0.2,1.3,0.1,2.8-0.5,3.7c-1.1,1.6-2.7,4-4.2,4.1
		c-2.7,0.2-3.9-2.3-4.2-5c-0.6-4.9-0.6-10.1-2.3-14.7c-2.6-7.3-5.8-14.5-9.8-21.1c-3.9-6.4-9-12.1-13.7-18c-2.6-3.3-2.4-5.8,1.3-9.3
		c7.2-6.9,13.6-14.6,17.5-23.7c4.2-9.7,7.3-19.9,10.8-29.9c0.9-2.5,1.5-5.2,2.8-7.6C160.9,239.9,162.5,239.1,163.3,238.4z"/>
	<path class="st1" d="M159.7,568.9c-3.8-0.5-4.9-2.4-5.3-5.1c-1-7.1-1.9-14.2-3.4-21.2c-3.1-14.2-9.3-26.8-21.3-35.8
		c-5.3-4-4.6-4.9,0.2-9.1c5.8-5,11-10.7,16.1-16.5c7.9-9,13.4-19.4,14.9-31.5c0.3-2.3-0.2-4.7,0.6-6.8c0.7-1.9,2.3-4.5,3.9-4.7
		c2.6-0.3,3.6,2.2,3.7,4.8c0.4,14.2,5.7,26.7,13.9,38c3.9,5.4,8,10.6,12.1,15.8c2.3,2.9,2.1,5-1.3,8.3c-7.1,7.1-13.7,14.8-17.6,24
		c-4.2,9.9-7.4,20.2-11,30.3c-0.8,2.3-1.3,4.7-2.4,6.8C162.1,567.6,160.5,568.3,159.7,568.9z"/>
	<path class="st1" d="M286.8,669.8c-3.9-0.4-4.9-2.3-5.3-5c-1-7-1.9-14-3.4-20.8c-2.4-10.7-6-21-13.7-29.2c-2.7-2.9-5.9-5.3-8.8-7.9
		c-3.5-3.1-3-4.6,0.4-7.6c6-5.4,11.7-11.1,17.1-17.1c8.1-9.1,13.5-19.6,15-31.8c0.3-2.1-0.2-4.5,0.5-6.5c0.7-1.9,2.3-4.6,3.8-4.8
		c2.6-0.4,3.7,2.2,3.7,4.7c0.4,14.2,5.7,26.7,13.9,38c4,5.5,8.2,10.8,12.4,16.1c2.5,3.2,1,5.7-1.4,8c-7.2,7.2-13.9,14.9-17.8,24.3
		c-4.1,9.8-7.3,19.9-10.8,30c-0.8,2.3-1.3,4.7-2.4,6.9C289.2,668.4,287.6,669.2,286.8,669.8z"/>
	<path class="st1" d="M159.8,763c-3.9-0.5-4.9-2.3-5.3-5.1c-1-6.7-1.9-13.4-3.2-20.1c-3-14.6-9-27.4-21.2-36.7
		c-5.7-4.4-5.1-4.9,0.2-9.5c5.7-4.9,10.8-10.6,15.8-16.2c8-9.1,13.4-19.6,15-31.8c0.3-2.1-0.2-4.5,0.5-6.5c0.7-1.9,2.3-4.5,3.8-4.8
		c2.6-0.4,3.6,2.2,3.7,4.8c0.4,14.2,5.7,26.7,13.9,38c3.9,5.4,8,10.6,12.1,15.8c2.3,3,2.1,5-1.2,8.3c-7.2,7.2-13.8,15-17.8,24.4
		c-4.1,9.8-7.2,20-10.8,30c-0.8,2.3-1.3,4.7-2.4,6.8C162.1,761.6,160.5,762.4,159.8,763z"/>
	<path class="st1" d="M450.8,501.2c-0.8,1.4-1.3,3.1-2.4,4.2c-16.1,14.8-23.7,34-29.1,54.5c-0.5,2.1-0.9,4.4-2.1,6.2
		c-1,1.5-2.9,3-4.5,3.2c-2.4,0.3-3.4-1.8-3.9-4.3c-2-10.4-3.8-20.9-6.5-31.1c-2.6-9.7-8.2-17.7-16.1-24.2c-5.9-4.8-8.9-5.2-0.3-12.6
		c11.5-10,22.1-21.2,26.8-36.4c1.6-5.2,2.2-10.7,3-16.2c0.4-2.5,0.3-5.2,3.6-5.3c3.1-0.1,3.7,2.5,3.7,4.9c0.3,18.2,9.4,32.7,20,46.5
		c2,2.6,4.2,5.1,6.3,7.8C449.9,498.9,450.2,499.9,450.8,501.2z"/>
	<path class="st1" d="M412.7,764.8c-1.7-2.4-3.4-3.8-3.7-5.5c-1.4-7.1-2.2-14.4-3.7-21.6c-3-13.5-8-26-19.8-34.5
		c-0.1-0.1-0.2-0.2-0.3-0.3c-6.4-5.9-6.1-5.5,0.2-11.3c11.4-10.6,22.4-21.6,27.3-37c1.6-4.9,2.1-10.2,3-15.4c0.1-0.5,0-1,0-1.5
		c0.1-2.3,0.7-4.5,3.5-4.6c2.9-0.1,3.4,2.3,3.7,4.5c0.3,2.4,0.3,4.9,0.6,7.3c2.1,15.3,10.3,27.7,19.4,39.5c2,2.6,4.3,5.1,6.3,7.8
		c2.5,3.2,0.7,5.8-1.7,8c-7.4,7-13.8,15-17.8,24.4c-4,9.4-7,19.2-10.4,28.9c-0.8,2.2-1.1,4.5-2.2,6.6
		C416.4,761.6,414.8,762.6,412.7,764.8z"/>
	<path class="st1" d="M380.9,113.9c0.6-1.1,1.2-2.8,2.3-3.8c16.6-15.1,24-35,29.5-55.9c0.5-1.7,0.7-3.8,1.8-5
		c1.1-1.3,3.2-2.7,4.8-2.6c1.2,0.1,3,2.3,3.3,3.9c1.3,6.3,1.9,12.7,3.1,18.9c3,14.9,8.4,28.5,21.3,37.9c0.9,0.7,1.7,1.6,2.5,2.4
		c2.3,2.2,2.1,4.2-0.4,6.1c-10.5,8.1-19,17.9-25.8,29.1c-4.9,8-7.4,16.9-7.5,26.3c0,2.6-0.6,5.2-3.7,5.3c-3.2,0.1-3.5-2.7-3.6-4.9
		c-0.5-18.4-9.6-33.1-20.6-47c-2.2-2.7-4.3-5.4-6.4-8.1C381.2,115.8,381.2,115,380.9,113.9z"/>
	<path class="st1" d="M291.9,138.1c1.5,2.2,3.2,3.7,3.6,5.4c1.3,6.3,1.9,12.7,3.1,18.9c3,14.9,8.4,28.5,21.3,37.9
		c0.9,0.7,1.7,1.6,2.5,2.4c2.3,2.2,2.1,4.2-0.4,6.1c-10.5,8.1-19,17.9-25.8,29.1c-4.9,8-7.4,16.9-7.5,26.3c0,2.6-0.6,5.2-3.7,5.3
		c-3.2,0.1-3.5-2.7-3.6-5c-0.5-18.4-9.6-33.1-20.6-47c-1.9-2.4-3.9-4.7-5.8-7.2c-2.4-3.3-0.6-5.8,1.8-8c7.6-7.2,14.2-15.3,18.1-25.1
		c4-10,7.2-20.3,10.7-30.4c0.6-1.7,0.9-3.6,1.8-5C288.4,140.6,289.9,139.8,291.9,138.1z"/>
	<path class="st1" d="M380.7,308.4c0.8-1.5,1.3-3.2,2.5-4.2c16.6-15.1,24-35,29.6-55.9c0.5-1.7,0.7-3.8,1.7-5
		c1.1-1.4,3.2-2.8,4.8-2.7c1.2,0.1,3,2.3,3.3,3.8c1.3,6.3,1.9,12.7,3.1,18.9c3,14.9,8.4,28.5,21.3,37.9c1,0.7,1.9,1.7,2.8,2.6
		c2.1,2.2,1.7,4.1-0.6,5.8c-10.5,8-19,17.9-25.8,29.1c-4.9,8-7.2,16.9-7.7,26.3c-0.1,1.8-1.4,4.4-2.9,5.1c-2.3,1.2-3.7-0.8-4.1-3.2
		c-0.4-3-0.7-6.1-1.1-9.2c-1.3-11-6.4-20.5-12.4-29.4c-3.9-5.8-8.5-11.2-12.8-16.8C381.8,310.7,381.4,309.7,380.7,308.4z"/>
	<path class="st1" d="M550.3,633c-0.8,1.3-1.4,2.7-2.3,3.6c-11.4,10.8-17.4,24.6-21.2,39.4c-0.5,1.9-0.7,3.9-1.7,5.5
		c-0.9,1.4-3,3.2-4.1,3c-1.5-0.3-3.2-2.4-3.6-4c-1.7-7.2-2.7-14.6-4.5-21.8c-2.1-8.5-7.2-15.2-14.1-20.6c-4-3.2-3.6-4.5,0.3-8
		c12.2-10.8,22.9-22.5,23.6-40.2c0.1-1.6,2.3-3.1,3.5-4.7c1,1.6,2.8,3.1,2.9,4.7c0.8,12.8,6.7,23.2,14.1,33.1
		c1.8,2.3,3.9,4.5,5.7,6.8C549.5,630.7,549.8,631.9,550.3,633z"/>
	<path class="st1" d="M27.1,175.9c0.8-1.3,1.3-2.8,2.3-3.7C41.2,161,47.1,146.7,51,131.4c0.4-1.4,0.4-3,1.3-4c1.2-1.4,3-3.3,4.4-3.1
		c1.3,0.1,3.1,2.4,3.5,4c1.7,7.1,2.6,14.3,4.4,21.4c2.2,8.6,7.2,15.5,14.2,20.9c4,3.1,3.5,4.4-0.4,7.9
		c-12.1,10.8-22.9,22.5-23.5,40.2c-0.1,1.6-2.3,3.1-3.5,4.7c-1-1.6-2.9-3.1-3-4.7c-0.7-12.9-6.8-23.4-14.3-33.3
		c-1.7-2.2-3.7-4.3-5.4-6.5C28,178.1,27.7,177,27.1,175.9z"/>
	<path class="st1" d="M483.2,733.7c0.8-9.2,3.5-17.9,11.4-24.5c5-4.2,16.9-4.1,21.3,2.6c5.9,8.8,9.5,18.1,7.8,28.9
		c-1.4,8.6-6.4,14.6-14.7,17c-8,2.3-15.3-0.1-21-6.1C483.5,746.9,483.9,740.4,483.2,733.7z M492.9,734.5c1,3.6,1.2,7.9,3.3,10.7
		c4.4,5.6,14.2,3.2,16.6-3.6c2.7-7.8,0-14.8-3.7-21.6c-2.5-4.6-7.4-4.9-10.5-0.7C495.3,723.8,493.3,728.7,492.9,734.5z"/>
	<path class="st1" d="M94.5,71.9c-1,12.1-3.6,20.9-11.6,27.4c-6.2,5-16.6,4.1-21.2-2.4c-7.5-10.5-11.8-22.1-6.2-34.6
		c7.6-16.9,26.8-14.6,34.4-4.5C93.1,62.1,93.4,68.5,94.5,71.9z M83.9,74.5c-0.2-2-0.4-4.1-0.7-6.1c-0.9-5.1-3.4-7.3-8.5-7.7
		c-4.6-0.4-8.6,2.2-10.1,6.5C61.9,75,64.7,82,68.4,88.8c2.5,4.4,7.2,4.8,10.3,0.7C82.1,85.1,84.1,80.1,83.9,74.5z"/>
	<path class="st1" d="M43.8,61.6c-0.5,11.1-1,22.3-1.5,33.4c-0.2,3.8-2.6,6.7-5.6,6.5c-3-0.1-5.3-3-5.1-6.9
		c0.5-12.5,1-25.1,1.6-37.6c0.2-4.3,2.3-6.5,5.6-6.4c3.3,0.1,5.1,2.5,5.1,6.8c0,1.4,0,2.8,0,4.2C43.9,61.6,43.9,61.6,43.8,61.6z"/>
	<path class="st1" d="M534,739c0.4-8.2,0.7-16.4,1.1-24.6c0.2-4.4,2.5-7.4,5.7-7.2c3.1,0.2,5.2,3.1,5.1,7.4
		c-0.5,12.3-1,24.6-1.6,36.8c-0.1,2.8-0.7,5.8-3.9,6.3c-1.8,0.3-4.1-0.8-5.7-1.8c-0.9-0.6-1.1-2.5-1.1-3.8c-0.1-4.3,0-8.7,0-13
		C533.6,739,533.8,739,534,739z"/>
	<path class="st0" d="M492.9,734.5c0.4-5.8,2.4-10.8,5.7-15.2c3.2-4.2,8.1-3.9,10.5,0.7c3.6,6.8,6.4,13.8,3.7,21.6
		c-2.4,6.8-12.2,9.2-16.6,3.6C494.1,742.5,494,738.1,492.9,734.5z"/>
	<path class="st0" d="M83.9,74.5c0.2,5.7-1.9,10.6-5.2,15c-3.1,4.1-7.8,3.8-10.3-0.7C64.7,82,61.9,75,64.6,67.2
		c1.5-4.4,5.5-6.9,10.1-6.5c5,0.4,7.5,2.7,8.5,7.7C83.6,70.4,83.7,72.4,83.9,74.5z"/>
</g>
</svg>
