<?xml version="1.0" encoding="utf-8"?>
<!-- Generator: Adobe Illustrator 24.0.0, SVG Export Plug-In . SVG Version: 6.00 Build 0)  -->
<svg version="1.0" id="Layer_1" xmlns="http://www.w3.org/2000/svg" xmlns:xlink="http://www.w3.org/1999/xlink" x="0px" y="0px"
	 viewBox="0 0 578.6 809.5" style="enable-background:new 0 0 578.6 809.5;" xml:space="preserve">
<style type="text/css">
	.st0{fill:#FCFCFC;}
	.st1{fill:#070707;}
</style>
<g>
	<path class="st0" d="M539.6,809.5H39c-21.5,0-39-17.5-39-39V39C0,17.5,17.5,0,39,0h500.6c21.5,0,39,17.5,39,39v731.5
		C578.6,792,561.1,809.5,539.6,809.5z M166.2,140.3c0.6,0.6,0.6,0.6,1.2,1.2c-1.7,3.6-2.8,7.6-5.2,10.5c-3.3,4-7.7,7-11.3,10.7
		c-1.2,1.2-2.4,3.4-2.1,4.6c0.3,1.1,2.8,2.1,4.4,2.2c10.4,0.8,20.8,1.5,31.2,1.8c3.4,0.1,6.9-0.7,10.2-1.5c1.6-0.4,3-1.8,4.4-2.8
		c-1.2-1.3-2.2-2.9-3.6-3.9c-5-3.7-10.4-7-15.2-10.9c-5.2-4.3-6-7.4-4.1-13c8.5,7.1,18.2,10.8,29.2,11.1c8,0.2,13.6-3.4,17.2-10.3
		c4.6-8.9,4.4-18.1,1.6-27.4c-3-9.9-12.3-16-22.5-14.9c-1.3,0.1-2.7,0.2-4.5,0.4c0.4-2.6,0.8-4.5,0.9-6.6c0.4-8.8,0.9-17.7-5.9-24.8
		c-6.6-6.9-21.7-8.9-31.1-4.4c-9.5,4.5-14.8,14-13.6,25.1c0.5,4.7,1.4,9.3,2.2,14.6c-3.2-0.4-5.7-0.5-8.1-0.9
		c-15.4-2.5-26.6,8.1-27.1,23.8c-0.5,13.8,19.3,27.5,33.1,22.8C153.8,145.7,159.9,142.9,166.2,140.3z M406.8,142.8
		c0.6,0.6,0.6,0.6,1.2,1.2c-1.8,3.7-3.1,7.9-5.6,11c-3.3,4-7.7,7-11.4,10.6c-1.1,1-2.3,3.4-1.9,4.1c0.8,1.3,2.8,2.3,4.4,2.5
		c10.4,0.8,20.8,1.5,31.2,1.8c3.6,0.1,7.3-0.8,10.8-1.6c1.4-0.3,2.6-1.6,4-2.5c-1.1-1.3-2-3-3.4-4c-5-3.7-10.4-7-15.2-10.9
		c-3.8-3.1-7-7-4.8-13.4c9.4,7.8,19.7,12.1,31.3,11.1c4-0.3,8.7-2.2,11.6-4.9c9.3-8.8,10.2-29.7,1.7-39.4c-3-3.4-7.6-5.7-11.9-7.3
		c-3.4-1.3-7.5-0.7-11.5-0.9c0.4-2.4,0.9-4.4,1-6.5c0.3-8.8,0.8-17.8-6.2-24.6c-6.9-6.8-21.9-8.5-31.2-3.9
		c-9.4,4.7-14.4,14-13.2,25.4c0.5,4.6,1.3,9.1,2.1,14.3c-3.3-0.4-5.6-0.7-7.8-1c-15.7-2.5-26.9,8.2-27.3,24.2
		c-0.3,12.9,18.9,27.1,32.9,22.4C394.2,148.3,400.4,145.3,406.8,142.8z M197,284.9c0.4-2.5,0.8-4.5,0.9-6.5
		c0.4-8.8,0.9-17.7-5.9-24.8c-6.6-6.9-21.7-8.9-31.1-4.4c-9.5,4.5-14.8,14-13.6,25.1c0.5,4.7,1.4,9.3,2.2,14.7
		c-3.8-0.5-6.9-0.8-9.9-1.3c-10.9-1.8-17.5,2.1-22.4,13.4c-4.8,11-3.1,20.1,4.9,26.6c12.2,10,23,10.3,38,2c1.8-1,3.7-1.9,5.6-2.9
		c0.9,0.8,0.8,0.8,1.7,1.6c-1.7,3.5-2.8,7.6-5.2,10.5c-3.3,4-7.7,7-11.3,10.7c-1.2,1.2-2.4,3.4-2.1,4.6c0.3,1.1,2.8,2.1,4.4,2.2
		c10.4,0.8,20.8,1.5,31.2,1.8c3.4,0.1,6.9-0.7,10.2-1.5c1.6-0.4,3-1.8,4.4-2.8c-1.2-1.3-2.2-2.9-3.6-3.9c-5-3.7-10.4-7-15.2-10.9
		c-5.2-4.3-6-7.5-4.1-13c9,7.6,19.4,11.7,31,10.8c3.9-0.3,8.3-2,11.2-4.6c8.3-7.5,10.1-23.6,4.7-35.7
		C219,287.7,210.9,283.9,197,284.9z M406.6,328.3c0.6,0.6,0.6,0.6,1.2,1.2c-1.7,3.6-2.9,7.7-5.4,10.8c-3.2,4-7.7,7-11.3,10.7
		c-1.1,1.1-2,3.2-1.8,4.7c0.1,0.8,2.5,1.9,4,2c10.4,0.7,20.8,1.5,31.2,1.7c3.8,0.1,7.7-0.8,11.4-1.7c1.3-0.3,2.4-1.9,3.5-2.8
		c-0.9-1.1-1.6-2.3-2.7-3.1c-5.2-3.8-10.8-7.2-15.8-11.2c-3.9-3.1-7-7-5.2-12.7c0.7,0,1.2-0.1,1.5,0c0.7,0.4,1.4,0.9,2,1.4
		c8.4,6.6,18.1,9.7,28.6,8.8c3.8-0.3,8.3-2.1,11.1-4.7c9.5-8.9,10.3-30.1,1.6-39.9c-2.7-3.1-6.9-5.4-10.8-6.8
		c-3.7-1.3-8-0.8-12.2-1.2c0.3-2.2,0.8-4.2,0.9-6.3c0.3-8.8,0.8-17.8-6.1-24.7c-6.8-6.8-21.8-8.7-31.1-4.1
		c-9.5,4.6-14.6,14-13.4,25.3c0.5,4.6,1.4,9.2,2.2,14.5c-3.2-0.4-5.4-0.6-7.6-0.9c-16.3-2.6-28.3,8.6-27.2,25.3
		c1,14.1,18.4,25.5,33,21.1C394.4,333.9,400.4,330.8,406.6,328.3z M142.5,524.4c-0.4,2.8-0.9,4.8-1,6.8c-0.3,8.8-0.9,17.7,5.9,24.7
		c6.6,6.9,21.7,8.8,31.1,4.4c9.5-4.5,14.8-14,13.6-25.1c-0.5-4.6-1.4-9.2-2.2-14.6c3.3,0.4,5.7,0.5,8.1,0.9
		c15.3,2.5,26.6-8.1,27.1-23.9c0.5-13.7-19.3-27.5-33.1-22.7c-6.2,2.1-12.1,4.9-20.4,8.2c2.1-5,3-9.1,5.3-12
		c3.4-4.2,7.9-7.3,11.7-11.2c1.2-1.2,2.4-3.4,2-4.6c-0.4-1.1-2.8-2.1-4.5-2.2c-10.4-0.8-20.8-1.5-31.2-1.8
		c-3.4-0.1-6.9,0.7-10.2,1.5c-1.6,0.4-2.9,1.8-4.4,2.8c1.2,1.3,2.2,2.9,3.6,3.9c5.5,4.1,11.4,7.8,16.5,12.3
		c4.4,3.9,4.6,6.4,2.9,11.2c-14.3-8.7-21.2-11.5-31.2-10.4c-4,0.4-8.7,2.3-11.5,5.1c-8.2,7.9-9.8,24.3-3.9,35.8
		C121.9,523.6,131,526.1,142.5,524.4z M413.9,483.6c-0.6-0.6-0.6-0.6-1.2-1.2c1.5-3.5,2.5-7.4,4.8-10.2c3.4-4.1,7.9-7.3,11.7-11.1
		c1.1-1.1,2-3.2,1.8-4.7c-0.1-0.8-2.5-1.9-4-2c-10.4-0.7-20.8-1.5-31.2-1.7c-3.8-0.1-7.7,0.8-11.4,1.7c-1.3,0.3-2.4,1.8-3.6,2.8
		c0.9,1.1,1.6,2.4,2.7,3.1c5.2,3.8,10.8,7.2,15.8,11.2c3.9,3.1,7,7,5.1,13.3c-1.3-0.8-2.4-1.3-3.3-2.1c-8.4-6.6-18.1-9.7-28.6-8.8
		c-3.8,0.3-8.3,2.1-11.1,4.7c-9.5,8.9-10.3,30.1-1.6,39.9c2.7,3.1,6.9,5.4,10.8,6.8c3.7,1.3,8,0.8,12.2,1.2
		c-0.3,2.2-0.8,4.2-0.9,6.3c-0.3,8.8-0.8,17.7,6,24.7c6.8,6.8,21.8,8.7,31.1,4.2c9.5-4.6,14.6-14,13.4-25.3
		c-0.5-4.6-1.4-9.2-2.2-14.5c3.2,0.4,5.4,0.6,7.6,0.9c16.3,2.6,28.3-8.6,27.2-25.3c-1-14.1-18.4-25.5-33-21.2
		C425.9,478.1,420,481.1,413.9,483.6z M164.1,668.4c-0.7,0-1.2,0.1-1.5,0c-0.7-0.4-1.4-0.9-2-1.4c-8.4-6.6-18.1-9.7-28.6-8.8
		c-3.8,0.3-8.3,2.1-11.1,4.7c-9.5,8.9-10.3,30.1-1.6,39.9c2.7,3.1,6.9,5.4,10.8,6.7c3.7,1.3,8,0.8,12.2,1.2
		c-0.3,2.2-0.8,4.2-0.9,6.3c-0.3,8.8-0.8,17.7,6.1,24.7c6.8,6.8,21.8,8.7,31.1,4.1c9.5-4.6,14.5-14,13.4-25.3
		c-0.5-4.6-1.4-9.2-2.2-14.5c3.2,0.4,5.4,0.6,7.7,0.9c16.1,2.6,28.1-8.3,27.2-24.7c-0.8-14.5-18.2-26.2-33-21.8
		c-6.3,1.9-12.3,5-18.5,7.4c-0.6-0.6-0.6-0.6-1.2-1.2c1.7-3.6,2.9-7.7,5.4-10.8c3.2-4,7.7-7,11.3-10.7c1.1-1.1,2-3.2,1.8-4.7
		c-0.1-0.8-2.5-1.9-4-2c-10.4-0.7-20.8-1.5-31.2-1.7c-3.8-0.1-7.7,0.8-11.4,1.7c-1.3,0.3-2.4,1.9-3.5,2.8c0.9,1.1,1.6,2.3,2.7,3.1
		c5.2,3.8,10.8,7.2,15.8,11.2C162.8,658.8,165.9,662.7,164.1,668.4z M382.9,712.6c-0.4,2.5-0.8,4.5-0.9,6.5
		c-0.4,8.8-0.9,17.7,5.9,24.8c6.6,6.9,21.7,8.8,31.1,4.4c9.5-4.5,14.8-14,13.6-25.1c-0.5-4.6-1.4-9.3-2.2-14.6
		c3.2,0.4,5.7,0.5,8.1,0.9c15.4,2.5,26.6-8.1,27.1-23.9c0.5-13.7-19.3-27.5-33.1-22.7c-6.2,2.1-12.1,4.9-20.4,8.2
		c2.1-5,3-9.1,5.3-12c3.4-4.2,7.9-7.3,11.7-11.2c1.2-1.2,2.4-3.4,2-4.6c-0.4-1.1-2.8-2.1-4.5-2.2c-10.4-0.8-20.8-1.5-31.2-1.8
		c-3.4-0.1-6.9,0.7-10.2,1.5c-1.6,0.4-2.9,1.8-4.4,2.8c1.2,1.3,2.2,2.9,3.6,3.9c5.5,4.1,11.4,7.8,16.5,12.3
		c4.4,3.8,4.6,6.4,2.9,11.2c-14.4-8.7-21.2-11.4-31.2-10.4c-3.9,0.4-8.3,2-11.1,4.6c-8.3,7.5-10,23.6-4.6,35.7
		C360.8,709.8,368.8,713.5,382.9,712.6z M292.6,573.5c1.7-4.6,2.1-8.2,4-10.6c3.4-4.2,7.7-7.5,11.4-11.4c1.2-1.2,1.8-3,2.6-4.6
		c-1.5-0.7-3-1.9-4.6-2c-8.9-0.8-17.8-1.5-26.8-1.8c-4.1-0.2-8.2,0.3-12.2,1c-1.6,0.3-2.9,1.9-4.4,2.9c1.2,1.3,2.2,2.9,3.5,3.9
		c5.3,4,11.1,7.5,15.9,12c2,1.8,2.1,5.8,3,8.7c-2.5-0.8-5.1-1.3-7.4-2.4c-10.6-5-21.6-9.5-32.6-2.5c-8.6,5.5-10.9,19.7-6.8,32.8
		c2.7,8.6,9.4,14.5,18.4,14.2c7-0.3,7.2,1.9,6.8,8.1c-0.8,13.2,1.6,21.5,10.3,25.4c10,4.5,20,5.1,29-1.7c9.6-7.1,10.8-17.2,8.3-28.1
		c-1.6-7.2-0.8-8.1,6.6-6.9c15.5,2.5,27.6-9.3,25.7-25.1c-1.7-13.5-17.5-23.4-31.7-19.5C306,567.6,300.5,570.4,292.6,573.5z
		 M315.1,197.4c0.4-2.8,0.7-5,1-7.2c1.6-13.9-2.3-23.1-11.7-27.1c-9.9-4.2-19.6-4.2-28.3,2.8c-8.9,7.2-9.9,16.8-7.5,27.3
		c0.5,2.3,0.9,4.7,1.5,8c-3.2-0.3-5.4-0.4-7.6-0.8c-16-2.5-27.5,8.3-26.2,24.6c1,12.9,17.1,23.4,30.9,19.8
		c6.4-1.7,12.3-4.9,18.5-7.3c0.6,0.6,0.6,0.6,1.2,1.2c-1.4,3.5-2.3,7.4-4.5,10.3c-3.2,4-7.5,7.1-11.2,10.8c-1,1-1.8,2.8-1.8,4.2
		c0,0.6,2.2,1.7,3.4,1.8c11,0.8,22,1.7,33,2c3.6,0.1,7.3-1.7,11-2.7c0.2-1.1,0.2-1.2,0.4-2.2c-5-3.5-10.2-6.9-15.1-10.6
		c-4.9-3.7-9.8-7.7-7.9-16.3c2.5,1.8,4.3,3.1,6,4.3c10.4,7.2,27.4,9.1,34.2,3.7c8.1-6.4,10.8-20.7,6.4-33.6
		c-2.9-8.5-11.3-14-20.4-13.4C319.1,197,317.5,197.2,315.1,197.4z M83.6,153.3c-0.6-22.9-4.9-29.6-19.4-28.9
		c-4.8,0.2-10.3,2.4-14.1,5.4c-8.9,7.1-6.1,17.1-4,27.1c-3.4-0.4-5.8-0.7-8.2-1.1c-6.8-1.2-11.9,1.4-15.2,7.3
		c-3.8,6.6-6.3,13.7-0.9,20.5c5.6,7,13.1,11.3,22.5,8.8c4.9-1.3,9.5-3.6,15.9-6.2c-1.7,3.8-2.4,6.9-4.1,9c-2.4,3-5.8,5.4-8.5,8.2
		c-1,1.1-1.4,2.7-2.1,4.1c1.2,0.5,2.5,1.5,3.7,1.6c8.3,0.6,16.6,1.4,24.9,1.5c3.4,0.1,6.9-1.3,10.3-2c0.2-1,0.2-1.1,0.4-2
		c-4-2.8-8-5.5-11.9-8.4c-6.4-4.8-7.3-6.6-6.5-10.5c7.1,2.1,14.3,5,21.6,6.2c7.6,1.2,12-2.2,15.1-9.3
		C110.5,168.1,101.5,153.8,83.6,153.3z M495.4,602.1c-0.2,1-0.2,1.1-0.4,2c4,2.8,8,5.5,11.9,8.4c6.4,4.8,7.3,6.6,6.5,10.4
		c-7.4-2.1-14.7-4.8-22.3-6.2c-6.8-1.3-11.4,2.7-14.3,8.8c-7.8,16.6,1.4,31.6,19.4,31.9c0.7,22.9,4.9,29.6,19.4,28.9
		c4.8-0.2,10.3-2.4,14.1-5.4c8.9-7.1,6.1-17.1,4-27.1c3.3,0.4,5.8,0.7,8.2,1.1c6.8,1.2,11.9-1.3,15.2-7.2c3.8-6.6,6.3-13.7,1-20.5
		c-5.6-7.1-13-11.3-22.5-8.8c-4.9,1.3-9.5,3.6-15.9,6.2c1.7-3.8,2.3-6.9,4.1-9c2.6-3.2,6.1-5.6,9-8.6c0.9-0.9,1.8-2.7,1.5-3.7
		c-0.3-0.9-2.3-1.5-3.5-1.6c-8.3-0.6-16.6-1.4-24.9-1.5C502.3,600.1,498.8,601.4,495.4,602.1z M98.2,78.2
		c-0.4-13.1-5.5-20.2-17.7-22c-3.4-0.5-8.9,0.7-10.6,3.1c-5.9,8.5-10.7,17.9-9.6,28.9c0.9,8.7,9.3,17.2,17.4,18
		c6.9,0.7,14.7-5.1,17.4-13.5C96.6,88.1,97.2,83.1,98.2,78.2z M481.6,732.3c0.3,13.3,5.9,20.8,18.1,22.3c3.3,0.4,8.5-0.7,10-3
		c6.1-8.9,11.2-18.7,9.6-30.2c-1.1-8-9.5-16.1-17.1-17c-6.9-0.8-14.8,4.9-17.6,13.4C483.2,722.5,482.6,727.5,481.6,732.3z
		 M49.7,80.9c-0.4,0-0.9,0-1.3,0c0-5.8,0.1-11.6,0-17.4c-0.1-3.5-1.5-6.8-5.3-5.9c-1.9,0.4-4.3,4-4.3,6.1c0,11.2,0.5,22.5,1.5,33.6
		c0.2,2.1,2.9,5.3,4.8,5.6c4.1,0.6,4.7-2.9,4.7-6.4C49.6,91.3,49.7,86.1,49.7,80.9z M540.5,730.9c-0.2,0-0.5,0-0.7,0
		c0-5.8,0.4-11.7-0.2-17.4c-0.2-2.1-3.1-3.9-4.8-5.9c-1.6,2-4.4,4-4.5,6.1c0,11.2,0.7,22.4,1.1,33.7c0.1,3.5,1.5,6.8,5.4,5.9
		c1.9-0.4,4.1-3.9,4.2-6.1C541.5,741.7,540.8,736.3,540.5,730.9z"/>
	<path class="st1" d="M165.6,140.6c-6.1,2.5-12,5.2-18.2,7.3c-13.8,4.7-33.6-9-33.1-22.8c0.5-15.8,11.8-26.3,27.1-23.8
		c2.4,0.4,4.8,0.6,8.1,0.9c-0.8-5.4-1.8-10-2.2-14.6c-1.2-11.1,4.1-20.6,13.6-25.1c9.4-4.4,24.5-2.5,31.1,4.4c6.8,7,6.2,16,5.9,24.8
		c-0.1,2-0.5,4-0.9,6.6c1.8-0.1,3.2-0.2,4.5-0.4c10.3-1.1,19.6,5,22.5,14.9c2.8,9.3,3,18.5-1.6,27.4c-3.6,6.9-9.1,10.5-17.2,10.3
		c-11-0.3-20.7-3.9-29.2-11.1c-1.9,5.6-1.1,8.7,4.1,13c4.8,3.9,10.2,7.2,15.2,10.9c1.4,1,2.4,2.6,3.6,3.9c-1.5,1-2.8,2.4-4.4,2.8
		c-3.3,0.8-6.8,1.6-10.2,1.5c-10.4-0.3-20.8-1-31.2-1.8c-1.6-0.1-4.1-1.1-4.4-2.2c-0.4-1.2,0.9-3.4,2.1-4.6
		c3.7-3.7,8.1-6.7,11.3-10.7c2.4-3,3.6-7,5.3-10.6C166.8,141.2,166.2,140.9,165.6,140.6z"/>
	<path class="st1" d="M405.9,143.1c-6.1,2.5-12,5.3-18.2,7.4c-14,4.6-33.2-9.5-32.9-22.4c0.4-16.1,11.6-26.8,27.3-24.2
		c2.2,0.4,4.5,0.6,7.8,1c-0.8-5.2-1.7-9.8-2.1-14.3c-1.2-11.4,3.7-20.7,13.2-25.4c9.3-4.6,24.3-2.9,31.2,3.9
		c7,6.9,6.5,15.8,6.2,24.6c-0.1,2.1-0.6,4.1-1,6.5c3.9,0.2,8-0.3,11.5,0.9c4.3,1.6,8.9,3.9,11.9,7.3c8.5,9.6,7.5,30.5-1.7,39.4
		c-2.9,2.7-7.6,4.6-11.6,4.9c-11.6,0.9-21.9-3.3-31.3-11.1c-2.2,6.4,1,10.3,4.8,13.4c4.8,4,10.2,7.2,15.2,10.9c1.4,1,2.3,2.6,3.4,4
		c-1.3,0.9-2.5,2.2-4,2.5c-3.5,0.8-7.2,1.7-10.8,1.6c-10.4-0.3-20.8-1-31.2-1.8c-1.6-0.1-3.6-1.2-4.4-2.5c-0.5-0.7,0.8-3.1,1.9-4.1
		c3.7-3.6,8.1-6.7,11.4-10.6c2.6-3.1,3.8-7.3,5.6-11C407.3,143.7,406.6,143.4,405.9,143.1z"/>
	<path class="st1" d="M197,284.9c14-1,22,2.8,26,11.7c5.4,12.2,3.7,28.3-4.7,35.7c-2.9,2.6-7.3,4.3-11.2,4.6
		c-11.7,0.9-22-3.2-31-10.8c-1.9,5.5-1.2,8.7,4.1,13c4.8,3.9,10.2,7.2,15.2,10.9c1.4,1,2.4,2.6,3.6,3.9c-1.5,1-2.8,2.4-4.4,2.8
		c-3.3,0.8-6.8,1.6-10.2,1.5c-10.4-0.3-20.8-1-31.2-1.8c-1.6-0.1-4.1-1.1-4.4-2.2c-0.4-1.2,0.9-3.4,2.1-4.6
		c3.7-3.7,8.1-6.7,11.3-10.7c2.4-3,3.6-7,5.3-10.6c-0.6-0.5-1.2-1-1.8-1.5c-1.8,0.9-3.7,1.8-5.5,2.8c-15.1,8.3-25.8,8.1-38-2
		c-7.9-6.5-9.7-15.6-4.9-26.6c4.9-11.2,11.5-15.1,22.4-13.4c3,0.5,6.1,0.8,9.9,1.3c-0.8-5.4-1.8-10-2.2-14.7
		c-1.2-11.1,4.1-20.6,13.6-25.1c9.4-4.4,24.5-2.5,31.1,4.4c6.8,7,6.2,16,5.9,24.8C197.8,280.3,197.3,282.3,197,284.9z"/>
	<path class="st1" d="M406.2,328.5c-6,2.5-11.9,5.4-18.1,7.3c-14.6,4.4-32-7-33-21.1c-1.2-16.7,10.8-27.9,27.2-25.3
		c2.2,0.4,4.5,0.6,7.6,0.9c-0.8-5.3-1.7-9.9-2.2-14.5c-1.2-11.3,3.9-20.7,13.4-25.3c9.3-4.5,24.4-2.7,31.1,4.1
		c6.9,6.9,6.4,15.9,6.1,24.7c-0.1,2-0.6,4.1-0.9,6.3c4.3,0.3,8.5-0.1,12.2,1.2c3.9,1.4,8.1,3.7,10.8,6.8c8.7,9.7,7.9,31-1.6,39.9
		c-2.8,2.6-7.2,4.4-11.1,4.7c-10.5,0.9-20.2-2.2-28.6-8.8c-0.7-0.5-1.3-1-2-1.4c-0.3-0.2-0.8,0-1.5,0c-1.8,5.7,1.3,9.6,5.2,12.7
		c5,4,10.6,7.4,15.8,11.2c1.1,0.8,1.8,2.1,2.7,3.1c-1.2,1-2.2,2.5-3.5,2.8c-3.7,0.9-7.6,1.8-11.4,1.7c-10.4-0.3-20.8-1-31.2-1.7
		c-1.4-0.1-3.9-1.2-4-2c-0.2-1.5,0.7-3.6,1.8-4.7c3.7-3.7,8.1-6.7,11.3-10.7c2.5-3.1,3.7-7.3,5.4-10.9
		C407.3,329.1,406.8,328.8,406.2,328.5z"/>
	<path class="st1" d="M142.5,524.4c-11.5,1.7-20.5-0.7-25.7-10.9c-5.9-11.5-4.3-28,3.9-35.8c2.9-2.8,7.5-4.6,11.5-5.1
		c9.9-1.1,16.9,1.7,31.2,10.4c1.8-4.8,1.6-7.3-2.9-11.2c-5.2-4.5-11.1-8.1-16.5-12.3c-1.4-1.1-2.4-2.6-3.6-3.9
		c1.5-1,2.8-2.4,4.4-2.8c3.3-0.8,6.8-1.6,10.2-1.5c10.4,0.3,20.8,1,31.2,1.8c1.6,0.1,4.1,1.1,4.5,2.2c0.4,1.2-0.9,3.5-2,4.6
		c-3.8,3.8-8.4,7-11.7,11.2c-2.3,2.9-3.2,7-5.3,12c8.2-3.3,14.2-6.1,20.4-8.2c13.8-4.8,33.6,9,33.1,22.7
		c-0.5,15.8-11.7,26.4-27.1,23.9c-2.4-0.4-4.8-0.6-8.1-0.9c0.8,5.4,1.7,10,2.2,14.6c1.2,11.1-4.1,20.6-13.6,25.1
		c-9.4,4.5-24.5,2.5-31.1-4.4c-6.8-7-6.2-16-5.9-24.7C141.6,529.2,142.1,527.2,142.5,524.4z"/>
	<path class="st1" d="M414,483.5c6-2.5,11.9-5.4,18.1-7.3c14.6-4.4,32,7,33,21.2c1.2,16.7-10.8,27.9-27.2,25.3
		c-2.2-0.4-4.5-0.6-7.6-0.9c0.8,5.3,1.7,9.9,2.2,14.5c1.2,11.2-3.9,20.7-13.4,25.3c-9.3,4.5-24.4,2.6-31.1-4.2
		c-6.9-6.9-6.4-15.9-6-24.7c0.1-2,0.6-4.1,0.9-6.3c-4.3-0.3-8.5,0.1-12.2-1.2c-3.9-1.4-8.1-3.7-10.8-6.8c-8.7-9.7-7.9-31,1.6-39.9
		c2.8-2.6,7.2-4.4,11.1-4.7c10.5-0.9,20.2,2.2,28.6,8.8c0.9,0.7,2,1.2,3.3,2.1c2-6.3-1.2-10.2-5.1-13.3c-5-4-10.6-7.4-15.8-11.2
		c-1.1-0.8-1.8-2.1-2.7-3.1c1.2-1,2.2-2.5,3.6-2.8c3.7-0.9,7.6-1.8,11.4-1.7c10.4,0.3,20.8,1,31.2,1.7c1.4,0.1,3.9,1.2,4,2
		c0.2,1.5-0.7,3.6-1.8,4.7c-3.8,3.8-8.4,7-11.7,11.1c-2.4,2.9-3.3,7-4.9,10.6C413,483,413.5,483.3,414,483.5z"/>
	<path class="st1" d="M164.1,668.4c1.8-5.7-1.3-9.6-5.2-12.7c-5-4-10.6-7.4-15.8-11.2c-1.1-0.8-1.8-2.1-2.7-3.1
		c1.2-1,2.2-2.5,3.5-2.8c3.7-0.9,7.6-1.8,11.4-1.7c10.4,0.3,20.8,1,31.2,1.7c1.4,0.1,3.9,1.1,4,2c0.2,1.5-0.7,3.6-1.8,4.7
		c-3.7,3.7-8.1,6.7-11.3,10.7c-2.5,3.1-3.7,7.3-5.5,10.9c0.5,0.3,1.1,0.6,1.6,0.9c6-2.5,11.9-5.4,18.1-7.3
		c14.8-4.4,32.2,7.3,33,21.8c0.9,16.4-11.1,27.2-27.2,24.7c-2.2-0.4-4.5-0.6-7.7-0.9c0.8,5.3,1.7,9.9,2.2,14.5
		c1.2,11.3-3.9,20.7-13.4,25.3c-9.3,4.5-24.4,2.7-31.1-4.1c-6.9-6.9-6.4-15.9-6.1-24.7c0.1-2,0.6-4.1,0.9-6.3
		c-4.2-0.3-8.5,0.1-12.2-1.2c-4-1.4-8.1-3.7-10.8-6.7c-8.7-9.7-7.9-30.9,1.6-39.9c2.8-2.6,7.2-4.4,11.1-4.7
		c10.5-0.9,20.2,2.2,28.6,8.8c0.7,0.5,1.3,1,2,1.4C162.9,668.5,163.4,668.4,164.1,668.4z"/>
	<path class="st1" d="M382.9,712.6c-14.1,0.9-22-2.8-26-11.7c-5.4-12.2-3.7-28.3,4.6-35.7c2.8-2.6,7.3-4.2,11.1-4.6
		c9.9-1,16.8,1.7,31.2,10.4c1.7-4.8,1.6-7.4-2.9-11.2c-5.2-4.5-11.1-8.1-16.5-12.3c-1.4-1.1-2.4-2.6-3.6-3.9c1.5-1,2.8-2.4,4.4-2.8
		c3.3-0.8,6.8-1.6,10.2-1.5c10.4,0.3,20.8,1,31.2,1.8c1.6,0.1,4.1,1.1,4.5,2.2c0.4,1.2-0.9,3.5-2,4.6c-3.8,3.8-8.4,7-11.7,11.2
		c-2.3,2.9-3.2,7-5.3,12c8.2-3.3,14.2-6.1,20.4-8.2c13.8-4.8,33.6,9,33.1,22.7c-0.5,15.8-11.7,26.4-27.1,23.9
		c-2.4-0.4-4.8-0.6-8.1-0.9c0.8,5.4,1.7,10,2.2,14.6c1.2,11.1-4.1,20.6-13.6,25.1c-9.4,4.5-24.5,2.5-31.1-4.4
		c-6.8-7-6.2-16-5.9-24.8C382,717.1,382.5,715.1,382.9,712.6z"/>
	<path class="st1" d="M292.6,573.5c7.9-3.1,13.4-5.9,19.3-7.6c14.2-3.9,30,6,31.7,19.5c1.9,15.8-10.2,27.6-25.7,25.1
		c-7.3-1.2-8.2-0.3-6.6,6.9c2.5,11,1.2,21-8.3,28.1c-9.1,6.7-19,6.1-29,1.7c-8.8-3.9-11.2-12.2-10.3-25.4c0.4-6.2,0.2-8.3-6.8-8.1
		c-9,0.4-15.7-5.5-18.4-14.2c-4.1-13.1-1.8-27.4,6.8-32.8c11-7,22-2.4,32.6,2.5c2.3,1.1,4.9,1.6,7.4,2.4c-0.9-3-1-6.9-3-8.7
		c-4.8-4.5-10.6-8-15.9-12c-1.4-1-2.4-2.6-3.5-3.9c1.5-1,2.8-2.6,4.4-2.9c4-0.7,8.1-1.1,12.2-1c8.9,0.3,17.9,1,26.8,1.8
		c1.6,0.1,3.1,1.3,4.6,2c-0.9,1.5-1.5,3.3-2.6,4.6c-3.7,3.9-8.1,7.2-11.4,11.4C294.7,565.3,294.3,568.9,292.6,573.5z"/>
	<path class="st1" d="M315.1,197.4c2.4-0.2,4-0.4,5.5-0.5c9.1-0.6,17.5,4.9,20.4,13.4c4.4,12.9,1.7,27.3-6.4,33.6
		c-6.8,5.4-23.8,3.5-34.2-3.7c-1.8-1.2-3.5-2.5-6-4.3c-2,8.6,3,12.6,7.9,16.3c4.9,3.7,10.1,7.1,15.1,10.6c0,0.7,0,1.4-0.1,2.1
		c-3.8,1-7.5,2.8-11.3,2.7c-11-0.2-22-1.2-33-2c-1.2-0.1-3.4-1.2-3.4-1.8c0-1.4,0.7-3.2,1.8-4.2c3.6-3.7,8-6.8,11.2-10.8
		c2.3-2.9,3.1-7,4.6-10.6c-0.5-0.3-1.1-0.5-1.6-0.8c-6.1,2.4-11.9,5.5-18.2,7.2c-13.9,3.7-29.9-6.9-30.9-19.8
		c-1.3-16.3,10.2-27.1,26.2-24.6c2.2,0.3,4.4,0.4,7.6,0.8c-0.6-3.3-0.9-5.6-1.5-8c-2.4-10.5-1.4-20.1,7.5-27.3
		c8.7-7,18.4-7,28.3-2.8c9.4,3.9,13.3,13.2,11.7,27.1C315.9,192.4,315.5,194.6,315.1,197.4z"/>
	<path class="st1" d="M83.6,153.3c17.9,0.4,26.9,14.8,19.7,31.4c-3.1,7.1-7.5,10.5-15.1,9.3c-7.4-1.2-14.5-4.1-21.6-6.2
		c-0.8,3.8,0.1,5.7,6.5,10.5c3.9,2.9,7.9,5.6,11.9,8.4c-0.1,0.7-0.2,1.3-0.3,2c-3.5,0.7-7,2-10.4,2c-8.3-0.1-16.6-0.9-24.9-1.5
		c-1.3-0.1-2.5-1-3.7-1.6c0.7-1.4,1.1-3.1,2.1-4.1c2.7-2.8,6.1-5.1,8.5-8.2c1.8-2.2,2.4-5.2,4.1-9c-6.4,2.5-11,4.9-15.9,6.2
		c-9.4,2.5-16.9-1.8-22.5-8.8c-5.3-6.7-2.8-13.8,0.9-20.5c3.3-5.9,8.4-8.4,15.2-7.3c2.4,0.4,4.8,0.7,8.2,1.1c-2.1-10-4.9-20,4-27.1
		c3.8-3,9.2-5.2,14.1-5.4C78.7,123.7,83,130.5,83.6,153.3z"/>
	<path class="st1" d="M495.3,602.1c3.5-0.7,7-2,10.4-2c8.3,0.1,16.6,0.9,24.9,1.5c1.3,0.1,3.2,0.8,3.5,1.6c0.3,1-0.6,2.8-1.5,3.7
		c-2.9,3-6.4,5.4-9,8.6c-1.8,2.2-2.4,5.2-4.1,9c6.4-2.5,11-4.9,15.9-6.2c9.4-2.5,16.9,1.8,22.5,8.8c5.3,6.7,2.8,13.8-1,20.5
		c-3.3,5.9-8.4,8.4-15.2,7.2c-2.4-0.4-4.8-0.7-8.2-1.1c2.1,10,4.9,20.1-4,27.1c-3.8,3-9.3,5.1-14.1,5.4c-14.5,0.7-18.7-6-19.4-28.9
		c-18.1-0.4-27.2-15.4-19.4-31.9c2.8-6.1,7.4-10.1,14.3-8.8c7.6,1.4,14.9,4.1,22.3,6.2c0.8-3.7-0.1-5.6-6.5-10.4
		c-3.9-2.9-7.9-5.6-11.9-8.4C495.1,603.4,495.2,602.7,495.3,602.1z"/>
	<path class="st1" d="M98.2,78.2c-1,4.9-1.6,9.9-3.1,14.6c-2.7,8.5-10.5,14.2-17.4,13.5c-8.1-0.8-16.5-9.4-17.4-18
		c-1.1-11,3.7-20.4,9.6-28.9c1.7-2.4,7.2-3.6,10.6-3.1C92.7,58,97.9,65.1,98.2,78.2z M88.1,78.2c-0.3-2.4-0.3-4.8-1-6.9
		c-1.3-4.1-8.7-7.4-10.3-4.7c-4.2,6.7-8.7,13.9-6.2,22.1c0.9,3.1,5,6.7,8.1,7.2c2.1,0.3,5.8-3.9,7.3-6.8
		C87.6,85.9,87.5,81.8,88.1,78.2z"/>
	<path class="st1" d="M481.6,732.3c1-4.9,1.6-9.9,3.2-14.5c2.8-8.5,10.7-14.1,17.6-13.4c7.6,0.9,16,9,17.1,17
		c1.6,11.5-3.5,21.2-9.6,30.2c-1.6,2.3-6.8,3.4-10,3C487.5,753.1,481.9,745.6,481.6,732.3z M491.8,732.5c0.3,2.4,0.3,4.9,1.1,7.2
		c1.4,4.1,9.2,7.1,10.3,4.3c2.8-6.8,5.4-13.9,6.1-21.1c0.3-2.5-4.6-7.1-7.8-8c-1.9-0.5-6,4-7.7,7
		C492.1,724.9,492.4,728.8,491.8,732.5z"/>
	<path class="st1" d="M49.7,80.9c0,5.2-0.1,10.4,0,15.6c0.1,3.4-0.6,7-4.7,6.4c-1.9-0.3-4.6-3.5-4.8-5.6
		c-0.9-11.2-1.4-22.4-1.5-33.6c0-2.1,2.4-5.6,4.3-6.1c3.8-0.9,5.3,2.4,5.3,5.9c0.1,5.8,0,11.6,0,17.4C48.8,80.9,49.2,80.9,49.7,80.9
		z"/>
	<path class="st1" d="M540.5,730.9c0.3,5.4,1,10.8,0.6,16.2c-0.2,2.2-2.4,5.7-4.2,6.1c-3.8,0.9-5.2-2.4-5.4-5.9
		c-0.5-11.2-1.1-22.4-1.1-33.7c0-2,2.9-4,4.5-6.1c1.7,1.9,4.5,3.8,4.8,5.9c0.7,5.7,0.2,11.6,0.2,17.4
		C540,730.9,540.3,730.9,540.5,730.9z"/>
	<path class="st0" d="M88.1,78.2c-0.6,3.6-0.5,7.7-2.1,10.8c-1.5,2.9-5.2,7.2-7.3,6.8c-3.1-0.5-7.1-4.1-8.1-7.2
		c-2.5-8.2,2-15.4,6.2-22.1c1.7-2.7,9,0.7,10.3,4.7C87.8,73.4,87.7,75.8,88.1,78.2z"/>
	<path class="st0" d="M491.8,732.5c0.6-3.7,0.4-7.6,2-10.5c1.7-3,5.8-7.5,7.7-7c3.3,0.9,8.1,5.4,7.8,8c-0.8,7.2-3.4,14.3-6.1,21.1
		c-1.2,2.8-8.9-0.2-10.3-4.3C492.1,737.4,492.1,734.8,491.8,732.5z"/>
</g>
</svg>
