<?xml version="1.0" encoding="utf-8"?>
<!-- Generator: Adobe Illustrator 24.0.0, SVG Export Plug-In . SVG Version: 6.00 Build 0)  -->
<svg version="1.0" id="Layer_1" xmlns="http://www.w3.org/2000/svg" xmlns:xlink="http://www.w3.org/1999/xlink" x="0px" y="0px"
	 viewBox="0 0 578.6 809.5" style="enable-background:new 0 0 578.6 809.5;" xml:space="preserve">
<style type="text/css">
	.st0{fill:#FEFDFD;}
	.st1{fill:#FE2121;}
</style>
<g>
	<path class="st0" d="M539.6,809.5H39c-21.5,0-39-17.5-39-39V39C0,17.5,17.5,0,39,0h500.6c21.5,0,39,17.5,39,39v731.5
		C578.6,792,561.1,809.5,539.6,809.5z M175.9,88.9c-1.8-2.7-3.1-4.8-4.5-6.8c-6.4-9.4-18.4-13.3-26.7-8.6
		c-8.6,4.9-18.8,20.5-14.8,34.5c3.3,11.6,10.6,20.2,18,28.9c8.4,9.9,16.4,20.1,19.2,33.2c0.2,0.8,0.4,1.8,0.9,2.3
		c1.1,1,2.6,2.5,3.8,2.4c1-0.1,2.2-2,2.7-3.4c0.7-1.9,0.5-4.2,1.4-6c8.4-17.2,19.3-32.5,34.6-44.6c5.1-4.1,9.7-9.3,13.4-14.7
		c6.4-9.3,3.4-25.6-5.1-32.6c-9.3-7.7-21-7.2-30.6,1.7C183.9,79,180.4,83.7,175.9,88.9z M399,90.3c-1.9-2.9-3.3-5.1-4.8-7.2
		c-8.1-11.6-24.1-15-34.1-1.7c-10.6,14.1-10.9,28.3,0.8,44.2c11.2,15.2,25.9,28.1,30.1,47.7c0.3,1.2,2.7,2,4.1,2.9
		c0.8-1.3,1.9-2.4,2.4-3.8c0.7-1.9,0.6-4.2,1.5-6c8.4-17.3,19.4-32.5,34.7-44.5c5.1-4.1,9.6-9.3,13.3-14.8
		c7.3-10.6,1.8-32-11.9-36.3c-9.7-3-19.5-0.4-27.3,8.7C404.9,82.8,402.3,86.3,399,90.3z M283.6,171.6c-1.8-2.7-3.1-4.8-4.5-6.9
		c-6.4-9.4-18.5-13.3-26.7-8.6c-8.6,5-18.7,20.5-14.8,34.5c3.3,11.6,10.7,20.1,18,28.9c8.4,9.9,16.4,20.1,19.2,33.2
		c0.2,0.8,0.4,1.8,1,2.3c1.1,1,2.6,2.5,3.8,2.4c1-0.1,2.2-2.1,2.7-3.4c0.7-1.9,0.5-4.2,1.4-6c8.4-17.3,19.3-32.5,34.6-44.6
		c5.1-4.1,9.7-9.3,13.4-14.7c6.4-9.3,3.4-25.6-5.2-32.6c-9.3-7.6-21-7.2-30.6,1.7C291.6,161.8,288.1,166.5,283.6,171.6z
		 M173.4,270.6c-1.8-2.7-3.1-4.8-4.5-6.9c-6.4-9.4-18.5-13.3-26.7-8.6c-8.6,5-18.7,20.5-14.8,34.5c3.3,11.6,10.7,20.1,18,28.9
		c8.4,9.9,16.4,20.1,19.2,33.2c0.2,0.8,0.4,1.8,1,2.3c1.1,1,2.6,2.5,3.8,2.4c1-0.1,2.2-2.1,2.7-3.4c0.7-1.9,0.5-4.2,1.4-6
		c8.4-17.3,19.3-32.5,34.6-44.6c5.1-4.1,9.7-9.3,13.4-14.7c6.4-9.3,3.4-25.6-5.2-32.6c-9.3-7.6-21-7.2-30.6,1.7
		C181.4,260.8,177.9,265.5,173.4,270.6z M399.6,270c-0.9-0.5-1.4-0.6-1.6-0.9c-1.2-1.7-2.4-3.4-3.5-5.2c-6.4-9.5-18.2-13.5-26.6-9
		c-10.8,5.8-17.8,21.8-15.2,33.8c2.3,10.7,8.8,18.8,15.6,26.7c9.4,11,18.7,22,22,36.6c0.4,1.8,2.8,3.1,4.2,4.6c1-1.7,2.2-3.4,3-5.2
		c0.5-1.1,0.3-2.6,0.9-3.6c7.5-13.5,14.4-27.3,26.4-37.7c7.8-6.8,15.4-14.1,21.8-22.2c7.9-10,2.8-33-12.9-37.2
		c-9-2.4-18.7,0.5-26.1,9.3C404.8,263.4,402.2,266.8,399.6,270z M180.8,538.7c1.9,2.8,3.3,4.8,4.7,6.9c8,11.8,22.3,14.1,31.7,5.1
		c11.6-11.2,14.1-28.1,5.3-41.7c-5.5-8.3-12.1-15.9-18.3-23.8c-6.3-8.1-11.9-16.6-14.3-26.8c-0.5-2.1-2.7-3.7-4.2-5.5
		c-1.1,1.9-2.3,3.8-3.3,5.8c-0.6,1.3-0.8,2.8-1.4,4.1c-8.6,17.4-19.7,32.8-35.2,44.9c-4.8,3.8-8.9,8.8-12.5,13.8
		c-7.4,10.1-3.3,33.6,14.2,37.5c10.4,2.3,18.3-2.1,24.8-9.6C175,546.1,177.6,542.7,180.8,538.7z M406.2,538.7
		c1.9,2.8,3.3,4.8,4.6,6.8c8,11.8,22.3,14.1,31.7,5.2c11.6-11.2,14.2-28.1,5.3-41.7c-5.4-8.3-12.1-15.9-18.3-23.8
		c-6.3-8.1-11.9-16.6-14.4-26.8c-0.5-2.1-2.7-3.7-4.1-5.6c-1.1,1.9-2.3,3.8-3.3,5.7c-0.6,1.3-0.7,2.8-1.4,4.1
		c-8.6,17.4-19.7,32.8-35.2,44.9c-4.8,3.8-8.9,8.8-12.5,13.8c-7.5,10.3-3,33.4,13.5,37.4c10.7,2.6,18.7-1.8,25.4-9.4
		C400.4,546.1,403,542.7,406.2,538.7z M296,637.6c2,3.1,3.4,5.2,4.8,7.2c7.6,11.1,21.1,14,30.2,5.8c9.4-8.6,15.4-19.5,10.5-32.4
		c-3.3-8.6-8.3-16.8-14-24c-9.3-11.8-19.5-22.9-22.8-38.2c-0.1-0.6-0.3-1.3-0.8-1.7c-1-0.9-2.5-2.4-3.3-2.1c-1.3,0.5-2.4,2-3,3.3
		c-0.8,1.9-0.5,4.2-1.4,6c-8.4,17.2-19.3,32.5-34.6,44.6c-5.1,4.1-9.8,9.2-13.4,14.7c-8,12.2-1.7,31.2,11.6,36.3
		c9.8,3.8,19.8,0.6,27.7-8.9C290.2,644.9,292.8,641.7,296,637.6z M180.8,719.2c1.9,2.8,3.3,4.8,4.7,6.9c8,11.8,22.3,14.1,31.7,5.1
		c11.7-11.2,14.1-28.1,5.3-41.7c-5.5-8.3-12.1-15.9-18.3-23.8c-6.3-8.1-11.9-16.6-14.3-26.8c-0.5-2.1-2.7-3.7-4.2-5.5
		c-1.1,1.9-2.3,3.8-3.3,5.8c-0.6,1.3-0.8,2.8-1.4,4.1c-8.6,17.5-19.7,32.8-35.2,44.9c-4.8,3.8-8.9,8.8-12.5,13.8
		c-7.6,10.4-2.7,33,13,37.2c9,2.4,18.6-0.6,26-9.4C175,726.5,177.6,723.1,180.8,719.2z M403.7,720.4c2,2.9,3.4,5,4.9,7.2
		c7.5,10.8,20.3,13.4,29.8,6c12.8-9.9,16.1-28.6,7.1-42.8c-4.3-6.8-9.7-13-14.8-19.4c-7.9-9.8-15.4-19.7-18.3-32.4
		c-0.4-1.7-2.8-3-4.3-4.5c-1,1.6-2.1,3.2-2.8,4.9c-0.7,1.5-0.6,3.3-1.3,4.7c-8.5,17.2-19.4,32.5-34.6,44.6
		c-5.1,4.1-9.6,9.3-13.4,14.7c-7.4,10.5-2.1,32.4,12.3,36.6c9.6,2.8,19.4-0.1,27.1-9.4C398,727.5,400.5,724.3,403.7,720.4z
		 M520.4,669.2c2.1,2.5,3.5,4.3,5,6c8.2,9.3,18.4,8.8,25.8-1.2c7.4-10,7.3-20.8-0.6-31.8c-8.6-11.9-20.2-21.9-23.6-37.2
		c-0.2-1-2-1.9-3.2-2.2c-0.5-0.1-1.7,1.5-2.1,2.6c-4.1,12.8-11.3,23.5-21.2,32.6c-5.3,4.9-10.9,9.8-15.4,15.5
		c-6,7.5-4.1,21.1,2.9,26.8c7.8,6.3,18.1,4.9,25.6-3.4C515.7,674.6,517.7,672.2,520.4,669.2z M59.4,140.7c-1.9-2.4-3.4-4.4-5-6.2
		c-8-9.2-18-8.8-25.4,0.8c-7.5,9.7-7.9,19.8-0.6,30.7c8.5,12.7,21.1,22.8,24.6,38.7c0.2,0.8,1.9,1.9,2.8,1.9c0.8-0.1,2-1.4,2.3-2.4
		c4.7-15.5,14.4-27.4,26.5-37.7c3.8-3.2,7.4-6.8,10.3-10.8c5.7-7.9,3.7-20.9-3.7-26.6c-7.4-5.7-17.3-4.4-24.7,3.4
		C64.2,134.9,62,137.6,59.4,140.7z M477.9,729.1c0.2,2.2,0.2,4.1,0.5,5.9c1.7,13,9.5,20,21.5,19.4c10.7-0.5,18.8-9.6,19.3-21.6
		c0.4-8.9-2.4-16.9-7.3-24.1c-5.9-8.7-16.7-9.7-24.2-2.4C481.1,712.7,478.6,720.7,477.9,729.1z M101.9,80.3c-0.2-2.3-0.2-4.1-0.5-6
		C99.7,61.5,92.3,54.7,80.6,55c-10.9,0.3-19.1,8.8-19.9,20.8c-0.6,9,2.2,17.2,7.1,24.6c5.9,8.9,17.1,10.1,24.7,2.5
		C98.8,96.7,101.3,88.7,101.9,80.3z M530.7,728.4c-0.5,0-1,0-1.5,0c0,6,0.1,12.1,0,18.1c-0.1,3.6,0.4,7.1,4.8,7.3
		c4.4,0.2,5.4-3.1,5.5-6.8c0.6-12.3,1.2-24.5,1.8-36.8c0.2-3.7-0.6-7.1-4.9-7.3c-4.6-0.2-5.6,3.4-5.6,7.3
		C530.7,716.4,530.7,722.4,530.7,728.4z M49.1,81.1l1.6,0c0-6.3-0.1-12.5,0-18.8c0.1-3.5-0.9-7-4.7-6.5c-2.1,0.3-5.2,3.7-5.4,5.9
		c-1.1,12.7-1.7,25.4-1.8,38.1c0,2.3,2.7,6.1,4.7,6.5c4.1,0.9,5.6-2.7,5.6-6.5C49.1,93.6,49.1,87.3,49.1,81.1z"/>
	<path class="st1" d="M175.9,88.9c4.5-5.1,8-9.8,12.3-13.8c9.6-8.9,21.3-9.3,30.6-1.7c8.5,7.1,11.5,23.3,5.1,32.6
		c-3.7,5.4-8.2,10.6-13.4,14.7c-15.3,12.1-26.2,27.3-34.6,44.6c-0.9,1.8-0.6,4.1-1.4,6c-0.5,1.4-1.7,3.3-2.7,3.4
		c-1.2,0.1-2.6-1.4-3.8-2.4c-0.6-0.5-0.8-1.5-0.9-2.3c-2.8-13.1-10.8-23.3-19.2-33.2c-7.4-8.7-14.8-17.3-18-28.9
		c-4-14,6.2-29.6,14.8-34.5c8.2-4.7,20.2-0.8,26.7,8.6C172.8,84.1,174.1,86.2,175.9,88.9z"/>
	<path class="st1" d="M399,90.3c3.3-4.1,5.9-7.5,8.7-10.8c7.7-9.2,17.6-11.8,27.3-8.7c13.8,4.3,19.3,25.7,11.9,36.3
		c-3.7,5.4-8.2,10.7-13.3,14.8c-15.3,12-26.2,27.3-34.7,44.5c-0.9,1.8-0.8,4-1.5,6c-0.5,1.4-1.6,2.6-2.4,3.8c-1.4-1-3.8-1.7-4.1-2.9
		c-4.2-19.6-18.9-32.5-30.1-47.7c-11.7-15.8-11.5-30.1-0.8-44.2c10.1-13.4,26.1-9.9,34.1,1.7C395.7,85.3,397.1,87.5,399,90.3z"/>
	<path class="st1" d="M283.6,171.6c4.5-5.1,8-9.8,12.2-13.7c9.6-8.9,21.3-9.4,30.6-1.7c8.6,7.1,11.5,23.3,5.2,32.6
		c-3.7,5.4-8.2,10.7-13.4,14.7c-15.3,12.1-26.2,27.3-34.6,44.6c-0.9,1.8-0.7,4.1-1.4,6c-0.5,1.4-1.6,3.3-2.7,3.4
		c-1.2,0.1-2.6-1.4-3.8-2.4c-0.6-0.5-0.8-1.5-1-2.3c-2.8-13.1-10.8-23.3-19.2-33.2c-7.4-8.7-14.8-17.3-18-28.9
		c-4-14,6.1-29.6,14.8-34.5c8.2-4.7,20.2-0.8,26.7,8.6C280.5,166.8,281.8,168.9,283.6,171.6z"/>
	<path class="st1" d="M173.4,270.6c4.5-5.1,8-9.8,12.2-13.7c9.6-8.9,21.3-9.4,30.6-1.7c8.6,7.1,11.5,23.3,5.2,32.6
		c-3.7,5.4-8.2,10.7-13.4,14.7c-15.3,12.1-26.2,27.3-34.6,44.6c-0.9,1.8-0.7,4.1-1.4,6c-0.5,1.4-1.6,3.3-2.7,3.4
		c-1.2,0.1-2.6-1.4-3.8-2.4c-0.6-0.5-0.8-1.5-1-2.3c-2.8-13.1-10.8-23.3-19.2-33.2c-7.4-8.7-14.8-17.3-18-28.9
		c-4-14,6.1-29.6,14.8-34.5c8.2-4.7,20.2-0.8,26.7,8.6C170.3,265.8,171.6,267.9,173.4,270.6z"/>
	<path class="st1" d="M399.6,270c2.6-3.3,5.3-6.7,8-10c7.4-8.8,17.1-11.7,26.1-9.3c15.7,4.2,20.8,27.2,12.9,37.2
		c-6.4,8.1-14,15.4-21.8,22.2c-12,10.4-18.9,24.2-26.4,37.7c-0.6,1-0.3,2.5-0.9,3.6c-0.8,1.8-2,3.5-3,5.2c-1.5-1.5-3.8-2.9-4.2-4.6
		c-3.4-14.7-12.7-25.6-22-36.6c-6.8-8-13.2-16.1-15.6-26.7c-2.6-12,4.4-27.9,15.2-33.8c8.3-4.5,20.2-0.5,26.6,9
		c1.2,1.7,2.3,3.5,3.5,5.2C398.2,269.5,398.6,269.5,399.6,270z"/>
	<path class="st1" d="M180.8,538.7c-3.2,3.9-5.8,7.4-8.6,10.6c-6.6,7.5-14.4,12-24.8,9.6c-17.5-3.9-21.6-27.4-14.2-37.5
		c3.7-5,7.7-10.1,12.5-13.8c15.5-12.1,26.7-27.4,35.2-44.9c0.6-1.3,0.8-2.8,1.4-4.1c1-2,2.2-3.8,3.3-5.8c1.4,1.8,3.7,3.5,4.2,5.5
		c2.5,10.2,8,18.7,14.3,26.8c6.1,7.9,12.8,15.4,18.3,23.8c8.9,13.6,6.4,30.5-5.3,41.7c-9.3,9-23.7,6.7-31.7-5.1
		C184.1,543.5,182.7,541.5,180.8,538.7z"/>
	<path class="st1" d="M406.2,538.7c-3.2,3.9-5.8,7.4-8.6,10.6c-6.8,7.7-14.7,12-25.4,9.4c-16.6-4-21-27.1-13.5-37.4
		c3.7-5,7.7-10.1,12.5-13.8c15.5-12.1,26.6-27.4,35.2-44.9c0.6-1.3,0.7-2.8,1.4-4.1c1-2,2.2-3.8,3.3-5.7c1.4,1.8,3.6,3.5,4.1,5.6
		c2.5,10.2,8,18.7,14.4,26.8c6.1,7.9,12.8,15.4,18.3,23.8c8.9,13.6,6.3,30.6-5.3,41.7c-9.4,9-23.7,6.6-31.7-5.2
		C409.5,543.5,408.1,541.5,406.2,538.7z"/>
	<path class="st1" d="M296,637.6c-3.3,4.1-5.8,7.3-8.4,10.5c-7.9,9.5-17.9,12.7-27.7,8.9c-13.2-5.2-19.6-24.2-11.6-36.3
		c3.6-5.5,8.2-10.6,13.4-14.7c15.3-12.1,26.1-27.4,34.6-44.6c0.9-1.8,0.6-4.1,1.4-6c0.5-1.3,1.7-2.9,3-3.3c0.7-0.3,2.2,1.3,3.3,2.1
		c0.4,0.4,0.6,1.1,0.8,1.7c3.3,15.4,13.5,26.4,22.8,38.2c5.7,7.2,10.7,15.5,14,24c4.9,12.9-1.1,23.8-10.5,32.4
		c-9.1,8.3-22.5,5.3-30.2-5.8C299.4,642.8,298.1,640.7,296,637.6z"/>
	<path class="st1" d="M180.8,719.2c-3.2,3.9-5.8,7.3-8.6,10.6c-7.4,8.8-17.1,11.8-26,9.4c-15.6-4.2-20.5-26.8-13-37.2
		c3.7-5,7.7-10.1,12.5-13.8c15.5-12.1,26.7-27.4,35.2-44.9c0.6-1.3,0.8-2.8,1.4-4.1c1-2,2.2-3.9,3.3-5.8c1.4,1.8,3.7,3.5,4.2,5.5
		c2.5,10.2,8,18.7,14.3,26.8c6.1,7.9,12.8,15.4,18.3,23.8c8.9,13.6,6.4,30.5-5.3,41.7c-9.3,9-23.7,6.7-31.7-5.1
		C184.1,724,182.7,722,180.8,719.2z"/>
	<path class="st1" d="M403.7,720.4c-3.1,3.9-5.7,7.1-8.3,10.3c-7.7,9.3-17.5,12.2-27.1,9.4c-14.4-4.3-19.8-26.1-12.3-36.6
		c3.8-5.4,8.2-10.7,13.4-14.7c15.3-12.1,26.2-27.3,34.6-44.6c0.7-1.4,0.7-3.3,1.3-4.7c0.7-1.7,1.9-3.3,2.8-4.9
		c1.5,1.5,3.9,2.8,4.3,4.5c2.9,12.7,10.4,22.6,18.3,32.4c5.1,6.3,10.4,12.5,14.8,19.4c9,14.3,5.7,32.9-7.1,42.8
		c-9.5,7.4-22.3,4.8-29.8-6C407.1,725.5,405.6,723.3,403.7,720.4z"/>
	<path class="st1" d="M520.4,669.2c-2.6,3-4.6,5.4-6.7,7.7c-7.5,8.3-17.8,9.7-25.6,3.4c-7-5.7-8.9-19.3-2.9-26.8
		c4.5-5.7,10-10.5,15.4-15.5c9.8-9.1,17.1-19.8,21.2-32.6c0.3-1,1.6-2.7,2.1-2.6c1.2,0.3,3,1.2,3.2,2.2c3.4,15.3,15,25.2,23.6,37.2
		c8,11,8,21.9,0.6,31.8c-7.4,10-17.6,10.5-25.8,1.2C523.9,673.5,522.5,671.7,520.4,669.2z"/>
	<path class="st1" d="M59.4,140.7c2.6-3,4.8-5.8,7.1-8.3c7.3-7.8,17.3-9.1,24.7-3.4c7.4,5.7,9.5,18.7,3.7,26.6
		c-2.9,4-6.5,7.6-10.3,10.8c-12.2,10.3-21.8,22.2-26.5,37.7c-0.3,1-1.5,2.3-2.3,2.4c-0.9,0.1-2.6-1-2.8-1.9
		c-3.6-15.9-16.1-26.1-24.6-38.7c-7.3-10.9-6.9-21,0.6-30.7c7.4-9.6,17.4-10,25.4-0.8C56,136.3,57.5,138.2,59.4,140.7z"/>
	<path class="st1" d="M477.9,729.1c0.6-8.5,3.2-16.5,9.7-22.8c7.5-7.3,18.3-6.3,24.2,2.4c4.9,7.2,7.7,15.2,7.3,24.1
		c-0.5,12-8.6,21.1-19.3,21.6c-12,0.6-19.7-6.4-21.5-19.4C478.2,733.2,478.1,731.3,477.9,729.1z M509.9,731
		c-1.7-4.8-3.1-9.8-5.2-14.5c-2.9-6.2-7.9-6.4-11.9-0.9c-4.6,6.3-5.1,13.4-3.9,20.8c0.8,5,4,7,8.5,7.7
		C504.2,745.1,508.9,739.8,509.9,731z"/>
	<path class="st1" d="M101.9,80.3c-0.6,8.4-3.2,16.4-9.5,22.7c-7.6,7.6-18.6,6.5-24.6-2.4c-5-7.4-7.8-15.6-7.2-24.7
		c0.8-12,9.1-20.6,19.9-20.8c11.8-0.3,19.1,6.5,20.9,19.3C101.7,76.1,101.7,78,101.9,80.3z M92.7,80.4c-0.4-0.2-0.9-0.3-1.3-0.5
		c0-1,0.1-2.1,0-3.1c-0.6-8.2-3.9-11.8-10.8-11.5c-5.7,0.3-10.2,5.3-9.5,12.4c0.5,5.4,2.4,10.9,4.6,16c2.3,5.2,7.6,5.5,10.7,0.6
		C89.1,90.1,90.6,85.1,92.7,80.4z"/>
	<path class="st1" d="M530.7,728.4c0-6,0-12.1,0-18.1c0-3.9,1-7.5,5.6-7.3c4.2,0.2,5,3.6,4.9,7.3c-0.6,12.3-1.2,24.5-1.8,36.8
		c-0.2,3.7-1.2,7-5.5,6.8c-4.4-0.2-4.8-3.7-4.8-7.3c0.1-6,0-12.1,0-18.1C529.7,728.4,530.2,728.4,530.7,728.4z"/>
	<path class="st1" d="M49.1,81.1c0,6.3,0,12.5,0,18.8c0,3.7-1.5,7.3-5.6,6.5c-2-0.4-4.7-4.3-4.7-6.5c0.1-12.7,0.7-25.5,1.8-38.1
		c0.2-2.2,3.3-5.6,5.4-5.9c3.8-0.5,4.8,3,4.7,6.5c-0.1,6.3,0,12.5,0,18.8C50.1,81.1,49.6,81.1,49.1,81.1z"/>
	<path class="st0" d="M509.9,731c-0.9,8.8-5.7,14.1-12.6,13.2c-4.5-0.6-7.7-2.7-8.5-7.7c-1.2-7.5-0.7-14.5,3.9-20.8
		c4.1-5.5,9-5.3,11.9,0.9C506.8,721.1,508.2,726.1,509.9,731z"/>
	<path class="st0" d="M92.7,80.4c-2,4.7-3.5,9.7-6.2,13.9c-3.1,4.9-8.4,4.6-10.7-0.6c-2.2-5-4.1-10.5-4.6-16
		c-0.7-7.2,3.8-12.2,9.5-12.4c6.9-0.3,10.2,3.2,10.8,11.5c0.1,1,0,2.1,0,3.1C91.8,80.1,92.2,80.3,92.7,80.4z"/>
</g>
</svg>
