<?xml version="1.0" encoding="utf-8"?>
<!-- Generator: Adobe Illustrator 24.0.0, SVG Export Plug-In . SVG Version: 6.00 Build 0)  -->
<svg version="1.0" id="Layer_1" xmlns="http://www.w3.org/2000/svg" xmlns:xlink="http://www.w3.org/1999/xlink" x="0px" y="0px"
	 viewBox="0 0 578.6 809.5" style="enable-background:new 0 0 578.6 809.5;" xml:space="preserve">
<style type="text/css">
	.st0{fill:#FDFDFD;}
	.st1{fill:#030303;}
</style>
<g>
	<path class="st0" d="M39,0h500.6c21.5,0,39,17.5,39,39v731.5c0,21.5-17.5,39-39,39H39c-21.5,0-39-17.5-39-39V39C0,17.5,17.5,0,39,0
		z M407.9,165.4c0,0.1,0,0.3,0,0.4c4,0,7.9,0.2,11.9,0c4.6-0.3,6.2-3.4,3.7-7.2c-0.9-1.4-2.4-2.3-3.4-3.6c-0.7-0.9-1-2-1.5-3.1
		c1.2-0.3,2.5-1.1,3.7-0.9c1.8,0.2,3.6,1.1,5.4,1.5c12.9,3.4,21.9-0.4,28.2-12.2c5.1-9.6,5.3-19.7,2.1-29.7
		c-2.8-8.6-11-11.4-18.2-15.1c-15.1-7.7-24.3-19.2-24.3-37c0-1.5-1.7-3.1-2.7-4.6c-1.1,1.5-2.8,3-3,4.6c-0.4,3.2,1.2,7.3-0.2,9.8
		c-5.4,9.9-11.2,20.2-23.8,22.1c-17.1,2.6-26.5,13-30.4,28.9c-1,4.1-0.7,9.3,1,13.1c5.8,13.1,16.5,18.6,30.9,17.1
		c3.1-0.3,6.3-0.4,9.5-0.5c-1.3,3.3-2.4,6.8-3.9,9.9c-2,4-0.9,6.3,3.8,6.5C400.4,165.6,404.2,165.4,407.9,165.4z M408.1,356
		c0,0.1,0,0.3,0,0.4c2.7,0,5.4,0.3,8.1-0.1c2.7-0.4,5.3-1.4,7.9-2.1c-1.1-2.7-2.1-5.4-3.3-8c-0.6-1.4-1.4-2.7-2.2-4
		c1.7-0.1,3.4-0.5,5-0.3c2.3,0.3,4.4,1.4,6.7,1.7c7.2,0.9,14.2,0.7,19.9-4.9c15.9-15.7,12-41.6-7.8-51.5c-1.3-0.6-2.7-1.2-3.9-1.9
		c-14.1-7.8-22.9-19-23-35.9c0-1.7-1.8-3.3-2.8-5c-1,1.8-2.6,3.5-2.8,5.4c-0.5,3,1.1,6.8-0.3,9.2c-5.5,9.9-11.4,20-23.9,22
		c-16.8,2.6-25.8,12.9-30.4,28.4c-1.7,5.7-1,10.7,1.9,15.5c7.9,13,18.5,17.6,33.4,14.9c2-0.4,4.2-0.1,6.3-0.1
		c-0.7,2.3-1.2,4.6-2,6.9c-0.3,1-1.1,1.7-1.7,2.6c-2.5,4.2-1.3,6.6,3.7,6.8C400.6,356.1,404.4,356,408.1,356z M397.1,471.6
		c-0.4,0.7-0.4,0.6-0.8,1.2c-3.5-1.4-7-3.1-10.6-4.2c-14.6-4.6-25.9,0.1-31.3,14.5c-5.5,14.8-4.9,33,14.3,40.3
		c1.7,0.7,3.4,1.7,5,2.5c13.9,7.4,21.7,18.7,22.5,34.7c0.1,2,1.8,3.8,2.8,5.8c0.9-2.1,2.2-4.1,2.6-6.3c0.6-3.2-0.5-7.2,1-9.6
		c5.4-8.8,10.8-17.9,22.2-20.5c3.1-0.7,6.2-1.5,9.3-2.4c10.4-2.9,15.7-10.6,19.7-20.1c7.2-17-3.6-35.5-22.1-36.1
		c-6.4-0.2-12.9,1.1-19.9,1.8c2.1-3.8,4.1-7.4,6.2-11c2.6-4.4,1.6-6.8-3.3-7c-7.1-0.3-14.2-0.5-21.2-0.4c-2,0-5.4,1.1-5.7,2.3
		c-0.4,2,0.6,4.7,1.9,6.5C391.8,466.4,394.6,468.9,397.1,471.6z M397.1,661c-0.4,0.6-0.3,0.5-0.7,1.1c-3.4-1.4-6.8-3-10.3-4.2
		c-15.5-5-27.3,1-32.5,16.4c-5.9,17.1-0.5,30.4,15.5,38.4c1.9,0.9,3.7,2,5.5,2.9c9.8,5.3,17.1,12.9,20,24c1,4,0.9,8.3,1.7,12.3
		c0.2,1.3,1.7,2.4,2.5,3.6c1-1.2,2.2-2.2,2.8-3.5c0.5-1.1,0.2-2.5,0.1-3.7c-0.4-13.4,14.4-29.7,27.9-30.9c2-0.2,4-0.6,6-1.3
		c10.2-3.2,14.7-11.4,18.6-20.5c6.6-15.3-4.1-34.2-20.9-35.2c-6.9-0.4-13.9,0.9-21.2,1.5c1.8-3.3,3.7-7,5.8-10.5
		c2.9-4.7,1.9-7.1-3.4-7.3c-6.9-0.3-13.8-0.6-20.6-0.4c-2.2,0.1-4.3,1.6-6.4,2.4c1,2.3,1.6,4.9,3,7
		C392.3,656.1,394.8,658.5,397.1,661z M299.3,252.2c0.5-0.8,0.5-0.7,0.9-1.5c3.5,1,7,2.2,10.5,3c10.9,2.7,18.8-0.6,24.6-10
		c10.3-16.9,5.3-34.5-12.6-43.2c-15-7.3-24.7-18.2-24.7-35.8c0-1.4-1.5-2.9-2.4-4.3c-1,1.6-2.5,3.1-2.8,4.7c-0.5,3,0.9,6.8-0.4,9.2
		c-5.3,9.5-11.2,18.8-23.3,20.9c-12.4,2.1-20.9,8.6-25.8,20.8c-6.7,16.7,3.3,33.9,21.4,34.6c5.4,0.2,10.9-0.8,17.6-1.3
		c-1.8,3.6-3.2,6.6-4.8,9.3c-2.9,4.9-2.1,7,3.4,7.2c6.5,0.2,12.9,0.5,19.4,0.3c2-0.1,5-1,5.6-2.4c0.6-1.5-0.8-4.1-1.9-5.9
		C302.8,255.7,300.9,254,299.3,252.2z M280.5,557.2c-0.6,0.9-0.5,0.8-1.1,1.8c-3.5-1-7-2.4-10.6-3c-7.4-1.4-14.5-1.1-20.3,4.9
		c-14.5,15-10.7,38.8,7.8,48c1.5,0.7,3,1.4,4.5,2.2c12.7,7.4,20.8,17.7,21.1,33.1c0,1.8,1.7,3.5,2.7,5.3c0.8-1.9,2.4-3.8,2.4-5.7
		c0.3-13.9,9.7-26.2,23.4-29c12.6-2.5,21.2-8.8,26.2-21.3c6.3-15.8-3.5-33.4-20.6-34.3c-5.7-0.3-11.4,0.7-18.4,1.3
		c1.8-3.6,3.2-6.7,4.9-9.6c2.7-4.6,1.9-6.7-3.3-6.9c-6.7-0.3-13.3-0.5-20-0.4c-1.8,0-4.9,1-5.1,2.1c-0.4,1.8,0.5,4.3,1.6,6
		C276.9,553.7,278.9,555.4,280.5,557.2z M179.9,145.2c0.5-0.5,0.3-0.4,0.8-0.9c1.5,1,2.8,2.2,4.4,3.1c9.2,5.1,18.9,9.2,28.9,3.1
		c11.7-7.1,14.8-18.8,14.1-31.9c-0.6-11.5-8.3-16.8-17.4-21.4c-15.9-7.9-26.7-19.5-26.9-38.6c0-1.6-1.8-3.1-2.7-4.7
		c-0.9,1.7-2.9,3.5-2.6,4.9c2.2,11.2-5.2,18-11.6,24.9c-2.7,3-7,5.7-10.9,6.2c-17.9,2.4-27.8,13-32.1,29.7
		c-0.9,3.6-0.9,8.2,0.7,11.4c5.2,10.6,12.8,18.8,26,18.1c5.6-0.3,11.2-1.6,17.9-2.7c-2,3.8-4.1,7.5-5.8,11.2c-0.8,1.7-2,4.3-1.3,5.4
		c0.8,1.3,3.4,1.8,5.3,1.9c6.2,0.4,12.5,0.6,18.7,0.4c2.4-0.1,4.8-1.6,7.1-2.4c-1.2-2.5-2-5.2-3.5-7.4
		C186.1,152.1,182.9,148.7,179.9,145.2z M179.8,334.7c0.6-0.6,0.4-0.4,0.9-1.1c1.5,1.1,2.9,2.4,4.5,3.2c9.2,5,18.9,9.1,28.9,2.9
		c11.7-7.3,14.6-18.9,13.9-32c-0.6-11.5-8.5-16.7-17.6-21.3c-15.7-7.8-26.4-19.3-26.7-38.1c0-1.7-1.5-3.4-2.3-5.1
		c-1.1,1.7-3.3,3.6-3,5.1c2,11.4-5.6,18.3-12.2,25.3c-2.6,2.8-6.8,5-10.6,5.7c-14.6,2.5-24.6,9.6-30.1,23.9
		c-6,15.4,4.7,34.2,21.4,35c6.8,0.3,13.6-1.2,21.2-2c-2,3.6-4,7.5-6.2,11.3c-2.5,4.4-1.5,6.6,3.6,6.8c6.9,0.3,13.8,0.5,20.6,0.3
		c2.2-0.1,4.3-1.7,6.4-2.6c-0.9-2.2-1.5-4.7-2.9-6.5C186.6,341.9,183.1,338.4,179.8,334.7z M168.4,473.7c-0.5,0.6-0.4,0.4-0.9,1
		c-2.3-1.5-4.5-3.2-6.9-4.6c-10.9-6.3-23.8-5.8-30.8,1.2c-16.2,16-12.5,40.8,7.8,50.8c16.2,7.9,27,19.3,26.8,38.6
		c0,1.3,1.8,2.7,2.7,4.1c0.9-1.3,2.3-2.5,2.5-3.9c0.4-3.7-0.9-8.1,0.7-11c5.8-10.5,12.6-19.7,26.1-22.1
		c16.2-2.8,26.8-15.1,28.9-31.4c0.3-2,0-4.2-0.6-6.2c-3.3-11.6-14.1-20.3-26.2-20.4c-5.8,0-11.6,1.4-18.4,2.3
		c1.8-3.6,3.7-7.5,5.9-11.3c2.8-4.8,1.9-7-3.5-7.2c-6.9-0.3-13.8-0.5-20.6-0.3c-2.1,0.1-5.6,1.4-5.9,2.8c-0.5,1.8,1.2,4.6,2.6,6.4
		C161.6,466.6,165.1,470.1,168.4,473.7z M168.4,664.2c-0.5,0.6-0.4,0.4-0.9,1c-2.3-1.5-4.5-3.2-6.8-4.6c-10.9-6.3-23.8-5.8-30.8,1.2
		c-16.2,16-12.5,40.8,7.8,50.8c16.2,7.9,27,19.3,26.9,38.6c0,1.4,1.7,2.7,2.7,4.1c0.9-1.3,2.3-2.5,2.5-3.9c0.4-3.7-0.9-8.1,0.7-11
		c5.8-10.5,12.6-19.7,26.1-22.1c16.2-2.8,26.8-15.1,28.9-31.4c0.3-2,0-4.2-0.6-6.2c-3.3-11.5-14.1-20.3-26.2-20.4
		c-5.8,0-11.6,1.4-18.4,2.3c1.9-3.6,3.7-7.5,5.9-11.2c2.8-4.8,1.9-7-3.4-7.2c-6.9-0.3-13.8-0.5-20.6-0.3c-2.1,0.1-5.6,1.4-6,2.8
		c-0.5,1.8,1.2,4.6,2.6,6.4C161.6,657.1,165.1,660.6,168.4,664.2z M70.1,192.7c3.3,0.8,5.4,1.5,7.5,1.9c7.2,1.3,13.7,0.4,18.5-6
		c10.2-13.3,6.5-30.2-8.3-37.8c-1.3-0.7-2.7-1.2-3.9-1.9c-10-5.9-16.3-14.1-16.7-26.1c-0.1-1.7-1.5-3.3-2.2-5
		c-0.8,1.6-2.3,3.2-2.4,4.9c-0.5,11.5-7.9,21.1-19.3,23.4c-10.5,2.1-17.4,7.7-21.4,17.8c-5,12.6,2.9,26.8,16.5,27.9
		c4.8,0.4,9.7-0.3,14.5-0.5c-1.1,4.1-2.1,8.2-3.2,12.3c4.5,0.3,9.1,0.8,13.6,0.9C75.8,204.8,75.8,204.7,70.1,192.7z M509.6,616.9
		c-2.8-0.7-4.8-1.2-6.8-1.6c-9.7-2.2-16.3,0.6-21,9.2c-7.7,13.9-3.7,27.5,10.5,34.5c12.4,6.1,20.5,14.8,20.4,29.5
		c0,1.2,1.6,2.4,2.4,3.6c0.8-1.5,2.1-2.9,2.2-4.5c0.8-12.8,7.7-21.4,20.1-24.1c10-2.1,16.5-7.6,20.4-17.2c5.4-13.4-2.6-27.4-17-28.4
		c-4.6-0.3-9.3,0.5-14.8,0.8c1.6-3,2.8-5.4,4.2-7.6c2.3-3.7,1.1-5.5-3-5.6c-3.3-0.1-6.7-0.1-10-0.2
		C504.6,604.9,504.6,604.9,509.6,616.9z M99.9,71.3C99.9,57,94.2,49,81.2,47.6c-3.7-0.4-9.7,1.5-11.2,4.3
		c-4.2,7.3-7.5,15.4-9.3,23.6c-2.3,10.6,5.9,21.6,16.4,24c8.2,1.9,17.3-4.8,20.4-15.4C98.7,80,99.1,75.6,99.9,71.3z M480,739.3
		c0.3,13.6,5.7,21.1,18.4,22.7c3.7,0.5,9.9-1.2,11.4-3.9c4.3-7.7,7.8-16.2,9.5-24.8c2.1-10.3-6.6-21-16.8-23.2
		c-8.2-1.7-17.3,5.1-20.2,15.7C481.1,730.2,480.7,734.8,480,739.3z M49.1,73.5l-1.4,0c0-6.3,0.1-12.5,0-18.8c0-3.6-1.6-6.8-5.4-5.8
		c-1.9,0.5-4.4,4-4.3,6.1c0.1,11.7,0.9,23.3,1.4,35c0.2,3.4,1,6.6,5.2,6.4c4.1-0.1,4.8-3.2,4.7-6.7C49,84.4,49.1,78.9,49.1,73.5z
		 M541.4,738c-0.2,0-0.5,0-0.7,0c0-6,0.1-12.1,0-18.1c-0.1-3.6-0.8-7.1-5.4-6.7c-4.2,0.3-4.5,3.6-4.4,7c0.5,11.5,1,22.9,1.4,34.4
		c0.1,3.5,1.2,6.5,5.2,6.4c4.1-0.1,5-3.1,4.8-6.6C542,748.8,541.7,743.4,541.4,738z"/>
	<path class="st1" d="M407.9,165.4c-3.7,0-7.5,0.1-11.2,0c-4.6-0.2-5.7-2.5-3.8-6.5c1.6-3.2,2.6-6.6,3.9-9.9
		c-3.2,0.2-6.3,0.2-9.5,0.5c-14.3,1.6-25.1-3.9-30.9-17.1c-1.7-3.8-2-9-1-13.1c3.9-15.9,13.3-26.3,30.4-28.9
		c12.5-1.9,18.4-12.2,23.8-22.1c1.4-2.5-0.2-6.6,0.2-9.8c0.2-1.6,2-3.1,3-4.6c0.9,1.5,2.7,3.1,2.7,4.6c0,17.7,9.2,29.3,24.3,37
		c7.2,3.7,15.4,6.5,18.2,15.1c3.2,10,3.1,20.2-2.1,29.7c-6.4,11.8-15.3,15.6-28.2,12.2c-1.8-0.5-3.6-1.3-5.4-1.5
		c-1.2-0.1-2.5,0.6-3.7,0.9c0.5,1,0.8,2.2,1.5,3.1c1,1.3,2.5,2.3,3.4,3.6c2.5,3.8,0.9,7-3.7,7.2c-3.9,0.2-7.9,0-11.9,0
		C407.9,165.7,407.9,165.6,407.9,165.4z"/>
	<path class="st1" d="M408.1,356c-3.7,0-7.5,0.1-11.2,0c-5-0.2-6.2-2.6-3.7-6.8c0.5-0.9,1.3-1.7,1.7-2.6c0.8-2.2,1.4-4.6,2-6.9
		c-2.1,0-4.2-0.3-6.3,0.1c-14.9,2.7-25.4-1.9-33.4-14.9c-3-4.9-3.6-9.9-1.9-15.5c4.6-15.5,13.6-25.8,30.4-28.4
		c12.5-2,18.4-12.1,23.9-22c1.3-2.4-0.2-6.1,0.3-9.2c0.3-1.9,1.9-3.6,2.8-5.4c1,1.7,2.8,3.3,2.8,5c0.1,16.9,8.9,28.1,23,35.9
		c1.3,0.7,2.6,1.3,3.9,1.9c19.8,9.8,23.8,35.8,7.8,51.5c-5.6,5.5-12.7,5.7-19.9,4.9c-2.3-0.3-4.4-1.4-6.7-1.7
		c-1.6-0.2-3.3,0.2-5,0.3c0.7,1.3,1.6,2.6,2.2,4c1.2,2.6,2.2,5.3,3.3,8c-2.6,0.7-5.3,1.7-7.9,2.1c-2.7,0.4-5.4,0.1-8.1,0.1
		C408.1,356.2,408.1,356.1,408.1,356z"/>
	<path class="st1" d="M397.1,471.6c-2.5-2.7-5.3-5.1-7.4-8.1c-1.3-1.8-2.4-4.6-1.9-6.5c0.3-1.2,3.7-2.2,5.7-2.3
		c7.1-0.1,14.2,0.1,21.2,0.4c5,0.2,6,2.6,3.3,7c-2.1,3.5-4.1,7.2-6.2,11c7-0.7,13.5-2,19.9-1.8c18.5,0.6,29.3,19.1,22.1,36.1
		c-4,9.5-9.3,17.2-19.7,20.1c-3.1,0.9-6.2,1.7-9.3,2.4c-11.3,2.5-16.8,11.7-22.2,20.5c-1.5,2.5-0.4,6.5-1,9.6
		c-0.4,2.2-1.7,4.2-2.6,6.3c-1-1.9-2.7-3.8-2.8-5.8c-0.7-16-8.6-27.3-22.5-34.7c-1.7-0.9-3.3-1.9-5-2.5
		c-19.2-7.3-19.8-25.5-14.3-40.3c5.3-14.3,16.6-19.1,31.3-14.5c3.5,1.1,6.9,2.7,10.3,4.1C396.4,472.3,396.8,471.9,397.1,471.6z"/>
	<path class="st1" d="M397.1,661c-2.3-2.5-4.8-4.9-6.7-7.6c-1.4-2-2-4.6-3-7c2.1-0.9,4.3-2.4,6.4-2.4c6.9-0.2,13.7,0.1,20.6,0.4
		c5.3,0.2,6.3,2.5,3.4,7.3c-2.1,3.5-4,7.2-5.8,10.5c7.3-0.6,14.3-1.9,21.2-1.5c16.8,1,27.5,19.9,20.9,35.2
		c-3.9,9.1-8.5,17.3-18.6,20.5c-1.9,0.6-4,1.1-6,1.3c-13.6,1.2-28.4,17.5-27.9,30.9c0,1.2,0.3,2.7-0.1,3.7c-0.6,1.3-1.8,2.4-2.8,3.5
		c-0.9-1.2-2.3-2.3-2.5-3.6c-0.8-4.1-0.6-8.4-1.7-12.3c-2.9-11-10.1-18.6-20-24c-1.8-1-3.6-2-5.5-2.9c-16-8.1-21.4-21.3-15.5-38.4
		c5.3-15.4,17-21.4,32.5-16.4c3.4,1.1,6.6,2.6,9.8,4C396.3,661.6,396.7,661.3,397.1,661z"/>
	<path class="st1" d="M299.3,252.2c1.6,1.8,3.5,3.5,4.8,5.6c1.1,1.8,2.5,4.4,1.9,5.9c-0.5,1.4-3.6,2.3-5.6,2.4
		c-6.4,0.2-12.9-0.1-19.4-0.3c-5.4-0.2-6.3-2.3-3.4-7.2c1.6-2.8,3-5.7,4.8-9.3c-6.7,0.5-12.2,1.6-17.6,1.3
		c-18.1-0.7-28.1-18-21.4-34.6c4.9-12.2,13.3-18.7,25.8-20.8c12.1-2.1,18-11.3,23.3-20.9c1.3-2.4-0.1-6.2,0.4-9.2
		c0.3-1.7,1.8-3.2,2.8-4.7c0.8,1.4,2.4,2.9,2.4,4.3c0,17.7,9.7,28.5,24.7,35.8c17.8,8.7,22.9,26.3,12.6,43.2
		c-5.8,9.5-13.7,12.7-24.6,10c-3.5-0.9-7-2-10.5-3C299.9,251.2,299.6,251.7,299.3,252.2z"/>
	<path class="st1" d="M280.7,557.4c-1.7-1.9-3.7-3.6-5-5.7c-1.1-1.8-2.1-4.2-1.6-6c0.3-1.1,3.3-2.1,5.1-2.1c6.7-0.1,13.3,0.1,20,0.4
		c5.1,0.2,6,2.2,3.3,6.9c-1.7,2.9-3.1,6-4.9,9.6c7-0.5,12.8-1.6,18.4-1.3c17.1,0.9,26.9,18.5,20.6,34.3c-5,12.5-13.5,18.7-26.2,21.3
		c-13.7,2.8-23.2,15.1-23.4,29c0,1.9-1.6,3.8-2.4,5.7c-0.9-1.7-2.6-3.5-2.7-5.3c-0.3-15.4-8.4-25.7-21.1-33.1
		c-1.4-0.8-3-1.5-4.5-2.2c-18.5-9.2-22.3-32.9-7.8-48c5.8-6,12.9-6.3,20.3-4.9c3.6,0.7,7,2,10.6,3
		C279.8,558.4,280.3,557.9,280.7,557.4z"/>
	<path class="st1" d="M179.8,145.1c3,3.5,6.3,6.9,9,10.7c1.6,2.2,2.4,4.9,3.5,7.4c-2.4,0.8-4.7,2.3-7.1,2.4
		c-6.2,0.2-12.5,0-18.7-0.4c-1.9-0.1-4.6-0.7-5.3-1.9c-0.7-1.1,0.5-3.7,1.3-5.4c1.8-3.8,3.8-7.4,5.8-11.2c-6.7,1-12.2,2.4-17.9,2.7
		c-13.2,0.7-20.8-7.5-26-18.1c-1.6-3.2-1.6-7.8-0.7-11.4c4.2-16.7,14.1-27.3,32.1-29.7c3.9-0.5,8.2-3.2,10.9-6.2
		c6.3-6.9,13.8-13.7,11.6-24.9c-0.3-1.4,1.7-3.3,2.6-4.9c0.9,1.6,2.7,3.1,2.7,4.7c0.2,19,11,30.7,26.9,38.6
		c9.1,4.5,16.8,9.9,17.4,21.4c0.7,13.1-2.4,24.7-14.1,31.9c-10,6.1-19.7,2-28.9-3.1c-1.6-0.9-2.9-2.1-4.4-3.1
		C180.4,144.6,180.1,144.9,179.8,145.1z"/>
	<path class="st1" d="M179.8,334.7c3.3,3.7,6.8,7.2,9.8,11.1c1.4,1.8,1.9,4.3,2.9,6.5c-2.1,0.9-4.2,2.5-6.4,2.6
		c-6.9,0.2-13.8-0.1-20.6-0.3c-5.1-0.2-6.1-2.4-3.6-6.8c2.2-3.8,4.3-7.7,6.2-11.3c-7.6,0.8-14.4,2.3-21.2,2
		c-16.6-0.8-27.3-19.7-21.4-35c5.5-14.3,15.6-21.4,30.1-23.9c3.8-0.6,8-2.9,10.6-5.7c6.5-7,14.1-13.9,12.2-25.3
		c-0.3-1.5,1.9-3.4,3-5.1c0.8,1.7,2.3,3.4,2.3,5.1c0.4,18.7,11.1,30.2,26.7,38.1c9.1,4.5,17,9.7,17.6,21.3c0.7,13-2.2,24.7-13.9,32
		c-10,6.2-19.7,2.1-28.9-2.9c-1.6-0.9-3-2.1-4.6-3.2C180.4,334,180.1,334.4,179.8,334.7z"/>
	<path class="st1" d="M168.4,473.7c-3.3-3.6-6.8-7.2-9.8-11c-1.4-1.8-3.1-4.6-2.6-6.4c0.4-1.4,3.8-2.7,5.9-2.8
		c6.9-0.2,13.7,0.1,20.6,0.3c5.4,0.2,6.3,2.4,3.5,7.2c-2.2,3.7-4.1,7.7-5.9,11.3c6.8-0.9,12.6-2.4,18.4-2.3
		c12.1,0.1,22.9,8.9,26.2,20.4c0.6,2,0.8,4.2,0.6,6.2c-2.1,16.3-12.7,28.5-28.9,31.4c-13.4,2.4-20.3,11.6-26.1,22.1
		c-1.6,2.9-0.2,7.3-0.7,11c-0.2,1.4-1.6,2.6-2.5,3.9c-0.9-1.4-2.7-2.7-2.7-4.1c0.2-19.3-10.7-30.6-26.8-38.6
		c-20.3-10-24-34.8-7.8-50.8c7.1-7,19.9-7.5,30.8-1.2c2.3,1.3,4.5,3,6.7,4.5C167.8,474.4,168.1,474,168.4,473.7z"/>
	<path class="st1" d="M168.4,664.2c-3.3-3.6-6.8-7.2-9.8-11c-1.4-1.8-3.1-4.6-2.6-6.4c0.4-1.4,3.8-2.7,6-2.8
		c6.9-0.2,13.7,0.1,20.6,0.3c5.4,0.2,6.2,2.4,3.4,7.2c-2.2,3.7-4,7.7-5.9,11.2c6.8-0.9,12.6-2.4,18.4-2.3
		c12.1,0.1,22.9,8.9,26.2,20.4c0.6,2,0.8,4.2,0.6,6.2c-2.2,16.3-12.7,28.5-28.9,31.4c-13.4,2.4-20.3,11.6-26.1,22.1
		c-1.6,2.9-0.2,7.3-0.7,11c-0.2,1.4-1.6,2.6-2.5,3.9c-0.9-1.4-2.7-2.7-2.7-4.1c0.2-19.3-10.7-30.6-26.9-38.6
		c-20.3-10-24-34.8-7.8-50.8c7.1-7,19.9-7.5,30.8-1.2c2.3,1.3,4.5,3,6.7,4.5C167.8,664.9,168.1,664.6,168.4,664.2z"/>
	<path class="st1" d="M70.1,192.7c5.7,12.1,5.7,12.1-6.9,11.8c-4.5-0.1-9.1-0.6-13.6-0.9c1.1-4.1,2.1-8.2,3.2-12.3
		c-4.8,0.2-9.7,0.9-14.5,0.5c-13.6-1.1-21.5-15.3-16.5-27.9c4-10.2,10.9-15.7,21.4-17.8c11.4-2.3,18.8-11.9,19.3-23.4
		c0.1-1.7,1.6-3.3,2.4-4.9c0.8,1.7,2.2,3.3,2.2,5c0.5,12.1,6.7,20.3,16.7,26.1c1.3,0.7,2.6,1.3,3.9,1.9c14.8,7.5,18.4,24.4,8.3,37.8
		c-4.8,6.3-11.3,7.2-18.5,6C75.5,194.1,73.4,193.5,70.1,192.7z"/>
	<path class="st1" d="M509.6,616.9c-5-12-5-12,7.6-11.7c3.3,0.1,6.7,0.1,10,0.2c4.1,0.2,5.3,1.9,3,5.6c-1.4,2.2-2.6,4.6-4.2,7.6
		c5.6-0.3,10.2-1.1,14.8-0.8c14.5,0.9,22.4,15,17,28.4c-3.9,9.7-10.4,15.1-20.4,17.2c-12.4,2.6-19.3,11.2-20.1,24.1
		c-0.1,1.5-1.5,3-2.2,4.5c-0.8-1.2-2.4-2.4-2.4-3.6c0-14.6-8.1-23.4-20.4-29.5c-14.2-7-18.2-20.6-10.5-34.5
		c4.8-8.6,11.3-11.5,21-9.2C504.8,615.7,506.8,616.2,509.6,616.9z"/>
	<path class="st1" d="M99.9,71.3c-0.8,4.3-1.2,8.7-2.4,12.9C94.4,94.7,85.3,101.4,77,99.5c-10.4-2.4-18.7-13.4-16.4-24
		c1.8-8.2,5.1-16.3,9.3-23.6c1.6-2.8,7.6-4.7,11.2-4.3C94.2,49,99.9,57,99.9,71.3z M89.9,70.4c-0.2,0-0.3-0.1-0.5-0.1
		c0-1,0-2.1,0-3.1c0.1-5.4-2.8-8.4-7.9-9.7c-5.7-1.4-5.7,3.7-7.3,6.6c-1.7,3.1-3,6.5-3.5,9.9c-0.4,3.1-0.4,7,1.1,9.5
		c1.6,2.7,5.2,5.9,7.9,5.8c2.6-0.1,6-3.5,7.3-6.3C88.9,79.3,89,74.7,89.9,70.4z"/>
	<path class="st1" d="M480,739.3c0.8-4.5,1.2-9.1,2.4-13.5c3-10.6,12-17.5,20.2-15.7c10.1,2.1,18.8,12.9,16.8,23.2
		c-1.7,8.6-5.3,17.1-9.5,24.8c-1.5,2.7-7.7,4.4-11.4,3.9C485.7,760.4,480.2,752.9,480,739.3z M490.2,738.9c0.2,2.4-0.3,5.3,0.9,6.8
		c2.2,2.7,5.2,5,8.3,6.3c1,0.4,4.4-2.6,5.2-4.6c2.1-5.3,4.1-10.9,4.8-16.5c0.6-5.2-5.2-12.1-8.9-10.8c-3.4,1.3-6.5,5.1-8.4,8.6
		C490.5,731.6,490.8,735.5,490.2,738.9z"/>
	<path class="st1" d="M49.1,73.5c0,5.4-0.1,10.8,0,16.3c0.1,3.5-0.6,6.6-4.7,6.7c-4.2,0.1-5-3-5.2-6.4c-0.5-11.7-1.3-23.3-1.4-35
		c0-2.1,2.4-5.6,4.3-6.1c3.8-0.9,5.4,2.3,5.4,5.8c0.1,6.2,0,12.5,0,18.8C48.1,73.5,48.6,73.5,49.1,73.5z"/>
	<path class="st1" d="M541.4,738c0.3,5.4,0.6,10.8,0.9,16.2c0.2,3.5-0.7,6.5-4.8,6.6c-4.1,0.1-5.1-2.9-5.2-6.4
		c-0.4-11.5-0.9-22.9-1.4-34.4c-0.1-3.4,0.2-6.6,4.4-7c4.6-0.4,5.4,3.1,5.4,6.7c0.1,6,0,12.1,0,18.1C540.9,738,541.1,738,541.4,738z
		"/>
	<path class="st0" d="M89.9,70.4c-0.9,4.3-1,8.8-2.8,12.7c-1.3,2.8-4.8,6.3-7.3,6.3c-2.7,0.1-6.3-3.1-7.9-5.8
		c-1.5-2.5-1.5-6.4-1.1-9.5c0.5-3.4,1.8-6.9,3.5-9.9c1.6-2.9,1.6-8,7.3-6.6c5,1.3,7.9,4.3,7.9,9.7c0,1,0,2.1,0,3.1
		C89.6,70.4,89.7,70.4,89.9,70.4z"/>
	<path class="st0" d="M490.2,738.9c0.6-3.4,0.3-7.4,1.9-10.3c1.9-3.4,5-7.3,8.4-8.6c3.7-1.3,9.5,5.6,8.9,10.8
		c-0.7,5.6-2.7,11.2-4.8,16.5c-0.8,2-4.2,5-5.2,4.6c-3.1-1.3-6.1-3.7-8.3-6.3C489.9,744.2,490.5,741.3,490.2,738.9z"/>
</g>
</svg>
