<?xml version="1.0" encoding="utf-8"?>
<!-- Generator: Adobe Illustrator 24.0.0, SVG Export Plug-In . SVG Version: 6.00 Build 0)  -->
<svg version="1.1" id="Layer_1" xmlns="http://www.w3.org/2000/svg" xmlns:xlink="http://www.w3.org/1999/xlink" x="0px" y="0px"
	 viewBox="0 0 578.2 809.5" style="enable-background:new 0 0 578.2 809.5;" xml:space="preserve">
<style type="text/css">
	.st0{fill:#FEFEFE;}
	.st1{fill:#FE2121;}
</style>
<path class="st0" d="M39,0c166.7,0,333.5,0,500.2,0c21.5,0,39,17.5,39,39v731.5c0,21.5-17.5,39-39,39H39c-21.5,0-39-17.5-39-39
	C0,526.7,0,282.8,0,39C0,17.5,17.5,0,39,0z M279.1,214.9c0,1.7-0.1,3.3,0,5c0.3,3.2,1.6,5.6,5.1,6.2c3.1,0.6,4.4-1.7,5.4-3.8
	c0.7-1.5,0.9-3.4,1-5.1c0.2-8,1.9-16,5.7-22.7c4.7-8.2,11-15.6,17.2-22.8c4.6-5.5,10.6-9.9,15.7-15c1.4-1.5,1.3-3.6-0.4-4.8
	c-10.8-7.8-20-17.5-23.6-30.2c-3.3-11.4-4.4-23.4-6.9-35.1c-0.4-2-2.4-4.8-4.1-5.1c-2.7-0.5-6.5-1.7-7.8,3.1
	c-1.6,5.7-3.9,11.3-5.5,17c-2.8,9.7-6.3,19.1-11.4,27.8c-4.7,8.1-10.4,15.3-17.3,21.7c-3.4,3.2-5,6.6-0.3,10.8
	c1.6,1.4,2.9,3.2,4.2,5c4.9,7.3,9.9,14.7,14.7,22.2C275.6,196.8,279,205.3,279.1,214.9z M298.8,591.2c0.3-0.1,0.7-0.2,1-0.2
	c0.1-5.5-1.4-7.8-5.2-8.2c-2.3-0.3-6,3.2-6.5,6.3c-0.6,3.8-0.8,7.7-1.6,11.5c-1.1,4.9-1.7,10.2-4.2,14.3
	c-4.4,7.3-9.7,14.2-15.2,20.8c-4.7,5.5-10.3,10.2-15.5,15.2c-2.9,2.9-2.4,5.3,0.7,7.9c4.1,3.4,8.2,6.9,11.3,11
	c3.4,4.4,5.9,9.4,8.4,14.4c1.9,3.8,3.6,7.9,4.5,12c1.5,6.8,2.4,13.7,3.5,20.6c0.4,2.4,0.3,4.9,1.1,7.1c0.6,1.5,2.3,3.4,3.8,3.6
	c2.3,0.3,5.4,1.4,6.9-1.6c1.2-2.2,2-4.6,2.8-7c2.6-8.4,4.5-17.1,7.9-25.1c3.5-8.3,7.9-16.2,12.8-23.7c4.3-6.7,11.9-11.5,16.7-17.4
	c2.3-2.8,1.2-5.2-2.5-5.1c-2.8,0-5-2.2-6.6-4.5c-2.9-4.2-5.1-9-8.6-12.5c-6.2-6.2-8.4-14.5-12-21.9C300.2,603.3,300,597,298.8,591.2
	z M519.7,683.6c0.7,0.8,1.8,1.3,2.9,1c2.7-0.6,3.3-2.5,3.9-4.3c2.1-6.6,3.9-13.3,6.3-19.7c3.5-9.1,9.1-16.9,15.9-23.8
	c3.8-3.9,3-4.8-1.7-9.9c-0.1-0.1-0.1-0.1-0.2-0.2c-8.7-11.2-16.3-22.8-17-37.4c0-0.5-0.3-1-0.7-1.6c-1.1-1.5-3.3-1.7-4.7-0.4
	c-0.4,0.4-0.8,0.9-1,1.4c-0.8,2.4-0.5,5.1-1,7.6c-2.7,14.8-12.5,24.9-23.2,34.3c-3.4,3-3.8,4-0.4,7.3c0.8,0.8,1.6,1.7,2.5,2.4
	c8.1,6.1,11.5,14.8,13.7,24.2c1.3,5.5,1.8,11.1,3,16.6C518.3,682,519,682.8,519.7,683.6z M57.6,124c-0.8-0.2-1.6,0-2.3,0.5
	c-0.5,0.3-1.1,0.8-1.4,1.3c-0.8,1.4-1.4,3-1.8,4.6c-4,15.9-10.2,30.6-22.4,42.2c-2.4,2.3-1.9,4.4,0.2,7c9.9,11.6,18.6,23.9,19.3,40
	c0,0.5,0.3,1,0.7,1.5c1.2,1.4,3.3,1.6,4.7,0.3c0.3-0.3,0.7-0.7,0.9-1.1c0.6-1,0.4-2.5,0.6-3.7c0.6-3.4,0.9-6.9,2-10.1
	c4.1-12,12.7-20.6,22-28.5c2.9-2.5,3.2-3.8,0.5-6.5c-0.7-0.7-1.4-1.5-2.3-2.1c-6.2-4.3-10.1-10.4-12.1-17.4
	c-2.2-7.8-3.6-15.9-5.2-23.9C60.6,125.9,59.8,124.5,57.6,124z M72.1,50.7c0.6-8.2-4.5-14.4-11-15.9c-2.2-0.5-4.5,0-6.8-0.2
	c-5.3-0.5-9.6,1.3-12.4,5.7c-2.8,4.3-2,8.8,0.5,13.1c1.6,2.8,4,4.3,7,3.4c2.9-0.9,4.3-3.2,4.3-6.5c0-0.1,0-0.3,0-0.4
	c0.4-2.3,3.2-3.1,5-1.7c0.5,0.4,1,0.8,1.4,1.3c0.7,0.8,0.4,2.5,0.4,3.7c0,7.1-2.7,13.4-5.4,19.8c-1.5,3.6-3,5.1-7.1,4.1
	c-6.4-1.6-10.9,0.5-12.6,5.6C32.9,90.4,34,97.5,42.2,99c4.4,0.8,8.2-0.5,11.3-3.4c2.6-2.4,4.6-2.3,7.4-0.4c4.2,2.8,8.9,4.5,14.1,3.9
	c5.8-0.7,11-2.4,13.9-8.1c1.8-3.7,1.2-8.2-1.3-9.8c-2.9-1.8-5.6-0.8-8.8,3.3c-0.2,0.2-0.3,0.4-0.5,0.6c-3.2,3.5-7.4,2.9-11.6,0.4
	c-3.8-2.2-2.4-5.3-0.7-8.3C70.4,69.6,71.7,61.3,72.1,50.7z M507.5,755c-0.3,5.1,0.1,10.1,3.6,14.1c5.2,5.9,11.6,6,18.6,4.1
	c8.2-2.2,11.5-12.3,5.8-18.7c-0.9-1-2.2-1.7-3.5-2c-3.3-0.8-6.8,1.9-6,6.7c0.2,1.2-1.2,3.8-1.8,3.7c-1.7-0.1-3.8-0.8-4.8-2
	s-1.2-3.4-1.2-5.1c0.2-7.3,2.2-14.1,5.5-20.6c1.6-3.3,3.1-4.8,7.2-4.1c8.2,1.4,11.8-1.1,13.1-8.4c0.3-1.4,0.2-2.8,0.2-4.2
	c-0.1-4.5-2.3-7-6.5-8.4c-4.5-1.6-8.2,0.1-11.3,2.9c-3.2,2.9-5.7,2.6-9.1,0.4c-7.5-4.9-15.4-5.7-22.9-0.1c-2.3,1.7-4.1,4.6-5.1,7.4
	c-1.5,4.1,1.8,7.6,6.1,6.6c1.5-0.3,2.8-1.9,3.8-3.3c3.2-4.1,7.4-4.5,13-1.1c3.7,2.2,3.8,3.2,1,8.6
	C509.5,739.1,507.4,746.8,507.5,755z"/>
<path class="st1" d="M279.1,214.9c0-9.6-3.4-18.1-8.4-26c-4.7-7.5-9.7-14.8-14.7-22.2c-1.2-1.8-2.6-3.6-4.2-5
	c-4.7-4.2-3-7.6,0.3-10.8c6.9-6.5,12.6-13.7,17.3-21.7c5.1-8.7,8.6-18.1,11.4-27.8c1.6-5.7,3.9-11.3,5.5-17c1.3-4.7,5.1-3.6,7.8-3.1
	c1.7,0.3,3.7,3.1,4.1,5.1c2.5,11.7,3.6,23.7,6.9,35.1c3.4,11.7,11.4,20.9,21.1,28.3c3.7,2.8,3.9,5.9,0.5,9.1
	c-4.5,4.2-9.3,8-13.2,12.6c-6.2,7.3-12.5,14.6-17.2,22.8c-3.8,6.7-5.5,14.7-5.7,22.7c0,1.7-0.3,3.6-1,5.1c-1,2.2-2.3,4.4-5.4,3.8
	c-3.5-0.7-4.8-3-5.1-6.2C278.9,218.2,279.1,216.6,279.1,214.9z"/>
<path class="st1" d="M298.8,591.2c1.2,5.8,1.3,12.1,3.8,17.3c3.5,7.5,5.8,15.7,12,21.9c3.5,3.5,5.7,8.3,8.6,12.5
	c0.9,1.2,1.9,2.5,3.1,3.3c4.7,3.4,4.8,7.9,0.6,11.8c-4,3.7-8.4,7.4-11.4,11.9c-4.9,7.5-9.4,15.5-12.8,23.7
	c-3.4,8.1-5.2,16.7-7.9,25.1c-0.7,2.4-1.6,4.8-2.8,7c-1.6,3-4.7,1.9-6.9,1.6c-1.4-0.2-3.2-2.1-3.8-3.6c-0.9-2.2-0.8-4.7-1.1-7.1
	c-1.1-6.9-2-13.8-3.5-20.6c-0.9-4.1-2.6-8.2-4.5-12c-2.5-5-5-10-8.4-14.4c-3.2-4.1-7.3-7.7-11.3-11c-3.1-2.5-3.6-5-0.7-7.9
	c5.2-5.1,10.8-9.7,15.5-15.2c5.6-6.5,10.8-13.4,15.2-20.8c2.5-4.1,3.1-9.4,4.2-14.3c0.8-3.8,1-7.6,1.6-11.5c0.5-3.1,4.2-6.6,6.5-6.3
	c3.8,0.5,5.3,2.8,5.2,8.2C299.5,591,299.2,591.1,298.8,591.2z"/>
<path class="st1" d="M520.7,684.8c-0.6-0.9-2.2-2.2-2.6-3.8c-1.2-5.5-1.8-11.1-3-16.6c-2.1-9.4-5.6-18.1-13.7-24.2
	c-0.9-0.7-1.7-1.6-2.5-2.4c-3.4-3.2-3-4.2,0.4-7.3c10.7-9.4,20.5-19.4,23.2-34.3c0.5-2.5,0.2-5.2,1-7.6c0.4-1.4,2.3-2.3,3.5-3.4
	c1,1.3,2.8,2.6,2.8,4c0.5,12.5,6.2,22.8,13.3,32.5c1.8,2.5,3.8,4.9,5.8,7.2c2.9,3.3,3,4.5-0.2,7.7c-6.8,6.9-12.5,14.7-15.9,23.8
	c-2.5,6.4-4.2,13.2-6.3,19.7C525.7,682.5,525,684.8,520.7,684.8z"/>
<path class="st1" d="M56.2,123.9c3.3,0.1,4.4,1.6,4.9,4.1c1.6,8,3,16.1,5.2,23.9c2,7,5.9,13.1,12.1,17.4c0.8,0.6,1.5,1.4,2.3,2.1
	c2.7,2.7,2.4,4-0.5,6.5c-9.3,8-17.9,16.6-22,28.5c-1.1,3.2-1.4,6.7-2,10.1c-0.2,1.3,0,2.7-0.6,3.7c-0.8,1.3-2.2,2.1-3.4,3.2
	c-1-1.3-2.9-2.5-2.9-3.9c-0.7-16.1-9.4-28.4-19.3-40c-2.2-2.5-2.7-4.6-0.2-7c12.2-11.6,18.4-26.3,22.4-42.2c0.4-1.6,0.9-3.2,1.8-4.6
	C54.4,124.9,55.6,124.3,56.2,123.9z"/>
<path class="st1" d="M72.1,50.7c-0.4,10.6-1.7,19-5.9,26.5c-1.7,3-3.1,6.1,0.7,8.3c4.2,2.5,8.3,3,11.6-0.4c0.2-0.2,0.3-0.4,0.5-0.6
	c3.2-4.2,5.9-5.2,8.8-3.3c2.4,1.5,3.1,6,1.3,9.8c-2.8,5.7-8,7.4-13.9,8.1c-5.3,0.6-9.9-1.1-14.1-3.9c-2.8-1.9-4.9-2-7.4,0.4
	c-3.1,2.9-7,4.2-11.3,3.4c-8.3-1.5-9.3-8.7-6.8-16.3c1.6-5.1,6.2-7.2,12.6-5.6c4.1,1,5.6-0.5,7.1-4.1c2.7-6.4,5.4-12.7,5.4-19.8
	c0-1.3,0.2-2.9-0.4-3.7c-1.1-1.4-2.9-2.3-4.4-3.4c-0.7,1.4-2,2.8-2,4.2c0,3.3-1.4,5.6-4.3,6.5c-3,0.9-5.4-0.6-7-3.4
	c-2.4-4.3-3.2-8.8-0.5-13.1c2.8-4.4,7.2-6.2,12.4-5.7c2.2,0.2,4.6-0.3,6.8,0.2C67.6,36.3,72.6,42.5,72.1,50.7z"/>
<path class="st1" d="M507.5,755c0-8.2,2-15.9,5.8-23.2c2.8-5.5,2.7-6.4-1-8.6c-5.6-3.4-9.8-2.9-13,1.1c-1,1.3-2.4,2.9-3.8,3.3
	c-4.3,1-7.6-2.5-6.1-6.6c1-2.7,2.8-5.7,5.1-7.4c7.5-5.6,15.4-4.8,22.9,0.1c3.5,2.2,5.9,2.5,9.1-0.4c3.1-2.8,6.7-4.5,11.3-2.9
	c4.2,1.4,6.3,3.9,6.5,8.4c0,1.4,0.1,2.8-0.2,4.2c-1.4,7.2-4.9,9.8-13.1,8.4c-4.1-0.7-5.6,0.8-7.2,4.1c-3.3,6.5-5.3,13.3-5.5,20.6
	c0,1.7,0.2,3.9,1.2,5.1c1,1.2,3.1,1.9,4.8,2c0.5,0,2-2.5,1.8-3.7c-0.8-4.8,2.7-7.5,6-6.7c1.3,0.3,2.7,1,3.5,2
	c5.7,6.3,2.4,16.5-5.8,18.7c-7,1.9-13.5,1.8-18.6-4.1C507.5,765.1,507.2,760.1,507.5,755z"/>
</svg>
