<?xml version="1.0" encoding="utf-8"?>
<!-- Generator: Adobe Illustrator 24.0.0, SVG Export Plug-In . SVG Version: 6.00 Build 0)  -->
<svg version="1.1" id="Layer_1" xmlns="http://www.w3.org/2000/svg" xmlns:xlink="http://www.w3.org/1999/xlink" x="0px" y="0px"
	 viewBox="0 0 578.6 809.5" style="enable-background:new 0 0 578.6 809.5;" xml:space="preserve">
<style type="text/css">
	.st0{fill:#FFFFFF;}
	.st1{fill:#070707;}
</style>
<g>
	<path class="st0" d="M0,770.5C0,526.7,0,282.9,0,39C0,17.5,17.5,0,39,0h500.6c21.5,0,39,17.5,39,39v731.5c0,21.5-17.5,39-39,39H39
		C17.5,809.5,0,792,0,770.5z M280.5,166.6c1.7-0.7,3.5,0.9,2.9,2.7c-1,3.1-1.9,5.7-3.5,7.6c-3.8,4.6-8.8,8.2-13,12.5
		c-1.3,1.3-2.2,3.5-2.1,5.3c0,0.8,2.9,2,4.5,2.1c11.2,0.8,22.4,1.6,33.7,1.9c3.6,0.1,7.2-0.7,10.7-1.6c1.1-0.3,2.1-0.9,3.1-1.6
		s1.2-2.2,0.4-3.1c-0.8-0.9-1.5-1.8-2.5-2.5c-5.5-4.1-11.4-7.7-16.7-12.1c-4.5-3.7-5.8-6.6-5-10.3c0.3-1.5,2-2.2,3.3-1.4
		c13.2,8.1,19.2,9.8,29.9,10c8,0.1,13.5-3.5,17.2-10.3c5-9.1,5.2-18.7,2.4-28.5c-3-10.6-9.5-16.5-20.2-17.6c-2-0.2-4.1,0-6.5,0.2
		c-1.4,0.1-2.5-1.1-2.3-2.5c0.2-1.3,0.4-2.4,0.4-3.6c0.5-9.8,1.3-19.9-6.5-27.6c-7.2-7.2-23.4-9.1-33-4.4
		c-10.6,5.2-16.1,15.5-14.7,27.8c0.5,3.9,1.2,7.7,2,12c0.3,1.4-0.9,2.7-2.3,2.5c-2.1-0.2-4-0.4-5.8-0.7
		c-17.2-2.8-30.5,9.8-28.9,27.3c1.4,15.2,20,27.2,35.4,22.6C269,171.7,274.1,169.4,280.5,166.6z M312.1,687.8
		c-0.3-1.4,0.9-2.8,2.4-2.6c3.1,0.4,5.6,0.7,8,1.1c11.4,2,18.3-2,23.7-13.6c5.5-11.9,3.8-22-4.5-29c-13.4-11.2-25.4-11.4-41.4-2.3
		c0,0-0.1,0-0.1,0.1c-2.5-2.3-2.5-2.3-5-4.6c0.9-2.1,1.9-4,3.3-5.7c3.5-4.3,8.3-7.5,12.3-11.5c1.2-1.2,2.4-3.4,2-4.7
		c-0.3-1.2-2.8-2.3-4.4-2.4c-11.2-0.8-22.4-1.6-33.7-1.9c-3.8-0.1-7.7,0.7-11.4,1.7c-1.1,0.3-2,1-3,1.8c-0.9,0.8-1,2.2-0.2,3.1
		c0.7,0.8,1.4,1.6,2.2,2.2c5.5,4.1,11.5,7.7,16.7,12c3.2,2.7,5.9,6,5.5,10.6c-0.1,1.7-2.1,2.6-3.5,1.6l-0.1-0.1
		c-8.9-7.4-19.4-10.2-30.8-10.1c-5.8,0-10.4,2.3-14,6.9c-7.8,9.9-9,29.6-1.3,39.5c3.1,4,8.2,6.9,13,8.9c3.1,1.3,6.7,1.1,10.1,1.1
		c1.2,0,2.1,1,2.1,2.2c0,5.3-0.2,10.6,0.1,15.9c0.5,10.2,5.4,17.1,15.4,20.5c22.5,7.8,42.8-8.3,38.5-30.7
		C313.5,694.6,312.9,691.5,312.1,687.8z M81.7,205.6c-5.7-5.3-13.5-7.6-16.2-13.8c-0.7-1.6,0.9-3.4,2.6-2.9c7,1.9,13.8,4,20.6,5
		c3.1,0.4,7.6-1.7,9.8-4.1c7.1-8,7-17.6,3-27c-3.4-8-10.5-10-18.7-9.3c-0.3,0-0.6-0.5-0.8-0.8c1.6-20.1-3.6-28.7-18.5-28.4
		c-5,0.1-10.7,2.3-14.7,5.4c-8,6.3-6.7,15.1-4.7,24.1c0.3,1.5-0.9,2.8-2.4,2.6c-2.1-0.3-3.9-0.5-5.7-0.8c-6.6-1-11.4,1.6-14.6,7.2
		c-3.7,6.6-6,13.5-1.2,20.5s14.5,11.1,22.5,8.9c3.7-1,7.3-2.5,11.5-4.3c1.7-0.7,3.5,0.9,2.9,2.7c-0.5,1.4-0.9,2.6-1.7,3.6
		c-2.6,3.2-6,5.7-8.8,8.8c-0.6,0.7-1.1,1.6-1.5,2.5c-0.5,1.1,0,2.5,1.2,2.9c0.7,0.3,1.5,0.5,2.2,0.6c7.9,0.6,15.8,1.4,23.7,1.5
		c2.7,0,5.3-0.6,8.4-1.3C82.4,208.9,83,206.7,81.7,205.6z M523.3,621.3c-1.8,0.7-3.5-1-2.9-2.8c0.6-1.7,1.2-3.1,2.2-4.3
		c2.6-3.2,6.1-5.6,9-8.6c0.9-0.9,1.7-2.7,1.4-3.7c-0.3-0.9-2.2-1.6-3.4-1.7c-8.3-0.6-16.6-1.4-24.9-1.5c-1.9,0-3.8,0.4-5.7,0.9
		c-0.5,2.9-0.5,3.2-1,6.1c2.6,1.7,5.2,3.5,7.6,5.4c2.7,2,5.6,4.1,6.8,6.7c0.7,1.6-0.9,3.4-2.6,2.9c-7.1-2-14-4.1-21-5.2
		c-2.9-0.5-7,1.4-9.5,3.5c-6.4,5.6-7.9,18.3-3.6,27.5c3.7,7.9,10.5,10.1,18.7,9.4c0.3,0,0.6,0.4,0.9,0.6c-2.1,22.4,4.3,27.7,19,28.5
		c4.8,0.3,10.7-2.5,14.5-5.6c7.6-6.3,6.4-14.8,4.3-23.8c-0.4-1.5,0.9-2.8,2.4-2.7c2.1,0.3,3.9,0.5,5.7,0.8c6.5,1,11.5-1.4,14.7-7.1
		c3.8-6.6,6.1-13.4,1.3-20.6c-4.9-7.3-14.7-11.2-23-8.9C530.7,618.1,527.3,619.6,523.3,621.3z M76,93.5c-1.6,0.3-2.9-1.2-2.4-2.8
		c1.6-5.3,3-9.8,4.1-14.3c2-8,0.7-15.2-5.6-21.2c-5.4-5.2-11.3-6.6-16.3-3.5C50.9,54.8,48.9,62,52,68.5c0.6,1.2,2.3,2,3.9,2.7
		c1,0.5,2.1,0.1,2.7-0.8c0.9-1.4,1.8-2.7,2.2-4.2c0.2-0.9,0.2-1.8,0.1-2.8c-0.2-1.8,1.8-3,3.3-2.1c6.4,4,6,12.4,1.8,21.3
		c-0.3,0.6-0.8,1-1.5,1.2C59,85,53.9,85.1,50.8,87.6c-2.7,2.1-3.4,7.5-3.6,11.6c-0.1,1.4,4.1,4.8,5.6,4.4c9-2.3,17.9-1.2,26.9-0.5
		c1.3,0.1,3.3-0.4,4.1-1.3c1-1.3,1.8-2.8,2.5-4.3c0.5-1.1,0.1-2.4-1-2.9c-1.4-0.7-2.8-1.4-4.3-1.5C79.4,93,77.8,93.2,76,93.5z
		 M501.5,715.9c1.6-0.3,2.9,1.2,2.4,2.8c-1.6,5.4-3,9.8-4.1,14.4c-1.9,7.7-0.8,14.8,5.2,20.8c5.5,5.6,11.6,7.1,16.7,3.8
		c4.8-3,6.7-9.5,4-16.2c-0.5-1.3-2-2.2-3.5-3.1c-1-0.6-2.2-0.4-2.9,0.6c-1,1.4-2.1,2.8-2.6,4.4c-0.3,0.8-0.3,1.7-0.2,2.7
		c0.2,1.8-1.8,3-3.3,2c-6.3-4.1-5.9-12.5-1.8-21.3c0.3-0.6,0.8-1,1.5-1.2c5.5-1.3,10.6-1.4,13.8-3.9c2.7-2.1,3.3-7.6,3.6-11.6
		c0.1-1.4-4.1-4.7-5.6-4.3c-9,2.4-17.9,1.2-26.9,0.6c-1.4-0.1-3.2,0.4-4.1,1.3c-1,1.1-1.8,2.5-2.5,3.8c-0.6,1-0.2,2.4,0.8,2.9
		c1.5,0.8,3,1.7,4.6,1.9C498,716.4,499.7,716.2,501.5,715.9z"/>
	<path class="st1" d="M283.4,169.3c0.6-1.8-1.2-3.4-2.9-2.7c-6.4,2.7-11.5,5.1-16.9,6.7c-15.5,4.7-34.1-7.4-35.4-22.6
		c-1.6-17.6,11.8-30.1,28.9-27.3c1.8,0.3,3.7,0.5,5.8,0.7c1.4,0.1,2.6-1.1,2.3-2.5c-0.8-4.4-1.5-8.2-2-12
		c-1.5-12.3,4.1-22.6,14.7-27.8c9.6-4.7,25.8-2.8,33,4.4c7.8,7.7,7,17.8,6.5,27.6c-0.1,1.2-0.2,2.4-0.4,3.6
		c-0.2,1.4,0.9,2.6,2.3,2.5c2.3-0.2,4.4-0.4,6.5-0.2c10.6,1.1,17.2,7,20.2,17.6c2.7,9.8,2.6,19.4-2.4,28.5
		c-3.7,6.7-9.2,10.4-17.2,10.3c-10.7-0.2-16.6-1.9-29.9-10c-1.3-0.8-3-0.1-3.3,1.4c-0.8,3.7,0.6,6.6,5,10.3
		c5.3,4.4,11.2,8,16.7,12.1c0.9,0.7,1.7,1.6,2.5,2.5c0.8,1,0.6,2.4-0.4,3.1s-2,1.3-3.1,1.6c-3.5,0.9-7.2,1.7-10.7,1.6
		c-11.2-0.4-22.5-1.1-33.7-1.9c-1.6-0.1-4.5-1.3-4.5-2.1c-0.1-1.7,0.9-4,2.1-5.3c4.2-4.3,9.2-7.9,13-12.5
		C281.5,175,282.4,172.4,283.4,169.3z"/>
	<path class="st1" d="M314.5,685.2c-1.5-0.2-2.7,1.1-2.4,2.6c0.7,3.7,1.3,6.8,1.9,9.8c4.3,22.3-16,38.5-38.5,30.7
		c-9.9-3.4-14.9-10.3-15.4-20.5c-0.3-5.3-0.1-10.6-0.1-15.9c0-1.2-0.9-2.2-2.1-2.2c-3.3-0.1-7,0.2-10.1-1.1c-4.8-2-9.9-4.9-13-8.9
		c-7.7-9.9-6.5-29.6,1.3-39.5c3.6-4.6,8.2-6.8,14-6.9c11.4-0.1,21.9,2.7,30.8,10.1l0.1,0.1c1.4,1.1,3.4,0.2,3.5-1.6
		c0.3-4.6-2.3-7.9-5.5-10.6c-5.3-4.4-11.2-8-16.7-12c-0.8-0.6-1.5-1.4-2.2-2.2c-0.8-0.9-0.7-2.3,0.2-3.1c0.9-0.8,1.9-1.5,3-1.8
		c3.7-0.9,7.6-1.8,11.4-1.7c11.2,0.3,22.5,1.1,33.7,1.9c1.6,0.1,4,1.3,4.4,2.4c0.4,1.3-0.8,3.6-2,4.7c-4,3.9-8.7,7.2-12.3,11.5
		c-1.4,1.7-2.4,3.6-3.3,5.7c2.5,2.3,2.5,2.3,5,4.6c0,0,0.1,0,0.1-0.1c16.1-9,28-8.9,41.4,2.3c8.3,6.9,10,17,4.5,29
		c-5.4,11.7-12.2,15.6-23.7,13.6C320.1,685.9,317.6,685.6,314.5,685.2z"/>
	<path class="st1" d="M81.7,205.6c1.3,1.2,0.7,3.3-1,3.7c-3.1,0.7-5.7,1.3-8.4,1.3c-7.9-0.1-15.8-0.9-23.7-1.5
		c-0.8-0.1-1.5-0.3-2.2-0.6c-1.1-0.4-1.7-1.8-1.2-2.9c0.4-0.9,0.8-1.8,1.5-2.5c2.8-3,6.2-5.6,8.8-8.8c0.8-1,1.3-2.2,1.7-3.6
		c0.6-1.8-1.2-3.4-2.9-2.7c-4.2,1.7-7.7,3.3-11.5,4.3c-8,2.1-17.7-1.9-22.5-8.9c-4.9-7.1-2.6-13.9,1.2-20.5
		c3.2-5.7,8.1-8.2,14.6-7.2c1.8,0.3,3.6,0.5,5.7,0.8c1.5,0.2,2.7-1.1,2.4-2.6c-2-9.1-3.3-17.8,4.7-24.1c3.9-3.1,9.7-5.3,14.7-5.4
		c14.8-0.3,20.1,8.3,18.4,28.4c0.3,0.3,0.6,0.8,0.8,0.7c8.1-0.7,15.3,1.2,18.7,9.3c4,9.4,4.1,19-3,27c-2.2,2.4-6.7,4.5-9.8,4.1
		c-6.9-1-13.6-3.1-20.6-5c-1.7-0.5-3.3,1.2-2.6,2.9C68.2,197.9,76,200.3,81.7,205.6z"/>
	<path class="st1" d="M520.5,618.5c-0.7,1.8,1.1,3.5,2.9,2.8c4-1.7,7.3-3.1,10.8-4.1c8.3-2.3,18.2,1.6,23,8.9
		c4.8,7.1,2.4,14-1.3,20.6c-3.2,5.7-8.2,8.1-14.7,7.1c-1.8-0.3-3.6-0.5-5.7-0.8c-1.5-0.2-2.7,1.2-2.4,2.7c2.1,8.9,3.3,17.5-4.3,23.8
		c-3.9,3.2-9.7,5.9-14.5,5.6c-14.7-0.8-21.1-6.1-19-28.5c-0.3-0.2-0.6-0.7-0.9-0.6c-8.2,0.7-15-1.4-18.7-9.4
		c-4.3-9.2-2.9-21.9,3.6-27.5c2.4-2.1,6.5-4,9.5-3.5c7,1.1,13.9,3.3,21,5.2c1.7,0.5,3.3-1.3,2.6-2.9c-1.2-2.6-4.1-4.6-6.8-6.7
		c-2.5-1.9-5-3.6-7.6-5.4c0.5-2.9,0.5-3.2,1-6.1c1.9-0.5,3.8-0.9,5.7-0.9c8.3,0.1,16.6,0.8,24.9,1.5c1.2,0.1,3.2,0.8,3.4,1.7
		c0.3,1-0.5,2.8-1.4,3.7c-2.9,3-6.4,5.4-9,8.6C521.7,615.4,521.1,616.8,520.5,618.5z"/>
	<path class="st1" d="M73.6,90.7c-0.5,1.5,0.8,3,2.4,2.8c1.8-0.3,3.5-0.5,5-0.4c1.5,0.2,2.9,0.8,4.3,1.5c1.1,0.5,1.5,1.8,1,2.9
		c-0.7,1.5-1.5,3-2.5,4.3c-0.8,0.9-2.7,1.4-4.1,1.3c-9-0.7-17.9-1.8-26.9,0.5c-1.5,0.4-5.7-3-5.6-4.4c0.3-4,1-9.4,3.6-11.6
		c3.2-2.5,8.3-2.6,13.7-3.8c0.6-0.1,1.2-0.6,1.5-1.2c4.1-8.9,4.6-17.3-1.8-21.3c-1.5-1-3.5,0.3-3.3,2.1c0.1,1,0.1,1.9-0.1,2.8
		c-0.4,1.5-1.3,2.9-2.2,4.2c-0.6,0.9-1.8,1.2-2.7,0.8c-1.6-0.8-3.3-1.5-3.9-2.7c-3-6.4-1.1-13.7,3.8-16.8c5-3.1,10.9-1.7,16.3,3.5
		c6.2,6,7.5,13.2,5.6,21.2C76.6,81,75.2,85.4,73.6,90.7z"/>
	<path class="st1" d="M503.9,718.7c0.5-1.5-0.8-3-2.4-2.8c-1.8,0.3-3.4,0.5-4.9,0.3c-1.6-0.2-3.1-1.1-4.6-1.9
		c-1-0.6-1.4-1.9-0.8-2.9c0.7-1.4,1.5-2.7,2.5-3.8c0.9-0.9,2.7-1.4,4.1-1.3c9,0.6,17.9,1.9,26.9-0.6c1.5-0.4,5.7,2.9,5.6,4.3
		c-0.3,4-0.9,9.5-3.6,11.6c-3.2,2.5-8.3,2.7-13.8,3.9c-0.6,0.1-1.2,0.6-1.5,1.2c-4.1,8.8-4.5,17.2,1.8,21.3c1.5,1,3.5-0.2,3.3-2
		c-0.1-1-0.1-1.9,0.2-2.7c0.5-1.6,1.5-3,2.6-4.4c0.7-0.9,1.9-1.2,2.9-0.6c1.5,0.9,3,1.8,3.5,3.1c2.7,6.7,0.8,13.2-4,16.2
		c-5.2,3.3-11.2,1.7-16.7-3.8c-5.9-6-7-13-5.2-20.8C500.8,728.5,502.3,724,503.9,718.7z"/>
</g>
</svg>
