<?xml version="1.0" encoding="utf-8"?>
<!-- Generator: Adobe Illustrator 24.0.0, SVG Export Plug-In . SVG Version: 6.00 Build 0)  -->
<svg version="1.1" id="Layer_1" xmlns="http://www.w3.org/2000/svg" xmlns:xlink="http://www.w3.org/1999/xlink" x="0px" y="0px"
	 viewBox="0 0 578.6 809.5" style="enable-background:new 0 0 578.6 809.5;" xml:space="preserve">
<style type="text/css">
	.st0{fill:#FEFEFE;}
	.st1{fill:#FE2323;}
</style>
<g>
	<path class="st0" d="M539.6,809.5H39c-21.5,0-39-17.5-39-39V39C0,17.5,17.5,0,39,0h500.6c21.5,0,39,17.5,39,39v731.5
		C578.6,792,561.1,809.5,539.6,809.5z M233.6,702.7c0.5,0.3,1.1,0.5,1.6,0.8c0,11.4,5.4,20.5,14.5,24.2c9.5,3.9,18.5,1.4,27-7.4
		c1.6-1.7,3.1-3.4,4.5-5.2c5.2-6.5,5.3-6.5,9.8,0.3c6.7,10.1,22.9,16.9,34.6,1.8c9-11.6,10.6-25.9,2.6-38.4
		c-4.8-7.5-10.7-14.4-16.2-21.4c-7.1-9.1-13.8-18.2-16.6-29.8c-0.5-2.1-3.1-3.7-4.8-5.5c-0.9,1.8-1.9,3.6-2.7,5.5
		c-0.6,1.3-0.7,2.8-1.4,4.1c-8.1,15.9-17.2,30.9-31.8,42c-4.6,3.5-9.1,7.6-12.4,12.3C238.6,691.1,236.4,697.1,233.6,702.7z
		 M342.2,106.1c0-11.8-5.5-20.8-15-24.5c-9.4-3.7-18.6-1-26.8,8c-2,2.1-3.9,4.4-5.5,6.8c-2.5,3.5-4.6,3.8-7.1,0
		c-1.3-2.1-2.8-4.2-4.5-6c-8-8.7-20.5-9.5-28.3-1.4c-9.1,9.4-14.5,20.5-9,33.5c3.3,7.9,8.1,15.5,13.5,22.3
		c9.3,11.8,19.5,22.9,22.8,38.3c0.2,1,0.7,2.1,1.4,2.8c0.8,0.8,2.3,1.7,3,1.5c1.1-0.4,2.5-1.6,2.7-2.8c3.8-14.9,12-27.3,22.3-38.4
		c7.1-7.6,15.2-14.3,22.6-21.6C339.3,119.5,342.4,113.5,342.2,106.1z M480.4,663.7c0,13.9,9.1,22.9,20.7,20
		c4.6-1.2,8.9-5.1,12.6-8.5c5.5-5.2,5.6-5.5,10.5,0.3c7.1,8.3,17.1,8.5,24.2,0.4c8.7-9.8,9.5-20.6,2.1-32
		c-8.4-13-21.3-23.1-24.8-39.2c-0.2-0.9-2-2.2-2.7-2c-1.1,0.3-2.3,1.5-2.9,2.7c-3,6.1-4.9,13-9,18.2c-6.6,8.4-14.6,15.8-22.2,23.5
		C484.2,652,479.8,657,480.4,663.7z M58.1,140.5c-1.9-2.4-3.4-4.3-5-6.2c-7.6-9-17.6-8.9-24.9,0.3c-8.3,10.4-8.5,21-0.1,32.7
		c8.6,11.9,20.1,22,23.6,37.2c0.2,0.9,2,1.9,3.2,2.1c0.6,0.1,1.8-1.5,2.1-2.5c4.4-13.9,12.4-25.2,23.3-34.8
		c4.7-4.1,9.4-8.3,13.2-13.2c6.2-8,4.2-21.1-3.4-27.1c-7.3-5.8-17.8-4.3-25.1,3.7C62.7,135.1,60.6,137.6,58.1,140.5z M75.2,57.4
		c-0.9-15.9-9.9-23.7-23.9-19.8c-8.7,2.4-12,10.4-7.2,18.1c1.1,1.7,4.1,3.4,5.8,3.1c1.6-0.3,3.4-3.1,4-5.1c0.7-2.4-0.8-5.8,3.5-5.8
		c4,0.1,5.8,2.9,5.2,6.3c-1.1,7.1-2.7,14.2-4.5,21.2c-1.4,5.6-4.6,8.2-11,6.5c-4.7-1.3-8.7,0.8-10.5,5.7c-1.9,5.1-2.7,10.4,2.1,14.4
		c4.2,3.4,9.4,3.8,13.2,0c4.8-4.8,8.6-3.6,13.7-0.7c8.9,5,18.6,3.7,24.1-2.7c2.8-3.3,5.3-7.4,1.3-11.1c-3.7-3.4-6.5-0.6-9.1,2.8
		c-3,3.9-8.6,3.6-13.6,0.4c-4.9-3-2-6.1-0.8-9.6C70.4,73.2,72.7,65.3,75.2,57.4z M502.5,752.7c1.1,15.4,10,22.6,23.7,18.6
		c7.2-2.1,10.5-8.2,7.4-15c-1-2.2-3.9-3.5-6-5.2c-1.2,2.3-3.5,4.5-3.5,6.8c0,4.6-2.8,5.5-5.5,4.1c-2.2-1.2-4.9-4.7-4.6-6.8
		c0.9-7.3,2.9-14.5,4.8-21.7c1.4-5.4,4.3-8.1,10.5-6.3c4.6,1.4,8.7-0.3,10.6-5.3c1.9-4.9,2.7-10.1-2-13.7c-4-3.1-9-3.2-12.7,0.3
		c-4.7,4.6-8.6,3.6-13.7,0.7c-8.1-4.8-16.8-3.9-22.7,1.5c-3.2,2.9-6,7-2.7,10.9c3.7,4.4,6.4,0.4,8.8-2.6c0.4-0.6,1-1,1.6-1.4
		c5.4-3.2,9.8-0.7,14.1,2.4c4.3,3.2,0.3,5.9-0.6,8.7C507.6,736.5,505.1,744.6,502.5,752.7z"/>
	<path class="st1" d="M233.6,702.7c2.8-5.6,5-11.6,8.7-16.7c3.3-4.7,7.8-8.8,12.4-12.3c14.6-11.1,23.7-26.1,31.8-42
		c0.6-1.3,0.8-2.8,1.4-4.1c0.8-1.9,1.8-3.7,2.7-5.5c1.7,1.8,4.3,3.4,4.8,5.5c2.8,11.6,9.5,20.7,16.6,29.8c5.5,7,11.4,13.9,16.2,21.4
		c8.1,12.6,6.4,26.8-2.6,38.4c-11.7,15.1-28,8.3-34.6-1.8c-4.5-6.8-4.5-6.8-9.8-0.3c-1.4,1.8-2.9,3.5-4.5,5.2
		c-8.5,8.8-17.5,11.3-27,7.4c-9-3.7-14.5-12.8-14.5-24.2C234.6,703.2,234.1,703,233.6,702.7z"/>
	<path class="st1" d="M342.2,106.1c0.2,7.4-2.9,13.5-7.9,18.5c-7.4,7.4-15.5,14-22.6,21.6c-10.3,11-18.5,23.4-22.3,38.4
		c-0.3,1.1-1.6,2.4-2.7,2.8c-0.8,0.3-2.2-0.7-3-1.5c-0.7-0.7-1.2-1.8-1.4-2.8c-3.3-15.4-13.5-26.4-22.8-38.3
		c-5.3-6.8-10.1-14.4-13.5-22.3c-5.5-13-0.1-24.1,9-33.5c7.9-8.1,20.3-7.3,28.3,1.4c1.7,1.8,3.2,3.9,4.5,6c2.4,3.8,4.6,3.5,7.1,0
		c1.7-2.4,3.5-4.6,5.5-6.8c8.3-9,17.5-11.7,26.8-8C336.7,85.3,342.2,94.3,342.2,106.1z"/>
	<path class="st1" d="M480.4,663.7c-0.6-6.8,3.8-11.8,8.5-16.6c7.5-7.7,15.5-15.1,22.2-23.5c4.1-5.2,6-12.1,9-18.2
		c0.6-1.1,1.7-2.3,2.9-2.7c0.7-0.2,2.5,1.1,2.7,2c3.5,16.1,16.4,26.2,24.8,39.2c7.4,11.4,6.6,22.2-2.1,32c-7.1,8-17.1,7.8-24.2-0.4
		c-4.9-5.8-5-5.5-10.5-0.3c-3.7,3.4-7.9,7.3-12.6,8.5C489.5,686.7,480.4,677.7,480.4,663.7z"/>
	<path class="st1" d="M58.1,140.5c2.5-2.9,4.6-5.4,6.8-7.9c7.3-8,17.8-9.6,25.1-3.7c7.6,6.1,9.6,19.1,3.4,27.1
		c-3.8,4.9-8.5,9.1-13.2,13.2c-10.9,9.6-18.9,20.9-23.3,34.8c-0.3,1-1.5,2.6-2.1,2.5c-1.2-0.2-3-1.1-3.2-2.1
		c-3.5-15.2-15-25.2-23.6-37.2c-8.4-11.7-8.2-22.3,0.1-32.7c7.3-9.2,17.3-9.3,24.9-0.3C54.7,136.2,56.2,138.1,58.1,140.5z"/>
	<path class="st1" d="M75.2,57.4c-2.5,7.9-4.8,15.8-7.5,23.6c-1.2,3.5-4.1,6.5,0.8,9.6c5.1,3.1,10.6,3.5,13.6-0.4
		c2.6-3.4,5.4-6.2,9.1-2.8c3.9,3.6,1.5,7.8-1.3,11.1c-5.5,6.4-15.2,7.7-24.1,2.7c-5.1-2.8-8.9-4-13.7,0.7c-3.8,3.7-9,3.3-13.2,0
		c-4.9-3.9-4-9.2-2.1-14.4c1.8-4.9,5.8-7,10.5-5.7c6.4,1.8,9.6-0.9,11-6.5c1.8-7,3.4-14,4.5-21.2c0.5-3.4-1.2-6.2-5.2-6.3
		c-4.4-0.1-2.9,3.4-3.5,5.8c-0.6,2-2.3,4.8-4,5.1s-4.8-1.4-5.8-3.1c-4.8-7.7-1.5-15.7,7.2-18.1C65.3,33.7,74.4,41.5,75.2,57.4z"/>
	<path class="st1" d="M502.5,752.7c2.5-8.1,5.1-16.1,7.6-24.2c0.9-2.8,4.9-5.6,0.6-8.7c-4.2-3.1-8.7-5.6-14.1-2.4
		c-0.6,0.4-1.2,0.8-1.6,1.4c-2.4,3-5.1,7-8.8,2.6c-3.3-3.9-0.5-8,2.7-10.9c5.9-5.4,14.5-6.2,22.7-1.5c5.1,3,9,3.9,13.7-0.7
		c3.7-3.6,8.7-3.5,12.7-0.3c4.7,3.7,3.9,8.8,2,13.7c-1.9,5-6,6.6-10.6,5.3c-6.2-1.8-9.1,0.9-10.5,6.3c-1.8,7.2-3.8,14.4-4.8,21.7
		c-0.3,2.1,2.4,5.7,4.6,6.8c2.7,1.4,5.5,0.5,5.5-4.1c0-2.3,2.3-4.5,3.5-6.8c2.1,1.7,5,3,6,5.2c3.1,6.8-0.2,12.9-7.4,15
		C512.5,775.3,503.7,768,502.5,752.7z"/>
</g>
</svg>
