<?xml version="1.0" encoding="utf-8"?>
<!-- Generator: Adobe Illustrator 24.0.0, SVG Export Plug-In . SVG Version: 6.00 Build 0)  -->
<svg version="1.1" id="Layer_1" xmlns="http://www.w3.org/2000/svg" xmlns:xlink="http://www.w3.org/1999/xlink" x="0px" y="0px"
	 viewBox="0 0 578.6 809.5" style="enable-background:new 0 0 578.6 809.5;" xml:space="preserve">
<style type="text/css">
	.st0{fill:#FFFFFF;}
	.st1{fill:#010101;}
	.st2{fill:#FDFDFD;}
</style>
<g>
	<path class="st0" d="M539.6,809.5H39c-21.5,0-39-17.5-39-39V39C0,17.5,17.5,0,39,0h500.6c21.5,0,39,17.5,39,39v731.5
		C578.6,792,561.1,809.5,539.6,809.5z M296.3,76.2c-7-1.1-8.5,0.3-7.6,6.5c0.4,3.1,1.7,6.9,0.5,9.1c-6.5,11.4-13.2,22.8-27.8,25.6
		c-15,2.8-25.9,9.9-32,25.2c-4.7,11.8-4.7,21.3,3.6,31.1c7.8,9.2,17.2,13.4,29.1,12.1c3.9-0.4,7.9-0.5,11.9-0.7
		c-1.5,3.8-2.8,7.7-4.6,11.4c-1.9,3.8-0.9,7,3.4,7.1c9.8,0.4,19.6,0.5,29.4,0.3c4.1-0.1,5.9-4,3.8-7.7c-0.7-1.2-2.1-2.1-2.8-3.3
		c-0.6-1.1-1.4-3.4-1-3.7c1.1-0.9,2.8-1.3,4.2-1.3c1.6,0.1,3.2,1.2,4.8,1.3c8.3,0.9,16.5,2,23.6-4.4c11.8-10.7,13.2-24.4,11.7-38.9
		c-1.3-12.5-10.6-17.5-20.6-22c-1.7-0.8-3.6-1.4-5-2.5c-5.4-4.5-11.1-8.7-15.7-13.9C297.3,98.7,295.5,87.7,296.3,76.2z M292.1,605.7
		c0-0.1,0-0.2,0-0.3c-4.2,0-8.4-0.2-12.5,0.1c-2.1,0.2-5.3,1-5.7,2.3c-0.7,1.9,0.5,4.6,1.3,6.8c0.6,2,1.7,3.8,2.6,5.8
		c-2.3,0.1-4.7,0.8-6.8,0.3c-8.2-2-16.5-2.5-23.7,2c-14.6,9.1-20,38.5-8.8,51.6c5,5.8,12.9,9.3,19.9,13.3
		c15.9,9.1,25.3,21.9,25.3,40.8c0,1.9,2,3.8,3.1,5.7c1.2-1.8,3.2-3.6,3.5-5.5c0.6-3.7-1.2-8.2,0.4-11.1
		c6.6-12.2,14.3-23.4,29.7-26.1c10-1.7,19.6-5.2,24.9-14.8c3.6-6.5,6.2-13.6,8.6-20.7c0.8-2.4,0.6-6.3-0.4-8.6
		c-8.1-17.9-18-25.1-37.9-23.1c-3.2,0.3-6.6-0.1-9.8-0.1c1.2-3.3,2.5-6.7,3.7-10c0.7-1.8,2.2-4.4,1.6-5.3c-1.2-1.6-3.6-2.7-5.7-2.9
		C300.9,605.4,296.5,605.7,292.1,605.7z M518.2,605.3c0-0.1,0-0.2,0-0.3c-2.7,0-5.4,0-8.1,0c-3.6-0.1-5.4,1.6-3.9,5
		c2.4,5.4,0.1,5.7-4.3,5c-11.3-1.7-18.9,2.6-22,13.5c-4.3,15.4-0.6,24.6,12,30.2c12.6,5.6,20.7,14.5,20.8,29.2
		c0,1.2,1.4,2.5,2.1,3.7c0.8-1.2,2.1-2.3,2.4-3.6c0.5-2.8-0.4-6.2,0.9-8.5c4.3-8,9.7-15.1,19.8-16.6c3.2-0.5,6.4-1.8,9.3-3.4
		c14.1-7.6,16.4-26.6,4.8-37.3c-5.1-4.7-11.3-4.8-17.6-4.6c-1.9,0.1-3.8-0.6-5.7-1c0.4-1.9,0.5-4,1.4-5.6c2.1-3.7,1.2-5.5-3-5.7
		C524.1,605.2,521.1,605.3,518.2,605.3z M70.2,192.7c3.2,0.8,5.3,1.4,7.5,1.8c6.9,1.2,13.2,0.4,18-5.6c10.5-13.1,7-30.7-7.9-38.2
		c-1.1-0.6-2.3-1-3.4-1.7c-10.2-5.9-16.9-14-17.2-26.4c0-1.7-1.5-3.3-2.3-5c-0.8,1.6-2.3,3.2-2.4,4.9C62,134,54.6,143.1,43.2,146
		c-4,1-8.1,2.3-11.6,4.4c-13.5,8.1-15.4,25.9-4.1,36.6c5.8,5.5,12.8,5.3,19.9,4.6c1.5-0.2,3-0.5,6.2-1.1c-1.8,3.6-2.8,5.9-4.1,8
		c-2.2,3.7-1.1,5.5,3,5.6c3.3,0.1,6.7,0.1,10,0.2C75.4,204.7,75.4,204.7,70.2,192.7z M498,747.3c0.3,7.3,3.9,12.5,8.9,16.9
		c5.5,5,12.1,5.5,16.9,1.2c4.6-4,5.8-12.7,2-17.8c-0.9-1.3-3.6-2-5.3-1.7c-1.2,0.2-2.5,2.4-2.9,4c-0.4,1.5,1,3.5,0.5,4.8
		s-2.8,3-3.8,2.7c-4.9-1.5-7.3-8.3-5.8-14.9c2.6-11.5,2.6-11.4,10.4-11.2c5.1,0.1,9.9-1.5,11.6-6.6c1.1-3.2,1.5-7.9-0.1-10.5
		c-2.9-4.8-8.1-2.3-12.5-1.7c-3.9,0.5-8,0-12,0.3c-4.8,0.3-9.7,0.6-14.4,1.6c-1.1,0.2-2.6,3.7-2.1,4.8c0.8,1.6,3.2,2.5,5.1,3.4
		c0.5,0.3,1.6-0.7,2.3-0.6c2.4,0.2,4.8,0.5,7.1,0.8c-0.4,2-0.6,3.9-1.1,5.9C501.4,734.9,499.7,741.1,498,747.3z M52.3,54.3
		c0.2,1.3,0.1,4.1,1.2,6.2c0.8,1.6,3.5,3.4,5,3.1c1.5-0.3,3.1-2.8,3.8-4.6c0.5-1.3-1-3.4-0.5-4.8c0.4-1.1,2.6-2.6,3.6-2.3
		c4.6,1.3,7.3,8.2,6.1,14.2C69.2,77.7,68.7,78.1,61,78c-5,0-10.1,1.4-11.7,6.5c-1.1,3.4-1.4,9.7,0.3,10.7c3.4,2,8.3,1.3,12.6,1.4
		c3.4,0.1,6.8,0,10.2-0.2C77.7,96.1,83,96,88.1,95c1.1-0.2,2.7-3.9,2.1-5.3c-0.6-1.5-3.3-2.4-5.2-2.9c-1.2-0.3-2.8,0.9-4.2,1
		c-3.9,0.2-6.5-0.5-4.6-5.7c2.1-5.6,3.7-11.5,4.7-17.4c1.5-8.8-3.3-17.7-11.2-21.9C60.9,38.3,52.3,43.4,52.3,54.3z"/>
	<path class="st1" d="M296.3,76.2c-0.9,11.5,0.9,22.5,8.8,31.4c4.6,5.2,10.4,9.4,15.7,13.9c1.4,1.2,3.3,1.8,5,2.5
		c9.9,4.5,19.3,9.5,20.6,22c1.5,14.6,0.2,28.3-11.7,38.9c-7.1,6.4-15.3,5.3-23.6,4.4c-1.6-0.2-3.2-1.3-4.8-1.3
		c-1.4-0.1-3.2,0.4-4.2,1.3c-0.4,0.3,0.3,2.6,1,3.7c0.7,1.2,2.1,2.1,2.8,3.3c2.1,3.7,0.3,7.6-3.8,7.7c-9.8,0.2-19.6,0.1-29.4-0.3
		c-4.2-0.2-5.3-3.3-3.4-7.1c1.8-3.6,3.1-7.6,4.6-11.4c-4,0.2-8,0.2-11.9,0.7c-11.9,1.3-21.3-2.9-29.1-12.1
		c-8.3-9.8-8.2-19.3-3.6-31.1c6.1-15.3,17-22.4,32-25.2c14.6-2.8,21.3-14.2,27.8-25.6c1.3-2.2,0-6.1-0.5-9.1
		C287.9,76.5,289.3,75.1,296.3,76.2z M301.6,188.4c-0.2-0.2-0.3-0.3-0.4-0.4c-0.1,0.3-0.3,0.5-0.4,0.8c0,0.1,0.3,0.3,0.4,0.4
		C301.3,188.9,301.5,188.7,301.6,188.4z"/>
	<path class="st1" d="M292.1,605.7c4.4,0,8.8-0.3,13.1,0.1c2,0.2,4.5,1.4,5.7,2.9c0.7,0.9-0.9,3.5-1.6,5.3c-1.2,3.4-2.5,6.7-3.7,10
		c3.3,0.1,6.6,0.5,9.8,0.1c19.9-2,29.8,5.3,37.9,23.1c1.1,2.3,1.3,6.2,0.4,8.6c-2.4,7.1-5,14.2-8.6,20.7c-5.2,9.6-14.9,13-24.9,14.8
		c-15.4,2.7-23.1,13.9-29.7,26.1c-1.6,2.9,0.2,7.4-0.4,11.1c-0.3,2-2.3,3.7-3.5,5.5c-1.1-1.9-3.1-3.8-3.1-5.7
		c0-18.9-9.4-31.7-25.3-40.8c-6.9-4-14.9-7.4-19.9-13.3c-11.2-13.1-5.8-42.5,8.8-51.6c7.2-4.5,15.5-4,23.7-2
		c2.1,0.5,4.5-0.2,6.8-0.3c-0.9-1.9-1.9-3.8-2.6-5.8c-0.7-2.2-1.9-4.9-1.3-6.8c0.5-1.3,3.7-2.2,5.7-2.3c4.1-0.4,8.3-0.1,12.5-0.1
		C292.1,605.5,292.1,605.6,292.1,605.7z M279.1,621.1c-0.1-0.3-0.3-0.5-0.4-0.8c-0.1,0.1-0.4,0.3-0.4,0.4c0.1,0.3,0.3,0.6,0.4,0.8
		C278.8,621.4,278.9,621.2,279.1,621.1z"/>
	<path class="st1" d="M518.2,605.3c2.9,0,5.8-0.1,8.8,0c4.2,0.2,5.1,1.9,3,5.7c-0.9,1.6-1,3.7-1.4,5.6c1.9,0.3,3.8,1,5.7,1
		c6.3-0.2,12.5-0.1,17.6,4.6c11.6,10.7,9.3,29.7-4.8,37.3c-2.9,1.6-6.1,2.9-9.3,3.4c-10.1,1.5-15.5,8.5-19.8,16.6
		c-1.2,2.3-0.3,5.7-0.9,8.5c-0.2,1.3-1.6,2.4-2.4,3.6c-0.7-1.2-2.1-2.5-2.1-3.7c-0.1-14.7-8.2-23.7-20.8-29.2
		c-12.6-5.6-16.3-14.8-12-30.2c3.1-11,10.7-15.3,22-13.5c4.4,0.7,6.8,0.4,4.3-5c-1.5-3.4,0.3-5.1,3.9-5c2.7,0,5.4,0,8.1,0
		C518.2,605.1,518.2,605.2,518.2,605.3z M507.8,614c-0.1,0.1-0.4,0.3-0.4,0.4c0.1,0.3,0.3,0.6,0.4,0.8c0.1-0.1,0.4-0.3,0.4-0.4
		C508.1,614.6,508,614.3,507.8,614z"/>
	<path class="st1" d="M70.2,192.7c5.2,12,5.2,12-7.5,11.7c-3.3-0.1-6.7-0.1-10-0.2c-4.1-0.2-5.2-1.9-3-5.6c1.3-2.1,2.3-4.5,4.1-8
		c-3.2,0.6-4.7,0.9-6.2,1.1c-7.1,0.7-14.2,0.9-19.9-4.6c-11.2-10.7-9.4-28.5,4.1-36.6c3.5-2.1,7.6-3.3,11.6-4.4
		c11.3-2.9,18.8-12,19.3-23.5c0.1-1.7,1.5-3.3,2.4-4.9c0.8,1.7,2.2,3.3,2.3,5c0.4,12.4,7,20.5,17.2,26.4c1.1,0.6,2.2,1.1,3.4,1.7
		c14.9,7.5,18.4,25.1,7.9,38.2c-4.8,6-11.1,6.7-18,5.6C75.6,194.1,73.4,193.5,70.2,192.7z"/>
	<path class="st1" d="M498,747.3c1.7-6.2,3.4-12.4,5-18.6c0.5-1.9,0.7-3.9,1.1-5.9c-2.4-0.3-4.7-0.7-7.1-0.8
		c-0.8-0.1-1.8,0.9-2.3,0.6c-1.9-0.9-4.2-1.8-5.1-3.4c-0.5-1,1-4.5,2.1-4.8c4.7-1,9.6-1.3,14.4-1.6c4-0.2,8.1,0.3,12-0.3
		c4.5-0.6,9.7-3.1,12.5,1.7c1.6,2.6,1.2,7.3,0.1,10.5c-1.7,5.1-6.5,6.8-11.6,6.6c-7.9-0.2-7.9-0.3-10.4,11.2
		c-1.5,6.6,1,13.4,5.8,14.9c0.9,0.3,3.3-1.4,3.8-2.7s-0.9-3.3-0.5-4.8s1.7-3.7,2.9-4c1.6-0.3,4.3,0.4,5.3,1.7
		c3.8,5.1,2.5,13.8-2,17.8c-4.9,4.2-11.4,3.8-16.9-1.2C501.9,759.7,498.3,754.6,498,747.3z"/>
	<path class="st1" d="M52.3,54.3c0-11,8.6-16.1,17.3-11.4c7.9,4.2,12.7,13.1,11.2,21.9c-1,5.9-2.7,11.8-4.7,17.4
		c-1.9,5.2,0.7,5.9,4.6,5.7c1.4-0.1,2.9-1.3,4.2-1c2,0.5,4.6,1.5,5.2,2.9c0.5,1.3-1,5.1-2.1,5.3c-5.2,1-10.5,1.1-15.7,1.4
		c-3.4,0.2-6.8,0.3-10.2,0.2c-4.3-0.1-9.3,0.5-12.6-1.4c-1.7-1-1.4-7.4-0.3-10.7c1.7-5.1,6.7-6.6,11.7-6.5c7.6,0,8.1-0.4,10.5-11.9
		c1.2-6.1-1.6-12.9-6.1-14.2c-1-0.3-3.2,1.2-3.6,2.3c-0.5,1.4,1,3.4,0.5,4.8c-0.7,1.8-2.2,4.3-3.8,4.6c-1.5,0.3-4.1-1.5-5-3.1
		C52.3,58.4,52.5,55.7,52.3,54.3z"/>
	<path class="st2" d="M301.6,188.4c-0.1,0.3-0.3,0.5-0.4,0.8c-0.1-0.1-0.4-0.3-0.4-0.4c0.1-0.3,0.3-0.6,0.4-0.8
		C301.3,188.1,301.5,188.2,301.6,188.4z"/>
	<path class="st2" d="M279.1,621.1c-0.2,0.2-0.3,0.3-0.4,0.4c-0.1-0.3-0.3-0.5-0.4-0.8c0-0.1,0.3-0.3,0.4-0.4
		C278.8,620.5,278.9,620.8,279.1,621.1z"/>
	<path class="st2" d="M507.8,614c0.1,0.3,0.3,0.5,0.4,0.8c0,0.1-0.3,0.3-0.4,0.4c-0.1-0.3-0.3-0.5-0.4-0.8
		C507.4,614.3,507.7,614.1,507.8,614z"/>
</g>
</svg>
