<?xml version="1.0" encoding="utf-8"?>
<!-- Generator: Adobe Illustrator 24.0.0, SVG Export Plug-In . SVG Version: 6.00 Build 0)  -->
<svg version="1.1" id="Layer_1" xmlns="http://www.w3.org/2000/svg" xmlns:xlink="http://www.w3.org/1999/xlink" x="0px" y="0px"
	 viewBox="0 0 578.2 809.5" style="enable-background:new 0 0 578.2 809.5;" xml:space="preserve">
<style type="text/css">
	.st0{fill:#FEFEFE;}
	.st1{fill:#FE2020;}
</style>
<g>
	<path class="st0" d="M39,0c166.7,0,333.5,0,500.2,0c21.5,0,39,17.5,39,39v731.5c0,21.5-17.5,39-39,39H39c-21.5,0-39-17.5-39-39
		C0,526.7,0,282.8,0,39C0,17.5,17.5,0,39,0z M281.2,472c-0.2,0-0.3,0.1-0.5,0.1c0,0.8,0,1.5,0,2.3c-0.1,4.8,1.6,7.1,5.6,7.5
		c2.4,0.2,5.5-3.2,5.9-6.5c0.5-4,1.1-8,1.5-12.1c0.8-7.6,3.9-14.6,8.3-20.5c6.7-8.9,14.5-17,22-25.3c1-1.1,2.4-1.8,3.7-2.5
		c3.8-2,5-7.7,2-10.2c-2.7-2.3-5.8-4.2-8.2-6.9c-3.7-4.1-7.3-8.5-10.2-13.2c-2.3-3.8-3.6-8.2-5-12.5c-1.2-3.5-2.1-7-2.8-10.6
		c-1.3-7-2.6-13.9-3.5-20.9c-0.4-2.7-0.7-5.3-3.5-6c-5.2-1.3-7.6-0.2-9,3.9c-1.5,4.4-2.7,8.9-4.1,13.4c-1.6,4.9-3.1,9.9-5,14.7
		c-1.9,4.9-3.9,9.9-6.4,14.6c-5.1,9.4-12,17.4-19.5,25c-3,3-3.4,6.2-1.3,8.9c4.9,6.5,10.2,12.7,14.6,19.4
		c4.5,6.8,8.8,13.8,12.1,21.2C280,460.6,280.1,466.5,281.2,472z M298.8,591.4c0.3-0.1,0.7-0.2,1-0.2c0.1-5.5-1.7-8.3-5.4-8.5
		c-2.3-0.1-5.9,3.5-6.3,6.5c-0.5,3.7-0.7,7.5-1.5,11.1c-1.1,4.9-1.6,10.2-4.2,14.3c-4.7,7.7-10.4,14.8-16.3,21.7
		c-4.5,5.3-9.9,9.8-14.9,14.7c-2.2,2.2-2.2,5.1,0.1,6.9c6.9,5.4,13.5,11.1,17.6,19.1c1.1,2.1,2.1,4.3,2.9,6.6
		c2.2,7.1,4.6,14.2,6.3,21.4c1.3,5.8,1.5,11.9,2.8,17.7c0.4,1.8,2.5,4.1,4.3,4.6c2.1,0.6,5.3,1.3,6.8-1.7c1.1-2.1,1.8-4.5,2.5-6.8
		c3.1-9.3,5.7-18.7,9.4-27.7c3-7.2,6.8-14.2,11.1-20.7c3.1-4.6,7.4-8.4,11.5-12.2c3.3-3,3.6-7,0.8-10.4
		c-5.5-6.7-11.1-13.5-15.9-20.7c-3.7-5.7-6.7-11.9-9-18.3C300.6,603.2,300,597.2,298.8,591.4z M250.2,156.4c0.7,1.6,0.9,2.8,1.6,3.6
		c2.3,2.9,4.8,5.7,7.1,8.6c11.9,15.1,21.4,31.3,21.9,51.3c0.1,2.8,1.6,5.2,4.3,4.8c1.7-0.2,3.1-2.7,4.4-4.4c0.5-0.6,0.1-1.7,0.2-2.6
		c0.6-4.6,0.7-9.3,2-13.6c5.6-18.9,18.6-32.4,33-44.8c4.4-3.8,4.9-5.6,0.2-9.2c-9.3-7.1-16.8-15.8-20.1-27
		c-3.3-11.5-5.3-23.4-7.5-35.2c-0.6-3.3-1.8-5.3-4.9-5.9c-3.5-0.7-4.9,1.9-5.8,4.5c-1.5,4.4-2.5,8.9-3.8,13.3
		c-5.8,19.5-13.9,37.7-29.4,51.8C251.9,152.8,251.2,154.8,250.2,156.4z M520.4,684.7c4.8,0.3,5.4-2.6,6.2-4.9
		c2.1-6.3,3.7-12.8,6.1-19c3.5-9.1,9-16.9,15.9-23.8c3.3-3.4,3.4-4.5,0.5-7.7c-1.5-1.6-3.7-4.4-5-6.2c-7.5-10-13.5-20.5-14.2-33.5
		c-0.1-1.4-2-2.8-3.1-4.1c-1.1,1.2-2.8,2.3-3.3,3.7c-0.7,2.3-0.4,4.8-0.9,7.2c-2.6,14.7-12.4,24.7-22.9,34.1
		c-3.9,3.5-4.5,4.5-0.4,7.7c6.9,5.4,11.9,12.1,14.2,20.5c2,7.3,3,14.8,4.6,22.1C518.4,682.3,519.8,683.8,520.4,684.7z M83.2,174.3
		c-2-2.1-3.5-4-5.3-5.4c-8.2-6.2-11.8-14.9-14-24.5c-1.2-5.5-1.8-11.1-3.1-16.6c-0.3-1.5-2.1-3.5-3.4-3.6c-1.3-0.1-3.2,1.5-4.2,2.8
		c-0.9,1.2-1.2,3.1-1.6,4.7c-3.8,15.4-10.1,29.5-21.8,40.7c-2.3,2.2-2.5,4.5-0.1,6.9c1.5,1.5,2.8,3.3,4.2,5
		c8.1,10.3,14.6,21.3,15.2,34.9c0.1,1.4,1.8,2.7,2.8,4.1c1.2-1.1,2.7-2,3.6-3.3c0.6-1,0.3-2.5,0.6-3.7c0.6-3.4,1-6.9,2.1-10.1
		c4-11.8,12.7-20.2,21.7-28.3C80.9,177,81.8,175.8,83.2,174.3z M517.5,712.1c-0.2-0.3-0.3-0.7-0.5-1c-4.3,1.7-9.1,2.7-12.9,5.1
		c-8.5,5.4-11.3,14.8-6.7,23c2.2,3.9,5.7,7.2,9,10.3c1.9,1.7,2.9,2.7,2.1,5.6c-1.3,4.5-2,9.5,1.5,13.6c6.8,8.2,19.4,6.6,23.9-3
		c0.7-1.5,0.8-3.5,0.5-5.2c-0.6-2.6-4-4.1-6.9-3.3c-2.8,0.8-3.6,2.7-2.8,5.4c1,3.3-1.3,3.9-3.6,3.9c-3,0-5.7-1.2-6.3-4.5
		c-0.8-3.7,1.9-8.7,4.9-10c2.3-1,4.7-2.1,6.7-3.5s2.7-3.4,1.3-5.7c-1.5-2.4-3.6-3.2-6.3-2.1c-1.3,0.5-2.5,1.3-3.6,2.2
		c-2.7,2-6.6,1.8-9-0.6c-2-1.9-3.8-4.1-5.2-6.4c-2.2-3.4-1.5-7,0.9-10c3-3.8,7-6,11.9-6.1c8.2-0.1,13.5,4.8,18,10.8
		c1.6,2.1,3.3,3.5,5.8,1.8c2.3-1.6,1.9-3.8,0.4-5.7C534.9,718.6,528,712.3,517.5,712.1z M62.4,96.7c8.2-0.1,15-3.9,19.4-12
		c4.2-7.7,1.3-14.1-3.5-20.1c-1.7-2.1-3.7-4-5.9-5.5c-2.1-1.4-2.9-2.5-2.1-5.2c0.9-2.7,1-5.9,0.7-8.7c-0.6-5.5-7.4-10.5-13.4-10.5
		c-5.7,0-12.4,5.1-13.5,10.3c-0.2,1.2-0.1,2.6,0.4,3.7c0.9,2.4,4.8,4.2,7.1,2.7c1.3-0.8,2.5-3.2,2.5-4.8c-0.1-3.1,0.8-4.7,4-4.3
		c2.8,0.3,5.3,1.4,5.9,4.6c0.7,4-1.9,8.6-5,9.9c-2.4,1-4.8,2.3-7,3.8c-1.9,1.3-2.5,3.7-0.8,5.3c1.3,1.3,3.7,2.4,5.4,2.2
		c2-0.2,3.9-1.8,5.6-3.2c1.9-1.6,3.9-1.7,5.5-0.2c2.7,2.5,5.3,5.2,7.5,8.1c2.4,3.3,1.5,6.9-0.9,10c-2.9,3.7-6.7,5.9-11.5,6.1
		c-8.3,0.3-13.8-4.6-18.3-10.8c-1.5-2.1-3.3-3.5-5.8-1.8c-2.3,1.6-2,3.8-0.5,5.7C44,90.2,50.9,96.3,62.4,96.7z"/>
	<path class="st1" d="M281.2,472c-1.1-5.5-1.2-11.4-3.4-16.3c-3.2-7.4-7.6-14.4-12.1-21.2c-4.5-6.7-9.7-13-14.6-19.4
		c-2-2.7-1.7-5.9,1.3-8.9c7.5-7.5,14.4-15.6,19.5-25c2.5-4.7,4.5-9.6,6.4-14.6c1.9-4.8,3.4-9.8,5-14.7c1.4-4.4,2.6-9,4.1-13.4
		c1.4-4.1,3.7-5.2,9-3.9c2.9,0.7,3.2,3.3,3.5,6c0.9,7,2.2,14,3.5,20.9c0.7,3.6,1.6,7.1,2.8,10.6c1.4,4.3,2.7,8.7,5,12.5
		c2.8,4.7,6.5,9.1,10.2,13.2c2.3,2.6,5.4,4.6,8.2,6.9c3,2.5,1.9,8.2-2,10.2c-1.3,0.7-2.7,1.5-3.7,2.5c-7.4,8.3-15.3,16.4-22,25.3
		c-4.4,5.9-7.5,12.9-8.3,20.5c-0.4,4-1,8.1-1.5,12.1c-0.4,3.4-3.6,6.8-5.9,6.5c-4-0.4-5.7-2.8-5.6-7.5c0-0.8,0-1.5,0-2.3
		C280.9,472,281,472,281.2,472z"/>
	<path class="st1" d="M298.8,591.4c1.2,5.8,1.8,11.8,3.8,17.3c2.3,6.4,5.3,12.6,9,18.3c4.8,7.3,10.4,14,15.9,20.7
		c2.8,3.4,2.5,7.4-0.8,10.4c-4.1,3.8-8.4,7.6-11.5,12.2c-4.3,6.5-8.2,13.5-11.1,20.7c-3.7,9-6.3,18.5-9.4,27.7
		c-0.8,2.3-1.5,4.6-2.5,6.8c-1.5,3-4.7,2.3-6.8,1.7c-1.8-0.5-3.9-2.8-4.3-4.6c-1.3-5.8-1.4-11.9-2.8-17.7
		c-1.7-7.2-4.1-14.3-6.3-21.4c-0.7-2.3-1.8-4.5-2.9-6.6c-4.1-8-10.7-13.7-17.6-19.1c-2.3-1.8-2.4-4.7-0.1-6.9
		c5-4.9,10.4-9.4,14.9-14.7c5.9-6.9,11.5-14.1,16.3-21.7c2.5-4.1,3.1-9.5,4.2-14.3c0.8-3.6,1-7.4,1.5-11.1c0.4-3,4-6.6,6.3-6.5
		c3.7,0.2,5.5,3,5.4,8.5C299.5,591.3,299.2,591.4,298.8,591.4z"/>
	<path class="st1" d="M250.2,156.4c1-1.6,1.7-3.6,3.1-4.9c15.5-14,23.6-32.2,29.4-51.8c1.3-4.4,2.4-8.9,3.8-13.3
		c0.9-2.6,2.3-5.1,5.8-4.5c3.1,0.6,4.3,2.6,4.9,5.9c2.2,11.8,4.2,23.7,7.5,35.2c3.2,11.2,10.7,19.9,20.1,27c4.7,3.6,4.2,5.4-0.2,9.2
		c-14.4,12.4-27.4,26-33,44.8c-1.3,4.4-1.4,9.1-2,13.6c-0.1,0.9,0.2,2.1-0.2,2.6c-1.3,1.7-2.8,4.1-4.4,4.4c-2.7,0.4-4.2-2-4.3-4.8
		c-0.5-20-10-36.2-21.9-51.3c-2.3-2.9-4.8-5.7-7.1-8.6C251.1,159.2,250.9,158,250.2,156.4z"/>
	<path class="st1" d="M520.4,684.7c-0.6-0.9-2-2.4-2.3-4.1c-1.7-7.4-2.6-14.9-4.6-22.1c-2.3-8.4-7.3-15.1-14.2-20.5
		c-4.1-3.2-3.4-4.2,0.4-7.7c10.5-9.4,20.3-19.4,22.9-34.1c0.4-2.4,0.2-4.9,0.9-7.2c0.5-1.4,2.2-2.5,3.3-3.7c1.1,1.4,3,2.7,3.1,4.1
		c0.6,13,6.7,23.5,14.2,33.5c1.3,1.8,3.6,4.5,5,6.2c2.9,3.3,2.9,4.4-0.5,7.7c-6.9,6.9-12.4,14.7-15.9,23.8c-2.4,6.2-4,12.7-6.1,19
		C525.8,682.1,525.2,685,520.4,684.7z"/>
	<path class="st1" d="M83.2,174.3c-1.4,1.5-2.3,2.7-3.3,3.6c-9,8.1-17.7,16.4-21.7,28.3c-1.1,3.2-1.4,6.7-2.1,10.1
		c-0.2,1.2,0.1,2.8-0.6,3.7c-0.9,1.3-2.4,2.2-3.6,3.3c-1-1.4-2.7-2.7-2.8-4.1c-0.7-13.6-7.1-24.6-15.2-34.9c-1.3-1.7-2.6-3.5-4.2-5
		c-2.5-2.4-2.3-4.7,0.1-6.9c11.7-11.2,18-25.3,21.8-40.7c0.4-1.6,0.6-3.5,1.6-4.7c1-1.3,2.9-3,4.2-2.8c1.3,0.1,3.1,2.2,3.4,3.6
		c1.3,5.5,1.8,11.1,3.1,16.6c2.1,9.5,5.8,18.3,14,24.5C79.7,170.3,81.2,172.3,83.2,174.3z"/>
	<path class="st1" d="M517.5,712.1c10.5,0.3,17.4,6.5,23.3,14.3c1.5,1.9,1.9,4.1-0.4,5.7c-2.5,1.7-4.2,0.3-5.8-1.8
		c-4.5-6-9.8-10.9-18-10.8c-4.9,0.1-8.9,2.3-11.9,6.1c-2.4,3.1-3.1,6.6-0.9,10c1.5,2.3,3.3,4.4,5.2,6.4c2.4,2.4,6.2,2.6,9,0.6
		c1.1-0.8,2.3-1.6,3.6-2.2c2.6-1.1,4.8-0.2,6.3,2.1c1.4,2.3,0.7,4.4-1.3,5.7c-2.1,1.4-4.4,2.5-6.7,3.5c-3,1.3-5.7,6.2-4.9,10
		c0.7,3.3,3.4,4.5,6.3,4.5c2.3,0,4.6-0.6,3.6-3.9c-0.8-2.7,0-4.6,2.8-5.4c2.9-0.8,6.4,0.7,6.9,3.3c0.3,1.6,0.2,3.7-0.5,5.2
		c-4.5,9.6-17.1,11.2-23.9,3c-3.5-4.1-2.8-9-1.5-13.6c0.8-2.9-0.2-3.8-2.1-5.6c-3.4-3-6.8-6.4-9-10.3c-4.6-8.1-1.8-17.6,6.7-23
		c3.8-2.4,8.6-3.5,12.9-5.1C517.2,711.4,517.3,711.7,517.5,712.1z"/>
	<path class="st1" d="M62.4,96.7C50.9,96.3,44,90.2,38.1,82.3c-1.4-1.9-1.8-4.1,0.5-5.7c2.5-1.7,4.2-0.3,5.8,1.8
		c4.6,6.2,10,11,18.3,10.8c4.8-0.2,8.6-2.4,11.5-6.1c2.4-3.1,3.2-6.7,0.9-10c-2.1-3-4.8-5.6-7.5-8.1c-1.6-1.5-3.6-1.4-5.5,0.2
		c-1.6,1.4-3.6,3-5.6,3.2c-1.7,0.2-4.1-0.9-5.4-2.2c-1.7-1.6-1.1-4,0.8-5.3c2.2-1.5,4.6-2.7,7-3.8c3.1-1.3,5.7-5.9,5-9.9
		c-0.5-3.2-3.1-4.3-5.9-4.6c-3.2-0.4-4.1,1.2-4,4.3c0.1,1.6-1.1,3.9-2.5,4.8c-2.3,1.4-6.2-0.3-7.1-2.7c-0.4-1.1-0.6-2.6-0.4-3.7
		C45,40.1,51.8,35,57.5,35c6,0,12.8,5.1,13.4,10.5c0.3,2.9,0.2,6-0.7,8.7s0,3.8,2.1,5.2c2.2,1.5,4.2,3.4,5.9,5.5
		c4.9,6,7.7,12.5,3.5,20.1C77.4,92.8,70.5,96.6,62.4,96.7z"/>
</g>
</svg>
