<?xml version="1.0" encoding="utf-8"?>
<!-- Generator: Adobe Illustrator 24.0.0, SVG Export Plug-In . SVG Version: 6.00 Build 0)  -->
<svg version="1.1" id="Layer_1" xmlns="http://www.w3.org/2000/svg" xmlns:xlink="http://www.w3.org/1999/xlink" x="0px" y="0px"
	 viewBox="0 0 578.6 809.5" style="enable-background:new 0 0 578.6 809.5;" xml:space="preserve">
<style type="text/css">
	.st0{fill:#FFFFFF;}
	.st1{fill:#070707;}
</style>
<g>
	<path class="st0" d="M0,770.5V39C0,17.5,17.5,0,39,0h500.6c21.5,0,39,17.5,39,39v731.5c0,21.5-17.5,39-39,39H39
		C17.5,809.5,0,792,0,770.5z M265.6,124.4c-3.9-0.5-7.2-0.7-10.4-1.2c-11.9-2.1-18.8,1.8-24.1,13.8c-5.5,12.3-3.5,22,5.3,29.3
		c13.2,10.9,25.5,10.3,40.4,1.9c2-1.1,3.9-2.2,5.9-3.3c0.9,0.8,0.9,0.8,1.8,1.6c-1.6,3.7-2.6,8-5,11c-3.7,4.5-8.5,7.9-12.6,12
		c-1.2,1.3-2.1,3.5-2,5.3c0.1,0.8,2.9,1.9,4.5,2c11,0.8,22,1.6,33.1,1.9c4,0.1,8.1-0.8,12-1.7c1.6-0.4,2.8-1.9,4.2-2.9
		c-1.2-1.3-2.2-2.9-3.6-3.9c-5.4-3.9-11.1-7.4-16.3-11.6c-4.2-3.4-7.6-7.6-5.5-14.4c1.2,0.7,2.2,1.1,2.9,1.7
		c8.7,7.3,18.9,10.1,30.1,10.2c6.9,0.1,12-2.7,15.8-8.3c6.7-9.7,7.6-28.1,0.6-37.5c-3.1-4.2-8.4-7.4-13.3-9.5
		c-3.8-1.6-8.7-0.9-13.3-1.2c0.4-2,0.9-3.9,1-5.7c0.6-9.4,1.2-19-5.5-26.8c-6.6-7.7-23.1-10.3-33.3-5.7
		c-10.6,4.8-16.8,15.6-15.4,27.4C263.6,113.8,264.7,118.7,265.6,124.4z M293.1,428c0.7,0,1.1-0.2,1.5,0c0.6,0.2,1.1,0.6,1.6,1
		c8.7,7.4,18.9,10.1,30.1,10.3c7.2,0.1,12.6-2.8,16.2-8.8c7.3-12.2,7-25,0.3-36.9c-2.4-4.3-8.2-7.4-13.1-9.5
		c-3.9-1.6-8.8-0.9-13.4-1.2c0.4-2.1,1-4.1,1.1-6.2c0.4-10,1.3-20.3-7.3-27.9c-7.9-6.9-23.7-8.3-33.1-3.3
		c-11.8,6.3-16.5,18.9-12.8,34c0.6,2.5,0.9,5,1.5,8.3c-3.7-0.4-6.4-0.6-9-1.1c-16.1-2.7-28.7,9.4-28.8,26
		c-0.1,14.4,20.6,29.2,35.7,24c6.6-2.3,12.9-5.2,19.4-7.8c0.7,0.6,0.7,0.7,1.4,1.3c-1.4,3.6-2.4,7.6-4.7,10.4
		c-3.6,4.5-8.5,7.9-12.6,12c-1.3,1.3-2.2,3.5-2.1,5.2c0,0.8,2.8,2,4.5,2.1c10.8,0.8,21.6,1.6,32.4,1.8c4.4,0.1,8.9-0.9,13.2-1.7
		c1.4-0.3,2.5-1.8,3.7-2.7c-1-1.2-1.7-2.7-2.9-3.6c-5.6-4-11.4-7.7-16.8-11.9C294.6,438.4,291.2,434.2,293.1,428z M294.7,644.6
		c-0.9-0.8-0.9-0.8-1.8-1.6c1.6-3.7,2.6-8,5-11c3.6-4.5,8.5-7.9,12.6-12c1.3-1.3,2.2-3.5,2-5.3c-0.1-0.8-2.9-1.9-4.5-2
		c-11-0.8-22-1.6-33.1-1.9c-4-0.1-8.1,0.8-12,1.7c-1.6,0.4-2.8,1.9-4.3,2.9c1.2,1.3,2.2,2.9,3.6,3.9c5.4,3.9,11.1,7.4,16.3,11.6
		c4.2,3.4,7.6,7.6,5.5,14.4c-1.2-0.7-2.2-1.1-2.9-1.7c-8.7-7.3-18.9-10.1-30.1-10.2c-6.9-0.1-12,2.7-15.8,8.3
		c-6.7,9.7-7.6,28.1-0.6,37.5c3.1,4.2,8.4,7.4,13.3,9.5c3.8,1.6,8.7,0.9,13.3,1.2c-0.4,2-0.9,3.9-1,5.7c-0.6,9.4-1.2,19,5.5,26.8
		c6.6,7.7,23.1,10.3,33.3,5.7c10.6-4.8,16.8-15.6,15.4-27.4c-0.6-4.9-1.6-9.7-2.6-15.5c4,0.5,7.2,0.7,10.4,1.2
		c11.8,2.1,18.8-1.9,24.1-13.8c5.7-12.6,3.4-22.6-6-29.9c-10.9-8.4-26-9.1-38-2.3C299.7,641.8,297.2,643.2,294.7,644.6z M44.5,156.9
		c-3.3-0.5-6-1.3-8.6-1.1c-3.2,0.2-7,0.3-9.5,2c-11.6,7.5-11.4,23-0.3,31c8.4,6.1,16.8,4.9,25.3,0.6c1.9-0.9,3.7-1.9,5.5-2.9
		c0.7,0.7,0.7,0.7,1.5,1.4c-1.1,2.5-1.9,5.3-3.6,7.3c-2.5,3-5.8,5.4-8.5,8.2c-1,1.1-1.4,2.7-2.1,4.1c1.4,0.5,2.8,1.5,4.3,1.6
		c8.1,0.7,16.2,1.4,24.3,1.5c3.4,0,6.8-1.3,10.3-2.1c0.2-1.1,0.2-1.2,0.4-2.3c-2.7-1.8-5.5-3.5-8.1-5.4c-2.5-1.8-5.4-3.5-7.3-5.8
		c-1.8-2.2-2.7-5.2-3.8-7.5c8.1,2.4,15.2,5.3,22.6,6.5c7.8,1.2,12.4-2.4,15.4-9.9c6.7-16.6-2.2-30.3-20-30.9
		c-0.5-22.9-5.6-30.1-20.8-29.1C47.1,125.2,42.3,134.1,44.5,156.9z M495.2,655.8c-2.2,23.9,4.9,28.2,18.4,29.2
		c4.8,0.3,10.7-2.1,14.7-5.2c9-7,6.3-17.1,4.1-27.2c3.3,0.4,5.7,0.6,8.1,1.1c6.8,1.2,11.9-1.2,15.3-7.2c3.8-6.6,6-13.5,1.1-20.6
		c-4.8-7-14.5-11-22.6-8.8c-4.9,1.3-9.5,3.6-16.1,6.2c1.9-4.1,2.6-7.1,4.4-9.3c2.5-3,5.8-5.3,8.6-8.1c0.9-0.9,1.9-2.5,1.7-3.6
		c-0.1-0.8-2.1-1.8-3.3-1.9c-8.5-0.7-17.1-1.4-25.6-1.5c-3.4,0-6.8,1.4-11.2,2.4c6.8,8.3,19,9.8,19.8,20.4c-8.2-2.2-15.9-5-24-6
		c-3.4-0.4-8.3,2.1-10.6,4.8c-6.7,8-6.3,17.5-2.3,26.6C479.5,654.9,486.7,656.7,495.2,655.8z M62.7,54.3c8.9-0.9,11.1,1.1,10.3,7.7
		c-0.5,4.7-4.3,4.1-7,5.7c-2.3,1.4-3.8,4.1-5.6,6.2c2.8,1.3,5.4,2.9,8.3,3.7c1.3,0.4,3-1.2,4.6-1.5c1.4-0.2,4.1-0.2,4.3,0.4
		c1.5,4.2,3.9,8.8,3.1,12.7c-0.6,2.7-6.1,6.8-8.7,6.3c-5.5-0.9-11.3-3.5-15.8-7c-2.7-2.1-4.4-3.7-7.2-1.5c-3,2.4-2.3,5.5,0.5,7.4
		c4.5,3,9.1,5.9,14.1,7.8c8.4,3.3,19.3-0.5,23.8-7.5C91,89,89.1,76.6,83.1,71c-2.6-2.4-3.2-4.5-2.7-8.1c1.7-11.2-3.7-17.3-15-16.9
		c-3.3,0.1-8.4,1.8-9.4,4.1c-1.5,3.3-0.2,8,0.6,11.9c0.2,1,3.1,2.4,4.4,2.1c1.2-0.3,2.3-2.6,2.6-4.2C63.8,58.4,63.1,56.5,62.7,54.3z
		 M514.7,755.1c-9.1,1.3-12.8-2.2-9.7-9c0.9-2,4.7-2.6,6.7-4.3s3.6-3.9,5.3-5.9c-2.5-1.4-4.8-3.3-7.5-4.1c-1.5-0.4-3.5,1.2-5.3,1.4
		c-1.6,0.2-4.5,0.1-4.7-0.6c-1.4-4.2-3.7-8.9-2.8-12.8c0.6-2.7,6.3-6.5,9-6c5.5,1,10.5,4.6,15.8,7c2.1,0.9,5,2.3,6.5,1.5
		c3.3-1.8,2.8-5.2,0-7.2c-4.2-3-8.7-5.6-13.4-7.8c-9.1-4.2-16.9-0.9-23.2,5.7c-5.7,6-4.4,14-0.6,19.8c4.3,6.6,6.3,12.9,6.5,20.7
		c0.2,7.5,10.4,11.9,19.4,9.4c5.9-1.6,7.9-7.2,4.7-14.4c-0.7-1.7-3.1-2.6-4.8-3.8c-0.9,1.8-2.1,3.6-2.6,5.5
		C513.6,751.6,514.3,753.2,514.7,755.1z"/>
	<path class="st1" d="M265.6,124.4c-1-5.7-2-10.6-2.6-15.5c-1.4-11.9,4.7-22.6,15.4-27.4c10.2-4.6,26.6-2,33.3,5.7
		c6.7,7.8,6.1,17.4,5.5,26.8c-0.1,1.8-0.7,3.7-1,5.7c4.6,0.3,9.5-0.5,13.3,1.2c4.9,2.1,10.2,5.3,13.3,9.5c7,9.4,6,27.8-0.6,37.5
		c-3.8,5.6-8.9,8.4-15.8,8.3c-11.2-0.1-21.4-2.9-30.1-10.2c-0.7-0.6-1.6-1-2.9-1.7c-2.1,6.8,1.3,11,5.5,14.4
		c5.2,4.2,10.9,7.7,16.3,11.6c1.4,1,2.4,2.6,3.6,3.9c-1.4,1-2.7,2.6-4.2,2.9c-3.9,0.9-8,1.8-12,1.7c-11-0.3-22-1.1-33.1-1.9
		c-1.6-0.1-4.4-1.2-4.5-2c-0.1-1.7,0.8-4,2-5.3c4.1-4.1,9-7.6,12.6-12c2.5-3,3.4-7.3,5-11c-0.9-0.8-0.9-0.8-1.8-1.6
		c-2,1.1-3.9,2.2-5.9,3.3c-14.9,8.4-27.2,9-40.4-1.9c-8.8-7.3-10.8-17.1-5.3-29.3c5.4-11.9,12.3-15.8,24.1-13.8
		C258.4,123.7,261.7,124,265.6,124.4z"/>
	<path class="st1" d="M293.1,428c-1.9,6.2,1.5,10.4,5.8,13.8c5.4,4.3,11.3,7.9,16.8,11.9c1.2,0.9,2,2.4,2.9,3.6
		c-1.2,1-2.4,2.5-3.7,2.7c-4.4,0.9-8.8,1.9-13.2,1.7c-10.8-0.3-21.6-1.1-32.4-1.8c-1.6-0.1-4.4-1.3-4.5-2.1c-0.1-1.7,0.9-4,2.1-5.2
		c4.1-4.1,9-7.6,12.6-12c2.3-2.9,3.3-6.9,4.7-10.4c-0.7-0.6-0.7-0.7-1.4-1.3c-6.5,2.6-12.8,5.6-19.4,7.8c-15.1,5.2-35.8-9.6-35.7-24
		c0.1-16.6,12.7-28.8,28.8-26c2.6,0.4,5.3,0.6,9,1.1c-0.6-3.3-0.9-5.8-1.5-8.3c-3.7-15,1-27.7,12.8-34c9.4-5,25.2-3.7,33.1,3.3
		c8.6,7.6,7.7,17.9,7.3,27.9c-0.1,2.1-0.7,4.1-1.1,6.2c4.6,0.3,9.5-0.4,13.4,1.2c4.9,2.1,10.7,5.2,13.1,9.5
		c6.7,12,6.9,24.8-0.3,36.9c-3.6,6-9,8.9-16.2,8.8c-11.2-0.2-21.4-2.9-30.1-10.3c-0.5-0.4-1-0.8-1.6-1
		C294.2,427.8,293.8,428,293.1,428z"/>
	<path class="st1" d="M294.7,644.6c2.5-1.4,5-2.8,7.5-4.2c12-6.8,27.1-6.2,38,2.3c9.5,7.3,11.7,17.3,6,29.9
		c-5.4,11.9-12.3,15.8-24.1,13.8c-3.2-0.6-6.4-0.8-10.4-1.2c1,5.7,2,10.6,2.6,15.5c1.4,11.9-4.7,22.6-15.4,27.4
		c-10.2,4.6-26.6,2-33.3-5.7c-6.7-7.8-6.1-17.4-5.5-26.8c0.1-1.8,0.7-3.7,1-5.7c-4.6-0.3-9.5,0.5-13.3-1.2
		c-4.9-2.1-10.2-5.3-13.3-9.5c-7-9.4-6-27.8,0.6-37.5c3.8-5.6,8.9-8.4,15.8-8.3c11.2,0.2,21.4,2.9,30.1,10.2c0.7,0.6,1.6,1,2.9,1.7
		c2.1-6.8-1.3-11-5.5-14.4c-5.2-4.2-10.9-7.7-16.3-11.6c-1.4-1-2.4-2.6-3.6-3.9c1.4-1,2.7-2.6,4.3-2.9c3.9-0.9,8-1.8,12-1.7
		c11,0.3,22,1.1,33.1,1.9c1.6,0.1,4.4,1.2,4.5,2c0.1,1.7-0.8,4-2,5.3c-4.1,4.1-9,7.6-12.6,12c-2.5,3-3.4,7.3-5,11
		C293.7,643.8,293.7,643.7,294.7,644.6z"/>
	<path class="st1" d="M44.5,156.9c-2.2-22.9,2.6-31.8,17.1-32.7c15.2-1,20.3,6.1,20.8,29.1c17.8,0.6,26.6,14.2,20,30.9
		c-3,7.4-7.6,11.1-15.4,9.9c-7.4-1.2-14.5-4.1-22.6-6.5c1.1,2.3,2,5.3,3.8,7.5c1.9,2.4,4.8,4,7.3,5.8c2.6,1.9,5.4,3.6,8.1,5.4
		c-0.2,1.1-0.2,1.2-0.4,2.3c-3.4,0.8-6.9,2.1-10.3,2.1c-8.1-0.1-16.2-0.9-24.3-1.5c-1.5-0.1-2.8-1-4.3-1.6c0.7-1.4,1.1-3,2.1-4.1
		c2.7-2.8,6-5.2,8.5-8.2c1.7-2,2.4-4.9,3.6-7.3c-0.7-0.7-0.7-0.7-1.5-1.4c-1.8,1-3.7,2-5.5,2.9c-8.5,4.2-16.9,5.4-25.3-0.6
		c-11.1-8-11.2-23.4,0.3-31c2.5-1.7,6.3-1.8,9.5-2C38.5,155.7,41.2,156.5,44.5,156.9z"/>
	<path class="st1" d="M495.2,655.8c-8.5,0.9-15.8-0.9-19.3-8.8c-4.1-9-4.4-18.6,2.3-26.6c2.3-2.8,7.3-5.3,10.6-4.8
		c8,1,15.8,3.9,24,6c-0.8-10.6-13-12.1-19.8-20.4c4.4-1,7.8-2.5,11.2-2.4c8.5,0.1,17.1,0.8,25.6,1.5c1.2,0.1,3.1,1.1,3.3,1.9
		c0.2,1.1-0.8,2.7-1.7,3.6c-2.8,2.8-6.1,5.1-8.6,8.1c-1.8,2.2-2.6,5.2-4.4,9.3c6.6-2.6,11.2-4.9,16.1-6.2c8.1-2.2,17.7,1.8,22.6,8.8
		c4.9,7.1,2.6,13.9-1.1,20.6c-3.4,5.9-8.5,8.4-15.3,7.2c-2.4-0.4-4.8-0.6-8.1-1.1c2.2,10.1,4.9,20.2-4.1,27.2
		c-4,3.1-9.9,5.5-14.7,5.2C500.1,684,493,679.7,495.2,655.8z"/>
	<path class="st1" d="M62.7,54.3c0.4,2.2,1.1,4.1,0.9,5.8c-0.3,1.6-1.4,3.9-2.6,4.2c-1.2,0.3-4.2-1.1-4.4-2.1
		c-0.8-3.9-2-8.6-0.6-11.9c1.1-2.4,6.1-4,9.4-4.1c11.3-0.5,16.7,5.6,15,16.9c-0.5,3.5,0.1,5.6,2.7,8.1c5.9,5.7,7.9,18.1,4.3,23.7
		c-4.5,7-15.5,10.8-23.8,7.5c-5-2-9.6-4.9-14.1-7.8c-2.8-1.9-3.5-5-0.5-7.4c2.8-2.2,4.4-0.6,7.2,1.5c4.5,3.5,10.2,6.1,15.8,7
		c2.7,0.4,8.2-3.6,8.7-6.3c0.8-3.9-1.7-8.6-3.1-12.7c-0.2-0.6-2.8-0.6-4.3-0.4c-1.6,0.2-3.3,1.8-4.6,1.5c-2.9-0.8-5.6-2.4-8.3-3.7
		c1.8-2.1,3.3-4.9,5.6-6.2c2.7-1.6,6.5-1,7-5.7C73.7,55.4,71.6,53.4,62.7,54.3z"/>
	<path class="st1" d="M514.7,755.1c-0.3-1.9-1.1-3.4-0.7-4.7c0.5-1.9,1.7-3.7,2.6-5.5c1.6,1.3,4,2.2,4.8,3.8
		c3.2,7.2,1.1,12.8-4.7,14.4c-9,2.5-19.2-1.9-19.4-9.4c-0.2-7.8-2.1-14.1-6.5-20.7c-3.8-5.8-5.1-13.8,0.6-19.8
		c6.3-6.6,14.2-9.9,23.2-5.7c4.7,2.1,9.2,4.8,13.4,7.8c2.8,2,3.3,5.4,0,7.2c-1.5,0.8-4.4-0.6-6.5-1.5c-5.3-2.3-10.3-6-15.8-7
		c-2.7-0.5-8.3,3.3-9,6c-0.9,3.9,1.4,8.6,2.8,12.8c0.2,0.7,3.1,0.7,4.7,0.6c1.8-0.2,3.8-1.8,5.3-1.4c2.7,0.8,5,2.6,7.5,4.1
		c-1.7,2-3.3,4.3-5.3,5.9c-2.1,1.7-5.8,2.3-6.7,4.3C501.9,752.9,505.6,756.3,514.7,755.1z"/>
</g>
</svg>
