<?xml version="1.0" encoding="utf-8"?>
<!-- Generator: Adobe Illustrator 24.0.0, SVG Export Plug-In . SVG Version: 6.00 Build 0)  -->
<svg version="1.1" id="Layer_1" xmlns="http://www.w3.org/2000/svg" xmlns:xlink="http://www.w3.org/1999/xlink" x="0px" y="0px"
	 viewBox="0 0 578.6 809.5" style="enable-background:new 0 0 578.6 809.5;" xml:space="preserve">
<style type="text/css">
	.st0{fill:#FEFDFD;}
	.st1{fill:#FE2323;}
</style>
<g>
	<path class="st0" d="M539.6,809.5H39c-21.5,0-39-17.5-39-39V39C0,17.5,17.5,0,39,0h500.6c21.5,0,39,17.5,39,39v731.5
		C578.6,792,561.1,809.5,539.6,809.5z M235.2,704.7c0,11.8,5.4,20.5,15.1,24.4c9.3,3.7,18,1.2,26.3-7.5c1.6-1.7,3-3.4,4.5-5.2
		c5-6.4,5-6.4,9.9,0.3c8.4,11.5,20.8,14.4,30,6.2c9.7-8.7,15.7-19.7,10.8-32.9c-3.1-8.4-8.1-16.4-13.6-23.6
		c-9.3-12-19.8-23.2-23.2-38.7c-0.2-0.8-0.5-1.7-1.1-2.2c-1-0.8-2.4-2-3.5-1.9c-1,0.1-2.3,1.7-2.6,2.8
		c-3.5,14.3-11.5,26.2-21.1,36.9c-7.4,8.2-16,15.2-23.8,23C238,691.3,235,697.4,235.2,704.7z M291.1,100.4c-2-2.7-3.5-4.6-4.9-6.5
		c-8.6-11.4-21-14.1-30.1-5.7c-9.5,8.8-15.6,19.8-10.4,33c3.3,8.4,8.1,16.4,13.7,23.5c9.4,12,19.7,23.3,23.1,38.8
		c0.1,0.6,0.3,1.4,0.8,1.7c1.2,0.9,2.6,2,4,2c0.8,0,1.9-1.9,2.3-3.1c0.7-1.9,0.5-4.2,1.3-6c8.3-17.3,19.2-32.6,34.3-44.8
		c5.3-4.2,9.9-9.6,13.8-15.2c7.4-10.5,2.2-32.8-12.7-37c-9.2-2.6-18.5,0-26.6,9.2C296.9,93.4,294.3,96.5,291.1,100.4z M285.5,376.3
		c-1.9-2.7-3.2-4.7-4.6-6.7c-9.5-13.2-23.8-13.8-33.9-1.4c-10.8,13.2-10.6,28.1,0.9,43.5c11.2,14.9,25.6,27.7,29.6,47.1
		c0,0.2,0.1,0.4,0.3,0.6c1.1,0.8,2.6,2.5,3.2,2.2c1.2-0.5,2.3-2,2.9-3.4c0.8-1.9,0.7-4.1,1.5-5.9c8.3-17.3,19.4-32.4,34.6-44.4
		c4.8-3.8,9-8.7,12.6-13.7c6.5-9.2,3.9-25.6-4.6-32.7c-9.3-7.8-21.4-7.1-31,2C293.2,367.1,289.9,371.4,285.5,376.3z M519.2,670.6
		c2.2,2.6,3.7,4.5,5.4,6.3c7.8,8.5,17.1,8.3,24.6-0.6c7.8-9.3,8.5-20.1,1.7-30.6c-8.5-13.2-21.6-23.5-25.2-39.8
		c-0.2-0.9-1.8-2-2.7-1.9c-0.9,0-2.1,1.3-2.4,2.3c-4.8,16-15,28-27.4,38.6c-3.8,3.2-7.3,6.9-10.1,11c-5.1,7.4-2.6,20.8,4.4,26.2
		c7.2,5.6,17,4.4,24.2-3C514,676.5,516.3,673.8,519.2,670.6z M58,140.6c-1.8-2.4-3-4-4.3-5.6c-8.1-9.9-18.5-9.7-26.2,0.5
		c-7.7,10.1-7.5,20.5,0.9,32.3c8.5,11.8,19.9,21.6,23.2,36.7c0.2,1,1.9,2,3.1,2.3c0.6,0.1,1.9-1.4,2.2-2.4
		c4.3-14.2,12.6-25.6,23.7-35.3c4.8-4.2,9.6-8.7,13.4-13.9c5.6-7.6,3.3-20.3-3.9-26.1c-7-5.7-17-4.6-24.2,2.7
		C63.3,134.4,61,137.3,58,140.6z M518.1,707.9c-12.3-0.1-21.1,5.7-24.8,14.5c-4,9.5,0.3,17,7,22.8c4.9,4.3,7.1,8,5.5,14.5
		c-1.5,6.2,1.7,10.8,7.4,13.7c5.8,3,11.5,2.9,16.2-1.5c2.5-2.4,4.5-6,5.2-9.3c0.3-1.4-3.1-4.4-5.4-5.2c-1.1-0.4-4.8,3-4.8,4.5
		c0.2,3.9-1.1,6.3-4.5,5.3c-2.6-0.8-6-3.7-6.3-6c-0.6-4.6,0.9-9.2,6.7-10.4c1.6-0.3,3.6-1,4.3-2.2c1.3-2.2,1.7-4.9,2.6-7.3
		c-2.6-0.5-5.3-1.7-7.7-1.3c-2.9,0.5-6.9,4.2-8,3.3c-4.4-3.4-8.9-7.5-11.3-12.4s1.7-9.1,5.8-11.9c5.8-3.9,12.3-4.7,18.2-0.7
		c4.1,2.7,7.2,6.7,11.1,9.7c1.5,1.1,3.9,1,5.9,1.5c0.1-1.9,1.1-4.3,0.3-5.5C535.2,714.8,527.2,708.2,518.1,707.9z M60.6,102.9
		c11.4-0.1,20.1-6,23.6-14.9c3.8-9.6-0.7-16.9-7.3-22.7c-4.6-4.1-6.9-7.4-5.4-13.9c1.6-7.2-1.4-11.2-8.1-14.5
		c-5.8-2.8-12.3-2-16.6,2.8c-2.1,2.3-3.9,5.7-4,8.6c-0.1,1.7,3.3,4.3,5.5,5c1.1,0.4,4.9-2.7,4.8-3.9c-0.5-4.3,0.5-6.7,5.1-6
		c4.3,0.7,6.5,3.2,5.8,8c-0.7,5-3.3,7.5-8.1,9.1c-2.6,0.9-4.7,3.8-6.3,6.2c-0.5,0.7,1.5,4.3,2.3,4.3c2.9,0,5.8-0.9,8.6-1.7
		c1.9-0.5,4.8-2.6,5.3-2c4.2,4,9.4,8,11.3,13.2c1,2.8-3,8.8-6.3,11.5c-4.9,4-11.4,4.4-17,0.9c-4.1-2.6-7.4-6.6-11.3-9.6
		c-1.7-1.2-4.1-1.4-6.2-2.1c-0.1,2-1.1,4.7-0.2,6C42.4,96.2,50.4,102.8,60.6,102.9z"/>
	<path class="st1" d="M235.2,704.7c-0.2-7.3,2.9-13.5,7.9-18.5c7.8-7.8,16.5-14.8,23.8-23c9.6-10.7,17.5-22.6,21.1-36.9
		c0.3-1.1,1.6-2.7,2.6-2.8c1.1-0.2,2.4,1,3.5,1.9c0.6,0.5,0.9,1.4,1.1,2.2c3.3,15.6,13.8,26.7,23.2,38.7
		c5.5,7.1,10.4,15.2,13.6,23.6c4.9,13.2-1.1,24.2-10.8,32.9c-9.2,8.3-21.6,5.4-30-6.2c-4.9-6.7-4.9-6.7-9.9-0.3
		c-1.4,1.8-2.9,3.6-4.5,5.2c-8.3,8.7-17.1,11.2-26.3,7.5C240.6,725.3,235.2,716.5,235.2,704.7z"/>
	<path class="st1" d="M291.1,100.4c3.2-3.8,5.8-7,8.5-10c8.1-9.2,17.4-11.8,26.6-9.2c14.9,4.2,20,26.5,12.7,37
		c-3.9,5.6-8.5,10.9-13.8,15.2c-15.1,12.2-26,27.5-34.3,44.8c-0.9,1.8-0.7,4.1-1.3,6c-0.4,1.2-1.5,3.1-2.3,3.1c-1.3,0-2.7-1.2-4-2
		c-0.4-0.3-0.6-1.1-0.8-1.7c-3.4-15.5-13.7-26.8-23.1-38.8c-5.6-7.1-10.4-15.2-13.7-23.5c-5.2-13.2,0.9-24.2,10.4-33
		c9.1-8.4,21.6-5.7,30.1,5.7C287.6,95.7,289.1,97.7,291.1,100.4z"/>
	<path class="st1" d="M285.5,376.3c4.3-4.9,7.7-9.2,11.5-12.9c9.6-9.1,21.7-9.8,31-2c8.4,7,11,23.4,4.6,32.7
		c-3.5,5.1-7.7,9.9-12.6,13.7c-15.2,12-26.3,27.1-34.6,44.4c-0.9,1.8-0.7,4.1-1.5,5.9c-0.6,1.3-1.7,2.8-2.9,3.4
		c-0.7,0.3-2.1-1.4-3.2-2.2c-0.1-0.1-0.2-0.4-0.3-0.6c-4-19.4-18.5-32.2-29.6-47.1c-11.5-15.3-11.7-30.2-0.9-43.5
		c10.1-12.4,24.4-11.8,33.9,1.4C282.3,371.6,283.7,373.6,285.5,376.3z"/>
	<path class="st1" d="M519.2,670.6c-2.9,3.2-5.2,5.9-7.6,8.4c-7.3,7.4-17,8.6-24.2,3c-6.9-5.4-9.5-18.8-4.4-26.2
		c2.8-4.1,6.3-7.8,10.1-11c12.5-10.6,22.6-22.7,27.4-38.6c0.3-1,1.5-2.2,2.4-2.3c0.9,0,2.5,1.1,2.7,1.9
		c3.7,16.3,16.7,26.6,25.2,39.8c6.8,10.5,6.1,21.2-1.7,30.6c-7.4,8.9-16.8,9.1-24.6,0.6C522.9,675.1,521.4,673.2,519.2,670.6z"/>
	<path class="st1" d="M58,140.6c2.9-3.3,5.3-6.3,7.9-8.9c7.2-7.3,17.2-8.4,24.2-2.7c7.2,5.8,9.5,18.5,3.9,26.1
		c-3.8,5.1-8.6,9.6-13.4,13.9c-11.1,9.7-19.3,21.1-23.7,35.3c-0.3,1-1.6,2.5-2.2,2.4c-1.2-0.3-2.9-1.3-3.1-2.3
		c-3.3-15.1-14.8-24.9-23.2-36.7c-8.4-11.7-8.6-22.1-0.9-32.3c7.7-10.1,18.1-10.3,26.2-0.5C55,136.6,56.2,138.3,58,140.6z"/>
	<path class="st1" d="M518.1,707.9c9.1,0.3,17.1,6.9,23.4,16c0.8,1.2-0.2,3.6-0.3,5.5c-2-0.5-4.4-0.3-5.9-1.5c-3.9-3-7.1-7-11.1-9.7
		c-6-4-12.5-3.2-18.2,0.7c-4.1,2.8-8.2,7-5.8,11.9c2.4,4.9,6.9,9,11.3,12.4c1.1,0.8,5.1-2.8,8-3.3c2.4-0.4,5.1,0.8,7.7,1.3
		c-0.8,2.5-1.3,5.1-2.6,7.3c-0.7,1.2-2.8,1.9-4.3,2.2c-5.8,1.2-7.3,5.8-6.7,10.4c0.3,2.3,3.7,5.3,6.3,6c3.5,1,4.7-1.4,4.5-5.3
		c-0.1-1.5,3.7-4.8,4.8-4.5c2.2,0.7,5.7,3.7,5.4,5.2c-0.7,3.4-2.7,7-5.2,9.3c-4.7,4.5-10.4,4.5-16.2,1.5c-5.6-2.9-8.9-7.5-7.4-13.7
		c1.6-6.5-0.6-10.3-5.5-14.5c-6.6-5.8-11-13.2-7-22.8C497,713.6,505.8,707.8,518.1,707.9z"/>
	<path class="st1" d="M60.6,102.9c-10.2-0.1-18.2-6.7-24.6-15.7c-0.9-1.3,0.1-3.9,0.2-6c2.1,0.7,4.6,0.8,6.2,2.1
		c3.9,3,7.2,6.9,11.3,9.6c5.6,3.6,12.2,3.2,17-0.9C74,89.3,78,83.3,77,80.5c-1.9-5.1-7.1-9.1-11.3-13.2c-0.6-0.6-3.4,1.5-5.3,2
		c-2.8,0.8-5.7,1.7-8.6,1.7c-0.8,0-2.8-3.7-2.3-4.3c1.6-2.4,3.8-5.3,6.3-6.2c4.8-1.6,7.3-4.1,8.1-9.1c0.7-4.7-1.4-7.3-5.8-8
		c-4.6-0.7-5.6,1.7-5.1,6c0.1,1.2-3.6,4.2-4.8,3.9c-2.3-0.7-5.6-3.3-5.5-5c0.1-2.9,2-6.3,4-8.6c4.4-4.8,10.8-5.6,16.6-2.8
		c6.7,3.2,9.7,7.2,8.1,14.5c-1.5,6.5,0.8,9.9,5.4,13.9C83.4,71.1,88,78.4,84.1,88C80.6,96.9,71.9,102.8,60.6,102.9z"/>
</g>
</svg>
