<?xml version="1.0" encoding="utf-8"?>
<!-- Generator: Adobe Illustrator 24.0.0, SVG Export Plug-In . SVG Version: 6.00 Build 0)  -->
<svg version="1.1" id="Layer_1" xmlns="http://www.w3.org/2000/svg" xmlns:xlink="http://www.w3.org/1999/xlink" x="0px" y="0px"
	 viewBox="0 0 578.6 809.5" style="enable-background:new 0 0 578.6 809.5;" xml:space="preserve">
<style type="text/css">
	.st0{fill:#FEFEFE;}
	.st1{fill:#010101;}
</style>
<g>
	<path class="st0" d="M0,770.5C0,526.7,0,282.9,0,39C0,17.5,17.5,0,39,0h500.6c21.5,0,39,17.5,39,39v731.5c0,21.5-17.5,39-39,39H39
		C17.5,809.5,0,792,0,770.5z M282.1,734.8c6.9,0.5,8.6-1.3,7.9-7.2c-0.4-3.2-1.7-7.3-0.3-9.7c7.1-12.2,15.3-22.9,30.9-25.6
		c17.9-3.2,29.7-17.6,32.2-35.3c2-14.4-16.6-36.7-37.4-31.9c-3.5,0.8-7.4,0.1-11.1,0c1.3-3.3,2.8-6.6,3.9-10c0.7-2,1.7-4.4,1-6
		c-0.5-1.2-3.4-2-5.2-2.1c-7.9-0.3-15.8-0.5-23.7-0.4c-2.7,0.1-5.3,1.4-7.9,2.2c0.9,2.8,1.8,5.5,2.7,8.3c0.5,1.5,0.9,2.9,1.4,4.4
		c-1.7,0.3-3.3,0.9-5,1c-1.2,0-2.4-0.8-3.6-1c-10.2-1.7-19.8-1.8-27.3,7.3c-9.8,11.8-10.8,25.1-7.7,39.3c1.5,7,5.8,11.6,12.2,14.9
		c7.7,4,15.8,7.8,22.3,13.4C278.9,706.1,283.9,719.2,282.1,734.8z M289.4,334.1c0,2.8,0,5.8,0,8.7c0,2.7,0.9,5.9-0.3,7.9
		c-7.1,11.9-14.8,22.7-30.2,25.5c-18.4,3.3-30.2,17-33.1,35.3c-2.1,13.4,15,36.6,37.3,32.2c3.6-0.7,7.4-0.3,11.1-0.3
		c-1.5,3.7-2.6,7.5-4.5,10.9c-2.4,4.4-1.2,7.4,3.9,7.5c8.9,0.3,17.9,0.4,26.9,0.3c2,0,5.2-1.2,5.6-2.5c0.6-1.9-0.6-4.5-1.4-6.8
		c-0.6-2-1.7-3.9-2.5-5.8c2.3-0.1,4.7-0.6,6.8-0.1c8.4,1.9,16.8,2.7,24.1-2.4c17.3-12,22.7-53.4-5.1-61.4c-2-0.6-3.8-1.7-5.6-2.7
		c-16.3-9-26.3-22.1-25.9-41.5C296.6,334.2,294.6,332.8,289.4,334.1z M293.5,184c0.4-0.5,0.3-0.5,0.7-1c5.6,2,11.1,4.6,16.9,6
		c12.4,3.1,21.6-1,28.5-11.7c13.5-21.3,6.6-43-16.6-54c-17.5-8.3-28-21.8-28.2-42c0-1.9-2-3.7-3.1-5.6c-1.1,2-2.9,3.8-3.2,5.9
		c-0.5,3.7,1.2,8.2-0.4,11c-6.8,12.1-14.5,23.1-30.2,25.6c-18,2.9-31.7,18.9-33.1,36.9c-0.2,2.3,0.1,4.6,0.8,6.8
		c6.1,18.4,25.2,27.8,43.6,21.8c1.8-0.6,3.7-0.8,7.5-1.5c-2.9,5.5-5,9-6.7,12.7c-0.9,1.9-1.9,4.4-1.3,6.1c0.4,1.2,3.3,2,5.2,2.1
		c7.7,0.3,15.4,0.6,23.1,0.4c2.6-0.1,5.2-1.6,7.7-2.4c-1.2-2.9-2-6-3.7-8.5C298.9,189.4,296,186.8,293.5,184z M517.4,606.5
		c0-0.1,0-0.2,0-0.2c-2.7,0-5.4,0-8.1,0c-3.9-0.1-5.8,1.5-4,5.4c2.3,5.1-0.2,5.3-4.2,4.7c-6.9-1.1-13.2-0.4-18.1,5.6
		c-10.4,12.7-6.9,30.6,7.6,37.9c1.1,0.6,2.3,1.1,3.4,1.7c10.5,5.9,17.3,14.2,17.6,26.9c0,1.5,1.3,3,1.9,4.6c0.9-1.5,2.5-3.1,2.6-4.7
		c0.6-12,7.9-21.1,19.8-23.7c9.7-2.1,16.4-6.9,20.4-16.4c6.2-15-2-28.6-18.4-29.2c-2.7-0.1-5.4,0.4-8.1,0.4c-3.2,0.1-4-1.3-2.7-4.3
		c3.6-8.4,3.6-8.4-5.8-8.6C519.9,606.5,518.6,606.5,517.4,606.5z M69,192.7c2.8,0.6,4.5,1,6.2,1.4c10.5,2.6,17.5-0.6,22.4-10.2
		c6.3-12.4,1-27.3-11.4-33.4c-12.1-6-20.2-14.6-20.2-29.1c0-1.3-1.4-2.5-2.2-3.8c-0.8,1.6-2.4,3.2-2.4,4.8
		c-0.5,11.6-7.9,20.7-19.2,23.6c-4,1-8.1,2.3-11.6,4.3c-13.5,8-15.4,25.8-4.3,36.6c5.6,5.4,12.4,5.3,19.3,4.7
		c1.8-0.2,3.5-0.5,6.9-1.1c-1.7,3.5-2.7,5.8-4,7.9c-2.2,3.7-1.2,5.5,2.9,5.7c3.5,0.2,7.1,0.2,10.6,0.2
		C74.3,204.6,74.3,204.6,69,192.7z M520.9,758.7c-3.7-0.8-7.5-0.5-9.1-2.3c-1.5-1.6-1.8-5.8-0.8-8c1-2.1,4.7-2.6,6.8-4.4
		c2-1.7,3.4-4,5.1-6c-2.5-1.3-4.9-3.1-7.6-3.8c-1.5-0.4-3.4,1.3-5.3,1.5c-1.4,0.2-4.1,0.2-4.3-0.5c-1.6-4.2-4.2-8.9-3.3-12.7
		c0.7-2.9,6.3-7.1,9.2-6.7c5.5,0.8,11.2,3.6,15.7,7c2.7,2,4.4,3.8,7.2,1.4c3-2.6,1.9-5.6-0.7-7.4c-4.1-2.8-8.4-5.5-13-7.4
		c-9.1-3.7-20.4-0.1-25,7.3c-3.6,5.9-1.1,17.9,4.6,24.4c1.5,1.7,2.5,4.6,2.3,6.8c-1.4,11.6,3.6,18,15.1,17.6
		c3.4-0.1,8.4-1.7,9.5-4.1c1.5-3.2,0.3-7.9-0.5-11.9c-0.2-1-3.1-2.5-4.3-2.1c-1.1,0.3-2.2,2.6-2.5,4.2
		C519.7,753.7,520.4,755.5,520.9,758.7z M56.8,53.3c8.8-2,12.6,1.2,9.8,8.4c-0.8,2-4.5,2.8-6.5,4.5c-2.1,1.8-3.7,4.2-5.6,6.3
		c2.7,1.3,5.4,3.1,8.3,3.8c1.5,0.4,3.4-1.4,5.2-1.7c1.2-0.2,3.5,0,3.7,0.6c1.5,4.2,4.2,8.9,3.3,12.7c-0.7,2.9-6.3,7-9.2,6.6
		c-5.5-0.8-11.1-3.7-15.7-7.1c-2.8-2.1-4.4-3.7-7.3-1.3c-3,2.5-2.2,5.5,0.5,7.4c4.1,2.8,8.4,5.6,12.9,7.5c9.1,3.8,20.2,0.5,25.1-6.9
		c3.9-5.8,1.4-18.5-4.5-24.9c-1.5-1.6-2.4-4.6-2.1-6.8c1.4-11.5-3.6-17.7-15.1-17.8c-10.1-0.1-14.4,7.1-9.4,16
		c0.8,1.4,3.2,2.4,4.9,2.5c0.8,0,2.1-2.7,2.3-4.3C57.8,56.9,57.1,55.1,56.8,53.3z"/>
	<path class="st1" d="M282.1,734.8c1.7-15.6-3.3-28.6-14.6-38.4c-6.5-5.6-14.6-9.3-22.3-13.4c-6.3-3.3-10.6-8-12.2-14.9
		c-3.1-14.2-2.1-27.4,7.7-39.3c7.5-9.1,17.1-9,27.3-7.3c1.2,0.2,2.4,1,3.6,1c1.7,0,3.3-0.6,5-1c-0.5-1.5-0.9-2.9-1.4-4.4
		c-0.9-2.8-1.8-5.5-2.7-8.3c2.6-0.8,5.3-2.2,7.9-2.2c7.9-0.2,15.8,0,23.7,0.4c1.9,0.1,4.7,0.8,5.2,2.1c0.7,1.6-0.3,4.1-1,6
		c-1.2,3.4-2.6,6.7-3.9,10c3.7,0,7.6,0.8,11.1,0c20.9-4.8,39.5,17.5,37.4,31.9c-2.5,17.7-14.4,32.1-32.2,35.3
		c-15.6,2.8-23.8,13.5-30.9,25.6c-1.4,2.4-0.1,6.4,0.3,9.7C290.7,733.5,289.1,735.3,282.1,734.8z M277.6,621.7
		c-0.3,0.1-0.5,0.3-0.8,0.4c0.1,0.1,0.3,0.4,0.4,0.4c0.3-0.1,0.6-0.3,0.8-0.4C277.9,622,277.8,621.8,277.6,621.7z"/>
	<path class="st1" d="M289.4,334.1c5.3-1.3,7.2,0.1,7.1,4.7c-0.4,19.4,9.5,32.5,25.9,41.5c1.8,1,3.6,2.2,5.6,2.7
		c27.8,8.1,22.4,49.5,5.1,61.4c-7.3,5.1-15.7,4.3-24.1,2.4c-2.2-0.5-4.5,0.1-6.8,0.1c0.9,1.9,1.9,3.8,2.5,5.8c0.7,2.2,2,4.8,1.4,6.8
		c-0.4,1.3-3.6,2.4-5.6,2.5c-8.9,0.2-17.9,0-26.9-0.3c-5.1-0.2-6.3-3.2-3.9-7.5c1.9-3.4,3-7.3,4.5-10.9c-3.7,0.1-7.5-0.4-11.1,0.3
		c-22.3,4.4-39.4-18.8-37.3-32.2c2.9-18.2,14.7-31.9,33.1-35.3c15.4-2.8,23.2-13.6,30.2-25.5c1.2-2,0.3-5.3,0.3-7.9
		C289.4,339.9,289.4,336.9,289.4,334.1z M301.7,446.9c-0.1-0.3-0.3-0.5-0.4-0.8c-0.1,0.1-0.4,0.3-0.4,0.4c0.1,0.3,0.3,0.6,0.4,0.8
		C301.4,447.2,301.5,447,301.7,446.9z"/>
	<path class="st1" d="M293.3,183.8c2.6,2.9,5.5,5.5,7.7,8.7c1.7,2.5,2.5,5.7,3.7,8.5c-2.6,0.9-5.1,2.4-7.7,2.4
		c-7.7,0.2-15.4,0-23.1-0.4c-1.8-0.1-4.8-0.9-5.2-2.1c-0.6-1.7,0.5-4.2,1.3-6.1c1.7-3.7,3.8-7.3,6.7-12.7c-3.8,0.8-5.7,0.9-7.5,1.5
		c-18.2,6-37.1-3.2-43.4-21.3c-0.8-2.3-1.2-4.9-1-7.3c1.4-18,15.1-34,33.1-36.9c15.6-2.5,23.4-13.5,30.2-25.6
		c1.6-2.8-0.1-7.4,0.4-11c0.3-2.1,2.1-3.9,3.2-5.9c1.1,1.9,3.1,3.7,3.1,5.6c0.3,20.2,10.7,33.7,28.2,42c23.2,11,30.1,32.7,16.6,54
		c-6.8,10.7-16.1,14.8-28.5,11.7c-5.8-1.4-11.3-4-16.9-6C293.9,183.3,293.6,183.5,293.3,183.8z"/>
	<path class="st1" d="M517.4,606.5c1.3,0,2.5,0,3.8,0c9.3,0.2,9.4,0.2,5.8,8.6c-1.3,3-0.4,4.4,2.7,4.3c2.7-0.1,5.4-0.6,8.1-0.4
		c16.5,0.6,24.6,14.2,18.4,29.2c-3.9,9.6-10.7,14.3-20.4,16.4c-12,2.6-19.3,11.7-19.8,23.7c-0.1,1.6-1.7,3.1-2.6,4.7
		c-0.7-1.5-1.9-3-1.9-4.6c-0.3-12.7-7-21-17.6-26.9c-1.1-0.6-2.2-1.1-3.4-1.7c-14.5-7.3-18-25.3-7.6-37.9c4.9-6,11.2-6.7,18.1-5.6
		c4,0.7,6.5,0.4,4.2-4.7c-1.7-3.8,0.2-5.4,4-5.4c2.7,0.1,5.4,0,8.1,0C517.4,606.3,517.4,606.4,517.4,606.5z M506.9,616.3
		c0.2-0.2,0.3-0.3,0.4-0.4c-0.3-0.1-0.5-0.3-0.8-0.4c-0.1,0-0.3,0.3-0.4,0.4C506.4,616,506.6,616.2,506.9,616.3z"/>
	<path class="st1" d="M69,192.7c5.4,11.9,5.4,11.9-6.9,11.6c-3.5-0.1-7.1-0.1-10.6-0.2c-4.2-0.2-5.1-2-2.9-5.7
		c1.3-2.1,2.2-4.5,4-7.9c-3.4,0.5-5.1,0.9-6.9,1.1c-7,0.6-13.8,0.7-19.3-4.7c-11.2-10.8-9.3-28.5,4.3-36.6c3.5-2.1,7.6-3.3,11.6-4.3
		c11.3-2.9,18.7-12,19.2-23.6c0.1-1.6,1.6-3.2,2.4-4.8c0.8,1.3,2.2,2.5,2.2,3.8c0,14.7,8.3,23.3,20.6,29.3
		c13.6,6.6,17.8,20.1,10.9,33.5c-4.9,9.4-11.9,12.6-22.3,10C73.5,193.7,71.8,193.4,69,192.7z"/>
	<path class="st1" d="M520.9,758.7c-0.5-3.2-1.2-5.1-1-6.8c0.3-1.6,1.4-3.9,2.5-4.2c1.3-0.3,4.2,1.1,4.3,2.1c0.7,3.9,2,8.6,0.5,11.9
		c-1.1,2.4-6.2,3.9-9.5,4.1c-11.5,0.4-16.5-6-15.1-17.6c0.3-2.2-0.8-5.2-2.3-6.8c-5.7-6.5-8.3-18.5-4.6-24.4c4.6-7.5,15.8-11,25-7.3
		c4.6,1.9,8.9,4.5,13,7.4c2.7,1.8,3.8,4.8,0.7,7.4c-2.8,2.4-4.5,0.7-7.2-1.4c-4.6-3.4-10.2-6.3-15.7-7c-2.9-0.4-8.5,3.7-9.2,6.7
		c-0.9,3.8,1.8,8.5,3.3,12.7c0.2,0.6,2.9,0.7,4.3,0.5c1.8-0.3,3.8-1.9,5.3-1.5c2.7,0.7,5.1,2.5,7.6,3.8c-1.7,2-3.1,4.4-5.1,6
		c-2.1,1.7-5.8,2.3-6.8,4.4c-1.1,2.1-0.7,6.4,0.8,8C513.5,758.2,517.2,757.9,520.9,758.7z"/>
	<path class="st1" d="M56.8,53.3c0.3,1.8,1.1,3.6,0.8,5.3c-0.2,1.6-1.5,4.3-2.3,4.3c-1.7,0-4.1-1.1-4.9-2.5c-5-8.9-0.7-16.1,9.4-16
		c11.5,0.1,16.6,6.3,15.1,17.8c-0.3,2.2,0.7,5.2,2.1,6.8c5.9,6.4,8.4,19.1,4.5,24.9c-5,7.4-16,10.7-25.1,6.9
		c-4.6-1.9-8.9-4.6-12.9-7.5c-2.7-1.9-3.5-4.9-0.5-7.4c2.8-2.3,4.5-0.8,7.3,1.3c4.5,3.4,10.2,6.3,15.7,7.1c2.9,0.4,8.5-3.7,9.2-6.6
		c0.9-3.8-1.8-8.5-3.3-12.7c-0.2-0.6-2.5-0.8-3.7-0.6c-1.8,0.3-3.7,2.1-5.2,1.7c-2.9-0.7-5.5-2.5-8.3-3.8c1.8-2.1,3.5-4.5,5.6-6.3
		c2-1.8,5.7-2.5,6.5-4.5C69.4,54.6,65.5,51.3,56.8,53.3z"/>
	<path class="st0" d="M277.6,621.7c0.2,0.2,0.3,0.3,0.4,0.4c-0.3,0.1-0.5,0.3-0.8,0.4c-0.1,0-0.3-0.3-0.4-0.4
		C277.1,622,277.4,621.8,277.6,621.7z"/>
	<path class="st0" d="M301.7,446.9c-0.2,0.2-0.3,0.3-0.4,0.4c-0.1-0.3-0.3-0.5-0.4-0.8c0-0.1,0.3-0.3,0.4-0.4
		C301.4,446.3,301.6,446.6,301.7,446.9z"/>
	<path class="st0" d="M506.9,616.3c-0.3-0.1-0.5-0.3-0.8-0.4c0.1-0.1,0.3-0.4,0.4-0.4c0.3,0.1,0.6,0.3,0.8,0.4
		C507.2,616,507.1,616.1,506.9,616.3z"/>
</g>
</svg>
