<?xml version="1.0" encoding="utf-8"?>
<!-- Generator: Adobe Illustrator 24.0.0, SVG Export Plug-In . SVG Version: 6.00 Build 0)  -->
<svg version="1.1" id="Layer_1" xmlns="http://www.w3.org/2000/svg" xmlns:xlink="http://www.w3.org/1999/xlink" x="0px" y="0px"
	 viewBox="0 0 578.2 809.5" style="enable-background:new 0 0 578.2 809.5;" xml:space="preserve">
<style type="text/css">
	.st0{fill:#FEFEFE;}
	.st1{fill:#FE2121;}
</style>
<g>
	<path class="st0" d="M39,0c166.7,0,333.5,0,500.2,0c21.5,0,39,17.5,39,39v731.5c0,21.5-17.5,39-39,39H39c-21.5,0-39-17.5-39-39
		C0,526.7,0,282.8,0,39C0,17.5,17.5,0,39,0z M165.6,748.3c2.8,0.9,4.3-1.2,5.1-3.8c1.2-4,1.8-8.1,3.1-12c1.7-5.3,3.5-10.6,5.9-15.7
		c3.1-6.8,6.3-13.6,10.5-19.8c4.2-6.4,9.6-12.1,14.5-18c1.9-2.3,1.8-5.7-0.3-7.9c-1.1-1.2-2.3-2.4-3.3-3.7c-4-5.3-8.2-10.4-11.7-16
		c-3.7-6-7.5-12.2-9.7-18.8c-2-6-2.1-12.7-2.8-19.1c-0.3-2.7-1.5-4.3-4.1-4.7s-4.9,0-5.5,3.2c-0.9,5.1-1.4,10.3-2.9,15.3
		c-1.9,6.3-3.7,13-7.3,18.2c-6.1,8.7-13.8,16.3-20.9,24.3c-0.7,0.8-1.5,1.4-2.4,1.9c-6.2,3.2-6.4,7.3-0.8,11.6
		c9.1,7,16.3,15.7,19.3,26.8c2.9,10.6,4.6,21.6,6.6,32.5C159.6,747.2,160.3,748.3,165.6,748.3z M125.1,131.6c0.7,1.5,1.2,2.9,2,3.9
		c4.6,6.1,9.9,11.8,13.9,18.3c4.3,7,7.9,14.6,10.8,22.4c1.9,5,1.9,10.8,2.6,16.2c0.4,2.7,1.7,5.3,4.3,4.9c1.7-0.2,3.1-3,4.5-4.7
		c0.3-0.4,0.1-1.2,0.1-1.9c0.4-12.1,4.2-23.2,11.5-32.8c7-9.2,14.3-18.1,23.7-25c2.5-1.8,2.5-4.1,0.3-6.2c-1.9-1.9-3.8-3.8-6-5.4
		c-7.8-5.9-12.7-14-15.3-23c-3.1-11-5-22.4-7.1-33.7c-0.5-2.9-1.7-4.4-4.4-5c-2.8-0.6-4.5,1.1-5.4,3.3c-1.1,2.5-1.8,5.1-2.4,7.7
		c-5.6,21.2-13.6,41.1-30.3,56.4C126.6,128.2,126,130,125.1,131.6z M372.5,133c1,1.7,1.8,3.2,2.8,4.6c4.3,5.7,8.9,11.3,12.9,17.2
		c6.1,8.9,11.1,18.5,12.6,29.4c0.5,3.4,0.4,7,1.3,10.3c0.4,1.6,2.2,3.6,3.7,3.9c1.1,0.2,2.9-1.9,3.9-3.3c0.6-0.8,0.2-2.2,0.3-3.4
		c0.7-4.8,1-9.7,2.4-14.3c5.3-17.4,17.6-29.8,30.7-41.5c4.9-4.4,5.3-4.6,0.4-9.2c-0.7-0.7-1.9-1.7-2.7-2.3
		c-11.1-8.6-16.4-20.7-19.6-33.9c-1.9-8-2.6-16.3-4.1-24.4c-0.3-1.4-1.5-3.2-2.7-3.9c-3-1.7-5.8-0.1-6.9,3.7
		c-1.9,6.1-3.4,12.4-5.4,18.4c-5.4,16.7-13.1,32-26.4,43.9C374.4,129.5,373.7,131.2,372.5,133z M413,748.7c0.8-0.6,2.3-1.4,3.1-2.6
		c1-1.5,1.3-3.3,1.9-5c3.1-9.3,6-18.8,9.4-28c4.5-12.1,12-22.3,21.2-31.2c2.5-2.4,3.9-4.9,1.5-8.1c-2-2.7-4.2-5.1-6.3-7.8
		c-7.9-10-15.1-20.5-18.6-32.9c-1.5-5.4-1.9-11.1-2.7-16.6c-0.3-2.5-1.1-5.2-3.9-4.7c-1.6,0.3-3,2.8-4.2,4.6c-0.5,0.7,0,2-0.1,3
		c-0.2,2.2-0.3,4.3-0.6,6.5c-2,12.3-7.9,22.8-16,31.9c-5.7,6.4-12.1,12.1-18.4,17.9c-2.6,2.4-2.2,4.4,0.1,6.4
		c3.1,2.8,6.5,5.4,9.5,8.4c8.7,9,12.6,20.4,15.2,32.2c1.5,7,2.3,14.1,3.3,21.2C407.8,747,409.4,748.2,413,748.7z M57.6,123.9
		c-4.8,0-5.2,2.9-6,5.2c-2.1,6.3-3.7,12.8-6.1,19c-3.4,9.1-9,16.9-15.9,23.8c-2,2-3.5,4-1.1,6.9c3.4,4.1,6.6,8.4,9.8,12.7
		c5.8,8,9.4,17,10,27c0.1,2.4,0.7,4.9,3.3,4.6c1.3-0.1,2.5-2.6,3.6-4.2c0.4-0.5,0-1.5,0.2-2.3c1.5-5.5,2.3-11.3,4.8-16.4
		c4.4-9.1,11.6-16.2,19.3-22.6c2.8-2.3,3-3.7,0.5-6.3c-0.8-0.8-1.6-1.7-2.5-2.4c-8.4-6.1-12.1-15-14.3-24.7
		c-1.2-5.5-1.8-11.1-3-16.6C59.8,126.2,58.2,124.8,57.6,123.9z M550.3,632.6c-0.5-1-0.9-2-1.5-2.8c-1.7-2.1-3.5-4.1-5.2-6.2
		c-7.7-10.1-13.9-20.8-14.7-34c-0.1-1.5-1.9-2.9-2.9-4.3c-1.2,1.3-2.6,2.4-3.6,3.9c-0.5,0.7-0.1,2-0.4,3c-1.5,5.4-2.3,11.1-4.7,16
		c-4.5,9.2-11.7,16.4-19.6,22.8c-2.4,1.9-2.9,3.8-0.5,6c0.9,0.8,1.6,1.7,2.5,2.4c8.4,6.1,12.2,15,14.4,24.7c1.3,5.6,1.8,11.4,3.1,17
		c0.3,1.4,2,3.2,3.3,3.4s3-1.3,4.1-2.4c0.7-0.7,0.9-2.1,1.2-3.2c3.9-16.2,10.2-31.2,22.5-43C549.4,635.2,549.7,633.8,550.3,632.6z
		 M535.6,749.1c-0.3-15.8-3.6-20.3-18.2-19.2c-2.7,0.2-3.7-0.7-3.8-3.4c-0.2-3.7-0.5-7.4-0.9-11.1c-0.3-2.6-1.8-4.3-4.6-4
		c-3.1,0.4-4.1,2.5-3.5,5.7c0.7,3.8,0.8,7.7,1,11.5c0.1,1.8,0.4,4.2-0.4,5.8c-3.6,7-2.8,14.2-0.5,21.2c0.5,1.5,2.5,3.4,3.9,3.3
		c1.3,0,3.3-2,3.7-3.5c1-3.9,1.5-8,2-12.1c0.7-5.5,0.6-5.5,6-5.7c1-0.1,2.2-0.3,3,0c1.2,0.5,2.9,1.4,3,2.3c1,8.4,1.7,16.7-1.9,24.8
		c-0.7,1.5-0.1,4.7,1,5.6c1.2,0.9,4.3,0.5,5.7-0.5s2.2-3.4,2.6-5.3C534.4,759.5,534.9,754.2,535.6,749.1z M41.7,59.9
		c0.2,0,0.3,0.1,0.5,0.1c0,0.4,0,0.8,0,1.2c0.1,14,3.3,18.8,17.8,17.7c3-0.2,3.8,1,3.9,3.7c0.1,3.6,0.5,7.2,0.9,10.7
		c0.3,2.8,1.9,4.6,4.9,4c2.8-0.5,3.6-2.4,3.3-5.1c-0.5-4.6-0.9-9.2-1.1-13.8c-0.1-1.5,0-3.2,0.6-4.4c3.4-6.9,2.7-14,0.5-20.9
		c-0.5-1.5-2.7-3.6-3.8-3.4c-1.5,0.3-3.5,2.2-3.9,3.8c-1.1,4.7-1.3,9.6-2.2,14.4c-0.2,1.1-1.5,2.4-2.6,2.8c-1.8,0.6-3.9,0.8-5.7,0.4
		c-1.3-0.3-3.4-1.6-3.5-2.7c-0.9-8.4-1.8-16.7,2.2-24.8c0.6-1.3,0.1-4.2-0.9-5c-1.2-1-4-1.2-5.3-0.4c-1.5,0.9-2.6,3.2-3,5.1
		C43.2,48.8,42.5,54.4,41.7,59.9z"/>
	<path class="st1" d="M165.6,748.3c-5.2,0-5.9-1.1-6.8-5.8c-2-10.9-3.7-21.9-6.6-32.5c-3.1-11.1-10.2-19.9-19.3-26.8
		c-5.6-4.3-5.5-8.4,0.8-11.6c0.9-0.5,1.8-1.1,2.4-1.9c7-8,14.7-15.6,20.9-24.3c3.7-5.2,5.4-11.9,7.3-18.2c1.5-4.9,1.9-10.2,2.9-15.3
		c0.6-3.2,2.9-3.6,5.5-3.2c2.6,0.4,3.8,2,4.1,4.7c0.7,6.4,0.8,13.1,2.8,19.1c2.2,6.6,6,12.8,9.7,18.8c3.4,5.5,7.6,10.6,11.5,15.8
		c1,1.3,2,2.5,3.1,3.6c2.9,2.8,3,5.4,0.6,8.4c-4.9,5.9-10.2,11.5-14.4,17.8c-4.1,6.2-7.3,13-10.5,19.8c-2.3,5-4.1,10.4-5.9,15.7
		c-1.3,3.9-1.9,8-3.1,12C169.9,747.1,168.3,749.2,165.6,748.3z"/>
	<path class="st1" d="M125.1,131.6c0.9-1.6,1.5-3.5,2.7-4.6c16.8-15.2,24.7-35.2,30.3-56.4c0.7-2.6,1.4-5.2,2.4-7.7
		c0.9-2.2,2.6-3.9,5.4-3.3c2.7,0.5,3.9,2.1,4.4,5c2.1,11.3,4,22.7,7.1,33.7c2.6,9.1,7.5,17.1,15.3,23c2.1,1.6,4,3.6,6,5.4
		c2.2,2.1,2.2,4.4-0.3,6.2c-9.4,6.9-16.8,15.8-23.7,25c-7.3,9.6-11.1,20.7-11.5,32.8c0,0.6,0.2,1.5-0.1,1.9
		c-1.4,1.7-2.8,4.5-4.5,4.7c-2.6,0.4-3.9-2.2-4.3-4.9c-0.7-5.4-0.7-11.2-2.6-16.2c-2.8-7.7-6.5-15.3-10.8-22.4
		c-4-6.5-9.3-12.2-13.9-18.3C126.2,134.5,125.8,133.1,125.1,131.6z"/>
	<path class="st1" d="M372.5,133c1.2-1.8,1.9-3.5,3.2-4.6c13.3-12,21-27.3,26.4-43.9c2-6.1,3.5-12.3,5.4-18.4c1.2-3.8,4-5.4,6.9-3.7
		c1.3,0.7,2.5,2.5,2.7,3.9c1.5,8.1,2.2,16.4,4.1,24.4c3.2,13.2,8.5,25.3,19.6,33.9c0.8,0.6,2,1.6,2.7,2.3c4.9,4.5,4.5,4.8-0.4,9.2
		c-13.1,11.6-25.4,24.1-30.7,41.5c-1.4,4.6-1.6,9.5-2.4,14.3c-0.2,1.1,0.2,2.6-0.3,3.4c-1,1.4-2.9,3.6-3.9,3.3
		c-1.5-0.3-3.3-2.3-3.7-3.9c-0.9-3.3-0.8-6.8-1.3-10.3c-1.5-10.9-6.5-20.5-12.6-29.4c-4.1-5.9-8.7-11.4-12.9-17.2
		C374.3,136.2,373.5,134.7,372.5,133z"/>
	<path class="st1" d="M413,748.7c-3.6-0.5-5.2-1.8-5.6-4.7c-1-7.1-1.8-14.3-3.3-21.2c-2.6-11.9-6.5-23.2-15.2-32.2
		c-2.9-3-6.3-5.6-9.5-8.4c-2.2-2-2.7-4-0.1-6.4c6.3-5.8,12.7-11.5,18.4-17.9c8.1-9.1,14-19.6,16-31.9c0.4-2.1,0.5-4.3,0.6-6.5
		c0.1-1-0.4-2.3,0.1-3c1.2-1.7,2.5-4.3,4.2-4.6c2.7-0.5,3.5,2.2,3.9,4.7c0.8,5.6,1.1,11.3,2.7,16.6c3.5,12.4,10.7,22.9,18.6,32.9
		c2.1,2.6,4.3,5.1,6.3,7.8c2.4,3.1,0.9,5.7-1.5,8.1c-9.2,8.9-16.8,19.1-21.2,31.2c-3.4,9.2-6.3,18.7-9.4,28c-0.6,1.7-0.9,3.6-1.9,5
		C415.3,747.3,413.8,748.1,413,748.7z"/>
	<path class="st1" d="M57.6,123.9c0.6,0.9,2.2,2.3,2.5,3.9c1.2,5.5,1.8,11.1,3,16.6c2.2,9.7,5.9,18.6,14.3,24.7
		c0.9,0.7,1.7,1.5,2.5,2.4c2.5,2.5,2.3,4-0.5,6.3c-7.8,6.4-15,13.5-19.3,22.6c-2.4,5.1-3.3,10.9-4.8,16.4c-0.2,0.7,0.2,1.7-0.2,2.3
		c-1.1,1.6-2.3,4.1-3.6,4.2c-2.6,0.2-3.1-2.2-3.3-4.6c-0.6-10-4.1-18.9-10-27c-3.2-4.3-6.4-8.6-9.8-12.7c-2.4-2.9-0.9-4.9,1.1-6.9
		c6.9-6.9,12.5-14.7,15.9-23.8c2.4-6.2,4-12.7,6.1-19C52.4,126.8,52.8,123.9,57.6,123.9z"/>
	<path class="st1" d="M550.3,632.6c-0.6,1.2-0.9,2.6-1.8,3.4c-12.4,11.8-18.6,26.8-22.5,43c-0.3,1.1-0.5,2.5-1.2,3.2
		c-1.2,1.1-2.9,2.6-4.1,2.4c-1.3-0.2-3-2-3.3-3.4c-1.3-5.6-1.8-11.4-3.1-17c-2.2-9.7-6-18.5-14.4-24.7c-0.9-0.7-1.7-1.6-2.5-2.4
		c-2.4-2.2-1.9-4.1,0.5-6c7.9-6.4,15.1-13.6,19.6-22.8c2.4-4.9,3.2-10.7,4.7-16c0.3-1-0.1-2.3,0.4-3c1-1.4,2.4-2.6,3.6-3.9
		c1,1.4,2.8,2.8,2.9,4.3c0.7,13.2,7,23.9,14.7,34c1.6,2.1,3.5,4.1,5.2,6.2C549.4,630.6,549.8,631.6,550.3,632.6z"/>
	<path class="st1" d="M535.6,749.1c-0.7,5.2-1.2,10.4-2.2,15.5c-0.4,1.9-1.2,4.3-2.6,5.3c-1.4,1-4.5,1.4-5.7,0.5
		c-1.1-0.8-1.7-4.1-1-5.6c3.7-8.1,2.9-16.5,1.9-24.8c-0.1-0.9-1.8-1.8-3-2.3c-0.9-0.4-2-0.1-3,0c-5.4,0.3-5.3,0.3-6,5.7
		c-0.5,4.1-0.9,8.2-2,12.1c-0.4,1.5-2.4,3.5-3.7,3.5s-3.4-1.9-3.9-3.3c-2.2-7.1-3.1-14.2,0.5-21.2c0.8-1.6,0.5-4.1,0.4-5.8
		c-0.1-3.9-0.3-7.7-1-11.5c-0.6-3.3,0.4-5.4,3.5-5.7c2.8-0.3,4.3,1.3,4.6,4c0.4,3.7,0.7,7.4,0.9,11.1c0.1,2.6,1.2,3.6,3.8,3.4
		C532,728.7,535.3,733.3,535.6,749.1z"/>
	<path class="st1" d="M41.7,59.9c0.8-5.6,1.4-11.1,2.5-16.6c0.4-1.9,1.5-4.1,3-5.1c1.3-0.8,4.1-0.6,5.3,0.4c1,0.8,1.5,3.7,0.9,5
		c-3.9,8-3.1,16.4-2.2,24.8c0.1,1,2.2,2.4,3.5,2.7c1.8,0.4,3.9,0.2,5.7-0.4c1.1-0.3,2.4-1.7,2.6-2.8c0.9-4.8,1.1-9.7,2.2-14.4
		c0.4-1.6,2.3-3.5,3.9-3.8c1.1-0.2,3.3,1.9,3.8,3.4c2.2,7,3,14-0.5,20.9c-0.6,1.3-0.7,3-0.6,4.4c0.3,4.6,0.6,9.2,1.1,13.8
		c0.3,2.7-0.5,4.6-3.3,5.1c-3,0.5-4.6-1.2-4.9-4c-0.4-3.6-0.7-7.1-0.9-10.7c-0.1-2.7-1-3.9-3.9-3.7C45.5,80,42.3,75.2,42.1,61.2
		c0-0.4,0-0.8,0-1.2C42.1,60,41.9,60,41.7,59.9z"/>
</g>
</svg>
