<?xml version="1.0" encoding="utf-8"?>
<!-- Generator: Adobe Illustrator 24.0.0, SVG Export Plug-In . SVG Version: 6.00 Build 0)  -->
<svg version="1.1" id="Layer_1" xmlns="http://www.w3.org/2000/svg" xmlns:xlink="http://www.w3.org/1999/xlink" x="0px" y="0px"
	 viewBox="0 0 578.6 809.5" style="enable-background:new 0 0 578.6 809.5;" xml:space="preserve">
<style type="text/css">
	.st0{fill:#FDFDFD;}
	.st1{fill:#070707;}
</style>
<g>
	<path class="st0" d="M539.6,809.5H39c-21.5,0-39-17.5-39-39V39C0,17.5,17.5,0,39,0h500.6c21.5,0,39,17.5,39,39v731.5
		C578.6,792,561.1,809.5,539.6,809.5z M155.7,128.5c-3.1-0.3-5.6-0.5-8-0.9c-15.4-2.5-26.6,8-27.2,23.8c-0.5,13.9,19.1,27.5,33,22.9
		c6.2-2.1,12.2-4.8,18.3-7.3c0.6,0.6,0.7,0.7,1.3,1.3c-1.4,3.4-2.3,7.2-4.5,9.9c-3.4,4.1-7.9,7.3-11.7,11.1
		c-1.1,1.1-1.9,3.2-1.8,4.7c0.1,0.8,2.5,1.9,4,2c10.6,0.8,21.2,1.5,31.8,1.8c3.4,0.1,6.9-0.7,10.2-1.6c1.6-0.4,2.8-1.9,4.2-2.9
		c-1.2-1.3-2.3-2.8-3.7-3.8c-5-3.7-10.4-7-15.2-10.9c-3.7-3-6.6-6.9-4.8-12.4c0.6,0,1.1-0.1,1.4,0c0.7,0.4,1.4,0.9,2,1.4
		c7.8,6.3,16.8,8.8,26.7,9.1c8.1,0.3,13.5-3.5,17-10.4c4.3-8.4,4.3-17.2,1.8-26.2c-2.8-9.7-9.3-15.3-19.1-16.1
		c-2.6-0.2-5.2,0.3-8.2,0.5c0.4-2.6,0.8-4.6,1-6.6c2.2-18.4-3.9-27.8-20.5-31.3c-16.5-3.5-31.8,9.9-30.2,26.6
		C153.9,118.1,154.9,122.9,155.7,128.5z M399.9,168.2c0.6,0.6,0.6,0.7,1.3,1.3c-1.5,3.4-2.4,7.3-4.7,10.1c-3.4,4.1-8,7.3-11.7,11.1
		c-1.1,1.1-1.9,3.3-1.6,4.7c0.1,0.8,2.6,1.8,4,1.9c10.4,0.7,20.8,1.5,31.2,1.7c3.8,0.1,7.7-0.9,11.4-1.7c1.2-0.3,2.3-1.5,3.4-2.3
		c-0.9-1.3-1.5-2.8-2.7-3.7c-5.2-3.8-10.7-7.2-15.8-11.2c-3.9-3.1-7-7-5.2-12.7c0.7,0,1.2-0.1,1.5,0.1c0.7,0.4,1.4,0.9,2,1.5
		c8.4,6.6,18.1,9.6,28.6,8.8c3.8-0.3,8.3-2.1,11.1-4.7c9.3-8.7,10.3-29.7,2-39.4c-2.8-3.3-7.1-5.7-11.2-7.2
		c-3.6-1.3-7.9-0.8-12.3-1.2c0.3-2.1,0.7-4.1,0.9-6.1c2.2-18.5-4-27.8-20.6-31.3c-16.5-3.5-31.7,10-30.1,26.8
		c0.5,4.9,1.4,9.7,2.2,15.2c-3.2-0.4-5.7-0.6-8.1-1c-15.3-2.5-26.5,8.1-27.1,23.9c-0.5,13.7,19.2,27.5,33.1,22.8
		C387.8,173.4,393.8,170.6,399.9,168.2z M179.9,642.5c-0.6-0.6-0.7-0.7-1.3-1.3c1.5-3.4,2.4-7.3,4.7-10.1c3.4-4.1,8-7.3,11.7-11.1
		c1.1-1.1,1.9-3.3,1.6-4.7c-0.1-0.8-2.6-1.8-4-1.9c-10.4-0.7-20.8-1.5-31.2-1.7c-3.8-0.1-7.7,0.9-11.4,1.7c-1.2,0.3-2.3,1.5-3.4,2.3
		c0.9,1.3,1.5,2.8,2.7,3.7c5.2,3.8,10.7,7.2,15.8,11.2c3.9,3.1,7,7,5,13.3c-1.4-0.9-2.4-1.4-3.3-2.2c-8.4-6.6-18.1-9.6-28.6-8.8
		c-3.8,0.3-8.3,2.1-11.1,4.7c-9.3,8.7-10.3,29.7-2,39.4c2.8,3.3,7.1,5.7,11.2,7.2c3.6,1.3,7.9,0.8,12.3,1.2
		c-0.3,2.1-0.7,4.1-0.9,6.1c-2.2,18.5,4,27.8,20.6,31.3c16.5,3.5,31.7-10,30.1-26.8c-0.5-4.9-1.4-9.7-2.2-15.2
		c3.2,0.4,5.7,0.6,8.1,1c15.3,2.5,26.5-8.1,27.1-23.9c0.5-13.7-19.2-27.5-33.1-22.8C192,637.3,186,640.1,179.9,642.5z M407.5,644
		c-0.6-0.6-0.6-0.6-1.2-1.2c1.6-3.5,2.6-7.5,5-10.4c3.2-4,7.6-7,11.3-10.7c1.2-1.2,2.5-3.3,2.2-4.6c-0.3-1.1-2.8-2.2-4.4-2.3
		c-10.4-0.8-20.8-1.5-31.2-1.8c-3.6-0.1-7.3,0.8-10.8,1.6c-1.4,0.3-2.6,1.7-3.9,2.5c1.1,1.3,2,3,3.4,4c5,3.7,10.4,7,15.2,10.9
		c3.8,3.1,6.9,7,5,12.6c-5.5-2.8-10.3-6.3-15.7-8c-9.1-2.9-18.9-5.7-27.2,2c-10.1,9.3-10.6,31.5-0.9,41.4c2.6,2.7,6.4,4.6,10.1,5.7
		c3.8,1.1,7.9,0.8,12.2,1.1c-0.3,2.2-0.9,4.2-1,6.2c-0.3,8.8-0.8,17.7,6.1,24.7c6.8,6.8,21.8,8.7,31.1,4.1
		c9.5-4.6,14.6-14,13.4-25.2c-0.5-4.6-1.4-9.2-2.1-14.4c3.1,0.3,5.3,0.5,7.6,0.9c16.3,2.6,28.3-8.5,27.2-25.2
		c-1-14.1-18.4-25.6-32.9-21.3C419.7,638.5,413.7,641.5,407.5,644z M84.2,208.9c0.3-1.2,0.3-1.3,0.6-2.4c-4-2.8-8.2-5.5-12.1-8.5
		c-6.4-4.9-7.4-7.1-5.3-11.6c6.8,5.4,14.5,8.4,23.2,7.8c3.1-0.2,6.9-1.5,8.9-3.6c7.3-7.9,7.3-17.4,3.8-27c-2.7-7.2-8.6-10.1-19-9.9
		c-0.3,0-0.6-0.5-0.9-0.7c1.5-20-3.2-28.2-17.7-28.4c-3.8-0.1-7.6,0.8-11,2.5c-13.8,6.9-11.4,18.4-8.2,30c-3.6-0.5-6.1-0.7-8.5-1.1
		c-6.8-1.2-11.9,1.4-15.2,7.3c-3.7,6.7-5.9,13.5-1,20.6c4.9,7,14.5,10.9,22.6,8.7c4.8-1.3,9.4-3.6,16-6.2c-1.8,4-2.5,6.9-4.2,8.9
		c-2.5,3-5.8,5.4-8.5,8.2c-1,1.1-1.5,2.7-2.3,4.1c1.4,0.6,2.8,1.6,4.2,1.7c7.9,0.7,15.8,1.4,23.7,1.5
		C76.9,210.7,80.5,209.5,84.2,208.9z M533.3,653.8c3.6,0.5,6.1,0.7,8.5,1.1c6.8,1.2,11.9-1.2,15.3-7.1c3.8-6.6,6-13.5,1.1-20.6
		c-4.8-7-14.5-11-22.6-8.8c-4.9,1.3-9.5,3.6-16.1,6.2c1.9-4.1,2.6-7.1,4.4-9.3c2.5-3,5.8-5.3,8.6-8.1c0.9-0.9,1.9-2.5,1.7-3.6
		c-0.1-0.8-2.1-1.8-3.2-1.9c-8.7-0.7-17.5-1.4-26.2-1.5c-3.2-0.1-6.4,1.4-9.6,2.2c-0.2,0.9-0.2,1-0.3,1.8c3.9,2.7,7.9,5.3,11.7,8.2
		c3.8,3,8.3,5.8,7.2,11.3c-6.5-2.3-12.8-5.4-19.3-6.6c-11.1-2-17.6,3-19.4,14.2c-0.6,4.2-0.3,8.8,0.7,13c2,8.9,8.2,13.3,17.2,13.1
		c1.1,0,2.3,0,3.6,0c-0.5,9.9-2.9,20.3,7.5,26.2c7.5,4.3,15.8,4.8,23.2-0.3C537.8,676,536.8,665.6,533.3,653.8z M70.3,87.5
		c0,5.4-0.3,9.7,0.1,14c0.1,1.5,1.8,3.4,3.2,4c1,0.5,3.5-0.5,4.2-1.5c1-1.4,1-3.5,1.2-5.3c0.8-9.5,1.9-19,2-28.5
		c0-2.1-3.3-4.6-5.6-5.9c-0.6-0.3-3.7,2.6-4.9,4.5c-0.7,1.2-0.2,3.3-0.1,4.9c0.8,6.8-5,6-8.4,6.4c-4.7,0.5-4.2-3.7-3.8-6.7
		c0.8-6,2.3-11.9,2.9-17.9c0.2-1.7-1.7-3.6-2.7-5.5c-1.7,1.1-4.7,1.9-4.9,3.3C52,61.1,50.3,69,50.1,76.9c-0.2,7.9,6.2,13,13.9,11.4
		C65.7,88,67.3,87.8,70.3,87.5z M509.6,715.1c0-1.7,0.1-3.4,0-5c-0.1-1.2-0.4-2.8-1.2-3.4c-1.2-0.9-3.6-1.9-4.2-1.3
		c-1.5,1.4-3,3.5-3.2,5.4c-1.1,10.1-1.7,20.2-2.4,30.4c-0.1,1.1,0.5,2.8,1.3,3.2c2.1,1.1,4.5,1.7,6.7,2.5c0.9-2.9,2.9-6,2.6-8.8
		c-0.7-7,4.5-6.9,8.4-7.2c5.3-0.4,4.3,4.1,3.9,7.2c-0.8,5.8-2.2,11.5-2.8,17.3c-0.2,1.8,1.6,3.7,2.5,5.6c1.7-0.8,4.7-1.4,4.8-2.5
		c1.5-9,3.3-18.1,3.3-27.1c0-6.4-5.9-9.9-11.9-9.1C509.6,723.1,509.6,723.1,509.6,715.1z"/>
	<path class="st1" d="M155.7,128.5c-0.8-5.6-1.8-10.4-2.3-15.3c-1.6-16.7,13.7-30.1,30.2-26.6c16.6,3.5,22.7,12.9,20.5,31.3
		c-0.2,2-0.6,4-1,6.6c3.1-0.2,5.7-0.7,8.2-0.5c9.8,0.8,16.4,6.4,19.1,16.1c2.6,8.9,2.5,17.7-1.8,26.2c-3.5,6.9-9,10.7-17,10.4
		c-9.9-0.3-18.9-2.9-26.7-9.1c-0.6-0.5-1.3-1-2-1.4c-0.3-0.2-0.8,0-1.4,0c-1.8,5.5,1.1,9.3,4.8,12.4c4.8,4,10.2,7.2,15.2,10.9
		c1.4,1,2.5,2.6,3.7,3.8c-1.4,1-2.7,2.5-4.2,2.9c-3.3,0.9-6.8,1.7-10.2,1.6c-10.6-0.3-21.2-1-31.8-1.8c-1.4-0.1-3.9-1.2-4-2
		c-0.2-1.5,0.6-3.6,1.8-4.7c3.8-3.8,8.4-7,11.7-11.1c2.2-2.7,3.1-6.5,4.5-9.9c-0.6-0.6-0.7-0.7-1.3-1.3c-6.1,2.4-12.1,5.2-18.3,7.3
		c-13.8,4.6-33.5-9-33-22.9c0.6-15.8,11.8-26.3,27.2-23.8C150.2,128,152.6,128.1,155.7,128.5z"/>
	<path class="st1" d="M399.9,168.2c-6.1,2.5-12.1,5.2-18.3,7.3c-13.9,4.7-33.6-9.1-33.1-22.8c0.5-15.8,11.8-26.4,27.1-23.9
		c2.4,0.4,4.8,0.6,8.1,1c-0.8-5.6-1.8-10.4-2.2-15.2c-1.6-16.8,13.6-30.2,30.1-26.8c16.6,3.5,22.8,12.8,20.6,31.3
		c-0.2,2-0.6,4-0.9,6.1c4.3,0.3,8.6-0.2,12.3,1.2c4.1,1.5,8.4,4,11.2,7.2c8.3,9.7,7.3,30.6-2,39.4c-2.8,2.6-7.2,4.4-11.1,4.7
		c-10.5,0.9-20.2-2.1-28.6-8.8c-0.7-0.5-1.3-1-2-1.5c-0.3-0.2-0.8-0.1-1.5-0.1c-1.9,5.7,1.3,9.6,5.2,12.7c5,4,10.6,7.4,15.8,11.2
		c1.2,0.9,1.8,2.4,2.7,3.7c-1.1,0.8-2.2,2.1-3.4,2.3c-3.8,0.8-7.6,1.8-11.4,1.7c-10.4-0.3-20.8-1-31.2-1.7c-1.5-0.1-3.9-1-4-1.9
		c-0.2-1.5,0.5-3.6,1.6-4.7c3.8-3.8,8.4-7,11.7-11.1c2.3-2.8,3.2-6.6,4.7-10.1C400.6,168.8,400.5,168.8,399.9,168.2z"/>
	<path class="st1" d="M179.9,642.5c6.1-2.5,12.1-5.2,18.3-7.3c13.9-4.7,33.6,9.1,33.1,22.8c-0.5,15.8-11.8,26.4-27.1,23.9
		c-2.4-0.4-4.8-0.6-8.1-1c0.8,5.6,1.8,10.4,2.2,15.2c1.6,16.8-13.6,30.2-30.1,26.8c-16.6-3.5-22.8-12.8-20.6-31.3
		c0.2-2,0.6-4,0.9-6.1c-4.3-0.3-8.6,0.2-12.3-1.2c-4.1-1.5-8.4-4-11.2-7.2c-8.3-9.7-7.3-30.6,2-39.4c2.8-2.6,7.2-4.4,11.1-4.7
		c10.5-0.9,20.2,2.2,28.6,8.8c0.9,0.7,2,1.3,3.3,2.2c2-6.3-1.1-10.2-5-13.3c-5-4-10.6-7.4-15.8-11.2c-1.2-0.9-1.8-2.4-2.7-3.7
		c1.1-0.8,2.2-2.1,3.4-2.3c3.8-0.8,7.6-1.8,11.4-1.7c10.4,0.3,20.8,1,31.2,1.7c1.5,0.1,3.9,1,4,1.9c0.2,1.5-0.5,3.6-1.6,4.7
		c-3.8,3.8-8.4,7-11.7,11.1c-2.3,2.8-3.2,6.6-4.7,10.1C179.3,641.9,179.3,641.9,179.9,642.5z"/>
	<path class="st1" d="M407.5,644c6.2-2.4,12.1-5.5,18.5-7.4c14.5-4.3,31.9,7.2,32.9,21.3c1.1,16.7-10.9,27.8-27.2,25.2
		c-2.2-0.4-4.5-0.5-7.6-0.9c0.8,5.2,1.7,9.8,2.1,14.4c1.2,11.2-3.9,20.7-13.4,25.2c-9.3,4.5-24.3,2.7-31.1-4.1
		c-6.9-6.9-6.4-15.9-6.1-24.7c0.1-2,0.6-4.1,1-6.2c-4.2-0.3-8.4,0-12.2-1.1c-3.6-1.1-7.4-3.1-10.1-5.7c-9.6-9.8-9.1-32.1,0.9-41.4
		c8.3-7.7,18.1-4.9,27.2-2c5.4,1.7,10.2,5.1,15.7,8c1.9-5.6-1.2-9.5-5-12.6c-4.8-4-10.2-7.2-15.2-10.9c-1.4-1-2.3-2.6-3.4-4
		c1.3-0.9,2.5-2.2,3.9-2.5c3.5-0.8,7.2-1.7,10.8-1.6c10.4,0.3,20.8,1,31.2,1.8c1.6,0.1,4.1,1.2,4.4,2.3c0.3,1.3-1,3.4-2.2,4.6
		c-3.7,3.7-8.1,6.7-11.3,10.7c-2.4,2.9-3.4,6.9-5,10.4C406.9,643.3,407,643.4,407.5,644z"/>
	<path class="st1" d="M84.2,208.9c-3.6,0.6-7.2,1.8-10.8,1.7c-7.9-0.1-15.8-0.8-23.7-1.5c-1.4-0.1-2.8-1.1-4.2-1.7
		c0.7-1.4,1.2-3,2.3-4.1c2.7-2.8,6-5.2,8.5-8.2c1.7-2,2.4-4.9,4.2-8.9c-6.6,2.6-11.2,4.9-16,6.2c-8.1,2.2-17.7-1.6-22.6-8.7
		c-4.9-7-2.8-13.9,1-20.6c3.3-5.9,8.4-8.5,15.2-7.3c2.4,0.4,4.9,0.7,8.5,1.1c-3.1-11.7-5.6-23.1,8.2-30c3.4-1.7,7.2-2.5,11-2.5
		c14.5,0.2,19.2,8.4,17.7,28.4c0.3,0.3,0.6,0.7,0.9,0.7c10.4-0.2,16.3,2.7,19,9.9c3.5,9.6,3.6,19.1-3.8,27c-2,2.2-5.8,3.4-8.9,3.6
		c-8.6,0.7-16.4-2.4-23.2-7.8c-2,4.5-1.1,6.8,5.3,11.6c3.9,3,8,5.7,12.1,8.5C84.4,207.6,84.4,207.7,84.2,208.9z"/>
	<path class="st1" d="M533.3,653.8c3.6,11.8,4.5,22.2-6,29.4c-7.4,5.1-15.7,4.6-23.2,0.3c-10.4-5.9-8-16.3-7.5-26.2
		c-1.3,0-2.5,0-3.6,0c-9,0.1-15.2-4.3-17.2-13.1c-0.9-4.2-1.3-8.8-0.7-13c1.7-11.2,8.2-16.2,19.4-14.2c6.6,1.2,12.8,4.3,19.3,6.6
		c1.1-5.5-3.4-8.3-7.2-11.3c-3.8-2.9-7.8-5.5-11.7-8.2c0.2-0.9,0.2-1,0.3-1.8c3.2-0.8,6.4-2.3,9.6-2.2c8.7,0.1,17.5,0.9,26.2,1.5
		c1.2,0.1,3.1,1.1,3.2,1.9c0.2,1.1-0.8,2.7-1.7,3.6c-2.8,2.8-6.1,5.1-8.6,8.1c-1.8,2.2-2.5,5.2-4.4,9.3c6.6-2.6,11.2-4.9,16.1-6.2
		c8.1-2.2,17.7,1.8,22.6,8.8c4.9,7.1,2.6,13.9-1.1,20.6c-3.4,5.9-8.5,8.4-15.3,7.1C539.4,654.5,536.9,654.3,533.3,653.8z"/>
	<path class="st1" d="M70.3,87.5c-2.9,0.4-4.6,0.5-6.3,0.9C56.3,90,49.9,84.8,50.1,77c0.2-7.9,1.9-15.8,3.4-23.6
		c0.3-1.4,3.2-2.2,4.9-3.3c0.9,1.8,2.8,3.7,2.7,5.5c-0.6,6-2.1,11.9-2.9,17.9c-0.4,3-0.9,7.3,3.8,6.7c3.5-0.4,9.2,0.4,8.4-6.4
		c-0.2-1.7-0.7-3.7,0.1-4.9c1.2-1.9,4.3-4.8,4.9-4.5c2.3,1.4,5.6,3.9,5.6,5.9c-0.1,9.5-1.2,19-2,28.5c-0.2,1.8-0.2,3.9-1.2,5.3
		c-0.7,1-3.1,1.9-4.2,1.5c-1.4-0.6-3-2.5-3.2-4C70,97.2,70.3,92.8,70.3,87.5z"/>
	<path class="st1" d="M509.6,715.1c0,8,0,8,7.9,7c6-0.8,11.9,2.6,11.9,9.1c0,9-1.8,18.1-3.3,27.1c-0.2,1.1-3.2,1.7-4.8,2.5
		c-0.9-1.9-2.7-3.8-2.5-5.6c0.6-5.8,2-11.5,2.8-17.3c0.4-3.1,1.3-7.7-3.9-7.2c-3.9,0.3-9.1,0.2-8.4,7.2c0.3,2.8-1.7,5.9-2.6,8.8
		c-2.3-0.8-4.6-1.4-6.7-2.5c-0.8-0.4-1.4-2.1-1.3-3.2c0.7-10.1,1.4-20.3,2.4-30.4c0.2-1.9,1.7-4,3.2-5.4c0.6-0.5,3.1,0.5,4.2,1.3
		c0.8,0.6,1,2.2,1.2,3.4C509.8,711.7,509.6,713.4,509.6,715.1z"/>
</g>
</svg>
