<?xml version="1.0" encoding="utf-8"?>
<!-- Generator: Adobe Illustrator 24.0.0, SVG Export Plug-In . SVG Version: 6.00 Build 0)  -->
<svg version="1.1" id="Layer_1" xmlns="http://www.w3.org/2000/svg" xmlns:xlink="http://www.w3.org/1999/xlink" x="0px" y="0px"
	 viewBox="0 0 578.6 809.5" style="enable-background:new 0 0 578.6 809.5;" xml:space="preserve">
<style type="text/css">
	.st0{fill:#FEFDFD;}
	.st1{fill:#FE2121;}
</style>
<g>
	<path class="st0" d="M539.6,809.5H39c-21.5,0-39-17.5-39-39V39C0,17.5,17.5,0,39,0h500.6c21.5,0,39,17.5,39,39v731.5
		C578.6,792,561.1,809.5,539.6,809.5z M179.6,728.3c1.8,2.6,3.1,4.4,4.3,6.2c7.2,10.4,19.4,14.3,28.1,8.5
		c8.4-5.6,17.5-19.9,13.8-33.9c-2.7-10.1-8.8-17.9-15.2-25.6c-9.1-10.9-18.4-21.6-22-35.9c-0.5-2.1-3.1-3.7-4.7-5.6
		c-0.9,2-1.9,4.1-2.8,6.1c-0.3,0.8-0.3,1.7-0.7,2.4c-7.4,11.3-14.2,23.1-22.6,33.6c-6.3,7.9-15,13.9-22,21.3
		c-9,9.5-9.7,23.1-2.6,34.1c8.1,12.5,25.6,12.4,37.1-0.2C173.4,736,176.1,732.4,179.6,728.3z M402.7,729.6c1.8,2.7,3,4.5,4.3,6.4
		c6.6,9.5,17.4,13.3,26,9.2c8.7-4.1,16.8-18,16.6-27.7c-0.4-13.3-7.8-23-15.8-32.5c-9.5-11.2-19.1-22.2-22.3-37.1
		c-0.1-0.6-0.2-1.4-0.7-1.7c-1.4-1-2.9-1.9-4.3-2.8c-0.8,1.3-1.8,2.5-2.4,3.9c-0.6,1.7-0.5,3.8-1.3,5.4c-8,15.5-16.8,30.1-30.8,41.3
		c-6.4,5.1-12.3,11.4-17.2,18c-6.6,9-3.7,25.5,4.8,32.6c9.5,7.9,21.3,7.4,31-1.8C394.7,739.1,398.2,734.6,402.7,729.6z M177.1,79.9
		c-1.9-2.8-3.2-4.9-4.7-6.9c-9.3-12.9-23.9-13.8-33.7-2.1c-11.4,13.6-11.3,28.9,0.3,44.6c11.2,15.1,26,28,29.9,47.7
		c0,0.2,0.1,0.4,0.3,0.5c1.3,0.9,2.7,2.4,3.9,2.3c1-0.1,2.1-2.1,2.7-3.4c0.7-1.7,0.3-3.8,1.1-5.4c7.9-15.2,16.5-29.9,30.2-41
		c6.5-5.3,12.6-11.6,17.7-18.3c6.8-9,4.1-25.5-4.2-32.7c-9.5-8.3-21.5-7.8-31.5,1.5C185,70.4,181.6,74.9,177.1,79.9z M400.2,81.3
		c-1.9-2.8-3.3-4.9-4.7-6.9c-7-9.9-19.2-13.4-27.8-8c-10.8,6.9-16.5,22-13.5,34.5c2.4,10.2,8.9,17.7,15.3,25.4
		c8.8,10.6,17.8,21,21.5,34.8c0.6,2.4,3.2,4.2,4.8,6.3c1-2.2,2-4.4,3-6.6c0.3-0.6,0.2-1.3,0.6-1.8c7.1-11,13.5-22.6,21.6-32.7
		c6.7-8.4,15.9-14.7,23.3-22.6c9-9.5,9.4-24.1,1.8-34.6c-8.6-11.8-25.7-11.4-36.8,1C406.3,73.6,403.6,77.2,400.2,81.3z M520.4,669.4
		c2.2,2.5,3.8,4.6,5.7,6.5c7.6,8.1,16.9,7.9,24.2-0.7c7.4-8.7,8.8-19.3,3-28.9c-8.5-14.2-22.5-24.8-26.5-41.9
		c-0.2-0.8-1.9-1.5-3-1.6c-0.6,0-1.7,1.2-1.9,2c-4.9,16.6-15.6,29-28.8,39.8c-3.5,2.9-6.6,6.5-9,10.3c-4.9,7.7-2.1,21,4.9,26.1
		c7.3,5.4,16.9,4,24.2-3.5C515.5,675,517.7,672.3,520.4,669.4z M59.3,140.6c-1.9-2.4-3.2-4.2-4.7-5.9c-8-9.5-18.2-9.2-25.8,0.6
		c-7.4,9.7-7.7,19.8-0.4,30.7c8.5,12.7,21.1,22.8,24.5,38.8c0.2,0.8,1.8,2,2.7,1.9c0.9,0,2.1-1.3,2.4-2.3
		c4.4-14.6,13-26.3,24.5-36.1c4.7-4,9.3-8.5,12.8-13.5c5.3-7.4,2.9-20-4-25.6c-7-5.8-16.9-4.8-24.2,2.5
		C64.7,134.3,62.3,137.2,59.3,140.6z M534,746.2c-0.5-4.4-0.8-7.9-1.4-11.4c-0.8-5.1-4.2-7.4-9-8.1c-3.4-0.5-8.1,0.4-10-1.5
		c-2-2-1.3-6.6-1.7-10.1c-0.1-0.4,0-0.9-0.2-1.2c-1.4-1.7-2.8-3.4-4.2-5.1c-1.1,1.9-3.1,3.7-3.1,5.7c-0.2,7.4,1.3,14.7-1.3,22.2
		c-1.4,4-0.2,9.1,0.5,13.6c0.3,1.7,2.7,3.1,4.1,4.7c1.2-1.5,3.2-2.8,3.6-4.5c0.9-3.8,1.3-7.8,1.6-11.7c0.3-4.6,3.6-4.5,6.7-4.8
		c3.4-0.4,6.1,0.8,6,4.6c-0.3,7-0.6,14.1-1.9,21c-0.6,3-2.4,6.1,1.5,7c1.7,0.4,5.4-2.3,6-4.3C532.8,756.7,533.2,751,534,746.2z
		 M75.7,68l1.8-0.1c-0.3-2.7-0.2-5.5-1.1-8c-0.8-2-2.8-3.5-4.3-5.3c-1.3,1.7-3.2,3.2-3.7,5.1c-0.9,3.6-1.4,7.4-1.4,11.1
		c-0.1,4.8-3.5,4.4-6.5,4.8c-3.3,0.4-6.2-0.6-6.1-4.4c0.2-7,0.5-14.1,1.8-21c0.6-3,2.4-5.7-1.3-7.2c-4-1.6-6,1.5-6.5,4.7
		c-1,6.3-2,12.8-2.1,19.2c-0.2,11.4,3.4,17.2,15.9,16c3.9-0.4,5.2,1.3,5.3,4.9c0.1,3.1,0.2,6.3,1,9.3c0.4,1.5,2.6,2.4,4.1,3.6
		c1-1.3,3-2.6,3-3.9C75.8,87.2,75.7,77.6,75.7,68z"/>
	<path class="st1" d="M179.6,728.3c-3.5,4.2-6.3,7.7-9.3,11.1c-11.5,12.6-29,12.6-37.1,0.2c-7.2-11-6.5-24.6,2.6-34.1
		c7-7.4,15.7-13.4,22-21.3c8.4-10.5,15.2-22.3,22.6-33.6c0.4-0.7,0.4-1.6,0.7-2.4c0.9-2.1,1.9-4.1,2.8-6.1c1.6,1.8,4.2,3.4,4.7,5.6
		c3.6,14.3,12.9,25.1,22,35.9c6.4,7.7,12.5,15.5,15.2,25.6c3.8,13.9-5.3,28.3-13.8,33.9c-8.7,5.8-21,2-28.1-8.5
		C182.7,732.7,181.4,730.8,179.6,728.3z"/>
	<path class="st1" d="M402.7,729.6c-4.5,5-8,9.4-12,13.3c-9.7,9.2-21.5,9.7-31,1.8c-8.5-7.1-11.5-23.6-4.8-32.6
		c4.9-6.6,10.7-12.9,17.2-18c13.9-11.2,22.8-25.8,30.8-41.3c0.8-1.6,0.7-3.7,1.3-5.4c0.5-1.4,1.6-2.6,2.4-3.9c1.4,0.9,3,1.8,4.3,2.8
		c0.4,0.3,0.5,1.1,0.7,1.7c3.2,14.9,12.8,26,22.3,37.1c8,9.4,15.4,19.2,15.8,32.5c0.3,9.7-7.9,23.6-16.6,27.7
		c-8.6,4.1-19.4,0.2-26-9.2C405.7,734.2,404.5,732.3,402.7,729.6z"/>
	<path class="st1" d="M177.1,79.9c4.5-5,7.9-9.5,11.9-13.3c10-9.3,22-9.8,31.5-1.5c8.3,7.2,11,23.7,4.2,32.7
		c-5.1,6.8-11.2,13-17.7,18.3c-13.7,11.1-22.3,25.8-30.2,41c-0.8,1.6-0.5,3.7-1.1,5.4c-0.5,1.4-1.6,3.3-2.7,3.4
		c-1.2,0.1-2.6-1.4-3.9-2.3c-0.2-0.1-0.2-0.4-0.3-0.5c-3.9-19.7-18.7-32.6-29.9-47.7c-11.6-15.7-11.7-30.9-0.3-44.6
		c9.8-11.7,24.4-10.8,33.7,2.1C173.9,75,175.2,77.1,177.1,79.9z"/>
	<path class="st1" d="M400.2,81.3c3.4-4.1,6.2-7.7,9.2-11c11.2-12.4,28.3-12.9,36.8-1c7.6,10.5,7.1,25.1-1.8,34.6
		c-7.4,7.9-16.6,14.2-23.3,22.6c-8.1,10.2-14.5,21.7-21.6,32.7c-0.3,0.5-0.3,1.2-0.6,1.8c-1,2.2-2,4.4-3,6.6
		c-1.6-2.1-4.2-3.9-4.8-6.3c-3.7-13.8-12.6-24.3-21.5-34.8c-6.4-7.7-12.9-15.2-15.3-25.4c-3-12.5,2.7-27.6,13.5-34.5
		c8.5-5.5,20.7-2,27.8,8C396.9,76.4,398.2,78.5,400.2,81.3z"/>
	<path class="st1" d="M520.4,669.4c-2.7,3-4.9,5.6-7.3,8.1c-7.3,7.5-16.9,8.9-24.2,3.5c-7-5.2-9.8-18.4-4.9-26.1
		c2.4-3.8,5.5-7.4,9-10.3c13.1-10.8,23.8-23.2,28.8-39.8c0.2-0.8,1.3-2,1.9-2c1,0.1,2.8,0.8,3,1.6c4,17.1,18,27.7,26.5,41.9
		c5.8,9.6,4.4,20.2-3,28.9c-7.2,8.5-16.5,8.8-24.2,0.7C524.2,674,522.6,671.9,520.4,669.4z"/>
	<path class="st1" d="M59.3,140.6c3-3.4,5.3-6.4,8-9c7.3-7.3,17.2-8.2,24.2-2.5c6.9,5.7,9.3,18.3,4,25.6c-3.6,5-8.1,9.5-12.8,13.5
		c-11.5,9.8-20.1,21.5-24.5,36.1c-0.3,1-1.5,2.2-2.4,2.3c-0.9,0-2.5-1.1-2.7-1.9c-3.5-15.9-16-26.1-24.5-38.8
		c-7.3-10.9-7.1-21,0.4-30.7c7.6-9.9,17.8-10.1,25.8-0.6C56.1,136.4,57.5,138.2,59.3,140.6z"/>
	<path class="st1" d="M534,746.2c-0.8,4.8-1.2,10.4-2.9,15.8c-0.6,2-4.3,4.7-6,4.3c-3.9-0.9-2.1-3.9-1.5-7c1.3-6.9,1.6-14,1.9-21
		c0.1-3.7-2.6-4.9-6-4.6c-3.1,0.3-6.4,0.2-6.7,4.8c-0.2,3.9-0.6,7.9-1.6,11.7c-0.4,1.7-2.4,3-3.6,4.5c-1.4-1.6-3.8-2.9-4.1-4.7
		c-0.8-4.5-1.9-9.6-0.5-13.6c2.7-7.5,1.2-14.8,1.3-22.2c0-1.9,2-3.8,3.1-5.7c1.4,1.7,2.9,3.4,4.2,5.1c0.2,0.3,0.2,0.8,0.2,1.2
		c0.5,3.5-0.2,8.1,1.7,10.1c1.9,1.9,6.5,1,10,1.5c4.8,0.7,8.2,3.1,9,8.1C533.2,738.3,533.5,741.8,534,746.2z"/>
	<path class="st1" d="M75.7,68c0,9.6,0.1,19.2-0.1,28.9c0,1.3-1.9,2.6-3,3.9c-1.4-1.2-3.6-2.2-4.1-3.6c-0.9-2.9-1-6.2-1-9.3
		c-0.1-3.7-1.5-5.3-5.3-4.9c-12.5,1.3-16.1-4.6-15.9-16c0.1-6.4,1-12.9,2.1-19.2c0.5-3.2,2.5-6.4,6.5-4.7c3.7,1.5,1.9,4.2,1.3,7.2
		c-1.3,6.9-1.6,14-1.8,21c-0.1,3.8,2.8,4.8,6.1,4.4c3-0.4,6.4,0,6.5-4.8c0.1-3.7,0.5-7.5,1.4-11.1c0.5-1.9,2.4-3.4,3.7-5.1
		c1.5,1.7,3.5,3.3,4.3,5.3c0.9,2.5,0.8,5.3,1.1,8L75.7,68z"/>
</g>
</svg>
