<?xml version="1.0" encoding="utf-8"?>
<!-- Generator: Adobe Illustrator 24.0.0, SVG Export Plug-In . SVG Version: 6.00 Build 0)  -->
<svg version="1.1" id="Layer_1" xmlns="http://www.w3.org/2000/svg" xmlns:xlink="http://www.w3.org/1999/xlink" x="0px" y="0px"
	 viewBox="0 0 578.6 809.5" style="enable-background:new 0 0 578.6 809.5;" xml:space="preserve">
<style type="text/css">
	.st0{fill:#FDFDFD;}
	.st1{fill:#090909;}
</style>
<g>
	<path class="st0" d="M539.6,809.5H39c-21.5,0-39-17.5-39-39V39C0,17.5,17.5,0,39,0h500.6c21.5,0,39,17.5,39,39v731.5
		C578.6,792,561.1,809.5,539.6,809.5z M235.8,151.3l-1.6-0.3c1.8-15.1-7.1-22.3-19.3-28c-15.6-7.2-24.8-19.2-24.8-37.2
		c0-1.5-1.8-3-2.8-4.5c-1,1.5-2.8,2.9-3,4.6c-0.4,3.3,1.2,7.2-0.2,9.8c-5.3,10-11.4,20.1-23.8,22.1c-17,2.8-26.6,12.9-30.4,28.9
		c-1,4.3-0.6,9.8,1.2,13.7c6.4,13.6,17.3,18.7,32.3,16.6c2.6-0.4,5.3-0.1,8-0.1c-1.1,2.8-2.2,5.6-3.2,8.5c-0.6,1.8-2.1,4.6-1.4,5.4
		c1.2,1.4,3.8,2.1,5.8,2.2c6,0.5,12.1,0.7,18.1,0.6c2.5,0,5-1.1,7.5-1.6c-0.6-2.6-1.2-5.2-1.8-7.8c-0.3-1.3-0.6-2.6-0.9-3.9
		c1.3-0.3,2.6-0.8,4-0.7c1.2,0,2.4,0.6,3.6,0.9c11.6,2.9,20.3-0.2,26-10.6C232.3,164.1,233.7,157.5,235.8,151.3z M397.3,193
		c3.8,0.3,7.4,0.8,10.9,0.6c2-0.1,4.7-1,5.7-2.5c0.8-1.1-0.3-3.8-0.8-5.6c-0.5-1.8-1.3-3.6-2-5.4c2.1,0,4.4-0.5,6.4,0
		c12.2,3,20.4,0.2,26.7-9.3c12.1-18.2,6.9-37.6-12.8-47.2c-15.9-7.7-25.8-19.3-25.8-37.9c0-1.5-1.8-3-2.8-4.5c-1,1.5-2.7,3-3,4.6
		c-0.4,3.3,1.1,7.2-0.2,9.8c-5.3,10-11.4,20.1-23.8,22.1c-17,2.8-26.6,12.9-30.4,28.9c-1,4.3-0.6,9.8,1.2,13.7
		c6.4,13.6,17.3,18.7,32.3,16.5c2.6-0.4,5.3-0.1,8-0.1c-1.1,2.8-2.1,5.6-3.2,8.4c-0.1,0.4-0.5,0.6-0.7,1c-2.3,3.9-1.1,6.4,3.4,6.7
		C390.1,193.2,393.9,193,397.3,193z M173,632.3c-0.5,0.8-0.5,0.7-1,1.5c-2.9-0.9-5.8-1.8-8.7-2.6c-14-4.1-23-0.3-29.8,12.4
		c-9,16.8-3.6,34.2,13.3,42.6c1.7,0.8,3.4,1.6,5.1,2.5c13.6,7.8,22.2,18.7,22.4,35.1c0,1.9,1.6,3.7,2.5,5.6c1.1-1.9,2.8-3.7,3.2-5.7
		c0.6-3.2-0.8-7.2,0.6-9.7c5.9-10.8,13.4-19.7,26.9-22.1c15.6-2.8,26.5-16,28-31.8c0.2-1.8,0-3.6-0.4-5.4
		c-3-11.3-14.2-20.4-25.9-20.7c-5.6-0.1-11.3,0.8-18.2,1.4c2-3.8,3.7-6.8,5.1-9.9c0.8-1.7,1.7-4,1.2-5.5c-0.4-1.1-3-1.9-4.7-1.9
		c-6.9-0.3-13.8-0.6-20.6-0.4c-2.1,0.1-5.5,1.3-5.9,2.8c-0.5,1.8,1.2,4.4,2.4,6.4C169.6,628.7,171.4,630.4,173,632.3z M388.5,632.2
		c-0.5,0.9-0.5,0.8-1,1.6c-3.2-1-6.4-2.1-9.7-3c-12.8-3.5-21.5,0.1-28,11.4c-10.1,17.5-4.8,35.5,13.5,44.3
		c16.1,7.8,26.5,19.2,26.5,38.2c0,1.5,1.9,3.1,2.9,4.6c1-1.6,2.6-3.2,2.8-4.9c0.4-3.3-1.1-7.3,0.3-9.8c5.4-10,11.5-19.7,24-22
		c13.6-2.4,22.8-9.3,28.1-22.6c6.6-16.7-3.7-35.2-21.7-36.1c-6.1-0.3-12.2,0.7-19.6,1.2c2-3.8,3.5-7,5.3-10.1c2.8-4.6,1.7-7-3.7-7.2
		c-7.1-0.3-14.2-0.5-21.3-0.3c-2,0-4.9,1.2-5.5,2.6c-0.6,1.5,0.6,4.2,1.8,6C384.6,628.3,386.7,630.2,388.5,632.2z M526,620.2
		c1.8-3.6,2.7-6,4-8.1c1.8-2.9,0.5-5.3-2.9-5.5c-5.9-0.3-11.8-0.3-17.8-0.3c-3.5,0-4.6,2.2-3.3,5c2.5,5.2,0.4,5.6-4.2,5
		c-12.5-1.8-21,4.5-23.3,17c-2.4,13.4,1.2,20.9,13.5,26.9c12.1,5.9,20.2,14.5,20.4,28.8c0,1.3,1.7,2.7,2.6,4c0.7-1.3,1.6-2.6,2.1-4
		c1.3-4.2,1.7-8.8,3.6-12.7c3.6-7.1,9.9-10.9,17.9-12.2c3-0.5,6-1.9,8.7-3.4c7.8-4.2,14.5-19,12.3-26.3c-3.2-10.5-13-16.6-24.9-15.6
		C532.6,619.1,530.4,619.6,526,620.2z M70.1,192.8c2.9,0.6,4.6,1,6.3,1.4c10.6,2.6,17.8-0.7,22.7-10.5c6.7-13.6,2.3-26.5-11.6-33.3
		c-12.2-6-20.1-14.6-20.1-29c0-1.3-1.4-2.6-2.2-3.8c-0.9,1.4-2.3,2.6-2.6,4.1c-0.7,3,0.1,6.5-1.2,9c-4.3,8.2-10.3,14.5-20.3,15.9
		c-3.2,0.4-6.4,2.1-9.2,3.7c-9,5.3-14.7,21.1-10.5,28.8c5.4,10.1,13.4,14.2,24.9,12.7c2-0.3,3.9-0.6,7.5-1.2
		c-1.7,3.4-2.7,5.8-3.9,7.9c-2.2,3.6-1.3,5.5,2.9,5.7c3.7,0.2,7.5,0.2,11.3,0.2C76.1,204.7,76.1,204.7,70.1,192.8z M510.4,728.2
		c0-4,0.1-7.4,0-10.9c-0.1-3.2-0.2-7.1-4.4-6.6c-1.7,0.2-3.8,3.9-4.1,6.2c-1.1,9.4-1.7,18.9-2.3,28.4c-0.1,1.2,0.6,3.1,1.6,3.7
		c1.9,1.1,5.7,2.3,6,1.8c1.5-2.4,3.1-5.4,2.8-8c-0.9-7.1,4.4-7,8.2-7.3c5.4-0.3,4,4.4,3.6,7.4c-0.7,5.6-2.2,11-2.8,16.6
		c-0.2,1.7,1.8,3.5,2.8,5.3c1.7-1.2,4.5-2.1,4.8-3.6c1.5-7.4,3.1-15,3.3-22.5c0.2-7.7-6-12.9-13.6-11.4
		C514.5,727.7,512.8,727.8,510.4,728.2z M69.4,82.6c0,4-0.6,7.5,0.2,10.8c0.6,2.5,2.5,6.4,4.3,6.7c4.2,0.7,4.2-3.3,4.5-6.5
		c0.7-9.5,1.9-18.9,1.9-28.4c0-1.9-3.7-4.2-6.1-5.5c-0.5-0.3-3.3,2.7-4.3,4.5c-0.7,1.3-0.3,3.3-0.1,4.9c1,6.7-4.8,5.4-7.9,6.1
		c-4.5,1-4.1-3.2-3.8-5.9c0.8-6,2.3-11.9,2.8-17.9c0.2-1.8-2-3.8-3.1-5.7c-1.6,1.3-4.3,2.3-4.6,3.9C51.7,57,50.1,64.5,49.9,72
		c-0.2,7.9,6.1,13,13.8,11.4C65.4,83.1,67.1,82.9,69.4,82.6z"/>
	<path class="st1" d="M235.8,151.3c-2.1,6.2-3.5,12.8-6.6,18.4c-5.8,10.4-14.4,13.5-26,10.6c-1.2-0.3-2.4-0.9-3.6-0.9
		c-1.3,0-2.6,0.5-4,0.7c0.3,1.3,0.6,2.6,0.9,3.9c0.6,2.6,1.2,5.2,1.8,7.8c-2.5,0.6-5,1.6-7.5,1.6c-6,0.1-12.1-0.2-18.1-0.6
		c-2.1-0.2-4.6-0.8-5.8-2.2c-0.7-0.8,0.8-3.6,1.4-5.4c1-2.8,2.1-5.6,3.2-8.5c-2.7,0-5.4-0.3-8,0.1c-15,2.1-25.9-3-32.3-16.6
		c-1.9-3.9-2.2-9.4-1.2-13.7c3.8-16,13.4-26.1,30.4-28.9c12.4-2,18.5-12.1,23.8-22.1c1.4-2.6-0.2-6.6,0.2-9.8c0.2-1.6,2-3.1,3-4.6
		c1,1.5,2.8,3,2.8,4.5c0,18,9.2,30,24.8,37.2c12.2,5.6,21.1,12.8,19.3,28C234.7,151.1,235.3,151.2,235.8,151.3z M195.2,180
		c-0.1-0.3-0.3-0.5-0.4-0.8c-0.1,0.1-0.4,0.3-0.4,0.4c0.1,0.3,0.3,0.6,0.4,0.8C194.9,180.3,195,180.1,195.2,180z"/>
	<path class="st1" d="M397.3,193c-3.4,0-7.2,0.2-10.9,0c-4.5-0.3-5.7-2.7-3.4-6.7c0.2-0.4,0.6-0.6,0.7-1c1.1-2.8,2.2-5.6,3.2-8.4
		c-2.7,0-5.4-0.3-8,0.1c-15,2.1-25.9-3-32.3-16.5c-1.9-3.9-2.3-9.4-1.2-13.7c3.8-16,13.4-26.1,30.4-28.9c12.4-2,18.5-12.1,23.8-22.1
		c1.4-2.6-0.2-6.6,0.2-9.8c0.2-1.6,1.9-3.1,3-4.6c1,1.5,2.8,3,2.8,4.5c0,18.6,9.9,30.2,25.8,37.9c19.7,9.6,24.9,29,12.8,47.2
		c-6.3,9.5-14.6,12.2-26.7,9.3c-2-0.5-4.2,0-6.4,0c0.7,1.8,1.5,3.5,2,5.4s1.6,4.5,0.8,5.6c-1.1,1.5-3.7,2.4-5.7,2.5
		C404.7,193.8,401.1,193.3,397.3,193z M410.3,179.3c-0.3,0.1-0.5,0.3-0.8,0.4c0.1,0.1,0.3,0.4,0.4,0.4c0.3-0.1,0.6-0.3,0.8-0.4
		C410.6,179.7,410.5,179.5,410.3,179.3z"/>
	<path class="st1" d="M173,632.3c-1.6-1.9-3.5-3.6-4.7-5.6s-2.9-4.6-2.4-6.4c0.4-1.4,3.8-2.7,5.9-2.8c6.9-0.2,13.8,0,20.6,0.4
		c1.7,0.1,4.3,0.8,4.7,1.9c0.5,1.5-0.4,3.8-1.2,5.5c-1.4,3.1-3.1,6.1-5.1,9.9c6.9-0.6,12.6-1.5,18.2-1.4c11.7,0.3,23,9.6,26,20.9
		c0.5,1.8,0.6,3.7,0.4,5.6c-1.6,15.6-12.5,28.7-28,31.5c-13.5,2.4-21,11.3-26.9,22.1c-1.4,2.6,0,6.5-0.6,9.7c-0.4,2-2.1,3.8-3.2,5.7
		c-0.9-1.9-2.4-3.7-2.5-5.6c-0.2-16.4-8.8-27.3-22.4-35.1c-1.6-0.9-3.4-1.7-5.1-2.5c-16.9-8.4-22.3-25.8-13.3-42.6
		c6.8-12.7,15.8-16.5,29.8-12.4c2.9,0.8,5.8,1.7,8.6,2.6C172.3,633.3,172.7,632.8,173,632.3z"/>
	<path class="st1" d="M388.5,632.2c-1.8-2-4-3.9-5.4-6.2c-1.1-1.8-2.4-4.4-1.8-6c0.6-1.4,3.6-2.5,5.5-2.6c7.1-0.2,14.2,0.1,21.3,0.3
		c5.4,0.2,6.4,2.6,3.7,7.2c-1.8,3.1-3.4,6.3-5.3,10.1c7.4-0.5,13.5-1.6,19.6-1.2c18,0.9,28.4,19.5,21.7,36.1
		c-5.3,13.4-14.5,20.2-28.1,22.6c-12.5,2.2-18.6,12-24,22c-1.4,2.6,0.1,6.6-0.3,9.8c-0.2,1.7-1.8,3.3-2.8,4.9
		c-1-1.5-2.9-3.1-2.9-4.6c0.1-19-10.4-30.4-26.5-38.2c-18.2-8.8-23.6-26.8-13.5-44.3c6.6-11.3,15.3-14.9,28-11.4
		c3.1,0.9,6.2,1.9,9.3,2.9C387.6,633.2,388.1,632.7,388.5,632.2z"/>
	<path class="st1" d="M526,620.2c4.3-0.7,6.5-1.1,8.8-1.4c11.9-1.1,21.7,5.1,24.9,15.6c2.2,7.3-4.5,22-12.3,26.3
		c-2.7,1.5-5.7,2.9-8.7,3.4c-8,1.3-14.2,5.2-17.9,12.2c-2,3.8-2.4,8.4-3.6,12.7c-0.4,1.4-1.4,2.7-2.1,4c-0.9-1.3-2.6-2.7-2.6-4
		c-0.2-14.4-8.3-22.9-20.4-28.8c-12.3-6-15.9-13.5-13.5-26.9c2.2-12.4,10.7-18.7,23.3-17c4.6,0.6,6.7,0.2,4.2-5
		c-1.3-2.8-0.2-5,3.3-5c6,0,12.1,0,18.1,0.3c3.8,0.2,4.5,2.2,2.5,5.5C528.8,614.2,527.8,616.6,526,620.2z M508.5,615.9
		c-0.1-0.1-0.3-0.4-0.4-0.4c-0.3,0.1-0.6,0.3-0.8,0.4c0.1,0.1,0.3,0.4,0.4,0.4C507.9,616.2,508.2,616.1,508.5,615.9z"/>
	<path class="st1" d="M70.1,192.8c6,11.9,6,11.9-6.2,11.7c-3.8-0.1-7.5,0-11.3-0.2c-4.2-0.2-5.1-2.1-2.9-5.7
		c1.3-2.1,2.3-4.5,3.9-7.9c-3.6,0.6-5.5,0.9-7.5,1.2c-11.5,1.5-19.5-2.6-24.9-12.7c-4.1-7.7,1.5-23.5,10.5-28.8
		c2.8-1.7,6-3.3,9.2-3.7c10-1.3,16-7.7,20.3-15.9c1.3-2.5,0.6-6,1.2-9c0.3-1.5,1.7-2.7,2.6-4.1c0.8,1.3,2.2,2.6,2.2,3.8
		c0,14.4,7.9,23,20.1,29c13.9,6.8,18.3,19.7,11.6,33.3c-4.8,9.7-12.1,13.1-22.7,10.5C74.6,193.8,72.9,193.4,70.1,192.8z"/>
	<path class="st1" d="M510.4,728.2c2.2-0.3,3.8-0.4,5.4-0.7c8.5-1.6,14.3,2.4,14.1,11c-0.2,7.6-1.8,15.2-3.4,22.8
		c-0.3,1.5-3.1,2.4-4.8,3.6c-1-1.8-3-3.7-2.8-5.3c0.5-5.6,2.1-11,2.8-16.6c0.4-3,1.8-7.7-3.6-7.4c-3.9,0.2-9.1,0.2-8.2,7.3
		c0.3,2.6-1.3,5.7-2.8,8c-0.3,0.5-4.1-0.8-6-1.8c-0.9-0.5-1.7-2.4-1.6-3.7c0.6-9.5,1.2-19,2.3-28.4c0.3-2.3,2.4-6,4.1-6.2
		c4.3-0.5,4.4,3.4,4.4,6.6C510.4,720.7,510.4,724.2,510.4,728.2z"/>
	<path class="st1" d="M69.4,82.6c-2.1,0.3-3.7,0.5-5.3,0.8c-8.4,1.6-14.3-2.5-14.2-11c0.2-7.6,1.8-15.3,3.3-22.8
		c0.3-1.5,3-2.6,4.6-3.9c1.1,1.9,3.2,3.9,3.1,5.7c-0.5,6-2.1,11.9-2.8,17.9c-0.3,2.7-0.8,6.9,3.8,5.9c3.1-0.7,8.9,0.6,7.9-6.1
		c-0.2-1.6-0.6-3.6,0.1-4.9c1-1.9,3.8-4.8,4.3-4.5c2.4,1.3,6.2,3.6,6.1,5.5c-0.1,9.5-1.2,18.9-1.9,28.4c-0.2,3.2-0.2,7.2-4.5,6.5
		c-1.8-0.3-3.7-4.2-4.3-6.7C68.8,90.1,69.4,86.5,69.4,82.6z"/>
</g>
</svg>
