<?xml version="1.0" encoding="utf-8"?>
<!-- Generator: Adobe Illustrator 24.0.0, SVG Export Plug-In . SVG Version: 6.00 Build 0)  -->
<svg version="1.1" id="Layer_1" xmlns="http://www.w3.org/2000/svg" xmlns:xlink="http://www.w3.org/1999/xlink" x="0px" y="0px"
	 viewBox="0 0 578.2 809.5" style="enable-background:new 0 0 578.2 809.5;" xml:space="preserve">
<style type="text/css">
	.st0{fill:#FEFEFE;}
	.st1{fill:#FE1C1C;}
</style>
<g>
	<path class="st0" d="M0,770.5C0,526.7,0,282.8,0,39C0,17.5,17.5,0,39,0c166.7,0,333.5,0,500.2,0c21.5,0,39,17.5,39,39
		c0,243.8,0,487.7,0,731.5c0,21.5-17.5,39-39,39H39C17.5,809.5,0,792,0,770.5z M291.9,330.9c-1.2,1.4-3.2,3.1-4,5.2
		c-1.8,5-3,10.3-4.6,15.5c-4.1,12.8-8.4,25.6-16.3,36.7c-4.6,6.3-9.9,12-15.1,17.8c-2.9,3.3-3.5,6.4-1.2,9.3
		c5.3,6.9,11.2,13.4,15.8,20.7c4.7,7.6,8.7,15.7,11.7,24c2.2,6.1,2.5,13,3.4,19.6c0.4,2.8,1.9,5.1,4.3,5c1.7-0.1,3.4-2.4,4.7-4
		c0.7-0.9,0.5-2.5,0.5-3.7c0.1-9.1,2.3-17.9,6.5-25.8c8-15,19.1-27.5,32.5-37.9c3-2.3,3.1-4.8,0.4-7.4c-2.1-1.9-4.1-3.9-6.3-5.6
		c-9-6.8-14.5-16.1-17.4-26.5c-3.3-12.3-5.4-25-7.8-37.5C298.2,332.6,296,331.7,291.9,330.9z M412.1,60.9c-1,1.1-2.8,2.3-3.7,4
		c-1.1,2.1-1.4,4.6-2.3,6.9c-4.3,11.5-7.7,23.4-13.2,34.3c-4,7.9-10.7,14.6-16.5,21.6c-3.2,3.8-3.9,6.4-1.4,9.5
		c4.7,5.9,9.5,11.7,13.8,17.9c7.8,11.4,13.2,23.7,13.4,37.8c0,3.2,1.1,5.7,4.4,6.2c2.3,0.4,4.4-2.9,4.5-6.6
		c0.3-12.4,4.3-23.6,11.8-33.5c6.9-8.9,14-17.7,23.2-24.4c2.7-1.9,2.6-4.2,0.3-6.5c-1.9-1.8-3.7-3.6-5.7-5.2
		c-8-6.1-13-14.3-15.6-23.7c-3-11.1-4.9-22.5-7-33.8C417.6,62.5,415.7,61.6,412.1,60.9z M126.3,131.4c0.7,1.4,1.1,2.6,1.9,3.6
		c1.9,2.5,4.1,4.9,6,7.5c7.8,10,15.2,20.4,18.6,32.9c1.5,5.4,2,11,2.8,16.6c0.4,2.6,1,5.2,4.1,5c2.8-0.1,4-2.5,4.1-5.2
		c0-0.5-0.1-1,0-1.5c0.9-5.2,1.2-10.5,2.7-15.4c5.1-16.4,16.9-28.1,29-39.5c6.7-6.3,7-6.2-0.5-12.1c-7.5-5.9-12.7-13.4-16.2-22
		c-4.7-11.4-6.3-23.5-7.7-35.5c-0.4-3.1-1.3-5.3-4.5-5.6c-3.4-0.3-4.7,2.1-5.5,4.8c-1.7,5.9-3.3,11.8-5.2,17.7
		c-5.4,16.8-13.2,32.2-26.6,44.3C127.9,128.1,127.2,129.9,126.3,131.4z M452.5,677.3c-0.7-1.5-1.1-2.7-1.8-3.7
		c-4.3-5.7-8.9-11.2-13.1-17.1c-8.3-11.8-13.9-24.7-14.3-39.5c-0.1-2.6-0.7-5.2-3.8-5.3c-3.2,0-4.1,2.6-4.3,5.4
		c-0.2,2.5-0.1,5.1-0.5,7.7c-3.1,21-16.6,35.5-31.5,48.5c-6.8,6-5.7,6.5,0.8,12.2c0.8,0.7,1.6,1.3,2.3,1.9
		c6.9,5.5,10.9,12.9,14.2,20.9c4.5,11,5.9,22.8,7.4,34.4c0.4,3,1.1,5.3,4.4,5.7c3.5,0.4,4.7-2.1,5.5-4.8c1.1-3.7,2-7.4,3.1-11.1
		c5.6-19,13.3-36.9,28.4-50.6C450.8,680.8,451.5,678.9,452.5,677.3z M205.4,675.8c-0.7-1.5-1-2.7-1.7-3.7
		c-4.3-5.7-8.9-11.2-13.1-17.1c-8.3-11.7-13.9-24.5-14.3-39.1c-0.1-2.7-0.5-5.3-3.7-5.8c-2.4-0.3-4.2,2.4-4.4,6.1
		c-0.1,2.8-0.2,5.6-0.7,8.4c-2,12.3-8.1,22.6-16,31.8c-4.8,5.5-9.6,11.2-15.4,15.5c-6.9,5.2-5.7,6.1,0.6,11.7c0.8,0.7,1.6,1.3,2.4,2
		c7.1,5.5,11.2,13,14.5,21c4.6,11.1,6,23,7.5,34.8c0.4,2.9,1.2,5,4.3,5.4c3.2,0.4,4.6-1.8,5.4-4.4c1.2-3.9,2.2-7.9,3.3-11.8
		c5.6-18.9,13.2-36.6,28.2-50.2C203.6,679.3,204.3,677.4,205.4,675.8z M551.2,632.7c-0.9-1.3-1.5-2.6-2.3-3.6
		c-9.8-11.7-18.5-24-19.1-40.1c-0.1-1.2-1.8-2.4-2.8-3.6c-1.2,1.1-3,2.1-3.4,3.5c-0.8,2.4-0.6,5.1-1,7.6
		c-2.5,14.5-12.2,24.2-22.3,33.6c-4.3,4-4.8,5.3,0.1,9c8.5,6.4,12.7,15.3,14.9,25.3c1.2,5.5,1.8,11.1,3,16.6
		c0.3,1.5,2.1,3.3,3.5,3.6c1.1,0.3,3.1-1.3,4-2.5c1-1.5,1.3-3.6,1.8-5.4c3.9-15.1,10-29.1,21.5-40.1
		C549.9,635.5,550.4,634.1,551.2,632.7z M27.9,175.8c0.6,1.2,0.8,2.2,1.4,2.9c1.6,2,3.3,3.9,4.9,5.9c8,10.2,14.4,21.1,15,34.6
		c0.1,1.4,2,2.8,3.1,4.2c1.1-1.2,2.8-2.3,3.2-3.7c0.7-2.5,0.5-5.3,1-8c2.7-14.1,12.2-23.7,22.1-32.9c4.6-4.2,5-5.4,0-9.2
		c-8.4-6.3-12.5-15.1-14.7-24.9c-1.3-5.6-1.8-11.4-3.1-17c-0.3-1.4-2-3.5-3.1-3.5c-1.4-0.1-3.4,1.3-4.3,2.6
		c-1.1,1.5-1.3,3.6-1.8,5.4c-3.9,15.1-10,29.1-21.5,40.1C29.1,173.2,28.6,174.6,27.9,175.8z M529,749.4c1.4,4.5-0.5,7-5.4,6.2
		c-1-0.2-2-0.4-3-0.6c-6.6-1.1-15,2.1-17.7,6.8c-1.2,2.1-1,3.9,0.8,5.5s3.8,1.7,5.4-0.2c3.2-3.7,7.3-4,11.6-3.2
		c3.6,0.7,7.2,1.8,10.8,2.6c3.3,0.7,5.7-0.8,5.8-3.8c0.2-4.9,0.6-9.7,0.3-14.6c-0.2-4-0.9-8.1-2.1-11.9c-1.1-3.5-4.1-4.3-6.9-2
		c-1.2,1-2.2,2.4-2.9,3.8c-1.2,2.4-3.2,3-5.5,2.3c-2.1-0.7-4.4-1.6-6.1-3c-5.3-4.4-4.7-13.1,0.7-15.8c6-3,14.5-1.5,19.2,3.3
		c1.6,1.7,3,3.5,4.4,5.3c1.7,2.1,3.8,2.8,6,1.1c2.1-1.6,2.4-4,0.8-5.8c-5.2-6.1-9.9-13.1-19.1-13.5c-6.4-0.3-13-0.3-18.3,4.1
		c-5.2,4.3-7,10.1-5.6,16.6c1.6,7.2,5.3,13,12.8,15C519.6,748.8,524.2,748.9,529,749.4z M50,59.2c-1.5-4.2,0.4-6.9,5.2-6.1
		c1.1,0.2,2.3,0.5,3.4,0.6c6.4,0.2,12.6-0.3,17-6c1.6-2.1,2.1-4.2-0.1-6.1c-2.1-1.8-3.9-1.1-6.2,0.4c-2.2,1.5-5,2.9-7.5,2.9
		c-3.6,0.1-7.4-0.8-10.9-1.8c-7.6-2.1-8.4-1.7-9,5.9c0,0.5-0.3,1-0.3,1.5c0.4,6.9,0.5,13.8,1.3,20.6c0.2,1.7,2.4,3.9,4.1,4.3
		c1.4,0.3,3.4-1.6,5-2.7c0.7-0.5,0.8-1.7,1.5-2.2c1.4-0.9,3.1-2.3,4.4-2.1c2.5,0.5,5.3,1.5,7.2,3.1c4.9,4.2,4.4,12.6-0.5,15.4
		c-5.1,2.9-14.5,1.9-18.7-2.3c-2.1-2-3.6-4.8-5.9-6.5c-1.3-1-3.9-1.2-5.4-0.5c-2.2,0.9-2.6,3.4-1.1,5.3c5.2,6.5,10.1,13.6,19.6,14
		c6.3,0.2,12.7,0.3,17.9-4.1c5.2-4.4,7.1-10.3,5.5-17c-1.7-7-5.3-12.7-12.6-14.7C59.5,59.9,54.9,59.8,50,59.2z"/>
	<path class="st1" d="M291.9,330.9c4.1,0.8,6.3,1.7,7,5.2c2.4,12.5,4.5,25.2,7.8,37.5c2.8,10.5,8.4,19.8,17.4,26.5
		c2.2,1.7,4.3,3.7,6.3,5.6c2.8,2.6,2.6,5.1-0.4,7.4c-13.4,10.4-24.6,22.9-32.5,37.9c-4.2,7.9-6.4,16.7-6.5,25.8
		c0,1.3,0.2,2.9-0.5,3.7c-1.3,1.7-3,3.9-4.7,4c-2.5,0.1-4-2.2-4.3-5c-0.9-6.6-1.2-13.5-3.4-19.6c-3-8.3-7.1-16.5-11.7-24
		c-4.6-7.4-10.4-13.9-15.8-20.7c-2.2-2.8-1.7-5.9,1.2-9.3c5.2-5.8,10.6-11.5,15.1-17.8c8-11,12.2-23.8,16.3-36.7
		c1.6-5.1,2.7-10.4,4.6-15.5C288.7,334,290.7,332.4,291.9,330.9z"/>
	<path class="st1" d="M412.1,60.9c3.6,0.7,5.5,1.6,6.1,4.7c2.2,11.3,4,22.7,7,33.8c2.5,9.4,7.6,17.6,15.6,23.7
		c2,1.5,3.8,3.4,5.7,5.2c2.3,2.2,2.4,4.6-0.3,6.5c-9.3,6.7-16.4,15.5-23.2,24.4c-7.5,9.8-11.5,21-11.8,33.5
		c-0.1,3.7-2.2,6.9-4.5,6.6c-3.4-0.5-4.4-3-4.4-6.2c-0.2-14.1-5.6-26.5-13.4-37.8c-4.3-6.2-9.2-12-13.8-17.9
		c-2.4-3.1-1.7-5.7,1.4-9.5c5.8-7,12.4-13.6,16.5-21.6c5.5-10.9,8.9-22.8,13.2-34.3c0.8-2.3,1.2-4.8,2.3-6.9
		C409.3,63.2,411.1,61.9,412.1,60.9z"/>
	<path class="st1" d="M126.3,131.4c1-1.5,1.7-3.3,2.9-4.4c13.4-12.1,21.1-27.5,26.6-44.3c1.9-5.8,3.5-11.8,5.2-17.7
		c0.8-2.8,2.1-5.1,5.5-4.8c3.3,0.3,4.2,2.4,4.5,5.6c1.4,12.1,3,24.2,7.7,35.5c3.6,8.6,8.7,16.2,16.2,22c7.6,5.9,7.2,5.8,0.5,12.1
		c-12.1,11.3-23.9,23-29,39.5c-1.5,4.9-1.8,10.3-2.7,15.4c-0.1,0.5,0,1,0,1.5c-0.1,2.7-1.2,5.1-4.1,5.2c-3.1,0.1-3.7-2.4-4.1-5
		c-0.8-5.6-1.3-11.2-2.8-16.6c-3.4-12.4-10.8-22.8-18.6-32.9c-2-2.5-4.1-4.9-6-7.5C127.4,134.1,127,132.8,126.3,131.4z"/>
	<path class="st1" d="M452.5,677.3c-1,1.6-1.7,3.5-3,4.7c-15.1,13.7-22.8,31.5-28.4,50.6c-1.1,3.7-2,7.4-3.1,11.1
		c-0.8,2.7-2,5.2-5.5,4.8c-3.3-0.4-4-2.7-4.4-5.7c-1.5-11.7-2.9-23.4-7.4-34.4c-3.3-7.9-7.3-15.4-14.2-20.9
		c-0.8-0.6-1.6-1.2-2.3-1.9c-6.5-5.7-7.6-6.3-0.8-12.2c14.9-13.1,28.4-27.6,31.5-48.5c0.4-2.5,0.3-5.1,0.5-7.7
		c0.2-2.7,1.1-5.4,4.3-5.4c3.1,0,3.7,2.7,3.8,5.3c0.4,14.8,6,27.7,14.3,39.5c4.1,5.9,8.7,11.4,13.1,17.1
		C451.4,674.5,451.8,675.8,452.5,677.3z"/>
	<path class="st1" d="M205.4,675.8c-1,1.6-1.8,3.5-3.1,4.7c-15,13.6-22.6,31.4-28.2,50.2c-1.2,3.9-2.1,7.9-3.3,11.8
		c-0.8,2.6-2.2,4.8-5.4,4.4c-3.1-0.4-3.9-2.5-4.3-5.4c-1.5-11.8-2.9-23.7-7.5-34.8c-3.3-8-7.4-15.6-14.5-21c-0.8-0.6-1.7-1.3-2.4-2
		c-6.3-5.6-7.5-6.5-0.6-11.7c5.8-4.3,10.6-10,15.4-15.5c7.9-9.2,14.1-19.5,16-31.8c0.4-2.8,0.6-5.6,0.7-8.4c0.2-3.7,2-6.5,4.4-6.1
		c3.3,0.5,3.7,3.1,3.7,5.8c0.5,14.6,6.1,27.4,14.3,39.1c4.1,5.8,8.7,11.3,13.1,17.1C204.4,673.1,204.7,674.3,205.4,675.8z"/>
	<path class="st1" d="M551.2,632.7c-0.8,1.4-1.3,2.8-2.3,3.7c-11.5,11-17.6,25-21.5,40.1c-0.5,1.9-0.8,3.9-1.8,5.4
		c-0.8,1.3-2.9,2.8-4,2.5c-1.4-0.3-3.1-2.2-3.5-3.6c-1.3-5.5-1.8-11.1-3-16.6c-2.2-10-6.4-18.9-14.9-25.3c-4.9-3.7-4.4-5-0.1-9
		c10.1-9.4,19.8-19.1,22.3-33.6c0.4-2.5,0.3-5.2,1-7.6c0.4-1.4,2.2-2.3,3.4-3.5c1,1.2,2.7,2.4,2.8,3.6c0.6,16.1,9.3,28.4,19.1,40.1
		C549.7,630.1,550.3,631.3,551.2,632.7z"/>
	<path class="st1" d="M27.9,175.8c0.7-1.2,1.2-2.6,2.2-3.5c11.6-11,17.6-25,21.5-40.1c0.5-1.9,0.7-4,1.8-5.4
		c0.9-1.3,2.9-2.7,4.3-2.6c1.1,0.1,2.8,2.1,3.1,3.5c1.2,5.6,1.8,11.4,3.1,17c2.2,9.8,6.3,18.6,14.7,24.9c5.1,3.8,4.6,5,0,9.2
		c-9.9,9.2-19.4,18.8-22.1,32.9c-0.5,2.6-0.3,5.4-1,8c-0.4,1.4-2.1,2.5-3.2,3.7c-1.1-1.4-3-2.7-3.1-4.2c-0.6-13.5-7-24.4-15-34.6
		c-1.6-2-3.3-3.9-4.9-5.9C28.7,178,28.4,177,27.9,175.8z"/>
	<path class="st1" d="M529,749.4c-4.8-0.6-9.4-0.6-13.7-1.7c-7.5-2-11.2-7.8-12.8-15c-1.4-6.5,0.4-12.3,5.6-16.6
		c5.3-4.4,11.8-4.4,18.3-4.1c9.2,0.4,13.9,7.4,19.1,13.5c1.6,1.8,1.3,4.3-0.8,5.8c-2.3,1.7-4.3,1-6-1.1c-1.5-1.8-2.8-3.7-4.4-5.3
		c-4.7-4.9-13.2-6.3-19.2-3.3c-5.5,2.7-6,11.4-0.7,15.8c1.7,1.4,4,2.3,6.1,3c2.3,0.7,4.2,0.1,5.5-2.3c0.7-1.4,1.7-2.8,2.9-3.8
		c2.8-2.3,5.8-1.5,6.9,2c1.2,3.8,1.9,7.9,2.1,11.9c0.3,4.8-0.1,9.7-0.3,14.6c-0.1,2.9-2.6,4.5-5.8,3.8c-3.6-0.8-7.2-2-10.8-2.6
		c-4.3-0.8-8.4-0.5-11.6,3.2c-1.6,1.9-3.6,1.8-5.4,0.2c-1.8-1.6-2-3.4-0.8-5.5c2.8-4.7,11.1-7.9,17.7-6.8c1,0.2,2,0.4,3,0.6
		C528.5,756.4,530.4,753.9,529,749.4z"/>
	<path class="st1" d="M50,59.2c4.8,0.6,9.5,0.7,13.8,1.8c7.3,2,11,7.7,12.6,14.7c1.6,6.7-0.3,12.6-5.5,17S59.3,97,53,96.8
		c-9.5-0.4-14.4-7.5-19.6-14c-1.5-1.8-1-4.4,1.1-5.3c1.5-0.6,4.1-0.4,5.4,0.5c2.3,1.7,3.8,4.5,5.9,6.5c4.3,4.1,13.6,5.2,18.7,2.3
		c4.9-2.8,5.4-11.2,0.5-15.4c-1.9-1.7-4.7-2.6-7.2-3.1c-1.3-0.2-3,1.2-4.4,2.1c-0.7,0.5-0.8,1.7-1.5,2.2c-1.6,1.1-3.6,3-5,2.7
		c-1.7-0.4-3.9-2.6-4.1-4.3c-0.8-6.8-1-13.7-1.3-20.6c0-0.5,0.2-1,0.3-1.5c0.6-7.6,1.5-8,9-5.9c3.5,1,7.3,1.9,10.9,1.8
		c2.5-0.1,5.4-1.4,7.5-2.9c2.2-1.6,4.1-2.3,6.2-0.4c2.2,1.9,1.7,4.1,0.1,6.1c-4.4,5.7-10.5,6.2-17,6c-1.1,0-2.3-0.4-3.4-0.6
		C50.4,52.4,48.5,55,50,59.2z"/>
</g>
</svg>
