<?xml version="1.0" encoding="utf-8"?>
<!-- Generator: Adobe Illustrator 24.0.0, SVG Export Plug-In . SVG Version: 6.00 Build 0)  -->
<svg version="1.1" id="Layer_1" xmlns="http://www.w3.org/2000/svg" xmlns:xlink="http://www.w3.org/1999/xlink" x="0px" y="0px"
	 viewBox="0 0 578.6 809.5" style="enable-background:new 0 0 578.6 809.5;" xml:space="preserve">
<style type="text/css">
	.st0{fill:#FDFDFD;}
	.st1{fill:#070707;}
</style>
<g>
	<path class="st0" d="M0,770.5V39C0,17.5,17.5,0,39,0h500.6c21.5,0,39,17.5,39,39v731.5c0,21.5-17.5,39-39,39H39
		C17.5,809.5,0,792,0,770.5z M172.4,166.7c0.6,0.6,0.6,0.6,1.2,1.2c-1.7,3.5-2.7,7.6-5.1,10.5c-3.3,4-7.7,7-11.3,10.7
		c-1.2,1.2-2.4,3.4-2.1,4.6c0.3,1.1,2.8,2.1,4.4,2.2c10.4,0.8,20.8,1.5,31.2,1.8c3.6,0.1,7.3-0.8,10.8-1.6c1.4-0.3,2.6-1.7,3.9-2.6
		c-1-1.2-1.8-2.7-3-3.6c-5.2-3.8-10.7-7.2-15.8-11.2c-5.2-4.2-6-7.3-4.2-13.1c8.7,7.2,18.5,11,29.8,11.1c7.5,0.1,12.8-3.3,16.3-9.6
		c5.1-9.2,4.8-18.8,1.8-28.5c-2.3-7.3-7.3-12.2-14.8-13.7c-3.7-0.8-7.7-0.6-12-0.9c0.3-1.9,0.7-3.8,0.8-5.8c0.4-9,1-18.2-6.1-25.3
		c-6.8-6.8-21.9-8.6-31.2-4c-9.5,4.6-14.5,14-13.3,25.3c0.5,4.6,1.4,9.2,2.2,14.4c-3.2-0.4-5.5-0.6-7.7-1
		c-16-2.6-27.2,8.4-27.4,24.7c-0.2,12,18.5,26.6,32.7,22C159.8,172.2,166,169.2,172.4,166.7z M409.2,168.1c8,3.2,15.4,7.2,23.3,8.8
		c5.5,1.1,12.6,0.7,17.4-1.9c14.2-8,13.8-37.6-0.1-46.3c-2.1-1.3-4.5-2.3-6.9-2.7c-3.7-0.6-7.6-0.6-11.7-0.8c0.3-2,0.8-3.8,0.9-5.7
		c0.5-8.6,1-17.3-5.1-24.4c-6.2-7.3-21.6-9.8-31.4-5.4c-9.6,4.3-15.2,14-14.1,24.8c0.5,4.8,1.4,9.6,2.2,15.1c-3-0.3-5.3-0.5-7.5-0.8
		c-16.4-2.6-28.4,8.5-27.3,25.1c0.9,14.1,18.3,25.7,32.8,21.4c6.3-1.9,12.3-4.9,18.5-7.4c0.6,0.6,0.6,0.6,1.2,1.2
		c-1.6,3.5-2.5,7.5-4.9,10.3c-3.4,4.1-7.9,7.3-11.8,11.1c-1.1,1-2.3,3.4-1.8,4.1c0.8,1.3,2.8,2.3,4.4,2.4
		c10.4,0.8,20.8,1.5,31.2,1.8c3.8,0.1,7.7-0.9,11.4-1.7c1.2-0.3,2.2-1.5,3.4-2.4c-0.9-1.2-1.6-2.8-2.8-3.7
		c-5.2-3.8-10.7-7.2-15.8-11.2C410.9,177,408,173.1,409.2,168.1z M317.2,382.1c0.3-2.1,0.8-3.9,0.9-5.7c0.5-8.6,0.9-17.3-5.1-24.4
		c-6.2-7.3-21.6-9.7-31.4-5.3c-9.6,4.3-15.2,14-14,24.9c0.5,4.8,1.4,9.6,2.2,15.1c-3.1-0.3-5.3-0.5-7.5-0.8
		c-16.4-2.6-28.4,8.5-27.2,25.2c1,14.1,18.4,25.6,32.9,21.3c6.3-1.9,12.3-4.9,18.5-7.4c0.6,0.6,0.6,0.6,1.2,1.2
		c-1.6,3.5-2.6,7.5-4.9,10.4c-3.2,4-7.6,7-11.3,10.7c-1.2,1.2-2.5,3.3-2.2,4.6c0.2,1.1,2.8,2.2,4.4,2.3c10.4,0.8,20.8,1.5,31.2,1.8
		c3.6,0.1,7.3-0.8,10.8-1.6c1.4-0.3,2.6-1.6,3.9-2.5c-1.1-1.3-2-3-3.4-4c-5-3.7-10.4-7-15.2-10.9c-3.8-3.1-7-7-5.3-12
		c7.3,3.1,14.1,7,21.3,8.8c18.4,4.5,29.6-4.8,29.4-23.9c0-4.5-0.9-9.2-2.2-13.5c-2.1-7.1-7.2-11.7-14.5-13.2
		C325.7,382.3,321.8,382.4,317.2,382.1z M196.2,680.9c3.2,0.4,5.3,0.6,7.3,0.9c17.1,2.7,29-8.7,27.5-26.1
		c-1.2-13.3-18.6-24.5-32.5-20.5c-6.3,1.8-12.3,4.9-18.5,7.3c-0.6-0.6-0.6-0.6-1.2-1.2c1.4-3.4,2.3-7.3,4.5-10
		c3.4-4.1,7.9-7.3,11.7-11.1c1.1-1.1,2-3.2,1.8-4.7c-0.1-0.8-2.5-1.9-3.9-2c-10.6-0.7-21.2-1.4-31.8-1.8c-3.4-0.1-6.9,0.7-10.2,1.6
		c-1.6,0.4-2.9,1.9-4.3,2.9c1.2,1.3,2.3,2.8,3.7,3.9c5,3.7,10.4,7,15.2,10.9c3.7,3,6.6,6.9,4.9,12.4c-0.6,0-1.1,0.2-1.4,0
		c-0.7-0.4-1.4-0.9-2-1.4c-7.8-6.3-16.8-8.8-26.7-9.2c-8.1-0.3-13.5,3.4-17.1,10.3c-4.3,8.4-4.4,17.2-1.8,26.2
		c2.8,9.7,9.2,15.3,19.1,16.2c2.6,0.2,5.2-0.2,8.3-0.4c-0.4,2.5-0.9,4.5-1,6.5c-0.4,8.6-0.9,17.3,5.4,24.3c6.2,7,21.3,9.4,31,5.2
		c9.8-4.3,15.5-14,14.3-25.3C197.9,691,197,686.4,196.2,680.9z M398.3,645c-1.3-0.7-2.4-1.2-3.3-1.9c-7.8-6.2-16.8-8.8-26.7-9.1
		c-8.1-0.3-13.5,3.4-17.1,10.3c-4.3,8.4-4.4,17.2-1.8,26.2c2.8,9.7,9.2,15.3,19.1,16.2c2.6,0.2,5.2-0.2,8.3-0.4
		c-0.4,2.5-0.7,4.5-1,6.5c-2.3,18.7,4.1,28.3,21,31.5c16.3,3.1,31.2-10.2,29.6-26.7c-0.5-4.9-1.4-9.7-2.3-15.3
		c3.1,0.3,5.5,0.5,7.9,0.9c15.4,2.5,26.7-7.9,27.3-23.7c0.5-14-19.2-27.6-32.9-23c-6.2,2.1-12.2,4.8-18.3,7.3
		c-0.6-0.6-0.7-0.7-1.3-1.3c1.4-3.4,2.3-7.1,4.5-9.8c3.4-4.1,7.9-7.3,11.7-11.1c1.1-1.1,2-3.2,1.8-4.7c-0.1-0.8-2.5-1.9-3.9-2
		c-10.6-0.7-21.2-1.4-31.8-1.8c-3.4-0.1-6.9,0.7-10.2,1.6c-1.6,0.4-2.9,1.9-4.3,2.9c1.2,1.3,2.3,2.8,3.7,3.9c5,3.7,10.4,7,15.2,10.9
		C397.2,635.2,400.2,639.1,398.3,645z M65.8,187.5c7.8,2.3,15.1,5.2,22.7,6.4c7.3,1.2,11.7-2.1,14.7-9c3.5-8,3.1-16.1-1-23.6
		c-3.9-7.3-11.1-8.6-18.7-7.9c2.2-24.3-5.6-28.6-19.5-29c-4.9-0.1-11,2.9-14.8,6.4c-7.7,6.9-5.2,16.3-2.7,26
		c-3.5-0.5-6.1-0.7-8.7-1.2c-6.5-1.1-11.5,1.4-14.7,7c-3.8,6.6-6.1,13.4-1.4,20.6c4.8,7.3,14.7,11.3,23,9c4.8-1.3,9.4-3.7,15.9-6.3
		c-1.9,4.2-2.7,7.2-4.5,9.4c-2.5,3-5.8,5.3-8.6,8.1c-0.9,0.9-1.9,2.5-1.8,3.6c0.1,0.8,2.1,1.9,3.2,1.9c8.7,0.7,17.5,1.4,26.2,1.6
		c3.2,0.1,6.4-1.4,10.6-2.5C78.8,199.8,66.6,198.3,65.8,187.5z M514.2,623.1c-7.9-2.3-15-5.2-22.4-6.4c-7.6-1.2-12,2.2-15.1,9.3
		c-7.2,16.6,1.8,30.8,19.7,31.4c0.4,21.5,4.1,28.5,16.8,28.9c4.9,0.1,9.8-1,14-3.5c11.8-7.1,9.2-18,6.5-29.1c3.6,0.5,6,0.7,8.4,1.1
		c6.8,1.2,11.8-1.4,15.2-7.3c3.7-6.7,6.2-13.8,0.9-20.5c-5.6-7-13.1-11.3-22.5-8.8c-4.9,1.3-9.5,3.6-15.6,6.1c1.2-3.3,1.6-6.1,3.1-8
		c2.6-3.2,6-5.8,8.8-8.8c1.2-1.2,1.7-3,2.6-4.5c-1.5-0.5-2.9-1.4-4.4-1.5c-7.9-0.6-15.8-1.4-23.7-1.5c-3.7-0.1-7.3,1.2-12.3,2
		C501,610.8,513.3,612.2,514.2,623.1z M51.9,67.6c0,2.9-0.4,5.9,0.1,8.7c0.4,2.2,1.5,5.9,2.7,6.1c2.1,0.3,5.3-0.9,6.6-2.6
		c2.9-3.9,5.6-4.2,9.5-1.7c4,2.6,4.3,5.4,2.3,9.5c-3.8,7.9-6.4,8.8-14,4.3c-1.8-1.1-3.3-3-5.2-3.4c-2.2-0.5-4.8,0.2-7.2,0.4
		c0.6,2.2,0.4,5.2,1.8,6.4c13.7,11.1,27,13.2,34.1-7.6c0.3-0.8,0.8-1.6,0.7-2.4c-0.5-3.1-0.4-7-2.2-9.2c-4-5.1-9.2-9-16.4-9.1
		c-1.2,0-2.4-1.8-3.7-2.7c1.3-0.9,2.6-2.2,4-2.5c4-0.7,8.3-0.7,12.2-1.7c1.3-0.3,3-3.3,2.6-4.7s-2.8-2.9-4.5-3.2
		c-2.6-0.4-5.4,0.6-8,0.4C52,51.5,52,51.5,51.9,67.6z M518.2,744c0.9,3.6,0.2,5.2-4.1,5.1c-4.1-0.1-8.2,0.7-12.2,1.7
		c-1.1,0.3-2.5,3-2.3,4.4c0.3,1.3,2.4,3.2,3.8,3.3c6.4,0.4,12.9,0.7,19.2,0.2c1.9-0.2,4.9-3,5-4.8c0.6-7,0.6-14.2,0.3-21.2
		c-0.1-1.7-1.7-4.1-3.2-4.6s-3.7,0.9-5.4,1.8c-0.8,0.4-1.1,2-2,2.3c-1.9,0.8-4.5,2.2-5.8,1.5c-2.5-1.4-5.8-4-5.9-6.2
		c-0.6-8.7,7-13.1,14.5-8.9c1.5,0.8,2.8,1.8,4.1,2.8c2.8,1.9,5.9,4.5,8.7,0.7c2.9-3.9-0.6-6.5-3.4-7.9c-4.9-2.6-10.1-4.6-15.4-6.3
		c-1.9-0.6-4.6,0-6.6,0.8c-5.4,2.4-12.7,15.4-11.4,21.1c1.7,7.5,7.9,10.9,14.4,13.5C512.8,743.9,515.4,743.7,518.2,744z"/>
	<path class="st1" d="M172.4,166.7c-6.3,2.5-12.5,5.5-19,7.6c-14.3,4.6-32.9-10-32.7-22c0.2-16.3,11.4-27.3,27.4-24.7
		c2.2,0.4,4.5,0.6,7.7,1c-0.8-5.3-1.7-9.8-2.2-14.4c-1.2-11.3,3.8-20.7,13.3-25.3c9.3-4.6,24.3-2.8,31.2,4
		c7.1,7.1,6.5,16.3,6.1,25.3c-0.1,2-0.5,4-0.8,5.8c4.3,0.3,8.2,0.2,12,0.9c7.6,1.5,12.6,6.3,14.8,13.7c3,9.7,3.2,19.3-1.8,28.5
		c-3.5,6.3-8.8,9.7-16.3,9.6c-11.2-0.1-21.1-3.8-29.8-11.1c-1.8,5.7-1,8.8,4.2,13.1c5,4,10.6,7.4,15.8,11.2c1.2,0.9,2,2.4,3,3.6
		c-1.3,0.9-2.4,2.3-3.9,2.6c-3.5,0.8-7.2,1.7-10.8,1.6c-10.4-0.3-20.8-1-31.2-1.8c-1.6-0.1-4.1-1.1-4.4-2.2
		c-0.4-1.3,0.9-3.4,2.1-4.6c3.7-3.7,8.1-6.7,11.3-10.7c2.4-2.9,3.5-7,5.1-10.5C173,167.3,172.9,167.3,172.4,166.7z"/>
	<path class="st1" d="M409.2,168.1c-1.3,4.9,1.6,8.8,5.4,11.8c5,4,10.6,7.4,15.8,11.2c1.2,0.9,1.9,2.4,2.8,3.7
		c-1.1,0.8-2.1,2.1-3.4,2.4c-3.8,0.8-7.6,1.8-11.4,1.7c-10.4-0.3-20.8-1-31.2-1.8c-1.6-0.1-3.6-1.2-4.4-2.4
		c-0.5-0.7,0.8-3.1,1.8-4.1c3.8-3.8,8.4-7,11.8-11.1c2.3-2.8,3.3-6.8,4.9-10.3c-0.6-0.6-0.6-0.6-1.2-1.2c-6.2,2.5-12.1,5.5-18.5,7.4
		c-14.5,4.3-31.9-7.3-32.8-21.4c-1.1-16.7,10.9-27.7,27.3-25.1c2.2,0.3,4.4,0.5,7.5,0.8c-0.8-5.4-1.7-10.2-2.2-15.1
		c-1.1-10.8,4.5-20.6,14.1-24.8c9.8-4.4,25.3-1.9,31.4,5.4c6,7.1,5.6,15.8,5.1,24.4c-0.1,1.8-0.6,3.6-0.9,5.7
		c4.1,0.3,7.9,0.2,11.7,0.8c2.4,0.4,4.8,1.4,6.9,2.7c13.9,8.6,14.3,38.3,0.1,46.3c-4.7,2.7-11.9,3.1-17.4,1.9
		C424.6,175.3,417.2,171.3,409.2,168.1z"/>
	<path class="st1" d="M317.2,382.1c4.5,0.3,8.5,0.2,12.2,0.9c7.3,1.5,12.4,6.1,14.5,13.2c1.3,4.3,2.1,9,2.2,13.5
		c0.2,19.1-11,28.4-29.4,23.9c-7.3-1.8-14-5.7-21.3-8.8c-1.7,5,1.5,8.9,5.3,12c4.8,3.9,10.2,7.2,15.2,10.9c1.4,1,2.3,2.6,3.4,4
		c-1.3,0.9-2.5,2.2-3.9,2.5c-3.5,0.8-7.2,1.7-10.8,1.6c-10.4-0.3-20.8-1-31.2-1.8c-1.6-0.1-4.1-1.2-4.4-2.3c-0.3-1.3,1-3.4,2.2-4.6
		c3.7-3.7,8.1-6.7,11.3-10.7c2.4-2.9,3.4-6.9,4.9-10.4c-0.6-0.6-0.6-0.6-1.2-1.2c-6.2,2.5-12.1,5.5-18.5,7.4
		c-14.5,4.3-31.9-7.2-32.9-21.3c-1.1-16.7,10.9-27.8,27.2-25.2c2.2,0.4,4.5,0.5,7.5,0.8c-0.8-5.4-1.7-10.2-2.2-15.1
		c-1.1-10.9,4.5-20.6,14-24.9c9.8-4.4,25.2-2,31.4,5.3c6.1,7.1,5.6,15.8,5.1,24.4C318,378.2,317.6,380,317.2,382.1z"/>
	<path class="st1" d="M196.2,680.9c0.9,5.5,1.8,10.1,2.3,14.8c1.2,11.3-4.4,21.1-14.3,25.3c-9.7,4.2-24.7,1.8-31-5.2
		c-6.2-7-5.8-15.7-5.4-24.3c0.1-2,0.6-4,1-6.5c-3.1,0.2-5.7,0.6-8.3,0.4c-9.9-0.9-16.3-6.4-19.1-16.2c-2.5-8.9-2.5-17.7,1.8-26.2
		c3.5-6.9,9-10.6,17.1-10.3c9.9,0.3,18.9,2.9,26.7,9.2c0.6,0.5,1.3,1,2,1.4c0.3,0.2,0.8,0,1.4,0c1.8-5.4-1.2-9.3-4.9-12.4
		c-4.8-4-10.2-7.2-15.2-10.9c-1.4-1-2.5-2.6-3.7-3.9c1.4-1,2.7-2.5,4.3-2.9c3.3-0.9,6.8-1.7,10.2-1.6c10.6,0.3,21.2,1,31.8,1.8
		c1.4,0.1,3.9,1.2,3.9,2c0.1,1.5-0.7,3.6-1.8,4.7c-3.8,3.8-8.4,7-11.7,11.1c-2.2,2.7-3.1,6.6-4.5,10c0.6,0.6,0.6,0.6,1.2,1.2
		c6.2-2.5,12.2-5.5,18.5-7.3c13.9-4,31.3,7.1,32.5,20.5c1.6,17.4-10.4,28.8-27.5,26.1C201.4,681.4,199.4,681.3,196.2,680.9z"/>
	<path class="st1" d="M398.3,645c1.9-5.9-1-9.8-4.7-12.9c-4.8-4-10.2-7.2-15.2-10.9c-1.4-1-2.5-2.6-3.7-3.9c1.4-1,2.7-2.5,4.3-2.9
		c3.3-0.9,6.8-1.7,10.2-1.6c10.6,0.3,21.2,1,31.8,1.8c1.4,0.1,3.9,1.2,3.9,2c0.1,1.5-0.7,3.6-1.8,4.7c-3.8,3.8-8.4,7-11.7,11.1
		c-2.2,2.7-3.1,6.5-4.5,9.8c0.6,0.6,0.7,0.7,1.3,1.3c6.1-2.4,12.1-5.2,18.3-7.3c13.8-4.6,33.5,9,32.9,23
		c-0.6,15.8-11.8,26.2-27.3,23.7c-2.4-0.4-4.8-0.5-7.9-0.9c0.9,5.6,1.8,10.5,2.3,15.3c1.6,16.5-13.3,29.8-29.6,26.7
		c-16.9-3.2-23.3-12.8-21-31.5c0.2-2,0.6-4,1-6.5c-3.1,0.2-5.7,0.6-8.3,0.4c-9.9-0.9-16.4-6.4-19.1-16.2c-2.5-8.9-2.5-17.7,1.8-26.2
		c3.5-6.9,9-10.6,17.1-10.3c9.9,0.3,18.9,2.9,26.7,9.1C395.9,643.8,397,644.3,398.3,645z"/>
	<path class="st1" d="M65.8,187.5c0.8,10.8,13,12.3,19.8,20.6c-4.2,1-7.4,2.5-10.6,2.5c-8.7-0.1-17.5-0.9-26.2-1.6
		c-1.2-0.1-3.1-1.1-3.2-1.9c-0.2-1.1,0.8-2.7,1.8-3.6c2.8-2.8,6.1-5.1,8.6-8.1c1.8-2.2,2.6-5.2,4.5-9.4c-6.5,2.6-11.1,4.9-15.9,6.3
		c-8.3,2.3-18.2-1.7-23-9c-4.7-7.1-2.4-14,1.4-20.6c3.3-5.6,8.2-8.1,14.7-7c2.6,0.4,5.2,0.7,8.7,1.2c-2.5-9.7-5-19.1,2.7-26
		c3.8-3.5,9.9-6.5,14.8-6.4c13.9,0.4,21.8,4.7,19.5,29c7.6-0.7,14.9,0.6,18.7,7.9c4,7.5,4.4,15.6,1,23.6c-3,6.9-7.3,10.2-14.7,9
		C80.9,192.7,73.6,189.8,65.8,187.5z"/>
	<path class="st1" d="M514.2,623.1c-0.9-10.9-13.2-12.3-20-21c4.9-0.9,8.6-2.1,12.3-2c7.9,0.1,15.8,0.9,23.7,1.5
		c1.5,0.1,2.9,1,4.4,1.5c-0.8,1.5-1.4,3.3-2.6,4.5c-2.8,3-6.2,5.6-8.8,8.8c-1.5,1.9-1.9,4.7-3.1,8c6.1-2.4,10.8-4.8,15.6-6.1
		c9.4-2.5,16.9,1.7,22.5,8.8c5.3,6.7,2.8,13.8-0.9,20.5c-3.3,5.9-8.4,8.5-15.2,7.3c-2.4-0.4-4.9-0.7-8.4-1.1
		c2.8,11.1,5.3,22-6.5,29.1c-4.2,2.5-9.1,3.6-14,3.5c-12.8-0.3-16.4-7.4-16.8-28.9c-18-0.6-26.9-14.8-19.7-31.4
		c3.1-7.1,7.5-10.6,15.1-9.3C499.2,617.9,506.3,620.8,514.2,623.1z"/>
	<path class="st1" d="M51.9,67.6c0.1-16.1,0.1-16,15.8-14.9c2.7,0.2,5.4-0.8,8-0.4c1.7,0.3,4.2,1.8,4.5,3.2c0.3,1.3-1.3,4.3-2.6,4.7
		c-4,1-8.2,1-12.2,1.7c-1.4,0.3-2.7,1.6-4,2.5c1.2,0.9,2.4,2.7,3.7,2.7c7.2,0.1,12.3,4,16.4,9.1c1.8,2.2,1.6,6.1,2.2,9.2
		c0.1,0.7-0.4,1.6-0.7,2.4c-7.2,20.7-20.4,18.6-34.1,7.6c-1.4-1.1-1.3-4.2-1.8-6.4c2.4-0.2,4.9-0.9,7.2-0.4c1.9,0.4,3.4,2.4,5.2,3.4
		c7.6,4.6,10.2,3.6,14-4.3c2-4.1,1.6-6.9-2.3-9.5c-3.9-2.5-6.6-2.2-9.5,1.7c-1.3,1.7-4.6,3-6.6,2.6c-1.3-0.2-2.4-3.8-2.7-6.1
		C51.5,73.5,51.9,70.5,51.9,67.6z"/>
	<path class="st1" d="M518.2,744c-2.8-0.3-5.5-0.1-7.7-0.9c-6.5-2.5-12.7-6-14.4-13.5c-1.3-5.7,6-18.7,11.4-21.1
		c2-0.9,4.7-1.4,6.6-0.8c5.3,1.7,10.5,3.8,15.4,6.3c2.8,1.5,6.3,4.1,3.4,7.9c-2.8,3.8-5.9,1.2-8.7-0.7c-1.4-1-2.7-2-4.1-2.8
		c-7.5-4.2-15.1,0.2-14.5,8.9c0.2,2.3,3.5,4.9,5.9,6.2c1.3,0.7,3.9-0.7,5.8-1.5c0.8-0.4,1.1-1.9,2-2.3c1.7-0.9,4-2.2,5.4-1.8
		c1.5,0.5,3.1,3,3.2,4.6c0.3,7.1,0.4,14.2-0.3,21.2c-0.2,1.8-3.2,4.6-5,4.8c-6.4,0.5-12.8,0.3-19.2-0.2c-1.4-0.1-3.5-1.9-3.8-3.3
		c-0.3-1.3,1.1-4.1,2.3-4.4c4-1,8.1-1.7,12.2-1.7C518.4,749.2,519.2,747.6,518.2,744z"/>
</g>
</svg>
