<?xml version="1.0" encoding="utf-8"?>
<!-- Generator: Adobe Illustrator 24.0.0, SVG Export Plug-In . SVG Version: 6.00 Build 0)  -->
<svg version="1.1" id="Layer_1" xmlns="http://www.w3.org/2000/svg" xmlns:xlink="http://www.w3.org/1999/xlink" x="0px" y="0px"
	 viewBox="0 0 578.6 809.5" style="enable-background:new 0 0 578.6 809.5;" xml:space="preserve">
<style type="text/css">
	.st0{fill:#FEFDFD;}
	.st1{fill:#FE2121;}
</style>
<g>
	<path class="st0" d="M539.6,809.5H39c-21.5,0-39-17.5-39-39V39C0,17.5,17.5,0,39,0h500.6c21.5,0,39,17.5,39,39v731.5
		C578.6,792,561.1,809.5,539.6,809.5z M287.9,373.6c-1.8-2.6-2.7-4.9-4.3-6.3c-4.2-3.6-8.2-8.3-13.1-9.9
		c-14-4.6-30.2,10.7-30.1,27.4c0.1,14,7.8,24.3,16.3,34.2c9.6,11.3,19.4,22.5,22.6,37.7c0.1,0.6,0.3,1.4,0.7,1.7
		c1.3,1,2.8,1.9,4.2,2.8c0.8-1.3,1.9-2.5,2.4-3.9c0.6-1.7,0.4-3.8,1.2-5.4c7.6-14.1,15.2-28.2,27.8-38.9c7.7-6.5,15-13.9,21.2-21.9
		c6.6-8.6,3.3-25.6-5-32.7c-9.3-8-21.4-7.6-31.1,1.3C296.2,363.7,292.5,368.5,287.9,373.6z M179.7,728.2c2.2,3.2,3.5,5.3,4.9,7.3
		c6.8,9.3,18.7,12.7,26.8,7.8c11.3-6.9,17.2-21.9,14-34.8c-2.8-11.2-10.3-19.4-17.4-27.8c-8.5-10.1-16.6-20.4-19.6-33.7
		c-0.2-1-0.6-2.2-1.2-2.8c-1-0.9-2.4-2-3.5-1.9c-1,0.2-2.3,1.7-2.6,2.9c-3.7,14.7-11.9,26.9-22,37.8c-7.4,7.9-16,14.7-23.5,22.5
		c-9.1,9.6-9.7,23.7-2.2,34.6c8.3,12,25.5,11.7,36.8-0.6C173.3,736,176.1,732.4,179.7,728.2z M402.5,729.4c2.1,3,3.4,5.1,4.9,7.1
		c6.8,9.4,18.6,12.9,26.8,8.1c11.3-6.7,17.4-21.9,14.3-34.7c-2.8-11.5-10.5-19.7-17.7-28.3c-8.3-10-16.3-20.1-19.3-33.2
		c-0.3-1.2-0.7-2.6-1.5-3.4c-0.9-0.9-2.5-1.6-3.6-1.5c-0.8,0.1-1.9,1.6-2.2,2.6c-3.8,15.2-12.2,27.7-22.8,38.7
		c-7.2,7.5-15.4,14.1-22.6,21.6c-9.2,9.7-9.9,23.5-2.5,34.5c8.2,12.1,25.4,12,36.8-0.3C396.1,737.4,398.9,733.8,402.5,729.4z
		 M177.8,79.3c-1-0.6-1.5-0.8-1.7-1.1c-1.2-1.7-2.4-3.4-3.6-5.1c-6.7-9.4-18.5-13.1-26.7-8.4c-11.2,6.4-17.6,21.9-14.6,34.5
		c2.7,11.5,10.3,19.8,17.6,28.4c8.5,10.1,16.7,20.3,19.6,33.7c0.2,1,0.6,2.2,1.3,2.8c1,0.9,2.4,2,3.5,1.9c1-0.1,2.4-1.7,2.6-2.8
		c3.6-14.8,11.9-26.9,21.9-37.8c7.3-8,16-14.6,23.5-22.5c9.2-9.6,9.9-23.5,2.5-34.5c-8.3-12.3-25.9-12-37.2,0.7
		C183.4,72.4,180.6,76,177.8,79.3z M400.1,81.3c-2.1-3.2-3.4-5.3-4.9-7.3c-7-9.6-19-12.9-27.3-7.6c-11.3,7.3-17.9,22.3-13.1,34.8
		c3.4,8.9,9,17.2,14.9,24.9c8.8,11.4,18.6,22,21.7,36.7c0.2,1,0.6,2.2,1.3,2.8c1,0.8,2.4,1.6,3.6,1.6c0.8,0,2-1.5,2.3-2.5
		c4.7-17.6,14.7-31.9,27.9-44.1c6-5.5,12.2-10.8,17.7-16.7c8.9-9.6,9.5-23.9,2-34.6c-8.5-12.1-26-11.6-37.2,1.2
		C406.2,73.8,403.5,77.2,400.1,81.3z M520.4,669.3c2,2.4,3.4,4.1,4.8,5.8c7,8,18.7,8,25.4-0.3c7-8.5,8.1-19.5,2.3-28.9
		c-8.6-13.9-22.3-24.6-26.3-41.4c-0.2-0.8-1.9-1.6-2.9-1.6c-0.6-0.1-1.7,1.1-2,2c-4.9,16.7-15.6,29.1-28.8,39.9
		c-3.3,2.7-6.3,6.2-8.7,9.8c-5.1,7.7-2.8,20.8,4.2,26.3c7.3,5.8,17.2,4.4,24.7-3.3C515.5,675,517.6,672.5,520.4,669.3z M59.4,140.6
		c-1.8-2.3-3.3-4.2-4.9-6.1c-7.8-9.2-17.9-8.9-25.4,0.6c-8.1,10.4-8,20.8,0.6,32.7c8.5,11.7,19.9,21.6,23.2,36.6
		c0.2,0.9,2,1.7,3.3,2.1c0.4,0.1,1.7-1.1,1.9-1.9c4.6-16,14.6-28.1,27.2-38.6c3.9-3.3,7.6-7.2,10.4-11.5c5-7.6,2.5-20-4.5-25.5
		c-7.1-5.6-17-4.4-24.2,2.9C64.5,134.5,62.1,137.4,59.4,140.6z M524.3,747.3c0.8,5-1.1,6.9-6.5,6c-6.8-1.2-13.5-0.6-18.1,5.4
		c-0.9,1.2-0.3,3.7-0.4,5.5c1.8-0.1,3.7,0.1,5.5-0.2c4.3-0.8,8.6-2.2,12.9-2.4c2.8-0.2,5.6,1.8,8.5,1.8c1.9,0,5.4-1.8,5.5-2.9
		c0.4-7.6,0.3-15.4-0.3-23c-0.2-2-2.2-4.7-4.1-5.5c-1.1-0.5-4.1,1.6-5.2,3.3c-2.3,3.3-4.8,4.3-8.5,2.7c-5.1-2.1-8-6.1-7.1-11.2
		c0.5-2.7,3.6-6.1,6.3-7.1c8.7-3.2,15.2,0.6,20.4,7.8c1,1.4,4.1,1.2,6.2,1.8c-0.1-2.2,0.6-5-0.5-6.6c-2.2-3.2-5.2-6-8.3-8.5
		c-6-4.8-20.8-4.4-26.6,0.6c-10.1,8.6-6.4,26.1,6.6,30.5C514.7,746.7,519.4,746.6,524.3,747.3z M55.6,62.9c-0.8-5.6,0.9-7.6,6.4-6.7
		c7.1,1.2,13.9,0.7,18.5-5.8c0.8-1.2,0.4-3.9-0.5-5.3c-0.4-0.7-3.7-0.6-4.7,0.2c-4.1,3.7-8.7,3.6-13.5,2.6c-2.8-0.6-5.7-2-8.5-2
		c-1.9,0-5.2,2-5.3,3.2c-0.3,7.6-0.2,15.3,0.5,23c0.2,2,2.3,4.6,4.1,5.4c1.1,0.5,4.1-1.7,5.2-3.3c2.2-3.5,4.8-4.2,8.4-2.8
		c4.9,1.9,7.7,5.8,7.1,10.5c-0.3,2.8-3.1,6.6-5.7,7.6c-8.8,3.3-15.6-0.1-21-7.6c-1-1.4-4.1-1.4-6.2-2c0,2.2-0.9,5.1,0.2,6.5
		c6.5,9.1,14.9,14,26.8,11.6c11.2-2.3,17.1-12.3,12.8-23C76.6,65.8,69.9,62.3,55.6,62.9z"/>
	<path class="st1" d="M287.9,373.6c4.6-5.1,8.3-9.9,12.7-13.9c9.7-9,21.8-9.3,31.1-1.3c8.3,7.1,11.6,24.1,5,32.7
		c-6.1,8-13.4,15.4-21.2,21.9c-12.7,10.7-20.2,24.8-27.8,38.9c-0.8,1.6-0.6,3.7-1.2,5.4c-0.5,1.4-1.6,2.6-2.4,3.9
		c-1.4-0.9-2.9-1.8-4.2-2.8c-0.4-0.3-0.6-1.1-0.7-1.7c-3.2-15.2-12.9-26.4-22.6-37.7c-8.5-9.9-16.2-20.2-16.3-34.2
		c-0.1-16.7,16.1-32,30.1-27.4c4.9,1.6,9,6.3,13.1,9.9C285.2,368.7,286.1,371,287.9,373.6z"/>
	<path class="st1" d="M179.7,728.2c-3.6,4.3-6.4,7.9-9.4,11.2c-11.3,12.4-28.5,12.6-36.8,0.6c-7.5-10.8-6.9-25,2.2-34.6
		c7.5-7.8,16.1-14.6,23.5-22.5c10.1-10.9,18.3-23.1,22-37.8c0.3-1.2,1.6-2.7,2.6-2.9c1.1-0.2,2.5,1,3.5,1.9c0.7,0.7,1,1.8,1.2,2.8
		c3,13.3,11.1,23.6,19.6,33.7c7.1,8.4,14.6,16.6,17.4,27.8c3.2,12.9-2.7,27.9-14,34.8c-8.2,5-20,1.6-26.8-7.8
		C183.2,733.4,181.8,731.4,179.7,728.2z"/>
	<path class="st1" d="M402.5,729.4c-3.7,4.4-6.4,8-9.5,11.3c-11.4,12.3-28.6,12.4-36.8,0.3c-7.5-11.1-6.7-24.9,2.5-34.5
		c7.2-7.5,15.4-14,22.6-21.6c10.5-11.1,19-23.6,22.8-38.7c0.3-1,1.3-2.5,2.2-2.6c1.2-0.1,2.7,0.6,3.6,1.5c0.8,0.8,1.3,2.2,1.5,3.4
		c2.9,13.1,10.9,23.2,19.3,33.2c7.2,8.6,14.9,16.9,17.7,28.3c3.1,12.8-3,28-14.3,34.7c-8.2,4.9-20,1.3-26.8-8.1
		C406,734.5,404.6,732.5,402.5,729.4z"/>
	<path class="st1" d="M177.8,79.3c2.8-3.3,5.6-6.9,8.6-10.2c11.3-12.7,28.9-12.9,37.2-0.7c7.4,11,6.8,24.9-2.5,34.5
		c-7.5,7.8-16.1,14.5-23.5,22.5c-10,10.9-18.3,23-21.9,37.8c-0.3,1.1-1.6,2.7-2.6,2.8c-1.1,0.1-2.5-1-3.5-1.9
		c-0.7-0.7-1-1.8-1.3-2.8c-2.9-13.3-11.1-23.6-19.6-33.7c-7.2-8.6-14.8-16.9-17.6-28.4c-3-12.6,3.4-28.1,14.6-34.5
		c8.2-4.7,20-1,26.7,8.4c1.2,1.7,2.3,3.4,3.6,5.1C176.3,78.5,176.8,78.7,177.8,79.3z"/>
	<path class="st1" d="M400.1,81.3c3.4-4.1,6.1-7.5,8.9-10.7c11.2-12.8,28.7-13.3,37.2-1.2c7.5,10.7,6.9,25-2,34.6
		c-5.5,5.9-11.7,11.2-17.7,16.7c-13.3,12.2-23.2,26.4-27.9,44.1c-0.3,1-1.5,2.4-2.3,2.5c-1.2,0.1-2.6-0.8-3.6-1.6
		c-0.7-0.6-1.1-1.8-1.3-2.8c-3.2-14.7-13-25.3-21.7-36.7c-5.9-7.6-11.5-16-14.9-24.9c-4.8-12.5,1.8-27.5,13.1-34.8
		c8.3-5.3,20.3-2,27.3,7.6C396.7,76.1,398,78.2,400.1,81.3z"/>
	<path class="st1" d="M520.4,669.3c-2.8,3.2-5,5.7-7.2,8.1c-7.4,7.8-17.4,9.1-24.7,3.3c-7-5.5-9.3-18.6-4.2-26.3
		c2.4-3.6,5.3-7,8.7-9.8c13.2-10.8,23.9-23.2,28.8-39.9c0.2-0.8,1.4-2,2-2c1.1,0.1,2.8,0.9,2.9,1.6c4,16.9,17.7,27.5,26.3,41.4
		c5.8,9.4,4.7,20.3-2.3,28.9c-6.7,8.2-18.4,8.3-25.4,0.3C523.8,673.4,522.4,671.7,520.4,669.3z"/>
	<path class="st1" d="M59.4,140.6c2.8-3.1,5.1-6,7.7-8.7c7.2-7.4,17.1-8.5,24.2-2.9c7,5.5,9.5,17.9,4.5,25.5
		c-2.8,4.3-6.5,8.2-10.4,11.5c-12.5,10.5-22.6,22.6-27.2,38.6c-0.2,0.8-1.5,2.1-1.9,1.9c-1.2-0.4-3.1-1.2-3.3-2.1
		c-3.3-15-14.7-24.9-23.2-36.6c-8.6-11.9-8.7-22.4-0.6-32.7c7.4-9.6,17.5-9.8,25.4-0.6C56,136.3,57.5,138.3,59.4,140.6z"/>
	<path class="st1" d="M524.3,747.3c-4.9-0.7-9.6-0.6-13.8-2c-13.1-4.4-16.7-21.9-6.6-30.5c5.8-4.9,20.6-5.4,26.6-0.6
		c3.1,2.5,6,5.3,8.3,8.5c1.1,1.5,0.4,4.3,0.5,6.6c-2.1-0.6-5.2-0.4-6.2-1.8c-5.2-7.2-11.7-11-20.4-7.8c-2.7,1-5.8,4.4-6.3,7.1
		c-0.9,5.1,2,9.1,7.1,11.2c3.7,1.5,6.2,0.5,8.5-2.7c1.2-1.6,4.2-3.8,5.2-3.3c1.9,0.9,3.9,3.5,4.1,5.5c0.6,7.6,0.7,15.3,0.3,23
		c-0.1,1.1-3.6,2.9-5.5,2.9c-2.8,0-5.7-2-8.5-1.8c-4.3,0.3-8.6,1.7-12.9,2.4c-1.8,0.3-3.7,0.1-5.5,0.2c0.1-1.9-0.6-4.3,0.4-5.5
		c4.6-6,11.3-6.6,18.1-5.4C523.2,754.2,525,752.3,524.3,747.3z"/>
	<path class="st1" d="M55.6,62.9c14.3-0.6,21,2.9,24.8,12.3c4.3,10.7-1.6,20.7-12.8,23c-11.9,2.5-20.3-2.4-26.8-11.6
		c-1-1.5-0.2-4.3-0.2-6.5c2.1,0.6,5.2,0.6,6.2,2c5.4,7.6,12.2,11,21,7.6c2.6-1,5.4-4.8,5.7-7.6c0.5-4.8-2.2-8.7-7.1-10.5
		c-3.7-1.4-6.2-0.7-8.4,2.8c-1.1,1.7-4.1,3.8-5.2,3.3c-1.9-0.8-4-3.4-4.1-5.4c-0.6-7.6-0.8-15.3-0.5-23c0.1-1.2,3.4-3.2,5.3-3.2
		c2.8-0.1,5.6,1.4,8.5,2c4.8,1,9.4,1.1,13.5-2.6c0.9-0.9,4.3-0.9,4.7-0.2c0.9,1.4,1.3,4.2,0.5,5.3c-4.6,6.4-11.5,7-18.5,5.8
		C56.6,55.3,54.8,57.3,55.6,62.9z"/>
</g>
</svg>
