<?xml version="1.0" encoding="utf-8"?>
<!-- Generator: Adobe Illustrator 24.0.0, SVG Export Plug-In . SVG Version: 6.00 Build 0)  -->
<svg version="1.1" id="Layer_1" xmlns="http://www.w3.org/2000/svg" xmlns:xlink="http://www.w3.org/1999/xlink" x="0px" y="0px"
	 viewBox="0 0 578.6 809.5" style="enable-background:new 0 0 578.6 809.5;" xml:space="preserve">
<style type="text/css">
	.st0{fill:#FDFDFD;}
	.st1{fill:#090909;}
</style>
<g>
	<path class="st0" d="M539.6,809.5H39c-21.5,0-39-17.5-39-39V39C0,17.5,17.5,0,39,0h500.6c21.5,0,39,17.5,39,39v731.5
		C578.6,792,561.1,809.5,539.6,809.5z M187.8,80.6c-0.9-0.1-1.7-0.2-2.6-0.4c-0.7,2.5-1.6,5-2.2,7.6c-0.7,3.5-0.3,7.6-1.8,10.7
		c-5.5,11.2-14.1,18.2-27,20.8c-15,2.9-25.7,16.6-26.5,31.8c-0.1,2.2,0.1,4.7,1,6.7c7.6,16.5,17.2,21.8,35.4,19.2
		c2-0.3,4.1-0.1,6.2-0.1c-0.7,2.1-1.2,4.2-2,6.2c-0.5,1.1-1.4,2.1-2.1,3.1c-2.7,4.2-1.6,6.7,3.4,6.9c7.5,0.4,15,0.6,22.5,0.6
		c1.8,0,4.4-0.9,5.1-2.2c0.8-1.4-0.1-3.9-0.6-5.7c-0.5-1.8-1.5-3.5-2.3-5.3c2.1-0.1,4.3-0.6,6.3-0.2c7.1,1.6,14.3,2.3,20.5-2.2
		c15.6-11.3,19.3-45.7-4.1-53.4c-2.4-0.8-4.6-2-6.7-3.3C197,113.8,189.4,102.6,189,87C188.9,84.8,188.2,82.7,187.8,80.6z
		 M403.4,80.8l-2.7-0.6c-0.8,2.4-2.1,4.8-2.2,7.2c-0.1,14.5-9.9,27.9-24.4,30.3c-17.5,3-26.4,13.9-30.3,29.9
		c-0.9,3.8-0.5,8.5,1,12.1c5.6,13.4,18.8,20,33.1,17.5c2.5-0.4,5-0.5,7.5-0.8c-1,2.8-1.9,5.6-2.9,8.4c-0.2,0.6-0.8,0.9-1.1,1.5
		c-2.4,3.8-1.2,6.4,3.2,6.7c7.7,0.4,15.4,0.6,23.1,0.7c5.2,0.1,7-3.3,4.6-7.7c-1-1.8-1.6-3.8-2.4-5.8c2.3,0.1,4.8-0.2,7,0.2
		c6.9,1.4,13.9,1.9,19.8-2.5c15.3-11.3,19.1-45.6-4.6-53.4c-2.5-0.8-5-2.2-7.3-3.6c-12.6-7.7-20-18.5-20.5-33.7
		C404.3,85.1,403.7,83,403.4,80.8z M340.2,414.3c0.5-12.5-4.8-21.2-16.4-26.1c-2.7-1.1-5.4-2.4-7.9-4c-12.5-7.8-20.2-18.5-20.6-33.9
		c0-2-1.7-3.9-2.7-5.9c-1.1,2.1-2.6,4.2-3.1,6.5c-0.8,3.3,0.2,7.4-1.3,10.2c-6,10.9-14.1,19.1-27.6,21.2
		c-15.9,2.5-22.1,15.1-26.1,28.8c-2.9,10,3.6,16.6,9.8,22.9c7.7,7.6,17.3,7,27,5.7c1.7-0.2,3.4,0,5.2,0c-0.4,1.9-0.6,3.9-1.2,5.8
		c-0.5,1.3-1.5,2.5-2.3,3.7c-2.6,4.3-1.5,6.8,3.4,7c7.3,0.4,14.6,0.7,21.9,0.7c1.8,0,4.7-0.9,5.2-2.2c0.7-1.7-0.3-4.2-0.7-6.2
		c-0.4-1.8-1.1-3.6-1.7-5.3c1.9,0,4-0.3,5.8,0.1c15,3.6,25.5-1.7,30.8-16.1C339.1,423.1,339.4,418.6,340.2,414.3z M171.7,630.8
		c-0.6,0.9-0.5,0.8-1.1,1.7c-3.5-1.1-7-2.4-10.5-3.2c-7.6-1.6-15-1.6-21.2,4.1c-16.4,15.1-12.8,41.9,7,51.5
		c16.5,8,27.4,19.4,27.2,39c0,1.4,1.8,2.8,2.7,4.2c1-1.4,2.6-2.6,2.8-4.1c0.4-3.5-1.1-7.7,0.4-10.5c5.3-10,11.4-19.8,23.9-22
		c13.5-2.5,22.8-9.2,28.2-22.6c6.8-17-3.7-35.4-22.2-36.3c-5.9-0.3-11.8,0.8-19.1,1.3c1.9-3.8,3.4-7,5.2-10.1
		c2.8-4.7,1.8-7.1-3.4-7.3c-7.1-0.3-14.2-0.5-21.2-0.3c-2,0-5.3,1.2-5.6,2.4c-0.4,2,0.8,4.6,2,6.5
		C168.1,627.2,170.1,628.9,171.7,630.8z M387.2,630.7c-0.6,0.9-0.5,0.8-1.1,1.8c-3.3-1-6.5-2.1-9.8-3c-12.4-3.3-21.1,0.2-27.6,11.2
		c-10.3,17.5-5.1,35.7,13,44.4c16.3,7.9,27,19.3,26.7,38.6c0,1.4,1.7,2.9,2.6,4.3c1-1.5,2.7-2.9,3-4.6c0.6-3.6-0.8-8.1,0.8-11
		c5.9-10.8,13.4-19.6,26.9-22c15.5-2.8,26.4-16,27.8-31.5c0.2-2.6-0.3-5.5-1.3-7.9c-6.1-15.1-21.1-22.2-36.8-17.6
		c-1.6,0.5-3.3,0.7-7,1.4c2.7-5,4.4-8.2,6.2-11.4c2.5-4.3,1.4-6.7-3.6-6.9c-7.3-0.3-14.6-0.5-21.9-0.3c-1.8,0-4.8,1.1-5.1,2.3
		c-0.5,1.8,0.4,4.3,1.5,6.1C383.1,626.8,385.3,628.6,387.2,630.7z M524.8,618.7c1.6-3.3,2.5-5.6,3.8-7.5c2.2-3.4,1.8-5.6-2.6-5.8
		c-5.8-0.3-11.7-0.3-17.5-0.4c-3.3-0.1-5.1,1.7-3.8,4.7c3,6.6-0.5,5.8-4.9,5.2c-9.7-1.4-15.4,1.7-20,10.3
		c-7,13.3-2.8,26.9,10.7,33.5c12.3,6,20.6,14.6,20.7,29.3c0,1.3,1.5,2.5,2.2,3.8c0.8-1.4,2.1-2.7,2.4-4.3c0.7-3,0-6.5,1.4-9
		c4.4-8.2,10.4-14.4,20.4-15.7c3-0.4,6-1.9,8.7-3.4c8.7-4.9,15-20.6,11.2-28.1c-4.4-8.5-10.8-14.3-21.2-13.7
		C533.1,617.7,529.9,618.2,524.8,618.7z M68.9,192.8c2.8,0.6,4.5,1,6.3,1.4c10.4,2.6,17.4-0.6,22.3-10c7.2-13.8,2.6-26.9-12-34.1
		C73.7,144.3,66.3,135.8,66,122c0-1.5-1.5-2.9-2.2-4.4c-0.9,1.6-2.1,3.1-2.5,4.8c-0.7,2.7,0,6-1.3,8.4c-4.4,8.2-10.4,14.5-20.4,15.8
		c-3.2,0.4-6.4,2.1-9.2,3.7c-13.6,8.2-15.5,25.9-4.2,36.7c5.6,5.3,12.4,5.4,19.3,4.7c1.8-0.2,3.5-0.5,6.8-1.1
		c-1.7,3.4-2.7,5.8-4,7.9c-2.2,3.7-1.1,5.5,3,5.7c3.5,0.1,7.1,0.2,10.6,0.2C74.6,204.7,74.6,204.7,68.9,192.8z M519.9,743.7
		c1.1,3.5-0.4,4.5-4.1,4.4c-3.9,0-7.9,0.5-11.6,1.5c-1.3,0.4-2.7,3.2-2.6,4.8c0.1,1.2,2.5,3,3.9,3.1c6,0.4,12,0.3,18,0.4
		c4.3,0.1,5.9-2.2,5.9-6.3c0-6,0.3-12.1,0-18.1c-0.1-2.1-1.5-5.3-3.1-5.9c-1.6-0.6-4.8,1-6.1,2.6c-2.6,3.4-4.9,4.6-8.8,2.1
		s-4.8-5.1-2.7-9.3c3.8-8,6.7-8.7,15.1-3.3c3.2,2.1,6.9,7.2,10.5,1.8c3.3-5.1-2.5-7.2-5.6-9.3c-6-4-13-7.4-19.9-3.3
		c-6.9,4.2-10.5,11.7-10.6,19.6c-0.1,6.9,6.2,10,11.5,12.9C512.4,742.9,516,742.8,519.9,743.7z M57.4,65.7c-0.8-3-0.1-4.3,4-4.2
		s8.2-0.6,12.2-1.7c1.2-0.3,2.8-3.2,2.4-4.3c-0.6-1.6-2.7-3.5-4.2-3.6c-5.8-0.5-11.6-0.2-17.4-0.4c-4.4-0.1-6.6,1.7-6.5,6.3
		c0.1,6.1-0.3,12.1,0,18.2c0.1,2.2,1.6,5.8,2.9,6c2.1,0.3,4.6-1.5,6.7-2.6c1.7-0.9,3.7-3.7,4.7-3.3c2.8,1,7.1,3.1,7.2,5.1
		c0.3,3.3-1.7,7.2-3.7,10.1c-0.9,1.3-4.4,1.8-6.4,1.3c-2.9-0.8-5.5-2.8-8.1-4.5c-2.8-1.9-5.6-3.7-8.2-0.2c-2.6,3.5,0.2,5.8,2.8,7.7
		c2.3,1.7,4.7,4,7.4,4.5c5.1,0.9,11.4,2.6,15.5,0.6c7.1-3.6,10.5-11.5,10.7-19.4c0.1-6.9-6.2-10.1-11.4-12.9
		C64.9,66.5,61.1,66.5,57.4,65.7z"/>
	<path class="st1" d="M187.8,80.6c0.4,2.1,1.1,4.2,1.2,6.3c0.4,15.7,8.1,26.8,21.3,34.4c2.2,1.2,4.4,2.5,6.7,3.3
		c23.4,7.7,19.8,42.2,4.1,53.4c-6.2,4.4-13.4,3.8-20.5,2.2c-2-0.4-4.2,0.1-6.3,0.2c0.8,1.8,1.8,3.5,2.3,5.3c0.5,1.9,1.3,4.3,0.6,5.7
		c-0.7,1.3-3.4,2.2-5.1,2.2c-7.5,0-15-0.3-22.5-0.6c-5-0.2-6.1-2.7-3.4-6.9c0.7-1,1.6-2,2.1-3.1c0.8-2,1.4-4.1,2-6.2
		c-2.1,0-4.2-0.2-6.2,0.1c-18.2,2.6-27.8-2.7-35.4-19.2c-0.9-2-1.1-4.5-1-6.7c0.9-15.2,11.5-28.9,26.5-31.8
		c12.9-2.5,21.5-9.5,27-20.8c1.5-3.1,1.1-7.1,1.8-10.7c0.5-2.6,1.4-5.1,2.2-7.6C186,80.3,186.9,80.4,187.8,80.6z"/>
	<path class="st1" d="M403.4,80.8c0.3,2.1,0.9,4.3,1,6.4c0.5,15.1,7.9,26,20.5,33.7c2.3,1.4,4.7,2.7,7.3,3.6
		c23.8,7.9,19.9,42.1,4.6,53.4c-5.9,4.4-12.9,3.9-19.8,2.5c-2.3-0.5-4.7-0.2-7-0.2c0.8,1.9,1.4,4,2.4,5.8c2.4,4.4,0.6,7.8-4.6,7.7
		c-7.7-0.1-15.4-0.3-23.1-0.7c-4.5-0.2-5.6-2.9-3.2-6.7c0.3-0.5,0.9-0.9,1.1-1.5c1-2.8,1.9-5.6,2.9-8.4c-2.5,0.3-5.1,0.4-7.5,0.8
		c-14.4,2.5-27.5-4.2-33.1-17.5c-1.5-3.6-1.9-8.3-1-12.1c3.9-16,12.7-26.9,30.3-29.9c14.5-2.5,24.3-15.9,24.4-30.3
		c0-2.4,1.4-4.8,2.2-7.2C401.6,80.4,402.5,80.6,403.4,80.8z"/>
	<path class="st1" d="M340.2,414.3c-0.8,4.3-1.1,8.8-2.5,12.8c-5.2,14.4-15.8,19.7-30.8,16.1c-1.8-0.4-3.9-0.1-5.8-0.1
		c0.6,1.8,1.3,3.5,1.7,5.3c0.5,2.1,1.5,4.6,0.7,6.2c-0.5,1.3-3.4,2.2-5.2,2.2c-7.3,0-14.6-0.3-21.9-0.7c-4.9-0.2-6-2.7-3.4-7
		c0.8-1.2,1.8-2.4,2.3-3.7c0.6-1.8,0.8-3.8,1.2-5.8c-1.7,0-3.5-0.2-5.2,0c-9.7,1.4-19.3,2-27-5.7c-6.3-6.2-12.7-12.9-9.8-22.9
		c3.9-13.7,10.2-26.3,26.1-28.8c13.4-2.1,21.5-10.3,27.6-21.2c1.5-2.8,0.5-6.8,1.3-10.2c0.5-2.3,2-4.3,3.1-6.5
		c0.9,2,2.6,3.9,2.7,5.9c0.4,15.5,8.3,26.3,21,34.1c2.5,1.5,5.2,2.7,7.9,3.9C335.5,393.3,340.6,401.9,340.2,414.3z M299.9,442.3
		c-0.1,0.1-0.4,0.3-0.4,0.4c0.1,0.3,0.3,0.6,0.4,0.8c0.1-0.1,0.4-0.3,0.4-0.4C300.3,442.9,300.1,442.6,299.9,442.3z"/>
	<path class="st1" d="M171.8,630.9c-1.7-1.9-3.7-3.6-5-5.8c-1.2-1.9-2.4-4.5-2-6.5c0.2-1.2,3.6-2.3,5.6-2.4
		c7.1-0.2,14.2,0.1,21.2,0.3c5.3,0.2,6.2,2.6,3.4,7.3c-1.8,3-3.3,6.3-5.2,10.1c7.3-0.6,13.2-1.6,19.1-1.3
		c18.5,0.8,29,19.3,22.2,36.3c-5.3,13.4-14.6,20.1-28.2,22.6c-12.5,2.3-18.6,12-23.9,22c-1.5,2.8,0,7-0.4,10.5
		c-0.2,1.5-1.8,2.7-2.8,4.1c-0.9-1.4-2.7-2.8-2.7-4.2c0.3-19.6-10.7-31-27.2-39c-19.8-9.6-23.3-36.3-7-51.5
		c6.2-5.7,13.6-5.7,21.2-4.1c3.6,0.7,7,2.1,10.5,3.1C171,631.9,171.4,631.4,171.8,630.9z"/>
	<path class="st1" d="M387.2,630.7c-1.9-2-4.1-3.9-5.6-6.2c-1.1-1.7-2-4.3-1.5-6.1c0.3-1.2,3.3-2.2,5.1-2.3
		c7.3-0.1,14.6,0.1,21.9,0.3c5,0.2,6.1,2.7,3.6,6.9c-1.9,3.1-3.5,6.4-6.2,11.4c3.7-0.7,5.4-0.9,7-1.4c15.7-4.6,30.7,2.5,36.8,17.6
		c1,2.4,1.5,5.3,1.3,7.9c-1.4,15.6-12.3,28.8-27.8,31.5c-13.5,2.4-21.1,11.2-26.9,22c-1.6,2.9-0.2,7.3-0.8,11c-0.3,1.6-2,3.1-3,4.6
		c-0.9-1.4-2.6-2.9-2.6-4.3c0.2-19.3-10.5-30.7-26.7-38.6c-18.1-8.8-23.3-26.9-13-44.4c6.4-11,15.2-14.5,27.6-11.2
		c3.3,0.9,6.6,2,9.8,3C386.5,631.9,386.8,631.3,387.2,630.7z"/>
	<path class="st1" d="M524.8,618.7c5.1-0.5,8.3-1,11.6-1.2c10.4-0.6,16.8,5.2,21.2,13.7c3.8,7.5-2.5,23.2-11.2,28.1
		c-2.7,1.5-5.7,3-8.7,3.4c-10,1.3-16,7.6-20.4,15.7c-1.3,2.5-0.7,6-1.4,9c-0.3,1.5-1.6,2.9-2.4,4.3c-0.8-1.3-2.2-2.5-2.2-3.8
		c-0.1-14.7-8.4-23.2-20.7-29.3c-13.5-6.6-17.8-20.3-10.7-33.5c4.6-8.6,10.3-11.7,20-10.3c4.5,0.6,8,1.3,4.9-5.2
		c-1.4-3,0.5-4.7,3.8-4.7c5.8,0.1,11.7,0.1,17.5,0.4c4.4,0.2,4.8,2.4,2.6,5.8C527.3,613.1,526.4,615.4,524.8,618.7z M507,614.5
		c-0.2-0.2-0.3-0.3-0.4-0.4c-0.1,0.3-0.3,0.5-0.4,0.8c0,0.1,0.3,0.3,0.4,0.4C506.7,615,506.9,614.7,507,614.5z"/>
	<path class="st1" d="M68.9,192.8c5.7,11.9,5.7,11.9-6.9,11.7c-3.5-0.1-7.1-0.1-10.6-0.2c-4.1-0.2-5.2-2-3-5.7
		c1.3-2.2,2.3-4.5,4-7.9c-3.3,0.5-5.1,0.9-6.8,1.1c-7,0.7-13.8,0.6-19.3-4.7c-11.3-10.8-9.4-28.5,4.2-36.7c2.8-1.7,6-3.3,9.2-3.7
		c10-1.3,16-7.7,20.4-15.8c1.3-2.3,0.6-5.6,1.3-8.4c0.4-1.7,1.7-3.2,2.5-4.8c0.8,1.5,2.2,2.9,2.2,4.4c0.3,13.8,7.7,22.4,19.5,28.1
		c14.6,7.2,19.2,20.3,12,34.1c-4.9,9.4-11.9,12.6-22.3,10C73.5,193.8,71.8,193.5,68.9,192.8z"/>
	<path class="st1" d="M519.9,743.7c-3.9-0.8-7.5-0.8-10.2-2.3c-5.3-2.8-11.6-5.9-11.5-12.9c0.1-8,3.6-15.4,10.6-19.6
		c6.9-4.1,13.8-0.7,19.9,3.3c3.1,2.1,9,4.2,5.6,9.3c-3.6,5.4-7.3,0.2-10.5-1.8c-8.4-5.4-11.3-4.8-15.1,3.3c-2,4.3-1.1,6.9,2.7,9.3
		c4,2.5,6.2,1.3,8.8-2.1c1.2-1.6,4.5-3.2,6.1-2.6c1.6,0.6,3,3.8,3.1,5.9c0.4,6,0,12.1,0,18.1c0,4.1-1.6,6.3-5.9,6.3
		c-6-0.1-12,0-18-0.4c-1.5-0.1-3.8-2-3.9-3.1c-0.1-1.6,1.3-4.4,2.6-4.8c3.7-1.1,7.7-1.6,11.6-1.5C519.5,748.1,521,747.2,519.9,743.7
		z"/>
	<path class="st1" d="M57.4,65.7c3.8,0.8,7.5,0.8,10.5,2.4c5.2,2.9,11.6,6,11.4,12.9c-0.2,8-3.6,15.8-10.7,19.4
		c-4.1,2.1-10.3,0.3-15.5-0.6c-2.7-0.5-5-2.8-7.4-4.5c-2.6-1.9-5.4-4.2-2.8-7.7c2.5-3.5,5.4-1.6,8.2,0.2c2.6,1.7,5.2,3.7,8.1,4.5
		c1.9,0.6,5.4,0,6.4-1.3c2-2.9,4-6.8,3.7-10.1c-0.2-1.9-4.4-4-7.2-5.1c-1-0.4-2.9,2.4-4.7,3.3c-2.2,1.2-4.7,3-6.7,2.6
		c-1.3-0.2-2.7-3.8-2.9-6c-0.4-6,0-12.1,0-18.2c-0.1-4.6,2.1-6.4,6.5-6.3c5.8,0.2,11.6-0.1,17.4,0.4c1.6,0.1,3.7,2.1,4.2,3.6
		c0.4,1.1-1.2,4-2.4,4.3c-4,1-8.1,1.8-12.2,1.7C57.3,61.4,56.6,62.7,57.4,65.7z"/>
	<path class="st0" d="M299.9,442.3c0.1,0.3,0.3,0.5,0.4,0.8c0,0.1-0.3,0.3-0.4,0.4c-0.1-0.3-0.3-0.5-0.4-0.8
		C299.5,442.6,299.8,442.5,299.9,442.3z"/>
	<path class="st0" d="M507,614.5c-0.1,0.3-0.3,0.5-0.4,0.8c-0.1-0.1-0.4-0.3-0.4-0.4c0.1-0.3,0.3-0.6,0.4-0.8
		C506.7,614.1,506.8,614.3,507,614.5z"/>
</g>
</svg>
