<?xml version="1.0" encoding="utf-8"?>
<!-- Generator: Adobe Illustrator 24.0.0, SVG Export Plug-In . SVG Version: 6.00 Build 0)  -->
<svg version="1.1" id="Layer_1" xmlns="http://www.w3.org/2000/svg" xmlns:xlink="http://www.w3.org/1999/xlink" x="0px" y="0px"
	 viewBox="0 0 578.2 809.5" style="enable-background:new 0 0 578.2 809.5;" xml:space="preserve">
<style type="text/css">
	.st0{fill:#FEFEFE;}
	.st1{fill:#FE2020;}
</style>
<g>
	<path class="st0" d="M39,0c166.7,0,333.5,0,500.2,0c21.5,0,39,17.5,39,39c0,243.8,0,487.7,0,731.5c0,21.5-17.5,39-39,39H39
		c-21.5,0-39-17.5-39-39C0,526.7,0,282.8,0,39C0,17.5,17.5,0,39,0z M155.9,468.2c0,0.4-0.1,1.6,0,2.7c0.1,1.1,0.2,2.3,0.5,3.4
		c1,3,5.5,4.5,7.4,2.2c1.5-1.8,2.3-4.4,2.7-6.8c0.8-4.3,0.3-9,1.7-13.1c2.5-7.8,5.6-15.4,11.4-21.5c6.9-7.2,13.8-14.3,20.9-21.2
		c2.6-2.5,3.7-6.2,1.4-8.4c-1.9-1.9-3.9-3.7-6-5.3c-10.4-7.6-14.9-18.7-18-30.4c-2.3-9-3.2-18.4-4.9-27.5c-0.2-1.3-1.8-2.8-3.1-3.2
		c-4.7-1.4-6.8,0.3-8.7,6c-3.7,10.9-7.2,21.8-11.2,32.5c-4.1,10.9-11.2,19.9-19.8,27.7c-2.8,2.6-3.8,6.8-1.9,9.2
		c5,6.6,10.4,12.9,15,19.7C150.1,444.3,155.3,455,155.9,468.2z M125.1,131.6c0.7,1.5,1.2,2.9,2,3.9c4.6,6.1,9.9,11.8,13.9,18.3
		c4.3,7,7.9,14.6,10.8,22.4c1.9,5,1.9,10.8,2.6,16.2c0.4,2.7,1.7,5.3,4.3,4.9c1.7-0.2,3.1-3,4.5-4.7c0.3-0.4,0.1-1.2,0.1-1.9
		c0.4-12.1,4.2-23.2,11.5-32.8c7-9.2,14.2-18.1,23.7-25c2.5-1.8,2.5-4.1,0.3-6.2c-1.9-1.9-3.8-3.8-6-5.4c-7.8-5.9-12.7-14-15.3-23
		c-3.1-11-5-22.4-7.1-33.7c-0.5-2.9-1.7-4.4-4.4-5c-2.8-0.6-4.5,1.1-5.4,3.3c-1.1,2.5-1.8,5.1-2.4,7.7
		c-5.6,21.2-13.6,41.1-30.3,56.4C126.6,128.2,126,130,125.1,131.6z M371.8,410.9c0.7,1.4,1.1,2.5,1.7,3.4c4.3,5.7,9,11.2,13.1,17
		c8.4,11.8,14,24.7,14.5,39.4c0.1,3,0.9,5.8,4.3,5.7c3-0.1,4.1-2.7,4-5.6c-0.3-10.5,2.9-20.1,8.2-28.8c7-11.3,15.6-21.2,26.2-29.3
		c3.2-2.4,3.4-3.9,0.4-6.8c-1.7-1.7-3.4-3.5-5.4-4.9c-7.4-5.5-11.5-13.3-14.9-21.5c-4.6-11.1-5.9-23-7.4-34.9
		c-0.4-3-1.4-4.9-4.4-5.2c-3.2-0.3-4.7,1.7-5.5,4.3c-1.2,3.8-2.1,7.6-3.2,11.5c-5.5,19.2-13.4,37.1-28.5,50.9
		C373.5,407.5,372.8,409.4,371.8,410.9z M411,61.5c-0.9,1.1-2.5,2.5-3.4,4.2c-1,1.9-1.1,4.2-1.9,6.2c-4.2,11.3-7.5,23-12.9,33.6
		c-4.1,8-10.5,15-16.5,21.9c-3.7,4.4-4.3,6.3-0.7,10.6c1.7,2,3.4,4,5,6c7.7,10,15.1,20.3,18.5,32.7c1.5,5.5,2,11.3,2.9,17
		c0.4,2.5,1.2,5.1,3.9,4.6c1.6-0.3,2.9-2.9,4.2-4.5c0.3-0.4,0-1.3,0.1-1.9c0.9-5.3,1.2-10.7,2.8-15.8c5.1-16.4,17-28.1,29.1-39.4
		c6.4-5.9,6.7-6.2-0.3-11.6c-8.7-6.8-14.9-15.3-17.6-25.9c-2.7-10.8-4.8-21.7-6.8-32.6C416.7,63.3,415.2,61.9,411,61.5z
		 M165.8,747.1c0.6-0.3,1.9-0.7,2.4-1.5c1.1-1.8,2-3.9,2.6-5.9c5.9-22.4,13.6-43.9,31.5-60c2.3-2.1,2.7-4.9,0.6-7.6
		c-4.3-5.6-8.8-11-12.9-16.7c-8.4-11.8-14.1-24.7-14.6-39.4c-0.1-2.9-0.5-5.9-4.1-5.7c-3.5,0.2-4,3.4-4.1,6.4
		c-0.1,2.4-0.2,4.9-0.6,7.3c-1.9,12.4-7.8,23-15.9,32.2c-5.6,6.4-12.1,12.1-18.4,17.9c-2.6,2.3-2.5,4.3-0.2,6.4
		c3.1,2.9,6.5,5.4,9.5,8.4c8,8.2,11.9,18.5,14.5,29.2c1.9,7.8,2.9,15.9,4,23.9C160.6,745.2,162.1,746.8,165.8,747.1z M451.8,677.3
		c-0.7-1.5-1.1-2.7-1.8-3.7c-4.3-5.7-8.9-11.2-13.1-17.1c-8.3-11.8-14-24.7-14.3-39.5c-0.1-2.6-0.7-5.2-3.8-5.3
		c-3.2-0.1-4.1,2.6-4.3,5.3c-0.3,2.9-0.2,5.9-0.6,8.8c-3.4,20.4-16.6,34.7-31.3,47.4c-7.1,6.1-5.2,7,0,11.6c0.6,0.5,1.2,1,1.8,1.5
		c7.5,5.6,12,13.4,15.5,21.9c4.5,11.2,6,23,7.4,34.8c0.4,2.9,1.3,5,4.4,5.4c3.2,0.4,4.6-1.8,5.4-4.4c1.2-3.9,2.1-7.9,3.3-11.8
		c5.6-18.9,13.2-36.6,28.3-50.2C450,680.8,450.7,678.9,451.8,677.3z M550.4,632.7c-0.7-1.2-1.1-2.3-1.8-3.1
		c-3.3-4.4-6.8-8.6-10-13.1c-5.6-8-9-16.9-9.6-26.8c-0.1-1.5-2.1-3-3.2-4.5c-1.1,1.5-3.2,3-3.2,4.6c-0.6,17.7-11.4,29.4-23.5,40.3
		c-4.2,3.8-4.6,5,0,8.4c8.7,6.6,13.1,15.5,15.3,25.9c1.1,5.5,1.8,11.1,3,16.6c0.3,1.4,2,3.2,3.3,3.5c1.2,0.2,3.2-1.1,4.1-2.3
		c1-1.4,1.3-3.3,1.8-5c3.9-15.4,9.9-29.6,21.7-40.8C549.2,635.5,549.6,634,550.4,632.7z M27,176.1c0.7,1.2,1.2,2.2,1.8,3.1
		c3.4,4.5,7,8.8,10.2,13.4c5.4,7.8,8.6,16.5,9.3,26.1c0.1,1.6,1.9,3.2,2.9,4.7c1.2-1.6,3.5-3.1,3.5-4.7
		c0.7-17.9,11.6-29.6,23.9-40.5c3.7-3.3,4.1-4.6,0.1-7.7c-7.1-5.4-12-12.3-14.2-20.9c-1.8-7.2-2.8-14.6-4.5-21.8
		c-0.3-1.5-2.1-3.5-3.4-3.7c-1.3-0.2-3.2,1.4-4.2,2.7c-0.9,1.1-1.1,2.8-1.5,4.3C47,146.6,41,161,29,172.3
		C28.2,173.3,27.8,174.8,27,176.1z M534.6,734.8c1.2,6.6-0.4,11.5-4,15.5c-5.7,6.4-12.7,9.7-21.6,8.2c-3.7-0.6-6.3,1-6.4,3.7
		c-0.2,3.6,2,4.8,5.2,5.4c11.6,2,25.3-3.9,31.8-13.9c6.6-10.2,5.9-22.4-1.8-32.7c-10.3-13.6-24.3-15.2-35.9-3.9
		c-7,6.8-6.4,18.2,1.6,23.8c5.8,4,15.9,6.2,23.3,0.1C529,739.1,531.4,737.3,534.6,734.8z M42.7,74c-0.1-2.7-0.5-4.3-0.3-5.9
		C43.6,57.8,55.6,48.6,66,49.9c1.3,0.2,2.5,0.5,3.8,0.5c2.5,0,4.7-1,4.9-3.8c0.3-2.8-1-4.5-3.9-5.2C59,38.6,44.6,44.7,37.4,55.6
		C31,65.4,32,77.9,40,88.2c10.3,13.1,24,14.5,35.4,3.5c7-6.8,6.4-18.2-1.5-23.8c-5.4-3.8-15.5-6.4-23.4-0.1
		C48.4,69.5,46,71.4,42.7,74z"/>
	<path class="st1" d="M155.9,468.2c-0.6-13.2-5.8-23.9-12.7-33.9c-4.7-6.8-10-13.2-15-19.7c-1.9-2.4-0.9-6.7,1.9-9.2
		c8.5-7.8,15.7-16.8,19.8-27.7c4-10.7,7.6-21.7,11.2-32.5c1.9-5.7,4-7.4,8.7-6c1.3,0.4,2.9,1.9,3.1,3.2c1.8,9.2,2.6,18.5,4.9,27.5
		c3.1,11.7,7.6,22.8,18,30.4c2.2,1.6,4.1,3.5,6,5.3c2.2,2.2,1.2,5.9-1.4,8.4c-7.1,6.9-14,14-20.9,21.2c-5.8,6.1-8.9,13.7-11.4,21.5
		c-1.3,4.1-0.9,8.8-1.7,13.1c-0.4,2.4-1.2,5-2.7,6.8c-1.9,2.3-6.4,0.8-7.4-2.2c-0.3-1.1-0.4-2.2-0.5-3.4
		C155.8,469.8,155.9,468.6,155.9,468.2z"/>
	<path class="st1" d="M125.1,131.6c0.9-1.6,1.5-3.5,2.7-4.6c16.8-15.2,24.7-35.2,30.3-56.4c0.7-2.6,1.4-5.2,2.4-7.7
		c0.9-2.2,2.6-3.9,5.4-3.3c2.7,0.5,3.8,2.1,4.4,5c2.1,11.3,4,22.7,7.1,33.7c2.6,9.1,7.5,17.1,15.3,23c2.1,1.6,4,3.6,6,5.4
		c2.2,2.1,2.2,4.4-0.3,6.2c-9.5,6.8-16.7,15.8-23.7,25c-7.3,9.6-11.1,20.7-11.5,32.8c0,0.6,0.2,1.5-0.1,1.9
		c-1.4,1.7-2.8,4.5-4.5,4.7c-2.6,0.3-3.9-2.2-4.3-4.9c-0.7-5.4-0.7-11.2-2.6-16.2c-2.8-7.7-6.5-15.3-10.8-22.4
		c-4-6.5-9.3-12.2-13.9-18.3C126.2,134.5,125.8,133.1,125.1,131.6z"/>
	<path class="st1" d="M371.8,410.9c1-1.6,1.8-3.4,3.1-4.6c15.1-13.8,23-31.7,28.5-50.9c1.1-3.8,2.1-7.7,3.2-11.5
		c0.8-2.6,2.3-4.7,5.5-4.3c3.1,0.3,4.1,2.2,4.4,5.2c1.5,11.8,2.8,23.7,7.4,34.9c3.4,8.2,7.5,16,14.9,21.5c1.9,1.4,3.7,3.2,5.4,4.9
		c2.9,2.9,2.8,4.3-0.4,6.8c-10.6,8.1-19.3,18-26.2,29.3c-5.4,8.7-8.5,18.3-8.2,28.8c0.1,2.9-1,5.5-4,5.6c-3.4,0.1-4.2-2.7-4.3-5.7
		c-0.4-14.7-6.1-27.6-14.5-39.4c-4.1-5.8-8.8-11.3-13.1-17C372.9,413.5,372.5,412.3,371.8,410.9z"/>
	<path class="st1" d="M411,61.5c4.2,0.5,5.7,1.8,6.3,5.1c2,10.9,4.1,21.9,6.8,32.6c2.7,10.6,9,19.1,17.6,25.9
		c7,5.5,6.7,5.7,0.3,11.6c-12.1,11.3-23.9,23-29.1,39.4c-1.6,5.1-1.9,10.5-2.8,15.8c-0.1,0.6,0.2,1.5-0.1,1.9
		c-1.3,1.7-2.6,4.2-4.2,4.5c-2.7,0.5-3.5-2.2-3.9-4.6c-0.9-5.7-1.4-11.5-2.9-17c-3.4-12.3-10.7-22.6-18.4-32.6
		c-1.6-2.1-3.4-4.2-5.1-6.2c-3.6-4.3-2.9-6.2,0.7-10.5c5.9-7,12.4-13.9,16.5-21.9c5.4-10.6,8.8-22.3,12.9-33.6
		c0.8-2,0.9-4.3,1.9-6.2C408.5,63.9,410.1,62.6,411,61.5z"/>
	<path class="st1" d="M165.8,747.1c-3.7-0.3-5.1-1.9-5.6-5.2c-1.1-8-2.1-16-4-23.9c-2.6-10.8-6.6-21.1-14.5-29.2
		c-2.9-3-6.4-5.5-9.5-8.4c-2.3-2.1-2.4-4,0.2-6.4c6.3-5.8,12.7-11.5,18.4-17.9c8.2-9.3,14.2-20,16-32.7c0.3-2.4,0.4-4.8,0.5-7.3
		c0.1-2.9,0.8-5.8,4.1-6c3.6-0.2,4,2.9,4.1,5.7c0.5,14.8,6.2,27.6,14.6,39.4c4.1,5.7,8.6,11.2,12.9,16.7c2.1,2.7,1.7,5.6-0.6,7.6
		c-17.9,16.1-25.6,37.5-31.5,60c-0.5,2.1-1.5,4.1-2.6,5.9C167.7,746.4,166.4,746.8,165.8,747.1z"/>
	<path class="st1" d="M451.8,677.3c-1,1.6-1.8,3.5-3.1,4.7c-15,13.6-22.6,31.4-28.3,50.2c-1.2,3.9-2.1,7.9-3.3,11.8
		c-0.8,2.6-2.2,4.8-5.4,4.4c-3.1-0.4-4-2.4-4.4-5.4c-1.5-11.8-2.9-23.7-7.4-34.8c-3.5-8.5-8-16.3-15.5-22c-0.6-0.5-1.2-0.9-1.8-1.4
		c-5.2-4.6-7.1-5.5,0-11.6c14.6-12.7,27.9-27,31.3-47.4c0.5-2.9,0.4-5.9,0.6-8.8c0.2-2.7,1.1-5.4,4.3-5.3c3.1,0.1,3.7,2.7,3.8,5.3
		c0.4,14.8,6,27.7,14.3,39.5c4.1,5.9,8.7,11.4,13.1,17.1C450.7,674.6,451.1,675.8,451.8,677.3z"/>
	<path class="st1" d="M550.4,632.7c-0.8,1.3-1.2,2.7-2.2,3.6c-11.8,11.2-17.9,25.4-21.7,40.8c-0.4,1.7-0.7,3.7-1.8,5
		c-0.9,1.2-2.9,2.5-4.1,2.3c-1.3-0.2-3-2.1-3.3-3.5c-1.2-5.5-1.9-11.1-3-16.6c-2.1-10.3-6.6-19.3-15.3-25.9c-4.6-3.4-4.1-4.7,0-8.4
		c12.1-10.9,22.8-22.6,23.5-40.3c0.1-1.6,2.1-3,3.2-4.6c1.1,1.5,3.1,2.9,3.2,4.5c0.7,9.9,4,18.7,9.6,26.8c3.2,4.5,6.7,8.7,10,13.1
		C549.3,630.5,549.7,631.5,550.4,632.7z"/>
	<path class="st1" d="M27,176.1c0.7-1.3,1.2-2.8,2.1-3.6c11.9-11.3,18-25.6,21.9-41.2c0.4-1.5,0.6-3.2,1.5-4.3
		c1.1-1.3,2.9-2.9,4.2-2.7s3,2.2,3.4,3.7c1.7,7.2,2.6,14.6,4.5,21.8c2.2,8.6,7.2,15.5,14.2,20.9c4,3.1,3.6,4.4-0.1,7.7
		c-12.3,10.9-23.2,22.6-23.9,40.5c-0.1,1.6-2.3,3.1-3.5,4.7c-1-1.6-2.8-3.1-2.9-4.7c-0.7-9.6-3.9-18.3-9.3-26.1
		c-3.2-4.6-6.8-8.9-10.2-13.4C28.2,178.3,27.7,177.3,27,176.1z"/>
	<path class="st1" d="M534.6,734.8c-3.1,2.5-5.5,4.3-7.9,6.2c-7.5,6.1-17.6,4-23.3-0.1c-8-5.6-8.6-17-1.6-23.8
		c11.6-11.2,25.7-9.7,35.9,3.9c7.7,10.3,8.4,22.5,1.8,32.7c-6.4,10-20.2,15.9-31.8,13.9c-3.2-0.6-5.4-1.9-5.2-5.4
		c0.2-2.8,2.8-4.4,6.4-3.7c8.9,1.6,15.9-1.7,21.6-8.2C534.1,746.3,535.8,741.4,534.6,734.8z M514.9,735.8c5.6-0.1,8.8-3,11.3-6.2
		c2.9-3.7,1.5-7.1-2.7-9.2c-5.9-3-13.1-1.1-16.8,4.6c-1.9,2.9-0.9,7.5,2.2,8.9C511.1,735,513.6,735.4,514.9,735.8z"/>
	<path class="st1" d="M42.7,74c3.3-2.6,5.7-4.5,8-6.3c7.8-6.3,18-3.7,23.4,0.1c7.9,5.6,8.5,17.1,1.5,23.8
		c-11.5,11-25.2,9.7-35.4-3.5c-8.1-10.3-9.1-22.8-2.6-32.6c7.2-10.9,21.6-17,33.4-14.2c2.9,0.7,4.2,2.5,3.9,5.2
		c-0.3,2.8-2.4,3.8-4.9,3.8c-1.3,0-2.5-0.3-3.8-0.5C55.7,48.5,43.8,57.7,42.6,68C42.3,69.7,42.6,71.3,42.7,74z M62.7,73
		c-3.9,0-10.2,3.7-11.5,6c-2.3,4-1.4,7.1,2.8,9.3c5.9,3,13,1.1,16.7-4.6c1.9-2.9,0.9-7.5-2.2-8.9C66.3,73.8,63.9,73.3,62.7,73z"/>
	<path class="st0" d="M514.9,735.8c-1.3-0.4-3.8-0.8-5.9-1.9c-3.2-1.5-4.1-6-2.2-8.9c3.7-5.7,10.9-7.6,16.8-4.6
		c4.2,2.2,5.5,5.6,2.7,9.2C523.7,732.8,520.5,735.7,514.9,735.8z"/>
	<path class="st0" d="M62.7,73c1.2,0.4,3.6,0.8,5.8,1.8c3.2,1.5,4.1,6,2.2,8.9C67,89.3,59.8,91.3,54,88.3c-4.2-2.2-5.1-5.3-2.8-9.3
		C52.5,76.6,58.8,73,62.7,73z"/>
</g>
</svg>
