<?xml version="1.0" encoding="utf-8"?>
<!-- Generator: Adobe Illustrator 24.0.0, SVG Export Plug-In . SVG Version: 6.00 Build 0)  -->
<svg version="1.0" id="Layer_1" xmlns="http://www.w3.org/2000/svg" xmlns:xlink="http://www.w3.org/1999/xlink" x="0px" y="0px"
	 viewBox="0 0 578.6 809.5" style="enable-background:new 0 0 578.6 809.5;" xml:space="preserve">
<style type="text/css">
	.st0{fill:#FDFDFD;}
	.st1{fill:#070707;}
</style>
<g>
	<path class="st0" d="M539.6,809.5H39c-21.5,0-39-17.5-39-39V39C0,17.5,17.5,0,39,0h500.6c21.5,0,39,17.5,39,39v731.5
		C578.6,792,561.1,809.5,539.6,809.5z M172.4,166.7c0.6,0.6,0.6,0.6,1.2,1.2c-1.7,3.6-2.9,7.7-5.4,10.8c-3.2,4-7.7,7-11.3,10.7
		c-1.1,1.1-2,3.2-1.8,4.7c0.1,0.8,2.5,1.9,4,2c10.4,0.7,20.8,1.4,31.2,1.7c3.8,0.1,7.7-0.8,11.4-1.7c1.3-0.3,2.4-1.9,3.6-2.8
		c-0.9-1.1-1.6-2.4-2.7-3.1c-5.2-3.8-10.8-7.2-15.8-11.2c-3.9-3.1-7-7-5-13.3c1.4,0.8,2.4,1.4,3.3,2.1c8.4,6.6,18.1,9.6,28.6,8.8
		c3.8-0.3,8.3-2.1,11.1-4.7c9.3-8.7,10.3-29.7,1.9-39.4c-2.8-3.3-7.1-5.7-11.3-7.2c-3.6-1.3-7.9-0.8-12.2-1.2
		c0.3-2.1,0.9-4.2,0.9-6.2c0.3-8.8,0.9-17.8-6-24.7c-6.7-6.8-21.8-8.7-31.1-4.2c-9.5,4.6-14.6,14-13.4,25.3
		c0.5,4.6,1.4,9.2,2.2,14.4c-3.1-0.3-5.4-0.5-7.6-0.9c-16.3-2.6-28.4,8.6-27.2,25.3c1,14.1,18.4,25.5,33,21.2
		C160.2,172.2,166.2,169.2,172.4,166.7z M400.4,167.9c0.6,0.6,0.6,0.6,1.2,1.2c-1.8,3.7-3,7.8-5.6,10.9c-3.3,4-7.7,7-11.4,10.7
		c-1.1,1.1-1.9,3.3-1.6,4.7c0.1,0.8,2.6,1.8,4,1.9c10.4,0.7,20.8,1.5,31.2,1.7c3.8,0.1,7.7-0.9,11.4-1.7c1.2-0.3,2.2-1.5,3.4-2.4
		c-0.9-1.2-1.6-2.8-2.8-3.7c-5.2-3.8-10.8-7.2-15.8-11.3c-3.8-3.1-7-7-5.1-12.5c0.7-0.1,0.9-0.3,1.1-0.2c0.7,0.4,1.5,0.8,2.1,1.3
		c8.1,6.6,17.5,9.3,27.9,9.4c6.7,0.1,11.7-2.9,15.1-8.4c5.8-9.4,5.6-19.4,2.5-29.6c-2.2-7.4-7.2-12.2-14.8-13.7
		c-3.9-0.8-8-0.7-12.2-1c0.4-2.2,0.9-4.3,1-6.3c0.3-8.8,0.8-17.8-6.1-24.7c-6.8-6.8-21.9-8.6-31.2-4c-9.5,4.6-14.5,14-13.3,25.3
		c0.5,4.6,1.4,9.2,2.2,14.4c-3.3-0.4-5.5-0.6-7.8-1c-16-2.6-28,8.4-27.1,24.8c0.8,14.2,18.1,26,32.5,21.8
		C387.9,173.6,394.1,170.4,400.4,167.9z M201.8,381.6c0.5-2.9,1-4.9,1-6.9c0.3-8.8,0.9-17.8-6-24.7c-6.7-6.8-21.8-8.8-31.1-4.3
		c-9.5,4.6-14.6,14-13.5,25.2c0.5,4.6,1.4,9.2,2.2,14.5c-3.1-0.3-5.3-0.5-7.5-0.8c-16.4-2.6-28.4,8.5-27.3,25.2
		c1,14.1,18.4,25.6,32.9,21.3c6.3-1.9,12.2-4.9,18.3-7.3c0.6,0.6,0.6,0.6,1.2,1.2c-1.5,3.5-2.4,7.4-4.7,10.2
		c-3.4,4.1-7.9,7.3-11.7,11.2c-1.1,1.1-2,3.2-1.9,4.7c0.1,0.8,2.5,1.9,3.9,2c10.6,0.8,21.2,1.4,31.8,1.8c3.4,0.1,6.9-0.7,10.2-1.6
		c1.6-0.4,2.8-1.9,4.2-2.9c-1.2-1.3-2.3-2.8-3.7-3.9c-5-3.7-10.4-7-15.2-11c-3.7-3-6.6-6.9-4.6-12.9c1.3,0.8,2.4,1.3,3.3,2
		c8.4,6.6,18.1,9.7,28.6,8.8c4-0.3,8.6-2.4,11.5-5.2c8.2-8,9.7-24.5,3.7-35.9C222.3,382.3,213.3,379.8,201.8,381.6z M409.5,423.5
		c1.4,0.9,2.3,1.4,3.1,2c8.1,6.6,17.5,9.3,27.9,9.4c6.7,0.1,11.7-2.9,15.1-8.4c5.8-9.4,5.6-19.4,2.5-29.6
		c-2.3-7.4-7.2-12.2-14.8-13.7c-3.9-0.8-8-0.7-12.2-1c0.4-2.2,0.9-4.3,1-6.3c0.3-8.8,0.8-17.8-6.1-24.7c-6.8-6.8-21.9-8.6-31.2-4
		c-9.5,4.6-14.4,14-13.3,25.3c0.5,4.6,1.4,9.2,2.2,14.4c-3.3-0.4-5.5-0.6-7.8-1c-16-2.6-28,8.4-27.1,24.8
		c0.8,14.2,18.1,26,32.6,21.8c6.5-1.9,12.7-5,19.1-7.6c0.6,0.6,0.6,0.6,1.2,1.2c-1.8,3.7-3.1,7.8-5.6,10.9c-3.3,4-7.7,7-11.4,10.6
		c-1.1,1-2.3,3.4-1.9,4.1c0.8,1.3,2.8,2.3,4.4,2.5c10.4,0.8,20.8,1.5,31.2,1.8c3.8,0.1,7.7-0.9,11.4-1.7c1.2-0.3,2.2-1.6,3.3-2.4
		c-0.9-1.2-1.6-2.8-2.8-3.7c-5.2-3.8-10.7-7.2-15.8-11.3C410.7,433.9,407.8,430,409.5,423.5z M170.5,642.1c-0.9-0.1-1.4,0.1-1.7-0.1
		c-0.7-0.4-1.4-0.9-2-1.5c-8.2-6.5-17.7-9.1-28-9c-5.9,0-10.4,2.5-13.8,7.3c-6.6,9.6-6.5,20-3.3,30.6c2.2,7.4,7.2,12.2,14.8,13.8
		c3.9,0.8,8,0.7,12.2,1c-0.3,2.2-0.9,4.2-1,6.2c-0.3,8.8-0.8,17.8,6.1,24.7c6.8,6.8,21.8,8.7,31.2,4.1c9.5-4.6,14.5-14,13.4-25.3
		c-0.5-4.6-1.4-9.2-2.2-14.5c3.2,0.4,5.5,0.6,7.7,1c16.1,2.6,28.1-8.3,27.2-24.7c-0.8-14.5-18.2-26.2-33.1-21.7
		c-6.3,1.9-12.3,5-18.5,7.4c-0.6-0.6-0.6-0.6-1.2-1.2c1.8-3.7,3-7.8,5.4-10.8c3.3-4,7.7-7,11.3-10.7c1.1-1.1,1.9-3.2,1.7-4.7
		c-0.1-0.8-2.6-1.8-4-1.9c-10.4-0.7-20.8-1.5-31.2-1.7c-3.8-0.1-7.7,0.9-11.4,1.6c-1.2,0.3-2.3,1.5-3.4,2.3c0.9,1.3,1.5,2.8,2.7,3.7
		c5.2,3.8,10.7,7.2,15.8,11.2C169,632.4,171.9,636.3,170.5,642.1z M405.7,643.5c2.2-5,3-9.1,5.3-12c3.4-4.2,7.9-7.3,11.7-11.2
		c1.2-1.2,2.4-3.4,2-4.6c-0.4-1.1-2.9-2.1-4.5-2.2c-10.4-0.8-20.8-1.5-31.2-1.8c-3.4-0.1-6.9,0.7-10.2,1.5c-1.6,0.4-2.9,1.8-4.4,2.8
		c1.2,1.3,2.2,2.9,3.6,3.9c5,3.7,10.4,7,15.2,10.9c5.3,4.3,6,7.5,4.1,12.5c-14-8.6-20.6-10.8-30.6-10.6c-6.2,0.1-10.9,2.6-14.2,7.7
		c-6,9-6.3,18.8-3.5,28.8c2.7,9.7,9.2,15.3,19.1,16.2c2.6,0.2,5.2-0.2,8.2-0.4c-0.4,2.5-0.9,4.5-1,6.6c-0.4,8.8-0.9,17.7,5.9,24.8
		c6.6,6.9,21.7,8.9,31.1,4.4c9.5-4.5,14.8-14,13.6-25.1c-0.5-4.7-1.4-9.3-2.2-14.6c3.2,0.4,5.7,0.5,8.1,0.9
		c15.4,2.5,26.6-8.1,27.1-23.9c0.5-13.7-19.3-27.5-33.1-22.7C419.9,637.4,414,640.1,405.7,643.5z M65.8,188c8.4,2.2,16.2,4.7,24.2,6
		c2.9,0.5,7.3-1.3,9.4-3.6c7.3-7.9,7.4-17.4,3.7-26.9c-3.3-8.4-10.5-10.6-18.9-9.9c-0.3,0-0.6-0.5-0.8-0.7
		c1.6-19.8-3.1-28-17.3-28.4c-3.7-0.1-7.4,0.6-10.8,2.2c-14.5,6.9-11.9,18.5-8.9,30.3c-3.5-0.5-5.9-0.7-8.4-1.1
		c-6.8-1.2-11.9,1.3-15.2,7.2c-3.8,6.6-6,13.5-1.1,20.5c4.9,7,14.5,11,22.5,8.8c4.9-1.3,9.5-3.7,16-6.2c-1.6,3.8-2.3,6.9-4.1,9
		c-2.6,3.2-6.1,5.6-9,8.6c-0.9,0.9-1.8,2.7-1.5,3.7c0.3,0.9,2.2,1.6,3.5,1.7c8.3,0.6,16.6,1.4,24.9,1.5c3.5,0,7.1-1.4,11.7-2.4
		C78.5,200,66.8,198.4,65.8,188z M496.4,655.8c-2.4,25.8,7.2,29.1,20.1,29.2c4.8,0,10.5-2.9,14.2-6.3c7.7-7,5.3-16.3,2.7-26.1
		c3.5,0.5,6.1,0.7,8.7,1.1c6.8,1.1,11.8-1.6,15.1-7.5c3.7-6.7,6.1-13.8,0.7-20.5c-5.7-7-13.1-11.2-22.6-8.6c-4.8,1.3-9.4,3.7-15.4,6
		c1.1-3.2,1.3-5.9,2.7-7.6c2.7-3.4,6.2-6.1,9.2-9.3c1.1-1.2,1.6-3,2.4-4.6c-1.5-0.5-2.9-1.2-4.4-1.4c-7.9-0.6-15.8-1.4-23.7-1.5
		c-3.6-0.1-7.1,1.2-10.7,1.9c-0.2,1-0.2,1.1-0.5,2.2c3.8,2.7,7.8,5.2,11.5,8.1c3.9,3,8.3,5.8,7.2,12.2c-3.9-2-7.4-4.3-11.2-5.6
		c-3.9-1.3-8.2-2.4-12.2-2.1c-3.4,0.2-7.5,1.6-10,3.9c-6.4,5.9-7.7,18.6-3.2,27.6C480.9,654.7,487.8,656.7,496.4,655.8z M55.1,78.5
		c-0.7-6.1,1.4-13.8,5.5-16.1c2.3-1.4,6.9-1.6,8.9-0.2c3.4,2.3,6.3,4.3,8.9,0.2c2.3-3.7-0.5-6.7-3.7-8.7c-8.4-5.5-19.1-3-24.5,5.7
		c-5.6,9-6.7,18.5-3.6,28.8c5,16.8,21.1,22.6,35.5,12.4c8.5-6,8.8-13.8,0.6-20.6C73.9,72.8,64.7,71.8,55.1,78.5z M524.6,731
		c0.9,0.7,0.8,0.7,1.8,1.4c-1.9,4.5-3.3,9.2-5.7,13.3c-2.6,4.4-6.9,4.7-10.7,1.4c-3.1-2.6-6.4-3.9-8.2-0.2c-0.9,1.9,0.8,6.6,2.8,8.2
		c7.7,6.4,19.4,3.9,25-4.9c5.7-9,6.8-18.5,3.8-28.8c-5-17.1-21.4-22.9-35.9-12.4c-7.9,5.8-8.4,13.4-0.9,19.8
		C505.3,736.4,514.6,738,524.6,731z"/>
	<path class="st1" d="M172,166.8c-6,2.5-11.9,5.4-18.1,7.3c-14.6,4.4-32-7-33-21.2c-1.2-16.7,10.8-27.9,27.2-25.3
		c2.2,0.4,4.5,0.5,7.6,0.9c-0.8-5.2-1.7-9.8-2.2-14.4c-1.2-11.2,3.9-20.7,13.4-25.3c9.3-4.5,24.4-2.6,31.1,4.2
		c6.9,7,6.3,15.9,6,24.7c-0.1,2-0.6,4-0.9,6.2c4.3,0.3,8.6-0.2,12.2,1.2c4.1,1.5,8.4,3.9,11.3,7.2c8.4,9.7,7.3,30.7-1.9,39.4
		c-2.8,2.6-7.2,4.4-11.1,4.7c-10.5,0.9-20.2-2.2-28.6-8.8c-0.9-0.7-2-1.3-3.3-2.1c-2,6.3,1.2,10.2,5,13.3c5,4,10.6,7.4,15.8,11.2
		c1.1,0.8,1.8,2.1,2.7,3.1c-1.2,1-2.2,2.5-3.6,2.8c-3.7,0.9-7.6,1.8-11.4,1.7c-10.4-0.3-20.8-1-31.2-1.7c-1.4-0.1-3.9-1.2-4-2
		c-0.2-1.5,0.7-3.6,1.8-4.7c3.7-3.7,8.1-6.7,11.3-10.7c2.5-3.1,3.7-7.3,5.5-10.9C173.1,167.4,172.6,167.1,172,166.8z"/>
	<path class="st1" d="M399.6,168.2c-6.1,2.5-12,5.5-18.2,7.3c-14.5,4.2-31.7-7.7-32.5-21.8c-0.9-16.4,11.1-27.4,27.1-24.8
		c2.2,0.4,4.5,0.6,7.8,1c-0.8-5.2-1.7-9.8-2.2-14.4c-1.2-11.3,3.8-20.7,13.3-25.3c9.3-4.6,24.3-2.7,31.2,4c7,6.9,6.4,15.9,6.1,24.7
		c-0.1,2-0.6,4.1-1,6.3c4.2,0.3,8.3,0.2,12.2,1c7.6,1.6,12.6,6.4,14.8,13.7c3.1,10.2,3.3,20.2-2.5,29.6c-3.4,5.6-8.4,8.5-15.1,8.4
		c-10.3-0.1-19.8-2.7-27.9-9.4c-0.6-0.5-1.4-0.9-2.1-1.3c-0.1-0.1-0.4,0.1-1.1,0.2c-1.9,5.5,1.3,9.4,5.1,12.5
		c5,4.1,10.6,7.4,15.8,11.3c1.2,0.9,1.9,2.4,2.8,3.7c-1.1,0.8-2.1,2.1-3.4,2.4c-3.8,0.8-7.6,1.8-11.4,1.7c-10.4-0.3-20.8-1-31.2-1.7
		c-1.5-0.1-3.9-1-4-1.9c-0.2-1.5,0.5-3.6,1.6-4.7c3.6-3.7,8.1-6.7,11.4-10.7c2.6-3.1,3.8-7.3,5.6-11
		C401,168.7,400.3,168.5,399.6,168.2z"/>
	<path class="st1" d="M201.8,381.6c11.4-1.8,20.5,0.6,25.7,10.7c6,11.4,4.4,27.9-3.7,35.9c-2.9,2.8-7.5,4.8-11.5,5.2
		c-10.5,0.9-20.2-2.2-28.6-8.8c-0.9-0.7-2-1.2-3.3-2c-2,6,0.9,9.8,4.6,12.9c4.8,4,10.2,7.2,15.2,11c1.4,1,2.5,2.6,3.7,3.9
		c-1.4,1-2.7,2.5-4.2,2.9c-3.3,0.9-6.8,1.7-10.2,1.6c-10.6-0.3-21.2-1-31.8-1.8c-1.4-0.1-3.9-1.2-3.9-2c-0.1-1.5,0.7-3.6,1.9-4.7
		c3.8-3.8,8.4-7,11.7-11.2c2.4-2.9,3.3-7,4.9-10.5c-0.5-0.2-1-0.5-1.5-0.7c-6,2.5-11.9,5.4-18.2,7.3c-14.5,4.3-31.9-7.1-32.9-21.3
		c-1.2-16.7,10.9-27.8,27.3-25.2c2.2,0.3,4.5,0.5,7.5,0.8c-0.8-5.2-1.7-9.8-2.2-14.5c-1.2-11.2,4-20.7,13.5-25.2
		c9.4-4.5,24.4-2.6,31.1,4.3c6.8,7,6.3,15.9,6,24.7C202.8,376.7,202.3,378.7,201.8,381.6z"/>
	<path class="st1" d="M409.5,423.5c-1.7,6.5,1.2,10.4,5,13.4c5,4,10.6,7.4,15.8,11.3c1.2,0.9,1.9,2.4,2.8,3.7
		c-1.1,0.8-2.1,2.1-3.3,2.4c-3.8,0.8-7.6,1.8-11.4,1.7c-10.4-0.3-20.8-1-31.2-1.8c-1.6-0.1-3.6-1.2-4.4-2.5
		c-0.5-0.7,0.8-3.1,1.9-4.1c3.7-3.6,8.1-6.7,11.4-10.6c2.6-3.1,3.8-7.3,5.7-11c-0.5-0.3-1.1-0.6-1.6-1c-6.2,2.5-12.3,5.6-18.7,7.4
		c-14.5,4.2-31.7-7.6-32.6-21.8c-1-16.4,11.1-27.4,27.1-24.8c2.2,0.4,4.5,0.6,7.8,1c-0.8-5.2-1.7-9.8-2.2-14.4
		c-1.2-11.3,3.8-20.7,13.3-25.3c9.3-4.6,24.3-2.8,31.2,4c7,6.9,6.4,15.9,6.1,24.7c-0.1,2-0.6,4.1-1,6.3c4.2,0.3,8.3,0.2,12.2,1
		c7.6,1.6,12.6,6.4,14.8,13.7c3.1,10.2,3.3,20.2-2.5,29.6c-3.4,5.6-8.4,8.5-15.1,8.4c-10.3-0.1-19.8-2.7-27.9-9.4
		C411.9,424.9,411,424.4,409.5,423.5z"/>
	<path class="st1" d="M170.5,642.1c1.4-5.8-1.5-9.7-5.3-12.7c-5.1-4-10.6-7.4-15.8-11.2c-1.2-0.9-1.8-2.5-2.7-3.7
		c1.1-0.8,2.2-2,3.4-2.3c3.8-0.8,7.6-1.7,11.4-1.6c10.4,0.3,20.8,1,31.2,1.7c1.4,0.1,3.9,1.1,4,1.9c0.2,1.5-0.6,3.6-1.7,4.7
		c-3.7,3.7-8.1,6.7-11.3,10.7c-2.5,3.1-3.7,7.3-5.5,11c0.5,0.3,1.1,0.6,1.6,0.9c6-2.5,11.9-5.4,18.1-7.3
		c14.9-4.4,32.3,7.2,33.1,21.7c0.9,16.4-11.1,27.3-27.2,24.7c-2.2-0.4-4.5-0.6-7.7-1c0.8,5.3,1.7,9.8,2.2,14.5
		c1.2,11.3-3.9,20.7-13.4,25.3c-9.3,4.5-24.4,2.7-31.2-4.1c-6.9-6.9-6.4-15.9-6.1-24.7c0.1-2,0.6-4,1-6.2c-4.2-0.3-8.3-0.2-12.2-1
		c-7.6-1.6-12.6-6.4-14.8-13.8c-3.2-10.6-3.3-21,3.3-30.6c3.3-4.8,7.9-7.3,13.8-7.3c10.3-0.1,19.8,2.5,28,9c0.7,0.5,1.3,1,2,1.5
		C169.1,642.2,169.6,642.1,170.5,642.1z"/>
	<path class="st1" d="M405.7,643.5c8.2-3.3,14.2-6.1,20.4-8.2c13.9-4.8,33.6,9,33.1,22.7c-0.5,15.8-11.8,26.4-27.1,23.9
		c-2.4-0.4-4.8-0.6-8.1-0.9c0.8,5.4,1.8,10,2.2,14.6c1.2,11.1-4.1,20.6-13.6,25.1c-9.4,4.4-24.5,2.5-31.1-4.4
		c-6.8-7-6.2-16-5.9-24.8c0.1-2,0.6-4,1-6.6c-3.1,0.2-5.7,0.6-8.2,0.4c-9.9-0.8-16.4-6.4-19.1-16.2c-2.8-10.1-2.5-19.8,3.5-28.8
		c3.4-5.1,8.1-7.6,14.2-7.7c10-0.1,16.6,2.1,30.6,10.6c1.9-5,1.1-8.3-4.1-12.5c-4.8-3.9-10.2-7.2-15.2-10.9c-1.4-1-2.4-2.6-3.6-3.9
		c1.5-1,2.8-2.4,4.4-2.8c3.3-0.8,6.8-1.6,10.2-1.5c10.4,0.3,20.8,1,31.2,1.8c1.6,0.1,4.1,1.1,4.5,2.2c0.4,1.2-0.8,3.5-2,4.6
		c-3.8,3.8-8.4,7-11.7,11.2C408.7,634.3,407.9,638.4,405.7,643.5z"/>
	<path class="st1" d="M65.8,188c1,10.4,12.7,12,19.9,20.2c-4.6,1-8.2,2.5-11.7,2.4c-8.3-0.1-16.6-0.8-24.9-1.5
		c-1.3-0.1-3.2-0.8-3.5-1.7c-0.3-1,0.6-2.8,1.5-3.7c2.9-3,6.4-5.4,9-8.6c1.8-2.2,2.4-5.2,4.1-9c-6.4,2.6-11.1,4.9-16,6.2
		c-8.1,2.2-17.7-1.8-22.5-8.8c-4.9-7.1-2.7-13.9,1.1-20.5c3.3-5.9,8.4-8.4,15.2-7.2c2.4,0.4,4.8,0.7,8.4,1.1
		c-2.6-10.3-5-20.6,4.3-27.6c4-3,9.9-5,14.8-4.9c14.6,0.2,19.4,8.4,17.9,28.4c0.3,0.2,0.6,0.7,0.8,0.7c8.4-0.7,15.6,1.4,18.9,9.9
		c3.7,9.5,3.7,19-3.7,26.9c-2.1,2.3-6.5,4.1-9.4,3.6C82,192.7,74.2,190.2,65.8,188z"/>
	<path class="st1" d="M496.4,655.8c-8.6,0.9-15.5-1.1-19.3-8.9c-4.4-9-3.2-21.7,3.2-27.6c2.5-2.3,6.6-3.6,10-3.9
		c4-0.2,8.3,0.8,12.2,2.1c3.8,1.3,7.3,3.6,11.2,5.6c1.1-6.4-3.3-9.2-7.2-12.2c-3.7-2.9-7.7-5.4-11.5-8.1c0.1-0.7,0.2-1.4,0.2-2.1
		c3.6-0.7,7.3-2,10.9-1.9c7.9,0.1,15.8,0.9,23.7,1.5c1.5,0.1,3,0.9,4.4,1.4c-0.8,1.5-1.3,3.3-2.4,4.6c-3,3.2-6.5,5.9-9.2,9.3
		c-1.4,1.7-1.6,4.4-2.7,7.6c6-2.4,10.5-4.7,15.4-6c9.4-2.6,16.9,1.6,22.6,8.6c5.4,6.7,3,13.8-0.7,20.5c-3.3,5.9-8.3,8.6-15.1,7.5
		c-2.6-0.4-5.2-0.7-8.7-1.1c2.5,9.7,5,19.1-2.7,26.1c-3.7,3.4-9.4,6.4-14.2,6.3C503.6,684.8,493.9,681.6,496.4,655.8z"/>
	<path class="st1" d="M55.1,78.5c9.6-6.7,18.8-5.6,27.5,1.5c8.2,6.8,7.9,14.5-0.6,20.6c-14.4,10.2-30.5,4.4-35.5-12.4
		c-3.1-10.3-2-19.8,3.6-28.8c5.4-8.7,16.1-11.2,24.5-5.7c3.2,2.1,6,5,3.7,8.7c-2.5,4-5.4,2.1-8.9-0.2c-2.1-1.4-6.6-1.2-8.9,0.2
		C56.4,64.7,54.3,72.3,55.1,78.5z M78.5,90.4c-5.8-9-12.9-9.1-20.4-0.4C62.8,97.9,71.3,98.1,78.5,90.4z"/>
	<path class="st1" d="M524.7,731c-10.1,7.1-19.4,5.5-28.1-2c-7.5-6.4-7-14,0.9-19.8c14.5-10.5,30.8-4.7,35.9,12.4
		c3,10.3,1.9,19.8-3.8,28.8c-5.6,8.8-17.2,11.3-25,4.9c-2-1.7-3.8-6.3-2.8-8.2c1.8-3.8,5.1-2.5,8.2,0.2c3.7,3.2,8.1,3,10.7-1.4
		c2.4-4.1,3.9-8.9,5.7-13.3C525.8,731.9,525.3,731.5,524.7,731z M522,719.5c-5.5-7.8-13.1-7.9-20.6-0.6
		C506.6,727.8,513.8,728.1,522,719.5z"/>
	<path class="st0" d="M78.5,90.4c-7.1,7.7-15.7,7.5-20.4-0.4C65.6,81.3,72.7,81.5,78.5,90.4z"/>
	<path class="st0" d="M522,719.5c-8.2,8.7-15.4,8.4-20.6-0.6C508.9,711.6,516.5,711.6,522,719.5z"/>
</g>
</svg>
