<?xml version="1.0" encoding="utf-8"?>
<!-- Generator: Adobe Illustrator 24.0.0, SVG Export Plug-In . SVG Version: 6.00 Build 0)  -->
<svg version="1.0" id="Layer_1" xmlns="http://www.w3.org/2000/svg" xmlns:xlink="http://www.w3.org/1999/xlink" x="0px" y="0px"
	 viewBox="0 0 578.6 809.5" style="enable-background:new 0 0 578.6 809.5;" xml:space="preserve">
<style type="text/css">
	.st0{fill:#FEFDFD;}
	.st1{fill:#FE2121;}
</style>
<g>
	<path class="st0" d="M539.6,809.5H39c-21.5,0-39-17.5-39-39V39C0,17.5,17.5,0,39,0h500.6c21.5,0,39,17.5,39,39v731.5
		C578.6,792,561.1,809.5,539.6,809.5z M177.2,80c-1.9-2.8-3.3-4.9-4.7-6.9c-6.9-9.7-18.9-13.2-27.2-8.1c-11.3,7-17.2,21.9-13.9,34.8
		c2.9,11.4,10.6,19.6,17.8,28.3c8.2,9.8,16,19.7,19.1,32.6c0.5,2.1,3.1,3.7,4.7,5.6c1-2,1.9-4,2.8-6.1c0.3-0.8,0.2-1.7,0.7-2.4
		c7.2-11.1,13.8-22.8,22.1-33.1c6.4-8.1,15.2-14.2,22.4-21.7c9.1-9.5,10-22.9,2.9-34c-8.1-12.8-26-12.8-37.5,0.1
		C183.4,72.4,180.6,76,177.2,80z M400.6,80.4c-1-0.5-1.2-0.6-1.3-0.7c-1.3-1.9-2.6-3.7-4-5.6c-6.6-9.1-18.4-13.1-26.2-8.2
		c-9.9,6.2-15.7,15.5-15.8,27.4c-0.1,13.5,8,23.3,16.1,32.9c9.3,11,18.7,21.9,21.9,36.6c0.1,0.6,0.3,1.4,0.7,1.7
		c1.3,1.1,2.8,2,4.2,2.9c0.8-1.3,1.9-2.4,2.4-3.8c0.6-1.7,0.4-3.8,1.2-5.4c8-15.4,16.7-30.1,30.7-41.3c6.6-5.3,12.6-11.7,17.5-18.5
		c6.5-8.9,3.3-25.4-5.3-32.6c-9.1-7.6-21.1-7.2-30.5,1.7C408.1,71.5,404.5,76.1,400.6,80.4z M175.8,370.6c-1.9-2.8-3.2-4.9-4.7-6.9
		c-6.8-9.4-18.6-12.9-26.8-8.1c-11.3,6.6-18.5,22.3-14,34.5c3.2,8.8,8.4,17.2,14.2,24.6c9.3,11.8,19.5,22.9,22.8,38.2
		c0.1,0.6,0.3,1.4,0.8,1.7c1.2,0.9,2.7,2.4,3.9,2.2c1.1-0.2,2-2.2,2.5-3.6c0.6-1.7,0.4-3.8,1.2-5.4c7.9-15.4,16.7-30.1,30.7-41.3
		c6.6-5.3,12.6-11.7,17.5-18.5c6.5-8.9,3.3-25.4-5.2-32.6c-9.1-7.7-21.1-7.2-30.5,1.6C184,360.9,180.4,365.5,175.8,370.6z
		 M400.1,370.6c-1.8-2.7-3.2-4.7-4.6-6.8c-6.7-9.4-18.5-13.1-26.7-8.5c-11.2,6.4-17.6,21.9-14.6,34.5c2.7,11.5,10.3,19.8,17.5,28.4
		c8.5,10.1,16.7,20.3,19.6,33.7c0.2,1,0.6,2.2,1.2,2.8c0.9,0.9,2.6,2.3,3.4,2c1.2-0.5,2.3-2,2.8-3.4c0.7-1.9,0.5-4.2,1.4-6
		c8-15.7,17-30.4,31.2-41.6c6.3-5,11.9-11.1,16.6-17.6c6.6-9,3.6-25.3-4.9-32.6c-9.2-7.9-21.3-7.4-31,1.7
		C408,361,404.6,365.5,400.1,370.6z M179.6,728.2c2.1,3.1,3.5,5.2,4.9,7.2c6.8,9.4,18.6,12.9,26.8,7.9c11.3-6.8,17.4-21.9,14.2-34.7
		c-2.8-11.4-10.5-19.7-17.7-28.3c-8.3-10-16.4-20.1-19.3-33.2c-0.3-1.2-0.8-2.5-1.5-3.4c-0.7-0.8-2.2-1.8-3-1.5
		c-1.1,0.4-2.4,1.7-2.7,2.8c-3.8,14.9-12.1,27.3-22.4,38.3c-7.3,7.7-15.7,14.4-23,22c-9.1,9.5-9.9,23-2.8,34
		c8.1,12.5,25.6,12.6,37.1,0.1C173.3,736.1,176,732.5,179.6,728.2z M402.6,729.4c2.1,3.1,3.5,5.2,4.9,7.2c6.8,9.4,18.6,12.9,26.8,8
		c11.3-6.8,17.4-21.9,14.2-34.7c-2.8-11.4-10.5-19.7-17.7-28.3c-8.3-10-16.4-20.1-19.3-33.2c-0.3-1.2-0.8-2.5-1.5-3.4
		c-0.7-0.8-2.2-1.8-3-1.5c-1.1,0.4-2.4,1.7-2.7,2.8c-3.8,14.9-12.1,27.3-22.4,38.3c-7.3,7.7-15.7,14.4-23,22c-9.1,9.5-9.9,23-2.8,34
		c8.1,12.6,25.6,12.6,37.1,0.1C396.2,737.4,398.9,733.8,402.6,729.4z M520.4,669.3c2.1,2.6,3.5,4.3,5,6c8.1,9.1,18.1,8.7,25.5-0.9
		c7.5-9.9,7.8-20.4,0.3-31.3c-8.5-12.5-20.7-22.6-24.2-38.3c-0.2-0.9-1.8-2-2.7-2c-0.8,0-2.1,1.3-2.4,2.2
		c-4.9,16.5-15.6,28.7-28.3,39.5c-3.5,2.9-6.6,6.4-9.1,10.2c-5.1,7.6-2.7,20.8,4.4,26.2c7.2,5.5,16.9,4.3,24.2-3.2
		C515.3,675.2,517.6,672.5,520.4,669.3z M59.4,140.6c-1.9-2.4-3.2-4.2-4.7-5.9c-7.5-8.8-19.4-8.3-26.2,1.1
		c-7.2,9.9-7.3,19.7,0.2,30.6c8.5,12.4,20.8,22.5,24.2,38.2c0.2,0.9,1.8,1.9,2.8,1.9c0.8,0,2.1-1.2,2.4-2.2
		c4.6-15.8,14.5-27.8,26.8-38.2c3.9-3.3,7.7-7.1,10.5-11.4c5.3-7.9,2.9-20.4-4.4-26c-7.1-5.5-17-4.2-24.2,3.2
		C64.4,134.5,62.3,137.3,59.4,140.6z M531.7,728.1c-0.2,3.8,0.1,6-0.5,8c-2.6,10.3-12.6,16.8-24,15.6c-3.4-0.3-7-0.4-6.9,3.8
		c0,1.7,3.5,4.3,5.8,4.7c12.8,2.4,28.6-7,32.7-18.9c4.5-13.3-1.2-27.8-13.8-34.8c-10.3-5.8-23.6-1.9-29.1,8.7
		c-2.9,5.6-1.4,13.8,3.3,17.8c6.8,5.9,16.9,6.4,24.3,1.1C525.7,732.4,528,730.7,531.7,728.1z M49.1,80.6c-1.1-0.8-1-0.8-2.1-1.6
		c1.7-4.2,2.5-9,5.1-12.5c5.2-6.9,12.4-10,21.4-8.8c1.9,0.2,4.2-2.2,6.3-3.4c-1.7-1.7-3.2-4.6-5.1-4.9c-4-0.6-8.3-0.5-12.3,0.4
		C50.7,52.4,41,63,39.6,74.4c-1.4,11,5.3,23.3,15.9,29c10.2,5.5,24,1,28.8-9.5c2.3-5,1.1-12.5-2.6-16.4c-6-6.3-16.8-7.7-24.1-2.9
		C54.6,76.5,51.9,78.6,49.1,80.6z"/>
	<path class="st1" d="M177.2,80c3.4-4.1,6.2-7.6,9.2-10.9c11.5-12.8,29.4-12.9,37.5-0.1c7.1,11.2,6.3,24.5-2.9,34
		c-7.2,7.5-16,13.6-22.4,21.7c-8.2,10.3-14.8,22-22.1,33.1c-0.4,0.7-0.4,1.6-0.7,2.4c-0.9,2-1.9,4.1-2.8,6.1
		c-1.6-1.8-4.2-3.5-4.7-5.6c-3.2-12.8-11-22.8-19.1-32.6c-7.2-8.6-14.9-16.9-17.8-28.3c-3.2-12.9,2.6-27.8,13.9-34.8
		c8.4-5.2,20.3-1.6,27.2,8.1C174,75.1,175.3,77.2,177.2,80z"/>
	<path class="st1" d="M400.6,80.4c3.9-4.4,7.5-8.9,11.7-12.9c9.5-8.8,21.4-9.3,30.5-1.7c8.5,7.2,11.8,23.6,5.3,32.6
		c-5,6.8-11,13.2-17.5,18.5c-13.9,11.2-22.7,25.9-30.7,41.3c-0.8,1.6-0.6,3.7-1.2,5.4c-0.5,1.4-1.6,2.6-2.4,3.8
		c-1.4-1-2.9-1.9-4.2-2.9c-0.4-0.3-0.6-1.1-0.7-1.7c-3.2-14.7-12.6-25.6-21.9-36.6c-8.1-9.6-16.2-19.4-16.1-32.9
		c0.1-12,5.9-21.2,15.8-27.4c7.8-4.9,19.6-0.9,26.2,8.2c1.3,1.8,2.6,3.7,4,5.6C399.4,79.9,399.6,79.9,400.6,80.4z"/>
	<path class="st1" d="M175.8,370.6c4.6-5.1,8.2-9.6,12.4-13.6c9.5-8.8,21.4-9.3,30.5-1.6c8.5,7.2,11.7,23.6,5.2,32.6
		c-5,6.8-11,13.2-17.5,18.5c-13.9,11.2-22.7,25.9-30.7,41.3c-0.8,1.6-0.6,3.7-1.2,5.4c-0.5,1.4-1.5,3.4-2.5,3.6
		c-1.1,0.2-2.6-1.3-3.9-2.2c-0.4-0.3-0.6-1.1-0.8-1.7c-3.3-15.3-13.6-26.4-22.8-38.2c-5.8-7.4-11-15.8-14.2-24.6
		c-4.5-12.2,2.8-27.9,14-34.5c8.2-4.8,20-1.3,26.8,8.1C172.6,365.7,173.9,367.7,175.8,370.6z"/>
	<path class="st1" d="M400.1,370.6c4.5-5.1,8-9.6,12-13.4c9.7-9.1,21.8-9.6,31-1.7c8.5,7.3,11.4,23.6,4.9,32.6
		c-4.7,6.5-10.3,12.7-16.6,17.6c-14.2,11.2-23.2,26-31.2,41.6c-0.9,1.8-0.7,4.1-1.4,6c-0.5,1.3-1.6,2.9-2.8,3.4
		c-0.8,0.3-2.4-1-3.4-2c-0.7-0.7-1-1.8-1.2-2.8c-2.9-13.3-11.1-23.6-19.6-33.7c-7.2-8.6-14.8-16.9-17.5-28.4
		c-3-12.6,3.5-28.1,14.6-34.5c8.2-4.7,20-1,26.7,8.5C396.9,365.9,398.2,367.9,400.1,370.6z"/>
	<path class="st1" d="M179.6,728.2c-3.6,4.4-6.4,8-9.4,11.3c-11.6,12.5-29,12.4-37.1-0.1c-7.1-11.1-6.3-24.5,2.8-34
		c7.3-7.7,15.8-14.3,23-22c10.3-11,18.6-23.3,22.4-38.3c0.3-1.1,1.6-2.4,2.7-2.8c0.8-0.3,2.3,0.7,3,1.5c0.8,0.9,1.3,2.2,1.5,3.4
		c2.9,13.1,10.9,23.2,19.3,33.2c7.2,8.6,14.9,16.9,17.7,28.3c3.2,12.8-2.9,27.9-14.2,34.7c-8.2,4.9-20,1.4-26.8-7.9
		C183.1,733.3,181.8,731.3,179.6,728.2z"/>
	<path class="st1" d="M402.6,729.4c-3.6,4.4-6.4,8-9.4,11.3c-11.6,12.5-29,12.4-37.1-0.1c-7.1-11.1-6.3-24.5,2.8-34
		c7.3-7.7,15.7-14.3,23-22c10.3-11,18.6-23.3,22.4-38.3c0.3-1.1,1.6-2.4,2.7-2.8c0.8-0.3,2.3,0.7,3,1.5c0.8,0.9,1.3,2.2,1.5,3.4
		c2.9,13.1,10.9,23.2,19.3,33.2c7.2,8.6,14.9,16.9,17.7,28.3c3.2,12.8-2.9,27.9-14.2,34.7c-8.2,4.9-20,1.4-26.8-8
		C406,734.6,404.7,732.5,402.6,729.4z"/>
	<path class="st1" d="M520.4,669.3c-2.9,3.2-5.1,5.9-7.6,8.4c-7.3,7.5-17,8.7-24.2,3.2c-7-5.4-9.5-18.6-4.4-26.2
		c2.5-3.8,5.7-7.3,9.1-10.2c12.8-10.8,23.5-23,28.3-39.5c0.3-0.9,1.6-2.2,2.4-2.2c1,0,2.5,1.1,2.7,2c3.6,15.7,15.7,25.8,24.2,38.3
		c7.5,10.9,7.2,21.4-0.3,31.3c-7.3,9.6-17.4,10-25.5,0.9C524,673.6,522.6,671.8,520.4,669.3z"/>
	<path class="st1" d="M59.4,140.6c2.9-3.3,5.1-6.1,7.5-8.6c7.2-7.4,17.1-8.7,24.2-3.2c7.3,5.6,9.7,18.2,4.4,26
		c-2.9,4.2-6.6,8.1-10.5,11.4c-12.3,10.4-22.1,22.4-26.8,38.2c-0.3,0.9-1.6,2.2-2.4,2.2c-0.9,0-2.6-1.1-2.8-1.9
		c-3.4-15.7-15.7-25.8-24.2-38.2c-7.5-11-7.4-20.8-0.2-30.7c7.5-10.3,17.9-10.7,26.2-1C56.2,136.5,57.5,138.3,59.4,140.6z"/>
	<path class="st1" d="M531.7,728.1c-3.7,2.7-5.9,4.4-8.2,6c-7.4,5.3-17.5,4.8-24.3-1.1c-4.7-4.1-6.2-12.3-3.3-17.8
		c5.5-10.5,18.7-14.5,29.1-8.7c12.6,7.1,18.3,21.5,13.8,34.8c-4,11.9-19.8,21.3-32.7,18.9c-2.2-0.4-5.7-3-5.8-4.7
		c-0.1-4.2,3.5-4.1,6.9-3.8c11.4,1.1,21.4-5.4,24-15.6C531.8,734.1,531.5,731.9,531.7,728.1z M512.5,729.1
		c5.5,0.1,12.9-6.1,11.3-10.6c-1-2.9-5.7-5.4-9.2-6.2c-4.7-1-11.5,5.1-11.7,9.2C502.8,725.9,506.7,729,512.5,729.1z"/>
	<path class="st1" d="M49.6,80.3c2.7-1.9,5.2-3.9,8-5.7c7.3-4.8,18.1-3.4,24.1,2.9c3.7,3.9,4.9,11.4,2.6,16.4
		c-4.8,10.5-18.7,15-28.8,9.5c-10.6-5.8-17.3-18.1-15.9-29C41,63,50.7,52.4,62.5,49.8c4-0.9,8.3-1,12.3-0.4c1.9,0.3,3.4,3.2,5.1,4.9
		c-2.1,1.2-4.4,3.6-6.3,3.4c-9-1.2-16.3,1.9-21.4,8.8C49.5,70,48.7,74.8,47,79C47.9,79.4,48.7,79.9,49.6,80.3z M62.8,97.4
		c7.2-0.1,13.9-5.4,14-9.4c0.1-4.3-3.8-7.4-9.6-7.5c-5.4-0.1-12.7,6-11.3,10.6C56.9,94.1,61.3,96.1,62.8,97.4z"/>
	<path class="st0" d="M512.5,729.1c-5.8-0.1-9.7-3.2-9.6-7.6c0.2-4.1,6.9-10.2,11.7-9.2c3.5,0.8,8.2,3.3,9.2,6.2
		C525.5,723.1,518.1,729.2,512.5,729.1z"/>
	<path class="st0" d="M62.8,97.4c-1.5-1.3-5.9-3.3-6.9-6.3c-1.4-4.6,5.9-10.7,11.3-10.6c5.8,0.1,9.7,3.2,9.6,7.5
		C76.7,91.9,70.1,97.3,62.8,97.4z"/>
</g>
</svg>
