<?xml version="1.0" encoding="utf-8"?>
<!-- Generator: Adobe Illustrator 24.0.0, SVG Export Plug-In . SVG Version: 6.00 Build 0)  -->
<svg version="1.0" id="Layer_1" xmlns="http://www.w3.org/2000/svg" xmlns:xlink="http://www.w3.org/1999/xlink" x="0px" y="0px"
	 viewBox="0 0 578.6 809.5" style="enable-background:new 0 0 578.6 809.5;" xml:space="preserve">
<style type="text/css">
	.st0{fill:#FDFDFD;}
	.st1{fill:#030303;}
</style>
<g>
	<path class="st0" d="M539.6,809.5H39c-21.5,0-39-17.5-39-39V39C0,17.5,17.5,0,39,0h500.6c21.5,0,39,17.5,39,39v731.5
		C578.6,792,561.1,809.5,539.6,809.5z M235,151.7c0.5-13.1-5-21.9-17-26.8c-2.7-1.1-5.3-2.3-7.7-3.9c-12.3-7.9-20-18.5-20.3-33.8
		c0-1.9-1.8-3.8-2.8-5.7c-1,2-2.5,3.9-2.9,6c-0.7,3.5,0.2,7.8-1.4,10.7c-6,10.9-14.1,19-27.6,21.1c-15.9,2.5-22.1,15.1-26,28.8
		c-2.8,9.9,3.7,16.6,9.9,22.8c7.3,7.2,16.5,6.8,25.8,5.8c2.1-0.2,4.2-0.1,6.3-0.2c-0.6,2.3-1.2,4.6-1.9,6.9c-0.2,0.8-1,1.4-1.3,2.1
		c-0.5,1.8-1.6,4-1,5.5c0.4,1.1,3.1,1.7,4.8,1.8c6.8,0.4,13.7,0.8,20.6,0.7c2,0,4.9-0.9,5.8-2.3c0.8-1.4-0.4-4.1-0.9-6.2
		c-0.4-1.7-1.2-3.2-1.8-4.8c1.9-0.2,3.9-0.8,5.6-0.4c15.5,3.6,24.5-0.6,30.7-15C233.7,160.8,234,156.1,235,151.7z M450.6,151.5
		c0.3-12.8-5-21.5-16.6-26.4c-1.7-0.7-3.4-1.6-5.1-2.5c-14.5-7.8-23.3-19.2-23.4-36.3c0-1.6-1.6-3.2-2.4-4.8c-1.1,1.6-3,3.2-3.3,5
		c-0.5,3.2,1.1,7.3-0.3,9.8c-5.5,9.8-11.5,19.9-24.1,21.8c-16.9,2.6-26.1,12.9-29.9,28.6c-1.1,4.4-0.6,10.2,1.4,14.2
		c6.6,13.4,17.2,18.2,32,16.1c2.6-0.4,5.3-0.1,8-0.1c-1,2.8-2.1,5.6-3.1,8.4c-0.1,0.2-0.3,0.3-0.4,0.5c-2.9,4.6-1.8,7,3.5,7.2
		c7.1,0.3,14.1,0.7,21.2,0.6c2,0,4.6-1.1,5.7-2.5c0.8-1.1-0.4-3.7-0.9-5.6c-0.5-1.8-1.3-3.6-1.9-5.3c1.9-0.1,3.9-0.6,5.8-0.1
		c14.9,3.5,23.6-0.3,30-14.1C448.9,161.4,449.4,156.3,450.6,151.5z M181.8,454.9c4.2,0.3,7.7,0.8,11.2,0.7c1.9-0.1,4.4-0.9,5.3-2.2
		c0.8-1.3,0-3.8-0.5-5.7c-0.5-2-1.3-3.9-1.9-5.8c2.1,0.1,4.3-0.1,6.4,0.2c8.7,1.5,17.2,1.9,23.7-5.6c15-17.4,10.4-40.7-9.9-50.8
		c-1.1-0.6-2.3-1-3.4-1.6c-13.9-7.8-22.4-19-22.6-35.5c0-1.8-1.7-3.5-2.6-5.2c-1.1,1.7-2.7,3.4-3,5.2c-0.6,3.4,0.8,7.6-0.7,10.3
		c-6.1,10.7-13.4,19.7-26.9,22c-15.3,2.6-26.3,15.8-27.8,31.4c-0.2,2.4,0.1,4.8,0.8,7c4.8,14,17.5,21.6,32.1,19.7
		c3.1-0.4,6.3-0.4,9.5-0.6c-1.3,3.3-2.3,6.8-3.9,9.9c-2,4-0.9,6.3,3.7,6.5C174.9,455,178.7,454.9,181.8,454.9z M178.2,637.7
		c-0.3,0.4-0.2,0.3-0.5,0.7c-4.4-2.2-8.7-5.5-13.4-6.5c-14.3-3.2-26.4-2-31.7,14.7c-6.7,21-2.5,31.8,16.7,40.8
		c15.5,7.3,25,19.1,25.2,37.1c0,1.6,1.8,3.1,2.7,4.7c0.9-1.7,2.4-3.2,2.7-5c0.5-3.4-0.8-7.7,0.8-10.4c6-10.6,13-19.8,26.7-22.1
		c15.5-2.6,26.1-15.5,28-31.1c0.2-1.8,0.1-3.7-0.3-5.5c-2.9-11.6-14.1-21-26.2-21c-6,0-12.1,1.5-18.7,2.4c1.6-3.2,3.5-7,5.3-10.8
		c0.8-1.8,2.3-4.1,1.7-5.4c-0.6-1.3-3.3-2.1-5.1-2.2c-6.4-0.4-12.9-0.6-19.4-0.4c-2.4,0.1-4.6,1.7-7,2.6c1.1,2.3,1.9,4.9,3.4,6.9
		C171.9,630.8,175.1,634.2,178.2,637.7z M400.1,434.9c0.6-0.6,0.4-0.4,0.9-1.1c1.5,1.1,2.9,2.3,4.5,3.2c9.2,5,18.9,9.1,28.9,3
		c11.7-7.2,14.7-18.8,14-31.9c-0.6-11.5-8.4-16.8-17.5-21.3c-15.9-7.9-26.6-19.6-26.8-38.6c0-1.5-1.8-3.1-2.8-4.6
		c-0.9,1.7-2.8,3.5-2.5,5c2.1,11.2-5.3,17.9-11.6,24.9c-2.7,3-7,5.6-11,6.2c-16.9,2.4-26.7,12.1-31.8,27.9c-2,6.3-1.3,11.9,2.4,17.2
		c10.4,14.9,23.1,18.2,42.7,9.7c-2.7,5.3-4.8,9.2-6.8,13.2c-0.8,1.6-2.1,4-1.5,4.8c1,1.3,3.3,2.2,5.1,2.3c6.7,0.4,13.3,0.6,20,0.4
		c2.2-0.1,4.3-1.6,6.4-2.5c-0.9-2.2-1.4-4.7-2.8-6.5C407,442.1,403.5,438.6,400.1,434.9z M394,638.3c-6.4-2.8-11.8-6-17.7-7.6
		c-7.4-2-14.8-1.5-20.9,4.5c-16.4,16.2-12.7,41,8,51.2c16,7.9,26.5,19.2,26.5,38.1c0,1.4,1.6,2.9,2.5,4.3c1-1.4,2.5-2.7,2.7-4.2
		c0.4-3.3-1.1-7.2,0.3-9.8c5.4-9.9,11.2-20.2,23.8-22.1c16.8-2.6,26.3-12.8,30.3-28.4c1.1-4.4,0.7-10.2-1.3-14.2
		c-5.9-11.8-15.8-18.1-29.5-16.2c-4.1,0.6-8.2,2-13.8,3.4c2.5-4.6,4.6-8.3,6.4-12.1c0.8-1.7,1.7-3.9,1.2-5.5c-0.4-1-3.1-1.7-4.7-1.8
		c-6.4-0.3-12.9-0.6-19.4-0.4c-2.4,0.1-4.7,1.6-7.1,2.5c1.2,2.5,2,5.2,3.6,7.3C387.5,631.1,390.7,634.5,394,638.3z M53.8,190.6
		c-1.7,3.5-2.5,5.7-3.8,7.7c-2.6,4-1.5,5.8,3,6c4.4,0.1,8.7,0.3,13.1,0.2c2.6-0.1,5.1-0.8,7.6-1.3c-0.9-2.5-1.9-5-2.8-7.5
		c-0.2-0.5-0.1-1.2-0.2-2.8c2.5,0.6,4.6,1.3,6.7,1.6c6.6,1.2,12.8,0.9,17.8-4.7c11.2-12.6,8.1-31.4-6.9-38.7
		c-12.6-6.2-21-14.8-20.9-29.7c0-1.2-1.6-2.4-2.5-3.5c-0.8,1.3-1.9,2.5-2.2,3.8c-0.7,3.2,0,6.9-1.4,9.6
		c-4.3,8.2-10.5,14.4-20.4,15.6c-3,0.4-5.9,2-8.6,3.5c-7.8,4.4-14.3,19.1-11.9,26.4c3.4,10.5,13.2,16.4,25.1,15.3
		C47.5,191.7,49.6,191.2,53.8,190.6z M509.6,617.9c-2.8-0.6-4.5-1-6.2-1.4c-10.5-2.6-17.8,0.8-22.6,10.6
		c-6.8,13.8-2.2,26.3,12.4,33.5c11.8,5.8,19.2,14.4,19.4,28.2c0,1.4,1.5,2.9,2.3,4.3c0.8-1.6,2.3-3.3,2.3-4.9
		c0.4-11.5,7.9-21.1,19.4-23.4c10.2-2.1,17.1-7.3,21.1-17.3c5.5-13.8-2.5-27.6-17.5-28.5c-4.4-0.3-8.9,0.5-14.2,0.8
		c1.6-2.9,2.7-5.3,4.1-7.5c2.2-3.6,1.4-5.5-2.8-5.7c-3.5-0.2-7.1-0.2-10.6-0.2C504.1,606,504.1,606,509.6,617.9z M52.5,80.3
		c-0.7-0.6-0.7-0.6-1.4-1.1c1.5-4.1,2.7-8.3,4.7-12.1c2.5-4.6,6.3-4.3,10.7-2.2c2.1,1,6.3,1.7,7.2,0.6c2.7-3.3,0.1-6.1-2.9-8.1
		c-7.5-5-17.4-2.9-22.5,4.7c-5.6,8.6-6.5,17.7-3.6,27.5c4.4,15,18.9,20.5,32,11.9c8.9-5.9,9.1-13.6,0.7-20.1
		C69.4,75.1,61.1,74.7,52.5,80.3z M527.1,730.6c0.7,0.7,0.8,0.7,1.5,1.4c-1.5,4-2.6,8.1-4.7,11.8c-2.5,4.6-6.3,4.2-10.7,2.1
		c-2.1-1-4.9-0.5-7.5-0.7c0.9,2.6,1,6.3,2.8,7.8c7,5.8,17.8,3.5,22.8-4.3c5.2-8.1,6.5-16.8,3.9-26.3c-4.8-17.6-22.6-22.8-35.8-10.3
		c-3.5,3.3-4.1,7.1-2.3,11.3c3.8,8.8,17,13.5,25.6,9.3C524.3,732,525.7,731.3,527.1,730.6z"/>
	<path class="st1" d="M235,151.7c-1,4.4-1.3,9.1-3.1,13.2c-6.2,14.4-15.2,18.6-30.7,15c-1.7-0.4-3.7,0.2-5.6,0.4
		c0.6,1.6,1.3,3.2,1.8,4.8c0.5,2.1,1.8,4.7,0.9,6.2c-0.8,1.4-3.8,2.3-5.8,2.3c-6.9,0-13.7-0.3-20.6-0.7c-1.7-0.1-4.4-0.7-4.8-1.8
		c-0.6-1.5,0.5-3.7,1-5.5c0.2-0.8,1-1.4,1.3-2.1c0.7-2.3,1.3-4.6,1.9-6.9c-2.1,0-4.2-0.1-6.3,0.2c-9.3,1-18.5,1.4-25.8-5.8
		c-6.3-6.2-12.7-12.9-9.9-22.8c3.9-13.7,10.1-26.3,26-28.8c13.4-2.1,21.6-10.2,27.6-21.1c1.6-2.9,0.7-7.2,1.4-10.7
		c0.4-2.1,1.9-4,2.9-6c1,1.9,2.7,3.8,2.8,5.7c0.3,15.5,8.2,26.2,20.8,34.1c2.3,1.4,4.8,2.6,7.3,3.6C230,129.8,235.6,138.6,235,151.7
		z M195.4,179.8c-0.1-0.1-0.3-0.4-0.4-0.4c-0.3,0.1-0.6,0.3-0.8,0.4c0.1,0.1,0.3,0.4,0.4,0.4C194.8,180.1,195.1,180,195.4,179.8z"/>
	<path class="st1" d="M450.6,151.5c-1.2,4.8-1.7,9.9-3.7,14.3c-6.4,13.9-15.1,17.6-30,14.1c-1.8-0.4-3.8,0.1-5.8,0.1
		c0.6,1.8,1.4,3.5,1.9,5.3c0.5,1.9,1.7,4.5,0.9,5.6c-1,1.5-3.7,2.5-5.7,2.5c-7.1,0.1-14.1-0.3-21.2-0.6c-5.3-0.2-6.4-2.6-3.5-7.2
		c0.1-0.2,0.3-0.3,0.4-0.5c1-2.8,2.1-5.6,3.1-8.4c-2.7,0-5.4-0.3-8,0.1c-14.8,2.1-25.4-2.7-32-16.1c-2-4-2.5-9.8-1.4-14.2
		c3.8-15.7,13-26,29.9-28.6c12.5-1.9,18.5-12,24.1-21.8c1.4-2.5-0.2-6.6,0.3-9.8c0.3-1.8,2.1-3.3,3.3-5c0.8,1.6,2.4,3.2,2.4,4.8
		c0.1,17.1,8.9,28.5,23.4,36.3c1.7,0.9,3.3,1.7,5.1,2.5C445.6,130,450.9,138.7,450.6,151.5z M410.6,179.6c-0.2-0.2-0.3-0.3-0.4-0.4
		c-0.1,0.3-0.3,0.5-0.4,0.8c0,0.1,0.3,0.3,0.4,0.4C410.3,180.2,410.4,179.9,410.6,179.6z"/>
	<path class="st1" d="M181.8,454.9c-3.1,0-6.9,0.1-10.6,0c-4.6-0.2-5.7-2.5-3.7-6.5c1.6-3.2,2.6-6.6,3.9-9.9
		c-3.2,0.2-6.3,0.2-9.5,0.6c-14.5,1.9-27-5.6-32-19.4c-0.8-2.3-1.2-4.9-0.9-7.3c1.5-15.6,12.5-28.8,27.8-31.4
		c13.6-2.3,20.9-11.4,26.9-22c1.5-2.7,0.1-6.9,0.7-10.3c0.3-1.9,2-3.5,3-5.2c0.9,1.7,2.6,3.5,2.6,5.2c0.2,16.6,8.7,27.7,22.6,35.5
		c1.1,0.6,2.3,1.1,3.4,1.6c20.3,10,24.9,33.4,9.9,50.8c-6.5,7.5-15,7.1-23.7,5.6c-2.1-0.4-4.3-0.2-6.4-0.2c0.7,1.9,1.5,3.9,1.9,5.8
		c0.4,1.9,1.3,4.4,0.5,5.7c-0.8,1.3-3.4,2.1-5.3,2.2C189.5,455.7,186,455.2,181.8,454.9z M194.9,441.3c-0.3,0.1-0.5,0.3-0.8,0.4
		c0.1,0.1,0.3,0.4,0.4,0.4c0.3-0.1,0.6-0.3,0.8-0.4C195.2,441.6,195.1,441.4,194.9,441.3z"/>
	<path class="st1" d="M178.4,637.8c-3.1-3.5-6.4-6.9-9.3-10.7c-1.5-2-2.3-4.6-3.4-6.9c2.3-0.9,4.6-2.6,7-2.6
		c6.4-0.3,12.9,0,19.4,0.4c1.8,0.1,4.6,0.9,5.1,2.2c0.6,1.3-0.9,3.6-1.7,5.4c-1.8,3.8-3.7,7.6-5.3,10.8c6.6-0.9,12.6-2.4,18.7-2.4
		c11.9,0.1,23,9.2,26.1,20.7c0.5,1.8,0.7,3.7,0.5,5.5c-1.8,15.8-12.4,28.8-28,31.4c-13.7,2.3-20.6,11.6-26.7,22.1
		c-1.5,2.7-0.2,6.9-0.8,10.4c-0.3,1.8-1.7,3.3-2.7,5c-0.9-1.6-2.7-3.1-2.7-4.7c-0.2-18-9.7-29.7-25.2-37.1
		c-19.1-9-23.3-19.9-16.7-40.8c5.3-16.7,17.4-17.9,31.7-14.7c4.7,1.1,8.9,4.3,13.4,6.5C177.9,638.1,178.1,638,178.4,637.8z"/>
	<path class="st1" d="M400.2,435c3.3,3.7,6.8,7.2,9.8,11.1c1.4,1.8,1.9,4.3,2.8,6.5c-2.1,0.9-4.3,2.5-6.4,2.5
		c-6.7,0.2-13.3,0-20-0.4c-1.8-0.1-4.1-1-5.1-2.3c-0.6-0.8,0.7-3.3,1.5-4.8c1.9-4,4-7.9,6.8-13.2c-19.6,8.5-32.3,5.3-42.7-9.7
		c-3.7-5.3-4.4-10.8-2.4-17.2c5-15.8,14.9-25.5,31.8-27.9c3.9-0.6,8.2-3.2,11-6.2c6.3-6.9,13.7-13.7,11.6-24.9
		c-0.3-1.5,1.6-3.3,2.5-5c1,1.5,2.8,3,2.8,4.6c0.2,19,10.9,30.7,26.8,38.6c9.1,4.5,16.9,9.8,17.5,21.3c0.7,13.1-2.3,24.7-14,31.9
		c-10,6.2-19.7,2.1-28.9-3c-1.6-0.9-3-2.1-4.5-3.2C400.8,434.2,400.5,434.6,400.2,435z"/>
	<path class="st1" d="M394,638.3c-3.2-3.8-6.5-7.2-9.2-10.9c-1.6-2.2-2.4-4.9-3.6-7.3c2.4-0.9,4.7-2.4,7.1-2.5
		c6.4-0.2,12.9,0,19.4,0.4c1.7,0.1,4.4,0.8,4.7,1.8c0.5,1.5-0.4,3.8-1.2,5.5c-1.8,3.8-3.9,7.4-6.4,12.1c5.6-1.4,9.7-2.9,13.8-3.4
		c13.7-1.9,23.6,4.4,29.5,16.2c2,4,2.4,9.8,1.3,14.2c-4,15.6-13.5,25.8-30.3,28.4c-12.6,1.9-18.4,12.2-23.8,22.1
		c-1.4,2.6,0.1,6.5-0.3,9.8c-0.2,1.5-1.8,2.8-2.7,4.2c-0.9-1.4-2.5-2.9-2.5-4.3c0-18.9-10.5-30.3-26.5-38.1
		c-20.7-10.2-24.4-35-8-51.2c6.1-6,13.5-6.5,20.9-4.5C382.2,632.3,387.6,635.5,394,638.3z"/>
	<path class="st1" d="M53.8,190.6c-4.2,0.7-6.4,1.1-8.6,1.3c-11.9,1.2-21.7-4.8-25.1-15.3c-2.4-7.3,4.1-22,11.9-26.4
		c2.7-1.5,5.6-3.1,8.6-3.5c10-1.3,16.1-7.4,20.4-15.6c1.4-2.7,0.8-6.4,1.4-9.6c0.3-1.4,1.5-2.6,2.2-3.8c0.9,1.2,2.5,2.4,2.5,3.5
		c-0.1,15,8.3,23.6,20.9,29.7c15,7.3,18.1,26.1,6.9,38.7c-4.9,5.6-11.1,5.9-17.8,4.7c-2.1-0.4-4.1-1-6.7-1.6c0.1,1.6,0,2.3,0.2,2.8
		c0.9,2.5,1.9,5,2.8,7.5c-2.5,0.4-5.1,1.2-7.6,1.3c-4.4,0.2-8.7,0-13.1-0.2c-4.5-0.2-5.6-2-3-6C51.3,196.3,52.1,194.1,53.8,190.6z"
		/>
	<path class="st1" d="M509.6,617.9c-5.5-11.9-5.5-11.9,6.9-11.6c3.5,0.1,7.1,0.1,10.6,0.2c4.2,0.2,5.1,2.1,2.8,5.7
		c-1.4,2.2-2.5,4.6-4.1,7.5c5.4-0.3,9.8-1.1,14.2-0.8c15,0.9,23.1,14.7,17.5,28.5c-4,10-10.9,15.2-21.1,17.3
		c-11.4,2.3-18.9,11.9-19.4,23.4c-0.1,1.7-1.5,3.3-2.3,4.9c-0.8-1.4-2.3-2.9-2.3-4.3c-0.2-13.8-7.7-22.4-19.4-28.2
		c-14.5-7.2-19.1-19.7-12.4-33.5c4.8-9.8,12.1-13.2,22.6-10.6C505.1,616.9,506.8,617.3,509.6,617.9z"/>
	<path class="st1" d="M52.5,80.3c8.7-5.6,17-5.2,24.9,1c8.5,6.6,8.2,14.3-0.7,20.1c-13.1,8.6-27.6,3.1-32-11.9
		c-2.9-9.8-2-18.9,3.6-27.5c5-7.6,15-9.7,22.5-4.7c3,2,5.6,4.7,2.9,8.1c-0.9,1.1-5.1,0.4-7.2-0.6c-4.4-2.1-8.2-2.4-10.7,2.2
		c-2,3.8-3.2,8.1-4.7,12.2C51.5,79.6,52,79.9,52.5,80.3z M63.3,98.7c4.3-2.9,7.7-5.2,11.1-7.4c-3.3-2.1-6.7-5.7-10-5.7
		c-3-0.1-6.1,3.8-9.1,5.9C57.7,93.6,60.1,95.7,63.3,98.7z"/>
	<path class="st1" d="M527.1,730.6c-1.4,0.7-2.8,1.4-4.2,2.1c-8.6,4.3-21.8-0.5-25.6-9.3c-1.9-4.3-1.2-8,2.3-11.3
		c13.2-12.5,31-7.3,35.8,10.3c2.6,9.5,1.4,18.1-3.9,26.3c-5,7.8-15.8,10.1-22.8,4.3c-1.8-1.5-1.9-5.1-2.8-7.8
		c2.5,0.2,5.4-0.3,7.5,0.7c4.4,2.1,8.2,2.5,10.7-2.1c2.1-3.8,3.2-8.1,4.8-12.2C528.2,731.2,527.7,730.9,527.1,730.6z M524.5,719.8
		c-3.5-6.6-13.7-8-18.1-2.3c-0.7,0.9-0.2,3.6,0.7,4.6C512.3,727.6,518.7,726.7,524.5,719.8z"/>
	<path class="st0" d="M195.4,179.8c-0.3,0.1-0.5,0.3-0.8,0.4c-0.1,0-0.3-0.3-0.4-0.4c0.3-0.1,0.5-0.3,0.8-0.4
		C195.1,179.4,195.2,179.7,195.4,179.8z"/>
	<path class="st0" d="M410.6,179.6c-0.1,0.3-0.3,0.5-0.4,0.8c-0.1-0.1-0.4-0.3-0.4-0.4c0.1-0.3,0.3-0.6,0.4-0.8
		C410.3,179.3,410.4,179.5,410.6,179.6z"/>
	<path class="st0" d="M194.9,441.3c0.2,0.2,0.3,0.3,0.4,0.4c-0.3,0.1-0.5,0.3-0.8,0.4c-0.1,0-0.3-0.3-0.4-0.4
		C194.4,441.6,194.7,441.4,194.9,441.3z"/>
	<path class="st0" d="M63.3,98.7c-3.2-2.9-5.6-5.1-8.1-7.3c3-2.1,6.1-6,9.1-5.9c3.4,0.1,6.7,3.7,10,5.7C71,93.5,67.7,95.8,63.3,98.7
		z"/>
	<path class="st0" d="M524.5,719.8c-5.9,6.9-12.2,7.8-17.4,2.3c-0.9-1-1.4-3.7-0.7-4.6C510.9,711.8,521.1,713.2,524.5,719.8z"/>
</g>
</svg>
