<?xml version="1.0" encoding="utf-8"?>
<!-- Generator: Adobe Illustrator 24.0.0, SVG Export Plug-In . SVG Version: 6.00 Build 0)  -->
<svg version="1.0" id="Layer_1" xmlns="http://www.w3.org/2000/svg" xmlns:xlink="http://www.w3.org/1999/xlink" x="0px" y="0px"
	 viewBox="0 0 578.6 809.5" style="enable-background:new 0 0 578.6 809.5;" xml:space="preserve">
<style type="text/css">
	.st0{fill:#FEFEFE;}
	.st1{fill:#FE2020;}
</style>
<g>
	<path class="st0" d="M0,771C0,527,0,283,0,39C0,17.5,17.5,0,39,0c166.9,0,333.7,0,500.6,0c21.5,0,39,17.5,39,39c0,244,0,488,0,732
		c0,21.5-17.5,39-39,39c-166.9,0-333.7,0-500.6,0C17.5,810,0,792.5,0,771z M156,467.9c0,1,0,2.2,0,3.3c0,4.5,1.9,6.7,5.6,6.6
		c2.7-0.1,5.5-3.7,5.2-7c-0.9-8.7,2.1-16.5,5.7-24.1c5.2-11.2,14.4-19.4,22.5-28.3c1.5-1.6,3.5-2.9,5.4-4.1c3.4-2.2,3.9-5.7,0.9-8.7
		c-1.6-1.6-3.1-3.5-5-4.8c-9.2-6.4-14-15.7-16.7-25.9c-2.7-10.2-4.4-20.7-6.3-31.1c-0.5-2.5-1.1-4.4-4-4.7c-3-0.3-5.7-0.1-6.7,3.4
		c-0.5,1.7-1.4,3.3-1.8,5c-3.4,13.1-7,26.3-14.3,37.8c-4.6,7.2-10.5,13.7-16.2,20.2c-2.8,3.2-3.8,7-1.2,9.9
		c7.1,8.1,13.4,16.6,18.7,26C152.2,449.7,155.4,458.3,156,467.9z M125.1,131.7c0.7,1.5,1.2,2.9,2,3.9c4.6,6.1,10,11.8,13.9,18.3
		c4.3,7,7.9,14.6,10.8,22.4c1.9,5,1.9,10.8,2.6,16.2c0.4,2.7,1.7,5.3,4.3,4.9c1.7-0.2,3.1-3,4.6-4.7c0.3-0.4,0.1-1.2,0.1-1.9
		c0.4-12.1,4.2-23.2,11.5-32.8c7-9.2,14.2-18.2,23.7-25c2.5-1.8,2.5-4.1,0.3-6.2c-1.9-1.9-3.8-3.8-6-5.4c-7.8-5.9-12.7-14-15.3-23
		c-3.1-11-5-22.5-7.2-33.8c-0.5-2.9-1.7-4.4-4.4-5c-2.8-0.6-4.5,1.1-5.4,3.3c-1.1,2.5-1.8,5.1-2.4,7.7
		c-5.6,21.2-13.6,41.2-30.3,56.4C126.7,128.2,126.1,130.1,125.1,131.7z M254.3,247.3c0.7,1.4,1.1,2.7,1.9,3.7c1.9,2.6,4,5,6,7.5
		c11,13.6,19.5,28.2,19.8,46.4c0,1.5,2.3,3.5,4,4.2c0.9,0.3,2.8-1.9,4-3.2c0.6-0.7,0.6-1.9,0.6-2.9c0.4-12.5,4.3-23.7,12.5-33.1
		c6.4-7.3,13.4-14.1,20.2-20.9c2.3-2.3,2.7-4.2,0.2-6.5c-1.6-1.5-3.1-3.1-4.8-4.4c-10.2-7.6-14.7-18.5-17.5-30.3
		c-1.8-7.7-3-15.6-4.2-23.5c-0.4-2.8-1.9-4.6-4.4-4.4c-1.8,0.1-4,1.5-5,3c-1.3,1.8-1.6,4.3-2.2,6.5c-5.3,20.1-12.7,39-28.6,53.5
		C255.8,243.9,255.2,245.8,254.3,247.3z M372,411c0.7,1.4,1,2.6,1.7,3.5c4.4,5.8,9.2,11.4,13.3,17.4c6.2,9,11.5,18.5,13.1,29.6
		c0.5,3.5,0.9,7.1,1.3,10.7c0.3,2.6,1.5,5,4.1,4.6c1.6-0.3,2.9-2.9,4.1-4.6c0.4-0.5,0-1.5,0.1-2.3c1-5.4,1.3-11,3.1-16.1
		c5.8-17,17.9-29.3,31.3-40.5c3.2-2.6,3.5-3.9,0.6-6.8c-1.7-1.7-3.4-3.5-5.4-4.9c-7.5-5.5-11.6-13.2-15-21.4
		c-4.7-11.3-6-23.3-7.5-35.2c-0.4-2.9-1.5-4.6-4.3-5c-3.1-0.4-4.8,1.6-5.6,4.2c-1.2,3.9-2.2,7.9-3.3,11.8
		c-5.6,19.1-13.4,36.8-28.4,50.6C373.9,407.7,373.1,409.5,372,411z M411.6,61.5c-1,1-2.7,2.1-3.6,3.7c-1.1,2-1.2,4.4-2,6.6
		c-4.2,11.3-8,22.7-12.7,33.7c-3.8,8.8-10,16-17,22.5c-4,3.7-4,6-0.5,10.1c1.5,1.8,3,3.6,4.5,5.4c7.9,10.2,15.5,20.7,19,33.4
		c1.5,5.4,2,11,2.8,16.6c0.4,2.6,0.9,5.2,3.9,5.2c3.1,0,4.2-2.5,4.3-5.4c0-0.4-0.1-0.8,0-1.2c0.9-5.3,1.2-10.7,2.8-15.8
		c5.1-16.3,16.8-27.9,28.7-39.2c6.9-6.5,7.2-6.4-0.4-12.3c-7.8-6.1-13-14-16.6-23.1c-4.6-11.4-6-23.5-7.4-35.6
		C417.1,63,415.2,62.1,411.6,61.5z M167.4,618.2C167.4,618.2,167.4,618.2,167.4,618.2c0,1,0,2.1-0.1,3.1c-0.1,0.9-0.3,1.8-0.4,2.7
		c-1.8,12.6-7.8,23.3-16,32.7c-5.6,6.4-12.1,12.1-18.4,17.9c-2.6,2.4-2.5,4.3-0.2,6.4c3.1,2.9,6.5,5.4,9.5,8.4
		c8,8.2,11.9,18.5,14.5,29.3c1.9,8,2.9,16.2,4,24.4c0.3,2.3,2.1,4.3,4.5,4.5c2.9,0.3,4.2-1.8,5.2-4.2c0.3-0.7,0.5-1.3,0.6-2
		c5.9-22.8,13.6-44.7,31.8-61.1c2.3-2.1,2.7-4.9,0.6-7.6c-4.3-5.6-8.8-11-12.9-16.7c-8.3-11.7-14-24.4-14.6-39.1
		c-0.1-2.9-0.3-6.3-4.1-6.1c-3.5,0.2-4.1,3.4-4.1,6.4C167.4,617.4,167.4,617.8,167.4,618.2z M452,677.5c-0.7-1.4-1-2.5-1.7-3.4
		c-4.3-5.6-8.8-11-12.8-16.8c-8.5-11.9-14.2-24.9-14.6-39.8c-0.1-2.7-0.7-5.6-4-5.4c-3.6,0.1-4.1,3.7-4.2,6.8c0,1,0,2-0.1,2.9
		c-1,13.9-7.2,25.5-15.8,35.6c-5,5.8-10.1,11.8-16.1,16.4c-6.8,5.2-5.6,6.3-0.3,11.1c0.7,0.6,1.4,1.1,2.1,1.7
		c7.6,5.6,12.2,13.4,15.7,22c4.6,11.3,6,23.3,7.5,35.2c0.4,2.8,1.4,4.7,4.2,5.1c3,0.5,4.5-1.5,5.4-3.9c0.9-2.7,1.6-5.4,2.3-8.1
		c5.6-20.7,13.5-40.1,29.9-55C450.6,680.9,451.2,679,452,677.5z M550.7,633.3c-0.6-1.2-0.9-2.3-1.6-3.1c-3.2-4.2-6.6-8.1-9.6-12.4
		c-5.7-8.2-9.5-17.2-10.1-27.4c-0.1-1.6-2-3.1-3-4.6c-1.2,1.6-3.3,3.1-3.4,4.8c-0.7,17.7-11.5,29.4-23.7,40.2
		c-3.8,3.4-4.3,4.8-0.1,7.9c8.7,6.7,13.5,15.7,15.6,26.2c1.1,5.5,1.7,11.2,2.9,16.7c0.3,1.4,2,3.3,3.3,3.5c1.3,0.2,3.1-1.2,4.1-2.4
		c0.9-1.1,1.1-2.8,1.5-4.3c4-15.5,9.8-30,21.8-41.3C549.3,636,549.9,634.6,550.7,633.3z M56,124c-3.7,0.5-3.9,3.7-4.6,6.3
		c-4.1,15.9-9.9,30.7-22.2,42.3c-2.2,2.1-2.3,4.5-0.1,7.1c10.2,11.6,18.8,24,19.4,40.3c0,1.2,1.9,2.4,2.8,3.6c1.1-1,2.8-1.9,3.3-3.1
		c0.7-1.7,0.5-3.8,0.7-5.7c1.9-15.7,12.1-26.2,23-36.1c4.5-4.1,4.7-4.7-0.9-9.1c-6.1-4.8-10.6-11.4-12.5-18.9
		c-1.9-7.3-3.2-14.8-4.6-22.3C59.9,125.7,58.8,124.2,56,124z M524,755.2c-5.3,0.5-5.6,0.2-5.1-4.6c0.2-1.9,0.5-3.8,0.4-5.7
		c-0.1-2.6,0.7-4.1,3.7-4.1c2.7-0.1,5.4-0.5,8-0.8c2.9-0.4,4.8-2,4.7-5.1c-0.2-3.1-2.2-4.6-5.2-4.4c-2.6,0.1-5.1,0.5-7.6,0.9
		c-2.4,0.3-3.6-0.5-3.6-3.1c-0.1-4.6-0.3-9.2-0.5-13.8c-0.2-4.3-1.8-6.3-5.1-6.2c-3,0.1-4.5,1.9-4.4,6.4c0.1,4.7,0.2,9.5,0.6,14.2
		c0.2,2.8-0.7,4-3.6,4.1c-3.1,0.1-6.1,0.6-9.2,0.9c-3.2,0.3-5.3,2.4-4.9,5.2c0.4,3.1,2.3,4.5,5.3,4.3c2.8-0.2,5.6-0.6,8.4-0.9
		c2.7-0.4,4.4,1.5,3.9,4.2c-1.3,6.2-2.5,12.5-3.8,18.7c-0.7,3.1,0.1,5.5,2.8,6.8c2.9,1.4,4.8-0.2,6.4-2.6c0.7-1,1.4-2.3,2.4-2.9
		c5.2-3,13.6-1.9,18,2.3c3.2,3,7.9,1.9,9.1-2.3c1.2-4.1-1.7-13.2-5.1-15.9c-3-2.4-7.4-2.3-8.7,0.7
		C529.1,754.6,526.8,755.6,524,755.2z M55.4,56.4c5.3-0.5,5.5-0.3,5.1,4.3C60.3,62.8,60,65,60,67.2c0,2.3-0.7,3.5-3.3,3.7
		c-2.8,0.1-5.6,0.5-8.4,0.9c-2.9,0.4-4.8,2-4.7,5.1c0.2,3.1,2.2,4.6,5.2,4.5c2.4-0.1,4.8-0.5,7.2-0.8c2.7-0.4,4.1,0.3,4,3.4
		c0,4.9,0.3,9.7,0.5,14.6c0.2,3.7,2.5,5.6,5.7,5.1c5.1-0.8,3.3-6.4,3.8-9.2c0.3-2,0.5-4.1,0.2-6.1c-0.9-5.7-2-9.1,2.3-9.3
		c3.2-0.2,6.4-0.7,9.6-1c3.2-0.3,5.2-1.8,5.1-5.1c-0.1-3.3-2.3-4.8-5.5-4.5c-2.8,0.2-5.6,0.6-8.4,1c-3.1,0.4-4.4-0.8-3.7-3.9
		c1.2-6.3,2.3-12.6,3.8-18.8c0.7-3.1,0.2-5.5-2.5-6.9c-3-1.6-5,0.2-6.7,2.6c-0.8,1.1-1.7,2.4-2.8,2.9c-5.7,2.8-13.1,1.6-17.6-2.6
		c-3.1-2.9-7.6-1.8-8.9,2.1c-1.5,4.3,1.7,13.9,5.4,16.5c3,2.1,7.2,1.9,8.4-1C50.2,56.8,52.7,56,55.4,56.4z"/>
	<path class="st1" d="M156,467.9c-0.6-9.6-3.9-18.2-8.5-26.4c-5.3-9.4-11.6-18-18.7-26c-2.6-2.9-1.6-6.7,1.2-9.9
		c5.7-6.5,11.5-13,16.2-20.2c7.4-11.5,11-24.6,14.3-37.8c0.4-1.7,1.3-3.3,1.8-5c1.1-3.5,3.7-3.7,6.7-3.4c2.9,0.3,3.6,2.2,4,4.7
		c1.9,10.4,3.6,20.9,6.3,31.1c2.7,10.3,7.6,19.5,16.7,25.9c1.9,1.3,3.3,3.2,5,4.8c2.9,2.9,2.5,6.4-0.9,8.7c-1.9,1.2-3.9,2.4-5.4,4.1
		c-8.2,8.9-17.3,17.1-22.5,28.3c-3.6,7.6-6.5,15.4-5.7,24.1c0.3,3.3-2.5,6.8-5.2,7c-3.7,0.2-5.6-2.1-5.6-6.6
		C156,470.1,156,468.9,156,467.9z"/>
	<path class="st1" d="M125.1,131.7c0.9-1.6,1.5-3.4,2.8-4.6c16.8-15.2,24.7-35.2,30.3-56.4c0.7-2.6,1.4-5.2,2.4-7.7
		c0.9-2.2,2.6-3.9,5.4-3.3c2.7,0.6,3.8,2.1,4.4,5c2.1,11.3,4,22.7,7.2,33.8c2.6,9.1,7.5,17.1,15.3,23c2.1,1.6,4,3.6,6,5.4
		c2.2,2.1,2.2,4.4-0.3,6.2c-9.5,6.8-16.7,15.8-23.7,25c-7.3,9.6-11.1,20.7-11.5,32.8c0,0.6,0.2,1.5-0.1,1.9
		c-1.4,1.7-2.8,4.5-4.6,4.7c-2.6,0.3-3.9-2.2-4.3-4.9c-0.7-5.4-0.7-11.2-2.6-16.2c-2.8-7.7-6.5-15.3-10.8-22.4
		c-4-6.5-9.3-12.2-13.9-18.3C126.3,134.6,125.9,133.2,125.1,131.7z"/>
	<path class="st1" d="M254.3,247.3c0.9-1.5,1.5-3.4,2.7-4.5c15.8-14.5,23.2-33.4,28.6-53.5c0.6-2.2,0.9-4.7,2.2-6.5
		c1.1-1.5,3.2-2.9,5-3c2.5-0.2,3.9,1.6,4.4,4.4c1.2,7.8,2.4,15.7,4.2,23.5c2.8,11.8,7.3,22.7,17.5,30.3c1.7,1.3,3.2,3,4.8,4.4
		c2.4,2.3,2,4.2-0.2,6.5c-6.8,6.9-13.8,13.6-20.2,20.9c-8.2,9.4-12.2,20.6-12.5,33.1c0,1-0.1,2.3-0.6,2.9c-1.2,1.3-3.1,3.5-4,3.2
		c-1.7-0.6-4-2.7-4-4.2c-0.4-18.2-8.8-32.8-19.8-46.4c-2-2.5-4.1-4.9-6-7.5C255.4,250,255,248.7,254.3,247.3z"/>
	<path class="st1" d="M372,411c1-1.6,1.8-3.4,3.2-4.6c15-13.8,22.8-31.5,28.4-50.6c1.1-3.9,2.1-7.9,3.3-11.8
		c0.8-2.6,2.5-4.6,5.6-4.2c2.8,0.4,3.9,2.1,4.3,5c1.5,11.9,2.8,24,7.5,35.2c3.4,8.2,7.6,16,15,21.4c2,1.4,3.7,3.2,5.4,4.9
		c2.9,2.9,2.5,4.1-0.6,6.8c-13.4,11.2-25.5,23.5-31.3,40.5c-1.8,5.1-2.1,10.7-3.1,16.1c-0.1,0.7,0.3,1.8-0.1,2.3
		c-1.2,1.7-2.5,4.3-4.1,4.6c-2.5,0.5-3.8-2-4.1-4.6c-0.4-3.6-0.8-7.1-1.3-10.7c-1.5-11.1-6.9-20.6-13.1-29.6
		c-4.1-6-8.9-11.6-13.3-17.4C373,413.6,372.7,412.5,372,411z"/>
	<path class="st1" d="M411.6,61.5c3.6,0.6,5.5,1.5,5.8,4.6c1.4,12.1,2.9,24.2,7.4,35.6c3.6,9.1,8.8,17,16.6,23.1
		c7.6,6,7.3,5.8,0.4,12.3c-11.9,11.3-23.7,22.9-28.7,39.2c-1.6,5.1-1.9,10.5-2.8,15.8c-0.1,0.4,0,0.8,0,1.2
		c-0.1,2.8-1.2,5.3-4.3,5.4c-3.1,0-3.6-2.6-3.9-5.2c-0.8-5.6-1.4-11.2-2.8-16.6c-3.4-12.3-10.7-22.6-18.4-32.6
		c-1.7-2.2-3.6-4.4-5.4-6.5c-3.3-4-3.2-6.2,0.7-9.8c7-6.5,13.3-13.7,17-22.5c4.7-11,8.6-22.4,12.7-33.7c0.8-2.2,1-4.6,2-6.6
		C408.9,63.6,410.7,62.4,411.6,61.5z"/>
	<path class="st1" d="M167.4,618.2c0-0.4,0-0.8,0-1.2c0-3,0.6-6.2,4.1-6.4c3.8-0.2,4,3.2,4.1,6.1c0.6,14.6,6.2,27.4,14.6,39.1
		c4.1,5.7,8.6,11.2,12.9,16.7c2.1,2.7,1.7,5.6-0.6,7.6c-18,16.1-25.7,37.6-31.5,60c-0.3,1.2-0.6,2.5-1.1,3.7c-1,2.3-2.4,4.1-5.2,3.6
		c-2.8-0.4-3.9-2.2-4.3-5c-1.1-8-2.1-16-4-23.9c-2.6-10.8-6.6-21.1-14.5-29.3c-2.9-3-6.4-5.5-9.5-8.4c-2.3-2.1-2.4-4,0.2-6.4
		c6.3-5.8,12.8-11.5,18.4-17.9c8.2-9.3,14.2-20.1,16-32.7c0.1-0.9,0.4-1.8,0.4-2.7C167.4,620.2,167.4,619.2,167.4,618.2
		C167.4,618.2,167.4,618.2,167.4,618.2z"/>
	<path class="st1" d="M452,677.5c-0.9,1.5-1.4,3.4-2.7,4.5c-16.3,14.9-24.2,34.3-29.9,55c-0.7,2.7-1.4,5.5-2.3,8.1
		c-0.9,2.4-2.4,4.4-5.4,3.9c-2.8-0.5-3.9-2.3-4.2-5.1c-1.5-12-2.9-23.9-7.5-35.2c-3.5-8.5-8.1-16.3-15.6-21.9
		c-0.7-0.5-1.4-1.1-2.1-1.7c-5.3-4.8-6.6-5.9,0.3-11.1c6.1-4.6,11.2-10.6,16.1-16.4c7.9-9.3,13.7-19.8,15.4-32.1
		c0.4-2.5,0.3-5.1,0.5-7.7c0.2-2.8,1-5.5,4.1-5.6c3.3-0.1,4,2.7,4,5.4c0.4,14.9,6.1,27.9,14.6,39.8c4.1,5.7,8.6,11.2,12.8,16.8
		C451,675,451.4,676.1,452,677.5z"/>
	<path class="st1" d="M550.7,633.3c-0.8,1.3-1.3,2.7-2.3,3.6c-12,11.3-17.8,25.8-21.8,41.3c-0.4,1.5-0.6,3.2-1.5,4.3
		c-1,1.2-2.9,2.6-4.1,2.4c-1.3-0.2-2.9-2.1-3.3-3.5c-1.2-5.5-1.8-11.1-2.9-16.7c-2.2-10.5-6.9-19.5-15.6-26.2
		c-4.1-3.2-3.7-4.5,0.1-7.9c12.2-10.8,23-22.5,23.7-40.2c0.1-1.6,2.2-3.2,3.4-4.8c1,1.5,2.9,3,3,4.6c0.6,10.2,4.4,19.2,10.1,27.4
		c3,4.3,6.5,8.3,9.6,12.4C549.8,631,550.1,632.1,550.7,633.3z"/>
	<path class="st1" d="M56,124c2.8,0.2,3.9,1.7,4.4,4.4C61.7,136,63,143.6,65,151c2.1,7.9,6.9,14.2,13.3,19.3c4.7,3.8,4.3,4.5,0,8.4
		c-10.9,9.9-21.1,20.4-23,36.1c-0.2,1.9,0,4-0.7,5.7c-0.5,1.3-2.2,2.1-3.3,3.1c-1-1.2-2.8-2.4-2.8-3.6c-0.6-16.3-9.2-28.7-19.4-40.3
		c-2.3-2.6-2.2-5,0.1-7.1c12.3-11.5,18.2-26.4,22.2-42.3C52.1,127.7,52.3,124.5,56,124z"/>
	<path class="st1" d="M524,755.2c2.8,0.4,5.2-0.6,6.7-4c1.3-2.9,5.7-3,8.7-0.7c3.4,2.7,6.3,11.8,5.1,15.9c-1.2,4.2-5.9,5.4-9.1,2.3
		c-4.4-4.1-12.8-5.3-18-2.3c-1,0.6-1.7,1.8-2.4,2.9c-1.6,2.4-3.6,4-6.4,2.6c-2.8-1.3-3.5-3.7-2.8-6.8c1.4-6.2,2.6-12.5,3.8-18.8
		c0.7-3.2-0.6-4.6-3.9-4.1c-2.8,0.4-5.6,0.8-8.4,0.9c-3,0.2-4.9-1.3-5.3-4.3c-0.3-2.8,1.8-4.9,4.9-5.2c3.1-0.3,6.1-0.8,9.2-0.9
		c2.9-0.1,3.8-1.3,3.6-4.1c-0.3-4.7-0.5-9.5-0.6-14.2c-0.1-4.4,1.4-6.3,4.4-6.4c3.3-0.1,4.9,2,5.1,6.2c0.2,4.6,0.5,9.2,0.5,13.8
		c0,2.6,1.2,3.4,3.6,3.1c2.5-0.3,5.1-0.7,7.6-0.9c3-0.1,5,1.4,5.2,4.4c0.2,3.1-1.8,4.7-4.7,5.1c-2.7,0.4-5.3,0.8-8,0.8
		c-2.9,0.1-3.7,1.5-3.7,4.1c0.1,1.9-0.2,3.8-0.4,5.7C518.4,755.3,518.7,755.7,524,755.2z"/>
	<path class="st1" d="M55.4,56.4c-2.7-0.3-5.2,0.4-6.7,4c-1.2,2.9-5.4,3.1-8.4,1c-3.7-2.6-6.9-12.2-5.4-16.5c1.4-4,5.8-5,8.9-2.1
		c4.5,4.2,11.9,5.4,17.6,2.6c1.2-0.6,2.1-1.8,2.8-2.9c1.7-2.4,3.7-4.3,6.7-2.6c2.7,1.4,3.3,3.9,2.5,6.9c-1.4,6.2-2.5,12.5-3.8,18.8
		c-0.6,3.1,0.6,4.3,3.7,3.9c2.8-0.4,5.6-0.8,8.4-1c3.2-0.2,5.4,1.3,5.5,4.5c0.1,3.2-1.9,4.8-5.1,5.1c-3.2,0.3-6.4,0.8-9.6,1
		c-2.6,0.1-3.2,1.4-3.1,3.8c0.3,5,0.5,10,0.6,15c0,2.6-0.3,5.3-3.7,5.8c-3.2,0.5-5.5-1.5-5.7-5.1c-0.3-4.9-0.5-9.7-0.5-14.6
		c0-3-1.3-3.8-4-3.4c-2.4,0.4-4.8,0.7-7.2,0.8c-3,0.1-5-1.4-5.2-4.5c-0.2-3.1,1.8-4.7,4.7-5.1c2.8-0.4,5.6-0.8,8.4-0.9
		c2.5-0.1,3.3-1.3,3.3-3.7c0-2.2,0.3-4.3,0.5-6.5C60.8,56.1,60.7,55.9,55.4,56.4z"/>
</g>
</svg>
