<?xml version="1.0" encoding="utf-8"?>
<!-- Generator: Adobe Illustrator 24.0.0, SVG Export Plug-In . SVG Version: 6.00 Build 0)  -->
<svg version="1.0" id="Layer_1" xmlns="http://www.w3.org/2000/svg" xmlns:xlink="http://www.w3.org/1999/xlink" x="0px" y="0px"
	 viewBox="0 0 578.6 809.5" style="enable-background:new 0 0 578.6 809.5;" xml:space="preserve">
<style type="text/css">
	.st0{fill:#FDFDFD;}
	.st1{fill:#070707;}
</style>
<g>
	<path class="st0" d="M39,0h500.6c21.5,0,39,17.5,39,39v731.5c0,21.5-17.5,39-39,39H39c-21.5,0-39-17.5-39-39V39C0,17.5,17.5,0,39,0
		z M172.3,166.8c0.6,0.6,0.6,0.6,1.2,1.2c-1.5,3.5-2.4,7.4-4.8,10.2c-3.4,4.1-7.9,7.3-11.7,11.2c-1.1,1.1-2,3.2-1.8,4.7
		c0.1,0.8,2.5,1.9,4,2c10.4,0.7,20.8,1.4,31.2,1.7c3.8,0.1,7.7-0.8,11.4-1.6c1.3-0.3,2.4-1.8,3.6-2.8c-0.9-1.1-1.6-2.4-2.7-3.2
		c-5.2-3.8-10.8-7.2-15.8-11.2c-3.9-3.1-7.1-7-5.3-12.7c0.7,0,1.2-0.1,1.5,0c0.7,0.4,1.4,0.9,2,1.4c8.4,6.6,18.1,9.7,28.6,8.8
		c3.8-0.3,8.3-2.1,11.1-4.7c9.5-8.9,10.3-30.2,1.6-39.9c-2.7-3.1-6.9-5.4-10.8-6.7c-3.7-1.3-7.9-0.8-12.2-1.2
		c0.3-2.1,0.8-4.2,0.9-6.2c0.3-8.8,0.9-17.8-6-24.7c-6.7-6.8-21.8-8.7-31.1-4.2c-9.5,4.6-14.6,14-13.4,25.3
		c0.5,4.6,1.4,9.2,2.2,14.4c-3.1-0.3-5.4-0.5-7.6-0.8c-16.4-2.6-28.4,8.5-27.2,25.3c1,14.2,18.4,25.6,32.9,21.2
		C160.2,172.2,166.1,169.2,172.3,166.8z M402.1,167.3c-2.1,5-3,9.1-5.3,12c-3.4,4.2-7.9,7.3-11.7,11.2c-1.2,1.2-2.4,3.4-2,4.6
		c0.3,1.1,2.8,2.1,4.5,2.2c10.4,0.8,20.8,1.5,31.2,1.8c3.4,0.1,6.9-0.7,10.2-1.5c1.6-0.4,3-1.8,4.4-2.8c-1.2-1.3-2.2-2.9-3.6-3.9
		c-5-3.7-10.4-7-15.2-10.9c-5.2-4.3-6-7.5-4.1-13c8.8,7.4,18.9,11.1,30.4,11c6.2-0.1,10.9-2.6,14.2-7.6c6-9,6.3-18.8,3.5-28.8
		c-2.7-9.8-9.2-15.3-19.1-16.2c-2.6-0.2-5.2,0.2-8.3,0.4c0.4-2.5,0.9-4.5,1-6.5c0.4-8.8,0.9-17.8-5.8-24.8
		c-6.6-6.9-21.7-8.9-31.1-4.5c-9.5,4.5-14.8,14-13.7,25.1c0.5,4.7,1.4,9.3,2.2,14.6c-3.2-0.4-5.7-0.5-8.1-0.9
		c-15.4-2.5-26.6,8.1-27.1,23.9c-0.5,13.8,19.3,27.5,33.1,22.8C387.9,173.4,393.8,170.6,402.1,167.3z M157.1,386.7
		c-3.2-0.4-5.4-0.5-7.7-0.9c-16.4-2.6-28.4,8.6-27.2,25.3c1,14.2,18.4,25.5,33,21.2c6.3-1.9,12.4-5,18.5-7.4
		c0.6,0.6,0.6,0.6,1.2,1.2c-1.7,3.6-2.9,7.7-5.4,10.8c-3.2,4-7.7,7-11.3,10.7c-1.1,1.1-2,3.2-1.8,4.7c0.1,0.8,2.5,1.9,4,2
		c10.4,0.7,20.8,1.5,31.2,1.7c3.8,0.1,7.7-0.8,11.4-1.7c1.3-0.3,2.4-1.8,3.6-2.8c-0.9-1.1-1.6-2.4-2.7-3.2
		c-5.2-3.8-10.8-7.2-15.8-11.2c-3.9-3.1-7.1-7-5.2-12.7c0.7,0,1.2-0.1,1.5,0c0.7,0.4,1.4,0.9,2,1.4c8.4,6.6,18.1,9.7,28.6,8.8
		c3.8-0.3,8.3-2.1,11.1-4.7c9.3-8.7,10.3-29.7,2-39.4c-2.8-3.3-7.1-5.7-11.2-7.2c-3.6-1.3-7.9-0.8-12.2-1.2c0.3-2.1,0.7-4.2,0.9-6.2
		c2.1-18.5-4-27.8-20.7-31.2c-16.6-3.4-31.6,10-30,26.9C155.3,376.4,156.2,381,157.1,386.7z M385,388c-3.2-0.4-5.5-0.5-7.7-0.9
		c-16.3-2.6-28.4,8.6-27.2,25.3c1,14.1,18.4,25.5,33,21.2c6.3-1.9,12.4-5,18.5-7.4c0.6,0.6,0.6,0.6,1.2,1.2
		c-1.7,3.6-2.9,7.7-5.4,10.8c-3.2,4-7.7,7-11.3,10.7c-1.1,1.1-1.9,3.2-1.8,4.7c0.1,0.8,2.5,1.9,4,2c10.4,0.7,20.8,1.5,31.2,1.7
		c3.8,0.1,7.7-0.8,11.4-1.7c1.3-0.3,2.4-1.9,3.5-2.8c-0.9-1.1-1.6-2.4-2.7-3.1c-5.2-3.8-10.8-7.2-15.8-11.2c-3.9-3.1-7-7-5-13.3
		c1.4,0.9,2.4,1.4,3.3,2.1c8.4,6.6,18.1,9.6,28.6,8.8c3.8-0.3,8.3-2.1,11.1-4.8c9.3-8.8,10.3-29.7,1.9-39.4
		c-2.8-3.3-7.1-5.7-11.3-7.2c-3.6-1.3-7.9-0.8-12.2-1.2c0.3-2.2,0.7-4.2,1-6.2c2.1-18.5-4.1-27.8-20.7-31.2
		c-16.6-3.4-31.6,10.1-29.9,26.9C383.2,377.7,384.2,382.3,385,388z M170.3,643c-1.4-0.9-2.3-1.4-3.1-2c-7.7-6.4-16.8-8.9-26.6-9.4
		c-8.3-0.4-13.9,3.4-17.5,10.6c-4.5,8.9-4.2,18.2-1.3,27.4c2.3,7.3,7.3,12.2,14.8,13.7c3.7,0.8,7.7,0.6,12,0.9
		c-0.3,1.9-0.7,3.8-0.8,5.8c-0.4,9-1,18.2,6.1,25.3c6.8,6.8,21.9,8.6,31.2,4c9.5-4.7,14.4-14,13.3-25.4c-0.5-4.6-1.4-9.2-2.2-14.4
		c3.3,0.4,5.5,0.6,7.8,1c16,2.6,28-8.4,27.1-24.8c-0.8-14.2-18.1-26-32.6-21.8c-6.5,1.9-12.7,5-19.1,7.6c-0.6-0.6-0.6-0.6-1.2-1.2
		c1.8-3.7,3-7.8,5.6-10.9c3.3-4,7.7-7,11.4-10.7c1.1-1.1,1.9-3.3,1.6-4.7c-0.1-0.9-2.6-1.8-4.1-1.9c-10.4-0.7-20.8-1.5-31.2-1.7
		c-3.8-0.1-7.7,0.9-11.4,1.7c-1.2,0.3-2.2,1.5-3.4,2.4c0.9,1.2,1.6,2.8,2.8,3.7c5.2,3.8,10.7,7.2,15.8,11.3
		C169.1,632.6,172,636.5,170.3,643z M407.5,643c-0.6-0.6-0.6-0.6-1.2-1.2c1.7-3.6,2.7-7.6,5.1-10.5c3.2-4,7.6-7,11.3-10.7
		c1.2-1.2,1.7-3.1,2.5-4.7c-1.5-0.8-3-2.1-4.6-2.3c-10.4-0.8-20.8-1.5-31.2-1.8c-3.6-0.1-7.3,0.8-10.8,1.6c-1.4,0.3-2.6,1.7-3.9,2.6
		c1.1,1.3,2.1,3,3.5,4c5,3.7,10.4,7,15.3,10.9c5.2,4.2,6,7.3,4.3,13.1c-9.1-7.6-19.3-11.4-31.1-11.1c-5.6,0.1-10.1,2.4-13.3,7
		c-6.4,9.1-6.8,19-4,29.3c2.7,9.9,9.1,15.4,19,16.3c2.6,0.2,5.2-0.3,7.5-0.4c0,6.1-0.3,11.9,0.1,17.6c0.5,7.2,3.1,13.5,10.1,16.9
		c10.5,5,21.1,5.9,30.8-1.3c10.3-7.6,11.3-18.3,8.6-29.9c-0.5-2.3-0.7-4.6-1.2-7.4c3.1,0.4,5.2,0.5,7.2,0.8
		c17.1,2.6,29.1-8.7,27.5-26.1c-1.2-13.4-18.6-24.5-32.6-20.4C419.9,637.3,413.8,640.5,407.5,643z M293.8,288.4
		c2.5,1.5,3.9,2.1,5.2,3.1c7.8,5.9,16.7,8.5,26.4,8c3.1-0.2,6.7-1.3,9.2-3.1c8.5-6.2,10.9-21.7,5.9-34.2
		c-3.4-8.5-11.1-12.5-22.6-11.6c-0.7,0.1-1.5-0.4-1.9-0.5c0-6,0.3-11.6-0.1-17.2c-0.5-6.5-3-12.2-9.3-15.3c-9.9-4.7-19.8-5.5-29,1.3
		c-9.4,7-10.6,16.9-8.1,27.6c0.5,2.3,0.8,4.7,1.3,7.9c-4-0.5-7.1-0.9-10.1-1.3c-10-1.5-16,2.1-20.6,12.2c-4.7,10.3-3.3,19,4,25.1
		c11.2,9.3,23.1,10.1,35.8,2.5c2-1.2,4.1-2,6.1-3c0.9,0.9,0.9,0.8,1.7,1.7c-1.6,3.5-2.7,7.4-5.1,10.4c-2.9,3.7-7,6.5-10.4,9.9
		c-1.1,1.1-1.5,2.7-2.3,4.1c1.4,0.7,2.7,1.9,4.1,2c10.4,0.8,20.8,1.7,31.2,1.9c4,0.1,8-1.6,13.3-2.8
		C309.8,307,294.8,305,293.8,288.4z M65.8,187.6c7.7,2.3,15.1,5.2,22.6,6.4c7.3,1.2,11.7-2.1,14.7-9c3.5-8,3.1-16.1-0.9-23.6
		c-3.9-7.3-11.1-8.6-18.7-7.9c2.2-24.6-5.9-28.6-19.5-29c-4.9-0.1-11,2.9-14.8,6.4c-7.7,6.9-5.2,16.4-2.7,26c-3.3-0.4-5.7-0.7-8.1-1
		c-7.7-1.1-11.9,0.8-15.7,7.4c-3.8,6.6-6.1,13.8-0.7,20.5c5.7,7,13.2,11.2,22.6,8.6c4.8-1.3,9.4-3.7,14.1-5.5
		c-0.2,3.6-1.1,6.8-3.1,9.1c-2.5,3-5.9,5.3-8.6,8.1c-0.8,0.9-1.3,2.6-1.2,3.7c0.1,0.6,1.9,1.3,3,1.4c8.7,0.6,17.5,1.4,26.2,1.5
		c3.2,0.1,6.4-1.4,10.6-2.5C78.8,199.9,66.6,198.4,65.8,187.6z M533.7,652.7c3.4,0.5,6,0.8,8.6,1.2c6.6,1.1,11.5-1.5,14.7-7.1
		c3.8-6.6,6.1-13.4,1.3-20.6c-4.9-7.3-14.7-11.2-23.1-8.9c-4.8,1.3-9.4,3.6-15.6,6.2c1.5-3.8,2-6.5,3.6-8.4c2.8-3.3,6.3-6,9.4-9.1
		c0.9-0.9,1.9-2.5,1.7-3.6c-0.2-0.8-2.1-1.8-3.3-1.9c-8.7-0.7-17.5-1.4-26.2-1.6c-3.2-0.1-6.4,1.5-10.6,2.5c7,8.2,18.9,9.8,20,21.1
		c-6.9-2.4-13.1-5.6-19.7-6.8c-11.1-2-17.6,3-19.3,14.2c-0.6,4-0.4,8.4,0.5,12.4c2,9.5,8.4,14,18,13.7c0.9,0,1.9,0,2.8,0
		c-2.1,23.1,4.4,28.3,19,29c4.9,0.3,11-2.6,15-6C538.7,672.2,535.9,662.5,533.7,652.7z M69.3,82.6c0.7,5.8,0.9,11,2.1,16
		c0.5,2,3.4,3.4,5.2,5c1.3-2,3.5-3.9,3.8-6c0.4-3-0.4-6.2-0.9-9.3c-1-5.5,1-8.2,6.8-8.2c3.6,0,7.8-0.6,7.1-5.6
		c-0.6-4.6-4.4-4.4-7.8-3.7c-4.9,1-5.7-1.4-5.4-5.5c0.4-4.6,0.8-9.2,0.5-13.7c-0.1-1.7-1.7-3.9-3.3-4.7c-1.2-0.6-4.4,0.3-4.8,1.4
		c-2.1,5.1-5.9,3.8-9.4,3.1c-3.6-0.8-7.1-2.7-10.8-3c-2.5-0.2-7.4,1.7-7.3,2.3c0.5,4.3,1.3,8.8,3.3,12.6c0.8,1.5,4.6,1.4,7.1,2
		c0.3,0.1,0.9-0.3,1-0.6c3.4-7.3,8.9-3.1,13.7-2.9c0.6,9.6,0.6,9.6-8.2,11.7c-0.4,0.1-1,0-1.2,0.3c-1.3,1.6-3.9,3.8-3.6,4.9
		c0.6,1.8,3,3.5,5,4.2C64.1,83.5,66.4,82.8,69.3,82.6z M510.7,727c-0.7-5.5-0.8-10.7-2.1-15.6c-0.6-2.1-3.6-3.6-5.5-5.4
		c-1.2,2.1-2.9,4.1-3.6,6.3c-0.5,1.6,0.3,3.7,0.6,5.5c1.2,9.8,1.2,9.6-8.5,11.9c-1.8,0.4-3.8,1.8-4.7,3.3c-0.6,1-0.1,3.7,0.8,4.4
		c1.5,1.1,3.9,1.8,5.7,1.4c5.8-1.3,6.9,1.3,6.4,6.3c-0.5,4.3-0.8,8.7-0.4,13.1c0.1,1.6,1.9,4,3.5,4.4c1.4,0.4,3.5-1.3,5.2-2
		c2.2-0.9,4.5-2.8,6.5-2.6c4.5,0.6,8.8,2.7,13.3,3.2c2.4,0.2,7.2-2,7.1-2.6c-0.5-4.3-1.5-8.8-3.6-12.6c-0.8-1.5-4.7-1.2-7.2-1.7
		c-0.3-0.1-0.9,0.3-1,0.7c-3.2,7.4-8.7,2.6-13.3,3c-1.3-9.8-1.2-9.9,7.6-11.8c0.4-0.1,1,0,1.2-0.3c1.4-1.7,2.8-3.5,4.2-5.3
		c-1.8-1.3-3.5-3.2-5.5-3.9C515.5,726.2,513.3,726.9,510.7,727z"/>
	<path class="st1" d="M172.1,166.8c-6,2.5-11.9,5.4-18.2,7.3c-14.6,4.4-32-7.1-32.9-21.2c-1.2-16.7,10.9-27.9,27.2-25.3
		c2.2,0.4,4.5,0.5,7.6,0.8c-0.8-5.2-1.7-9.8-2.2-14.4c-1.2-11.2,3.9-20.7,13.4-25.3c9.3-4.5,24.4-2.6,31.1,4.2
		c6.9,7,6.3,15.9,6,24.7c-0.1,2-0.6,4-0.9,6.2c4.3,0.3,8.6-0.1,12.2,1.2c4,1.4,8.1,3.7,10.8,6.7c8.7,9.7,7.9,31-1.6,39.9
		c-2.8,2.6-7.2,4.4-11.1,4.7c-10.5,0.9-20.2-2.2-28.6-8.8c-0.7-0.5-1.3-1-2-1.4c-0.3-0.2-0.8,0-1.5,0c-1.8,5.7,1.4,9.6,5.3,12.7
		c5,4,10.6,7.4,15.8,11.2c1.1,0.8,1.8,2.1,2.7,3.2c-1.2,1-2.2,2.5-3.6,2.8c-3.7,0.9-7.6,1.8-11.4,1.6c-10.4-0.3-20.8-1-31.2-1.7
		c-1.4-0.1-3.9-1.2-4-2c-0.2-1.5,0.7-3.6,1.8-4.7c3.8-3.8,8.4-7,11.7-11.2c2.4-2.9,3.3-7,4.9-10.6
		C173.1,167.3,172.6,167.1,172.1,166.8z"/>
	<path class="st1" d="M402.1,167.3c-8.3,3.4-14.2,6.1-20.4,8.2c-13.8,4.8-33.6-9-33.1-22.8c0.5-15.8,11.8-26.4,27.1-23.9
		c2.4,0.4,4.8,0.6,8.1,0.9c-0.8-5.4-1.8-10-2.2-14.6c-1.2-11.1,4.1-20.6,13.7-25.1c9.4-4.4,24.5-2.4,31.1,4.5c6.7,7,6.2,16,5.8,24.8
		c-0.1,2-0.6,4-1,6.5c3.1-0.2,5.7-0.6,8.3-0.4c9.9,0.9,16.4,6.4,19.1,16.2c2.8,10.1,2.5,19.8-3.5,28.8c-3.4,5.1-8.1,7.6-14.2,7.6
		c-11.5,0.1-21.6-3.6-30.4-11c-2,5.5-1.2,8.7,4.1,13c4.8,3.9,10.2,7.2,15.2,10.9c1.4,1,2.4,2.6,3.6,3.9c-1.5,1-2.8,2.4-4.4,2.8
		c-3.3,0.8-6.8,1.6-10.2,1.5c-10.4-0.3-20.8-1-31.2-1.8c-1.6-0.1-4.1-1.1-4.5-2.2c-0.4-1.2,0.9-3.5,2-4.6c3.8-3.8,8.4-7,11.7-11.2
		C399.1,176.4,400,172.3,402.1,167.3z"/>
	<path class="st1" d="M157.1,386.7c-0.9-5.7-1.8-10.3-2.3-15.1c-1.6-16.9,13.4-30.3,30-26.9c16.7,3.4,22.8,12.7,20.7,31.2
		c-0.2,2-0.6,4-0.9,6.2c4.3,0.3,8.6-0.2,12.2,1.2c4.1,1.5,8.4,3.9,11.2,7.2c8.4,9.7,7.3,30.7-2,39.4c-2.8,2.6-7.2,4.4-11.1,4.7
		c-10.5,0.9-20.2-2.2-28.6-8.8c-0.7-0.5-1.3-1-2-1.4c-0.3-0.2-0.8,0-1.5,0c-1.8,5.7,1.4,9.6,5.2,12.7c5,4,10.6,7.4,15.8,11.2
		c1.1,0.8,1.8,2.1,2.7,3.2c-1.2,1-2.2,2.5-3.6,2.8c-3.7,0.9-7.6,1.8-11.4,1.7c-10.4-0.3-20.8-1-31.2-1.7c-1.4-0.1-3.9-1.2-4-2
		c-0.2-1.5,0.7-3.6,1.8-4.7c3.7-3.7,8.1-6.7,11.3-10.7c2.5-3.1,3.7-7.3,5.5-10.9c-0.5-0.3-1.1-0.6-1.6-0.9c-6,2.5-11.9,5.4-18.1,7.3
		c-14.6,4.4-32-7-33-21.2c-1.2-16.7,10.8-27.9,27.2-25.3C151.6,386.2,153.9,386.4,157.1,386.7z"/>
	<path class="st1" d="M385,388c-0.9-5.7-1.8-10.3-2.3-15c-1.7-16.9,13.4-30.3,29.9-26.9c16.7,3.4,22.9,12.7,20.7,31.2
		c-0.2,2-0.6,4-1,6.2c4.3,0.3,8.6-0.2,12.2,1.2c4.1,1.5,8.4,3.9,11.3,7.2c8.4,9.7,7.4,30.7-1.9,39.4c-2.8,2.6-7.2,4.4-11.1,4.8
		c-10.5,0.9-20.2-2.2-28.6-8.8c-0.9-0.7-2-1.3-3.3-2.1c-2,6.3,1.1,10.2,5,13.3c5,4,10.6,7.4,15.8,11.2c1.1,0.8,1.8,2.1,2.7,3.1
		c-1.2,1-2.2,2.5-3.5,2.8c-3.7,0.9-7.6,1.8-11.4,1.7c-10.4-0.3-20.8-1-31.2-1.7c-1.4-0.1-3.9-1.1-4-2c-0.2-1.5,0.6-3.6,1.8-4.7
		c3.7-3.7,8.1-6.7,11.3-10.7c2.5-3.1,3.7-7.3,5.5-10.9c-0.5-0.3-1.1-0.6-1.6-0.9c-6,2.5-11.9,5.4-18.1,7.3c-14.6,4.4-32-7-33-21.2
		c-1.2-16.7,10.8-27.9,27.2-25.3C379.6,387.5,381.8,387.6,385,388z"/>
	<path class="st1" d="M170.3,643c1.7-6.5-1.2-10.4-5-13.4c-5-4-10.6-7.4-15.8-11.3c-1.2-0.9-1.9-2.4-2.8-3.7
		c1.1-0.8,2.1-2.1,3.4-2.4c3.8-0.8,7.6-1.8,11.4-1.7c10.4,0.3,20.8,1,31.2,1.7c1.5,0.1,3.9,1,4.1,1.9c0.3,1.5-0.5,3.6-1.6,4.7
		c-3.6,3.7-8.1,6.7-11.4,10.7c-2.6,3.1-3.8,7.3-5.6,11c0.5,0.3,1.1,0.6,1.6,1c6.2-2.5,12.3-5.6,18.7-7.4
		c14.5-4.2,31.7,7.6,32.6,21.8c1,16.4-11.1,27.4-27.1,24.8c-2.2-0.4-4.5-0.6-7.8-1c0.8,5.2,1.7,9.8,2.2,14.4
		c1.2,11.4-3.8,20.7-13.3,25.4c-9.3,4.6-24.3,2.8-31.2-4c-7.1-7.1-6.5-16.3-6.1-25.3c0.1-2,0.5-4,0.8-5.8c-4.3-0.3-8.3-0.2-12-0.9
		c-7.6-1.5-12.5-6.4-14.8-13.7c-2.9-9.3-3.2-18.5,1.3-27.4c3.6-7.2,9.2-11,17.5-10.6c9.9,0.4,18.9,3,26.6,9.4
		C168,641.6,168.9,642.1,170.3,643z"/>
	<path class="st1" d="M408.1,642.7c6.1-2.5,12-5.5,18.2-7.3c14-4.1,31.4,7.1,32.6,20.4c1.6,17.4-10.3,28.8-27.5,26.1
		c-2-0.3-4.1-0.5-7.2-0.8c0.4,2.8,0.7,5.1,1.2,7.4c2.7,11.6,1.7,22.3-8.6,29.9c-9.7,7.2-20.3,6.3-30.8,1.3c-7-3.4-9.6-9.7-10.1-16.9
		c-0.4-5.7-0.1-11.5-0.1-17.6c-2.3,0.1-5,0.6-7.5,0.4c-9.9-0.9-16.3-6.5-19-16.3c-2.8-10.3-2.5-20.3,4-29.3c3.2-4.6,7.7-6.8,13.3-7
		c11.7-0.3,22,3.5,31.1,11.1c1.7-5.8,0.9-8.9-4.3-13.1c-4.9-3.9-10.2-7.2-15.3-10.9c-1.4-1-2.3-2.6-3.5-4c1.3-0.9,2.5-2.2,3.9-2.6
		c3.5-0.8,7.2-1.7,10.8-1.6c10.4,0.3,20.8,1,31.2,1.8c1.6,0.1,3.1,1.5,4.6,2.3c-0.8,1.6-1.3,3.5-2.5,4.7c-3.7,3.7-8.1,6.7-11.3,10.7
		c-2.4,3-3.5,7-5.2,10.6C406.9,642.2,407.5,642.4,408.1,642.7z"/>
	<path class="st1" d="M293.8,288.4c1,16.6,16,18.6,24.8,28.7c-5.3,1.2-9.3,2.9-13.3,2.8c-10.4-0.2-20.8-1.1-31.2-1.9
		c-1.4-0.1-2.7-1.3-4.1-2c0.7-1.4,1.2-3.1,2.3-4.1c3.4-3.4,7.4-6.2,10.4-9.9c2.4-3,3.5-7,5.2-10.6c-0.6-0.5-1.2-1-1.8-1.5
		c-2.1,1-4.2,1.9-6.1,3c-12.7,7.6-24.6,6.8-35.8-2.5c-7.3-6.1-8.6-14.8-4-25.1c4.6-10.2,10.6-13.7,20.6-12.2c3,0.5,6.1,0.8,10.1,1.3
		c-0.5-3.2-0.8-5.6-1.3-7.9c-2.5-10.7-1.3-20.6,8.1-27.6c9.2-6.8,19.1-6,29-1.3c6.4,3.1,8.8,8.7,9.3,15.3c0.4,5.6,0.1,11.2,0.1,17.2
		c0.4,0.1,1.1,0.5,1.9,0.5c11.5-0.8,19.2,3.1,22.6,11.6c5,12.5,2.6,28-5.9,34.2c-2.5,1.8-6.1,3-9.2,3.1c-9.7,0.5-18.6-2.1-26.4-8
		C297.7,290.5,296.3,289.9,293.8,288.4z"/>
	<path class="st1" d="M65.8,187.6c0.8,10.8,13.1,12.3,19.8,20.6c-4.1,1-7.4,2.5-10.6,2.5c-8.7-0.1-17.5-0.9-26.2-1.5
		c-1.1-0.1-3-0.8-3-1.4c-0.2-1.2,0.3-2.9,1.2-3.7c2.8-2.8,6.1-5.1,8.6-8.1c1.9-2.3,2.9-5.5,3.1-9.1c-4.7,1.9-9.2,4.2-14.1,5.5
		c-9.4,2.6-16.9-1.6-22.6-8.6c-5.4-6.6-3.1-13.8,0.7-20.5c3.8-6.6,7.9-8.5,15.7-7.4c2.4,0.3,4.8,0.6,8.1,1c-2.5-9.7-5-19.1,2.7-26
		c3.8-3.5,9.9-6.5,14.8-6.4c13.7,0.4,21.8,4.4,19.5,29c7.6-0.7,14.8,0.6,18.7,7.9c4,7.5,4.4,15.6,0.9,23.6c-3,6.9-7.4,10.2-14.7,9
		C80.8,192.8,73.5,189.9,65.8,187.6z"/>
	<path class="st1" d="M533.7,652.7c2.2,9.8,5,19.5-3.2,26.4c-4,3.4-10,6.3-15,6c-14.6-0.7-21-5.9-19-29c-1,0-1.9,0-2.8,0
		c-9.7,0.3-16-4.2-18-13.7c-0.8-4-1.1-8.4-0.5-12.4c1.8-11.2,8.3-16.2,19.3-14.2c6.6,1.2,12.8,4.3,19.7,6.8c-1-11.3-13-12.9-20-21.1
		c4.2-1.1,7.4-2.6,10.6-2.5c8.7,0.1,17.5,0.9,26.2,1.6c1.2,0.1,3.2,1.1,3.3,1.9c0.2,1.1-0.8,2.7-1.7,3.6c-3.1,3.1-6.6,5.8-9.4,9.1
		c-1.6,1.9-2,4.7-3.6,8.4c6.3-2.5,10.8-4.8,15.6-6.2c8.4-2.3,18.2,1.6,23.1,8.9c4.8,7.1,2.5,14-1.3,20.6c-3.3,5.6-8.1,8.1-14.7,7.1
		C539.8,653.5,537.1,653.2,533.7,652.7z"/>
	<path class="st1" d="M69.3,82.6c-2.9,0.2-5.2,0.9-6.9,0.2c-2-0.7-4.4-2.4-5-4.2c-0.4-1.1,2.2-3.3,3.6-4.9c0.2-0.3,0.8-0.2,1.2-0.3
		c8.8-2.1,8.8-2.1,8.2-11.7c-4.8-0.1-10.3-4.4-13.7,2.9c-0.1,0.3-0.7,0.7-1,0.6c-2.5-0.6-6.3-0.5-7.1-2c-2-3.8-2.8-8.3-3.3-12.6
		c-0.1-0.6,4.8-2.5,7.3-2.3c3.6,0.3,7.1,2.2,10.8,3c3.5,0.8,7.4,2,9.4-3.1c0.4-1,3.6-1.9,4.8-1.4c1.5,0.8,3.2,3,3.3,4.7
		c0.3,4.5-0.1,9.1-0.5,13.7c-0.3,4.1,0.5,6.5,5.4,5.5c3.4-0.7,7.3-0.8,7.8,3.7c0.6,5-3.6,5.6-7.1,5.6c-5.8,0-7.8,2.7-6.8,8.2
		c0.5,3.1,1.3,6.3,0.9,9.3c-0.3,2.2-2.5,4-3.8,6c-1.8-1.7-4.7-3-5.2-5C70.2,93.7,70,88.4,69.3,82.6z"/>
	<path class="st1" d="M510.7,727c2.6-0.1,4.8-0.8,6.6-0.2c2,0.7,3.7,2.5,5.5,3.9c-1.4,1.8-2.7,3.6-4.2,5.3c-0.2,0.2-0.8,0.2-1.2,0.3
		c-8.8,1.9-8.8,2-7.6,11.8c4.5-0.4,10.1,4.5,13.3-3c0.1-0.3,0.7-0.7,1-0.7c2.5,0.5,6.4,0.3,7.2,1.7c2,3.8,3,8.3,3.6,12.6
		c0.1,0.6-4.8,2.9-7.1,2.6c-4.5-0.5-8.8-2.6-13.3-3.2c-2-0.3-4.3,1.6-6.5,2.6c-1.8,0.8-3.8,2.5-5.2,2c-1.5-0.4-3.3-2.8-3.5-4.4
		c-0.3-4.3,0-8.7,0.4-13.1c0.5-5-0.5-7.6-6.4-6.3c-1.8,0.4-4.2-0.3-5.7-1.4c-0.9-0.7-1.4-3.4-0.8-4.4c1-1.5,3-2.9,4.7-3.3
		c9.7-2.3,9.7-2.2,8.5-11.9c-0.2-1.9-1-3.9-0.6-5.5c0.7-2.3,2.3-4.2,3.6-6.3c1.9,1.8,4.9,3.2,5.5,5.4
		C509.9,716.3,510,721.5,510.7,727z"/>
</g>
</svg>
