<?xml version="1.0" encoding="utf-8"?>
<!-- Generator: Adobe Illustrator 24.0.0, SVG Export Plug-In . SVG Version: 6.00 Build 0)  -->
<svg version="1.0" id="Layer_1" xmlns="http://www.w3.org/2000/svg" xmlns:xlink="http://www.w3.org/1999/xlink" x="0px" y="0px"
	 viewBox="0 0 578.6 809.5" style="enable-background:new 0 0 578.6 809.5;" xml:space="preserve">
<style type="text/css">
	.st0{fill:#FEFDFD;}
	.st1{fill:#FE2121;}
</style>
<g>
	<path class="st0" d="M39,0h500.6c21.5,0,39,17.5,39,39c0,243.8,0,487.7,0,731.5c0,21.5-17.5,39-39,39c-166.9,0-333.7,0-500.6,0
		c-21.5,0-39-17.5-39-39C0,526.7,0,282.9,0,39C0,17.5,17.5,0,39,0z M179.7,728.2c2.1,3.1,3.5,5.2,4.9,7.2c6.8,9.4,18.6,12.9,26.8,8
		c11.3-6.8,17.4-21.9,14.2-34.7c-2.9-11.4-10.5-19.7-17.7-28.3c-8.3-9.9-16.4-20.1-19.3-33.2c-0.3-1.2-0.8-2.5-1.5-3.4
		c-0.7-0.8-2.2-1.8-3-1.5c-1.1,0.4-2.4,1.7-2.7,2.8c-3.8,14.9-12.1,27.3-22.4,38.3c-7.3,7.7-15.7,14.4-23,22c-9.1,9.5-9.9,23-2.8,34
		c8.1,12.5,25.6,12.6,37.1,0.1C173.3,736.1,176.1,732.5,179.7,728.2z M402.7,729.4c2.2,3.2,3.5,5.3,4.9,7.2
		c6.8,9.3,18.7,12.8,26.8,7.8c11.3-6.8,17.3-21.9,14.1-34.7c-2.8-11.2-10.3-19.4-17.4-27.8c-8.5-10.1-16.7-20.3-19.6-33.7
		c-0.2-1-0.5-2.2-1.2-2.8c-1-0.9-2.4-2.1-3.5-1.9c-1,0.1-2.3,1.7-2.6,2.8c-3.7,14.7-11.9,26.9-22,37.8c-7.3,7.9-16,14.7-23.5,22.5
		c-9,9.5-9.8,23.1-2.6,34c8.2,12.5,25.6,12.5,37.1,0C396.3,737.3,399.1,733.7,402.7,729.4z M177.1,79.9c-1.9-2.8-3.2-4.9-4.7-6.9
		c-6.8-9.4-18.6-13-26.8-8.1c-11.2,6.6-18.5,22.3-14,34.5c3.2,8.8,8.4,17.2,14.2,24.6c9.3,11.8,19.5,22.9,22.8,38.2
		c0.1,0.6,0.3,1.4,0.8,1.7c1.2,0.9,2.7,2.4,3.8,2.2c1.1-0.2,2-2.2,2.6-3.6c0.7-1.9,0.6-4.1,1.5-5.9c8.2-16.9,18.7-31.8,33.6-43.7
		c5.5-4.4,10.3-9.8,14.3-15.5c6.4-9.1,3.3-25.4-5.2-32.6c-9.1-7.7-21.1-7.2-30.5,1.6C185.3,70.2,181.7,74.8,177.1,79.9z M400.3,81.3
		c-1.9-2.8-3.3-4.8-4.7-6.8c-6.9-9.7-18.9-13.3-27.2-8.2c-11.3,6.9-17.2,22-14,34.8c2.9,11.4,10.6,19.7,17.8,28.3
		c8,9.6,15.7,19.4,19,31.9c0.6,2.3,3.2,4.2,4.9,6.2c1-2.2,2-4.4,3-6.6c0.2-0.6,0.2-1.3,0.6-1.8c7.3-11.1,13.8-22.8,22.1-33.1
		c6.6-8.2,15.6-14.4,22.8-22.1c8.8-9.3,9.4-23.5,2.2-34.1c-8.4-12.3-25.8-12.1-37.2,0.5C406.4,73.6,403.7,77.2,400.3,81.3z
		 M288.8,202.9c-2.1-3.2-3.4-5.3-4.9-7.2c-6.8-9.3-18.7-12.8-26.8-7.9c-11.3,6.8-18.5,22.3-13.9,34.5c3.4,9.1,9.1,17.7,15.1,25.5
		c8.7,11.4,18.6,22,21.7,36.7c0.3,1.2,0.8,2.5,1.7,3.3c2.4,2.4,4.7,1.8,5.6-1.4c4.7-17.6,14.7-31.9,27.9-44.1
		c6-5.5,12.2-10.8,17.7-16.7c8.8-9.5,9.6-23.3,2.4-34.1c-8.4-12.6-26.1-12.3-37.6,0.6C294.8,195.4,292.2,198.8,288.8,202.9z
		 M176,370.7c-1.9-2.8-3.3-4.9-4.7-6.9c-6.9-9.7-18.9-13.2-27.2-8.1c-11.3,7-17.2,21.9-13.9,34.8c2.9,11.4,10.6,19.7,17.8,28.3
		c8.2,9.8,16,19.7,19.1,32.6c0.5,2.1,3.1,3.7,4.7,5.6c0.9-2,1.9-4,2.8-6.1c0.3-0.8,0.3-1.7,0.7-2.4c7.2-11.1,13.8-22.8,22.1-33.1
		c6.4-8.1,15.2-14.2,22.4-21.7c9.1-9.6,10-22.8,2.9-34c-8.1-12.8-26-12.8-37.5,0.1C182.2,363.1,179.4,366.7,176,370.7z M400.3,370.8
		c-2-2.9-3.4-5.1-4.9-7.3c-6.8-9.3-18.7-12.8-26.8-7.8c-11.3,6.8-18.4,22.3-13.8,34.6c3.4,9.1,9.1,17.6,15.1,25.5
		c8.7,11.4,18.5,22.1,21.7,36.7c0.2,1,0.6,2.2,1.3,2.8c1,0.8,2.4,1.6,3.6,1.5c0.8-0.1,2-1.5,2.3-2.5c4-16,13-29.1,24.4-40.6
		c6.9-6.9,14.6-13.1,21.3-20.2c8.9-9.4,9.5-23.3,2.4-34.1c-8.3-12.4-25.8-12.3-37.2,0.3C406.5,363,403.7,366.6,400.3,370.8z
		 M520.6,669.4c1.9,2.3,3.3,4,4.8,5.7c8.2,9.4,18.4,9,25.9-1c7.5-10,7.5-20.6-0.5-31.8c-8.5-12-20.2-21.9-23.6-37.2
		c-0.2-1-2-2-3.2-2.3c-0.5-0.1-1.8,1.5-2.1,2.5c-4.1,12.8-11.3,23.5-21.1,32.6c-5.5,5.1-11.2,10.1-15.8,16c-5.9,7.5-3.6,21,3.6,26.7
		c7.3,5.8,17.2,4.5,24.7-3.2C515.6,674.9,517.9,672.3,520.6,669.4z M59.4,140.6c-1.8-2.2-3.3-4.2-4.9-6c-8-9.2-17.9-9-25.4,0.6
		c-8.1,10.4-8,20.8,0.6,32.7c8.5,11.7,19.9,21.6,23.2,36.6c0.2,1,2,1.8,3.2,2.2c0.4,0.1,1.7-1.1,2-1.9c4.7-16.5,15.2-28.8,28.1-39.5
		c3.6-3,6.9-6.7,9.5-10.7c5-7.6,2.5-20.1-4.4-25.6c-7-5.6-17-4.5-24.2,2.9C64.5,134.5,62.2,137.4,59.4,140.6z M512.2,733.3
		c0,2.4,0.2,3.8,0,5.2c-1,5.5-2.5,11-3.1,16.5c-0.2,2,1.1,4.5,2.5,6.3c0.4,0.5,3.6-0.2,4.7-1.2c7.3-6.7,12.3-7,21-1.2
		c1,0.7,2.7,1.5,3.4,1c1.8-1.1,3.9-2.6,4.5-4.4c1.4-4.6-2.2-13.5-6-14.7c-2-0.6-5.8-0.1-6.5,1.2c-2.8,5.3-7.1,3.7-11.1,3.8
		c-1.3-12.6-1.2-12.4,10.2-14.8c2-0.4,3.4-3.2,5.1-4.9c-2.1-1.3-4-3.2-6.3-3.6c-2.7-0.5-5.7,0.4-9.6,0.7c0-5,0.1-9.3,0-13.6
		c-0.1-3.5,0.5-8.1-4.5-8.1c-5.8,0-4.2,5-4.4,8.5c-0.2,4.5,0,9.1,0,14.1c-3.8,0.5-7.6,0.6-11.1,1.6c-2,0.6-3.4,2.8-5.1,4.3
		c1.9,1.4,3.7,3.7,5.8,4.1C504.7,734.5,508,733.7,512.2,733.3z M72.8,76.3c1.7-8.2,3.4-15,4.4-21.9c0.3-2-1-4.8-2.5-6.1
		c-0.7-0.7-4.2,0.7-5.6,2c-5.1,5.3-13.5,5.7-19.4,1.3c-1.7-1.3-4.7-0.8-7.1-1.1c-0.1,4.1-1.3,8.6-0.1,12.2c1,2.8,4.9,4.8,7.7,6.7
		c0.5,0.4,2.8-0.6,3.1-1.4c2.3-5.9,7-4.2,11.3-4.4c0.9,12.6,0.8,12.4-10.3,14.7c-2,0.4-3.5,3.2-5.2,4.9c2,1.4,3.9,3.5,6.1,3.9
		c2.9,0.5,6-0.3,9.9-0.7c0,5.7-0.5,10.7,0.2,15.6c0.3,2.3,2.9,4.2,4.5,6.3c1.5-2.1,4-4,4.2-6.2c0.6-5.3,0.2-10.7,0.2-16.6
		C78,85,81.8,85,85.3,83.9c2.1-0.7,3.5-3.1,5.3-4.8c-2-1.3-3.9-3.5-6-3.8C81.4,74.9,78.1,75.8,72.8,76.3z"/>
	<path class="st1" d="M179.7,728.2c-3.6,4.4-6.4,8-9.4,11.3c-11.6,12.5-29,12.4-37.1-0.1c-7.1-11-6.3-24.5,2.8-34
		c7.3-7.7,15.8-14.3,23-22c10.3-11,18.6-23.3,22.4-38.3c0.3-1.1,1.6-2.4,2.7-2.8c0.8-0.3,2.3,0.7,3,1.5c0.8,0.9,1.3,2.2,1.5,3.4
		c2.9,13.1,10.9,23.2,19.3,33.2c7.2,8.6,14.9,16.9,17.7,28.3c3.2,12.8-2.9,27.9-14.2,34.7c-8.2,4.9-20,1.4-26.8-8
		C183.2,733.3,181.8,731.3,179.7,728.2z"/>
	<path class="st1" d="M402.7,729.4c-3.6,4.3-6.4,7.9-9.4,11.2c-11.5,12.6-29,12.5-37.1,0c-7.1-10.9-6.4-24.6,2.6-34
		c7.5-7.8,16.1-14.5,23.5-22.5c10.1-10.9,18.3-23.1,22-37.8c0.3-1.2,1.6-2.7,2.6-2.8c1.1-0.1,2.5,1,3.5,1.9c0.7,0.7,1,1.8,1.2,2.8
		c2.9,13.3,11.1,23.6,19.6,33.7c7.1,8.4,14.6,16.7,17.4,27.8c3.2,12.8-2.8,27.9-14.1,34.7c-8.2,5-20,1.5-26.8-7.8
		C406.2,734.7,404.8,732.6,402.7,729.4z"/>
	<path class="st1" d="M177.1,79.9c4.6-5.1,8.2-9.7,12.4-13.6c9.5-8.8,21.4-9.3,30.5-1.6c8.5,7.2,11.6,23.5,5.2,32.6
		c-4,5.7-8.9,11.1-14.3,15.5c-14.9,11.9-25.4,26.8-33.6,43.7c-0.9,1.8-0.8,4-1.5,5.9c-0.5,1.4-1.5,3.4-2.6,3.6
		c-1.1,0.2-2.6-1.3-3.8-2.2c-0.4-0.3-0.6-1.1-0.8-1.7c-3.3-15.3-13.6-26.4-22.8-38.2c-5.8-7.4-11-15.8-14.2-24.6
		c-4.5-12.2,2.8-27.9,14-34.5c8.2-4.8,20-1.2,26.8,8.1C173.9,75,175.2,77,177.1,79.9z"/>
	<path class="st1" d="M400.3,81.3c3.4-4.1,6.2-7.6,9.2-11c11.4-12.6,28.8-12.8,37.2-0.5c7.2,10.6,6.6,24.8-2.2,34.1
		c-7.3,7.7-16.3,13.9-22.8,22.1c-8.3,10.3-14.8,22-22.1,33.1c-0.3,0.5-0.3,1.2-0.6,1.8c-1,2.2-2,4.4-3,6.6c-1.7-2.1-4.2-3.9-4.9-6.2
		c-3.3-12.5-11-22.3-19-31.9c-7.2-8.6-14.9-16.9-17.8-28.3c-3.2-12.8,2.7-27.8,14-34.8c8.4-5.1,20.3-1.6,27.2,8.2
		C397,76.4,398.3,78.5,400.3,81.3z"/>
	<path class="st1" d="M288.8,202.9c3.4-4.1,6.1-7.5,8.9-10.7c11.4-13,29.2-13.3,37.6-0.6c7.2,10.8,6.4,24.6-2.4,34.1
		c-5.5,5.9-11.7,11.2-17.7,16.7c-13.2,12.2-23.2,26.5-27.9,44.1c-0.9,3.2-3.1,3.8-5.6,1.4c-0.8-0.8-1.4-2.1-1.7-3.3
		c-3.2-14.7-13-25.3-21.7-36.7c-6-7.8-11.6-16.4-15.1-25.5c-4.6-12.2,2.6-27.8,13.9-34.5c8.2-4.9,20-1.4,26.8,7.9
		C285.3,197.6,286.6,199.7,288.8,202.9z"/>
	<path class="st1" d="M176,370.7c3.4-4.1,6.2-7.6,9.2-10.9c11.5-12.8,29.4-12.9,37.5-0.1c7.1,11.2,6.3,24.5-2.9,34
		c-7.2,7.5-16,13.6-22.4,21.7c-8.2,10.3-14.8,22-22.1,33.1c-0.4,0.7-0.4,1.6-0.7,2.4c-0.9,2-1.9,4.1-2.8,6.1
		c-1.6-1.8-4.2-3.5-4.7-5.6c-3.2-12.8-11-22.8-19.1-32.6c-7.2-8.6-14.9-16.9-17.8-28.3c-3.3-12.9,2.6-27.8,13.9-34.8
		c8.4-5.2,20.3-1.6,27.2,8.1C172.8,365.8,174.1,367.9,176,370.7z"/>
	<path class="st1" d="M400.3,370.8c3.5-4.2,6.3-7.8,9.3-11.1c11.4-12.6,28.9-12.7,37.2-0.3c7.2,10.7,6.5,24.7-2.4,34.1
		c-6.7,7.1-14.4,13.3-21.3,20.2c-11.4,11.5-20.4,24.5-24.4,40.6c-0.3,1-1.4,2.4-2.3,2.5c-1.2,0.1-2.6-0.7-3.6-1.5
		c-0.7-0.6-1.1-1.8-1.3-2.8c-3.2-14.7-13-25.3-21.7-36.7c-6-7.8-11.6-16.4-15.1-25.5c-4.6-12.2,2.5-27.8,13.8-34.6
		c8.1-4.9,20-1.5,26.8,7.8C396.9,365.6,398.3,367.8,400.3,370.8z"/>
	<path class="st1" d="M520.6,669.4c-2.7,2.9-4.9,5.6-7.3,8.1c-7.5,7.7-17.4,9-24.7,3.2c-7.2-5.8-9.5-19.2-3.6-26.7
		c4.6-5.9,10.3-10.9,15.8-16c9.8-9.1,17-19.9,21.1-32.6c0.3-1,1.6-2.6,2.1-2.5c1.2,0.3,3,1.3,3.2,2.3c3.5,15.2,15.1,25.2,23.6,37.2
		c7.9,11.2,7.9,21.8,0.5,31.8c-7.4,10-17.6,10.4-25.9,1C523.9,673.4,522.5,671.7,520.6,669.4z"/>
	<path class="st1" d="M59.4,140.6c2.8-3.2,5.1-6.1,7.7-8.7c7.2-7.4,17.1-8.5,24.2-2.9c7,5.5,9.4,17.9,4.4,25.6
		c-2.6,4-5.9,7.6-9.5,10.7c-12.9,10.7-23.4,22.9-28.1,39.5c-0.2,0.8-1.5,2-2,1.9c-1.2-0.4-3-1.2-3.2-2.2
		c-3.3-15-14.7-24.9-23.2-36.6c-8.6-11.9-8.7-22.3-0.6-32.7c7.4-9.6,17.4-9.8,25.4-0.6C56.1,136.4,57.6,138.3,59.4,140.6z"/>
	<path class="st1" d="M512.2,733.3c-4.2,0.4-7.6,1.3-10.8,0.8c-2.1-0.3-3.9-2.6-5.8-4.1c1.7-1.5,3.2-3.7,5.1-4.3
		c3.5-1,7.3-1.1,11.1-1.6c0-5-0.1-9.5,0-14.1c0.1-3.5-1.4-8.6,4.4-8.5c5,0,4.4,4.6,4.5,8.1c0.1,4.3,0,8.7,0,13.6
		c4-0.4,6.9-1.2,9.6-0.7c2.2,0.4,4.2,2.4,6.3,3.6c-1.7,1.7-3.1,4.5-5.1,4.9c-11.5,2.4-11.5,2.2-10.2,14.8c4.1-0.1,8.3,1.4,11.1-3.8
		c0.7-1.3,4.5-1.7,6.5-1.2c3.8,1.1,7.5,10.1,6,14.7c-0.6,1.8-2.7,3.3-4.5,4.4c-0.7,0.4-2.4-0.4-3.4-1c-8.7-5.9-13.7-5.5-21,1.2
		c-1.1,1-4.3,1.8-4.7,1.2c-1.3-1.8-2.7-4.3-2.5-6.3c0.6-5.6,2.1-11,3.1-16.5C512.4,737.1,512.2,735.7,512.2,733.3z"/>
	<path class="st1" d="M72.8,76.3c5.3-0.5,8.6-1.4,11.8-0.9c2.1,0.3,4,2.5,6,3.8c-1.7,1.6-3.2,4.1-5.3,4.8C81.8,85,78,85,74.4,85.4
		c0,5.9,0.4,11.3-0.2,16.6c-0.3,2.2-2.7,4.2-4.2,6.2c-1.6-2.1-4.1-4-4.5-6.3c-0.7-4.9-0.2-9.9-0.2-15.6c-3.9,0.3-7,1.2-9.9,0.7
		c-2.2-0.4-4.1-2.5-6.1-3.9c1.7-1.7,3.2-4.5,5.2-4.9c11.2-2.3,11.2-2.1,10.3-14.7c-4.3,0.2-9-1.5-11.3,4.4c-0.3,0.8-2.6,1.7-3.1,1.4
		c-2.8-2-6.7-3.9-7.7-6.7c-1.2-3.6,0-8.1,0.1-12.2c2.4,0.3,5.4-0.1,7.1,1.1c5.9,4.5,14.2,4,19.4-1.3c1.3-1.3,4.8-2.7,5.6-2
		c1.5,1.3,2.8,4.2,2.5,6.1C76.2,61.3,74.5,68.1,72.8,76.3z"/>
</g>
</svg>
