<?xml version="1.0" encoding="utf-8"?>
<!-- Generator: Adobe Illustrator 24.0.0, SVG Export Plug-In . SVG Version: 6.00 Build 0)  -->
<svg version="1.0" id="Layer_1" xmlns="http://www.w3.org/2000/svg" xmlns:xlink="http://www.w3.org/1999/xlink" x="0px" y="0px"
	 viewBox="0 0 578.6 809.5" style="enable-background:new 0 0 578.6 809.5;" xml:space="preserve">
<style type="text/css">
	.st0{fill:#FDFDFD;}
	.st1{fill:#030303;}
</style>
<g>
	<path class="st0" d="M539.6,809.5H39c-21.5,0-39-17.5-39-39V39C0,17.5,17.5,0,39,0h500.6c21.5,0,39,17.5,39,39v731.5
		C578.6,792,561.1,809.5,539.6,809.5z M182.6,193c0,0.1,0,0.3,0,0.4c3.7,0,7.5,0.2,11.2-0.1c1.7-0.1,4.2-1,4.6-2.1
		c0.6-1.6-0.2-3.9-0.9-5.7c-0.4-1.1-1.8-1.7-2.5-2.7c-0.8-1.1-1.2-2.3-1.8-3.5c1.5-0.2,3-0.7,4.4-0.5c2.5,0.4,4.8,1.6,7.2,1.9
		c7.9,0.9,15.5,0.6,21.2-6.1c14.8-17.5,10.2-40.7-10.2-50.7c-1.7-0.8-3.5-1.5-5-2.5c-12.6-7.9-20.6-18.6-20.8-34.1
		c0-1.9-1.8-3.8-2.8-5.7c-1,2-2.5,3.9-2.9,6c-0.7,3.5,0.2,7.8-1.4,10.7c-6,10.9-14.1,19-27.6,21.1c-15.8,2.5-22.1,15.2-26,28.9
		c-2.8,9.9,3.7,16.6,10,22.8c7.3,7.2,16.5,6.7,25.8,5.8c2.1-0.2,4.2-0.1,6.3-0.1c-0.7,2.3-1.2,4.6-2,6.9c-0.7,2-3.5,3.3-1.5,6.4
		c1.3,2,3.6,3.1,5.9,3.1C176.8,193.1,179.7,193,182.6,193z M398,193c0,0.1,0,0.3,0,0.4c3.7,0,7.5,0.2,11.2-0.1
		c1.7-0.1,4.2-0.9,4.6-2.1c0.6-1.6-0.2-3.9-0.9-5.7c-0.4-1.1-1.8-1.7-2.5-2.7c-0.8-1.1-1.2-2.3-1.8-3.5c1.5-0.2,3-0.7,4.4-0.5
		c2.5,0.4,4.8,1.6,7.2,1.9c7.9,0.9,15.5,0.6,21.2-6.1c14.8-17.5,10.2-40.7-10.1-50.7c-1.7-0.8-3.5-1.5-5-2.5
		c-12.6-7.9-20.6-18.6-20.8-34.1c0-1.9-1.8-3.8-2.7-5.7c-1,2-2.5,3.9-2.9,6c-0.7,3.5,0.2,7.8-1.4,10.7c-6,10.9-14.1,19-27.6,21.1
		c-15.8,2.5-22.1,15.2-26,28.9c-2.8,9.9,3.7,16.6,9.9,22.8c7.3,7.2,16.5,6.7,25.8,5.8c2.1-0.2,4.2-0.1,6.3-0.1
		c-0.6,2.3-1.2,4.6-2,6.9c-0.3,1-1.1,1.7-1.7,2.6c-2.6,4.2-1.4,6.7,3.6,6.9C390.5,193.1,394.3,193,398,193z M290.4,323.3
		c0,0.1,0,0.3,0,0.4c3.3,0,6.7,0.3,10-0.1c2.1-0.2,5.7-1.3,5.7-2.1c0.1-2.4-1.1-4.9-2.1-7.2c-0.8-1.7-2-3.2-3.1-4.8
		c2.1,0,4.3-0.4,6.2,0.1c16.9,5,28.2-0.8,33.6-17.4c5.4-16.5-0.1-29.6-15.5-37.4c-3.5-1.8-7.2-3.4-10.4-5.7
		c-10.9-8.2-17.5-18.8-17.1-33c0-1.4-1.5-2.9-2.2-4.4c-1.2,1.4-2.6,2.6-3.5,4.2c-0.5,0.8-0.3,2.1,0,3.1c1.6,6-1.6,10.2-4.7,14.8
		c-5.8,8.7-13.3,13.8-23.7,15.6c-15.8,2.7-22.3,14.8-26.4,28.5c-3.1,10.3,3.5,17,9.8,23.4c7.1,7.1,16.1,6.6,25.2,5.8
		c2.3-0.2,4.6-0.1,6.9-0.1c-0.8,2.5-1.5,5-2.3,7.4c-0.3,0.8-0.9,1.4-1.4,2.1c-2.5,4.2-1.3,6.6,3.7,6.8
		C282.9,323.4,286.6,323.3,290.4,323.3z M182.2,454.9c0,0.1,0,0.3,0,0.4c4.1,0,8.2,0.2,12.3,0c4.3-0.2,6.1-3.4,3.7-7
		c-1.1-1.7-2.9-2.8-4.1-4.4c-0.5-0.7-1-2.1-0.6-2.7c0.4-0.6,1.7-1,2.6-1c1.2,0.1,2.4,0.7,3.6,1.1c16.8,5.1,28.2-0.8,33.6-17.4
		c5.3-16.5-0.2-29.5-15.7-37.4c-3.7-1.9-7.6-3.6-10.8-6.1c-10.8-8.1-17-18.7-16.5-32.7c0-1.4-1.5-2.9-2.3-4.3
		c-1.2,1.4-2.5,2.7-3.4,4.3c-0.4,0.8-0.3,2.1,0,3.1c1.5,5.7-1.4,9.9-4.3,14.3c-5.9,8.8-13.5,14.2-24.1,16
		c-15.8,2.7-22.2,14.8-26.3,28.6c-3,10,3.3,16.6,9.5,22.9c7,7.2,16,7,25,6.2c2.5-0.2,5-0.1,7.4-0.1c-0.9,2.6-1.8,5.3-2.7,7.9
		c-0.2,0.6-0.8,1-1.1,1.5c-2.5,4.2-1.2,6.6,3.8,6.7C175.1,455,178.6,454.9,182.2,454.9z M189.9,636.6c1.9-3.6,4.1-7.5,6-11.5
		c0.8-1.5,1.9-3.7,1.3-4.9c-0.6-1.2-2.9-2.1-4.6-2.2c-6.7-0.4-13.3-0.6-20-0.4c-2.3,0.1-4.6,1.7-6.9,2.7c1.1,2.3,1.9,4.9,3.4,6.9
		c2.9,3.8,6.1,7.2,9.2,10.8c-2.3-0.2-3.6-1.2-5-2.2c-7.9-5.4-16.8-6.8-25.9-4.6c-18.8,4.5-23.7,39.4-8.8,49.8
		c3.9,2.7,8.2,4.8,12.4,7.1c14.2,7.7,23,18.9,23.4,35.7c0,1.8,1.8,3.5,2.7,5.3c0.9-1.9,2.3-3.7,2.6-5.6c0.5-3.2-0.7-7.2,0.8-9.7
		c6.1-10.5,13-19.8,26.7-22.1c15.6-2.7,26.3-15.8,28-31.5c0.2-2.4-0.1-5.2-1.1-7.3c-5.3-10.9-12.6-19.4-26-18.9
		C202.3,634.2,196.5,635.6,189.9,636.6z M400.3,435c0.6-0.6,0.4-0.4,0.9-1.1c1.5,1.1,2.9,2.4,4.6,3.2c9.2,4.9,18.9,8.9,28.8,2.6
		c11.7-7.4,14.5-19,13.7-32c-0.7-11.2-8.3-16.4-17.2-20.8c-13.6-6.8-24-16.3-26.5-32.2c-0.4-2.7-0.1-5.4-0.6-8.1
		c-0.2-1.1-1.6-2-2.5-3c-0.9,1-2.2,1.8-2.7,2.9c-0.5,1.1-0.3,2.5-0.3,3.7c0.2,13.5-11.5,27.5-24.5,30.1c-20.4,4-24.7,12.6-30.7,31.8
		c-0.7,2.3,0,5.6,1.1,7.9c5.3,10.8,12.7,19.4,26.1,18.8c5.8-0.3,11.6-1.7,18.2-2.7c-2,3.8-4.2,7.6-6.2,11.7
		c-0.7,1.5-1.7,3.8-1.1,4.9c0.6,1.2,3,2,4.7,2.1c6.7,0.4,13.3,0.6,20,0.4c2.2-0.1,4.4-1.5,6.6-2.3c-0.9-2.3-1.4-5-2.9-7
		C406.9,442,403.5,438.6,400.3,435z M405.6,636.3c1.7-3.4,3.7-7,5.4-10.8c0.8-1.8,2.2-4.1,1.6-5.4c-0.6-1.3-3.3-2.1-5.2-2.2
		c-6.4-0.4-12.9-0.6-19.4-0.4c-2.3,0.1-4.6,1.7-6.9,2.7c1.1,2.3,1.9,4.9,3.4,6.9c2.9,3.8,6.2,7.3,9.6,11.1c-6.5-2.8-11.9-6-17.9-7.5
		c-7.4-1.9-14.8-1.4-20.9,4.7c-16.1,16.1-12.5,40.8,7.8,50.8c16.1,8,27,19.3,26.8,38.6c0,1.3,1.7,2.7,2.7,4.1
		c0.9-1.3,2.3-2.5,2.5-3.9c0.4-3.7-0.9-8.1,0.7-11c5.8-10.5,12.6-19.7,26-22.1c16.3-2.9,26.7-14.9,28.9-31.3c0.3-2,0-4.2-0.6-6.1
		c-3.3-11.6-14.1-20.3-26.2-20.4C418.1,634,412.3,635.4,405.6,636.3z M70.3,192.9c2.5,0.5,4.1,0.8,5.6,1.2c11.6,3,20-0.9,23.8-12.2
		c4.4-13.3,2.5-25.1-11.8-31.2c-12.6-5.4-20.6-14.6-20.6-29.2c0-1.2-1.5-2.5-2.2-3.7c-0.8,1.4-2.1,2.7-2.4,4.2c-0.7,3,0,6.5-1.3,9
		c-4.3,8.2-10.4,14.5-20.3,15.8c-3.2,0.4-6.4,2-9.2,3.7c-13.5,8.1-15.4,26-4.2,36.6c5.6,5.3,12.4,5.3,19.3,4.7
		c1.7-0.2,3.5-0.5,6.8-1.1c-1.7,3.5-2.7,5.8-4,7.9c-2.2,3.7-1.1,5.5,3,5.6c3.3,0.1,6.7,0.1,10,0.2C75.6,204.7,75.6,204.7,70.3,192.9
		z M508.8,617.8c-2.1-0.5-4.1-1-6.2-1.5c-9.6-2.2-16.2,0.7-21,9.2c-7.7,13.8-3.6,27.5,10.6,34.5c11.9,5.9,19.9,14.2,20.4,28.2
		c0,1.6,1.6,3.2,2.5,4.8c0.8-1.7,2.1-3.4,2.2-5.1c0.3-11,7.9-20.9,18.9-23.1c10.4-2.1,17.6-7.3,21.6-17.5
		c5.3-13.4-2.6-27.4-17.1-28.3c-4.6-0.3-9.2,0.5-14.7,0.8c1.5-2.8,2.6-5.1,3.8-7.2c2.5-4.3,1.7-5.9-3.3-6.1c-4-0.2-7.9-0.4-11.9-0.1
		c-2.9,0.2-5.8,1.1-8.6,1.7c1.1,2.5,2.2,5,3.3,7.6C509.3,615.9,509.1,616.4,508.8,617.8z M71.9,77.6c0.3-5.4,0.8-10.6,0.6-15.7
		c-0.1-1.9-1.5-4.3-3.1-5.4c-0.8-0.5-3.2,1.4-5,2.2c-1.9,0.8-4,2.2-5.8,2c-3.7-0.5-7.2-2.5-10.8-2.8c-2.5-0.2-5.1,1.3-7.7,2.1
		c1.5,4.1,2.7,8.3,4.8,12.1c0.3,0.5,4.6-1.3,7-1.7c3.4-0.5,7-1,10.3-0.5c0.7,0.1,1.7,5.2,0.7,7.1c-0.9,1.8-4.4,2-6.5,3.3
		c-1.9,1.2-3.5,2.9-5.2,4.4c2,1.3,4.2,3.7,6.1,3.6c4.2-0.4,5.4,1.2,5.6,4.6c0.1,2.3,0.4,4.6,0.7,6.9c0.4,3.4,0.5,8,5.4,7.3
		c4.3-0.6,3.3-4.4,3-7.6c-0.4-3.3-1.7-7.4-0.3-9.8c1.3-2.2,5.8-2.4,8.6-4.1c1.5-0.9,3.5-3,3.3-4.3c-0.2-1.4-2.5-3-4.2-3.5
		C77.4,77.2,75,77.6,71.9,77.6z M508.8,734.4c0,3,0,5.6,0,8.3c0,3.1-0.6,6.3-0.1,9.3c0.7,4.2,5.1,5.6,7.1,2.1c2.4-4,5.3-3.3,8.6-2.6
		c2.8,0.6,5.5,2.4,8.3,2.5c2.7,0.1,5.5-1.3,8.2-2.1c-1.5-4.1-2.8-8.3-4.9-12.1c-0.3-0.5-4.5,1.4-7,1.8c-3.2,0.5-6.6,1.1-9.8,0.7
		c-0.8-0.1-1.5-3.7-1.6-5.8c-0.2-5.1,4.1-3.9,7-5c2-0.7,3.4-2.9,5-4.4c-1.6-1.3-3.6-3.8-4.9-3.5c-6.4,1.4-6.8-2.5-7-7
		c-0.1-1.9-0.4-3.7-0.6-5.6c-0.4-3.3-1.2-7-5.3-5.9c-1.5,0.4-2.6,4.4-2.8,6.9c-0.3,3.5,1.6,7.7,0.2,10.4c-1.1,2.2-5.9,2.4-8.7,4
		c-1.5,0.9-3.4,3.1-3.2,4.4c0.2,1.4,2.6,3,4.3,3.5C503.8,734.8,506.2,734.4,508.8,734.4z"/>
	<path class="st1" d="M182.6,193c-3.7,0-7.5,0.1-11.2,0c-5-0.2-6.2-2.6-3.6-6.9c0.5-0.9,1.3-1.7,1.7-2.6c0.8-2.2,1.3-4.6,2-6.9
		c-2.1,0-4.2-0.1-6.3,0.1c-9.3,0.9-18.5,1.5-25.8-5.8c-6.3-6.2-12.8-12.9-10-22.8c3.9-13.7,10.1-26.3,26-28.9
		c13.4-2.1,21.6-10.2,27.6-21.1c1.6-2.9,0.7-7.2,1.4-10.7c0.4-2.1,1.9-4,2.9-6c1,1.9,2.7,3.8,2.8,5.7c0.2,15.6,8.3,26.2,20.8,34.1
		c1.6,1,3.4,1.7,5,2.5c20.4,10,25,33.2,10.2,50.7c-5.7,6.8-13.3,7-21.2,6.1c-2.5-0.3-4.8-1.5-7.2-1.9c-1.4-0.2-2.9,0.3-4.4,0.5
		c0.6,1.2,1,2.5,1.8,3.5c0.7,1,2.1,1.6,2.5,2.7c0.7,1.8,1.5,4.1,0.9,5.7c-0.4,1.1-2.9,1.9-4.6,2.1c-3.7,0.3-7.5,0.1-11.2,0.1
		C182.6,193.3,182.6,193.1,182.6,193z"/>
	<path class="st1" d="M398,193c-3.7,0-7.5,0.1-11.2,0c-5-0.2-6.2-2.6-3.6-6.9c0.5-0.9,1.3-1.7,1.7-2.6c0.8-2.2,1.3-4.6,2-6.9
		c-2.1,0-4.2-0.1-6.3,0.1c-9.3,0.9-18.5,1.4-25.8-5.8c-6.3-6.2-12.8-12.9-9.9-22.8c3.9-13.7,10.1-26.3,26-28.9
		c13.4-2.1,21.6-10.2,27.6-21.1c1.6-2.9,0.6-7.2,1.4-10.7c0.4-2.1,1.9-4,2.9-6c1,1.9,2.7,3.8,2.7,5.7c0.2,15.6,8.3,26.2,20.8,34.1
		c1.6,1,3.4,1.7,5,2.5c20.4,10,25,33.2,10.1,50.7c-5.7,6.7-13.3,7-21.2,6.1c-2.5-0.3-4.8-1.5-7.2-1.9c-1.4-0.2-2.9,0.3-4.4,0.5
		c0.6,1.2,1.1,2.5,1.8,3.5c0.7,1,2.1,1.6,2.5,2.7c0.7,1.8,1.4,4.1,0.9,5.7c-0.4,1.1-2.9,1.9-4.6,2.1c-3.7,0.3-7.5,0.1-11.2,0.1
		C398,193.3,398,193.1,398,193z"/>
	<path class="st1" d="M290.4,323.3c-3.7,0-7.5,0.1-11.2,0c-5-0.2-6.2-2.6-3.7-6.8c0.4-0.7,1.1-1.3,1.4-2.1c0.9-2.4,1.6-4.9,2.3-7.4
		c-2.3,0-4.6-0.1-6.9,0.1c-9,0.8-18.1,1.3-25.2-5.8c-6.4-6.4-12.9-13.1-9.8-23.4c4.1-13.8,10.6-25.8,26.4-28.5
		c10.4-1.8,18-6.9,23.7-15.6c3.1-4.6,6.2-8.8,4.7-14.8c-0.3-1-0.4-2.3,0-3.1c0.9-1.5,2.3-2.8,3.5-4.2c0.8,1.5,2.3,3,2.2,4.4
		c-0.4,14.2,6.1,24.8,17.1,33c3.1,2.3,6.8,3.9,10.4,5.7c15.4,7.8,20.9,20.9,15.5,37.4c-5.4,16.6-16.8,22.4-33.6,17.4
		c-1.9-0.6-4.1-0.1-6.2-0.1c1,1.6,2.3,3.1,3.1,4.8c1,2.3,2.2,4.8,2.1,7.2c0,0.8-3.7,1.9-5.7,2.1c-3.3,0.4-6.6,0.1-10,0.1
		C290.4,323.6,290.4,323.5,290.4,323.3z"/>
	<path class="st1" d="M182.2,454.9c-3.5,0-7.1,0.1-10.6,0c-5.1-0.2-6.3-2.5-3.8-6.7c0.3-0.5,0.9-1,1.1-1.5c1-2.6,1.8-5.3,2.7-7.9
		c-2.5,0-5-0.1-7.4,0.1c-9.1,0.8-18,1-25-6.2c-6.1-6.4-12.4-12.9-9.5-22.9c4.1-13.8,10.5-25.9,26.3-28.6c10.7-1.8,18.3-7.2,24.1-16
		c2.9-4.4,5.9-8.6,4.3-14.3c-0.3-1-0.4-2.3,0-3.1c0.9-1.6,2.3-2.9,3.4-4.3c0.8,1.4,2.4,2.9,2.3,4.3c-0.4,14,5.8,24.5,16.5,32.7
		c3.3,2.5,7.1,4.3,10.8,6.1c15.5,7.8,21,20.8,15.7,37.4c-5.4,16.6-16.8,22.5-33.6,17.4c-1.2-0.4-2.4-1-3.6-1.1
		c-0.9-0.1-2.2,0.3-2.6,1c-0.3,0.6,0.1,2,0.6,2.7c1.3,1.6,3.1,2.8,4.2,4.6c2.2,3.6,0.7,6.6-3.6,6.9c-4.1,0.2-8.3,0.1-12.5,0.1
		C182.2,455.1,182.2,455,182.2,454.9z"/>
	<path class="st1" d="M189.9,636.6c6.6-1,12.4-2.4,18.3-2.6c13.4-0.5,20.8,8,26,18.9c1,2.1,1.4,4.9,1.1,7.3
		c-1.6,15.7-12.4,28.8-28,31.5c-13.7,2.3-20.6,11.6-26.7,22.1c-1.5,2.5-0.2,6.5-0.8,9.7c-0.3,2-1.7,3.8-2.6,5.6
		c-1-1.8-2.7-3.5-2.7-5.3c-0.4-16.9-9.2-28-23.4-35.7c-4.2-2.3-8.5-4.4-12.4-7.1c-15-10.4-10.1-45.3,8.8-49.8c9-2.2,18-0.8,25.9,4.6
		c1.4,0.9,2.7,2,5,2.2c-3.1-3.6-6.4-7.1-9.2-10.8c-1.5-2-2.3-4.6-3.4-6.9c2.3-0.9,4.6-2.6,6.9-2.7c6.7-0.2,13.3,0,20,0.4
		c1.6,0.1,4,1,4.6,2.2c0.6,1.2-0.5,3.3-1.3,4.9C193.9,629,191.8,632.9,189.9,636.6z"/>
	<path class="st1" d="M400.1,434.8c3.3,3.7,6.7,7.1,9.7,11c1.5,1.9,2,4.6,2.9,7c-2.2,0.8-4.4,2.2-6.6,2.3c-6.7,0.2-13.3,0-20-0.4
		c-1.7-0.1-4-0.9-4.7-2.1c-0.6-1.1,0.4-3.4,1.1-4.9c2-4,4.2-7.9,6.2-11.7c-6.6,1-12.4,2.4-18.2,2.7c-13.5,0.6-20.8-8-26.1-18.8
		c-1.1-2.3-1.8-5.5-1.1-7.9c6-19.2,10.4-27.8,30.7-31.8c13-2.6,24.7-16.6,24.5-30.1c0-1.2-0.2-2.6,0.3-3.7c0.5-1.1,1.8-1.9,2.7-2.9
		c0.9,1,2.2,1.9,2.5,3c0.5,2.6,0.2,5.4,0.6,8.1c2.5,16,12.9,25.5,26.5,32.2c8.9,4.4,16.5,9.6,17.2,20.8c0.8,13-2,24.6-13.7,32
		c-10,6.3-19.6,2.3-28.8-2.6c-1.6-0.9-3.1-2.1-4.6-3.2C400.9,434.2,400.5,434.5,400.1,434.8z"/>
	<path class="st1" d="M405.6,636.3c6.8-0.9,12.6-2.4,18.4-2.3c12.1,0.1,22.9,8.8,26.2,20.4c0.6,2,0.8,4.2,0.6,6.1
		c-2.2,16.5-12.6,28.4-28.9,31.3c-13.4,2.4-20.3,11.6-26,22.1c-1.6,2.9-0.2,7.3-0.7,11c-0.2,1.4-1.6,2.6-2.5,3.9
		c-0.9-1.4-2.7-2.7-2.7-4.1c0.2-19.3-10.7-30.6-26.8-38.6c-20.3-10.1-23.9-34.8-7.8-50.8c6.1-6.1,13.5-6.6,20.9-4.7
		c5.9,1.5,11.4,4.7,17.9,7.5c-3.3-3.8-6.7-7.3-9.6-11.1c-1.5-2-2.3-4.6-3.4-6.9c2.3-0.9,4.6-2.6,6.9-2.7c6.4-0.3,12.9,0,19.4,0.4
		c1.8,0.1,4.6,0.9,5.2,2.2c0.6,1.3-0.7,3.7-1.6,5.4C409.2,629.3,407.3,633,405.6,636.3z"/>
	<path class="st1" d="M70.3,192.9c5.3,11.8,5.3,11.8-7.6,11.5c-3.3-0.1-6.7-0.1-10-0.2c-4.1-0.2-5.2-2-3-5.6c1.3-2.1,2.3-4.5,4-7.9
		c-3.4,0.5-5.1,0.9-6.8,1.1c-7,0.6-13.7,0.6-19.3-4.7c-11.2-10.7-9.3-28.5,4.2-36.6c2.8-1.7,6-3.3,9.2-3.7c10-1.3,16-7.6,20.3-15.8
		c1.3-2.5,0.6-6,1.3-9c0.3-1.5,1.6-2.8,2.4-4.2c0.8,1.2,2.2,2.5,2.2,3.7c0,14.7,8,23.8,20.6,29.2c14.3,6.1,16.2,17.9,11.8,31.2
		c-3.7,11.2-12.2,15.1-23.8,12.2C74.4,193.7,72.8,193.4,70.3,192.9z"/>
	<path class="st1" d="M508.8,617.8c0.3-1.4,0.5-1.9,0.4-2.2c-1.1-2.5-2.2-5-3.3-7.6c2.9-0.6,5.7-1.5,8.6-1.7c3.9-0.2,7.9,0,11.9,0.1
		c5.1,0.2,5.8,1.8,3.3,6.1c-1.2,2.1-2.3,4.3-3.8,7.2c5.5-0.3,10.1-1.1,14.7-0.8c14.5,0.9,22.5,14.9,17.1,28.3
		c-4.1,10.3-11.2,15.4-21.6,17.5c-11,2.2-18.6,12.1-18.9,23.1c-0.1,1.7-1.4,3.4-2.2,5.1c-0.9-1.6-2.4-3.2-2.5-4.8
		c-0.4-14.1-8.5-22.4-20.4-28.2c-14.2-7-18.3-20.7-10.6-34.5c4.8-8.6,11.4-11.5,21-9.2C504.7,616.8,506.7,617.3,508.8,617.8z"/>
	<path class="st1" d="M71.9,77.6c3,0,5.4-0.5,7.5,0.1c1.7,0.5,4,2.2,4.2,3.5c0.2,1.3-1.8,3.4-3.3,4.3c-2.8,1.6-7.3,1.8-8.6,4.1
		c-1.4,2.4-0.1,6.5,0.3,9.8c0.4,3.2,1.3,7-3,7.6c-4.6,0.7-4.9-3.4-5.3-6.8C63.4,98,63,95.7,63,93.4c-0.1-3.8-1.2-5.6-5.6-5.1
		c-1.9,0.2-4-2.3-6.1-3.6c1.7-1.5,3.3-3.2,5.2-4.4c2.1-1.3,5.5-1.6,6.5-3.3c1-1.8,0-7-0.7-7.1c-3.3-0.5-6.9,0-10.3,0.5
		c-2.5,0.4-6.7,2.2-7,1.7c-2-3.8-3.3-8-4.8-12.1c2.6-0.8,5.2-2.3,7.7-2.1c3.7,0.3,7.1,2.3,10.8,2.8c1.8,0.2,3.9-1.2,5.8-2
		c1.7-0.7,4.2-2.7,5-2.2c1.6,1.1,3,3.5,3.1,5.4C72.7,67.1,72.2,72.2,71.9,77.6z"/>
	<path class="st1" d="M508.8,734.4c-2.6,0-5,0.5-7-0.1c-1.7-0.5-4-2.1-4.3-3.5c-0.2-1.3,1.7-3.5,3.2-4.4c2.8-1.6,7.5-1.8,8.7-4
		c1.4-2.7-0.5-6.9-0.2-10.4c0.2-2.5,1.3-6.5,2.8-6.9c4.1-1.1,4.9,2.6,5.3,5.9c0.2,1.9,0.5,3.7,0.6,5.6c0.2,4.5,0.6,8.4,7,7
		c1.3-0.3,3.2,2.3,4.9,3.5c-1.7,1.5-3.1,3.7-5,4.4c-2.9,1.1-7.2-0.1-7,5c0.1,2,0.8,5.7,1.6,5.8c3.2,0.4,6.6-0.2,9.8-0.7
		c2.5-0.4,6.7-2.3,7-1.8c2.1,3.8,3.4,8,4.9,12.1c-2.8,0.7-5.5,2.2-8.2,2.1c-2.8-0.1-5.5-1.8-8.3-2.5c-3.2-0.7-6.2-1.4-8.6,2.6
		c-2.1,3.4-6.5,2.1-7.1-2.1c-0.5-3,0-6.2,0.1-9.3C508.8,740,508.8,737.3,508.8,734.4z"/>
</g>
</svg>
