<?xml version="1.0" encoding="utf-8"?>
<!-- Generator: Adobe Illustrator 24.0.0, SVG Export Plug-In . SVG Version: 6.00 Build 0)  -->
<svg version="1.0" id="Layer_1" xmlns="http://www.w3.org/2000/svg" xmlns:xlink="http://www.w3.org/1999/xlink" x="0px" y="0px"
	 viewBox="0 0 578.6 809.5" style="enable-background:new 0 0 578.6 809.5;" xml:space="preserve">
<style type="text/css">
	.st0{fill:#FEFEFE;}
	.st1{fill:#FE2020;}
</style>
<g>
	<path class="st0" d="M539.6,810H39c-21.5,0-39-17.5-39-39V39C0,17.5,17.5,0,39,0h500.6c21.5,0,39,17.5,39,39v732
		C578.6,792.5,561.1,810,539.6,810z M155.8,467.6c0.2,2.3,0.2,4.6,0.7,6.8c0.8,3.1,5.3,4.7,7.3,2.4c1.5-1.8,2.4-4.4,2.8-6.7
		c0.8-4.4,0.4-9.2,1.7-13.4c2.4-8,5.8-15.6,11.6-21.8c6.7-7.1,13.7-14,20.7-20.8c2.6-2.5,3.4-6.3,1.1-8.4c-1.9-1.7-3.7-3.6-5.8-5.1
		c-8.7-6.2-13.6-15.1-16.3-24.9c-2.9-10.4-4.5-21.2-6.6-31.9c-0.8-4.1-4.6-6.6-8-4.5c-1.8,1.1-3.1,3.7-3.9,5.8
		c-3.8,10.7-7,21.6-11,32.2c-4.2,11-11.3,20.2-20,28.1c-2.8,2.5-3.9,6.8-2.1,9.2c5,6.6,10.3,12.9,15.1,19.7
		C150.1,444.4,155.3,455.1,155.8,467.6z M164.1,59.3c-1,1.1-2.7,2.4-3.6,4.1c-1.1,2.1-1.4,4.6-2.3,6.9c-4.2,11.4-8,23-12.9,34.1
		c-3.7,8.5-10,15.5-16.7,21.9c-3.5,3.2-4,6.2-1.7,9.1c4.6,6,9.8,11.6,13.7,18c4.4,7.1,8.2,14.8,11.1,22.6c2.1,5.5,2,11.9,2.8,17.8
		c0.3,2.1,2,3.7,4.1,3.8c3,0.1,4.3-2.4,4.6-5.2c0.1-0.5,0-1,0.1-1.5c0.6-4.4,0.7-9,1.9-13.2c5.1-17.9,17.5-30.8,30.9-42.7
		c5.2-4.6,6.1-5.7,0.6-9.8c-12.7-9.8-19.5-22.9-22.6-38.1c-1.5-7.5-2.7-15.1-3.8-22.7C169.9,60.9,167.9,59.9,164.1,59.3z
		 M372.1,410.9c0.6,1.4,0.9,2.6,1.6,3.5c4.3,5.7,8.9,11.2,13.1,17c8.5,11.9,14.2,24.9,14.6,39.8c0.1,2.9,0.9,5.5,4,5.5
		c3.3,0,4.4-2.7,4.3-5.7c-0.3-10.2,2.8-19.6,7.9-28.1c7-11.6,15.9-21.7,26.7-29.9c3.1-2.3,3.2-3.8,0.5-6.5c-1.7-1.7-3.4-3.5-5.4-5
		c-7.5-5.4-11.6-13.2-15.1-21.4c-4.7-11.1-6-23-7.5-34.9c-0.4-3.1-1.3-5.2-4.6-5.5c-3.2-0.3-4.6,1.8-5.4,4.5
		c-1.2,3.9-2.2,7.9-3.3,11.9c-5.6,18.9-13.3,36.6-28.3,50.3C374,407.5,373.2,409.3,372.1,410.9z M411.5,61.4c-0.9,1-2.6,2.4-3.5,4.1
		c-1,1.9-1.3,4.2-1.9,6.3c-4.7,17.1-10.3,33.9-22,47.8c-2.6,3.1-5.6,6-8.4,8.9c-3.2,3.3-3.2,5.4-0.3,8.9c1.7,2.1,3.5,4.1,5.2,6.3
		c7.9,10.2,15.4,20.7,18.8,33.3c1.5,5.5,1.7,11.4,3,17c0.4,1.8,2.3,3.2,3.6,4.7c1.5-1.5,3-2.9,4.4-4.6c0.4-0.5,0-1.5,0.1-2.3
		c0.8-5.2,1.2-10.5,2.7-15.5c5.1-16.3,16.8-28,28.7-39.3c6.9-6.5,7.1-6.3-0.6-12.6c-8.2-6.6-14.2-15-16.8-25.2
		c-2.8-10.9-4.9-22-6.9-33C417,63.2,415.5,61.9,411.5,61.4z M167.4,618.2c0.1,0,0.1,0,0.2,0c-0.2,1.9-0.5,3.8-0.7,5.7
		c-1.8,12.6-7.8,23.3-16.1,32.7c-5.7,6.4-12.1,12.1-18.4,17.9c-2.6,2.4-2.4,4.3-0.1,6.4c3.1,2.9,6.6,5.4,9.5,8.4
		c8.6,9,12.7,20.4,15.2,32.3c1.5,7,2.3,14.2,3.3,21.3c0.3,2.5,1.5,4,3.9,4.6c2.6,0.6,4.2-0.8,5.2-2.9c0.6-1.3,1-2.6,1.4-4
		c5.9-22.6,13.6-44.2,31.7-60.4c2.3-2.1,2.7-4.9,0.5-7.6c-4.4-5.7-9-11.2-13.1-17c-8.1-11.5-13.7-24.1-14.3-38.4
		c-0.1-2.9,0-6-3.8-6.5c-2.6-0.4-4.4,2.6-4.4,6.9C167.4,617.7,167.4,617.9,167.4,618.2z M414.8,619.7c0.1,0,0.1,0,0.2,0
		c-0.2,1.9-0.4,3.8-0.7,5.7c-3.2,20.8-16.6,35.3-31.4,48.2c-6.9,6-5.2,7-0.4,11.2c1,0.9,2,1.8,3.1,2.6c7.3,5.6,11.5,13.3,14.8,21.6
		c4.5,11.2,5.9,23.1,7.4,34.9c0.4,2.9,1.5,4.6,4.3,5c2.8,0.4,4.3-1.4,5.1-3.7c1-2.8,1.7-5.7,2.5-8.5c5.7-20.7,13.5-40.1,30-54.9
		c2.4-2.2,3-5,0.8-7.9c-4.4-5.7-9-11.2-13.1-17.1c-8.1-11.5-13.7-24.1-14.3-38.4c-0.1-2.9-0.1-6-3.8-6.5c-2.6-0.4-4.4,2.6-4.4,6.9
		C414.8,619.2,414.8,619.5,414.8,619.7z M246.3,235.7c0.7,1.4,1.3,2.8,2.2,3.9c4.3,5.7,9,11.2,13,17.1c7.6,11,12.8,23.1,12.9,36.8
		c0,2.8,1.2,5.2,4,5.1c3,0,4-2.8,4-5.7c0-1.6,0-3.2,0.2-4.7c1.2-12.7,6.8-23.5,15-32.8c5.2-6,10.7-11.8,16.6-17.1
		c4.6-4.1,5.1-4.9,0.1-8.8c-8.1-6.3-14.1-14-17.8-23.6c-4.2-10.9-5.9-22.3-7.1-33.7c-0.3-2.9-1.3-4.7-4.2-5.1c-3-0.4-4.4,1.6-5.3,4
		c-0.7,1.8-1.1,3.7-1.6,5.5c-5.4,20.8-13.2,40.2-29.4,55.2C247.9,232.9,247.3,234.2,246.3,235.7z M287.2,651.3
		c0.7-0.6,2.3-1.4,2.8-2.6c1.1-2.4,1.8-5.1,2.5-7.6c4.6-16,9.6-31.7,20.6-44.7c2.8-3.3,5.8-6.5,8.7-9.7c2.3-2.5,3-4.9,0.6-7.8
		c-4.3-5.3-8.7-10.5-12.5-16c-7.8-11.2-13.4-23.3-13.6-37.4c0-2.8-0.8-5.7-3.9-5.6c-3.3,0-3.9,3-4.1,5.9c-0.1,2.8-0.2,5.7-0.7,8.4
		c-3.7,19.9-17.1,33.4-31.4,46.2c-4.1,3.6-4.5,4.4-0.2,8.1c2.8,2.4,5.7,4.8,8.2,7.5c8.3,9,12.1,20.1,14.5,31.8
		c1.3,6.1,2,12.4,2.7,18.6C281.9,649.4,283.6,650.8,287.2,651.3z M550.8,633.4c-0.6-1.2-1-2.4-1.7-3.4c-3.3-4.4-6.8-8.6-10-13.1
		c-5.6-7.9-9-16.7-9.5-26.5c-0.1-2.4-0.8-4.9-3.4-4.5c-1.3,0.2-3.1,2.8-3.2,4.4c-0.7,17.7-11.4,29.4-23.6,40.3c-4,3.6-4.4,5-0.1,8.3
		c6.8,5.2,11.5,11.8,13.7,20c1.9,7.3,2.9,14.8,4.7,22.2c0.4,1.6,2.1,3.6,3.6,4c1.1,0.3,3.2-1.5,4.1-2.9c1-1.5,1.2-3.6,1.7-5.5
		c3.9-14.9,9.8-28.6,21.2-39.5C549.4,636.1,549.9,634.7,550.8,633.4z M27,175.7c0.6,1.2,1,2.4,1.7,3.4c3.3,4.4,6.8,8.6,10,13.1
		c5.6,8,9,16.9,9.6,26.8c0.1,1.6,2.1,3,3.2,4.5c1.1-1.5,3.2-3,3.3-4.5c0.7-18,11.6-29.8,24.1-40.7c3.4-3,3.8-4.6,0-7.5
		c-7.2-5.5-12.2-12.5-14.4-21.2c-1.8-7-2.7-14.3-4.4-21.4c-0.4-1.6-2.2-3.5-3.7-3.9c-1.1-0.2-3.1,1.6-4,3c-1,1.5-1.2,3.6-1.7,5.5
		c-3.9,14.9-9.8,28.6-21.2,39.4C28.4,173,27.9,174.4,27,175.7z M522.7,704c-11.4-0.2-18.6,9.8-14.1,20.1c1.8,4.1,5.1,7.6,8,11.1
		c1.6,1.9,2,3,0.3,5.1c-2,2.4-3.7,5.3-4.7,8.3c-0.6,1.7-0.1,4.5,1,6c6.3,8.6,11.5,9.4,20.6,4c0.9-0.5,1.8-1,2.6-1.6
		c2.8-2.3,3.4-5.4,1.7-8.6c-0.7-1.3-1.7-2.6-2.6-3.8c-1.5-2-4.4-4.2-4.2-6c0.3-2.2,3.1-4.1,4.9-6.1c8.6-9.6,5.1-24-6.6-27.3
		C527.3,704.6,524.9,704.4,522.7,704z M60.8,71.6c2.2-3.5,4.2-6.4,5.9-9.5c1.8-3.3,1.2-6.2-1.6-9c-8.2-8.2-9.8-8.4-19.7-2.5
		c-0.7,0.4-1.3,0.8-2,1.2c-3.3,2.4-4.1,5.6-2,9.1c1.5,2.4,3.1,4.7,5.1,6.7c2.1,2.1,2,3.4,0,5.6c-2.7,3.1-5.5,6.5-7.1,10.3
		c-2.8,6.9-0.4,14.3,5,17.8c7.2,4.8,17.4,4.8,22.7,0.1c1.1-1,2.1-2.2,2.9-3.6c3.6-6.3,2.3-13.4-3.6-20.1
		C64.7,75.7,62.7,73.7,60.8,71.6z"/>
	<path class="st1" d="M155.8,467.6c-0.4-12.5-5.6-23.2-12.6-33.1c-4.7-6.8-10-13.2-15.1-19.7c-1.9-2.4-0.8-6.7,2.1-9.2
		c8.7-7.9,15.8-17.1,20-28.1c4.1-10.6,7.3-21.5,11-32.2c0.8-2.2,2.1-4.7,3.9-5.8c3.5-2.2,7.3,0.3,8,4.5c2,10.7,3.6,21.5,6.6,31.9
		c2.8,9.8,7.6,18.7,16.3,24.9c2.1,1.5,3.9,3.3,5.8,5.1c2.3,2.2,1.5,5.9-1.1,8.4c-7,6.8-14,13.7-20.7,20.8
		c-5.8,6.2-9.2,13.8-11.6,21.8c-1.3,4.3-0.9,9-1.7,13.4c-0.4,2.4-1.3,5-2.8,6.7c-2,2.3-6.5,0.6-7.3-2.4
		C155.9,472.2,156,469.9,155.8,467.6z"/>
	<path class="st1" d="M164.1,59.3c3.8,0.6,5.8,1.6,6.2,4.9c1.1,7.6,2.2,15.2,3.8,22.7c3.1,15.3,9.9,28.4,22.6,38.1
		c5.5,4.2,4.6,5.2-0.6,9.8c-13.4,11.9-25.8,24.8-30.9,42.7c-1.2,4.3-1.3,8.8-1.9,13.2c-0.1,0.5,0,1-0.1,1.5
		c-0.3,2.8-1.6,5.3-4.5,5.3c-2.9-0.1-4.1-2.5-4.4-5.4c-0.7-5.5-0.7-11.2-2.6-16.2c-3-7.8-6.8-15.5-11.1-22.6
		c-3.9-6.4-9.1-12-13.7-18c-2.2-2.9-1.7-5.9,1.7-9.1c6.8-6.4,13-13.4,16.7-21.9c4.9-11.1,8.7-22.7,12.9-34.1
		c0.8-2.3,1.2-4.8,2.3-6.9C161.4,61.6,163.1,60.3,164.1,59.3z"/>
	<path class="st1" d="M372.1,410.9c1.1-1.6,1.9-3.4,3.2-4.6c15-13.7,22.7-31.3,28.3-50.3c1.2-3.9,2.2-7.9,3.3-11.9
		c0.8-2.6,2.2-4.7,5.4-4.5c3.3,0.3,4.2,2.3,4.6,5.5c1.5,11.8,2.8,23.7,7.5,34.9c3.4,8.2,7.6,16,15.1,21.4c2,1.4,3.7,3.2,5.4,5
		c2.7,2.8,2.6,4.2-0.5,6.5c-10.8,8.3-19.7,18.3-26.7,29.9c-5.2,8.5-8.2,17.9-7.9,28.1c0.1,3-1,5.7-4.3,5.7c-3.1,0-3.9-2.7-4-5.5
		c-0.4-14.9-6.1-27.9-14.6-39.8c-4.2-5.8-8.8-11.3-13.1-17C373,413.5,372.7,412.3,372.1,410.9z"/>
	<path class="st1" d="M411.5,61.4c4,0.6,5.5,1.8,6.1,5c2,11.1,4.1,22.1,6.9,33c2.6,10.2,8.6,18.5,16.8,25.2
		c7.7,6.2,7.5,6.1,0.6,12.6c-12,11.3-23.7,23-28.7,39.3c-1.5,5-1.9,10.3-2.7,15.5c-0.1,0.8,0.3,1.8-0.1,2.3
		c-1.3,1.6-2.9,3.1-4.4,4.6c-1.2-1.6-3.2-3-3.6-4.7c-1.3-5.6-1.5-11.5-3-17c-3.4-12.3-10.7-22.6-18.4-32.6c-1.9-2.4-3.9-4.8-5.8-7.2
		c-2.7-3.4-2.6-5.5,0.5-8.7c2.8-3,5.8-5.8,8.4-8.9c11.7-13.9,17.3-30.7,22-47.8c0.6-2.1,0.9-4.4,1.9-6.3
		C408.9,63.7,410.6,62.4,411.5,61.4z"/>
	<path class="st1" d="M167.4,618.2c0-0.3,0-0.5,0-0.8c0-4.3,1.8-7.3,4.4-6.9c3.8,0.6,3.7,3.6,3.8,6.5c0.6,14.3,6.2,26.9,14.3,38.4
		c4.1,5.9,8.7,11.4,13.1,17c2.1,2.7,1.8,5.6-0.5,7.6c-18.1,16.2-25.8,37.8-31.7,60.4c-0.4,1.4-0.8,2.7-1.4,4c-1,2.2-2.6,3.5-5.2,2.9
		c-2.4-0.5-3.6-2-3.9-4.6c-1-7.1-1.8-14.3-3.3-21.3c-2.6-11.9-6.6-23.2-15.2-32.3c-2.9-3-6.4-5.6-9.5-8.4c-2.3-2.1-2.5-4,0.1-6.4
		c6.3-5.8,12.8-11.5,18.4-17.9c8.2-9.3,14.2-20,16.1-32.7c0.3-1.9,0.5-3.8,0.7-5.7C167.5,618.2,167.5,618.2,167.4,618.2z"/>
	<path class="st1" d="M414.8,619.7c0-0.3,0-0.5,0-0.8c0-4.3,1.8-7.3,4.4-6.9c3.8,0.5,3.7,3.6,3.8,6.5c0.6,14.3,6.2,26.9,14.3,38.4
		c4.1,5.9,8.7,11.4,13.1,17.1c2.3,2.9,1.6,5.7-0.8,7.9c-16.5,14.8-24.3,34.2-30,54.9c-0.8,2.8-1.5,5.7-2.5,8.5
		c-0.8,2.3-2.3,4.1-5.1,3.7c-2.8-0.4-4-2.1-4.3-5c-1.5-11.8-2.8-23.7-7.4-34.9c-3.3-8.1-7.4-15.8-14.5-21.3c-1-0.8-2-1.6-3-2.5
		c-5.1-4.6-7.1-5.4,0-11.6c14.8-12.9,28.3-27.4,31.4-48.2c0.3-1.9,0.5-3.8,0.7-5.7C414.9,619.8,414.9,619.7,414.8,619.7z"/>
	<path class="st1" d="M246.3,235.7c1-1.5,1.5-2.9,2.5-3.8c16.2-15,24.1-34.4,29.4-55.2c0.5-1.9,1-3.7,1.6-5.5c0.9-2.4,2.3-4.4,5.3-4
		c2.9,0.4,3.9,2.2,4.2,5.1c1.2,11.5,2.9,22.9,7.1,33.7c3.7,9.6,9.8,17.3,17.8,23.6c5,3.9,4.5,4.6-0.1,8.8
		c-5.9,5.3-11.4,11.1-16.6,17.1c-7.5,8.6-12.9,18.5-14.6,30c-0.4,2.6-0.4,5.4-0.5,8c-0.1,2.7-1.2,5.2-4,5.2c-2.9,0-4-2.4-4-5.1
		c-0.2-13.7-5.3-25.7-12.9-36.8c-4.1-5.9-8.7-11.4-13-17.1C247.6,238.5,247.1,237.1,246.3,235.7z"/>
	<path class="st1" d="M287.2,651.3c-3.7-0.5-5.3-1.8-5.7-5c-0.8-6.2-1.5-12.5-2.7-18.6c-2.4-11.7-6.2-22.8-14.5-31.8
		c-2.5-2.7-5.4-5.1-8.2-7.5c-4.3-3.7-3.9-4.5,0.2-8.1c14.3-12.8,27.7-26.2,31.4-46.2c0.5-2.8,0.6-5.6,0.7-8.4
		c0.1-2.9,0.8-5.9,4.1-5.9c3.2,0,3.9,2.9,3.9,5.6c0.3,14,5.8,26.1,13.6,37.4c3.9,5.6,8.2,10.8,12.5,16c2.4,2.9,1.7,5.3-0.6,7.8
		c-3,3.2-5.9,6.4-8.7,9.7c-11,13-16,28.8-20.6,44.7c-0.7,2.6-1.4,5.2-2.5,7.6C289.5,649.9,288,650.6,287.2,651.3z"/>
	<path class="st1" d="M550.8,633.4c-0.9,1.4-1.4,2.7-2.4,3.7c-11.4,10.8-17.3,24.6-21.2,39.5c-0.5,1.9-0.7,3.9-1.7,5.5
		c-0.9,1.4-3,3.2-4.1,2.9c-1.5-0.4-3.2-2.4-3.6-4c-1.8-7.3-2.7-14.9-4.7-22.2c-2.2-8.2-6.9-14.8-13.7-20c-4.3-3.3-3.9-4.7,0.1-8.3
		c12.1-10.9,22.9-22.6,23.6-40.3c0.1-1.6,1.9-4.2,3.2-4.4c2.6-0.4,3.3,2.1,3.4,4.5c0.4,9.8,3.9,18.5,9.5,26.5
		c3.2,4.5,6.7,8.7,10,13.1C549.8,630.9,550.2,632.1,550.8,633.4z"/>
	<path class="st1" d="M27,175.7c0.9-1.4,1.4-2.7,2.4-3.7c11.4-10.8,17.3-24.6,21.2-39.4c0.5-1.9,0.7-3.9,1.7-5.5
		c0.9-1.4,2.9-3.2,4-3c1.5,0.3,3.3,2.3,3.7,3.9c1.7,7.1,2.6,14.4,4.4,21.4c2.2,8.7,7.2,15.7,14.4,21.2c3.8,2.9,3.4,4.5,0,7.5
		c-12.5,10.9-23.4,22.8-24.1,40.7c-0.1,1.6-2.1,3-3.3,4.5c-1.1-1.5-3.1-2.9-3.2-4.5c-0.7-9.9-4-18.8-9.6-26.8
		c-3.2-4.5-6.7-8.7-10-13.1C28,178.2,27.6,176.9,27,175.7z"/>
	<path class="st1" d="M522.7,704c2.3,0.4,4.6,0.6,6.8,1.2c11.8,3.3,15.2,17.7,6.6,27.3c-1.8,2-4.6,3.9-4.9,6.1c-0.2,1.8,2.7,4,4.2,6
		c0.9,1.2,1.9,2.5,2.6,3.8c1.8,3.2,1.2,6.3-1.7,8.6c-0.8,0.6-1.7,1.1-2.6,1.6c-9.1,5.4-14.3,4.5-20.6-4c-1.1-1.5-1.5-4.2-1-6
		c1-3,2.7-5.8,4.7-8.3c1.8-2.1,1.3-3.3-0.3-5.1c-2.9-3.5-6.2-7-8-11.1C504.1,713.8,511.3,703.8,522.7,704z M523.8,733.3
		c0.6,0,1.2,0,1.8,0c1.7-1.9,3.4-3.8,5-5.8c3-3.7,3.5-9.1,1.3-12.2c-2.1-2.9-8.5-4.6-12.3-3.3c-4,1.4-6.1,4.9-4.1,8.8
		C517.7,725.2,521,729.1,523.8,733.3z M530.7,752.1c0.1-0.5,0.3-0.9,0.4-1.4c-1.9-2-3.7-4.2-5.7-6.1c-0.4-0.4-2-0.4-2.3,0
		c-1.3,1.9-2.4,4-3.6,6c1.9,0.8,3.8,1.9,5.8,2.2C527,753.1,528.9,752.4,530.7,752.1z"/>
	<path class="st1" d="M60.8,71.6c1.9,2.1,3.9,4.1,5.8,6.2c5.9,6.7,7.2,13.8,3.6,20.1c-0.7,1.3-1.8,2.6-2.9,3.6
		c-5.3,4.8-15.5,4.7-22.7-0.1c-5.3-3.5-7.8-10.9-5-17.8c1.6-3.8,4.3-7.2,7.1-10.3c2-2.3,2.1-3.5,0-5.6c-2-2-3.7-4.3-5.1-6.7
		c-2.1-3.4-1.3-6.7,2-9.1c0.6-0.5,1.3-0.8,2-1.2c9.9-6,11.5-5.7,19.7,2.5c2.8,2.8,3.4,5.7,1.6,9C65,65.2,63,68.1,60.8,71.6z
		 M54.8,74.8c-2.8,3.2-4.6,5.1-6.3,7.2c-2.9,3.7-3.2,8.8-1,11.9c2.1,2.9,8.6,4.5,12.4,3.1c3.8-1.4,5.9-4.9,4-8.6
		C61.6,84,58.4,80,54.8,74.8z M55.3,65.9c1.7-2.3,3.1-3.9,4.1-5.7c0.3-0.6-0.1-2.2-0.7-2.7c-2.4-2.1-7.6-1.6-10.4,0.9
		C50.4,60.6,52.5,62.9,55.3,65.9z"/>
	<path class="st0" d="M523.8,733.3c-2.8-4.1-6.1-8-8.4-12.5c-2-3.8,0.1-7.4,4.1-8.8c3.8-1.3,10.3,0.4,12.3,3.3
		c2.2,3.1,1.7,8.5-1.3,12.2c-1.6,2-3.3,3.9-5,5.8C525,733.3,524.4,733.3,523.8,733.3z"/>
	<path class="st0" d="M530.7,752.1c-1.8,0.3-3.6,0.9-5.3,0.7c-2-0.3-3.9-1.4-5.8-2.2c1.2-2,2.3-4.1,3.6-6c0.3-0.4,1.8-0.4,2.3,0
		c2,1.9,3.8,4,5.7,6.1C530.9,751.2,530.8,751.7,530.7,752.1z"/>
	<path class="st0" d="M54.8,74.8c3.6,5.3,6.8,9.2,9.1,13.7c1.9,3.6-0.1,7.1-4,8.6c-3.7,1.4-10.3-0.2-12.4-3.1
		c-2.2-3.1-1.9-8.2,1-11.9C50.1,79.8,52,77.9,54.8,74.8z"/>
	<path class="st0" d="M55.3,65.9c-2.7-2.9-4.8-5.2-7-7.5c2.8-2.6,8-3,10.4-0.9c0.6,0.5,1.1,2.1,0.7,2.7C58.4,62,56.9,63.6,55.3,65.9
		z"/>
</g>
</svg>
