<?xml version="1.0" encoding="utf-8"?>
<!-- Generator: Adobe Illustrator 24.0.0, SVG Export Plug-In . SVG Version: 6.00 Build 0)  -->
<svg version="1.0" id="Layer_1" xmlns="http://www.w3.org/2000/svg" xmlns:xlink="http://www.w3.org/1999/xlink" x="0px" y="0px"
	 viewBox="0 0 578.6 809.5" style="enable-background:new 0 0 578.6 809.5;" xml:space="preserve">
<style type="text/css">
	.st0{fill:#FDFDFD;}
	.st1{fill:#070707;}
</style>
<g>
	<path class="st0" d="M539.6,809.5H39c-21.5,0-39-17.5-39-39V39C0,17.5,17.5,0,39,0h500.6c21.5,0,39,17.5,39,39v731.5
		C578.6,792,561.1,809.5,539.6,809.5z M181.7,165.6c1.3,0.8,2.4,1.4,3.3,2.1c8.4,6.6,18.1,9.6,28.6,8.8c3.8-0.3,8.3-2.1,11.1-4.7
		c9.3-8.7,10.3-29.7,1.9-39.4c-2.8-3.3-7.1-5.7-11.2-7.2c-3.6-1.3-7.9-0.8-12.2-1.2c0.3-2.2,0.9-4.2,0.9-6.2
		c0.3-8.8,0.9-17.8-6-24.7c-6.7-6.8-21.8-8.7-31.1-4.2c-9.5,4.6-14.6,14-13.4,25.3c0.5,4.6,1.4,9.2,2.2,14.4
		c-3.1-0.3-5.4-0.5-7.6-0.9c-16.3-2.6-28.4,8.6-27.2,25.3c1,14.1,18.4,25.5,33,21.2c6.3-1.9,12.3-5,18.5-7.4
		c0.6,0.6,0.6,0.6,1.2,1.2c-1.7,3.6-2.9,7.7-5.4,10.8c-3.2,4-7.7,7-11.3,10.7c-1.1,1.1-2,3.2-1.8,4.7c0.1,0.8,2.5,1.9,4,2
		c10.4,0.7,20.8,1.5,31.2,1.7c3.8,0.1,7.7-0.8,11.4-1.7c1.3-0.3,2.4-1.8,3.6-2.8c-0.9-1.1-1.6-2.4-2.7-3.2
		c-5.2-3.8-10.8-7.2-15.8-11.2C182.9,175.8,179.7,171.9,181.7,165.6z M383.7,129.9c-3.3-0.4-5.6-0.6-7.8-1c-16-2.6-28,8.4-27.1,24.8
		c0.8,14.2,18.1,26,32.6,21.8c6.5-1.9,12.7-5,19.1-7.6c0.6,0.6,0.6,0.6,1.2,1.2c-1.8,3.7-3,7.8-5.6,10.8c-3.3,4-7.7,7-11.4,10.7
		c-1.1,1.1-1.9,3.3-1.6,4.7c0.1,0.8,2.6,1.8,4.1,1.9c10.4,0.7,20.8,1.5,31.2,1.7c3.8,0.1,7.7-0.9,11.4-1.7c1.2-0.3,2.2-1.5,3.4-2.4
		c-0.9-1.2-1.6-2.8-2.8-3.7c-5.2-3.8-10.8-7.2-15.8-11.3c-3.8-3.1-7-7-4.9-13.3c1.3,0.8,2.2,1.2,2.9,1.8c8.1,6.6,17.5,9.3,27.9,9.4
		c6.7,0.1,11.7-2.9,15.1-8.4c5.8-9.4,5.6-19.4,2.5-29.6c-2.3-7.4-7.2-12.2-14.8-13.7c-3.9-0.8-8-0.7-12.2-1c0.4-2.2,0.8-4.3,1-6.3
		c2-18.3-3.9-27.3-20.3-30.9c-16.9-3.7-32.1,9.7-30.4,26.9C381.9,119.6,382.8,124.2,383.7,129.9z M175.4,424.2c-2.1,5-3,9.1-5.3,12
		c-3.4,4.2-7.9,7.3-11.7,11.2c-1.2,1.2-2.4,3.4-2,4.6c0.4,1.1,2.8,2.1,4.5,2.2c10.4,0.8,20.8,1.5,31.2,1.8c3.4,0.1,6.9-0.7,10.2-1.5
		c1.6-0.4,2.9-1.8,4.4-2.8c-1.2-1.3-2.2-2.9-3.6-3.9c-5.5-4.1-11.4-7.8-16.6-12.3c-4.4-3.9-4.6-6.4-2.9-11.2
		c14,8.6,20.6,10.8,30.6,10.6c6.2-0.1,10.9-2.6,14.2-7.6c6-9,6.3-18.8,3.5-28.8c-2.7-9.7-9.2-15.3-19.1-16.2
		c-2.6-0.2-5.2,0.2-8.3,0.4c0.4-2.5,0.9-4.5,1-6.6c0.4-8.8,0.9-17.7-5.9-24.8c-6.6-6.9-21.7-8.9-31.1-4.4
		c-9.5,4.5-14.8,14-13.6,25.1c0.5,4.7,1.4,9.3,2.2,14.6c-3.2-0.4-5.7-0.5-8.1-0.9c-15.4-2.5-26.6,8.1-27.1,23.9
		c-0.5,13.7,19.3,27.5,33.1,22.8C161.1,430.2,167.1,427.5,175.4,424.2z M385.4,388c-3.7-0.4-6.1-0.6-8.5-1
		c-15.4-2.5-26.6,8.1-27.1,23.9c-0.5,13.7,19.3,27.5,33.1,22.8c6.2-2.1,12.1-4.9,20.4-8.2c-2.1,5-3,9.1-5.3,12
		c-3.4,4.2-7.9,7.3-11.7,11.2c-1.2,1.2-2.4,3.4-2,4.6c0.4,1.1,2.8,2.1,4.5,2.2c10.4,0.8,20.8,1.5,31.2,1.8c3.4,0.1,6.9-0.7,10.2-1.5
		c1.6-0.4,2.9-1.8,4.4-2.8c-1.2-1.3-2.2-2.9-3.6-3.9c-5.5-4.1-11.4-7.8-16.6-12.3c-4.4-3.9-4.6-6.4-2.7-11.6
		c8.8,7.4,18.9,11.1,30.4,11c6.2-0.1,10.9-2.6,14.2-7.6c6-9,6.3-18.8,3.5-28.8c-2.7-9.8-9.2-15.3-19.1-16.2
		c-2.6-0.2-5.2,0.2-7.9,0.4c3.9-32.3-7.8-36.6-24.3-38.1c-7.7-0.7-14.7,2.3-20.1,8.4C379.6,364.2,382.5,375.5,385.4,388z
		 M195.7,679.7c3.5,0.4,5.8,0.5,8,0.9c16.4,2.6,28.4-8.5,27.2-25.2c-1-14.1-18.4-25.6-32.9-21.2c-6.3,1.9-12.2,4.9-18.3,7.3
		c-0.6-0.6-0.6-0.6-1.2-1.2c1.5-3.5,2.4-7.4,4.7-10.2c3.4-4.1,7.9-7.3,11.7-11.1c1.1-1.1,2-3.2,1.8-4.7c-0.1-0.8-2.5-1.9-3.9-2
		c-10.6-0.8-21.2-1.4-31.8-1.8c-3.4-0.1-6.9,0.7-10.2,1.6c-1.6,0.4-2.8,1.9-4.2,2.9c1.2,1.3,2.3,2.8,3.7,3.9c5,3.7,10.4,7,15.2,11
		c3.7,3,6.6,6.9,4.6,12.9c-1.3-0.8-2.4-1.3-3.3-2c-8.4-6.6-18.1-9.7-28.6-8.8c-3.8,0.3-8.3,2.1-11.1,4.7
		c-9.5,8.9-10.3,30.1-1.6,39.9c2.7,3.1,6.9,5.4,10.8,6.8c3.7,1.3,8,0.8,12,1.1c-4,31,7.1,35.9,23.7,37.6c7.4,0.8,14.3-1.9,19.8-7.6
		C201.6,704.1,198.6,692.4,195.7,679.7z M398.3,643.3c-0.6,0-1.1,0.1-1.4,0c-0.7-0.4-1.4-0.9-2-1.4c-8.4-6.6-18.1-9.7-28.6-8.8
		c-3.8,0.3-8.3,2.1-11.1,4.7c-9.5,8.9-10.3,30.1-1.6,39.9c2.7,3.1,6.9,5.4,10.8,6.8c3.7,1.3,8,0.8,12.3,1.1
		c-0.3,1.9-0.7,3.7-0.9,5.5c-0.5,8.6-1,17.3,5,24.5c6.1,7.3,21.6,9.8,31.4,5.4c9.6-4.3,15.2-14,14.1-24.9c-0.5-4.8-1.4-9.6-2.2-15.1
		c3.1,0.3,5.3,0.5,7.5,0.8c16.4,2.6,28.4-8.5,27.3-25.2c-1-14.1-18.4-25.6-32.9-21.3c-6.3,1.9-12.2,4.9-18.3,7.3
		c-0.6-0.6-0.6-0.6-1.2-1.2c1.5-3.5,2.4-7.4,4.7-10.2c3.4-4.1,7.9-7.3,11.7-11.2c1.1-1.1,2-3.2,1.9-4.7c-0.1-0.8-2.5-1.9-3.9-2
		c-10.6-0.8-21.2-1.4-31.8-1.8c-3.4-0.1-6.9,0.7-10.2,1.6c-1.6,0.4-2.8,1.9-4.3,2.9c1.2,1.3,2.3,2.8,3.7,3.9c5,3.7,10.4,7,15.2,11
		C397.1,634,400.1,637.9,398.3,643.3z M293.4,525.8c-0.6-0.6-0.6-0.7-1.2-1.3c1.6-3.6,2.6-7.6,5-10.6c3.1-3.9,7.3-6.8,10.8-10.3
		c1-1,1.6-2.9,1.5-4.2c-0.1-0.7-2.3-1.5-3.5-1.6c-10.4-0.8-20.8-1.7-31.2-1.9c-4-0.1-8.1,1.5-12.1,2.4c-0.2,0.9-0.2,1-0.4,1.9
		c1.9,1.5,3.8,3.1,5.8,4.5c4.4,3.2,9,6.1,13.1,9.6c3.5,3,6,6.9,3.9,12.5c-1.7-1.1-3-1.9-4.3-2.9c-7.9-5.8-16.8-8.4-26.5-7.6
		c-3.5,0.3-7.4,1.9-10,4.2c-7.9,7.1-9.8,22.7-4.3,34c4.7,9.6,13.2,12,23.1,10.8c0.3,0,0.7,0.4,0.9,0.5c0,5.9-0.4,11.6,0.1,17.4
		c0.6,8.2,4.9,13.9,13,16.6c9.5,3.1,18.5,2.8,26.5-3.9c8.4-7.1,9.1-16.3,7-26.3c-0.5-2.5-0.8-5-1.2-8.2c3.2,0.3,5.2,0.5,7.2,0.8
		c15.7,2.5,27.2-8.3,25.8-24.2c-1.1-12.7-16.8-23.1-30.5-19.5C305.5,520.2,299.6,523.4,293.4,525.8z M315.9,250.5
		c0-6.5,0.4-12.3-0.1-18c-0.6-7-3.6-12.7-10.7-15.6c-9.9-4.1-19.6-4.5-28.3,2.5c-9,7.2-9.8,16.9-7.3,27.3c0.5,2.3,0.7,4.6,1.1,7.6
		c-3.1-0.3-5.1-0.4-7.1-0.7c-16-2.6-27.9,9.1-25.8,25.3c1.6,12.3,17.5,21.9,30.9,18.2c6.2-1.7,12-4.8,17.9-7.2
		c0.6,0.6,0.6,0.6,1.2,1.2c-1.5,3.5-2.5,7.5-4.8,10.5c-3,3.9-7.3,6.8-10.8,10.3c-1,1-1.8,2.8-1.7,4.2c0,0.7,2.2,1.7,3.4,1.8
		c10.8,0.8,21.6,1.7,32.4,1.9c3.7,0.1,7.5-1.8,12.2-3.1c-8.8-9.9-24.1-11.9-24.4-28.3c2.3,1.3,3.6,1.9,4.6,2.7
		c7.6,5.8,16.3,8.2,25.7,8.3c6.5,0.1,11.3-2.7,14.5-8.2c6-10.5,5.7-21.5,0.2-31.8C334.3,250.8,325.6,249,315.9,250.5z M83.3,153.7
		c1.3-21.3-3.6-29.5-18.4-29.2c-5.1,0.1-11.1,2.4-15.2,5.7c-8.6,6.9-5.9,16.8-3.6,26.8c-3.3-0.4-5.7-0.7-8.1-1.1
		c-8.3-1.1-13.4,1.9-17,10.4c-3.8,8.8-2.5,15.6,4,20.8c9.1,7.2,18.2,7.8,28.4,2c1.6-0.9,3.2-1.8,4.7-2.7c0.7,0.6,0.7,0.6,1.3,1.2
		c-1,2.6-1.6,5.5-3.3,7.6c-2.6,3.2-6.1,5.7-9,8.6c-0.9,0.9-1.9,2.6-1.6,3.6c0.2,0.8,2.2,1.7,3.4,1.8c8.5,0.7,17,1.4,25.6,1.5
		c3.3,0,6.7-1.5,10-2.3c0.2-0.9,0.2-1,0.3-1.8c-3.9-2.7-8-5.3-11.8-8.2c-3.8-2.9-8.1-5.8-7.2-10.4c8.2,2.2,15.9,5,23.9,5.9
		c3.5,0.4,8.6-2.4,11-5.4c6.3-7.9,5.8-17.3,1.8-26.1C99,154.5,91.8,152.8,83.3,153.7z M496.4,655.9c-2.4,25.4,6.9,28.9,20.1,29.1
		c4.8,0.1,10.5-3,14.2-6.3c7.7-7,5.2-16.4,2.7-26.1c3.2,0.4,5.6,0.7,8.1,1c7.8,1.1,11.9-0.7,15.7-7.4c3.8-6.6,6.1-13.8,0.7-20.5
		c-5.7-7-13.1-11.2-22.6-8.6c-4.8,1.3-9.4,3.7-15.4,6c1.1-3.3,1.3-5.9,2.7-7.6c2.7-3.4,6.2-6.1,9.2-9.3c1.1-1.2,1.6-3,2.4-4.6
		c-1.5-0.5-2.9-1.2-4.5-1.3c-7.9-0.6-15.8-1.4-23.7-1.5c-3.5-0.1-7.1,1.2-10.7,1.9c-0.2,1-0.2,1.1-0.5,2.1c3.8,2.7,7.8,5.2,11.5,8.1
		c3.9,3,8.3,5.8,7.4,10.7c-8-2.2-15.7-4.9-23.7-6.1c-3.1-0.5-7.7,1.4-9.9,3.8c-7.3,7.9-7.1,17.4-3.5,27
		C479.5,653.4,485.8,656.3,496.4,655.9z M61.1,75.9c-2.2,3-4,5.3-5.5,7.7c-4.4,7-4.2,14.7,0.6,19.6c5,5.3,14.6,6.1,21.4,1.9
		c5.5-3.4,8.7-11.4,5.2-18.2c-4.1-8.1-6.6-15.2-3.6-24.7c2.2-6.8-6.8-14.8-14.9-15.2c-6.9-0.3-11.6,5.3-11.7,14
		C52.6,67.4,55.2,72.3,61.1,75.9z M520.8,732.7c-0.6,0.1-1.2,0.2-1.8,0.3c1.8-2.5,3.7-4.9,5.3-7.5c4.3-6.9,3.8-14.7-1.1-19.6
		c-5.1-5-14.2-5.7-21-1.8c-5.6,3.3-8.9,11.3-5.5,18.1c4.2,8.3,6.5,15.7,3.6,25.3c-2,6.8,7.4,14.7,15.3,14.8
		c6.9,0.1,12.2-5.8,11.1-14.3C526.2,742.8,522.9,737.8,520.8,732.7z"/>
	<path class="st1" d="M181.7,165.6c-2,6.3,1.2,10.2,5,13.3c5,4,10.6,7.4,15.8,11.2c1.1,0.8,1.8,2.1,2.7,3.2c-1.2,1-2.2,2.5-3.6,2.8
		c-3.7,0.9-7.6,1.8-11.4,1.7c-10.4-0.3-20.8-1-31.2-1.7c-1.4-0.1-3.9-1.2-4-2c-0.2-1.5,0.7-3.6,1.8-4.7c3.7-3.7,8.1-6.7,11.3-10.7
		c2.5-3.1,3.7-7.3,5.5-10.9c-0.5-0.3-1.1-0.6-1.6-0.9c-6,2.5-11.9,5.4-18.1,7.3c-14.6,4.4-32-7-33-21.2
		c-1.2-16.7,10.8-27.9,27.2-25.3c2.2,0.4,4.5,0.5,7.6,0.9c-0.8-5.2-1.7-9.8-2.2-14.4c-1.2-11.2,3.9-20.6,13.4-25.3
		c9.3-4.5,24.4-2.6,31.1,4.2c6.9,7,6.3,15.9,6,24.7c-0.1,2-0.6,4-0.9,6.2c4.3,0.3,8.6-0.2,12.2,1.2c4.1,1.5,8.4,3.9,11.2,7.2
		c8.4,9.7,7.3,30.7-1.9,39.4c-2.8,2.6-7.2,4.4-11.1,4.7c-10.5,0.9-20.2-2.2-28.6-8.8C184.1,167,183.1,166.4,181.7,165.6z"/>
	<path class="st1" d="M383.7,129.9c-0.9-5.7-1.8-10.3-2.3-15c-1.7-17.2,13.5-30.6,30.4-26.9c16.4,3.6,22.3,12.6,20.3,30.9
		c-0.2,2-0.6,4.1-1,6.3c4.2,0.3,8.3,0.2,12.2,1c7.6,1.5,12.6,6.4,14.8,13.7c3.1,10.2,3.2,20.2-2.5,29.6c-3.4,5.6-8.4,8.5-15.1,8.4
		c-10.3-0.1-19.8-2.7-27.9-9.4c-0.7-0.6-1.6-1.1-2.9-1.8c-2.1,6.3,1.1,10.2,4.9,13.3c5,4.1,10.6,7.4,15.8,11.3
		c1.2,0.9,1.9,2.4,2.8,3.7c-1.1,0.8-2.1,2.1-3.4,2.4c-3.8,0.8-7.6,1.8-11.4,1.7c-10.4-0.3-20.8-1-31.2-1.7c-1.5-0.1-3.9-1-4.1-1.9
		c-0.2-1.5,0.5-3.6,1.6-4.7c3.6-3.7,8.1-6.7,11.4-10.7c2.5-3.1,3.8-7.3,5.6-11c-0.5-0.3-1.1-0.6-1.6-1c-6.2,2.5-12.3,5.6-18.7,7.4
		c-14.5,4.2-31.7-7.6-32.6-21.8c-1-16.4,11.1-27.4,27.1-24.8C378.1,129.3,380.4,129.5,383.7,129.9z"/>
	<path class="st1" d="M175.4,424.2c-8.2,3.3-14.2,6.1-20.4,8.2c-13.9,4.8-33.6-9-33.1-22.8c0.5-15.8,11.8-26.4,27.1-23.9
		c2.4,0.4,4.8,0.6,8.1,0.9c-0.8-5.4-1.8-10-2.2-14.6c-1.2-11.1,4.1-20.6,13.6-25.1c9.4-4.5,24.5-2.5,31.1,4.4c6.8,7,6.2,16,5.9,24.8
		c-0.1,2-0.6,4-1,6.6c3.1-0.2,5.7-0.6,8.3-0.4c9.9,0.8,16.4,6.4,19.1,16.2c2.8,10.1,2.5,19.8-3.5,28.8c-3.4,5.1-8.1,7.6-14.2,7.6
		c-10,0.1-16.5-2-30.6-10.6c-1.8,4.8-1.6,7.3,2.9,11.2c5.2,4.5,11.1,8.1,16.6,12.3c1.4,1.1,2.4,2.6,3.6,3.9c-1.5,1-2.8,2.4-4.4,2.8
		c-3.3,0.8-6.8,1.6-10.2,1.5c-10.4-0.3-20.8-1-31.2-1.8c-1.6-0.1-4.1-1.1-4.5-2.2c-0.4-1.2,0.8-3.5,2-4.6c3.8-3.8,8.4-7,11.7-11.2
		C172.3,433.3,173.2,429.2,175.4,424.2z"/>
	<path class="st1" d="M385.4,388c-2.8-12.4-5.8-23.8,3-33.8c5.4-6.1,12.4-9.1,20.1-8.4c16.5,1.5,28.2,5.9,24.3,38.1
		c2.7-0.2,5.3-0.6,7.9-0.4c9.9,0.8,16.4,6.4,19.1,16.2c2.8,10.1,2.5,19.8-3.5,28.8c-3.4,5.1-8.1,7.6-14.2,7.6
		c-11.5,0.1-21.6-3.6-30.4-11c-1.9,5.2-1.7,7.7,2.7,11.6c5.2,4.5,11.1,8.1,16.6,12.3c1.4,1.1,2.4,2.6,3.6,3.9
		c-1.5,1-2.8,2.4-4.4,2.8c-3.3,0.8-6.8,1.6-10.2,1.5c-10.4-0.3-20.8-1-31.2-1.8c-1.6-0.1-4.1-1.1-4.5-2.2c-0.4-1.2,0.8-3.5,2-4.6
		c3.8-3.8,8.4-7,11.7-11.2c2.3-2.9,3.2-7,5.3-12c-8.2,3.3-14.2,6.1-20.4,8.2c-13.9,4.8-33.6-9-33.1-22.8
		c0.5-15.8,11.8-26.4,27.1-23.9C379.3,387.4,381.7,387.5,385.4,388z"/>
	<path class="st1" d="M195.7,679.7c2.8,12.7,5.9,24.4-3.9,34.6c-5.5,5.7-12.4,8.4-19.8,7.6c-16.6-1.7-27.7-6.6-23.7-37.6
		c-4-0.3-8.3,0.1-12-1.1c-3.9-1.4-8.1-3.7-10.8-6.8c-8.7-9.7-7.9-31,1.6-39.9c2.8-2.6,7.2-4.4,11.1-4.7c10.5-0.8,20.2,2.2,28.6,8.8
		c0.9,0.7,2,1.2,3.3,2c2-6-0.9-9.8-4.6-12.9c-4.8-4-10.2-7.2-15.2-11c-1.4-1-2.5-2.6-3.7-3.9c1.4-1,2.7-2.5,4.2-2.9
		c3.3-0.9,6.8-1.7,10.2-1.6c10.6,0.3,21.2,1,31.8,1.8c1.4,0.1,3.9,1.2,3.9,2c0.1,1.5-0.7,3.6-1.8,4.7c-3.8,3.8-8.4,7-11.7,11.1
		c-2.4,2.9-3.3,7-4.9,10.6c0.5,0.2,1,0.5,1.5,0.7c6-2.5,11.9-5.4,18.2-7.3c14.5-4.3,31.9,7.1,32.9,21.2
		c1.2,16.7-10.9,27.8-27.2,25.2C201.5,680.2,199.3,680.1,195.7,679.7z"/>
	<path class="st1" d="M398.3,643.3c1.8-5.5-1.1-9.3-4.8-12.4c-4.8-4-10.2-7.2-15.2-11c-1.4-1-2.5-2.6-3.7-3.9c1.4-1,2.7-2.5,4.3-2.9
		c3.3-0.9,6.8-1.7,10.2-1.6c10.6,0.3,21.2,1,31.8,1.8c1.4,0.1,3.9,1.2,3.9,2c0.1,1.5-0.7,3.6-1.9,4.7c-3.8,3.8-8.4,7-11.7,11.2
		c-2.4,2.9-3.3,7-4.8,10.5c0.5,0.2,1,0.5,1.5,0.7c6-2.5,11.9-5.4,18.2-7.3c14.5-4.3,31.9,7.1,32.9,21.3
		c1.1,16.7-10.9,27.8-27.3,25.2c-2.2-0.3-4.5-0.5-7.5-0.8c0.8,5.4,1.7,10.2,2.2,15.1c1.1,10.8-4.5,20.6-14.1,24.9
		c-9.8,4.4-25.3,1.9-31.4-5.4c-6-7.2-5.5-15.9-5-24.5c0.1-1.8,0.5-3.6,0.9-5.5c-4.3-0.3-8.6,0.1-12.3-1.1c-3.9-1.4-8.1-3.7-10.8-6.8
		c-8.7-9.8-7.8-31,1.6-39.9c2.8-2.6,7.3-4.4,11.1-4.7c10.5-0.8,20.2,2.2,28.6,8.8c0.6,0.5,1.3,1,2,1.4
		C397.2,643.5,397.6,643.3,398.3,643.3z"/>
	<path class="st1" d="M294.2,525.5c5.9-2.4,11.6-5.4,17.7-7c13.7-3.6,29.4,6.8,30.5,19.5c1.4,16-10.1,26.8-25.8,24.2
		c-2-0.3-4.1-0.4-7.2-0.8c0.5,3.2,0.7,5.7,1.2,8.2c2.1,10,1.3,19.2-7,26.3c-7.9,6.7-16.9,7-26.5,3.9c-8.1-2.7-12.4-8.3-13-16.6
		c-0.4-5.7-0.1-11.5-0.1-17.4c-0.2-0.1-0.6-0.6-0.9-0.5c-9.9,1.2-18.4-1.2-23.1-10.8c-5.5-11.2-3.6-26.8,4.3-34
		c2.6-2.3,6.5-3.9,10-4.2c9.6-0.8,18.6,1.9,26.5,7.6c1.3,0.9,2.6,1.8,4.3,2.9c2.1-5.7-0.4-9.5-3.9-12.5c-4.1-3.5-8.7-6.4-13.1-9.6
		c-1.9-1.4-3.7-2.9-5.6-4.4c0.1-0.7,0.1-1.4,0.2-2.1c4-0.9,8.1-2.5,12.1-2.4c10.4,0.2,20.8,1.1,31.2,1.9c1.3,0.1,3.4,0.9,3.5,1.6
		c0.2,1.4-0.5,3.2-1.5,4.2c-3.5,3.5-7.7,6.4-10.8,10.3c-2.4,3-3.4,7-5,10.6C292.9,524.9,293.5,525.2,294.2,525.5z"/>
	<path class="st1" d="M315.9,250.5c9.8-1.5,18.4,0.3,23.1,9.1c5.5,10.3,5.8,21.3-0.2,31.8c-3.1,5.5-7.9,8.3-14.5,8.2
		c-9.4-0.2-18.1-2.5-25.7-8.3c-1.1-0.8-2.4-1.4-4.6-2.7c0.3,16.4,15.6,18.4,24.4,28.3c-4.7,1.3-8.5,3.2-12.2,3.1
		c-10.8-0.2-21.6-1.1-32.4-1.9c-1.2-0.1-3.4-1.1-3.4-1.8c-0.1-1.4,0.7-3.2,1.7-4.2c3.5-3.5,7.7-6.5,10.8-10.3c2.3-3,3.3-7,4.8-10.6
		c-0.5-0.3-1.1-0.6-1.6-0.9c-5.8,2.4-11.5,5.3-17.6,7c-13.4,3.7-29.3-5.9-30.9-18.2c-2.1-16.3,9.8-27.9,25.8-25.3
		c2,0.3,4.1,0.4,7.1,0.7c-0.4-2.9-0.6-5.3-1.1-7.6c-2.4-10.4-1.6-20.2,7.3-27.3c8.7-7,18.4-6.7,28.3-2.5c7,2.9,10.1,8.6,10.7,15.6
		C316.2,238.2,315.9,244,315.9,250.5z"/>
	<path class="st1" d="M83.3,153.7c8.4-0.9,15.7,0.8,19.3,8.7c4,8.8,4.5,18.2-1.8,26.1c-2.3,3-7.5,5.8-11,5.4
		c-8-0.9-15.8-3.8-23.9-5.9c-0.9,4.6,3.4,7.5,7.2,10.4c3.7,2.9,7.7,5.4,11.6,8.1c0,0.6,0,1.3-0.1,1.9c-3.4,0.8-6.7,2.3-10.1,2.3
		c-8.5-0.1-17.1-0.9-25.6-1.5c-1.2-0.1-3.2-1-3.4-1.8c-0.2-1.1,0.7-2.7,1.6-3.6c2.9-3,6.4-5.4,9-8.6c1.7-2.1,2.3-5.2,3.4-7.9
		c-0.5-0.3-1-0.6-1.5-0.9c-1.6,0.9-3.2,1.8-4.7,2.7c-10.2,5.9-19.3,5.2-28.4-2c-6.5-5.2-7.8-12-4-20.8c3.7-8.4,8.7-11.5,17-10.4
		c2.4,0.3,4.8,0.6,8.1,1.1c-2.3-9.9-5-19.8,3.6-26.8c4-3.3,10-5.6,15.2-5.7C79.7,124.2,84.6,132.4,83.3,153.7z"/>
	<path class="st1" d="M496.4,655.9c-10.6,0.4-16.8-2.5-19.6-9.6c-3.6-9.5-3.8-19.1,3.5-27c2.2-2.4,6.8-4.3,9.9-3.8
		c8,1.3,15.7,4,23.7,6.1c0.9-4.8-3.5-7.7-7.4-10.7c-3.7-2.9-7.6-5.4-11.5-8.1c0.1-0.7,0.1-1.4,0.2-2.1c3.6-0.7,7.3-2,10.9-1.9
		c7.9,0.1,15.8,0.9,23.7,1.5c1.5,0.1,3,0.9,4.5,1.3c-0.8,1.5-1.2,3.3-2.4,4.6c-3,3.2-6.5,5.9-9.2,9.3c-1.4,1.7-1.6,4.4-2.7,7.6
		c6-2.4,10.5-4.7,15.4-6c9.4-2.6,16.9,1.6,22.6,8.6c5.4,6.7,3.1,13.8-0.7,20.5c-3.8,6.6-7.9,8.4-15.7,7.4c-2.4-0.3-4.8-0.6-8.1-1
		c2.5,9.7,5,19.1-2.7,26.1c-3.7,3.4-9.4,6.4-14.2,6.3C503.2,684.8,494,681.3,496.4,655.9z"/>
	<path class="st1" d="M61.1,75.9c-6-3.6-8.6-8.5-8.5-14.9c0.1-8.6,4.8-14.3,11.7-14c8.1,0.4,17.2,8.4,14.9,15.2
		c-3.1,9.4-0.5,16.6,3.6,24.7c3.4,6.8,0.3,14.9-5.2,18.2c-6.8,4.2-16.4,3.3-21.4-1.9c-4.7-5-5-12.7-0.6-19.6
		C57.2,81.2,59,78.9,61.1,75.9z M76.6,91.2c-2.5-3.2-5-6.4-7.5-9.6c-2.6,3.8-6.2,7.2-7.5,11.4c-1.3,4,2.3,6.3,6.5,6.2
		C72.6,99.2,75.6,97.3,76.6,91.2z M67.8,69.5c5.5-8.3,4.5-10.7-5-13.1C60,63.5,60.8,65.7,67.8,69.5z"/>
	<path class="st1" d="M520.8,732.7c2.1,5.1,5.4,10.1,6.1,15.4c1.1,8.5-4.2,14.4-11.1,14.3c-7.9-0.1-17.4-8-15.3-14.8
		c2.9-9.6,0.6-17-3.6-25.3c-3.5-6.8-0.1-14.8,5.5-18.1c6.7-4,15.9-3.2,21,1.8c4.9,4.8,5.4,12.6,1.1,19.6c-1.6,2.6-3.5,5-5.3,7.5
		C519.6,733,520.2,732.9,520.8,732.7z M510.6,728.1c7.2-5.5,9.8-12,6.7-15.7c-2.4-2.8-8.8-2.9-11.3-0.1
		C502.7,715.8,504.7,722.8,510.6,728.1z M516.8,753.6c3.1-7.9,2.1-10.4-5-13.3C506.7,747.9,507.3,749.7,516.8,753.6z"/>
	<path class="st0" d="M76.6,91.2c-1,6.1-4,8-8.6,8c-4.1,0-7.7-2.2-6.5-6.2c1.3-4.2,4.9-7.6,7.5-11.4C71.5,84.9,74.1,88,76.6,91.2z"
		/>
	<path class="st0" d="M67.8,69.5c-7.1-3.8-7.8-6-5-13.1C72.3,58.8,73.3,61.2,67.8,69.5z"/>
	<path class="st0" d="M510.6,728.1c-5.9-5.2-7.9-12.2-4.6-15.9c2.5-2.7,8.9-2.7,11.3,0.1C520.4,716.1,517.8,722.5,510.6,728.1z"/>
	<path class="st0" d="M516.8,753.6c-9.5-3.9-10.1-5.6-5-13.3C518.9,743.2,519.9,745.7,516.8,753.6z"/>
</g>
</svg>
