<?xml version="1.0" encoding="utf-8"?>
<!-- Generator: Adobe Illustrator 24.0.0, SVG Export Plug-In . SVG Version: 6.00 Build 0)  -->
<svg version="1.0" id="Layer_1" xmlns="http://www.w3.org/2000/svg" xmlns:xlink="http://www.w3.org/1999/xlink" x="0px" y="0px"
	 viewBox="0 0 578.6 809.5" style="enable-background:new 0 0 578.6 809.5;" xml:space="preserve">
<style type="text/css">
	.st0{fill:#FEFDFD;}
	.st1{fill:#FE2121;}
</style>
<g>
	<path class="st0" d="M539.6,809.5H39c-21.5,0-39-17.5-39-39C0,526.7,0,282.8,0,39C0,17.5,17.5,0,39,0c166.9,0,333.7,0,500.6,0
		c21.5,0,39,17.5,39,39c0,243.8,0,487.7,0,731.5C578.6,792,561.1,809.5,539.6,809.5z M291.1,615.5c2.1,3,3.5,5.2,5.1,7.3
		c8.4,11.3,22.4,13.1,31.4,4.1c11.7-11.7,13.8-27.6,5-41.7c-3.8-6.1-8.5-11.8-13.1-17.4c-8.4-10.2-16.5-20.4-19.6-33.7
		c-0.4-1.8-2.7-3.2-4.2-4.7c-1,1.7-2.2,3.4-3.1,5.2c-0.7,1.5-0.8,3.2-1.5,4.7c-8.4,17.3-19.4,32.4-34.6,44.5
		c-5.1,4.1-9.6,9.3-13.4,14.7c-7.1,10.3-2.2,32.2,12.6,36.5c9.4,2.8,18.7,0.1,26.7-8.9C285.1,622.7,287.8,619.4,291.1,615.5z
		 M179.6,728.3c2.1,3,3.5,5.2,5.1,7.3c8.4,11.3,22.4,13.1,31.4,4.1c11.7-11.7,13.8-27.6,5-41.7c-3.8-6.1-8.5-11.8-13.1-17.4
		c-8.4-10.2-16.5-20.4-19.6-33.7c-0.4-1.8-2.7-3.2-4.1-4.8c-1,1.7-2.2,3.4-3.1,5.2c-0.7,1.5-0.8,3.2-1.5,4.7
		c-8.4,17.3-19.4,32.4-34.6,44.5c-5.1,4.1-9.6,9.3-13.4,14.7c-7.1,10.3-2.2,32.2,12.6,36.5c9.4,2.8,18.7,0.1,26.7-8.9
		C173.7,735.5,176.4,732.2,179.6,728.3z M402.6,729.5c2.1,3,3.5,5.2,5.1,7.3c8.4,11.3,22.4,13,31.4,4.1
		c11.7-11.7,13.8-27.6,4.9-41.7c-3.9-6.1-8.5-11.8-13.1-17.4c-8.4-10.2-16.5-20.4-19.6-33.7c-0.4-1.8-2.7-3.2-4.2-4.7
		c-1,1.7-2.2,3.4-3.1,5.2c-0.7,1.5-0.8,3.2-1.5,4.7c-8.4,17.3-19.4,32.4-34.6,44.5c-5.1,4.1-9.6,9.3-13.4,14.7
		c-7.1,10.3-2.2,32.2,12.6,36.5c9.4,2.8,18.7,0.1,26.7-8.9C396.6,736.7,399.3,733.4,402.6,729.5z M177.1,80
		c-1.7-2.7-3.1-4.9-4.7-7.1c-6.7-9.4-18.6-13-26.8-8.1c-8.6,5.1-18.6,20.6-14.4,34.7c3,10,8.9,17.8,15.3,25.5
		c9.3,11,18.7,22,21.9,36.7c0.2,0.8,0.4,1.8,1,2.2c1.2,0.9,2.6,2,4,2c0.8,0,1.9-1.9,2.3-3.1c0.7-2.1,0.7-4.6,1.6-6.6
		c8.4-17.3,19.4-32.5,34.7-44.5c5-3.9,9.3-9,13-14.2c6.4-9.2,3.6-25.5-4.8-32.7c-9.3-7.9-21.4-7.4-31.1,1.7
		C184.9,70.5,181.4,75.2,177.1,80z M400,81.3c-1.7-2.6-3.1-4.9-4.6-7c-6.5-9.2-18.1-12.9-26.2-8.5c-8.7,4.7-19,20.4-15.2,34.4
		c3.1,11.4,10.2,19.9,17.5,28.5c8.7,10.2,17,20.7,19.9,34.3c0.1,0.6,0.3,1.4,0.7,1.7c1.3,1,2.8,1.9,4.2,2.8c0.8-1.3,1.9-2.5,2.4-3.9
		c0.7-1.9,0.7-4.1,1.5-5.9c8.4-17.3,19.3-32.5,34.6-44.5c5-3.9,9.3-9,13-14.2c6.4-9.1,3.7-25.5-4.7-32.7c-9.3-7.9-21.4-7.5-31.1,1.6
		C407.9,71.7,404.4,76.4,400,81.3z M288.6,203.1c-2.2-3.4-3.4-5.6-4.9-7.6c-6.6-9-18.3-12.6-26.3-8c-8.7,5-18.7,20.5-14.8,34.5
		c2.9,10.2,9,18.2,15.6,26c9.3,11,18.7,22,21.8,36.6c0.2,1,0.6,2.2,1.4,2.8c1,0.8,2.5,1.5,3.7,1.4c0.8-0.1,1.9-1.5,2.2-2.6
		c3.8-15.4,12.4-28,23.1-39.2c7.2-7.5,15.5-13.9,22.5-21.6c13.2-14.3,7.8-36.8-9.9-42.3c-10.4-3.2-18.6,1.4-25.4,9.1
		C294.6,195.6,291.9,199.1,288.6,203.1z M175.8,370.8c-1.9-3-3.3-5.3-4.9-7.4c-7.7-10.5-20.1-12.9-29.4-5.7
		c-13.1,10.1-16.6,28.7-7,43.3c6.5,9.9,15,18.5,21.4,28.4c4.7,7.2,7.5,15.7,11.4,23.4c0.9,1.7,3,2.8,4.5,4.2c0.9-1.5,2-2.8,2.6-4.4
		c0.7-1.7,0.6-3.7,1.4-5.3c8.4-17.3,19.3-32.5,34.6-44.6c5.1-4.1,9.7-9.3,13.4-14.7c6.3-9.1,3.2-25.6-5.3-32.6
		c-9.3-7.6-21.1-7.1-30.6,1.8C183.9,361.1,180.3,365.7,175.8,370.8z M400,370.8c-1.9-2.9-3.2-5.2-4.8-7.4
		c-8.3-11.3-22.3-13.2-31.4-4.3c-11.7,11.5-14.1,27.9-5.1,41.7c5.4,8.4,12.7,15.5,18.1,23.9c5.5,8.5,9.5,17.9,14.4,26.7
		c1.2,2.1,3.2,3.7,4.9,5.5c0.9-1.9,1.9-3.7,2.7-5.6c0.6-1.3,0.7-2.8,1.3-4.1c8.3-17.1,19-32.2,34.1-44.2c5.3-4.2,10-9.5,13.9-15.1
		c6.3-9.1,3.3-25.6-5.3-32.6c-9.3-7.7-21.1-7.2-30.6,1.7C408.1,361,404.5,365.7,400,370.8z M520.4,669.3c2,2.4,3.4,4.2,4.9,5.9
		c8.2,9.3,18.4,8.9,25.8-1.1c7.4-10,7.3-20.9-0.6-31.8c-8.6-11.9-20.1-21.9-23.6-37.2c-0.2-1-2-1.8-3.3-2.2c-0.4-0.1-1.7,1.1-1.9,2
		c-4.8,17-16,29.3-29.2,40.3c-3.1,2.6-5.9,5.9-8.2,9.3c-5.1,7.7-2.9,20.7,4.1,26.3c7.1,5.6,16.9,4.5,24.2-2.9
		C515.2,675.3,517.5,672.6,520.4,669.3z M59.3,140.6c-1.9-2.5-3.3-4.3-4.7-6c-8.2-9.5-18.3-9.1-25.8,0.9
		c-7.7,10.2-7.5,20.6,0.9,32.3c8.5,11.8,19.8,21.7,23.2,36.7c0.2,0.9,1.7,2,2.7,2.1c0.8,0,2.2-1.2,2.5-2.1
		c4.8-16,14.8-28.1,27.4-38.6c3.8-3.2,7.3-6.9,10.1-11c5.1-7.5,2.8-20-4.1-25.7c-7-5.7-17-4.7-24.2,2.6
		C64.6,134.4,62.2,137.3,59.3,140.6z M513.5,738.5c-0.9,1.4-1.5,2.4-2.2,3.4c-6.6,9.6-9.3,14.1,3.8,21.9c5.5,3.2,12.1,2.3,18.5-3.9
		c5-4.8,2.5-9.6-1.3-13c-6-5.5-4.7-9.1,0.6-14.4c7.8-7.9,7-20.8-0.5-26.8c-7.7-6.2-21-6.1-27.1,0.1c-6.6,6.7-6,16.5,1.5,25.3
		C509,733.6,511.2,736,513.5,738.5z M56.9,71.2c-1.9,2.1-3.7,4-5.5,6c-6.2,6.9-7.9,16.3-4.2,23.2c3.5,6.5,13,10.6,21.8,9.2
		c10.4-1.6,16.8-11.8,12.6-21.4c-2.6-5.9-7.1-11.1-10.9-16.7c2-3.3,4.3-6.7,6.2-10.4c2.1-3.9,1.2-7.8-2.4-9.9
		c-4.5-2.6-7.4-9.4-14.3-6.4c-3.2,1.4-6.4,3.2-9.3,5.2c-4,2.8-4.9,6.7-2,10.8C51.4,64.3,54,67.5,56.9,71.2z"/>
	<path class="st1" d="M291.1,615.5c-3.3,3.9-6,7.2-8.8,10.4c-7.9,9.1-17.3,11.7-26.7,8.9c-14.8-4.4-19.7-26.3-12.6-36.5
		c3.7-5.4,8.2-10.6,13.4-14.7c15.2-12.1,26.3-27.2,34.6-44.5c0.7-1.5,0.8-3.2,1.5-4.7c0.8-1.8,2-3.5,3.1-5.2
		c1.4,1.6,3.7,2.9,4.2,4.7c3.1,13.3,11.1,23.6,19.6,33.7c4.7,5.6,9.3,11.3,13.1,17.4c8.9,14.2,6.8,30-5,41.7c-9,9-23,7.2-31.4-4.1
		C294.6,620.7,293.2,618.5,291.1,615.5z"/>
	<path class="st1" d="M179.6,728.3c-3.3,3.9-6,7.2-8.8,10.4c-7.9,9.1-17.3,11.7-26.7,8.9c-14.7-4.4-19.7-26.3-12.6-36.5
		c3.8-5.4,8.2-10.6,13.4-14.7c15.2-12.1,26.3-27.2,34.6-44.5c0.7-1.5,0.8-3.2,1.5-4.7c0.9-1.8,2-3.5,3.1-5.2c1.4,1.6,3.7,3,4.1,4.8
		c3.1,13.3,11.2,23.6,19.6,33.7c4.7,5.6,9.3,11.3,13.1,17.4c8.9,14.2,6.8,30-5,41.7c-9,9-23,7.2-31.4-4.1
		C183.2,733.5,181.7,731.2,179.6,728.3z"/>
	<path class="st1" d="M402.6,729.5c-3.3,3.9-6,7.2-8.8,10.4c-7.9,9.1-17.3,11.7-26.7,8.9c-14.8-4.4-19.7-26.3-12.6-36.5
		c3.7-5.4,8.2-10.6,13.4-14.7c15.2-12.1,26.3-27.2,34.6-44.5c0.7-1.5,0.8-3.2,1.5-4.7c0.8-1.8,2-3.5,3.1-5.2
		c1.4,1.6,3.7,2.9,4.2,4.7c3.1,13.3,11.1,23.6,19.6,33.7c4.7,5.6,9.3,11.3,13.1,17.4c8.9,14.2,6.8,30-4.9,41.7c-9,9-23,7.2-31.4-4.1
		C406.1,734.7,404.6,732.5,402.6,729.5z"/>
	<path class="st1" d="M177.1,80c4.3-4.9,7.8-9.5,12-13.5c9.7-9.1,21.7-9.6,31.1-1.7c8.5,7.2,11.2,23.5,4.8,32.7
		c-3.7,5.2-8,10.3-13,14.2c-15.3,12-26.3,27.2-34.7,44.5c-1,2-0.9,4.4-1.6,6.6c-0.4,1.2-1.5,3.1-2.3,3.1c-1.3,0-2.8-1.1-4-2
		c-0.6-0.4-0.8-1.4-1-2.2c-3.1-14.7-12.6-25.6-21.9-36.7c-6.5-7.6-12.4-15.5-15.3-25.5c-4.2-14.1,5.8-29.6,14.4-34.7
		c8.2-4.9,20.1-1.3,26.8,8.1C174,75.1,175.3,77.4,177.1,80z"/>
	<path class="st1" d="M400,81.3c4.4-4.9,7.9-9.6,12.1-13.5c9.7-9.1,21.8-9.5,31.1-1.6c8.4,7.2,11.1,23.6,4.7,32.7
		c-3.7,5.2-8,10.3-13,14.2c-15.3,12-26.3,27.2-34.6,44.5c-0.9,1.8-0.8,4-1.5,5.9c-0.5,1.4-1.6,2.6-2.4,3.9c-1.4-0.9-2.9-1.8-4.2-2.8
		c-0.4-0.3-0.6-1.1-0.7-1.7c-2.9-13.6-11.2-24-19.9-34.3c-7.3-8.6-14.4-17.1-17.5-28.5c-3.8-13.9,6.5-29.6,15.2-34.4
		c8.1-4.4,19.7-0.7,26.2,8.5C396.9,76.4,398.3,78.7,400,81.3z"/>
	<path class="st1" d="M288.6,203.1c3.3-4,6-7.5,8.9-10.8c6.8-7.7,15-12.3,25.4-9.1c17.7,5.5,23,28,9.9,42.3
		c-7,7.6-15.3,14.1-22.5,21.6c-10.7,11.2-19.3,23.8-23.1,39.2c-0.3,1-1.4,2.5-2.2,2.6c-1.2,0.1-2.6-0.6-3.7-1.4
		c-0.7-0.6-1.1-1.8-1.4-2.8c-3.2-14.7-12.5-25.6-21.8-36.6c-6.6-7.8-12.7-15.7-15.6-26c-4-13.9,6.1-29.5,14.8-34.5
		c8-4.6,19.7-1,26.3,8C285.2,197.5,286.4,199.7,288.6,203.1z"/>
	<path class="st1" d="M175.8,370.8c4.5-5.1,8-9.7,12.2-13.7c9.5-8.9,21.3-9.4,30.6-1.8c8.6,7,11.6,23.5,5.3,32.6
		c-3.7,5.4-8.3,10.6-13.4,14.7c-15.3,12.1-26.2,27.3-34.6,44.6c-0.8,1.6-0.8,3.6-1.4,5.3c-0.6,1.6-1.7,2.9-2.6,4.4
		c-1.5-1.4-3.7-2.5-4.5-4.2c-3.9-7.7-6.7-16.2-11.4-23.4c-6.5-9.9-15-18.5-21.4-28.4c-9.6-14.6-6.1-33.2,7-43.3
		c9.3-7.2,21.7-4.8,29.4,5.7C172.6,365.5,173.9,367.8,175.8,370.8z"/>
	<path class="st1" d="M400,370.8c4.5-5.1,8.1-9.8,12.3-13.7c9.5-8.9,21.3-9.4,30.6-1.7c8.5,7,11.6,23.5,5.3,32.6
		c-3.9,5.6-8.6,10.8-13.9,15.1c-15.1,12-25.8,27.1-34.1,44.2c-0.6,1.3-0.8,2.8-1.3,4.1c-0.8,1.9-1.8,3.7-2.7,5.6
		c-1.7-1.8-3.7-3.4-4.9-5.5c-4.9-8.9-8.9-18.3-14.4-26.7c-5.4-8.4-12.7-15.5-18.1-23.9c-9-13.8-6.6-30.3,5.1-41.7
		c9.1-8.9,23.1-7,31.4,4.3C396.8,365.6,398.1,367.9,400,370.8z"/>
	<path class="st1" d="M520.4,669.3c-3,3.3-5.2,6-7.7,8.5c-7.3,7.4-17.1,8.5-24.2,2.9c-7-5.5-9.2-18.6-4.1-26.3
		c2.3-3.4,5.1-6.7,8.2-9.3c13.1-11,24.4-23.3,29.2-40.3c0.2-0.8,1.5-2.1,1.9-2c1.2,0.4,3,1.2,3.3,2.2c3.5,15.2,15,25.2,23.6,37.2
		c7.9,11,8,21.8,0.6,31.8c-7.4,10-17.6,10.5-25.8,1.1C523.8,673.5,522.4,671.7,520.4,669.3z"/>
	<path class="st1" d="M59.3,140.6c2.9-3.3,5.3-6.3,7.9-8.9c7.2-7.3,17.2-8.4,24.2-2.6c6.9,5.6,9.2,18.1,4.1,25.7
		c-2.8,4.1-6.3,7.9-10.1,11c-12.6,10.5-22.6,22.6-27.4,38.6c-0.3,0.9-1.7,2.1-2.5,2.1c-0.9,0-2.5-1.2-2.7-2.1
		c-3.4-15-14.7-24.9-23.2-36.7c-8.5-11.7-8.6-22.1-0.9-32.3c7.5-10,17.7-10.4,25.8-0.9C56,136.3,57.4,138.2,59.3,140.6z"/>
	<path class="st1" d="M513.5,738.5c-2.3-2.5-4.5-4.9-6.7-7.4c-7.5-8.9-8.1-18.7-1.5-25.3c6.1-6.2,19.4-6.3,27.1-0.1
		c7.5,6,8.3,18.9,0.5,26.8c-5.2,5.3-6.6,8.9-0.6,14.4c3.7,3.4,6.3,8.2,1.3,13c-6.4,6.2-13,7.2-18.5,3.9
		c-13.1-7.7-10.4-12.3-3.8-21.9C511.9,741,512.6,739.9,513.5,738.5z M519.9,733.7c5.7-4.3,11-8.4,9.9-15.4c-0.5-3-3.5-6.6-6.3-8
		c-4-2.1-9.6-2.6-12.3,2c-1.5,2.5-1.4,7.3-0.1,10.1C513,726.5,516.7,729.8,519.9,733.7z M520.6,745.6c-0.8-0.1-1.7-0.1-2.5-0.2
		c-0.9,2.9-3.5,7.4-2.5,8.5c3.2,3.2,7.6,3.4,12.1-0.3C525.2,750.8,522.9,748.2,520.6,745.6z"/>
	<path class="st1" d="M56.9,71.2c-2.9-3.7-5.5-6.9-7.9-10.3c-3-4.2-2.1-8,2-10.8c2.9-2,6-3.8,9.3-5.2c6.9-3,9.8,3.8,14.3,6.4
		c3.6,2.1,4.5,6,2.4,9.9c-2,3.6-4.2,7.1-6.2,10.4c3.7,5.6,8.2,10.7,10.9,16.7c4.3,9.6-2.2,19.8-12.6,21.4
		c-8.7,1.3-18.3-2.7-21.8-9.2c-3.7-6.9-2-16.3,4.2-23.2C53.1,75.2,55,73.3,56.9,71.2z M63.6,77.1c-5.5,4.3-10.7,8.2-9.7,15
		c0.4,3,3.3,6.7,6.1,8.2c4,2.2,9.6,2.7,12.4-1.8c1.6-2.5,1.4-7.3,0.1-10.1C70.5,84.2,66.8,80.9,63.6,77.1z M63.1,65.1
		c0.8,0.1,1.6,0.2,2.4,0.3c0.9-2.9,3.5-7.4,2.5-8.4c-3.1-3.1-7.5-3.1-12,0.2C58.5,60,60.8,62.5,63.1,65.1z"/>
	<path class="st0" d="M519.9,733.7c-3.2-3.9-6.9-7.2-8.8-11.3c-1.3-2.8-1.5-7.6,0.1-10.1c2.7-4.5,8.3-4.1,12.3-2
		c2.8,1.5,5.8,5,6.3,8C530.8,725.4,525.6,729.4,519.9,733.7z"/>
	<path class="st0" d="M520.6,745.6c2.3,2.6,4.6,5.1,7.1,7.9c-4.5,3.7-8.9,3.6-12.1,0.3c-1-1,1.5-5.5,2.5-8.5
		C518.9,745.5,519.8,745.6,520.6,745.6z"/>
	<path class="st0" d="M63.6,77.1c3.1,3.8,6.9,7.1,8.8,11.2c1.3,2.8,1.5,7.6-0.1,10.1c-2.8,4.5-8.4,4-12.4,1.8
		c-2.8-1.5-5.6-5.2-6.1-8.2C52.9,85.3,58.2,81.4,63.6,77.1z"/>
	<path class="st0" d="M63.1,65.1c-2.3-2.5-4.5-5-7.1-7.9c4.5-3.3,8.9-3.4,12-0.2c1,1-1.6,5.5-2.5,8.4C64.6,65.2,63.8,65.2,63.1,65.1
		z"/>
</g>
</svg>
