<?xml version="1.0" encoding="utf-8"?>
<!-- Generator: Adobe Illustrator 24.0.0, SVG Export Plug-In . SVG Version: 6.00 Build 0)  -->
<svg version="1.0" id="Layer_1" xmlns="http://www.w3.org/2000/svg" xmlns:xlink="http://www.w3.org/1999/xlink" x="0px" y="0px"
	 viewBox="0 0 578.6 809.5" style="enable-background:new 0 0 578.6 809.5;" xml:space="preserve">
<style type="text/css">
	.st0{fill:#FDFDFD;}
	.st1{fill:#030303;}
</style>
<g>
	<path class="st0" d="M0,770.5C0,526.7,0,282.9,0,39C0,17.5,17.5,0,39,0h500.6c21.5,0,39,17.5,39,39v731.5c0,21.5-17.5,39-39,39H39
		C17.5,809.5,0,792,0,770.5z M182.7,192.9c0,0.1,0,0.3,0,0.4c3.3,0,6.7,0.3,10-0.1c2.2-0.3,5.5-1.3,6-2.7c0.5-1.8-1.3-4.3-2.2-6.5
		c-0.3-0.7-1.4-1-1.8-1.7c-0.6-1-0.9-2.1-1.3-3.2c1.3-0.3,2.6-0.9,3.8-0.7c2.7,0.5,5.2,1.7,7.8,2.1c7.2,0.9,14.3,0.8,19.9-4.8
		c15.9-15.7,11.9-41.7-7.8-51.5c-1.3-0.6-2.7-1.2-3.9-1.9c-14.1-7.8-22.9-19-23-35.9c0-1.7-1.8-3.3-2.8-5c-1,1.8-2.6,3.5-2.8,5.4
		c-0.5,3,1.1,6.8-0.3,9.2c-5.5,9.8-11.4,20-23.9,21.9c-16.2,2.5-25.3,12.2-30.1,27.2c-2.1,6.5-1.5,12.2,2.3,17.8
		c8.3,12.3,18.1,16.5,32.7,13.8c2-0.4,4.2-0.1,6.3-0.1c-0.7,2.3-1.2,4.6-2,6.9c-0.3,1-1.1,1.7-1.7,2.6c-2.6,4.2-1.3,6.6,3.6,6.8
		C175.2,193,179,192.9,182.7,192.9z M398.1,192.9c0,0.1,0,0.3,0,0.4c4,0,7.9,0.2,11.9,0c4.5-0.3,6.1-3.4,3.5-7.3
		c-0.9-1.4-2.4-2.3-3.4-3.6c-0.7-0.9-0.9-2.1-1.4-3.1c1.3-0.3,2.6-0.9,3.8-0.8c2,0.3,4,1.3,6,1.7c8.5,1.5,16.8,1.5,23-5.8
		c14.9-17.4,10.2-40.7-10.1-50.7c-1.7-0.8-3.5-1.5-5-2.5c-12.6-7.9-20.6-18.6-20.8-34.1c0-1.9-1.8-3.8-2.7-5.7c-1,2-2.5,3.9-2.9,6
		c-0.6,3.2,0.7,7.2-0.7,9.7c-6.1,10.6-13.4,19.6-27,21.9c-15.1,2.5-26.3,15.9-27.7,31.2c-0.3,2.8,0.2,5.6,1.2,8.2
		c5.3,13.4,16.8,20.2,31.2,18.7c3.3-0.3,6.7-0.3,10-0.5c-1.3,3.3-2.5,6.8-4.1,9.9c-2,3.9-0.9,6.1,3.4,6.4
		C390.2,193.1,394.2,192.9,398.1,192.9z M290.3,323.3c0,0.1,0,0.3,0,0.4c4,0,7.9,0.2,11.9,0c4.6-0.2,6.1-3.4,3.7-7.2
		c-0.9-1.4-2.4-2.3-3.4-3.6c-0.7-0.9-1-2.1-1.4-3.1c1.2-0.3,2.5-1,3.7-0.9c2,0.3,4,1.4,6,1.7c8.5,1.5,16.8,1.6,23.1-5.7
		c15-17.4,10.3-40.8-10-50.8c-1.7-0.8-3.5-1.5-5-2.5c-12.6-7.9-20.6-18.6-20.9-34.1c0-2-1.7-3.9-2.7-5.8c-1,2-2.6,3.8-3,5.9
		c-0.6,3.2,0.8,7.2-0.7,9.7c-6.1,10.6-13.3,19.7-27,22c-15.1,2.5-26.2,15.7-27.8,31.1c-0.3,2.8,0.1,5.7,1.1,8.3
		c5.3,13.4,16.8,20.2,31.2,18.8c3.3-0.3,6.7-0.4,10.1-0.6c-1.3,3.3-2.4,6.8-4,10c-1.9,4-0.8,6.3,3.9,6.5
		C282.8,323.4,286.6,323.3,290.3,323.3z M182.9,454.8c0,0.1,0,0.3,0,0.4c2.7,0,5.5,0.3,8.1-0.1c2.7-0.4,5.2-1.4,7.8-2.2
		c-1.1-2.7-2.2-5.4-3.4-8c-0.6-1.4-1.4-2.7-2-4c1.5-0.1,3.1-0.5,4.5-0.3c1.8,0.3,3.6,1.1,5.4,1.5c12.3,2.8,20.6-0.8,26.8-11.7
		c10.1-17.7,4.9-35.5-13.2-44.4c-2.1-1-4.2-1.8-6.2-3.1c-12.3-7.9-20.3-18.4-20.6-33.6c-0.1-2.1-1.5-4.1-2.3-6.1
		c-1.1,2.3-2.8,4.4-3.3,6.8c-0.8,3.1,0.3,7-1.2,9.6c-6.1,10.8-13.8,19.3-27.4,21.4c-15.9,2.4-22.2,14.8-26.3,28.5
		c-3,10,3.4,16.6,9.5,23c7,7.3,16,7,25.1,6.2c2.5-0.2,4.9,0,7.4-0.1c-0.9,2.6-1.8,5.3-2.7,7.9c-0.1,0.4-0.6,0.7-0.7,1
		c-0.5,1.7-1.8,4.1-1.1,4.9c1,1.3,3.4,2,5.2,2.2C175.8,455.1,179.3,454.8,182.9,454.8z M297.8,506c1.7-3.2,3.7-7,5.5-10.8
		c0.8-1.8,2.3-4.6,1.6-5.4c-1.2-1.4-3.8-2.1-5.8-2.3c-6.2-0.4-12.5-0.7-18.7-0.4c-2.4,0.1-4.6,1.7-7,2.7c1.1,2.3,1.9,4.9,3.4,6.9
		c2.9,3.8,6.2,7.3,10.2,11.9c-6-3-10.3-6.1-15-7.3c-11.7-2.9-23.1-1.6-29.5,9.6c-10.6,18.6-5.3,36.1,14.5,45.9
		c15.4,7.6,24.9,19.2,25.2,37.1c0,1.6,1.8,3.1,2.7,4.7c0.9-1.7,2.4-3.2,2.6-5c0.5-3.4-0.8-7.7,0.8-10.4c6-10.6,13-19.8,26.7-22.1
		c15.5-2.6,26.1-15.5,28-31.1c0.2-1.8,0.1-3.7-0.3-5.5c-2.9-11.6-14.2-21-26.1-21C310.5,503.6,304.5,505.1,297.8,506z M178.3,637.9
		c-0.5,0.5-0.3,0.4-0.8,0.9c-1.3-0.9-2.6-1.8-3.8-2.8c-7.6-5.8-16.8-7.1-25.3-5.1c-17.9,4.3-25.4,34.7-11.9,47.5
		c4.5,4.3,10.6,7.1,16,10.3c11.7,7,20,16.3,21.7,30.3c0.3,2.5,0.1,5,0.5,7.5c0.2,0.9,1.5,2.2,2.3,2.3c0.8,0.1,2.2-1.1,2.6-2
		c0.5-1.3,0.5-2.9,0.5-4.3c-0.1-13.5,10.6-27.2,24.1-29.9c13.5-2.7,22.5-9.5,28.3-22.6c5.9-13.4,2.5-23.3-11.4-32.8
		c-9.4-6.4-20.1-4.4-31.9,1.1c2.8-5.4,4.9-9.1,6.7-13c0.8-1.7,2-4.2,1.3-5.4c-0.8-1.3-3.4-1.9-5.3-2c-6.2-0.4-12.5-0.6-18.7-0.4
		c-2.4,0.1-4.8,1.6-7.1,2.4c1.1,2.5,1.9,5.2,3.5,7.4C172.1,631,175.3,634.4,178.3,637.9z M400.3,434.8c0.5-0.6,0.4-0.4,0.9-1
		c1.5,1.1,2.9,2.4,4.6,3.3c9.2,5,18.9,9.1,28.9,2.9c11.7-7.3,14.6-18.9,13.9-32c-0.6-11.5-8.5-16.7-17.6-21.2
		c-13.7-6.8-23.9-16.5-26.2-32.5c-0.4-2.5-0.1-5-0.5-7.5c-0.2-1.2-1.5-2.1-2.3-3.2c-1,1.1-2.3,2-3,3.3c-0.5,0.8-0.2,2-0.2,3.1
		c0.1,14.1-11.2,27.8-24.9,30.3c-16.7,3-28.4,15.2-30.4,31.8c-0.2,1.8-0.1,3.7,0.3,5.5c2.9,11.6,14.2,21,26.1,21.1
		c6.1,0,12.1-1.5,18.9-2.4c-1.8,3.4-4,7.3-5.9,11.3c-0.8,1.6-2,4.1-1.4,4.9c1,1.3,3.4,2.2,5.2,2.3c6.4,0.4,12.9,0.6,19.4,0.4
		c2.4-0.1,4.7-1.7,7-2.6c-1.1-2.3-1.8-4.9-3.4-6.9C406.8,441.7,403.4,438.3,400.3,434.8z M394.3,638.2c-6.9-2.9-12.4-6.1-18.3-7.6
		c-7.4-1.8-14.8-1.3-20.8,4.9c-15.9,16.2-12.2,40.8,8.2,50.8c15.9,7.8,26.7,19.1,26.6,38.1c0,1.5,1.5,2.9,2.3,4.4
		c1-1.5,2.7-3,2.9-4.7c0.4-3-1.1-6.8,0.2-9.2c5.5-10.1,11.4-20.5,24.3-22.4c17.9-2.6,26.4-14.5,30.6-30.5c0.8-3.1,0.4-7.3-1.1-10.2
		c-5.4-10.5-12.9-18.8-26-18c-5.6,0.3-11.2,1.6-17.8,2.6c2.1-3.9,4-7.8,6.2-11.6c2.8-4.7,1.7-6.8-3.8-7c-6.7-0.2-13.3-0.5-20-0.3
		c-2.2,0.1-4.4,1.5-6.5,2.4c0.9,2.3,1.5,5,2.9,7C387.2,630.8,390.7,634.2,394.3,638.2z M54.4,190.1c-2,3.7-3.2,6.1-4.6,8.3
		c-2.3,3.6-1.3,5.5,2.9,5.7c5.6,0.2,11.3,0.4,16.9,0.3c1.5,0,3.9-0.8,4.1-1.7c0.4-1.5-0.5-3.4-1.1-5c-0.5-1.3-1.4-2.5-2.9-5
		c3.2,0.6,4.7,0.9,6.2,1.3c11.6,3,20-0.9,23.8-12.2c4.4-13,2.7-25.1-11.8-31.2c-12.7-5.4-20.6-14.6-20.6-29.3c0-1.2-1.5-2.4-2.3-3.7
		c-0.8,1.2-2.1,2.4-2.3,3.8c-0.7,3.2,0,6.9-1.4,9.6c-4.3,8.2-10.4,14.4-20.4,15.7c-3.2,0.4-6.3,2.1-9.2,3.8
		c-7.5,4.4-13.8,19.1-11.4,26.1c3.4,10.4,13.3,16.5,25.1,15.3C47.7,191.6,50.1,190.9,54.4,190.1z M509.9,618.1
		c-3.3-0.8-5.4-1.5-7.6-1.9c-7.2-1.3-13.7-0.4-18.5,5.9c-10.2,13.3-6.5,30.2,8.2,37.8c1.3,0.7,2.7,1.2,3.9,1.9
		c10,5.9,16.3,14,16.7,26.1c0,1.7,1.5,3.3,2.2,5c0.8-1.6,2.4-3.2,2.4-4.9c0.5-11.6,7.9-21.2,19.3-23.4c10.5-2.1,17.4-7.7,21.4-17.8
		c5-12.6-2.8-26.7-16.4-27.9c-4.8-0.4-9.7-0.1-14.6-0.1c0,0.2-0.2-0.2,0-0.6c1.1-3.7,2.3-7.4,3.4-11.1c-4.2-0.3-8.5-0.6-12.7-1
		c-0.2,0-0.7,0-0.9,0C504.1,606,504.1,606,509.9,618.1z M58.3,78.3c-0.7,1-2.3,3.2-3.7,5.5c-3.5,5.9-3,12.6,1.1,16.7
		c4.1,4.1,11.7,4.9,17.5,1.9c4.9-2.5,8.4-9.2,5.6-15c-3.9-8-5.5-15.4-3.5-24.3c1.3-5.7-7.2-12.1-13.6-11.9
		c-5.7,0.2-10.1,5.2-9.2,12.4C53.2,68.1,55.9,72.4,58.3,78.3z M525.5,732.3c0.6-0.9,2.2-3,3.6-5.3c3.6-5.9,3.1-12.6-1-16.7
		c-4.1-4.1-11.6-5-17.5-2c-5,2.5-8.4,9.1-5.7,15c3.7,8,5.8,15.3,3.5,24.3c-1.4,5.6,7.1,12.2,13.5,12.1c5.8-0.1,10.2-5.1,9.3-12.4
		C530.6,742.6,527.9,738.3,525.5,732.3z"/>
	<path class="st1" d="M182.7,192.9c-3.7,0-7.5,0.1-11.2,0c-5-0.2-6.2-2.6-3.6-6.8c0.5-0.9,1.3-1.7,1.7-2.6c0.8-2.2,1.4-4.6,2-6.9
		c-2.1,0-4.2-0.3-6.3,0.1c-14.6,2.7-24.4-1.5-32.7-13.8c-3.8-5.6-4.4-11.3-2.3-17.8c4.8-15,13.8-24.7,30.1-27.2
		c12.5-1.9,18.4-12.1,23.9-21.9c1.3-2.3-0.2-6.1,0.3-9.2c0.3-1.9,1.9-3.6,2.8-5.4c1,1.7,2.8,3.3,2.8,5c0.1,16.9,8.9,28.1,23,35.9
		c1.3,0.7,2.6,1.3,3.9,1.9c19.8,9.8,23.8,35.9,7.8,51.5c-5.6,5.5-12.7,5.7-19.9,4.8c-2.7-0.3-5.2-1.6-7.8-2.1
		c-1.2-0.2-2.5,0.4-3.8,0.7c0.4,1.1,0.7,2.2,1.3,3.2c0.4,0.7,1.5,1,1.8,1.7c1,2.1,2.8,4.7,2.2,6.5c-0.4,1.4-3.8,2.4-6,2.7
		c-3.3,0.4-6.6,0.1-10,0.1C182.7,193.2,182.7,193.1,182.7,192.9z"/>
	<path class="st1" d="M398.1,192.9c-4,0-7.9,0.2-11.9-0.1c-4.2-0.3-5.3-2.5-3.4-6.4c1.6-3.2,2.7-6.6,4.1-9.9
		c-3.3,0.2-6.7,0.2-10,0.5c-14.4,1.5-25.9-5.2-31.2-18.7c-1-2.4-1.4-5.3-1.2-7.9c1.3-15.4,12.5-29,27.7-31.5
		c13.6-2.3,20.9-11.3,27-21.9c1.5-2.5,0.1-6.5,0.7-9.7c0.4-2.1,1.9-4,2.9-6c1,1.9,2.7,3.8,2.7,5.7c0.2,15.6,8.3,26.2,20.8,34.1
		c1.6,1,3.4,1.7,5,2.5c20.4,10,25.1,33.3,10.1,50.7c-6.2,7.3-14.5,7.2-23,5.8c-2-0.4-4-1.4-6-1.7c-1.2-0.2-2.5,0.5-3.8,0.8
		c0.4,1.1,0.7,2.2,1.4,3.1c1,1.3,2.5,2.3,3.4,3.6c2.5,3.8,1,7-3.5,7.3c-3.9,0.2-7.9,0-11.9,0C398.1,193.2,398.1,193,398.1,192.9z"/>
	<path class="st1" d="M290.3,323.3c-3.7,0-7.5,0.1-11.2,0c-4.6-0.2-5.8-2.5-3.9-6.5c1.6-3.2,2.7-6.6,4-10c-3.4,0.2-6.7,0.2-10.1,0.6
		c-14.4,1.5-25.9-5.3-31.2-18.8c-1-2.4-1.4-5.3-1.2-7.9c1.4-15.5,12.5-28.9,27.8-31.5c13.6-2.3,20.9-11.3,27-22
		c1.4-2.5,0.1-6.5,0.7-9.7c0.4-2.1,2-4,3-5.9c0.9,1.9,2.6,3.9,2.7,5.8c0.3,15.6,8.3,26.2,20.9,34.1c1.6,1,3.4,1.7,5,2.5
		c20.3,10,25,33.4,10,50.8c-6.3,7.3-14.6,7.2-23.1,5.7c-2-0.4-4-1.4-6-1.7c-1.2-0.2-2.5,0.5-3.7,0.9c0.5,1,0.8,2.2,1.4,3.1
		c1,1.3,2.5,2.3,3.4,3.6c2.5,3.8,0.9,7-3.7,7.2c-3.9,0.2-7.9,0-11.9,0C290.3,323.5,290.3,323.4,290.3,323.3z"/>
	<path class="st1" d="M182.9,454.8c-3.5,0-7.1,0.2-10.6-0.1c-1.9-0.2-4.2-0.9-5.2-2.2c-0.7-0.8,0.6-3.2,1.1-4.9
		c0.1-0.4,0.6-0.7,0.7-1c0.9-2.6,1.8-5.3,2.7-7.9c-2.5,0-5-0.1-7.4,0.1c-9.1,0.7-18.1,1-25.1-6.2c-6.1-6.4-12.5-13-9.5-23
		c4.1-13.8,10.5-26.2,26.3-28.5c13.5-2,21.3-10.6,27.4-21.4c1.5-2.6,0.4-6.5,1.2-9.6c0.6-2.4,2.2-4.6,3.3-6.8c0.8,2,2.3,4.1,2.3,6.1
		c0.4,15.3,8.3,25.8,20.6,33.6c1.9,1.2,4.1,2,6.2,3.1c18.1,9,23.3,26.7,13.2,44.4c-6.2,10.8-14.6,14.5-26.8,11.7
		c-1.8-0.4-3.6-1.3-5.4-1.5c-1.5-0.2-3,0.2-4.5,0.3c0.7,1.3,1.4,2.7,2,4c1.2,2.6,2.3,5.3,3.4,8c-2.6,0.8-5.2,1.8-7.8,2.2
		c-2.7,0.4-5.4,0.1-8.1,0.1C182.9,455.1,182.9,455,182.9,454.8z"/>
	<path class="st1" d="M297.8,506c6.7-0.9,12.7-2.4,18.8-2.4c11.9,0.1,23,9.2,26,20.7c0.5,1.8,0.7,3.7,0.5,5.5
		c-1.8,15.7-12.4,28.8-28,31.4c-13.7,2.3-20.7,11.6-26.7,22.1c-1.5,2.7-0.2,6.9-0.8,10.4c-0.3,1.8-1.7,3.3-2.6,5
		c-0.9-1.6-2.7-3.1-2.7-4.7c-0.2-18-9.8-29.5-25.2-37.1c-19.8-9.8-25.1-27.3-14.5-45.9c6.4-11.2,17.8-12.5,29.5-9.6
		c4.7,1.2,8.9,4.3,15,7.3c-4-4.7-7.3-8.1-10.2-11.9c-1.5-2-2.3-4.6-3.4-6.9c2.3-0.9,4.6-2.6,7-2.7c6.2-0.3,12.5,0,18.7,0.4
		c2.1,0.1,4.6,0.9,5.8,2.3c0.7,0.7-0.8,3.6-1.6,5.4C301.5,499.1,299.5,502.8,297.8,506z"/>
	<path class="st1" d="M178.4,638c-3-3.5-6.3-6.9-9-10.7c-1.6-2.2-2.4-4.9-3.5-7.4c2.4-0.8,4.7-2.3,7.1-2.4c6.2-0.2,12.5,0,18.7,0.4
		c1.9,0.1,4.6,0.7,5.3,2c0.7,1.2-0.5,3.7-1.3,5.4c-1.8,3.9-3.9,7.6-6.7,13c11.8-5.5,22.5-7.5,31.9-1.1c14,9.5,17.3,19.4,11.4,32.8
		c-5.8,13.1-14.8,19.9-28.3,22.6c-13.5,2.7-24.2,16.4-24.1,29.9c0,1.4,0.1,3-0.5,4.3c-0.4,0.9-1.7,2.1-2.6,2
		c-0.9-0.1-2.2-1.4-2.3-2.3c-0.4-2.4-0.2-5-0.5-7.5c-1.7-14.1-10-23.4-21.7-30.3c-5.5-3.3-11.5-6-16-10.3
		c-13.4-12.8-6-43.2,11.9-47.5c8.5-2,17.7-0.7,25.3,5.1c1.3,1,2.6,1.9,3.8,2.8C177.8,638.5,178.1,638.3,178.4,638z"/>
	<path class="st1" d="M400.3,434.8c3.1,3.5,6.4,6.9,9.3,10.7c1.5,2,2.3,4.6,3.4,6.9c-2.3,0.9-4.6,2.5-7,2.6
		c-6.4,0.2-12.9,0-19.4-0.4c-1.8-0.1-4.2-0.9-5.2-2.3c-0.6-0.8,0.6-3.3,1.4-4.9c2-4,4.1-7.9,5.9-11.3c-6.8,0.9-12.8,2.4-18.9,2.4
		c-11.8-0.1-23-9.3-26-20.7c-0.5-1.8-0.7-3.7-0.5-5.5c1.9-16.8,13.6-29.1,30.4-32.1c13.7-2.5,25-16.2,24.9-30.3c0-1-0.3-2.3,0.2-3.1
		c0.7-1.2,2-2.2,3-3.3c0.8,1.1,2.1,2,2.3,3.2c0.5,2.4,0.2,5,0.5,7.5c2.4,15.9,12.6,25.7,26.2,32.5c9.1,4.5,17,9.7,17.6,21.2
		c0.7,13-2.2,24.7-13.9,32c-10,6.2-19.7,2.1-28.9-2.9c-1.6-0.9-3.1-2.2-4.6-3.3C400.9,434.1,400.6,434.4,400.3,434.8z"/>
	<path class="st1" d="M394.3,638.2c-3.6-4-7.1-7.5-10-11.4c-1.5-1.9-2-4.6-2.9-7c2.2-0.8,4.3-2.3,6.5-2.4c6.7-0.2,13.3,0.1,20,0.3
		c5.5,0.2,6.5,2.3,3.8,7c-2.2,3.8-4.2,7.7-6.2,11.6c6.6-1,12.2-2.3,17.8-2.6c13.2-0.7,20.7,7.5,26,18c1.5,2.9,1.9,7.1,1.1,10.2
		c-4.2,16-12.7,27.9-30.6,30.5c-12.9,1.9-18.8,12.2-24.3,22.4c-1.3,2.4,0.3,6.2-0.2,9.2c-0.2,1.7-1.9,3.1-2.9,4.7
		c-0.8-1.5-2.3-2.9-2.3-4.4c0-19-10.7-30.2-26.6-38.1c-20.4-10-24.1-34.7-8.2-50.8c6.1-6.2,13.4-6.7,20.8-4.9
		C381.9,632.1,387.4,635.3,394.3,638.2z"/>
	<path class="st1" d="M54.4,190.1c-4.3,0.8-6.7,1.4-9.1,1.7c-11.8,1.2-21.7-4.8-25.1-15.3c-2.3-7,3.9-21.6,11.4-26.1
		c2.8-1.7,6-3.4,9.2-3.8c10-1.3,16.1-7.5,20.4-15.7c1.4-2.7,0.7-6.4,1.4-9.6c0.3-1.4,1.5-2.5,2.3-3.8c0.8,1.2,2.3,2.4,2.3,3.7
		c-0.1,14.7,7.9,23.9,20.6,29.3c14.5,6.2,16.2,18.2,11.8,31.2c-3.8,11.3-12.2,15.2-23.8,12.2c-1.5-0.4-3.1-0.6-6.2-1.3
		c1.5,2.5,2.4,3.7,2.9,5c0.6,1.6,1.5,3.5,1.1,5c-0.2,0.9-2.7,1.7-4.1,1.7c-5.6,0.1-11.3-0.1-16.9-0.3c-4.2-0.2-5.1-2.1-2.9-5.7
		C51.2,196.2,52.3,193.9,54.4,190.1z"/>
	<path class="st1" d="M509.9,618.1c-5.8-12.1-5.8-12.1,6.8-11.9c0.2,0,0.4,0,0.6,0c4.3,0.3,8.7,0.6,13,1c-1.1,3.7-2.3,7.4-3.4,11.1
		c-0.1,0.3,0.1,0.8,0,0.6c4.9,0,9.8-0.4,14.6,0.1c13.6,1.2,21.4,15.3,16.4,27.9c-4,10.1-10.9,15.7-21.4,17.8
		c-11.4,2.3-18.8,11.8-19.3,23.4c-0.1,1.7-1.6,3.3-2.4,4.9c-0.8-1.7-2.2-3.3-2.2-5c-0.4-12.1-6.7-20.3-16.7-26.1
		c-1.3-0.7-2.6-1.3-3.9-1.9c-14.8-7.5-18.4-24.5-8.2-37.8c4.9-6.3,11.3-7.2,18.5-5.9C504.5,616.6,506.6,617.3,509.9,618.1z"/>
	<path class="st1" d="M58.3,78.3c-2.4-5.9-5.1-10.2-5.7-14.8c-0.9-7.2,3.4-12.3,9.2-12.4c6.4-0.2,14.9,6.3,13.6,11.9
		c-2.1,9-0.4,16.3,3.5,24.3c2.8,5.9-0.7,12.5-5.6,15c-5.8,3-13.4,2.2-17.5-1.9c-4.2-4.1-4.7-10.8-1.1-16.7
		C56,81.5,57.6,79.3,58.3,78.3z M66.6,81c-6.7,5.6-9.1,11.8-5.4,14.1c2.4,1.4,7,1.4,9.4-0.1C74.3,92.7,72.1,85.9,66.6,81z M61.2,59
		c-3,7.2-1.4,10.5,5.2,11C69.9,62.1,69.5,61.4,61.2,59z"/>
	<path class="st1" d="M525.5,732.3c2.4,6,5.1,10.3,5.6,14.9c0.9,7.3-3.5,12.3-9.3,12.4c-6.4,0.1-14.9-6.4-13.5-12.1
		c2.3-9,0.2-16.3-3.5-24.3c-2.7-5.9,0.7-12.5,5.7-15c5.9-3,13.5-2.1,17.5,2c4.1,4.2,4.6,10.8,1,16.7
		C527.7,729.2,526.1,731.4,525.5,732.3z M517.1,729.8c4.1-3.4,7.8-6.9,6.5-12.5c-0.4-1.6-3.4-3.6-5-3.4c-2.3,0.2-5.7,1.7-6.4,3.4
		C510.3,722.3,512.7,726.4,517.1,729.8z M522.4,751.7c3-6.7,2-9.2-4.5-11.5C513.5,747.5,514.1,749,522.4,751.7z"/>
	<path class="st0" d="M66.6,81c5.5,4.8,7.7,11.7,4,14c-2.3,1.5-7,1.5-9.4,0.1C57.5,92.8,60,86.6,66.6,81z"/>
	<path class="st0" d="M61.2,59c8.3,2.4,8.7,3.1,5.2,11C59.8,69.5,58.2,66.2,61.2,59z"/>
	<path class="st0" d="M517.1,729.8c-4.5-3.4-6.8-7.5-4.9-12.5c0.7-1.8,4.1-3.3,6.4-3.4c1.7-0.1,4.7,1.9,5,3.4
		C524.9,722.9,521.3,726.4,517.1,729.8z"/>
	<path class="st0" d="M522.4,751.7c-8.4-2.6-9-4.1-4.5-11.5C524.5,742.4,525.5,744.9,522.4,751.7z"/>
</g>
</svg>
