<?xml version="1.0" encoding="utf-8"?>
<!-- Generator: Adobe Illustrator 24.0.0, SVG Export Plug-In . SVG Version: 6.00 Build 0)  -->
<svg version="1.0" id="Layer_1" xmlns="http://www.w3.org/2000/svg" xmlns:xlink="http://www.w3.org/1999/xlink" x="0px" y="0px"
	 viewBox="0 0 578.6 809.5" style="enable-background:new 0 0 578.6 809.5;" xml:space="preserve">
<style type="text/css">
	.st0{fill:#FCFCFC;}
	.st1{fill:#070707;}
</style>
<g>
	<path class="st0" d="M39,0h500.6c21.5,0,39,17.5,39,39v731.5c0,21.5-17.5,39-39,39H39c-21.5,0-39-17.5-39-39V39C0,17.5,17.5,0,39,0
		z M166.2,140.3c0.6,0.6,0.6,0.6,1.2,1.2c-1.7,3.6-2.9,7.7-5.4,10.8c-3.2,4-7.7,7-11.3,10.7c-1.1,1.1-1.9,3.2-1.8,4.7
		c0.1,0.8,2.5,1.9,4,2c10.4,0.7,20.8,1.5,31.2,1.7c3.8,0.1,7.7-0.8,11.4-1.7c1.3-0.3,2.4-1.9,3.5-2.8c-0.9-1.1-1.6-2.3-2.7-3.1
		c-5.2-3.8-10.8-7.2-15.8-11.2c-3.9-3.1-7-7-5-13.3c1.4,0.8,2.4,1.4,3.3,2.1c8.4,6.6,18.1,9.6,28.6,8.8c3.8-0.3,8.3-2.1,11.1-4.7
		c9.5-8.9,10.3-30.2,1.6-39.9c-2.7-3.1-6.9-5.4-10.8-6.7c-3.7-1.3-8-0.8-12.2-1.2c0.3-2.2,0.8-4.2,0.9-6.3
		c0.3-8.8,0.8-17.8-6.1-24.7c-6.8-6.8-21.8-8.7-31.2-4.1c-9.5,4.6-14.5,14-13.4,25.3c0.5,4.6,1.4,9.2,2.2,14.5
		c-3.2-0.4-5.5-0.6-7.7-0.9c-16.1-2.6-27.3,8.3-27.5,24.7c-0.2,12,18.5,26.6,32.7,22C153.6,145.9,159.8,142.9,166.2,140.3z
		 M406.8,142.8c0.6,0.6,0.6,0.6,1.2,1.2c-1.8,3.7-3.1,7.9-5.6,11c-3.3,4-7.7,7-11.4,10.6c-1.1,1-2.3,3.4-1.9,4.1
		c0.8,1.3,2.8,2.3,4.4,2.5c10.4,0.8,20.8,1.5,31.2,1.8c3.8,0.1,7.7-0.9,11.4-1.7c1.2-0.3,2.2-1.6,3.3-2.4c-0.9-1.2-1.6-2.8-2.8-3.7
		c-5.2-3.8-10.8-7.2-15.8-11.3c-3.8-3.1-7-7-5-12.8c17.8,9.6,22.2,11.5,31.5,10.5c4.1-0.4,8.8-2.2,11.6-4.9
		c9.3-8.8,10.2-29.7,1.8-39.4c-3-3.4-7.6-5.7-11.9-7.3c-3.4-1.3-7.5-0.7-11.5-0.9c0.4-2.4,0.9-4.4,1-6.5c0.3-8.8,0.8-17.8-6.2-24.6
		c-6.9-6.8-21.9-8.6-31.2-3.9c-9.5,4.7-14.4,14-13.2,25.4c0.5,4.6,1.4,9.2,2.1,14.4c-3.3-0.4-5.6-0.7-7.8-1
		c-15.7-2.5-26.9,8.2-27.3,24.2c-0.3,12.9,18.9,27.1,32.9,22.4C394.3,148.3,400.5,145.3,406.8,142.8z M175.5,325.7
		c9.1,7.6,18.7,11.3,29.7,11.5c8,0.2,13.6-3.3,17.2-10.2c4.6-8.9,4.4-18.1,1.6-27.4c-3-9.9-12.2-16-22.5-15
		c-1.3,0.1-2.7,0.2-4.6,0.4c0.4-2.6,0.8-4.6,0.9-6.6c0.4-8.8,0.9-17.7-5.8-24.8c-6.6-6.9-21.7-8.9-31.1-4.5
		c-9.6,4.5-14.8,14-13.7,25.1c0.5,4.7,1.4,9.3,2.3,14.7c-3.8-0.5-6.9-0.8-9.9-1.3c-10.9-1.8-17.5,2.1-22.4,13.3
		c-4.8,11-3.1,20.1,4.8,26.6c12.2,10,23,10.4,38.1,2c1.8-1,3.7-1.9,5.5-2.9c0.9,0.8,0.9,0.8,1.7,1.7c-1.7,3.5-2.8,7.5-5.2,10.4
		c-3.3,4-7.6,7-11.3,10.7c-1.2,1.2-2.5,3.4-2.1,4.6c0.3,1.1,2.8,2.1,4.4,2.3c10.4,0.8,20.8,1.5,31.2,1.8c3.6,0.1,7.3-0.8,10.8-1.6
		c1.4-0.3,2.6-1.7,3.9-2.6c-1-1.2-1.8-2.7-3-3.6c-5.2-3.8-10.8-7.2-15.8-11.3C176.5,336.1,173.6,332.2,175.5,325.7z M406.7,328.4
		c0.6,0.6,0.6,0.6,1.2,1.2c-1.7,3.6-2.8,7.6-5.2,10.6c-3.3,4-7.7,7-11.3,10.7c-1.2,1.2-2.4,3.4-2.1,4.6c0.3,1.1,2.8,2.1,4.4,2.2
		c10.4,0.8,20.8,1.5,31.2,1.8c3.4,0.1,6.9-0.7,10.2-1.5c1.6-0.4,3-1.8,4.4-2.8c-1.2-1.3-2.2-2.9-3.6-3.9c-5-3.7-10.4-7-15.2-10.9
		c-5.2-4.3-6-7.4-4.1-13c8.5,7.1,18.2,10.8,29.2,11.1c8,0.2,13.6-3.4,17.2-10.3c4.6-8.9,4.4-18.1,1.6-27.4c-3-9.9-12.3-16-22.5-15
		c-1.3,0.1-2.7,0.2-4.5,0.4c0.4-2.6,0.8-4.6,0.9-6.6c0.4-8.8,0.9-17.7-5.9-24.8c-6.6-6.9-21.7-8.9-31.1-4.4
		c-9.5,4.5-14.8,14-13.6,25.1c0.5,4.7,1.4,9.3,2.2,14.6c-3.2-0.4-5.7-0.5-8.1-0.9c-15.4-2.5-26.6,8.1-27.1,23.9
		c-0.5,13.8,19.3,27.5,33.1,22.8C394.3,333.8,400.5,330.9,406.7,328.4z M189.8,519.2c4.1,0.6,7,1,9.8,1.5c11,1.8,17.5-2,22.5-13.2
		c5-11.3,3.1-20.3-5.2-27c-12.2-9.9-23.2-9.7-37.6-1.7c-1.8,1-3.7,2-5.5,3c-0.9-0.8-0.9-0.8-1.8-1.7c1.6-3.5,2.7-7.5,5.1-10.5
		c3.2-4,7.6-7,11.3-10.7c1.2-1.2,1.7-3.1,2.5-4.7c-1.5-0.8-3.1-2.1-4.6-2.3c-10.4-0.8-20.8-1.5-31.2-1.8c-3.6-0.1-7.3,0.8-10.8,1.6
		c-1.4,0.3-2.6,1.7-3.9,2.6c1.1,1.3,2.1,3,3.5,4c5,3.7,10.4,7,15.2,10.9c5.2,4.2,6,7.3,4.3,13c-0.9-0.6-1.8-1.1-2.5-1.7
		c-8.3-6.7-18-9.4-28.5-9.3c-5.6,0.1-10.1,2.4-13.3,7c-6.6,9.3-6.8,19.4-3.9,29.9c2.7,9.5,9.7,15.2,19.5,15.7
		c2.4,0.1,4.8-0.3,7.8-0.5c-0.4,2.5-0.8,4.5-0.9,6.5c-0.4,8.6-0.9,17.3,5.3,24.4c6.2,7,21.3,9.4,30.9,5.3
		c9.8-4.2,15.5-14.1,14.3-25.3C191.6,529.5,190.7,524.9,189.8,519.2z M382.9,524.7c-0.4,2.5-0.8,4.5-0.9,6.5
		c-0.4,8.8-0.9,17.7,5.8,24.8c6.6,6.9,21.7,8.9,31.1,4.4c9.6-4.5,14.8-14,13.6-25.1c-0.5-4.7-1.4-9.3-2.3-14.7
		c3.9,0.5,6.9,0.8,9.9,1.3c10.9,1.8,17.5-2.1,22.4-13.4c4.8-11,3.1-20.1-4.9-26.6c-12.2-10-23-10.3-38.1-2c-1.8,1-3.7,1.9-5.6,2.9
		c-0.9-0.8-0.8-0.8-1.7-1.6c1.7-3.5,2.8-7.6,5.2-10.5c3.3-4,7.7-7,11.3-10.7c1.2-1.2,2.4-3.4,2.1-4.6c-0.3-1.1-2.8-2.1-4.4-2.2
		c-10.4-0.8-20.8-1.5-31.2-1.8c-3.4-0.1-6.9,0.7-10.2,1.5c-1.6,0.4-3,1.8-4.4,2.8c1.2,1.3,2.2,2.9,3.6,3.9c5,3.7,10.4,7,15.2,10.9
		c5.2,4.3,6,7.4,4.1,13c-9-7.6-19.4-11.7-31-10.8c-3.9,0.3-8.3,2-11.2,4.6c-8.3,7.4-10.1,23.6-4.7,35.7
		C360.9,521.9,369,525.7,382.9,524.7z M189.8,704.7c4.1,0.6,7,1,9.8,1.5c11,1.8,17.5-2,22.5-13.2c5-11.3,3.1-20.3-5.2-27
		c-12.2-9.9-23.2-9.7-37.6-1.7c-1.8,1-3.7,2-5.5,3c-0.9-0.8-0.9-0.8-1.8-1.7c1.6-3.5,2.7-7.5,5.1-10.5c3.2-4,7.6-7,11.3-10.7
		c1.2-1.2,1.7-3.1,2.5-4.7c-1.5-0.8-3.1-2.1-4.7-2.3c-10.6-0.8-21.2-1.5-31.8-1.8c-3.2-0.1-6.4,0.7-9.6,1.5c-1.6,0.4-3,1.8-4.5,2.7
		c1.3,1.5,2.5,3.2,4,4.3c5,3.7,10.4,7,15.2,11c4.9,4.1,5.5,7,4,12.2c-16-9.1-21.5-10.9-31.2-10.6c-5.6,0.2-10.1,2.4-13.3,7
		c-6.6,9.3-6.8,19.4-3.8,29.9c2.7,9.5,9.7,15.2,19.5,15.7c2.4,0.1,4.8-0.3,7.8-0.5c-0.4,2.5-0.8,4.5-0.9,6.5
		c-0.4,8.6-0.9,17.3,5.3,24.4c6.2,7,21.3,9.4,31,5.3c9.8-4.2,15.5-14.1,14.3-25.3C191.6,715,190.7,710.4,189.8,704.7z M404.6,670.2
		c-16-9.3-22-11.2-31.8-10.9c-5.6,0.2-10.1,2.5-13.3,7c-6.7,9.5-6.8,19.9-3.7,30.5c2.9,9.9,12.2,16.1,22.5,15
		c1.4-0.1,2.7-0.2,4.6-0.4c-0.4,2.6-0.8,4.5-0.9,6.6c-0.4,8.6-0.9,17.3,5.4,24.3c6.2,7,21.3,9.4,31,5.2c9.8-4.3,15.4-14.1,14.3-25.4
		c-0.5-4.7-1.4-9.3-2.3-14.7c3.8,0.5,6.8,0.8,9.9,1.3c10.9,1.8,17.5-2.1,22.5-13.3c5-11.3,3-20.3-5.3-27
		c-12.2-9.9-23.2-9.6-37.6-1.7c-1.8,1-3.7,2-5.5,2.9c-0.9-0.8-0.9-0.8-1.7-1.7c1.7-3.5,2.8-7.5,5.1-10.4c3.3-4,7.6-7,11.3-10.7
		c1.2-1.2,2.5-3.3,2.1-4.6c-0.3-1.1-2.8-2.2-4.4-2.3c-10.4-0.8-20.8-1.5-31.2-1.8c-3.6-0.1-7.3,0.8-10.8,1.6
		c-1.4,0.3-2.6,1.7-3.9,2.6c1,1.2,1.8,2.7,3,3.6c5.2,3.8,10.7,7.2,15.8,11.3C403.4,660.3,406.3,664.2,404.6,670.2z M314.2,388.5
		c0-6.3,0.3-11.9-0.1-17.5c-0.6-8.5-4.9-14.4-13.2-17.2c-9.7-3.2-19.1-2.8-27.1,4.1c-8.1,7.1-9.1,16.4-6.9,26.4
		c1.9,8.4,1.7,8.2-6.9,7.3c-4.6-0.5-10-0.5-13.8,1.5c-8.4,4.4-13.2,18.5-10.6,27.4c2.3,7.9,14.5,17,23.4,16c6.6-0.7,13-3.6,19.6-5.4
		c1.6-0.4,3.4-0.5,5-0.7c0,1.8,0.5,3.7-0.1,5.2c-0.8,2.1-2.2,4.1-3.8,5.7c-3.2,3.2-6.8,6.1-10.1,9.3c-1,1-1.8,2.8-1.8,4.2
		c0,0.7,2.1,1.9,3.3,2c11,0.8,22,1.8,33,1.9c3.8,0.1,7.7-1.7,11.6-2.7c0.2-1.2,0.2-1.3,0.4-2.4c-3.4-2.2-6.9-4.3-10.2-6.7
		c-3.2-2.3-6.5-4.6-9.3-7.3c-2.9-2.8-5.6-6.1-3.6-10.6c1,0,1.4-0.1,1.8,0c0.9,0.5,1.8,1.1,2.6,1.7c7.7,5.6,16.5,7.8,25.9,7.7
		c6,0,10.4-2.6,13.5-7.6c5.5-8.8,5.5-18.2,2.8-27.7c-2.7-9.4-10.3-14.9-20-14.7C317.8,388.2,316.2,388.4,314.2,388.5z M83.6,153.4
		c-0.6-22.9-4.9-29.7-19.4-28.9c-4.8,0.2-10.3,2.4-14.1,5.4c-8.9,7.1-6.1,17.1-4,27.1c-3.3-0.4-5.8-0.7-8.2-1.1
		c-6.8-1.2-11.9,1.4-15.2,7.3c-3.8,6.6-6.3,13.8-0.9,20.5c5.6,7.1,13.1,11.3,22.5,8.8c4.9-1.3,9.5-3.6,15.9-6.2
		c-1.7,3.8-2.4,6.9-4.1,9c-2.4,3-5.8,5.4-8.5,8.2c-1,1.1-1.4,2.7-2.1,4.1c1.2,0.5,2.5,1.5,3.7,1.6c8.3,0.6,16.6,1.4,24.9,1.5
		c3.5,0.1,6.9-1.3,11.4-2.2c-6.4-8.6-19-9.9-19.6-20.8c7.7,2.3,14.8,5.2,22.2,6.4c7.6,1.2,12-2.2,15.1-9.3
		C110.5,168.1,101.5,153.8,83.6,153.4z M496.5,655.9c-2.2,24.2,5.3,28.7,19.5,29.2c4.9,0.1,11-2.9,14.8-6.4c7.7-6.9,5.2-16.3,2.7-26
		c3.6,0.5,6.2,0.8,8.8,1.2c6.5,1.1,11.5-1.4,14.7-7c3.8-6.6,6.2-13.4,1.4-20.6c-4.9-7.3-14.7-11.3-23-9c-4.8,1.3-9.4,3.6-15.9,6.3
		c2-4.2,2.7-7.2,4.5-9.4c2.5-3,5.8-5.3,8.6-8.1c0.9-0.9,1.9-2.5,1.8-3.6c-0.1-0.8-2.1-1.8-3.2-1.9c-8.7-0.7-17.5-1.4-26.2-1.6
		c-3.2-0.1-6.4,1.4-10.6,2.5c6.8,8.3,19,9.8,19.8,20.4c-8.2-2.2-15.9-4.9-23.9-6.1c-3.1-0.5-7.7,1.5-9.9,3.9
		c-7.3,7.9-7.2,17.5-3.4,27C480.4,654.9,487.7,656.8,496.5,655.9z M76.7,85.1c0.1,1.1,0.4,3.4,0.4,5.6c0,6.8-2.2,8.6-8.9,6.7
		c-2.8-0.8-5.1-2.9-7.9-3.5c-2-0.4-4.3,0.6-6.5,1c0.7,1.9,0.8,4.8,2.2,5.6c3.6,2.3,7.6,4.5,11.8,5.4c11,2.5,17.3-2.8,17.5-14
		c0.1-7,0-14.1-0.4-21.1c-0.3-4.7,0.3-10.8-2.4-13.7c-2.9-3.2-9.1-3.6-13.8-5.2c-0.2-0.1-0.3-0.1-0.5-0.1
		c-8.6-1.3-16.2,5.5-18.2,16.2c-1.6,8.9,2.4,15.4,11.4,16.9C66.1,85.8,70.8,85.1,76.7,85.1z M503.2,725.2c-0.1-2-0.4-4.3-0.4-6.6
		c0.1-6.6,2.1-8.2,8.6-6.5c3,0.8,5.5,3,8.5,3.8c1.8,0.5,4-0.5,6-0.8c-0.5-2-0.5-5.2-1.7-5.7c-5.8-2.4-11.8-5.3-18-5.8
		c-7.2-0.6-11.3,3.9-11.5,11.2c-0.3,11.6-0.1,23.2,0.1,34.8c0,1.3,1.6,3.1,2.9,3.6c4.9,1.8,9.8,3.9,14.9,4.6
		c8.2,1.3,15.7-6.6,17.3-17.1c1.2-8.5-3-14.8-11.8-16.1C513.6,723.9,508.8,724.9,503.2,725.2z"/>
	<path class="st1" d="M165.4,140.7c-6.1,2.5-12,5.3-18.3,7.3c-14.2,4.6-32.9-10-32.7-22c0.2-16.4,11.4-27.3,27.5-24.7
		c2.2,0.4,4.5,0.6,7.7,0.9c-0.8-5.3-1.7-9.8-2.2-14.5c-1.2-11.3,3.9-20.7,13.4-25.3c9.3-4.5,24.4-2.7,31.2,4.1
		c6.9,6.9,6.4,15.9,6.1,24.7c-0.1,2-0.6,4.1-0.9,6.3c4.2,0.3,8.5-0.1,12.2,1.2c4,1.4,8.1,3.7,10.8,6.7c8.7,9.7,7.9,30.9-1.6,39.9
		c-2.8,2.6-7.2,4.4-11.1,4.7c-10.5,0.9-20.2-2.2-28.6-8.8c-0.9-0.7-2-1.3-3.3-2.1c-2,6.3,1.1,10.2,5,13.3c5,4,10.6,7.4,15.8,11.2
		c1.1,0.8,1.8,2.1,2.7,3.1c-1.2,1-2.2,2.5-3.5,2.8c-3.7,0.9-7.6,1.8-11.4,1.7c-10.4-0.3-20.8-1-31.2-1.7c-1.4-0.1-3.9-1.1-4-2
		c-0.2-1.5,0.6-3.6,1.8-4.7c3.7-3.7,8.1-6.7,11.3-10.7c2.5-3.1,3.7-7.3,5.5-11C166.8,141.1,166.1,140.9,165.4,140.7z"/>
	<path class="st1" d="M406,143.1c-6.1,2.5-12,5.3-18.2,7.4c-14,4.6-33.2-9.5-32.9-22.4c0.4-16.1,11.6-26.8,27.3-24.2
		c2.2,0.4,4.5,0.6,7.8,1c-0.8-5.2-1.7-9.8-2.1-14.4c-1.2-11.4,3.8-20.7,13.2-25.4c9.3-4.6,24.3-2.8,31.2,3.9
		c7,6.9,6.5,15.9,6.2,24.6c-0.1,2.1-0.6,4.1-1,6.5c3.9,0.2,8.1-0.3,11.5,0.9c4.3,1.6,8.9,3.9,11.9,7.3c8.5,9.6,7.5,30.6-1.8,39.4
		c-2.9,2.7-7.6,4.5-11.6,4.9c-9.3,1-13.7-0.9-31.5-10.5c-2,5.8,1.2,9.7,5,12.8c5,4.1,10.6,7.4,15.8,11.3c1.2,0.9,1.9,2.4,2.8,3.7
		c-1.1,0.8-2.1,2.1-3.3,2.4c-3.8,0.8-7.6,1.8-11.4,1.7c-10.4-0.3-20.8-1-31.2-1.8c-1.6-0.1-3.6-1.2-4.4-2.5
		c-0.5-0.7,0.8-3.1,1.9-4.1c3.7-3.6,8.1-6.7,11.4-10.6c2.6-3.1,3.8-7.3,5.7-11C407.3,143.7,406.7,143.4,406,143.1z"/>
	<path class="st1" d="M175.5,325.7c-1.9,6.5,1,10.4,4.7,13.5c5,4.1,10.6,7.4,15.8,11.3c1.2,0.9,2,2.4,3,3.6
		c-1.3,0.9-2.4,2.3-3.9,2.6c-3.5,0.8-7.2,1.7-10.8,1.6c-10.4-0.3-20.8-1-31.2-1.8c-1.6-0.1-4.1-1.1-4.4-2.3
		c-0.4-1.3,0.9-3.4,2.1-4.6c3.7-3.7,8.1-6.7,11.3-10.7c2.4-3,3.5-7,5.2-10.6c-0.6-0.5-1.2-1-1.8-1.5c-1.8,1-3.7,1.9-5.5,2.9
		c-15.1,8.3-25.8,8-38.1-2c-7.9-6.5-9.7-15.6-4.8-26.6c4.9-11.2,11.5-15.1,22.4-13.3c3,0.5,6.1,0.8,9.9,1.3
		c-0.8-5.4-1.8-10-2.3-14.7c-1.2-11.1,4.1-20.6,13.7-25.1c9.4-4.4,24.5-2.4,31.1,4.5c6.8,7,6.2,16,5.8,24.8c-0.1,2-0.5,4-0.9,6.6
		c1.9-0.2,3.2-0.2,4.6-0.4c10.3-1.1,19.5,5.1,22.5,15c2.8,9.3,3,18.5-1.6,27.4c-3.6,6.9-9.1,10.5-17.2,10.2
		C194.2,336.9,184.6,333.2,175.5,325.7z"/>
	<path class="st1" d="M406.1,328.6c-6.1,2.5-12,5.2-18.2,7.3c-13.8,4.7-33.6-9-33.1-22.8c0.5-15.8,11.8-26.4,27.1-23.9
		c2.4,0.4,4.8,0.6,8.1,0.9c-0.8-5.4-1.8-10-2.2-14.6c-1.2-11.1,4.1-20.6,13.6-25.1c9.4-4.4,24.5-2.5,31.1,4.4c6.8,7,6.2,16,5.9,24.8
		c-0.1,2-0.5,4-0.9,6.6c1.8-0.1,3.2-0.2,4.5-0.4c10.3-1.1,19.6,5.1,22.5,15c2.8,9.3,3,18.5-1.6,27.4c-3.6,6.9-9.1,10.5-17.2,10.3
		c-11-0.3-20.7-3.9-29.2-11.1c-1.9,5.6-1.1,8.7,4.1,13c4.8,3.9,10.2,7.2,15.2,10.9c1.4,1,2.4,2.6,3.6,3.9c-1.5,1-2.8,2.4-4.4,2.8
		c-3.3,0.8-6.8,1.6-10.2,1.5c-10.4-0.3-20.8-1-31.2-1.8c-1.6-0.1-4.1-1.1-4.4-2.2c-0.4-1.2,0.9-3.4,2.1-4.6
		c3.7-3.7,8.1-6.7,11.3-10.7c2.4-3,3.6-7,5.3-10.6C407.3,329.3,406.7,328.9,406.1,328.6z"/>
	<path class="st1" d="M189.8,519.2c0.9,5.7,1.8,10.3,2.3,15c1.2,11.2-4.5,21.1-14.3,25.3c-9.7,4.2-24.8,1.8-30.9-5.3
		c-6.2-7.1-5.7-15.8-5.3-24.4c0.1-2,0.5-4,0.9-6.5c-3,0.2-5.4,0.6-7.8,0.5c-9.7-0.5-16.8-6.2-19.5-15.7c-3-10.5-2.7-20.6,3.9-29.9
		c3.2-4.6,7.7-6.9,13.3-7c10.6-0.1,20.2,2.5,28.5,9.3c0.8,0.6,1.6,1.1,2.5,1.7c1.7-5.7,0.9-8.8-4.3-13c-4.9-3.9-10.2-7.2-15.2-10.9
		c-1.4-1-2.3-2.6-3.5-4c1.3-0.9,2.5-2.2,3.9-2.6c3.5-0.8,7.2-1.7,10.8-1.6c10.4,0.3,20.8,1,31.2,1.8c1.6,0.1,3.1,1.5,4.6,2.3
		c-0.8,1.6-1.3,3.5-2.5,4.7c-3.7,3.7-8.1,6.7-11.3,10.7c-2.4,3-3.5,7-5.2,10.6c0.6,0.5,1.2,1,1.8,1.5c1.8-1,3.7-2,5.5-3
		c14.4-7.9,25.4-8.2,37.6,1.7c8.3,6.7,10.2,15.8,5.2,27c-5,11.2-11.5,15.1-22.5,13.2C196.8,520.2,193.9,519.8,189.8,519.2z"/>
	<path class="st1" d="M382.9,524.7c-13.9,1-22-2.8-26-11.7c-5.4-12.2-3.7-28.3,4.7-35.7c2.9-2.6,7.3-4.3,11.2-4.6
		c11.7-0.9,22,3.2,31,10.8c1.9-5.6,1.1-8.7-4.1-13c-4.8-3.9-10.2-7.2-15.2-10.9c-1.4-1-2.4-2.6-3.6-3.9c1.5-1,2.8-2.4,4.4-2.8
		c3.3-0.8,6.8-1.6,10.2-1.5c10.4,0.3,20.8,1,31.2,1.8c1.6,0.1,4.1,1.1,4.4,2.2c0.4,1.2-0.9,3.4-2.1,4.6c-3.7,3.7-8.1,6.7-11.3,10.7
		c-2.4,3-3.6,7-5.3,10.6c0.6,0.5,1.2,1,1.8,1.5c1.8-1,3.7-1.9,5.5-2.9c15.1-8.3,25.8-8,38.1,2c7.9,6.5,9.7,15.6,4.9,26.6
		c-4.9,11.2-11.5,15.1-22.4,13.4c-3-0.5-6.1-0.8-9.9-1.3c0.8,5.4,1.8,10,2.3,14.7c1.2,11.1-4.1,20.6-13.6,25.1
		c-9.4,4.4-24.5,2.4-31.1-4.4c-6.8-7-6.2-16-5.8-24.8C382.1,529.2,382.6,527.2,382.9,524.7z"/>
	<path class="st1" d="M189.8,704.7c0.9,5.7,1.8,10.3,2.3,15c1.2,11.2-4.5,21.1-14.3,25.3c-9.7,4.2-24.8,1.8-31-5.3
		c-6.2-7-5.7-15.8-5.3-24.4c0.1-2,0.5-4,0.9-6.5c-2.9,0.2-5.4,0.6-7.8,0.5c-9.7-0.5-16.8-6.2-19.5-15.7c-3-10.5-2.7-20.6,3.8-29.9
		c3.2-4.6,7.7-6.8,13.3-7c9.7-0.3,15.2,1.5,31.2,10.6c1.5-5.2,0.9-8.1-4-12.2c-4.8-4-10.2-7.2-15.2-11c-1.5-1.2-2.7-2.9-4-4.3
		c1.5-0.9,2.9-2.3,4.5-2.7c3.1-0.8,6.4-1.6,9.6-1.5c10.6,0.4,21.2,1,31.8,1.8c1.6,0.1,3.1,1.5,4.7,2.3c-0.8,1.6-1.3,3.5-2.5,4.7
		c-3.7,3.7-8.1,6.7-11.3,10.7c-2.4,3-3.5,7-5.2,10.6c0.6,0.5,1.2,1,1.8,1.5c1.8-1,3.7-2,5.5-3c14.4-7.9,25.4-8.2,37.6,1.7
		c8.3,6.7,10.2,15.8,5.2,27c-5,11.2-11.5,15.1-22.5,13.2C196.8,705.7,193.9,705.3,189.8,704.7z"/>
	<path class="st1" d="M404.6,670.2c1.7-6-1.2-9.9-4.9-12.9c-5-4.1-10.6-7.4-15.8-11.3c-1.2-0.9-2-2.4-3-3.6c1.3-0.9,2.5-2.3,3.9-2.6
		c3.5-0.8,7.2-1.7,10.8-1.6c10.4,0.3,20.8,1,31.2,1.8c1.6,0.1,4.1,1.2,4.4,2.3c0.3,1.3-1,3.4-2.1,4.6c-3.7,3.7-8.1,6.7-11.3,10.7
		c-2.4,3-3.5,7-5.2,10.6c0.6,0.5,1.2,1,1.8,1.5c1.8-1,3.7-1.9,5.5-2.9c14.3-8,25.4-8.2,37.6,1.7c8.3,6.7,10.3,15.7,5.3,27
		c-4.9,11.2-11.5,15.1-22.5,13.3c-3-0.5-6.1-0.8-9.9-1.3c0.8,5.4,1.8,10,2.3,14.7c1.2,11.3-4.4,21.1-14.3,25.4
		c-9.6,4.2-24.8,1.8-31-5.2c-6.2-7-5.8-15.8-5.4-24.3c0.1-2,0.5-4,0.9-6.6c-1.9,0.2-3.2,0.3-4.6,0.4c-10.3,1-19.6-5.1-22.5-15
		c-3.1-10.7-3.1-21,3.7-30.5c3.2-4.6,7.6-6.8,13.3-7C382.6,658.9,388.6,660.9,404.6,670.2z"/>
	<path class="st1" d="M314.2,388.5c2-0.1,3.7-0.2,5.3-0.3c9.7-0.1,17.3,5.3,20,14.7c2.8,9.6,2.8,19-2.8,27.7
		c-3.1,5-7.6,7.5-13.5,7.6c-9.4,0.1-18.2-2.1-25.9-7.7c-0.8-0.6-1.7-1.2-2.6-1.7c-0.3-0.2-0.8,0-1.8,0c-2,4.6,0.7,7.8,3.6,10.6
		c2.8,2.7,6.1,5.1,9.3,7.3c3.3,2.4,6.8,4.5,10.2,6.7c0,0.8,0,1.6-0.1,2.3c-4,1-8,2.9-11.9,2.8c-11-0.2-22-1.1-33-1.9
		c-1.2-0.1-3.3-1.3-3.3-2c0-1.4,0.8-3.2,1.8-4.2c3.2-3.2,6.8-6.1,10.1-9.3c1.6-1.6,3-3.6,3.8-5.7c0.6-1.5,0.1-3.5,0.1-5.2
		c-1.7,0.2-3.4,0.3-5,0.7c-6.5,1.8-12.9,4.7-19.6,5.4c-8.9,0.9-21.1-8.2-23.4-16c-2.6-8.9,2.2-23,10.6-27.4c3.9-2,9.3-1.9,13.8-1.5
		c8.6,0.9,8.8,1.1,6.9-7.3c-2.2-10-1.2-19.3,6.9-26.4c8-7,17.3-7.3,27.1-4.1c8.3,2.7,12.6,8.7,13.2,17.2
		C314.5,376.5,314.2,382.1,314.2,388.5z"/>
	<path class="st1" d="M83.6,153.4c17.9,0.4,26.9,14.8,19.7,31.4c-3.1,7.1-7.5,10.5-15.1,9.3c-7.4-1.2-14.5-4.1-22.2-6.4
		c0.6,10.9,13.2,12.3,19.6,20.8c-4.5,0.9-8,2.2-11.4,2.2c-8.3-0.1-16.6-0.9-24.9-1.5c-1.3-0.1-2.5-1-3.7-1.6
		c0.7-1.4,1.1-3.1,2.1-4.1c2.7-2.8,6.1-5.1,8.5-8.2c1.8-2.2,2.4-5.2,4.1-9c-6.4,2.5-11,4.9-15.9,6.2c-9.4,2.5-16.9-1.8-22.5-8.8
		c-5.3-6.7-2.8-13.8,0.9-20.5c3.3-5.9,8.4-8.4,15.2-7.3c2.4,0.4,4.9,0.7,8.2,1.1c-2.1-10-4.9-20,4-27.1c3.8-3,9.3-5.2,14.1-5.4
		C78.7,123.7,83,130.5,83.6,153.4z"/>
	<path class="st1" d="M496.5,655.9c-8.8,0.9-16.1-1.1-19.5-9.4c-3.9-9.4-3.9-19,3.4-27c2.2-2.4,6.8-4.3,9.9-3.9
		c8,1.2,15.7,3.9,23.9,6.1c-0.8-10.6-13-12.1-19.8-20.4c4.2-1,7.4-2.5,10.6-2.5c8.7,0.1,17.5,0.9,26.2,1.6c1.2,0.1,3.1,1.1,3.2,1.9
		c0.2,1.1-0.8,2.7-1.8,3.6c-2.8,2.8-6.1,5.1-8.6,8.1c-1.8,2.2-2.6,5.2-4.5,9.4c6.6-2.6,11.1-4.9,15.9-6.3c8.3-2.3,18.2,1.7,23,9
		c4.8,7.1,2.4,14-1.4,20.6c-3.3,5.6-8.2,8.1-14.7,7c-2.6-0.4-5.2-0.7-8.8-1.2c2.5,9.7,5,19.1-2.7,26c-3.8,3.5-9.9,6.5-14.8,6.4
		C501.8,684.7,494.3,680.1,496.5,655.9z"/>
	<path class="st1" d="M76.7,85.1c-5.9,0-10.6,0.6-15.1-0.1c-9-1.6-13.1-8.1-11.4-16.9c2-10.7,9.5-17.5,18-16.3
		c0.2,0,0.4,0.1,0.6,0.1c4.7,1.6,10.9,1.9,13.8,5.2c2.6,2.9,2.1,9,2.4,13.7c0.4,7,0.5,14.1,0.4,21.1c-0.2,11.3-6.5,16.5-17.5,14
		c-4.1-0.9-8.2-3.1-11.8-5.4c-1.4-0.9-1.5-3.7-2.2-5.6c2.2-0.4,4.5-1.4,6.5-1c2.8,0.6,5.1,2.8,7.9,3.5c6.8,1.9,8.9,0.1,8.9-6.7
		C77.1,88.5,76.8,86.2,76.7,85.1z M65.4,77.3c4.3,0,10.6-6.3,10.6-10.1c0-6.2-5.2-6.3-9.2-7.1c-4.3-0.8-8.4,5-8.5,11
		C58.2,76.5,62.3,76.6,65.4,77.3z"/>
	<path class="st1" d="M503.2,725.2c5.6-0.3,10.4-1.3,14.9-0.6c8.8,1.3,13.1,7.6,11.8,16.1c-1.5,10.5-9.1,18.4-17.3,17.1
		c-5.1-0.8-10-2.8-14.9-4.6c-1.3-0.5-2.8-2.4-2.9-3.6c-0.2-11.6-0.4-23.2-0.1-34.8c0.2-7.3,4.2-11.8,11.5-11.2
		c6.1,0.5,12.1,3.3,18,5.8c1.2,0.5,1.2,3.7,1.7,5.7c-2,0.3-4.2,1.3-6,0.8c-3-0.8-5.5-3-8.5-3.8c-6.5-1.7-8.5,0-8.6,6.5
		C502.8,720.9,503.1,723.2,503.2,725.2z M514.7,732.3c-4.3-0.1-10.6,5.8-10.9,9.8c-0.2,4,4.3,7.6,9.5,7.5c4.2,0,7.9-5.1,8.2-10.9
		C521.9,733.4,517.9,733.1,514.7,732.3z"/>
	<path class="st0" d="M65.4,77.3c-3.1-0.7-7.2-0.8-7.1-6.2c0.1-6,4.2-11.8,8.5-11c4,0.8,9.2,0.8,9.2,7.1
		C76.1,71,69.7,77.3,65.4,77.3z"/>
	<path class="st0" d="M514.7,732.3c3.2,0.7,7.2,1,6.9,6.4c-0.3,5.8-4,10.9-8.2,10.9c-5.2,0.1-9.8-3.5-9.5-7.5
		C504.1,738.2,510.4,732.2,514.7,732.3z"/>
</g>
</svg>
