<?xml version="1.0" encoding="utf-8"?>
<!-- Generator: Adobe Illustrator 24.0.0, SVG Export Plug-In . SVG Version: 6.00 Build 0)  -->
<svg version="1.0" id="Layer_1" xmlns="http://www.w3.org/2000/svg" xmlns:xlink="http://www.w3.org/1999/xlink" x="0px" y="0px"
	 viewBox="0 0 578.6 809.5" style="enable-background:new 0 0 578.6 809.5;" xml:space="preserve">
<style type="text/css">
	.st0{fill:#FEFDFD;}
	.st1{fill:#FE2121;}
</style>
<g>
	<path class="st0" d="M0,770.5V39C0,17.5,17.5,0,39,0h500.6c21.5,0,39,17.5,39,39v731.5c0,21.5-17.5,39-39,39H39
		C17.5,809.5,0,792,0,770.5z M175.9,88.8c-1.9-2.9-3.2-5.2-4.8-7.4c-6.6-9.1-18.3-12.7-26.3-8.1c-8.6,4.9-18.8,20.5-14.8,34.5
		c3.3,11.6,10.7,20.1,18,28.9c8.4,10,16.4,20.1,19.2,33.2c0.2,0.8,0.4,1.8,0.9,2.3c1.1,1,2.6,2.5,3.8,2.4c1-0.1,2.2-2,2.7-3.4
		c0.7-1.9,0.5-4.2,1.4-6c8.4-17.3,19.3-32.5,34.6-44.6c5.1-4.1,9.6-9.3,13.4-14.7c6.4-9.1,3.4-25.6-5.1-32.6
		c-9.3-7.7-21-7.3-30.6,1.6C184,78.9,180.5,83.6,175.9,88.8z M398.9,90c-1.8-2.8-3.2-5.1-4.8-7.3c-6.6-9.1-18.3-12.7-26.3-8.2
		c-8.6,4.9-18.8,20.5-14.9,34.5c3.3,11.6,10.6,20.2,18,28.9c8.4,9.9,16.4,20.1,19.2,33.2c0.2,1,0.5,2.2,1.2,2.8
		c0.9,0.9,2.6,2.3,3.4,2c1.2-0.5,2.3-2,2.8-3.4c0.7-1.9,0.5-4.2,1.3-6c8.4-17.2,19.3-32.6,34.6-44.6c5.1-4.1,9.6-9.3,13.4-14.7
		c6.4-9.1,3.5-25.5-5-32.6c-9.3-7.7-21-7.3-30.6,1.6C407,80.1,403.5,84.8,398.9,90z M173.4,270.5c-1.8-2.8-3.2-5.1-4.8-7.3
		c-6.6-9.1-18.3-12.7-26.3-8.2c-8.6,4.9-18.8,20.5-14.9,34.5c3.2,11.6,10.6,20.2,18,28.9c8.4,9.9,16.4,20.1,19.2,33.2
		c0.2,1,0.5,2.2,1.2,2.8c0.9,0.9,2.6,2.3,3.4,2c1.2-0.5,2.3-2,2.8-3.4c0.7-1.9,0.5-4.2,1.3-6c8.4-17.2,19.3-32.6,34.6-44.6
		c5.1-4.1,9.6-9.3,13.4-14.7c6.4-9.1,3.5-25.5-5-32.6c-9.3-7.7-21-7.3-30.6,1.5C181.5,260.6,178,265.3,173.4,270.5z M399,270.7
		c-1.9-3-3.3-5.2-4.9-7.4c-6.8-9.4-18.7-12.9-26.8-8c-8.5,5.1-19.7,21-13.9,34.6c3.8,9,9.2,17.7,15.1,25.5
		c8.8,11.5,18.6,22.1,21.7,36.8c0.2,0.8,0.5,1.7,1,2.3c1,0.9,2.5,2.3,3.3,2.1c1.2-0.4,2.4-2,2.9-3.3c0.7-1.9,0.4-4.2,1.3-6
		c8.4-17.2,19.3-32.6,34.5-44.6c5.3-4.2,9.9-9.6,13.8-15.2c7-10.2,2-31.8-12.2-36.2c-9.7-3-19.5-0.3-27.2,8.9
		C404.9,263.3,402.2,266.7,399,270.7z M287.5,372.2c-1.9-3-3.3-5.3-4.9-7.4c-6.6-9.1-18.2-12.8-26.3-8.3c-8.7,4.9-18.8,20.5-15,34.5
		c3.2,11.6,10.6,20.2,18,28.9c8.4,9.9,16.4,20,19.2,33.2c0.2,1,0.5,2.2,1.2,2.8c0.9,0.9,2.6,2.3,3.3,2c1.2-0.4,2.4-2,2.9-3.3
		c0.7-1.9,0.4-4.2,1.3-6c8.4-17.2,19.3-32.6,34.6-44.6c5.1-4.1,9.5-9.3,13.5-14.7c7.4-10,2.6-32.3-12-36.8c-9.7-3-19.5-0.2-27.2,9
		C293.4,364.9,290.7,368.3,287.5,372.2z M180.9,539.9c2.2,3.3,3.5,5.6,5.1,7.8c8.2,11,21.8,13,30.9,4.5
		c11.7-10.9,14.3-27.9,5.7-41.6c-4-6.3-8.7-12.2-13.5-18c-8.4-10.2-16.5-20.4-19.6-33.7c-0.4-1.8-2.7-3.2-4.1-4.8
		c-1,1.7-2.3,3.3-3.1,5.1c-0.7,1.5-0.7,3.3-1.4,4.7c-8.5,17.4-19.6,32.7-35.1,44.8c-5,3.9-9.2,9.1-12.9,14.3
		c-7.2,10.1-2.2,32.2,12.4,36.6c9.6,2.8,19.4,0,27.1-9.3C175.1,547.1,177.7,543.9,180.9,539.9z M406.5,540.1
		c1.9,2.9,3.3,5.2,4.9,7.4c6.6,9.1,18.3,12.6,26.3,8c8.6-4.9,18.7-20.5,14.7-34.5c-3.3-11.5-10.7-20.1-18-28.8
		c-8.4-9.9-16.3-20.1-19.2-33.2c-0.2-0.8-0.4-1.8-0.9-2.3c-1.1-1-2.6-2.5-3.8-2.4c-1,0.1-2.1,2.1-2.6,3.5c-0.7,1.9-0.5,4.2-1.4,6
		c-8.4,17.2-19.3,32.5-34.6,44.5c-5.1,4.1-9.6,9.3-13.4,14.7c-6.4,9.1-3.4,25.5,5.1,32.6c9.2,7.7,21,7.2,30.6-1.6
		C398.5,550,402,545.3,406.5,540.1z M180.9,720.4c2,2.9,3.4,5.2,4.9,7.3c6.8,9.4,18.6,12.9,26.8,8c8.4-5,19.6-20.9,13.9-34.5
		c-3.8-9-9.1-17.7-15.1-25.5c-8.8-11.4-18.5-22-21.7-36.7c-0.2-0.8-0.4-1.8-1-2.2c-1.2-0.9-2.7-2-4-2c-0.8,0-1.8,1.9-2.2,3.2
		c-0.6,1.9-0.4,4.2-1.3,6c-8.5,17.2-19.2,32.5-34.5,44.6c-5.3,4.2-9.9,9.6-13.8,15.1c-7.1,10.2-1.9,31.9,12.1,36.2
		c9.7,3,19.4,0.3,27.2-8.9C175,727.8,177.7,724.4,180.9,720.4z M403.9,721.6c2.1,3.3,3.5,5.6,5.1,7.7c8.2,11,21.7,13,30.9,4.6
		c12-11,14.5-28.2,5.5-42.1c-5.3-8.2-11.8-15.5-17.9-23.2c-6.5-8.3-12.1-16.9-14.7-27.3c-0.5-2-2.8-3.7-4.2-5.5
		c-1.1,1.9-2.3,3.7-3.2,5.7c-0.6,1.3-0.7,2.8-1.3,4.1c-8.6,17.4-19.6,32.7-35.1,44.8c-5,3.9-9.2,9.1-12.9,14.3
		c-7.2,10.1-2.3,32.2,12.3,36.6c9.6,2.9,19.4,0,27.1-9.2C398.1,728.9,400.6,725.7,403.9,721.6z M520.6,670.5
		c2.3,2.7,3.8,4.7,5.5,6.5c7.8,8.4,17.6,8.1,24.6-0.9c7.3-9.2,8.1-18.8,2.2-29.1c-2.1-3.6-4.6-7-7.2-10.2
		c-7.5-9-15.3-17.7-18.1-29.6c-0.3-1.3-2.1-2.3-3.2-3.4c-0.9,1.2-2,2.3-2.6,3.6c-1,2-1.6,4.3-2.5,6.3c-5.9,13.3-15.6,23.5-26.6,32.8
		c-3,2.5-5.7,5.5-7.9,8.8c-5.3,7.6-3.3,20.7,3.6,26.3c7.4,6,17.2,4.9,24.7-2.7C515.5,676.4,517.8,673.7,520.6,670.5z M59.3,140.5
		c-1.9-2.5-3.3-4.3-4.7-6c-8.1-9.5-18.3-9.1-25.8,0.9c-7.5,10-7.5,20.6,0.5,31.8c8.6,12,20.2,21.9,23.6,37.2
		c0.2,0.9,1.7,2.1,2.7,2.1c0.8,0,2.2-1.2,2.5-2.1c4.8-16,14.8-28.1,27.4-38.6c3.8-3.2,7.3-6.9,10.1-11c5.1-7.5,2.8-20.1-4.1-25.7
		c-7.2-5.8-16.9-4.8-24.2,2.6C64.6,134.3,62.2,137.2,59.3,140.5z M504.6,732c-1-5-2-9.3-2.6-13.6c-0.8-5.7,0.8-7.5,6.5-6.2
		c5.1,1.2,9.8,3.6,14.9,4.8c2.1,0.5,4.6-0.9,7-1.5c-1.3-2-2.2-4.9-4.1-5.9c-4.2-2.2-8.9-3.7-13.5-4.9c-14.8-4-20.9,2.1-18.7,17.2
		c1.3,8.5,1.5,17.4,1,26c-0.7,12.2,8.1,20.5,20.2,17.9c9.7-2.1,15.6-8.1,18-17.5c2.8-11.1-7-21.6-18.2-19.3
		C511.8,729.5,508.7,730.7,504.6,732z M75.3,78.6c0.9,4.6,1.8,8.9,2.5,13.1c1,6.4-0.8,8.2-7.1,6.5c-4.8-1.2-9.4-3.6-14.2-4.8
		c-2.1-0.5-4.6,0.9-7,1.5c1.3,2,2.1,5.1,4,5.9c4.9,2.3,10.1,4.1,15.3,5.3c13.7,3.3,19.4-3.1,17.2-17.5c-1.3-8.3-1.9-16.7-1.1-25
		c1-11.3-5.1-19.3-16.1-19.4C57.3,44.4,47.4,53.4,46.1,65C45,75.1,53.5,83.6,63.5,82.1C67.2,81.5,70.8,80,75.3,78.6z"/>
	<path class="st1" d="M175.9,88.8c4.6-5.2,8.1-9.9,12.3-13.8c9.6-8.9,21.3-9.3,30.6-1.6c8.5,7.1,11.5,23.5,5.1,32.6
		c-3.8,5.4-8.3,10.6-13.4,14.7c-15.3,12.1-26.2,27.3-34.6,44.6c-0.9,1.8-0.6,4.1-1.4,6c-0.5,1.4-1.7,3.3-2.7,3.4
		c-1.2,0.1-2.6-1.4-3.8-2.4c-0.6-0.5-0.8-1.5-0.9-2.3c-2.8-13.2-10.8-23.3-19.2-33.2c-7.4-8.8-14.8-17.3-18-28.9
		c-4-14,6.2-29.6,14.8-34.5c8-4.6,19.7-1,26.3,8.1C172.6,83.6,174,85.9,175.9,88.8z"/>
	<path class="st1" d="M398.9,90c4.6-5.2,8.1-9.9,12.4-13.8c9.6-8.9,21.3-9.3,30.6-1.6c8.5,7.1,11.4,23.5,5,32.6
		c-3.8,5.4-8.3,10.6-13.4,14.7c-15.3,12.1-26.1,27.4-34.6,44.6c-0.9,1.8-0.6,4.1-1.3,6c-0.5,1.3-1.6,2.9-2.8,3.4
		c-0.8,0.3-2.4-1-3.4-2c-0.7-0.7-1-1.8-1.2-2.8c-2.8-13.2-10.8-23.3-19.2-33.2c-7.4-8.8-14.8-17.3-18-28.9
		c-3.9-14,6.2-29.6,14.9-34.5c8-4.6,19.7-0.9,26.3,8.2C395.7,84.9,397,87.2,398.9,90z"/>
	<path class="st1" d="M173.4,270.5c4.6-5.2,8.1-9.9,12.4-13.8c9.6-8.9,21.4-9.3,30.6-1.5c8.5,7.1,11.4,23.5,5,32.6
		c-3.8,5.4-8.3,10.6-13.4,14.7c-15.3,12.1-26.1,27.4-34.6,44.6c-0.9,1.8-0.6,4.1-1.3,6c-0.5,1.3-1.6,2.9-2.8,3.4
		c-0.8,0.3-2.4-1.1-3.4-2c-0.7-0.7-1-1.8-1.2-2.8c-2.8-13.2-10.9-23.3-19.2-33.2c-7.4-8.8-14.7-17.4-18-28.9
		c-3.9-14,6.2-29.6,14.9-34.5c8-4.6,19.7-0.9,26.3,8.2C170.2,265.4,171.6,267.7,173.4,270.5z"/>
	<path class="st1" d="M399,270.7c3.2-3.9,5.9-7.3,8.7-10.6c7.7-9.2,17.6-11.9,27.2-8.9c14.3,4.4,19.3,26,12.2,36.2
		c-3.9,5.6-8.5,11-13.8,15.2c-15.3,12.1-26.1,27.4-34.5,44.6c-0.9,1.8-0.6,4.1-1.3,6c-0.5,1.3-1.7,2.9-2.9,3.3
		c-0.8,0.3-2.3-1.2-3.3-2.1c-0.6-0.5-0.9-1.5-1-2.3c-3.1-14.7-13-25.3-21.7-36.8c-6-7.8-11.3-16.5-15.1-25.5
		c-5.8-13.6,5.4-29.5,13.9-34.6c8.2-4.9,20.1-1.4,26.8,8C395.7,265.4,397.1,267.7,399,270.7z"/>
	<path class="st1" d="M287.5,372.2c3.2-3.9,5.9-7.3,8.7-10.6c7.7-9.2,17.6-12,27.2-9c14.5,4.5,19.4,26.7,12,36.8
		c-3.9,5.3-8.3,10.6-13.5,14.7c-15.3,12.1-26.1,27.4-34.6,44.6c-0.9,1.8-0.6,4.1-1.3,6c-0.5,1.3-1.6,2.9-2.9,3.3
		c-0.8,0.3-2.4-1.1-3.3-2c-0.7-0.7-1-1.8-1.2-2.8c-2.8-13.2-10.9-23.3-19.2-33.2c-7.4-8.8-14.7-17.4-18-28.9
		c-3.9-14,6.3-29.6,15-34.5c8.1-4.5,19.7-0.9,26.3,8.3C284.2,366.9,285.6,369.2,287.5,372.2z"/>
	<path class="st1" d="M180.9,539.9c-3.3,4-5.8,7.3-8.5,10.4c-7.7,9.3-17.5,12.2-27.1,9.3c-14.6-4.3-19.6-26.5-12.4-36.6
		c3.7-5.2,7.9-10.4,12.9-14.3c15.5-12.1,26.6-27.4,35.1-44.8c0.7-1.5,0.7-3.2,1.4-4.7c0.8-1.8,2-3.4,3.1-5.1c1.4,1.6,3.7,3,4.1,4.8
		c3.1,13.3,11.2,23.5,19.6,33.7c4.8,5.8,9.5,11.6,13.5,18c8.6,13.7,6,30.7-5.7,41.6c-9.1,8.5-22.7,6.5-30.9-4.5
		C184.5,545.5,183.1,543.2,180.9,539.9z"/>
	<path class="st1" d="M406.5,540.1c-4.6,5.2-8.1,9.8-12.3,13.7c-9.6,8.9-21.3,9.3-30.6,1.6c-8.5-7.1-11.4-23.5-5.1-32.6
		c3.8-5.4,8.2-10.6,13.4-14.7c15.2-12.1,26.1-27.3,34.6-44.5c0.9-1.8,0.7-4.1,1.4-6c0.5-1.4,1.6-3.3,2.6-3.5
		c1.2-0.1,2.6,1.4,3.8,2.4c0.6,0.5,0.8,1.5,0.9,2.3c2.9,13.1,10.8,23.3,19.2,33.2c7.4,8.7,14.7,17.3,18,28.8
		c4,14-6.2,29.6-14.7,34.5c-8,4.6-19.7,1-26.3-8C409.9,545.3,408.5,543,406.5,540.1z"/>
	<path class="st1" d="M180.9,720.4c-3.2,4-5.9,7.3-8.7,10.6c-7.8,9.2-17.5,11.9-27.2,8.9c-14.1-4.4-19.3-26-12.1-36.2
		c3.9-5.6,8.5-11,13.8-15.1c15.3-12.1,26-27.4,34.5-44.6c0.9-1.8,0.7-4.1,1.3-6c0.4-1.2,1.4-3.1,2.2-3.2c1.3,0,2.8,1.1,4,2
		c0.6,0.4,0.8,1.4,1,2.2c3.2,14.7,13,25.3,21.7,36.7c6,7.8,11.3,16.4,15.1,25.5c5.8,13.6-5.5,29.5-13.9,34.5c-8.2,4.9-20,1.4-26.8-8
		C184.3,725.6,182.9,723.4,180.9,720.4z"/>
	<path class="st1" d="M403.9,721.6c-3.3,4.1-5.9,7.3-8.5,10.5c-7.7,9.3-17.5,12.1-27.1,9.2c-14.6-4.4-19.5-26.5-12.3-36.6
		c3.7-5.2,7.9-10.4,12.9-14.3c15.5-12.1,26.6-27.4,35.1-44.8c0.6-1.3,0.7-2.8,1.3-4.1c0.9-2,2.1-3.8,3.2-5.7
		c1.5,1.8,3.7,3.4,4.2,5.5c2.6,10.4,8.2,19,14.7,27.3c6,7.7,12.5,15.1,17.9,23.2c9.1,13.9,6.5,31.1-5.5,42.1
		c-9.2,8.4-22.7,6.5-30.9-4.6C407.4,727.2,406.1,724.8,403.9,721.6z"/>
	<path class="st1" d="M520.6,670.5c-2.9,3.2-5.1,5.9-7.6,8.4c-7.5,7.7-17.3,8.7-24.7,2.7c-6.9-5.6-8.8-18.7-3.6-26.3
		c2.2-3.2,4.9-6.2,7.9-8.8c10.9-9.3,20.6-19.5,26.6-32.8c0.9-2.1,1.5-4.3,2.5-6.3c0.6-1.3,1.7-2.4,2.6-3.6c1.1,1.1,2.8,2.1,3.2,3.4
		c2.9,11.9,10.6,20.6,18.1,29.6c2.7,3.2,5.2,6.6,7.2,10.2c5.9,10.3,5.1,19.9-2.2,29.1c-7.1,9-16.8,9.4-24.6,0.9
		C524.4,675.2,522.9,673.2,520.6,670.5z"/>
	<path class="st1" d="M59.3,140.5c2.9-3.3,5.3-6.3,7.9-8.9c7.3-7.4,17-8.4,24.2-2.6c6.9,5.5,9.2,18.2,4.1,25.7
		c-2.8,4.1-6.3,7.9-10.1,11c-12.6,10.5-22.6,22.6-27.4,38.6c-0.3,0.9-1.7,2.2-2.5,2.1c-0.9,0-2.4-1.2-2.7-2.1
		c-3.5-15.2-15.1-25.2-23.6-37.2c-8-11.2-8.1-21.8-0.5-31.8c7.5-10,17.7-10.3,25.8-0.9C56,136.2,57.4,138.1,59.3,140.5z"/>
	<path class="st1" d="M504.6,732c4.1-1.2,7.2-2.5,10.4-3.1c12-2.5,21.2,7.1,18.4,19c-2.3,9.6-8.3,15.7-18.1,17.9
		c-12.1,2.6-20.9-5.6-20.2-17.9c0.5-8.6,0.2-17.5-1-26c-2.2-15.1,3.9-21.2,18.7-17.2c4.6,1.3,9.3,2.7,13.5,4.9
		c1.9,1,2.8,3.9,4.1,5.9c-2.3,0.5-4.9,2-7,1.5c-5.1-1.2-9.8-3.6-14.9-4.8c-5.7-1.3-7.3,0.5-6.5,6.2
		C502.6,722.7,503.6,726.9,504.6,732z M504.2,753.7c2.2,1.6,3.9,3.7,5.9,4c7.3,1.1,14.7-5.5,15.4-13.2c0.4-4.9-2.5-8-7-7.5
		c-3.9,0.4-8.6,1.9-11.2,4.6C505.2,743.8,505.5,748.5,504.2,753.7z"/>
	<path class="st1" d="M75.3,78.6c-4.5,1.3-8,2.8-11.7,3.4c-10.3,1.7-18.5-6.3-17.6-16.7c1.1-11.8,11.1-20.9,22.7-20.8
		c10.5,0.1,16.6,7.5,16.2,18c-0.4,9.1,0,18.3,1.2,27.2c1.9,13.7-3.9,19.8-17.4,16.6c-5.2-1.3-10.5-3-15.3-5.3
		c-1.9-0.9-2.7-3.9-4-5.9c2.3-0.6,4.9-2,7-1.5c4.8,1.1,9.4,3.5,14.2,4.8c6.3,1.6,8.1-0.2,7.1-6.5C77.1,87.5,76.2,83.3,75.3,78.6z
		 M63.4,74.2c2.8-1.6,7.1-3.3,10.3-6.2c1.3-1.2,0.4-5.1,0.1-7.7c-0.7-7.6-5.1-10.1-11.4-5.5c-3.6,2.6-6.5,7.5-7.8,11.9
		C53.3,71.3,57.3,73.5,63.4,74.2z"/>
	<path class="st0" d="M504.2,753.7c1.2-5.2,1-9.9,3.2-12.2c2.6-2.7,7.2-4.2,11.2-4.6c4.5-0.5,7.4,2.6,7,7.5
		c-0.7,7.7-8.2,14.3-15.4,13.2C508.2,757.4,506.5,755.2,504.2,753.7z"/>
	<path class="st0" d="M63.4,74.2c-6.1-0.7-10.1-2.9-8.8-7.5c1.3-4.4,4.1-9.3,7.8-11.9c6.4-4.6,10.7-2,11.4,5.5
		c0.3,2.6,1.2,6.5-0.1,7.7C70.5,70.9,66.2,72.6,63.4,74.2z"/>
</g>
</svg>
