<?xml version="1.0" encoding="utf-8"?>
<!-- Generator: Adobe Illustrator 24.0.0, SVG Export Plug-In . SVG Version: 6.00 Build 0)  -->
<svg version="1.0" id="Layer_1" xmlns="http://www.w3.org/2000/svg" xmlns:xlink="http://www.w3.org/1999/xlink" x="0px" y="0px"
	 viewBox="0 0 578.6 809.5" style="enable-background:new 0 0 578.6 809.5;" xml:space="preserve">
<style type="text/css">
	.st0{fill:#FDFDFD;}
	.st1{fill:#030303;}
</style>
<g>
	<path class="st0" d="M539.6,809.5H39c-21.5,0-39-17.5-39-39V39C0,17.5,17.5,0,39,0h500.6c21.5,0,39,17.5,39,39v731.5
		C578.6,792,561.1,809.5,539.6,809.5z M408.3,165.4c0,0.1,0,0.3,0,0.4c3.5,0,7.1,0.3,10.6-0.1c1.8-0.2,4.7-1.1,5-2.3
		c0.5-1.8-0.6-4.2-1.5-6.2c-0.4-1-2-1.6-2.6-2.6c-0.6-0.9-0.7-2.1-1.1-3.2c1.1-0.2,2.3-0.9,3.3-0.7c2.6,0.5,5.2,1.8,7.8,2.1
		c7.4,1,14.6,0.9,20.5-4.8c12-11.8,16.4-42.8-7.5-51.3c-1.2-0.4-3-1.3-4-1.8c-14.4-7.8-23.4-19.1-23.4-36.3c0-1.6-1.6-3.2-2.4-4.9
		c-1.1,1.6-3,3.2-3.3,5c-0.5,3.2,1.1,7.3-0.3,9.8c-5.5,9.8-11.5,19.9-24,21.8c-16.9,2.6-26.1,12.9-29.9,28.6
		c-1.1,4.4-0.6,10.2,1.4,14.2c6.6,13.4,17.2,18.1,32,16.1c2.6-0.4,5.3-0.1,8-0.1c-1,2.8-2.1,5.6-3.1,8.4c-0.1,0.4-0.5,0.6-0.7,1
		c-2.3,4-1.2,6.4,3.3,6.7C400.4,165.6,404.3,165.4,408.3,165.4z M408.1,355.9c0,0.1,0,0.3,0,0.4c3.3,0,6.7,0.3,10-0.1
		c2.2-0.3,5.5-1.3,5.9-2.7c0.5-1.8-1.2-4.4-2.2-6.5c-0.8-1.7-2-3.2-3.1-4.8c2.1,0,4.3-0.5,6.2,0.1c16.9,5,28.2-0.8,33.7-17.4
		c5.4-16.5-0.1-29.6-15.5-37.4c-3.5-1.8-7.2-3.4-10.4-5.7c-10.9-8.2-17.5-18.8-17.1-33c0-1.4-1.4-2.9-2.2-4.4
		c-1.2,1.4-2.6,2.6-3.5,4.1c-0.5,0.8-0.3,2.1,0,3.1c1.6,5.9-1.6,10.2-4.6,14.8c-5.8,8.7-13.3,13.8-23.7,15.6
		c-15.8,2.7-22.3,14.8-26.4,28.5c-3.1,10.3,3.5,17,9.8,23.4c7.1,7.1,16.1,6.6,25.2,5.8c2.3-0.2,4.6-0.1,6.9-0.2
		c-0.8,2.5-1.5,5-2.3,7.4c-0.3,0.8-0.9,1.4-1.4,2.1c-2.6,4.2-1.3,6.6,3.6,6.8C400.6,356,404.3,355.9,408.1,355.9z M289.4,452.5
		c0,0.2,0,0.4,0,0.7c3.5,0,7.1,0.3,10.6-0.1c1.8-0.2,4.5-1.2,5-2.5c0.6-1.4-0.8-3.7-1.5-5.5c-0.7-1.8-1.8-3.4-2.7-5.1
		c2.1,0,4.2-0.4,6.2,0c7.5,1.7,15,2.7,21.4-2.6c17.1-14.2,13.3-41.5-7-50.4c-0.9-0.4-1.7-0.8-2.6-1.2c-13.4-7.3-21.5-18-22-33.8
		c-0.1-1.7-1.4-3.4-2.2-5.1c-1,1.7-2.8,3.4-2.9,5.1c-0.7,15.4-9.7,26.4-24.7,29.9c-3.6,0.9-7.3,2-10.6,3.6
		c-17.4,8.5-21.7,30.7-8.9,44.8c7,7.8,16.2,7.5,25.5,6.8c2.1-0.2,4.2,0.1,6.2,0.1c-0.7,2.3-1.3,4.6-2.1,6.8c-0.3,0.8-1,1.4-1.4,2.1
		c-2.5,3.8-1.1,6,3.1,6.2C282.4,452.7,285.9,452.5,289.4,452.5z M396.8,471.3c-0.4,0.6-0.3,0.5-0.7,1.1c-4.5-1.6-9-3.6-13.6-4.8
		c-11.2-2.9-19.6,0.7-25.7,10.4c-11,17.6-5.8,36.3,12.6,45.5c1.5,0.7,3,1.5,4.4,2.3c13.8,7.5,21.7,18.7,22.3,34.7
		c0.1,1.9,1.5,3.8,2.3,5.6c1.1-1.9,2.6-3.7,3.1-5.8c0.8-3.5-0.2-7.9,1.5-10.8c5.2-9,11.1-17.7,22.4-20.1c2.9-0.6,5.8-1.5,8.7-2.3
		c10.5-2.9,15.6-10.7,19.6-20.2c7.2-16.9-3.7-35.4-22.3-36c-6.4-0.2-12.8,1.1-19.8,1.8c2.2-3.9,4.2-7.5,6.4-11.1
		c2.6-4.3,1.5-6.7-3.5-6.9c-7.1-0.3-14.2-0.5-21.2-0.4c-2,0-5.4,1.2-5.6,2.3c-0.4,2,0.8,4.7,2.1,6.5
		C391.8,466.3,394.4,468.7,396.8,471.3z M397,660.6c-0.4,0.7-0.4,0.6-0.8,1.2c-3.5-1.4-6.9-3-10.5-4.1c-14.9-4.7-26.5,0.3-31.5,15
		c-5.8,16.8-3.4,32.8,14.5,39.7c1.5,0.6,3,1.4,4.5,2.2c14.3,7.6,22.5,19,23,35.6c0.1,1.8,1.8,3.5,2.7,5.3c0.9-1.9,2.3-3.7,2.6-5.6
		c0.5-3.2-0.8-7.3,0.7-9.7c5.3-8.8,10.5-18.1,21.8-20.9c3.3-0.8,6.6-1.7,9.9-2.6c10.7-3,15.9-11,20-20.7
		c6.8-16.1-4.1-34.9-21.6-35.6c-6.6-0.3-13.4,1.1-20.5,1.7c2-3.6,4-7.3,6.1-10.8c2.8-4.6,1.6-6.9-3.8-7.1
		c-6.9-0.2-13.8-0.6-20.6-0.3c-2.1,0.1-5.5,1.3-5.9,2.8c-0.5,1.8,1.1,4.5,2.4,6.4C392,655.7,394.6,658.1,397,660.6z M179.9,145.4
		c0.5-0.6,0.4-0.4,0.9-1c1.5,1.1,2.9,2.4,4.6,3.2c9.4,4.9,19.1,9.1,29.3,2.4c11.4-7.5,14-18.9,13.3-31.6
		c-0.6-11.2-8.2-16.5-17.1-20.9c-16.2-8-27.1-19.7-27.2-39.1c0-1.4-1.6-2.9-2.4-4.3c-1,1.5-3.1,3.3-2.9,4.6
		c2.1,11.6-5.5,18.7-12.3,25.9c-2.6,2.8-6.8,4.9-10.6,5.6c-13.9,2.6-24,8.9-29.5,22.9c-6.8,16.9,3.9,35.5,22.3,36.1
		c6.3,0.2,12.7-1.4,20-2.3c-1.9,3.6-3.9,7.1-5.7,10.7c-0.8,1.7-2.2,4.1-1.6,5.4c0.6,1.3,3.3,2.1,5.2,2.2c6.4,0.4,12.9,0.6,19.4,0.4
		c2.3-0.1,4.6-1.7,6.9-2.7c-1.1-2.3-1.9-4.9-3.4-6.9C186.2,152.3,183,148.9,179.9,145.4z M179.9,334.4c0.5-0.5,0.3-0.3,0.8-0.8
		c1.5,1.1,2.9,2.3,4.5,3.1c9.2,5.1,18.9,9.2,28.9,3.1c11.7-7.2,14.7-18.8,14-31.9c-0.6-11.5-8.4-16.8-17.5-21.3
		c-15.9-7.9-26.7-19.6-26.9-38.6c0-1.5-1.8-3.1-2.8-4.6c-0.9,1.7-2.8,3.5-2.5,5c2.2,11.2-5.2,18-11.6,24.9
		c-2.9,3.1-7.4,5.4-11.6,6.2c-13.6,2.8-22.9,9.3-29.2,22.5c-7.4,15.4,1.2,27.3,12,33.6c9.4,5.5,19.5,3.9,29.7-0.1
		c-1.4,4.2-3.5,7.8-5.3,11.6c-0.8,1.7-1.7,3.9-1.2,5.5c0.3,1,3,1.8,4.7,1.8c6.4,0.3,12.9,0.6,19.4,0.4c2.4-0.1,4.7-1.6,7.1-2.5
		c-1.2-2.5-2-5.2-3.6-7.3C186.1,341.3,182.9,337.9,179.9,334.4z M168.6,474.2c-6.4-2.8-11.8-6-17.7-7.6c-7.6-2-15.2-1.5-21.4,4.9
		c-15.7,16-12,40.6,7.9,50.5c16.1,7.9,27.1,19.1,27,38.5c0,1.4,1.6,2.9,2.5,4.3c0.9-1.4,2.5-2.8,2.7-4.3c0.4-3.3-1.1-7.2,0.3-9.8
		c5.4-9.9,11.2-20,23.8-22.1c14.2-2.4,23.5-9.9,28.8-23.6c6-15.3-4.7-34.2-21.4-35c-6.7-0.3-13.6,1.2-21.1,1.9
		c1.9-3.5,3.9-7.5,6.2-11.3c2.6-4.4,1.6-6.6-3.5-6.8c-6.7-0.3-13.3-0.6-20-0.3c-2.4,0.1-4.7,1.6-7.1,2.5c1.2,2.5,2,5.2,3.6,7.3
		C162.1,467,165.3,470.4,168.6,474.2z M169.1,664.9c-6.9-3-12.3-6.3-18.2-7.8c-7.6-2-15.2-1.4-21.4,5c-15.7,16-12,40.6,8,50.4
		c16.1,7.9,27.1,19.2,27,38.5c0,1.4,1.7,2.8,2.5,4.2c0.9-1.4,2.5-2.8,2.7-4.3c0.4-3.3-1.1-7.2,0.3-9.8c5.4-9.9,11.2-20,23.8-22.1
		c14.2-2.4,23.5-10,28.8-23.6c6-15.3-4.8-34.2-21.4-35c-6.7-0.3-13.6,1.2-21.1,2c2-3.6,4-7.6,6.3-11.5c2-3.5,0.4-6.5-3.6-6.7
		c-6.7-0.3-13.3-0.6-20-0.3c-2.4,0.1-4.7,1.7-7,2.6c1,2.3,1.7,5,3.2,6.9C161.8,657.1,165.1,660.5,169.1,664.9z M70.6,192.8
		c2.3,0.6,4.2,1.1,6.1,1.5c10.2,2.5,17.5-0.9,22.2-10.3c6.8-13.7,2.6-26.5-11.2-33.3c-11.9-5.8-19.9-14.1-20.4-28.2
		c-0.1-1.6-1.6-3.2-2.5-4.8c-0.8,1.7-2.2,3.4-2.2,5.1c-0.4,11.1-7.9,20.9-18.8,23.1c-10.7,2.1-17.8,7.6-21.9,18
		c-4.9,12.6,2.9,26.6,16.6,27.8c4.6,0.4,9.3,0.1,14.8,0.1c-1.1,2.2-1.9,4.5-3.2,6.4c-2.6,3.9-1.6,5.8,3,6c4.4,0.2,8.7,0.3,13.1,0.2
		c2.6-0.1,5.1-0.8,7.6-1.2c-0.9-2.5-1.9-5-2.8-7.6C70.7,195.1,70.8,194.4,70.6,192.8z M525.6,619.4c1.8-3.6,2.8-6,4.2-8.1
		c2.6-3.9,1.6-5.8-3-6c-4.2-0.1-8.3-0.3-12.5-0.1c-2.8,0.1-5.5,0.8-8.3,1.3c1,2.5,1.9,5,2.8,7.6c0.2,0.5,0,1.2,0,2.7
		c-2.2-0.6-4-1-5.9-1.5c-10.2-2.5-17,0.6-21.8,9.8c-7.1,13.6-3.1,26.8,10.5,33.5c12.3,6.1,20.7,14.6,20.8,29.3c0,1.3,1.7,2.7,2.6,4
		c0.7-1.5,2-3.1,2-4.6c0.6-12.2,7.9-21,19.6-23.9c3.6-0.9,7.3-2,10.5-3.8c14.2-7.9,16.4-26.7,4.5-37.3
		C544.6,615.7,536.1,617,525.6,619.4z M74.8,78.4c0.1,1,0.3,3.4,0.3,5.8c0,6.6-1.9,8.2-8.5,6.5c-3.1-0.8-5.9-3.1-9-4
		c-1.8-0.5-4,0.7-6,1.1c0.5,2,0.4,4.8,1.6,5.8c5.6,4.7,12.2,7.1,19.7,6c5.8-0.8,10.2-3.8,10.4-9.8c0.5-12.5,0.3-25.1,0.1-37.6
		c0-1.2-1.8-2.8-3.1-3.5c-2.2-1.2-4.6-1.8-7-2.6c-14.2-5-24.8,2.1-25.9,17.1c-0.5,7,2.3,12.3,9,13.9C62,78.5,68,78,74.8,78.4z
		 M505,731c-0.1-0.9-0.3-3.1-0.3-5.4c0-7.1,1.8-8.7,8.7-6.8c2.9,0.8,5.5,3.1,8.4,3.7c2,0.5,4.3-0.7,6.5-1.2c-0.6-2-0.7-5.2-2-5.7
		c-5.6-2.5-11.4-5.3-17.3-5.8c-8.2-0.7-12.6,3.7-12.9,11.9c-0.4,11.7-0.2,23.4,0.1,35.1c0,1.4,2,3.1,3.4,3.9c2.1,1.2,4.6,1.8,7,2.6
		c14,4.9,24.8-2.4,25.6-17.5c0.4-6.7-2.3-11.9-8.7-13.5C518.2,731.1,512.1,731.5,505,731z"/>
	<path class="st1" d="M408.3,165.4c-4,0-7.9,0.2-11.9,0c-4.5-0.2-5.7-2.7-3.3-6.7c0.2-0.4,0.6-0.6,0.7-1c1.1-2.8,2.1-5.6,3.1-8.4
		c-2.7,0-5.4-0.3-8,0.1c-14.8,2.1-25.4-2.7-32-16.1c-2-4-2.5-9.8-1.4-14.2c3.8-15.7,13-26,29.9-28.6c12.5-1.9,18.5-12,24-21.8
		c1.4-2.5-0.2-6.6,0.3-9.8c0.3-1.8,2.1-3.3,3.3-5c0.8,1.6,2.4,3.2,2.4,4.9c0,17.2,9,28.5,23.4,36.3c1.1,0.6,2.2,1.2,3.4,1.6
		c24.6,8.1,20.3,39.6,8.1,51.5c-5.8,5.7-13.1,5.8-20.5,4.8c-2.7-0.4-5.2-1.6-7.8-2.1c-1-0.2-2.2,0.4-3.3,0.7
		c0.3,1.1,0.5,2.3,1.1,3.2c0.7,1,2.2,1.5,2.6,2.6c0.8,2,1.9,4.3,1.5,6.2c-0.3,1.2-3.2,2.1-5,2.3c-3.5,0.4-7.1,0.1-10.6,0.1
		C408.3,165.7,408.3,165.6,408.3,165.4z"/>
	<path class="st1" d="M408.1,355.9c-3.7,0-7.5,0.1-11.2,0c-5-0.2-6.2-2.6-3.6-6.8c0.4-0.7,1.1-1.3,1.4-2.1c0.9-2.4,1.6-4.9,2.3-7.4
		c-2.3,0-4.6,0-6.9,0.2c-9,0.8-18.1,1.3-25.2-5.8c-6.4-6.4-12.9-13.1-9.8-23.4c4.1-13.8,10.6-25.8,26.4-28.5
		c10.4-1.8,17.9-6.9,23.7-15.6c3.1-4.6,6.2-8.9,4.6-14.8c-0.3-1-0.4-2.3,0-3.1c0.9-1.5,2.3-2.8,3.5-4.1c0.8,1.5,2.3,3,2.2,4.4
		c-0.4,14.2,6.2,24.8,17.1,33c3.1,2.3,6.8,3.9,10.4,5.7c15.4,7.8,20.9,20.9,15.5,37.4c-5.4,16.6-16.8,22.4-33.7,17.4
		c-1.9-0.6-4.1-0.1-6.2-0.1c1,1.6,2.3,3.1,3.1,4.8c1,2.1,2.8,4.7,2.2,6.5c-0.4,1.4-3.8,2.4-5.9,2.7c-3.3,0.4-6.6,0.1-10,0.1
		C408.1,356.2,408.1,356,408.1,355.9z"/>
	<path class="st1" d="M289.4,452.5c-3.5,0-7.1,0.2-10.6,0c-4.3-0.3-5.6-2.4-3.1-6.2c0.5-0.7,1.1-1.3,1.4-2.1
		c0.8-2.2,1.4-4.5,2.1-6.8c-2.1-0.1-4.2-0.3-6.2-0.1c-9.3,0.8-18.4,1-25.5-6.8c-12.8-14.2-8.5-36.4,8.9-44.8c3.3-1.6,7-2.8,10.6-3.6
		c15.1-3.6,24.1-14.5,24.7-29.9c0.1-1.8,1.9-3.4,2.9-5.1c0.8,1.7,2.1,3.4,2.2,5.1c0.5,15.8,8.6,26.5,22.1,33.8
		c0.9,0.5,1.9,0.9,2.8,1.3c20,9.1,23.7,36.1,6.7,50.3c-6.4,5.3-13.9,4.3-21.4,2.6c-2-0.4-4.1,0-6.2,0c0.9,1.7,2,3.3,2.7,5.1
		c0.8,1.8,2.1,4.1,1.5,5.5c-0.5,1.3-3.2,2.3-5,2.5c-3.5,0.4-7.1,0.1-10.6,0.1C289.4,453,289.4,452.7,289.4,452.5z"/>
	<path class="st1" d="M397.1,471.6c-2.5-2.7-5.2-5.2-7.4-8.1c-1.3-1.8-2.4-4.5-2.1-6.5c0.2-1.1,3.6-2.3,5.6-2.3
		c7.1-0.1,14.2,0.1,21.2,0.4c5,0.2,6.1,2.6,3.5,6.9c-2.1,3.6-4.1,7.2-6.4,11.1c7-0.7,13.4-2,19.8-1.8c18.6,0.6,29.5,19.1,22.3,36
		c-4.1,9.5-9.2,17.3-19.6,20.2c-2.9,0.8-5.8,1.6-8.7,2.3c-11.4,2.4-17.2,11.1-22.4,20.1c-1.7,2.9-0.7,7.2-1.5,10.8
		c-0.5,2.1-2,3.9-3.1,5.8c-0.8-1.9-2.2-3.7-2.3-5.6c-0.6-16-8.5-27.3-22.3-34.7c-1.5-0.8-2.9-1.6-4.4-2.3
		c-18.4-9.2-23.5-27.9-12.6-45.5c6.1-9.7,14.5-13.3,25.7-10.4c4.6,1.2,9,3.1,13.5,4.7C396.3,472.1,396.7,471.8,397.1,471.6z"/>
	<path class="st1" d="M397,660.6c-2.4-2.5-5-4.9-7-7.7c-1.4-1.9-3-4.6-2.4-6.4c0.4-1.4,3.8-2.7,5.9-2.8c6.9-0.2,13.7,0.1,20.6,0.3
		c5.5,0.2,6.6,2.5,3.8,7.1c-2.1,3.5-4.1,7.2-6.1,10.8c7.1-0.6,13.9-2,20.5-1.7c17.6,0.7,28.5,19.5,21.6,35.6
		c-4.1,9.7-9.3,17.7-20,20.7c-3.3,0.9-6.6,1.8-9.9,2.6c-11.3,2.7-16.5,12-21.8,20.9c-1.5,2.5-0.2,6.5-0.7,9.7
		c-0.3,2-1.7,3.8-2.6,5.6c-0.9-1.7-2.7-3.5-2.7-5.3c-0.5-16.6-8.7-28-23-35.6c-1.5-0.8-2.9-1.6-4.5-2.2
		c-17.9-6.9-20.2-22.9-14.5-39.7c5-14.7,16.7-19.7,31.5-15c3.5,1.1,6.9,2.7,10.3,4.1C396.3,661.4,396.7,661,397,660.6z"/>
	<path class="st1" d="M179.8,145.3c3.1,3.5,6.4,7,9.3,10.7c1.5,2,2.3,4.6,3.4,6.9c-2.3,0.9-4.6,2.6-6.9,2.7
		c-6.4,0.3-12.9,0-19.4-0.4c-1.8-0.1-4.6-0.9-5.2-2.2c-0.6-1.3,0.7-3.7,1.6-5.4c1.8-3.6,3.8-7.1,5.7-10.7c-7.3,0.9-13.7,2.5-20,2.3
		c-18.3-0.6-29-19.2-22.3-36.1c5.5-13.9,15.6-20.2,29.5-22.9c3.8-0.7,8-2.8,10.6-5.6c6.8-7.2,14.3-14.2,12.3-25.9
		c-0.2-1.3,1.9-3.1,2.9-4.6c0.8,1.4,2.4,2.9,2.4,4.3c0.1,19.3,11,31,27.2,39.1c8.9,4.4,16.5,9.7,17.1,20.9
		c0.7,12.7-1.9,24.1-13.3,31.6c-10.2,6.7-19.9,2.6-29.3-2.4c-1.6-0.9-3.1-2.2-4.6-3.2C180.4,144.7,180.1,145,179.8,145.3z"/>
	<path class="st1" d="M179.8,334.3c3,3.5,6.2,6.9,9,10.7c1.6,2.2,2.4,4.9,3.6,7.3c-2.4,0.9-4.7,2.4-7.1,2.5
		c-6.4,0.2-12.9,0-19.4-0.4c-1.7-0.1-4.4-0.8-4.7-1.8c-0.5-1.5,0.4-3.8,1.2-5.5c1.8-3.8,3.9-7.4,5.3-11.6c-10.3,4-20.4,5.6-29.7,0.1
		c-10.8-6.3-19.4-18.2-12-33.6c6.3-13.2,15.6-19.7,29.2-22.5c4.2-0.8,8.7-3.2,11.6-6.2c6.4-6.9,13.8-13.7,11.6-24.9
		c-0.3-1.4,1.6-3.3,2.5-5c1,1.5,2.8,3.1,2.8,4.6c0.2,19,10.9,30.7,26.9,38.6c9.1,4.5,16.9,9.8,17.5,21.3c0.7,13.1-2.3,24.7-14,31.9
		c-10,6.1-19.7,2-28.9-3.1c-1.6-0.9-3-2.1-4.5-3.1C180.4,333.8,180.1,334.1,179.8,334.3z"/>
	<path class="st1" d="M168.6,474.2c-3.3-3.8-6.5-7.2-9.2-10.9c-1.6-2.2-2.5-4.9-3.6-7.3c2.4-0.9,4.7-2.4,7.1-2.5
		c6.7-0.2,13.3,0.1,20,0.3c5,0.2,6,2.5,3.5,6.8c-2.2,3.8-4.2,7.7-6.2,11.3c7.6-0.8,14.4-2.3,21.1-1.9c16.6,0.8,27.4,19.6,21.4,35
		c-5.3,13.7-14.6,21.2-28.8,23.6c-12.6,2.1-18.4,12.2-23.8,22.1c-1.4,2.6,0.1,6.5-0.3,9.8c-0.2,1.5-1.8,2.9-2.7,4.3
		c-0.9-1.4-2.5-2.9-2.5-4.3c0.1-19.3-10.9-30.5-27-38.5c-20-9.8-23.6-34.4-7.9-50.5c6.2-6.4,13.8-6.9,21.4-4.9
		C156.8,468.2,162.2,471.4,168.6,474.2z"/>
	<path class="st1" d="M169.1,664.9c-4-4.4-7.3-7.7-10.2-11.5c-1.5-2-2.2-4.6-3.2-6.9c2.3-0.9,4.7-2.5,7-2.6c6.7-0.2,13.3,0.1,20,0.3
		c5,0.2,6.1,2.4,3.5,6.8c-2.2,3.8-4.3,7.8-6.2,11.3c7.6-0.8,14.4-2.3,21.1-2c16.7,0.8,27.4,19.6,21.4,35
		c-5.3,13.7-14.6,21.2-28.8,23.6c-12.6,2.1-18.4,12.2-23.8,22.1c-1.4,2.5,0.1,6.5-0.3,9.8c-0.2,1.5-1.7,2.9-2.7,4.3
		c-0.9-1.4-2.6-2.8-2.5-4.2c0.1-19.3-10.9-30.5-27-38.5c-20-9.8-23.7-34.4-8-50.4c6.2-6.4,13.7-6.9,21.4-5
		C156.7,658.6,162.2,661.8,169.1,664.9z"/>
	<path class="st1" d="M70.6,192.8c0.1,1.7,0.1,2.3,0.3,2.8c0.9,2.5,1.9,5,2.8,7.6c-2.5,0.4-5.1,1.1-7.6,1.2c-4.4,0.2-8.7,0-13.1-0.2
		c-4.6-0.2-5.6-2.1-3-6c1.3-1.9,2.1-4.2,3.2-6.4c-5.5,0-10.2,0.3-14.8-0.1c-13.6-1.2-21.5-15.3-16.6-27.8
		c4.1-10.4,11.2-15.9,21.9-18c11-2.2,18.5-12.1,18.8-23.1c0.1-1.7,1.4-3.4,2.2-5.1c0.9,1.6,2.4,3.2,2.5,4.8
		c0.4,14.1,8.5,22.4,20.4,28.2c13.9,6.8,18,19.6,11.2,33.3c-4.7,9.4-12,12.8-22.2,10.3C74.8,193.8,73,193.3,70.6,192.8z"/>
	<path class="st1" d="M525.6,619.4c10.4-2.3,18.9-3.7,26.2,2.8c11.9,10.6,9.7,29.4-4.5,37.3c-3.2,1.8-6.9,2.9-10.5,3.8
		c-11.8,2.9-19,11.7-19.6,23.9c-0.1,1.6-1.3,3.1-2,4.6c-0.9-1.3-2.6-2.6-2.6-4c-0.1-14.7-8.5-23.2-20.8-29.3
		c-13.6-6.7-17.6-19.9-10.5-33.5c4.8-9.2,11.7-12.3,21.8-9.8c1.9,0.5,3.7,0.9,5.9,1.5c0-1.6,0.2-2.2,0-2.7c-0.9-2.5-1.9-5.1-2.8-7.6
		c2.8-0.4,5.5-1.1,8.3-1.3c4.2-0.2,8.3,0,12.5,0.1c4.6,0.2,5.6,2,3,6C528.4,613.3,527.5,615.8,525.6,619.4z"/>
	<path class="st1" d="M74.8,78.4C68,78,62,78.5,56.4,77.2c-6.7-1.6-9.5-6.9-9-13.9c1-15,11.7-22.1,25.9-17.1c2.4,0.8,4.8,1.5,7,2.6
		c1.3,0.7,3.1,2.3,3.1,3.5c0.2,12.5,0.3,25.1-0.1,37.6c-0.2,6.1-4.6,9-10.4,9.8c-7.5,1.1-14.1-1.3-19.7-6c-1.3-1.1-1.1-3.9-1.6-5.8
		c2-0.4,4.2-1.6,6-1.1c3.1,0.8,5.9,3.1,9,4c6.5,1.7,8.4,0.1,8.5-6.5C75.1,81.8,74.8,79.4,74.8,78.4z M63.6,70.2
		c4.3-0.1,10.5-6.6,10.4-10.4c-0.1-6.5-5.6-6.1-9.4-6.8c-4.2-0.9-8.4,5.4-8.4,11.3C56.3,69.7,60.6,69.4,63.6,70.2z"/>
	<path class="st1" d="M505,731c7.1,0.5,13.1,0.1,18.7,1.4c6.4,1.6,9.1,6.8,8.7,13.5c-0.8,15.1-11.6,22.4-25.6,17.5
		c-2.4-0.8-4.9-1.4-7-2.6c-1.5-0.8-3.4-2.5-3.4-3.9c-0.3-11.7-0.5-23.4-0.1-35.1c0.3-8.1,4.7-12.6,12.9-11.9
		c5.9,0.5,11.7,3.4,17.3,5.8c1.3,0.6,1.4,3.7,2,5.7c-2.2,0.4-4.5,1.6-6.5,1.2c-2.9-0.7-5.5-3-8.4-3.7c-6.9-1.8-8.8-0.3-8.7,6.8
		C504.7,727.9,505,730.1,505,731z M523.6,745.6c0.3-5.3-3.7-5.9-7.5-6.3c-3.9-0.3-10.2,5.9-10.4,9.9c-0.2,4,4.3,7.5,9.7,7.4
		C519.5,756.7,523.4,751.5,523.6,745.6z"/>
	<path class="st0" d="M63.6,70.2c-3.1-0.8-7.4-0.5-7.4-6c0-6,4.2-12.2,8.4-11.3c3.9,0.8,9.4,0.4,9.4,6.8
		C74.1,63.6,68,70.1,63.6,70.2z"/>
	<path class="st0" d="M523.6,745.6c-0.2,5.8-4.1,11.1-8.2,11.1c-5.4,0.1-9.9-3.4-9.7-7.4c0.2-4,6.5-10.3,10.4-9.9
		C519.9,739.7,523.8,740.3,523.6,745.6z"/>
</g>
</svg>
