<?xml version="1.0" encoding="utf-8"?>
<!-- Generator: Adobe Illustrator 24.0.0, SVG Export Plug-In . SVG Version: 6.00 Build 0)  -->
<svg version="1.1" id="Layer_1" xmlns="http://www.w3.org/2000/svg" xmlns:xlink="http://www.w3.org/1999/xlink" x="0px" y="0px"
	 viewBox="0 0 838 838" style="enable-background:new 0 0 838 838;" xml:space="preserve">
<style type="text/css">
	.st0{fill:#FED700;}
	.st1{fill:#FEB701;}
	.st2{fill:#FEE856;}
</style>
<path class="st0" d="M400.9,427.6L606.3,42.7c-15.7-7.2-66.6-41.9-187.8-42.2C187.4-0.2,0,187.9,0,419s187.4,418.5,418.5,418.5
	c128.2,0,187.7-42.6,187.7-42.6L400.9,427.6z"/>
<circle cx="399.4" cy="223.3" r="45.5"/>
<path class="st1" d="M486.2,832C450.8,821,262.9,755,151,579.3c-101.9-160-46.1-419.2-40.5-443.5C41.9,210.3,0,309.8,0,419
	c0,231.2,187.4,418.5,418.5,418.5C441.6,837.5,464.2,835.7,486.2,832z"/>
<path class="st2" d="M416.6,455.7L606.3,795c-23,14.7-51.6,23.2-83,31.8L416.6,455.7z"/>
<path class="st2" d="M575,102C518.3,38.9,404.9,5.2,393.9,1.2c18.2-1.1,61.4,0.3,79.3,2.8c81.6,6.5,133.1,38.6,133.1,38.6L575,102z"
	/>
</svg>
