<?xml version="1.0" encoding="utf-8"?>
<!-- Generator: Adobe Illustrator 24.0.0, SVG Export Plug-In . SVG Version: 6.00 Build 0)  -->
<svg version="1.1" id="Layer_1" xmlns="http://www.w3.org/2000/svg" xmlns:xlink="http://www.w3.org/1999/xlink" x="0px" y="0px"
	 viewBox="0 0 838 838" style="enable-background:new 0 0 838 838;" xml:space="preserve">
<style type="text/css">
	.st0{fill:#FED700;}
	.st1{fill:#FEB701;}
	.st2{fill:#FEE856;}
</style>
<path class="st0" d="M400.9,427.6L718.3,127C655.2,62.9,566.9,0.5,418.5,0.5C187.4,0.5,0,187.9,0,419s187.4,418.5,418.5,418.5
	c170.9,0,259.8-80.4,299.8-150.6L400.9,427.6z"/>
<circle cx="399.4" cy="223.3" r="45.5"/>
<path class="st1" d="M486.2,832.1c-35.4-11.1-223.3-77-335.2-252.8c-101.9-160-46.1-419.2-40.5-443.5C41.9,210.3,0,309.8,0,419
	c0,231.2,187.4,418.5,418.5,418.5C441.6,837.6,464.2,835.7,486.2,832.1z"/>
<path class="st2" d="M431.6,452.7L718.3,687c-15.1,33.8-39.1,60.4-86.8,92.8L431.6,452.7z"/>
<path class="st2" d="M660.5,181.7C552.7,58,404.9,5.2,393.9,1.2c18.2-1.1,61.4,0.3,79.3,2.8c142.1,9.1,245.1,122.9,245.1,122.9
	L660.5,181.7z"/>
</svg>
