<?xml version="1.0" encoding="utf-8"?>
<!-- Generator: Adobe Illustrator 24.0.0, SVG Export Plug-In . SVG Version: 6.00 Build 0)  -->
<svg version="1.1" id="Layer_1" xmlns="http://www.w3.org/2000/svg" xmlns:xlink="http://www.w3.org/1999/xlink" x="0px" y="0px"
	 viewBox="0 0 837.1 837.1" style="enable-background:new 0 0 837.1 837.1;" xml:space="preserve">
<style type="text/css">
	.st0{fill:#FED700;}
	.st1{fill:#FEB701;}
	.st2{fill:#FEE856;}
</style>
<path class="st0" d="M400.9,427.1l370.6-233.6C697.1,77.1,566.9,0,418.5,0C187.4,0,0,187.4,0,418.5S187.4,837,418.5,837
	c170.9,0,317.8-102.4,382.8-249.1L400.9,427.1z"/>
<circle cx="399.4" cy="222.8" r="45.5"/>
<path class="st1" d="M486.2,831.6c-35.4-11.1-223.3-77-335.2-252.8c-101.9-160-46.1-419.2-40.5-443.5C41.9,209.8,0,309.3,0,418.5
	C0,649.7,187.4,837,418.5,837C441.6,837.1,464.2,835.2,486.2,831.6z"/>
<path class="st2" d="M467.9,454.3L801.4,588c-15.7,34.9-23.5,53.2-52.4,87.5C742.9,674.6,467.9,454.3,467.9,454.3"/>
<path class="st2" d="M704.4,236.3C596.5,38.6,410.4,4.4,399.4,0.4c18.2-1.1,55.9,0.6,73.8,3.1c209.8,26.2,298.3,190,298.3,190
	c-16.6,10.2-50.9,32.4-67.4,42.8"/>
</svg>
