<?xml version="1.0" encoding="utf-8"?>
<!-- Generator: Adobe Illustrator 24.0.0, SVG Export Plug-In . SVG Version: 6.00 Build 0)  -->
<svg version="1.1" id="Layer_1" xmlns="http://www.w3.org/2000/svg" xmlns:xlink="http://www.w3.org/1999/xlink" x="0px" y="0px"
	 viewBox="0 0 838 838" style="enable-background:new 0 0 838 838;" xml:space="preserve">
<style type="text/css">
	.st0{fill:#FED700;}
	.st1{fill:#FEB701;}
	.st2{fill:#FEE856;}
</style>
<path class="st0" d="M400.9,427.6L808,323.5c-56-239-287-323-389.5-323C187.4,0.5,0,187.9,0,419s187.4,418.5,418.5,418.5
	c170.9,0,353-126,389.5-297L400.9,427.6z"/>
<circle cx="399.4" cy="223.3" r="45.5"/>
<path class="st1" d="M486.2,832.1c-35.4-11.1-223.3-77-335.2-252.8c-101.9-160-46.1-419.2-40.5-443.5C41.9,210.3,0,309.8,0,419
	c0,231.2,187.4,418.5,418.5,418.5C441.6,837.6,464.2,835.7,486.2,832.1z"/>
<path class="st2" d="M462.2,444.6L808,540.5c-4,26-11.4,48.4-32.5,88.6L462.2,444.6"/>
<path class="st2" d="M733.5,342.5C645,23.5,449.1,6.5,438.1,2.5c321.9,44,369.9,321,369.9,321S758.2,336.2,733.5,342.5"/>
</svg>
