<?xml version="1.0" encoding="utf-8"?>
<!-- Generator: Adobe Illustrator 24.0.0, SVG Export Plug-In . SVG Version: 6.00 Build 0)  -->
<svg version="1.1" id="Layer_1" xmlns="http://www.w3.org/2000/svg" xmlns:xlink="http://www.w3.org/1999/xlink" x="0px" y="0px"
	 viewBox="0 0 838 838" style="enable-background:new 0 0 838 838;" xml:space="preserve">
<style type="text/css">
	.st0{fill:#FED700;}
	.st1{fill:#FEB701;}
	.st2{fill:#FEE856;}
</style>
<g>
	<path class="st0" d="M150,579.3c71.6,112.5,174.4,180,248.4,217V268.8c-25.1,0-45.5-20.4-45.5-45.5s20.4-45.5,45.5-45.5V3.1
		c-2.6-0.9-4.5-1.5-5.5-1.9c1.6-0.1,3.5-0.2,5.5-0.2V0.9C196.4,9.4,31.7,162.2,3.3,358.7c12.3-85.3,50.4-162.3,106.2-222.8
		C103.9,160.1,48.1,419.3,150,579.3z"/>
	<path class="st0" d="M0.6,382.8c0.1-1.1,0.2-2.2,0.3-3.2C0.7,380.7,0.6,381.7,0.6,382.8z"/>
	<path class="st0" d="M2.1,368c0.2-1.4,0.3-2.7,0.5-4.1C2.4,365.3,2.3,366.6,2.1,368z"/>
	<path class="st0" d="M1,377.8c0.1-1.2,0.2-2.3,0.4-3.5C1.2,375.5,1.1,376.6,1,377.8z"/>
	<path class="st0" d="M1.5,372.9c0.1-1.2,0.3-2.5,0.4-3.7C1.8,370.4,1.7,371.6,1.5,372.9z"/>
	<path class="st0" d="M2.7,363.2c0.2-1.5,0.4-3,0.6-4.5C3.1,360.2,2.9,361.7,2.7,363.2z"/>
	<path class="st0" d="M-0.9,408.5c0-0.8,0-1.5,0.1-2.3C-0.8,407-0.9,407.8-0.9,408.5z"/>
	<path class="st0" d="M-0.7,403.3c0-0.8,0.1-1.7,0.1-2.5C-0.6,401.6-0.7,402.5-0.7,403.3z"/>
	<path class="st0" d="M-1,413.8c0-0.6,0-1.2,0-1.9C-0.9,412.5-1,413.1-1,413.8z"/>
	<path class="st0" d="M-0.2,393c0.1-1,0.1-1.9,0.2-2.9C-0.1,391.1-0.1,392-0.2,393z"/>
	<path class="st0" d="M-0.5,398.1c0-0.9,0.1-1.8,0.1-2.7C-0.4,396.3-0.4,397.2-0.5,398.1z"/>
	<path class="st0" d="M0.1,387.9c0.1-1,0.2-2,0.2-3C0.3,385.9,0.2,386.9,0.1,387.9z"/>
	<path d="M352.9,223.3c0,25.1,20.4,45.5,45.5,45.5v-91C373.3,177.8,352.9,198.2,352.9,223.3z"/>
	<path class="st1" d="M398.4,796.3c-74-36.9-176.8-104.4-248.4-217c-101.9-160-46.1-419.2-40.5-443.5
		C53.8,196.3,15.7,273.4,3.3,358.7v0.1c-0.2,1.5-0.4,3-0.6,4.5c0,0.2-0.1,0.5-0.1,0.7c-0.2,1.4-0.3,2.7-0.5,4.1
		c0,0.4-0.1,0.8-0.1,1.1c-0.1,1.2-0.3,2.5-0.4,3.7c-0.1,0.5-0.1,1-0.2,1.5c-0.1,1.2-0.2,2.3-0.4,3.5c-0.1,0.6-0.1,1.2-0.2,1.8
		c-0.1,1.1-0.2,2.1-0.3,3.2c-0.1,0.7-0.1,1.4-0.2,2c-0.1,1-0.2,2-0.2,3c-0.1,0.8-0.1,1.5-0.2,2.3c-0.1,1-0.1,1.9-0.2,2.9
		c-0.1,0.8-0.1,1.6-0.1,2.5s-0.1,1.8-0.1,2.7c0,0.9-0.1,1.8-0.1,2.7c0,0.8-0.1,1.7-0.1,2.5c0,1-0.1,1.9-0.1,2.9c0,0.8,0,1.5-0.1,2.3
		c0,1.1,0,2.3-0.1,3.4c0,0.6,0,1.2,0,1.9c0,1.8,0,3.5,0,5.3c0,224.8,177.2,408.1,399.4,418.1V796.3z"/>
	<path class="st2" d="M398.4,3.1V1c-2,0.1-3.9,0.1-5.5,0.2C393.9,1.6,395.8,2.2,398.4,3.1z"/>
</g>
</svg>
