<?xml version="1.0" encoding="utf-8"?>
<!-- Generator: Adobe Illustrator 24.0.0, SVG Export Plug-In . SVG Version: 6.00 Build 0)  -->
<svg version="1.1" id="Layer_1" xmlns="http://www.w3.org/2000/svg" xmlns:xlink="http://www.w3.org/1999/xlink" x="0px" y="0px"
	 viewBox="0 0 838 838" style="enable-background:new 0 0 838 838;" xml:space="preserve">
<style type="text/css">
	.st0{fill:#FED700;}
	.st1{fill:#FEB701;}
</style>
<g>
	<path class="st0" d="M8.6,334.3c0.4-2.1,0.9-4.2,1.3-6.3C9.4,330.1,9,332.2,8.6,334.3z"/>
	<path class="st0" d="M143.5,566.7l255.9-154L94.4,240C85.5,332.2,86.3,466.3,143.5,566.7z"/>
	<path class="st0" d="M52.3,216.2l0.1-0.3c-19.2,34.5-33.6,72-42.4,111.6C18.8,288,33.2,250.6,52.3,216.2L52.3,216.2z"/>
	<path class="st0" d="M7,342.4c0.4-2.3,0.9-4.6,1.3-6.8C7.8,337.8,7.4,340.1,7,342.4z"/>
	<path class="st1" d="M94.4,240l-42.1-23.8C33.2,250.6,18.8,288,10,327.5c0,0.2-0.1,0.3-0.1,0.5c-0.5,2.1-0.9,4.2-1.3,6.3
		c-0.1,0.4-0.2,0.9-0.3,1.3c-0.5,2.3-0.9,4.6-1.3,6.8c0,0.2-0.1,0.4-0.1,0.6c-0.4,2.2-0.8,4.4-1.2,6.6c-0.1,0.5-0.2,1-0.3,1.5
		c-0.4,2.4-0.8,4.9-1.1,7.3v0.1c-0.2,1.5-0.4,3-0.6,4.5c0,0.2-0.1,0.5-0.1,0.7c-0.2,1.4-0.3,2.7-0.5,4.1c0,0.4-0.1,0.8-0.1,1.1
		c-0.1,1.2-0.3,2.5-0.4,3.7c-0.1,0.5-0.1,1-0.2,1.5c-0.1,1.2-0.2,2.3-0.4,3.5c-0.1,0.6-0.1,1.2-0.2,1.8c-0.1,1.1-0.2,2.1-0.3,3.2
		c-0.1,0.7-0.1,1.4-0.2,2c-0.1,1-0.2,2-0.2,3c0,0.8-0.1,1.6-0.1,2.3c-0.1,1-0.1,1.9-0.2,2.9c-0.1,0.8-0.1,1.6-0.1,2.5
		s-0.1,1.8-0.1,2.7s-0.1,1.8-0.1,2.7c0,0.8-0.1,1.7-0.1,2.5c0,1-0.1,1.9-0.1,2.9c0,0.8,0,1.5-0.1,2.3c0,1.1,0,2.3-0.1,3.4
		c0,0.6,0,1.2,0,1.9c0,1.8,0,3.5,0,5.3c0,73.6,19,142.7,52.3,202.8l91.2-54.9C86.3,466.3,85.5,332.2,94.4,240z"/>
</g>
</svg>
