<?xml version="1.0" encoding="utf-8"?>
<!-- Generator: Adobe Illustrator 24.0.0, SVG Export Plug-In . SVG Version: 6.00 Build 0)  -->
<svg version="1.1" id="Layer_1" xmlns="http://www.w3.org/2000/svg" xmlns:xlink="http://www.w3.org/1999/xlink" x="0px" y="0px"
	 viewBox="0 0 838 838" style="enable-background:new 0 0 838 838;" xml:space="preserve">
<style type="text/css">
	.st0{display:none;fill:#FCEE21;}
	.st1{fill:#FCD321;}
	.st2{fill:#FCEE88;}
	.st3{fill:#FCEE21;}
	.st4{fill:#FCEE68;}
	.st5{fill:#FCB521;}
	.st6{fill:#FCAB21;}
	.st7{fill:#FCEE7C;}
</style>
<path class="st0" d="M-242,914.7L-61.1,810C-97.3,747.7-164.7,705.7-242,705.7c-115.4,0-209,93.6-209,209s93.6,209,209,209
	c80.3,0,150-45.3,185-111.6L-242,914.7z"/>
<path class="st0" d="M-494,1064.3l-146-149.5l146-149.5c-37.7-36.8-89.2-59.5-146-59.5c-115.4,0-209,93.6-209,209s93.6,209,209,209
	C-583.2,1123.7-531.7,1101.1-494,1064.3L-494,1064.3z"/>
<path class="st0" d="M201,914.7L402.5,859C378.1,770.7,297.1,705.7,201,705.7c-115.4,0-209,93.6-209,209s93.6,209,209,209
	c96.1,0,177.1-64.9,201.5-153.3L201,914.7z"/>
<circle class="st0" cx="410" cy="427.7" r="209"/>
<path class="st0" d="M-1171.9,1018.7L-992,914.8l-176.9-109c-19.4,31.7-30.6,69-30.6,109C-1199.5,952.6-1189.5,988.1-1171.9,1018.7
	L-1171.9,1018.7z"/>
<g>
	<g>
		<path class="st1" d="M302.2,276.4c-10.7-17.6-21.4-35.2-32.1-52.5c-10.5-17.3-21-34.7-32.1-51.5c-10.1-15.4-21.2-29.9-33.8-42.2
			c-12.9-12.5-26.5-23.4-41-33c-16.2-10.6-33.1-20-49.9-29.4c-3-1.7-5.9-2.6-9.1-1.4c-2.8,1-5.7,3.6-7.1,6.7
			c-2.8,6.3-1.8,16.4,4.4,19.8c28.7,16.1,58,32.3,83.5,55.4c0.6,0.5,1.4,1.4,2,1.9c0,0-1.8-1.7-0.8-0.7c0.4,0.5,0.8,0.7,1.4,1.2
			c1.6,1.4,3,2.9,4.6,4.6c3,3.1,5.9,6.5,8.9,9.9c5.7,6.7,11.1,14,16.2,21.4c2.6,3.9,5.1,7.7,7.7,11.6c0.2,0.5,0.6,0.7,0.8,1.2
			c0.8,1.2-0.4-0.7-0.6-0.7c0.8,0.7,1.4,2.2,1.8,2.9c1.2,1.9,2.4,3.9,3.8,6c5.1,8.2,10.1,16.4,15,24.8c12.1,19.5,23.9,39.3,36,58.8
			c2,3.1,4,5.5,7.1,6.7c2.8,1,6.5,0.5,9.1-1.4C303,292.3,306.2,282.9,302.2,276.4L302.2,276.4z"/>
	</g>
</g>
<g>
	<g>
		<path class="st2" d="M417.9,344.8c-2.1-17.7-2.1-35.6-0.6-53.3c0.2-2.2,0.4-4.3,0.6-6.3c0.2-1.1,0.2-2,0.4-3.1
			c0.4-3.6-0.4,2.9,0-0.7c0.6-4.7,1.3-9.2,2.1-13.7c1.5-8.7,3.4-17.5,5.3-26.2c8.1-34.7,18.9-69,28.9-103
			c5.7-19.9,11.7-39.6,17.4-59.6c1.9-6.7-2.3-15-8.9-16.6c-7-1.6-13.6,2.2-15.7,9.4c-10.4,35.4-20.6,70.8-31,106.1
			c-10.2,35.2-19.7,70.3-23.8,107c-2.3,19.9-2.5,40.3-0.2,60.2c0.4,3.8,1.1,6.7,3.8,9.4c2.1,2.2,5.7,4,8.9,4
			C411.3,358,418.7,352.4,417.9,344.8L417.9,344.8z"/>
	</g>
</g>
<g>
	<g>
		<path class="st3" d="M347.6,421.2c-66.9-2.2-133.8-2.8-200.4-1.6c-18.9,0.3-37.8,0.9-56.4,1.4c-8.4,0.3-16.7,4.5-16.2,10.4
			c0.3,5.4,7,10.7,16.2,10.4c66.9-2.1,133.8-2.4,200.6-1.2c18.9,0.3,37.5,0.9,56.4,1.4c8.4,0.3,16.5-5,16.2-10.4
			C363.3,425.7,356.5,421.5,347.6,421.2L347.6,421.2z"/>
	</g>
</g>
<g>
	<g>
		<path class="st4" d="M398.3,512.2c-1.6,21.6-3.1,43.3-4.7,64.9c-1.5,21.3-2.9,42.7-4.7,63.8c-0.5,5.8-1,11.3-1.7,16.9
			c-0.3,2.7-0.7,5.1-1.1,7.8c-0.2,1.3-0.5,2.9-0.7,4.2c-0.1,0.2-0.1,1.1-0.3,1.3c0.3-1.6,0.3-1.8,0.2-0.9c-0.1,0.4-0.2,0.9-0.3,1.3
			c-0.7,3.3-1.1,6.7-0.6,10.2c0.4,3.1,1.5,6.4,2.8,8c2.6,3.1,6.8,2,8.2-4.9c4.1-20,5.4-41.3,7-62.9c1.6-22,3.2-44,4.8-66
			c0.9-12.4,1.8-24.7,2.7-37.1c0.3-3.6,0.3-6.9-0.6-10.2c-0.7-2.7-2.2-5.3-3.6-6.2C402.8,501.4,398.9,504.9,398.3,512.2L398.3,512.2
			z"/>
	</g>
</g>
<g>
	<g>
		<path class="st3" d="M459.8,465.1c2.2,0,4.2,0.2,6.5,0.5c1.1,0,2.2,0.2,3.1,0.5c0.4,0,0.9,0.2,1.3,0.2c-1.3-0.2-2.4-0.5-0.4,0
			c4.2,0.7,8.2,1.7,12.5,2.6c4.2,1.2,8.5,2.6,12.5,4.1c2,0.7,4,1.7,6,2.4c0.9,0.5,1.8,0.7,2.4,1.2c-3.6-1.4,0.2,0,0.9,0.5
			c8,3.8,16,8.6,23.4,13.6c3.8,2.4,7.3,5,10.9,7.6c1.8,1.4,3.6,2.6,5.3,4.1c0.9,0.7,1.8,1.4,2.7,2.2c0.4,0.2,0.7,0.7,1.1,1
			c2,1.7-1.3-1.2-0.2,0c28.5,24.4,52.7,53.5,79,80.3c15.6,16,32,30.8,50.1,43.5c5.8,4.1,14.9,1.4,18.2-5.3
			c3.6-7.2,1.6-15.3-4.9-19.6c-3.8-2.6-7.8-5.5-11.6-8.6c-0.9-0.7-1.8-1.4-2.7-2.2c-0.4-0.2-1.1-1.2-1.6-1.2c0,0,2,1.7,0.9,0.7
			c-1.8-1.7-3.8-3.1-5.6-4.8c-7.1-6.2-14.2-12.9-20.9-19.8c-13.6-13.6-26.5-28.2-39.8-42.3c-26-27.7-53.8-55-87.2-72.2
			c-19.6-10-40.3-16.5-62.1-17.7c-6.9-0.2-13.6,6.9-13.3,14.3C446.8,458.7,452.2,464.7,459.8,465.1L459.8,465.1z"/>
	</g>
</g>
<g>
	<g>
		<path class="st3" d="M503.8,344.4c17.9-19.6,37-38.3,57.3-55.9c20-17.2,41-33.4,63.3-48.4c0.4-0.2,1.6-1.1,0.4-0.3
			s0.2-0.2,0.4-0.3c0.9-0.5,1.6-1.1,2.5-1.5c1.6-0.9,3-2,4.6-2.9c3.2-2,6.4-4,9.6-6c6.4-4,12.9-8,19.6-11.6
			c4.6-2.6,7.1-8.3,3.9-12.6c-3-4-9.6-6.1-14.5-3.4c-23.9,13.8-46.9,29-68.6,45.2c-21.8,16.2-42.3,33.9-61.6,52.2
			c-11,10.6-21.4,21.3-31.7,32.5c-1.8,2-3.2,3.8-3.2,6.4c0,2.3,1.2,4.9,3.2,6.4C492.6,347.5,500,348.4,503.8,344.4L503.8,344.4z"/>
	</g>
</g>
<g>
	<g>
		<path class="st5" d="M278,531.5c-9.6,21.2-20.1,41.9-31.2,62.2c-2.8,5-5.5,10-8.6,14.7c-1.5,2.5-2.8,5-4.3,7.2
			c-0.8,1.2-1.3,2.2-2,3.4c-0.3,0.6-0.8,1.3-1,1.6c-1,1.9-1,2.2,0,0c-2.5,5-6,9.7-9.1,14.1c-3,4.7-6.3,9.4-9.3,14.1
			c-7.3,10.6-14.8,20.9-22.6,30.9c-5.5,7.2-6,19.7,0,26.6s15.6,7.5,21.4,0c28.2-36.6,53.6-76.6,75.5-119.4
			c6-11.9,12.1-24.1,17.6-36.6c3.8-8.4,1.8-20.9-5.5-25.6C291.6,520,282.3,522.2,278,531.5L278,531.5z"/>
	</g>
</g>
<g>
	<g>
		<path class="st3" d="M489.7,588.9c3,2.4,5.9,5.1,8.5,7.9c1.3,1.4,2.5,2.8,3.7,4.3c0.2,0.2,0.3,0.4,0.5,0.6
			c-0.5-0.7-0.6-0.8-0.2-0.3c0.2,0.3,0.5,0.6,0.7,1c0.6,0.8,1.2,1.6,1.7,2.5c2.1,3.2,4,6.5,5.7,9.9c0.3,0.7,1.1,1.8,1.2,2.6
			c-0.3-0.8-0.4-0.9-0.1-0.3c0.1,0.2,0.2,0.5,0.3,0.7c0.1,0.4,0.3,0.7,0.4,1.1c0.7,1.9,1.4,3.8,1.9,5.7c0.9,3,4.3,5.2,7.4,4.2
			c3-1,5.1-4.2,4.2-7.4c-4.7-16-14.3-30.6-27.3-41c-1.3-1-2.5-1.8-4.2-1.8c-1.5,0-3.2,0.7-4.2,1.8
			C487.7,582.6,487.1,586.8,489.7,588.9L489.7,588.9z"/>
	</g>
</g>
<g>
	<g>
		<path class="st6" d="M641,384.6c0.1,0,1.2-0.6,1.2-0.5c0,0-1.1,0.5-0.2,0.1c0.8-0.3,1.5-0.6,2.3-0.9c1.5-0.5,3-1,4.4-1.4
			c2.9-0.8,5.9-1.4,8.9-1.9c0.9-0.1-1.5,0.2,0,0c0.4,0,0.7-0.1,1.1-0.1c0.7-0.1,1.5-0.1,2.2-0.2c1.6-0.1,3.1-0.2,4.7-0.2
			c1.5,0,3,0,4.5,0.1c0.8,0.1,1.6,0.1,2.4,0.2c0.4,0,0.7,0.1,1.1,0.1c1.3,0.1-1.2-0.2,0.2,0c1.7,0.2,3.1,0.3,4.6-0.6
			c1.2-0.7,2.4-2.2,2.8-3.6c0.6-2.8-0.9-6.9-4.2-7.4c-7.4-1.1-14.6-1.1-22.1-0.1c-7,1-13.6,3.1-20,5.9c-2.9,1.3-3.8,5.7-2.2,8.2
			C634.7,385.4,638,385.9,641,384.6L641,384.6z"/>
	</g>
</g>
<g>
	<g>
		<path class="st7" d="M158.8,304.9c-7.7-0.8-15.4-1.6-23.1-2.4c-3.1-0.3-6.1,3-6,6c0.2,3.5,2.6,5.7,6,6c7.7,0.8,15.4,1.6,23.1,2.4
			c3.1,0.3,6.1-3,6-6C164.6,307.4,162.1,305.3,158.8,304.9L158.8,304.9z"/>
	</g>
</g>
<g>
	<g>
		<path class="st3" d="M352.7,175.5c-3.9-20.9-9.1-41.7-15.2-62.1c-2-6.4-6.5-12.2-10.3-10.7c-3.5,1.2-5.8,7.3-3.6,14.4
			c6.1,20.3,11.3,41.1,15.2,62.1c0.5,3,2.8,6.7,4.4,8.2c1.7,1.8,4.1,2.9,5.9,2.5c1.8-0.7,3.4-2.2,3.9-5.1
			C353.6,181.7,353.4,178.9,352.7,175.5L352.7,175.5z"/>
	</g>
</g>
</svg>
