<?xml version="1.0" encoding="utf-8"?>
<!-- Generator: Adobe Illustrator 24.0.0, SVG Export Plug-In . SVG Version: 6.00 Build 0)  -->
<svg version="1.1" id="Layer_1" xmlns="http://www.w3.org/2000/svg" xmlns:xlink="http://www.w3.org/1999/xlink" x="0px" y="0px"
	 viewBox="0 0 838 838" style="enable-background:new 0 0 838 838;" xml:space="preserve">
<style type="text/css">
	.st0{fill:#FED700;}
	.st1{fill:#FEB701;}
</style>
<g>
	<path class="st0" d="M151,578c28.1,44.1,60.9,81.3,95,112.4l153.4-278.9l-204.3-348C98.4,124.7,28.5,224.6,7,341.3
		c14.6-78.9,51.3-150.1,103.5-206.8C104.9,158.8,49.1,418,151,578z"/>
	<path class="st1" d="M151,578c-101.9-160-46.1-419.2-40.5-443.5C58.3,191.2,21.6,262.4,7,341.3c0,0.2-0.1,0.4-0.1,0.6
		c-0.4,2.2-0.8,4.4-1.2,6.6c-0.1,0.5-0.2,1-0.3,1.5c-0.4,2.4-0.8,4.9-1.1,7.3v0.1c-0.2,1.5-0.4,3-0.6,4.5c0,0.2-0.1,0.5-0.1,0.7
		c-0.2,1.4-0.3,2.7-0.5,4.1c0,0.4-0.1,0.8-0.1,1.1c-0.1,1.2-0.3,2.5-0.4,3.7c-0.1,0.5-0.1,1-0.2,1.5c-0.1,1.2-0.2,2.3-0.4,3.5
		c-0.1,0.6-0.1,1.2-0.2,1.8c-0.1,1.1-0.2,2.1-0.3,3.2c-0.1,0.7-0.1,1.4-0.2,2c-0.1,1-0.2,2-0.2,3C1,387.3,1,388,0.9,388.8
		c-0.1,1-0.1,1.9-0.2,2.9c-0.1,0.8-0.1,1.6-0.1,2.5s-0.1,1.8-0.1,2.7c0,0.9-0.1,1.8-0.1,2.7c0,0.8-0.1,1.7-0.1,2.5
		c0,1-0.1,1.9-0.1,2.9c0,0.8,0,1.5-0.1,2.3c0,1.1,0,2.3-0.1,3.4c0,0.6,0,1.2,0,1.9c0,1.8,0,3.5,0,5.3c0,151,79.9,283.2,199.7,356.8
		l46.3-84.1C211.9,659.3,179.1,622.1,151,578z"/>
</g>
</svg>
