<!DOCTYPE svg PUBLIC "-//W3C//DTD SVG 20010904//EN" "http://www.w3.org/TR/2001/REC-SVG-20010904/DTD/svg10.dtd">
<svg version="1.0" xmlns="http://www.w3.org/2000/svg" width="235px" height="234px" viewBox="0 0 2350 2340" preserveAspectRatio="xMidYMid meet">
<g id="layer101" fill="#ffffff" stroke="none">
 <path d="M885 2333 c-63 -15 -181 -61 -258 -100 -292 -150 -512 -415 -606 -730 -19 -63 -21 -96 -21 -334 0 -296 6 -334 77 -493 137 -303 395 -538 710 -647 l83 -29 315 0 315 0 85 29 c343 119 611 382 741 726 24 65 24 69 24 409 0 383 2 372 -76 531 -121 247 -318 438 -576 560 -169 80 -203 85 -518 84 -151 -1 -284 -3 -295 -6z"/>
 </g>

</svg>