<?xml version="1.0" encoding="utf-8"?>
<!-- Generator: Adobe Illustrator 24.0.0, SVG Export Plug-In . SVG Version: 6.00 Build 0)  -->
<svg version="1.1" id="Layer_1" xmlns="http://www.w3.org/2000/svg" xmlns:xlink="http://www.w3.org/1999/xlink" x="0px" y="0px"
	 viewBox="0 0 843 891.5" style="enable-background:new 0 0 843 891.5;" xml:space="preserve">
<style type="text/css">
	.st0{display:none;fill:#00003D;}
	.st1{fill:#0C1775;}
	.st2{fill:#006CFF;}
	.st3{fill:none;stroke:#006CFF;stroke-width:35;stroke-miterlimit:10;}
</style>
<rect x="-50.5" y="-28.5" class="st0" width="989" height="1002"/>
<path class="st1" d="M442.6,481.6L813.3,248c-74.4-116.4-204.6-193.5-353-193.5C229.1,54.5,41.8,241.9,41.8,473
	s187.4,418.5,418.5,418.5c170.9,0,317.8-102.4,382.8-249.1L442.6,481.6z"/>
<circle class="st2" cx="416.9" cy="240.3" r="45.5"/>
<path class="st3" d="M418.4,444.6L789,211C714.6,94.6,584.4,17.5,436,17.5C204.9,17.5,17.5,204.9,17.5,436S204.9,854.5,436,854.5
	c170.9,0,317.8-102.4,382.8-249.1L418.4,444.6z"/>
</svg>
