<!DOCTYPE svg PUBLIC "-//W3C//DTD SVG 20010904//EN" "http://www.w3.org/TR/2001/REC-SVG-20010904/DTD/svg10.dtd">
<svg version="1.0" xmlns="http://www.w3.org/2000/svg" width="50px" height="50px" viewBox="0 0 500 500" preserveAspectRatio="xMidYMid meet">
<g id="layer101" fill="#fbf001" stroke="none">
 <path d="M180 447 c-46 -15 -106 -77 -119 -124 -28 -100 1 -194 77 -247 57 -40 168 -49 229 -17 39 19 83 63 83 82 0 5 -31 30 -70 56 -38 27 -69 51 -70 54 0 3 32 27 70 53 39 25 70 50 70 55 0 18 -44 63 -81 81 -43 22 -131 25 -189 7z m54 -183 c9 -3 16 -12 16 -18 0 -18 -21 -35 -36 -29 -15 5 -19 35 -7 46 8 8 8 8 27 1z"/>
 </g>

</svg>