<?xml version="1.0" encoding="utf-8"?>
<!-- Generator: Adobe Illustrator 24.0.0, SVG Export Plug-In . SVG Version: 6.00 Build 0)  -->
<svg version="1.1" xmlns="http://www.w3.org/2000/svg" xmlns:xlink="http://www.w3.org/1999/xlink" x="0px" y="0px"
	 viewBox="0 0 870.7 966.3" style="enable-background:new 0 0 870.7 966.3;" xml:space="preserve">
<style type="text/css">
	.st0{fill:none;stroke:#2E72AB;stroke-width:3;stroke-miterlimit:10;}
	.st1{fill:#00001B;stroke:#182BD6;stroke-width:4;stroke-miterlimit:10;}
</style>
<g id="Layer_2">
	<g id="Layer_5">
		<rect width="871" height="966"/>
	</g>
	<line class="st0" x1="296" y1="263.5" x2="296" y2="327.7"/>
	<line class="st0" x1="452" y1="264.3" x2="452" y2="328.5"/>
</g>
<g id="Layer_1">
	<g id="Layer_4">
		
			<image style="display:none;overflow:visible;enable-background:new    ;" width="874" height="970" xlink:href="Asset 1.png"  transform="matrix(0.9962 0 0 0.9962 0 0)">
		</image>
		<g>
			<path class="st1" d="M574,410v-7.7c0-6.6,5.3-11.9,11.8-12l6.4-0.1c6.6-0.1,11.8-5.4,11.8-12v-38.5c0-6.6,5.3-11.9,11.9-12
				l8.7-0.1c6.6-0.1,11.9-5.4,11.9-12v-8.1c0-6.6,5.4-12,12-12h1c6.6,0,12,5.4,12,12v8c0,6.6,5.4,12,12,12h11c6.6,0,12,5.4,12,12
				v38.6c0,6.6,5.4,12,12,12h7c6.6,0,12,5.4,12,12v7.9c0,6.6,5.4,12,12,12h7c6.6,0,12-5.4,12-12v-70.6c0-6.6-5.4-12-12-12h-7
				c-6.6,0-12-5.4-12-12v-39c0-6.6-5.4-12-12-12H709c-6.6,0-12-5.4-12-12v-7c0-6.6-5.4-12-12-12h-69.6c-6.6,0-12,5.4-12,12v7
				c0,6.6-5.4,12-12,12h-6.5c-6.6,0-12,5.4-12,12v38c0,6.6-5.4,12-12,12H555c-6.6,0-12,5.4-12,12V410c0,6.6,5.4,12,12,12h7
				C568.6,422,574,416.6,574,410z"/>
			<path class="st1" d="M727.4,493v7.4c0,6.6-5.4,12-12,12H710c-6.6,0-12,5.4-12,12v39c0,6.6-5.4,12-12,12h-9c-6.6,0-12,5.4-12,12v8
				c0,6.6-5.4,12-12,12h-1c-6.6,0-12-5.4-12-12v-8c0-6.6-5.4-12-12-12h-11c-6.6,0-12-5.4-12-12v-38.6c0-6.6-5.4-12-12-12h-7
				c-6.6,0-12-5.4-12-12V493c0-6.6-5.4-12-12-12h-7c-6.6,0-12,5.4-12,12v70.4c0,6.6,5.4,12,12,12h7c6.6,0,12,5.4,12,12v39
				c0,6.6,5.4,12,12,12h6.4c6.6,0,12,5.4,12,12v5c0,6.6,5.4,12,12,12H686c6.6,0,12-5.4,12-12v-5c0-6.6,5.4-12,12-12h6.5
				c6.6,0,12-5.4,12-12v-39c0-6.6,5.4-12,12-12h5.9c6.6,0,12-5.4,12-12V493c0-6.6-5.4-12-12-12h-7C732.8,481,727.4,486.4,727.4,493z
				"/>
			<path class="st1" d="M861,22c0-6.6-5.4-12-12-12H23c-6.6,0-12,5.4-12,12v385c0,6.6,5.4,12,12,12h75c6.6,0,12-5.4,12-12v-4
				c0-6.6-5.4-12-12-12H59c-6.6,0-12-5.4-12-12c0-32-0.1-117.6-0.1-123v-11.2c0-2.6,2.1-4.8,4.8-4.8h23.6c2.4,0,4.5-1.7,4.7-4.1
				c0.3-2.7-1.9-4.9-4.5-4.9H27c-2.6,0-4.8-2.1-4.8-4.8L22,32c0-6.6,5.4-12,12-12h375c6.6,0,12,5.4,12,12v65c0,6.6,5.4,12,12,12h4
				c6.6,0,12-5.4,12-12V32c0-6.6,5.4-12,12-12h376c6.6,0,12,5.4,12,12v191.2c0,2.6-2.1,4.8-4.8,4.8H801c-6.6,0-12,5.4-12,12v4
				c0,6.6,5.4,12,12,12h9c6.6,0,12,5.4,12,12v129c0,8.3-2,21,12,21h21l0,0h1.2c2.6,0,4.8-2.1,4.8-4.8V22z"/>
			<path class="st1" d="M162.5,79.9h-70c-6.6,0-12,5.4-12,12v4c0,6.6,5.4,12,12,12h70c6.6,0,12-5.4,12-12v-4
				C174.5,85.2,169.1,79.9,162.5,79.9z"/>
			<path class="st1" d="M357.5,880.3l-78.5-0.2c-6.6,0-12-5.4-12-12v-32c0-7.2-5.8-13-13-13h-4.3c-7.2,0-13,5.8-13,13l-0.4,32.1
				c-0.1,6.6-5.4,11.8-12,11.8H84.5c-2.5,0-4.5,2-4.5,4.5l0,0c0,2.5,2,4.5,4.5,4.5h151.3l121.5,0.2c2.4,0,4.5-1.7,4.7-4.1
				C362.2,882.5,360.1,880.3,357.5,880.3z"/>
			<path class="st1" d="M514.2,880.3l78.5-0.2c6.6,0,12-5.4,12-12v-32c0-7.2,5.8-13,13-13h4.3c7.2,0,13,5.8,13,13l0.4,32.1
				c0.1,6.6,5.4,11.8,12,11.8h139.7c2.5,0,4.5,2,4.5,4.5l0,0c0,2.5-2,4.5-4.5,4.5H635.9l-121.5,0.2c-2.4,0-4.5-1.7-4.7-4.1
				C509.5,882.5,511.6,880.3,514.2,880.3z"/>
			<path class="st1" d="M781,79.9h-70c-6.6,0-12,5.4-12,12v4c0,6.6,5.4,12,12,12h70c6.6,0,12-5.4,12-12v-4
				C793,85.2,787.6,79.9,781,79.9z"/>
			<path class="st1" d="M627,79.9H526c-6.6,0-12,5.4-12,12v4c0,6.6,5.4,12,12,12h101c6.6,0,12-5.4,12-12v-4
				C639,85.2,633.6,79.9,627,79.9z"/>
			<path class="st1" d="M345,79.9H244c-6.6,0-12,5.4-12,12v4c0,6.6,5.4,12,12,12h101c6.6,0,12-5.4,12-12v-4
				C357,85.2,351.6,79.9,345,79.9z"/>
			<path class="st1" d="M80,170.5L80,170.5c0,2.5,2,4.5,4.5,4.5h45c6.7,0,12,5.4,12,12v4.2c0,6.8,5.5,12.3,12.3,12.3h8.3
				c6.6,0,11.9-5.3,11.9-11.9V178c0-6.7-5.4-12.1-12.1-12.1H84.5C82,166,80,168,80,170.5z"/>
			<path class="st1" d="M236,740.6v7.5c0,6.6,5.4,12,12,12h69.3c6.6,0,12,5.4,12,12v39c0,6.6,5.4,12,12,12h8.5c6.6,0,12-5.4,12-12
				v-70.5c0-6.6-5.4-12-12-12H248C241.4,728.6,236,733.9,236,740.6z"/>
			<path class="st1" d="M80,740.6v7.5c0,6.6,5.4,12,12,12h37.2c6.6,0,12,5.4,12,12v39c0,6.6,5.4,12,12,12h8.5c6.6,0,12-5.4,12-12
				v-70.5c0-6.6-5.4-12-12-12H92C85.4,728.6,80,733.9,80,740.6z"/>
			<path class="st1" d="M438.5,887.5h-7c-6.6,0-12-5.4-12-12v-135c0-6.6,5.4-12,12-12h7c6.6,0,12,5.4,12,12v135
				C450.5,882.1,445.1,887.5,438.5,887.5z"/>
			<path class="st1" d="M238,231.5v-61c0-2.5-2-4.5-4.5-4.5l0,0c-2.5,0-4.5,2-4.5,4.5v61c0,2.5,2,4.5,4.5,4.5l0,0
				C236,236,238,234,238,231.5z"/>
			<path class="st1" d="M638.5,455h26c2.5,0,4.5-2,4.5-4.5l0,0c0-2.5-2-4.5-4.5-4.5h-26c-2.5,0-4.5,2-4.5,4.5l0,0
				C634,453,636,455,638.5,455z"/>
			<path class="st1" d="M517,665.5v-26c0-2.5-2-4.5-4.5-4.5l0,0c-2.5,0-4.5,2-4.5,4.5v26c0,2.5,2,4.5,4.5,4.5l0,0
				C515,670,517,668,517,665.5z"/>
			<path class="st1" d="M640.5,176h147c2.5,0,4.5-2,4.5-4.5l0,0c0-2.5-2-4.5-4.5-4.5h-147c-2.5,0-4.5,2-4.5,4.5l0,0
				C636,174,638,176,640.5,176z"/>
			<path class="st1" d="M638.1,740.5v7.5c0,6.6-5.4,12-12,12h-69.3c-6.6,0-12,5.4-12,12v39c0,6.6-5.4,12-12,12h-8.5
				c-6.6,0-12-5.4-12-12v-70.5c0-6.6,5.4-12,12-12h101.8C632.8,728.5,638.1,733.9,638.1,740.5z"/>
			<path class="st1" d="M794.1,740.5v7.5c0,6.6-5.4,12-12,12h-37.2c-6.6,0-12,5.4-12,12v39c0,6.6-5.4,12-12,12h-8.5
				c-6.6,0-12-5.4-12-12v-70.5c0-6.6,5.4-12,12-12h69.7C788.8,728.5,794.1,733.9,794.1,740.5z"/>
			<path class="st1" d="M447.3,259.4h-23.5c-2.6,0-4.8-2.1-4.8-4.8v-11.2c0-6.6-5.4-12-12-12h-70c-6.6,0-12,5.4-12,12v11.2
				c0,2.6-2.1,4.8-4.8,4.8h-19.5c-2.4,0-4.4,1.7-4.7,4.1c-0.3,2.7,1.8,4.9,4.5,4.9h147c2.6,0,4.7-2.3,4.5-4.9
				C451.8,261.2,449.7,259.4,447.3,259.4z"/>
			<path class="st1" d="M222,638h-9c-6.6,0-12-5.4-12-12V493c0-8.3-4.4-11-11-11h-6c-6.6,0-11,2.7-11,11v133c0,6.6-5.4,12-12,12h-9
				c-6.6,0-12,5.4-12,12v4c0,6.6,5.4,12,12,12h70c6.6,0,12-5.4,12-12v-4C234,643.4,228.6,638,222,638z"/>
			<path class="st1" d="M189,297h-4h-2c-6.6,0-12-5.4-12-12v-13c0-6.6-5.4-12-12-12h-4c-6.6,0-12,5.4-12,12v13c0,6.6-5.4,12-12,12
				h-12c-6.6,0-12,5.4-12,12v4c0,6.6,5.4,12,12,12h42c6.6,0,12,5.4,12,12v77.2c0,4.3,3.5,7.8,7.8,7.8h12.4c4.3,0,7.8-3.5,7.8-7.8
				V313v-4C201,302.4,195.6,297,189,297z"/>
			<path class="st1" d="M308,638.4h6.4c6.6,0,12,5.4,12,12v5c0,6.6,5.4,12,12,12H408c6.6,0,12-5.4,12-12v-5c0-6.6,5.4-12,12-12h6.5
				c6.6,0,12-5.4,12-12v-38c0-6.6,5.4-12,12-12h5.9c6.6,0,12-5.4,12-12v-225c0-6.6-5.4-12-12-12H432c-6.6,0-12,5.4-12,12v34
				c0,6.6,5.4,12,12,12h6c6.6,0,12,5.4,12,12v103c0,6.6-5.4,12-12,12h-6c-6.6,0-12,5.4-12,12v39c0,6.6-5.4,12-12,12h-9
				c-6.6,0-12,5.4-12,12v8c0,6.6-5.4,12-12,12h-1c-6.6,0-12-5.4-12-12v-8c0-6.6-5.4-12-12-12h-11c-6.6,0-12-5.4-12-12v-38.6
				c0-6.6-5.4-12-12-12h-7c-6.6,0-12-5.4-12-12V400.4c0-6.6,5.4-12,12-12h6c6.6,0,12-5.4,12-12v-36.7c0-6.6-5.4-12-12-12h-37
				c-6.6,0-12,5.4-12,12v223.7c0,6.6,5.4,12,12,12h7c6.6,0,12,5.4,12,12v39C296,633.1,301.4,638.4,308,638.4z"/>
			<path class="st1" d="M849,481h-15c-6.6,0-12,5.4-12,12v40c0,6.6,5.4,12,12,12h3c6.6,0,12,5.4,12,12v38c0,5.6-4.6,9.9-10.1,10
				c-6.6,0.1-11.9,5.4-11.9,12v4v2c0,6.6-5.4,12-12,12h-13c-6.6,0-12,5.4-12,12v4c0,6.6,5.4,12,12,12h35c6.6,0,12,5.4,12,12v131
				c0,6.6-5.4,12-12,12h-43.3c-2.2,0-4.2,1.4-4.6,3.6c-0.6,2.9,1.6,5.4,4.4,5.4H837c6.6,0,12,5.4,12,12v94c0,6.6-5.4,12-12,12H34
				c-6.6,0-12-5.4-12-12v-94c0-6.6,5.4-12,12-12h41.3c2.2,0,4.2-1.4,4.6-3.6c0.6-2.9-1.6-5.4-4.4-5.4H34c-6.6,0-12-5.4-12-12V678
				c0-6.6,5.4-12,12-12h38.2c2.6,0,4.8-2.1,4.8-4.8v-76.4c0-2.6,2.1-4.8,4.8-4.8h23.5c2.4,0,4.5-1.7,4.7-4.1
				c0.2-2.7-1.9-4.9-4.5-4.9H34c-6.6,0-12-5.4-12-12v-38c0-6.6,5.4-12,12-12h64c6.6,0,12-5.4,12-12v-4c0-6.6-5.4-12-12-12H23
				c-6.6,0-12,5.4-12,12v450c0,6.6,5.4,12,12,12h826c6.6,0,12-5.4,12-12V493C861,486.4,855.6,481,849,481z"/>
			<path class="st1" d="M570.5,167H297.7c-2.4,0-4.4,1.7-4.7,4.1c-0.3,2.7,1.8,4.9,4.5,4.9h170.7c6.7,0,12.2,5.5,12,12.3v0.5
				c-0.1,6.7,5.3,12.3,12,12.3h3.8c6.6,0,11.9,5.3,11.9,11.9v50.4c0,2.4,1.7,4.4,4.1,4.7c2.7,0.3,4.9-1.8,4.9-4.5V213
				c0-6.6,5.3-11.9,11.9-11.9h2c6.6,0,12-5.4,12-12V188c0-6.6,5.4-12,12-12h15.3c2.4,0,4.4-1.7,4.7-4.1
				C575.2,169.3,573.1,167,570.5,167z"/>
		</g>
	</g>
</g>
</svg>
