<?xml version="1.0" encoding="utf-8"?>
<!-- Generator: Adobe Illustrator 24.0.0, SVG Export Plug-In . SVG Version: 6.00 Build 0)  -->
<svg version="1.1" id="Layer_1" xmlns="http://www.w3.org/2000/svg" xmlns:xlink="http://www.w3.org/1999/xlink" x="0px" y="0px"
	 viewBox="0 0 2677.5 3379.5" style="enable-background:new 0 0 2677.5 3379.5;" xml:space="preserve">
<style type="text/css">
	.st0{fill:#A06652;}
	.st1{fill:#B01E26;}
	.st2{fill:#A02025;}
	.st3{fill:#D01532;}
	.st4{fill:#D69199;}
</style>
<g>
	<path class="st0" d="M1245.4,2377.8c-18.3,0-34.7-16.2-53.2-52.4c-10.7-20.9-21.1-47.7-22.8-58.5c-17.5-112.5-22-215.2-13.6-314
		c7.6-89.1,25.5-173.5,54.9-258.1c54.7-157.6,141.1-292,232.5-434.3c117.5-182.9,239-372,316.6-639.4
		c34.3-117.8,64.9-182.9,83.2-221.7c4.2-8.8,8.4-17.8,11.2-24.6c-256.6,143.7-280.2,169.9-400.8,304.1c-11.6,12.9-23.6,26.3-37,41
		c-156.6,185.6-265.3,396.8-370.4,601.1c-59.4,115.4-120.8,234.8-189.2,345.6c-76.9,124.4-155.4,225.8-240,309.8
		c-3.5,3.4-8.2,5.4-13,5.4c-0.1,0-0.3,0-0.4,0l-172.3-3.5c-7.2-0.1-13.6-4.4-16.5-11c-2.9-6.5-1.8-14.2,2.9-19.6
		c39-45.3,85.4-96.1,134.5-149.9c121.1-132.7,258.3-283.2,338.8-408.8c94.8-186.6,163.4-313.4,229.3-423.9
		c80.3-134.6,157.7-245.3,236.6-338.5c87.4-103.2,180.1-189.3,283.5-263.5c108.2-77.6,228.9-142.7,369-199c0.9-0.3,1.8-0.6,2.7-0.8
		c61.5-14.4,341.1-131.2,343.9-132.4c2.3-1,4.7-1.4,7.1-1.4c3.5,0,7.1,1,10.1,3c5.1,3.4,8.3,9.1,8.4,15.2
		c0.6,37-13.3,66.4-41.1,87.6c-22.5,17.1-50.1,25.8-72.3,32.8c-12.8,4.1-25,7.9-30.5,11.7c-0.4,0.3-0.8,0.6-1.3,0.8
		c-157,90.1-153.8,268-150.7,440.2c0.2,11.4,0.4,23.1,0.6,34.5c0,0.9,0,1.9-0.2,2.8c-24.9,181.6-56.3,454.3-40.9,724.9
		c17.9,315.5,95.8,543.7,231.5,678.3c4.6,4.6,6.5,11.2,4.9,17.5c-1.5,6.3-6.3,11.3-12.4,13.3c-7.4,2.3-14.6,4.6-21.5,6.9
		c-33.9,10.9-60.6,19.6-85.8,19.6c-29,0-52.4-12.3-71.6-37.5c-18.5-24.2-34.9-62.7-51.6-120.9c-32.1-111.6-66.9-299.9-124-630.8
		c-5.5-31.8,4.7-114.8,20-240.5c24.8-202.6,62.2-508.1,39.6-720.5c-0.1-0.1-0.1-0.1-0.2-0.2c-5.1,3.8-20.3,20.4-46.6,91.3
		c-20.3,55-40.7,123.6-60.3,189.9c-20.9,70.6-40.7,137.3-56.7,173.2c-89.7,201.1-192.5,367.1-283.1,513.5
		c-91.9,148.4-164.5,265.7-184.8,359.6c0,0.1-0.1,0.3-0.1,0.4c-54.9,230.6-54.5,420.5-54.3,533.9c0,7.2,0,14.2,0,20.8
		c0,40.2-2.4,69.4-7.4,89.1c-2.7,10.6-6.2,18.7-10.7,24.7C1263.3,2373.3,1254.8,2377.8,1245.4,2377.8z"/>
	<path d="M2362.7,48.1c1.4,94.7-105.5,95.7-135.9,116.6c-177.6,101.9-161.9,308-159.4,491c-50.6,368.3-124.2,1101.4,195.8,1418.9
		c-42.1,13.2-74.7,25.6-101.8,25.6c-87.2,0-117.8-128.6-229-773.7c-14.1-81.6,96.4-630.6,59.3-964.6c-5.5-8.8-11.3-12.9-17.4-12.9
		c-57.3,0-135.6,364.1-181.2,466.3c-182.1,408.2-428.1,686.5-469.2,876.7c-58.9,247.3-54.7,446.3-54.7,559.1
		c0,81.4-10.4,108.1-23.7,108.1c-23.2,0-55.5-81.2-57.7-95.3c-117.3-753.6,388.7-944.2,589.9-1637.8
		c70.3-241.9,126.5-261.4,82.8-276.1c-299,166.9-299.9,183.2-458,357.6c-338,400.5-449,908.2-798.8,1255.6l-172.3-3.5
		c135.4-157,361.3-383.3,475.3-561.5c319.3-628.6,548-991.4,1109.2-1216.8C2079.5,166.5,2362.7,48.1,2362.7,48.1 M2362.7,11.1
		c-4.8,0-9.7,0.9-14.3,2.9c-78,32.6-291.2,119.8-341,131.5c-1.8,0.4-3.6,1-5.3,1.7c-141.5,56.8-263.4,122.6-372.9,201.1
		c-104.6,75-198.4,162.2-286.8,266.5c-41.7,49.3-81.9,101.8-122.7,160.6c-38.1,54.8-75.9,113.8-115.6,180.3
		c-66,110.7-134.7,237.6-229.5,424.2c-79.7,124.1-216.1,273.6-336.4,405.5c-49.2,53.9-95.6,104.8-134.8,150.3
		c-9.4,10.9-11.6,26.1-5.8,39.2c5.8,13.1,18.7,21.6,33,21.9l172.3,3.5c0.3,0,0.5,0,0.8,0c9.8,0,19.1-3.9,26.1-10.7
		c46-45.7,89-94.8,131.4-150.4c37.7-49.3,74.1-102.6,111.4-162.9c68.8-111.4,130.4-231.1,190-346.8
		c104.6-203.3,212.7-413.5,367.9-597.4c13.3-14.7,25.3-28,36.8-40.8c110.6-123,138.5-154,346.4-272.3
		c-18.5,40.8-43.8,101.9-71.5,197c-76.8,264.9-197.6,452.8-314.4,634.6c-92.1,143.3-179,278.6-234.4,438.2
		c-29.9,86.1-48.1,172-55.8,262.6c-4.1,48.7-5.1,99.5-3,151c2.2,53.6,7.8,109.9,16.8,167.4c2.2,14.3,14.2,43.8,24.6,64.1
		c7.5,14.7,15,26.7,22.4,35.9c14.3,17.7,30.2,26.6,47.3,26.6c15.3,0,29.1-7.2,38.9-20.2c6-8,10.5-18.2,13.8-31.3
		c5.4-21.2,8-51.9,8-93.6c0-6.7,0-13.6,0-20.9c-0.2-112.6-0.6-301.2,53.8-529.6c0.1-0.3,0.1-0.5,0.2-0.8
		c19.6-90.8,91.5-206.9,182.5-353.8c43.4-70.2,92.7-149.7,141.4-235.3c56-98.5,102.7-190.2,143-280.4
		c16.5-37.1,35.5-101.2,57.5-175.5c18.3-61.8,37.3-125.8,56.2-178.5c6.8-19,13.3-35.4,19.3-49.2c11.5,205.6-21.5,475.3-44.1,659.6
		c-17,138.9-25.6,212.9-19.9,245.8c57.2,331.5,92.1,520.4,124.4,632.7c17.6,61.3,34.5,100.5,54.7,127c11.7,15.4,24.6,26.5,39.3,33.9
		c14.3,7.3,29.7,10.8,47.1,10.8c28.1,0,57.5-9.5,91.5-20.5c6.9-2.2,14-4.5,21.4-6.8c12.4-3.9,21.8-13.9,24.9-26.5
		c3.1-12.6-0.7-25.9-9.9-35c-132.3-131.3-208.4-355.5-226-666.3c-15.3-269.1,16-540.6,40.8-721.4c0.3-1.8,0.4-3.7,0.3-5.5
		c-0.2-11.5-0.4-23.3-0.6-34.6c-3-166.7-6.1-339.2,141.4-423.8c0.9-0.5,1.7-1,2.5-1.6c3.5-2.3,16.8-6.5,25.6-9.3
		c23.6-7.5,52.9-16.7,77.9-35.8c15.2-11.6,27.1-25.5,35.2-41.5c9.1-18,13.6-38.6,13.3-61.2c-0.2-12.3-6.5-23.7-16.7-30.4
		C2376.8,13.2,2369.8,11.1,2362.7,11.1L2362.7,11.1z"/>
</g>
<g>
	<path class="st1" d="M2152.5,3149.6c-68.4,0-134.8-14.8-197.3-43.9c-60.2-28.1-114.2-68.3-160.5-119.4
		c-46.2-51-82.5-110.3-107.8-176.4c-26.2-68.3-39.4-140.8-39.4-215.5s13.3-147.2,39.4-215.5c25.3-66.1,61.6-125.4,107.8-176.4
		c46.3-51.1,100.4-91.3,160.5-119.4c62.5-29.2,128.8-43.9,197.3-43.9s134.8,14.8,197.3,43.9c60.2,28.1,114.2,68.3,160.5,119.4
		c46.2,51,82.5,110.3,107.8,176.4c26.2,68.3,39.4,140.8,39.4,215.5s-13.3,147.2-39.4,215.5c-25.3,66.1-61.6,125.4-107.8,176.4
		c-46.3,51.1-100.4,91.3-160.5,119.4C2287.3,3134.8,2220.9,3149.6,2152.5,3149.6z"/>
	<path d="M2152.5,2059.2c267.9,0,485,239.6,485,535.2s-217.2,535.2-485,535.2s-485-239.6-485-535.2S1884.6,2059.2,2152.5,2059.2
		 M2152.5,2019.2c-71.4,0-140.6,15.4-205.7,45.8c-31.2,14.6-61.3,32.6-89.4,53.5c-27.8,20.7-53.8,44.4-77.5,70.6
		c-47.9,52.8-85.4,114.3-111.7,182.7c-27.1,70.6-40.8,145.5-40.8,222.6c0,77.2,13.7,152.1,40.8,222.6
		c26.2,68.4,63.8,129.8,111.7,182.7c23.7,26.1,49.8,49.9,77.5,70.6c28.1,21,58.2,39,89.4,53.5c65.1,30.4,134.3,45.8,205.7,45.8
		s140.6-15.4,205.7-45.8c31.2-14.6,61.3-32.6,89.4-53.5c27.8-20.7,53.8-44.4,77.5-70.6c47.9-52.8,85.4-114.3,111.7-182.7
		c27.1-70.6,40.8-145.5,40.8-222.6c0-77.2-13.7-152.1-40.8-222.6c-26.2-68.4-63.8-129.8-111.7-182.7c-23.7-26.1-49.8-49.9-77.5-70.6
		c-28.1-21-58.2-39-89.4-53.5C2293.1,2034.6,2223.8,2019.2,2152.5,2019.2L2152.5,2019.2z"/>
</g>
<g>
	<path class="st2" d="M493.3,2917.8c-63.8,0-125.7-13.5-184-40c-56.2-25.6-106.6-62.2-149.8-108.9c-43.1-46.5-77-100.6-100.6-160.9
		C34.4,2545.8,22,2479.6,22,2411.5s12.4-134.3,36.8-196.6c23.6-60.3,57.5-114.4,100.6-160.9c43.3-46.6,93.7-83.3,149.8-108.9
		c58.3-26.6,120.2-40,184-40s125.7,13.5,184,40c56.2,25.6,106.6,62.2,149.8,108.9c43.1,46.5,77,100.6,100.6,160.9
		c24.4,62.3,36.8,128.4,36.8,196.6s-12.4,134.3-36.8,196.6c-23.6,60.3-57.5,114.4-100.6,160.9c-43.3,46.6-93.7,83.3-149.8,108.9
		C619.1,2904.4,557.2,2917.8,493.3,2917.8z"/>
	<path d="M493.3,1927.1c248.2,0,449.3,216.9,449.3,484.4s-201.2,484.4-449.3,484.4S44,2679,44,2411.5S245.2,1927.1,493.3,1927.1
		 M493.3,1883.1c-67,0-132,14.1-193.2,42c-58.8,26.8-111.6,65.1-156.8,113.9c-45,48.5-80.4,105-105,167.8
		C12.9,2271.7,0,2340.5,0,2411.5s12.9,139.8,38.4,204.6c24.6,62.8,60,119.3,105,167.8c45.2,48.8,98,87.1,156.8,113.9
		c61.2,27.9,126.2,42,193.2,42s132-14.1,193.2-42c58.8-26.8,111.6-65.1,156.8-113.9c45-48.5,80.4-105,105-167.8
		c25.4-64.9,38.4-133.7,38.4-204.6s-12.9-139.8-38.4-204.6c-24.6-62.8-60-119.3-105-167.8c-45.2-48.8-98-87.1-156.8-113.9
		C625.3,1897.2,560.3,1883.1,493.3,1883.1L493.3,1883.1z"/>
</g>
<g>
	<path class="st3" d="M1301.2,3344.1c-70.2,0-138.3-14.5-202.4-43.1c-61.8-27.6-117.3-67-165-117.2c-47.6-50.1-84.9-108.5-111-173.4
		c-27-67.2-40.6-138.5-40.6-212s13.7-144.9,40.6-212c26.1-65,63.4-123.3,111-173.4c47.6-50.2,103.1-89.6,165-117.2
		c64.1-28.6,132.2-43.1,202.4-43.1s138.3,14.5,202.4,43.1c61.8,27.6,117.3,67,165,117.2c47.6,50.1,84.9,108.5,111,173.4
		c27,67.2,40.6,138.5,40.6,212s-13.7,144.9-40.6,212c-26.1,65-63.4,123.3-111,173.4c-47.6,50.2-103.1,89.6-165,117.2
		C1439.5,3329.6,1371.4,3344.1,1301.2,3344.1z"/>
	<path d="M1301.2,2275.2c274.2,0,496.5,234.3,496.5,523.2s-222.3,523.2-496.5,523.2s-496.5-234.3-496.5-523.2
		S1027,2275.2,1301.2,2275.2 M1301.2,2230.2c-73.4,0-144.6,15.1-211.6,45c-32.1,14.3-63.1,32.1-92.1,52.7
		c-28.6,20.4-55.6,43.8-80,69.6c-24.4,25.7-46.6,54-65.9,84.1c-19.5,30.3-36.2,62.8-49.7,96.4c-28,69.9-42.3,144-42.3,220.4
		c0,76.4,14.2,150.6,42.3,220.4c13.5,33.6,30.2,66.1,49.7,96.4c19.3,30.1,41.4,58.4,65.9,84.1c24.5,25.8,51.4,49.2,80,69.6
		c29,20.6,60,38.4,92.1,52.7c67,29.9,138.2,45,211.6,45c73.4,0,144.6-15.1,211.6-45c32.1-14.3,63.1-32.1,92.1-52.7
		c28.6-20.4,55.6-43.8,80-69.6c24.4-25.7,46.6-54,65.9-84.1c19.5-30.3,36.2-62.8,49.7-96.4c28-69.9,42.3-144,42.3-220.4
		c0-76.4-14.2-150.6-42.3-220.4c-13.5-33.6-30.2-66.1-49.7-96.4c-19.3-30.1-41.4-58.4-65.9-84.1c-24.5-25.8-51.4-49.2-80-69.6
		c-29-20.6-60-38.4-92.1-52.7C1445.8,2245.3,1374.6,2230.2,1301.2,2230.2L1301.2,2230.2z"/>
</g>
<path class="st4" d="M1635.2,2651.2c0.3,24-10.5,38-29,46.5c-17.8,8.2-39.6,2.2-51.4-10.6c-4.6-4.9-8.7-10-11.3-16.3
	c-12.4-30-28.9-57.5-47.9-83.8c-11.6-16-25.2-30-39.8-43c-17.3-15.3-19-49.7,1-68c18.6-17,46.3-16.9,66.2,0.5
	c33.7,29.5,59.3,65.3,81.5,103.8c10,17.3,19.3,34.9,27,53.4C1634.2,2640.4,1635.7,2647,1635.2,2651.2z"/>
<path class="st4" d="M1536.6,2815.7c-0.7-8.3,1.6-15.8,5.5-23c6-11.1,11.4-22.5,21.2-31.1c15.4-13.6,32.8-17.2,51.7-9.8
	c18.5,7.3,27.7,22.5,29.4,41.7c1,11.2-2.9,21.7-9.7,30.7c-3.4,4.5-6.6,9.1-9.4,14.1c-9.5,16.9-28.4,27.5-45.5,24.8
	c-21.6-3.4-35.1-13.1-42.2-35.6C1536.5,2823.7,1536.8,2819.7,1536.6,2815.7z"/>
<path class="st4" d="M2479,2420.5c0.4,8.4-1.1,16.5-3.5,24.6c-5.2,18-26.4,30.6-42.3,31.1c-29.9,1-50.3-21.8-50.5-49.9
	c-0.1-10.9,0.5-21.9-1.4-32.9c-2-11.4-7.3-20.7-14.8-28.9c-23.4-25.4-49.9-46.9-81.4-61.8c-4.5-2.1-9-4.4-13.4-6.7
	c-17.7-9.1-27.2-27.6-25-48.2c2-18.3,16.3-35.3,34.6-39.6c11.1-2.6,22.3-2,33.2,2.8c37.9,16.7,71.2,40.1,101.6,68
	c16.5,15.2,31.4,31.6,42.6,51.1c8.1,14.2,13.9,29.3,16.4,45.7C2477.3,2390.7,2477.6,2405.7,2479,2420.5z"/>
<path class="st4" d="M2479.3,2570.9c-1.4,13.7-2.4,28.3-6.8,42.2c-6.3,20.3-24.7,35-51,32.6c-20-1.9-36.1-15.6-41.1-37.5
	c-1.4-6.3-1.6-12.2-0.2-18.6c2-9,2.8-18.3,4.4-27.4c6.1-37.1,47.5-51.5,74.9-31.4C2472.9,2540.5,2479.1,2553.6,2479.3,2570.9z"/>
<path class="st4" d="M715.5,2262c1.6,18.2-5.2,32.7-19.9,43.3c-29,20.7-70.3,3.1-74.4-32.6c-1.9-16.4-8.9-29.7-17.2-42.8
	c-8.9-14.1-20.3-26.3-31.1-38.9c-11.9-13.9-24.6-27.1-35.5-41.8c-5.9-8-10.2-17-13.1-26.7c-7-23.1,8.8-50.4,34.1-57.1
	c20.3-5.3,40.8,2.2,51.9,20.3c9,14.6,20.6,26.9,31.7,39.6c15.4,17.5,30.9,35,43.5,54.5c13,20.1,23.2,41.9,28.9,65.4
	C715.6,2250.5,715.2,2256.3,715.5,2262z"/>
<path class="st4" d="M688.8,2416.9c0.3,20.9-3.4,41.1-12.8,59.8c-8.6,17.1-23.5,26.7-42.5,26.6c-18.8-0.1-34.1-8.6-42.7-26.2
	c-6.2-12.8-6.6-26.2-1.4-39.6c2.2-5.7,3.4-11.4,3.3-17.5c-0.1-8.3-0.5-16.5,1.7-24.8c5.6-21.2,26.5-37.1,48.2-35.8
	c21.6,1.2,40.9,16.9,44.7,38.7C688.5,2404.4,688.8,2410.6,688.8,2416.9z"/>
</svg>
