<?xml version="1.0" encoding="utf-8"?>
<!-- Generator: Adobe Illustrator 24.0.0, SVG Export Plug-In . SVG Version: 6.00 Build 0)  -->
<svg version="1.1" id="Layer_1" xmlns="http://www.w3.org/2000/svg" xmlns:xlink="http://www.w3.org/1999/xlink" x="0px" y="0px"
	 viewBox="0 0 846.4 686.2" style="enable-background:new 0 0 846.4 686.2;" xml:space="preserve">
<style type="text/css">
	.st0{fill:#E5291B;stroke:#000000;stroke-width:23;stroke-miterlimit:10;}
</style>
<g>
	<path class="st0" d="M455,564.3c-24-38.2-31.8-48.9-64,0c-21,31.9-40.1,66.3-45.7,106.9c-0.1,0.8-1,1.1-1.6,0.7
		c-46.5-33.7-70.6-61.3-88.3-115.6c-8.4-18.1-75.3,27-94.9,30.2c-48.7,18.1-96.9,28-148.7,31.8c-0.2,0-0.3-0.3-0.2-0.4
		c133.1-141.8,112.3-129.4,109.1-173.1C85.9,204.4,251.9-16.2,460.6,14.3c203.2,34,294.5,266.4,260.2,451.4
		c-8.2,29.4,100.4,136.8,113.8,149.8c0.6,0.6,0.3,1.5-0.5,1.7c-68.7,13.6-220.2-57.3-234.3-64c-0.6-0.3-1.2,0-1.4,0.6
		c-19.7,68.8-84.1,114.2-93.7,120.7c-0.6,0.4-1.4,0.1-1.5-0.6C487.2,605.2,455,564.3,455,564.3z"/>
</g>
</svg>
