<?xml version="1.0" encoding="utf-8"?>
<!-- Generator: Adobe Illustrator 24.0.0, SVG Export Plug-In . SVG Version: 6.00 Build 0)  -->
<svg version="1.1" id="Layer_1" xmlns="http://www.w3.org/2000/svg" xmlns:xlink="http://www.w3.org/1999/xlink" x="0px" y="0px"
	 viewBox="0 0 787.1 727.9" style="enable-background:new 0 0 787.1 727.9;" xml:space="preserve">
<style type="text/css">
	.st0{fill:#E00876;stroke:#000000;stroke-width:23;stroke-miterlimit:10;}
</style>
<g>
	<path class="st0" d="M490.9,705.5c-17.5-30.1-58.1-66.2-92-141.8c-1.9-4.2-7.8-4.3-9.8-0.2c-14.2,28.8-74.7,122-87.6,141.9
		c-0.9,1.3-2.9,1.1-3.5-0.4c-8-20.5-55.8-131.9-78.9-139.2c-4.4-1.4-8.4-3.1-9.8,1.3C185.9,639.4,4,729.1,11.7,715
		c26.3-48,109.1-163.8,94-261.8c-30.7-198.7,81.3-441.4,291-441.7c174.3-0.2,337,124.3,311.7,458.8c-8.2,109.1-0.2,151.9,64.8,239.6
		c22,21.1-122.2-43.1-190.6-133.5c-3.2-4.2-9.1-5.1-13.4-2.1c-15,10.5-47.3,42.3-72.4,130.5C496.2,707.6,492.4,708.1,490.9,705.5z"
		/>
</g>
</svg>
