<?xml version="1.0" encoding="utf-8"?>
<!-- Generator: Adobe Illustrator 24.0.0, SVG Export Plug-In . SVG Version: 6.00 Build 0)  -->
<svg version="1.1" id="Layer_1" xmlns="http://www.w3.org/2000/svg" xmlns:xlink="http://www.w3.org/1999/xlink" x="0px" y="0px"
	 viewBox="0 0 1785 840.2" style="enable-background:new 0 0 1785 840.2;" xml:space="preserve">
<style type="text/css">
	.st0{fill:#FFFFFF;}
</style>
<path class="st0" d="M607.5,12.6C680,11.2,752.2,5.1,824.8,0c0,96.1,0,191.9,0,287.6c0.3,0.2,0.6,0.3,0.9,0.5
	c1.3-1.6,2.6-3.1,3.9-4.7c16.5-20.4,35-38.6,57.5-52.3c23.4-14.2,48.6-21.5,76.1-21.1c25.8,0.4,51.1,3.7,75.5,12.4
	c38.6,13.7,68.1,38.5,89.6,73.2c19.6,31.6,30.3,66.4,36.9,102.7c9.1,50.2,10.3,100.8,7.5,151.6c-1.8,33.6-6,67-14.1,99.7
	c-8.8,35.6-22,69.5-43.2,99.8c-27.8,39.6-65.1,66.1-111.5,79.2c-46.2,13-93,15.6-140,4.5c-35.6-8.4-67-25.5-95-48.8
	c-19-15.8-35.6-33.8-50.7-53.3c-0.9-1.2-1.8-2.3-3-3.8c-1,1.7-1.8,3.1-2.5,4.5c-16.5,30.5-33,61.1-49.4,91.6
	c-1.3,2.4-2.7,3.4-5.6,3.4c-16.7-0.2-33.4-0.1-50.3-0.1C607.5,555.1,607.5,284,607.5,12.6z M955,522c0-22.6,0.7-46-0.2-69.5
	c-1.1-26.5-3-53.1-5.7-79.5c-1.8-17.6-6.8-34.6-15.8-50.1c-6.2-10.7-14.5-19.4-26.6-23.3c-18.1-5.9-36.7,0-49.6,15.6
	c-11.9,14.4-18,31.4-22.6,49.1c-9.1,34.7-11.9,70.3-13,106c-1.5,45.6-0.6,91.2,3.2,136.6c2.3,27.5,5.8,54.7,13.2,81.4
	c4.7,16.9,10.7,33.3,21.8,47.3c19.1,24.2,49.3,18.2,64,3.9c8.4-8.3,13.8-18.3,17.7-29.3c8.1-23,10.4-47.1,11.1-71.2
	C953.6,600.3,954.2,561.6,955,522z"/>
<path class="st0" d="M1466.7,544.9c0,7.4-0.1,14.2,0,21c1,38.2,4.1,76.1,13.8,113.2c5.8,22,13.8,43.1,27.2,61.8
	c18.6,25.8,43.6,39.6,75.6,40.2c19.8,0.4,39-2,57.1-10.4c25.8-12,41-33,49.4-59.5c7.1-22.1,8.7-44.9,8.5-67.9
	c-0.1-12.1,0-24.1,0-36.4c28.3,8.3,57.3,16.8,86.5,25.3c-1.6,23.3-5.1,45.8-11.9,67.8c-11.5,37.3-31.2,69-62.3,93.1
	c-22.5,17.5-48.1,28.7-75.5,36c-37.7,10-76.2,12.2-115,10.9c-27.7-0.9-55.2-3.9-82.3-10.1c-40.7-9.3-78.4-25.2-110.7-52.3
	c-26.5-22.2-46.1-49.5-60.1-80.9c-13.9-31.2-21.5-64.1-25.4-98c-3.4-30.1-4.2-60.4-2.2-90.6c3.6-54.3,16-106.3,42.8-154.2
	c27.2-48.6,63.9-88.1,113.3-114.9c28.6-15.5,59.3-24.5,91.6-28.1c39.2-4.4,78.1-2.4,116.3,7.5c58.4,15.1,102.7,48.8,132.8,101.1
	c18.3,31.7,29.3,66,36.4,101.7c8,40.1,10.9,80.6,10.9,121.4c0,0.7-0.1,1.3-0.2,2.4C1678,544.9,1572.5,544.9,1466.7,544.9z
	 M1595.7,477.5c0.1-1.5,0.2-2.5,0.2-3.6c-1-26-1.6-52.1-3.2-78.1c-1.3-21.7-4.4-43.2-9.6-64.3c-4.1-16.4-9.1-32.4-19.2-46.2
	c-16.4-22.4-43.3-23.9-61.4-2.8c-5.2,6.1-9.5,13.3-12.8,20.6c-12.1,27-16.2,55.9-18.8,84.9c-1.9,21.1-2.8,42.2-3.8,63.4
	c-0.4,8.6-0.1,17.3-0.1,26.1C1509.3,477.5,1552.3,477.5,1595.7,477.5z"/>
<path class="st0" d="M360.2,826.5c-1.6,0-2.9,0-4.3,0c-47.7,0-95.3,0-143,0.1c-3.2,0-4.7-0.8-5.8-4C138.6,625.1,70,427.5,1.4,230
	c-0.4-1.3-0.8-2.5-1.4-4.5c1.8,0,3.2,0,4.6,0c74.3,0,148.5,0,222.8-0.1c3.7,0,5,1.2,6.1,4.6c41.3,130.6,82.7,261.1,124.1,391.6
	c0.5,1.5,1,3,1.9,5.7c0.9-2.4,1.4-3.6,1.8-4.9c41.2-126.3,82.4-252.6,123.6-378.9c1.7-5.2,3.2-10.3,5.1-15.4
	c0.4-1.1,1.9-2.4,2.9-2.4c22.9-0.1,45.9-0.1,69.4-0.1C494.9,426.1,427.6,626.2,360.2,826.5z"/>
</svg>
