<?xml version="1.0" encoding="utf-8"?>
<!-- Generator: Adobe Illustrator 24.0.0, SVG Export Plug-In . SVG Version: 6.00 Build 0)  -->
<svg version="1.1" id="Layer_1" xmlns="http://www.w3.org/2000/svg" xmlns:xlink="http://www.w3.org/1999/xlink" x="0px" y="0px"
	 viewBox="0 0 399.2 398.8" style="enable-background:new 0 0 399.2 398.8;" xml:space="preserve">
<style type="text/css">
	.st0{fill:#3C0869;}
	.st1{fill:#E0AAFF;}
</style>
<g>
	<path class="st0" d="M199.4,387.3c-50.2,0-97.5-19.7-133.1-55.4c-35.5-35.6-54.9-82.6-54.8-132.6c0.1-50.3,19.7-97.5,55.2-132.9
		c35.4-35.4,82.6-54.9,132.8-54.9c49.5,0,96.4,19,131.9,53.6c36.1,35.1,56.1,82.2,56.3,132.8c-0.2,51.3-20,99.2-55.8,134.8
		c-35.4,35.1-82.3,54.5-132.2,54.6H199.4z"/>
	<path class="st1" d="M199.5,23L199.5,23c23.3,0,46.1,4.5,67.6,13.4c21,8.7,40,21.1,56.3,36.9c33.9,32.9,52.6,77.1,52.8,124.5
		c-0.2,48.3-18.8,93.3-52.4,126.7c-16.2,16.1-35.1,28.7-56.1,37.6c-21.6,9.1-44.4,13.7-68,13.7l-0.2,0c-23.8,0-47-4.7-68.7-13.9
		c-21.1-8.9-40-21.7-56.2-38C41.2,290.4,22.9,246.2,23,199.4c0.1-47.2,18.5-91.6,51.8-124.8C108.1,41.3,152.4,23,199.5,23 M199.5,0
		C89.3,0,0.3,89,0,199.3c-0.3,109.8,89.4,199.4,199.4,199.4c0.1,0,0.2,0,0.3,0c108.5-0.1,199-87.4,199.5-201
		C398.8,85.6,306.7,0,199.5,0L199.5,0z"/>
</g>
<path class="st1" d="M284.5,225.4c-1.8-1.5-3.8-2.6-6-3.4c-6.6-2.3-10-0.5-11.7,6.3c-2.3,9.4-5.7,18.4-11.5,26.3
	c-4.7,6.3-10.1,11.8-17.8,14c-10.4,3-15.6,0.5-20.4-7c-3.4-5.3-6.4-10.9-9.5-16.4c-5-8.9-9.7-18-18.6-23.9c-0.9-0.6-0.9-1.2-0.6-2.2
	c3.9-13,7.7-26.1,11.5-39.2c0.6-2.2,1.7-3.1,4.1-3c2.2,0.1,4.4-0.6,6.5-1.3c15.2-5.2,25.8-15.7,33.4-29.5c4.5-8.2,6.3-17,4.5-26.3
	c-3.8-18.8-28.3-28.7-42.7-15.4c-7,6.4-11.6,14.1-15.1,22.7c-2.1,5.2-3.9,10.6-5.7,15.9c-0.5,1.5-1,1.8-2.4,0.8
	c-7.7-5.7-13.5-12.8-16.7-22c-1.8-5.2-2.7-10.6-3.6-16c-1.6-8.8-8.6-12.2-16.5-7.8c-6.1,3.4-8.8,8.9-7.5,16.7
	c3.7,23.2,14.6,42,35.1,54.4c1.8,1.1,2,2.1,1.5,3.9c-3.3,12.7-7.5,25.2-11,37.9c-0.4,1.4-1,1.9-2.5,1.9
	c-15.5,0.6-28.2,7.1-38.4,18.6c-9.8,11.1-14.9,23.8-12.7,38.8c3.1,20.8,25.9,31.7,44,21.1c8.9-5.2,14.6-12.9,19-22
	c3-6.3,5.2-12.9,7.4-19.9c3.9,5.8,6.7,11.5,9.3,17.3c2.6,5.8,5.7,11.5,10,16.3c11.2,12.7,25.7,14.4,41,11
	c11.6-2.6,20.1-10.3,27.5-19.3c9.1-11.1,14.4-24.1,19.4-37.3C289.9,232,289.1,229.2,284.5,225.4z M220.6,123.1c0.9-1.2,2-2.7,3.9-2
	c1.8,0.7,1.9,2.4,1.7,4c-1.2,9.7-5.6,17.7-13.1,23.9c-0.3,0.3-0.8,0.5-1.2,0.7c-1.2,0.6-2.4,0.9-4,0.3
	C211.3,140.7,214.7,131.3,220.6,123.1z M149.7,260.7c-1.4,3-3.4,5.5-5.7,7.8c-2,1.9-4.4,2.9-7.1,1.8c-2.8-1.2-3.8-3.7-3.7-6.6
	c0.1-4.3,2-7.8,4.5-11.2c4.7-6.4,10.8-10.8,19-13.4C153.9,246.7,152.8,254,149.7,260.7z"/>
</svg>
