<?xml version="1.0" encoding="utf-8"?>
<!-- Generator: Adobe Illustrator 24.0.0, SVG Export Plug-In . SVG Version: 6.00 Build 0)  -->
<svg version="1.1" xmlns="http://www.w3.org/2000/svg" xmlns:xlink="http://www.w3.org/1999/xlink" x="0px" y="0px"
	 viewBox="592 340 665 510" width="100px" height="100px" xml:space="preserve">
<style type="text/css">
	.st0{display:none;}
	.st1{fill:#6093AC;}
	.st2{fill:#FEFEFE;}
</style>
<g id="Layer_1" class="st0">
</g>
<g id="Layer_2">
	<path class="st1" d="M855,845c-74.3-73.3-148.7-146.7-223-220c23.7-25.3,47.3-50.7,71-76c49.3,48,98.7,96,148,144
		c109.3-117.7,218.7-235.3,328-353c25.3,23.7,50.7,47.3,76,71C1121.7,555.7,988.3,700.3,855,845"/>
	<path class="st2" d="M816.6,845.2c-74.3-73.3-148.7-146.7-223-220c23.7-25.3,47.3-50.7,71-76c49.3,48,98.7,96,148,144
		c109.3-117.7,218.7-235.3,328-353c25.3,23.7,50.7,47.3,76,71C1083.3,555.8,949.9,700.5,816.6,845.2"/>
</g>
</svg>
