<?xml version="1.0" encoding="utf-8"?>
<!-- Generator: Adobe Illustrator 24.0.0, SVG Export Plug-In . SVG Version: 6.00 Build 0)  -->
<svg version="1.1" id="Layer_1" xmlns="http://www.w3.org/2000/svg" xmlns:xlink="http://www.w3.org/1999/xlink" x="0px" y="0px"
	 viewBox="0 0 1920 1080" style="enable-background:new 0 0 1920 1080;" xml:space="preserve">
<style type="text/css">
	.st0{fill:#CC8101;}
	.st1{fill:#FEFDFC;}
	.st2{fill:#C17B01;}
	.st3{fill:#BF7A01;}
	.st4{fill:#D68F03;}
	.st5{fill:#B47301;}
	.st6{fill:#E09C06;}
	.st7{fill:#DC9705;}
	.st8{fill:#C47C01;}
	.st9{fill:#C87F01;}
	.st10{fill:#9D6400;}
	.st11{fill:#D69003;}
	.st12{fill:#E5B318;}
	.st13{fill:#D08902;}
	.st14{fill:#D58E02;}
	.st15{fill:#A86C01;}
	.st16{fill:#D89E0A;}
	.st17{fill:#C27C01;}
	.st18{fill:#CC8201;}
	.st19{fill:#D18801;}
	.st20{fill:#C97F01;}
	.st21{fill:#CA8001;}
	.st22{fill:#C77E01;}
	.st23{fill:#C37C01;}
	.st24{fill:#E2AF16;}
</style>
<g>
	<g>
		<path class="st0" d="M1036,468.3c0,47.6,0,95.2,0,142.8c-1.2,3.5-3.7,5.3-7.5,5.3c-45.2,0-90.4,0-135.6,0c-0.6,0-1.1,0-1.7-0.1
			c-3.7-0.7-6-3.6-6-7.6c0-46,0-91.9,0-137.9c0-0.3,0-0.6,0-0.8c0.2-2.9,1.5-5,4.2-6.2c0.5-0.2,0.9-0.5,1.3-0.7
			c46.6,0,93.1,0,139.7,0c0.2,0.1,0.3,0.2,0.5,0.3C1033.5,464,1035.1,465.7,1036,468.3z M1014.4,464.9c-0.7-0.1-1.5-0.1-2.2-0.2
			c-9.9,0-19.8,0-29.7,0c-0.6,0.1-1.1,0.1-1.7,0.2c-0.6,0.3-1.4,0.4-1.9,0.9c-3.8,2.9-7.5,5.9-11.3,8.8c-1.9,1.5-3.8,3-5.9,4.3
			c-0.5,0.3-1.4,0.2-2-0.1c-0.8-0.4-1.4-1-2.1-1.6c-4.6-3.4-9.2-6.6-13.6-10.1c-1.5-1.1-2.9-2.3-4.8-2.5c-10.8,0-21.5,0-32.3,0
			c-0.2,0-0.5,0-0.7,0c-0.7,0.3-1.5,0.6-2.1,1.1c-2.5,1.9-4.8,4-7.3,5.8c-3.2,2.3-6.4,4.7-9.1,7.7c-0.3,0.4-0.5,1-0.7,1.5
			c-0.1,0.6-0.2,1.3-0.2,1.9c0,4.6,0,9.1,0,13.7c0.1,6.9,0.1,13.7,0.2,20.6c0,0.1,0,0.2,0,0.2c-0.2,0.7-0.7,1.5,0.5,1.9
			c0,0.2,0,0.5-0.1,0.7c-0.7,1.5-0.4,2.7,0.9,3.7c1.4,1.2,2.8,2.5,4.1,3.8c0.9,0.9,1.7,1.9,2.6,2.8c2.9,2.7,6,5.3,8.9,8
			c0.9,0.9,1.8,1.5,3.2,1.1c0,0.2,0,0.3,0,0.5c-2.1,0.2-3.4,1.7-4.8,3c-4.1,3.6-8.3,7.2-12.4,10.8c-1.2,1.1-2.5,2.2-2.7,3.9
			c-0.1,0.8-0.2,1.6-0.2,2.4c0,2.9,0,5.8,0,8.7c0,8.1,0,16.3,0,24.4c0.1,0.2,0.2,0.5,0.2,0.7c0,1.3-0.2,2.6,0.9,3.7
			c1.3,1.3,2.4,2.7,3.6,4c0.9,1,1.9,1.8,2.8,2.8c2.5,2.4,5.1,4.7,7.3,7.3c1.5,1.7,3.1,2.7,5.2,3c0.2,0.1,0.5,0.1,0.7,0.2
			c7.3,0,14.5,0,21.8,0c3.3,0,6.5,0,9.8,0c1.1-0.2,2.3-0.1,3.2-0.6c3.5-1.9,6.4-4.7,9.1-7.6c3.1-3.2,6.5-6,9.8-8.9
			c0.2-0.2,0.9-0.2,1.1,0c1.2,1,2.5,1.9,3.5,3c3.9,4,7.7,8,11.6,12c1,1,2.2,1.9,3.8,1.7c0.4,0,0.8,0,1.2,0c0.1,0,0.2,0,0.2,0
			c0.5,0.1,1.1,0.2,1.6,0.2c9.5,0,19,0,28.5,0c0.5,0,1-0.1,1.5-0.2c0.2,0,0.5,0,0.7,0c0.4-0.2,1-0.2,1.3-0.5
			c2.1-1.8,4.3-3.5,6.1-5.6c2.7-3.3,6-5.8,9-8.7c1.3-1.2,2.9-2.4,2.6-4.6c0-0.9,0-1.8,0-2.6c0.1-0.5,0.2-1.1,0.2-1.6
			c0-7.1,0-14.3,0-21.4c0-4.1,0-8.1,0-12.2c0-0.2,0-0.5,0-0.7c0.3-1.6,0-3.1-1.3-4.2c-1.9-1.6-3.7-3.3-5.6-4.8
			c-3.3-2.6-6.7-5.1-10.1-7.6c-0.6-0.5-1.3-0.9-1.9-1.3c2.3-2.1,4.7-4.2,7-6.4c3.4-3.2,6-7.2,9.8-10.1c1.7-1.2,2.2-3.1,2.2-5.2
			c-0.1-1.8,0-3.6,0-5.4c0-5.8,0-11.7,0-17.5c0-2.8,0-5.5,0-8.3c0-0.7-0.1-1.3-0.2-2c0-0.6,0-1.1,0-1.7c0.6-1.4,0.4-2.6-0.8-3.5
			c-4.2-3-8-6.5-11.7-10c-1.3-1.2-2.7-2.4-4.1-3.4c-0.5-0.3-1.2-0.2-1.8-0.3c-0.2,0-0.5,0-0.7,0
			C1014.9,464.8,1014.6,464.8,1014.4,464.9z"/>
		<path class="st1" d="M890.8,463c-0.4,0.2-0.9,0.5-1.3,0.7c-2.6,1.3-3.9,3.4-4.2,6.2c0,0.3,0,0.6,0,0.8c0,46,0,91.9,0,137.9
			c0,4,2.3,7,6,7.6c0.5,0.1,1.1,0.1,1.7,0.1c45.2,0,90.4,0,135.6,0c3.7,0,6.3-1.8,7.5-5.3c0,1.8,0,3.7,0,5.5c-50.3,0-100.6,0-151,0
			c0-51.2,0-102.4,0-153.6C886.9,463,888.8,463,890.8,463z"/>
		<path class="st1" d="M1036,468.3c-0.8-2.5-2.5-4.2-5-5c-0.2-0.1-0.3-0.2-0.5-0.3c1.8,0,3.7,0,5.5,0
			C1036,464.8,1036,466.5,1036,468.3z"/>
		<path class="st2" d="M981.6,614.4c-1.6,0.1-2.8-0.7-3.8-1.7c-3.9-4-7.7-8.1-11.6-12c-1.1-1.1-2.3-2.1-3.5-3
			c-0.3-0.2-0.9-0.2-1.1,0c-3.3,2.9-6.7,5.7-9.8,8.9c-2.8,2.9-5.6,5.7-9.1,7.6c-0.9,0.5-2.2,0.4-3.2,0.6c0.1-0.2,0.2-0.5,0.3-0.7
			c2.1-1.8,4.2-3.6,6.3-5.3c3.7-3,7.7-5.6,10.7-9.4c1.2-1.5,2.5-3,3.7-4.5c0.5-0.7,0.9-1.6,0.1-2.1c-0.5-0.4-1.4-0.3-2.2-0.3
			c-0.3,0-0.6,0.3-0.9,0.5c0.2-2.2,0.6-4.5,0.7-6.7c0.1-2.2-0.1-4.5-0.2-6.7c-0.1-2.3-0.2-4.6-0.2-6.9c0-2.3-0.1-4.5,0.1-6.8
			c0.1-1.5,0.7-2.9,1.1-4.3c0.2,0,0.3,0,0.5,0c0.1,0.5,0.2,1,0.2,1.4c0.1,0.2,0.2,0.5,0.2,0.7c0,0.5,0,1,0,1.4
			c0.2,0.2,0.3,0.3,0.5,0.5c0,2.2,0,4.3,0,6.5c0.1,5.8,0.3,11.5,0.5,17.3c0,0.2,0,0.5,0,0.7c0,0.2,0,0.3,0,0.5
			c-0.4,0.8-0.1,1.4,0.5,1.9c0.7,0,1.4,0,2.2,0c1.6,0.3,2.8,1.3,3.8,2.5c1.8,2,3.5,4.1,5.4,6.1c2.2,2.2,4.5,4.4,6.9,6.4
			c1.6,1.4,3,3.1,5.2,3.7c-0.3,0.1-0.6,0.2-0.9,0.2C981.2,611.5,980.8,612,981.6,614.4z"/>
		<path class="st3" d="M907.1,539.2c-1.3,0.4-2.2-0.2-3.2-1.1c-2.9-2.7-5.9-5.3-8.9-8c-0.9-0.9-1.7-1.9-2.6-2.8
			c-1.3-1.3-2.7-2.6-4.1-3.8c-1.2-1.1-1.5-2.3-0.9-3.7c0.1-0.2,0.1-0.5,0.1-0.7c0.1-0.3,0.2-0.6,0.2-1c0.2-0.2,0.3-0.5,0.5-0.7
			c0.1-0.1,0.2-0.2,0.2-0.2c0.8,0.6,1.7,1,2.5,1.7c1.4,1.2,2.7,2.6,4,3.8c0.4,0.4,0.8,0.8,1.2,1.2c0.8,0.7,1.6,1.4,2.4,2.2
			c0.9,0.9,1.8,1.8,2.6,2.6c0.3,0.3,0.6,0.6,1,1c1.5,2.1,2.9,4.2,4.5,6.2c0.6,0.8,1.5,1,2.5,0.5c1.4-0.1,2.7-0.2,4.1-0.2
			c1.2-0.1,2.4-0.2,3.6-0.2c1.3,0.1,2.6,0.1,3.9,0.2c1.5,0.1,3,0.2,4.5,0.3c-0.3,0.1-0.6,0.2-0.9,0.2c-2.3,0.5-4.6,0.5-6.9,0.3
			c-2-0.2-4.1-0.3-6.1-0.2c-1.1,0-2.1,0.5-3.2,0.8c-0.3,0.1-0.5,0.7-0.9,1.3c0.9,0,1.4,0,1.9,0c0,0.1,0,0.3,0,0.4
			C908.5,539.2,907.8,539.2,907.1,539.2z"/>
		<path class="st4" d="M939.3,464.7c1.9,0.2,3.3,1.3,4.8,2.5c4.5,3.5,9.1,6.8,13.6,10.1c0.7,0.5,1.3,1.2,2.1,1.6
			c0.6,0.3,1.5,0.4,2,0.1c2-1.3,3.9-2.8,5.9-4.3c3.8-2.9,7.5-5.9,11.3-8.8c0.5-0.4,1.3-0.6,1.9-0.9c-0.2,0.3-0.3,0.6-0.5,0.8
			c-2.3,1.9-4.6,3.8-6.9,5.7c-3.3,2.7-6.7,5.5-10.1,8.2c-0.4,0.3-0.8,0.7-1.2,0.8c-1.2,0.2-1.7,1-2.2,2c-0.2,0.4-0.5,0.8-0.7,1.2
			c-1.4-0.9-2.8-1.9-4.2-2.8c-1.9-1.3-3.8-2.6-5.6-4c-2.8-2.1-5.2-4.8-8.7-6c-0.2-0.1-0.3-0.2-0.5-0.4c-0.7-0.9-1.4-1.7-2.1-2.6
			c0.8-0.7,1.9-1.3,1.2-2.6C939.4,465,939.4,464.9,939.3,464.7z"/>
		<path class="st5" d="M957.4,592.9c0.3-0.2,0.6-0.5,0.9-0.5c0.7,0,1.7-0.1,2.2,0.3c0.8,0.6,0.4,1.5-0.1,2.1c-1.2,1.5-2.5,3-3.7,4.5
			c-3,3.8-7,6.4-10.7,9.4c-2.1,1.7-4.2,3.5-6.3,5.3c0-0.2,0-0.3,0-0.5c-0.1-0.5,0-1.3-0.2-1.4c-0.6-0.3-1.3-0.3-2-0.3
			c-0.6,0-1.3,0.5-1.9,0.5c-4.7-0.1-9.3,0.6-13.9,1.3c-1.1,0.2-2.4,0.2-3.5,0c-2.8-0.6-5.7-1.3-8.5-1.9c-0.5-0.1-1.3,0.1-1.6,0.4
			c-0.4,0.4-0.4,1.1-0.5,1.7c0,0.3,0.2,0.6,0.3,0.9c-0.2-0.1-0.5-0.1-0.7-0.2c0-0.1,0-0.2,0-0.2c-0.3-1.1-0.2-2.1,0.8-2.8
			c0.4-0.2,0.9-0.4,1.3-0.5c0.2,0,0.3,0,0.5,0c0.2,0.5,0.5,0.5,0.7,0c0.4,0.1,0.8,0.2,1.2,0.2c3.6,1,7.4,1.3,11.1,1.1
			c2.5-0.1,5-0.3,7.5-0.4c2.2-0.1,4.4-0.3,6.7-0.5c1-0.1,2-0.5,2.3-1.6c0.2-0.2,0.5-0.5,0.7-0.7c0.4-0.2,0.8-0.3,1.1-0.6
			c2-1.7,4-3.4,5.9-5.1c2.6-2.3,5.1-4.5,7.6-6.8c0.9-0.8,1.5-1.9,2.3-2.8C957,593.4,957.2,593.1,957.4,592.9z"/>
		<path class="st6" d="M959.3,483.6c0.2-0.4,0.5-0.8,0.7-1.2c0.4-1,1-1.8,2.2-2c0.4-0.1,0.8-0.5,1.2-0.8c3.4-2.7,6.7-5.5,10.1-8.2
			c2.3-1.9,4.6-3.8,6.9-5.7c0.2-0.2,0.4-0.5,0.5-0.8c0.6-0.1,1.1-0.1,1.7-0.2c0,1.5,1,2.1,2.1,2.6c0,0.1,0,0.2,0,0.2
			c-0.5,0.2-1.2,0.3-1.6,0.6c-2.7,2-5.4,4.1-8,6.2c-4,3.2-7.9,6.4-11.9,9.6c-0.4,0.3-0.7,0.9-0.8,1.4c-0.3,2.5-0.5,5-0.8,7.6
			c-0.1,1.3-0.3,2.7-0.5,4c-0.1,0-0.2,0-0.3,0c-0.3-0.5-0.6-1-0.9-1.4c-0.2-3.5,0.6-7.1-0.7-10.5c0-0.3,0-0.6,0-1
			C959.3,483.9,959.3,483.8,959.3,483.6z"/>
		<path class="st6" d="M886.9,496.3c0-4.6,0-9.1,0-13.7c0-0.6,0.1-1.3,0.2-1.9c0.3-0.2,0.7-0.4,1-0.6c3.6-2.8,7.2-5.6,10.9-8.3
			c2.6-2,5.2-4,7.3-6.6c0.2,0.1,0.5,0.2,0.7,0.2c0,0.1,0,0.2,0,0.2c0.5,0.6,1,1.3,1.4,1.9c-0.4,0.2-0.8,0.2-1.1,0.5
			c-3.5,3-7,6-10.5,9c-0.9,0.7-1.6,1.6-2.4,2.5c-0.2,0.2-0.3,0.3-0.5,0.5c-0.5,0.4-1,0.8-1.4,1.2l0,0c-0.4,0.2-0.9,0.4-1.2,0.7
			c-1.9,2-2.8,4.4-2.9,7.1c-0.1,1.9-0.3,3.8-0.5,5.7C888,495.3,888.1,496.3,886.9,496.3z"/>
		<path class="st7" d="M886.9,568.4c0-2.9,0-5.8,0-8.7c0-0.8,0.1-1.6,0.2-2.4c0.4-0.2,0.7-0.4,1.1-0.7c2-1.7,3.9-3.4,5.8-5.1
			c3.2-2.8,6.4-5.5,9.5-8.3c0.3-0.3,0.6-0.7,0.8-1.1c0.4-1.1,1.1-1.5,2.2-1.3c0.2,0.4,0.3,0.8,0.5,1.2c-0.1,0.4-0.4,0.8-0.3,1.1
			c0.5,1.1,0,1.8-0.8,2.5c-1.5,1.2-3,2.3-4.4,3.5c-3.4,3-6.8,6-10.2,9c-1.6,1.5-2.4,3.4-2.8,5.6c-0.2,1.1-0.3,2.2-0.6,3.3
			C887.9,567.5,887.3,567.9,886.9,568.4z"/>
		<path class="st5" d="M1034.3,592.4c0,0.9,0,1.8,0,2.6c-1.4,1.1-2.9,2.1-4.1,3.3c-3.3,3.4-6.5,6.9-9.8,10.3c-1.6,1.7-3.4,3.4-5,5.1
			c0.2-0.5,0.4-1,0.6-1.5c0.5-1.1,0.4-1.4-0.8-1.6c-0.6-0.1-1.3,0-2,0c0.1-0.2,0.2-0.5,0.2-0.7c0.1-0.1,0.2-0.2,0.2-0.2
			c0.1-0.1,0.3-0.1,0.4-0.2c2.3-2,4.6-4.1,6.9-6.1c0.2-0.2,0.4-0.6,0.5-0.9c0.1-0.1,0.2-0.2,0.2-0.2c2.3-2.4,4.6-4.7,7-7.1
			c0.1-0.1,0.2-0.4,0.2-0.5c0.4-0.4,0.8-0.8,1.2-1.2c0.2-0.2,0.5-0.4,0.7-0.6C1032.1,591.7,1032.9,591.6,1034.3,592.4z"/>
		<path class="st3" d="M1034.5,511.4c0,1.8,0,3.6,0,5.4c0.1,2.1-0.5,4-2.2,5.2c-3.8,2.9-6.4,6.9-9.8,10.1c-2.3,2.2-4.6,4.3-7,6.4
			c-0.4,0-0.8,0-1.2,0c-0.2-0.1-0.5-0.2-0.7-0.2c0.7-0.7,1.4-1.4,2.1-2.1c3.2-3,6.3-5.9,9.5-8.9c1.2-1.1,2.3-2.3,3.4-3.5
			c1.4-1.5,2.7-3.1,4-4.7c0.6-0.7,0.4-1.7-0.3-2.1c-0.5-0.2-1.5-0.1-1.9,0.3c-2.7,2.5-5.2,5.2-7.8,7.7c-1.4,1.4-2.8,2.9-4.3,4.1
			c-2.4,1.9-4.9,3.6-7.4,5.3c-0.3,0.2-0.8,0.3-1.2,0.4c0.1-0.2,0.2-0.3,0.2-0.5v0c0.2-0.2,0.3-0.3,0.5-0.5c0.4-0.4,0.8-0.8,1.2-1.2
			c0.9-0.8,1.8-1.6,2.6-2.4c0.2-0.2,0.5-0.5,0.7-0.7c0.2-0.2,0.5-0.5,0.7-0.7c0.2-0.1,0.3-0.2,0.5-0.2c0.2-0.2,0.5-0.5,0.7-0.7
			c1-0.9,1.9-1.8,2.9-2.6c0.2-0.2,0.5-0.3,0.7-0.5c0.4-0.3,0.8-0.6,1.2-1c0.2-0.2,0.3-0.3,0.5-0.5c0.3-0.2,0.6-0.5,1-0.7
			c0.1-0.1,0.2-0.2,0.2-0.2c0.2-0.2,0.5-0.5,0.7-0.7c0.1,0,0.2,0,0.2,0c0.8-0.7,1.6-1.3,2.4-2.1c0.9-0.8,1.8-1.7,2.6-2.5
			c0,0,0,0,0,0c1.6-0.7,2.7-1.7,3.1-3.5c0.2-1,0.7-1.9,1-2.9C1034,511.1,1034.3,511.2,1034.5,511.4z"/>
		<path class="st8" d="M1034.3,592.4c-1.4-0.8-2.2-0.7-3.3,0.3c-0.2,0.2-0.5,0.4-0.7,0.6c0.1-0.3,0.2-0.7,0.4-1
			c1-1.1,1.2-2.5,1.3-3.9c0-1.3,0-2.6,0-3.9c0.4-5.6,0.3-11.1-0.5-16.6c-0.2-3.3-0.5-6.5-0.7-9.8c0.2-0.3,0.3-0.6,0.5-1
			c0.9-0.3,1.8-0.6,2.6-1c0.2,0.1,0.5,0.2,0.7,0.2c0,0.2,0,0.5,0,0.7c-0.3,0-0.6,0-1,0c-1.9,0.1-2.5,1-2.1,2.8
			c0.6,2.4,1.1,4.9,1.6,7.3c0.2,1.2,0.2,2.5,0.4,4c0.4-0.8,0.7-1.3,1-1.9c0,7.1,0,14.3,0,21.4
			C1034.5,591.3,1034.4,591.9,1034.3,592.4z"/>
		<path class="st9" d="M1034.5,511.4c-0.3-0.2-0.5-0.3-0.9-0.6c-0.4,1-0.9,1.9-1,2.9c-0.3,1.8-1.5,2.8-3.1,3.5
			c0.6-1.7,1.4-3.4,1.8-5.1c0.5-2.5,0.6-5.1,0.9-7.6c0.4-3.2,0.1-6.3-0.6-9.3c-0.5-1.9-0.7-3.8-1.1-5.7c0.1-1.7,0.1-3.4-1.2-4.8
			c-0.2-0.2-0.2-0.6-0.3-0.9c1-0.1,2.1,0.6,2.9-0.5c0.3-0.2,0.6-0.3,1-0.5c0.5-0.2,1-0.5,1.4-0.7c0,0.6,0,1.1,0,1.7
			c-1.1-0.2-2.1,0.3-2.4,1.4c-0.9,2.9-0.6,5.7,1.1,8.3c0.4,0.6,0.8,0.8,1.5,0.6C1034.5,499.7,1034.5,505.6,1034.5,511.4z"/>
		<path class="st10" d="M1014.6,614.4c-0.5,0.1-1,0.2-1.5,0.2c-9.5,0-19,0-28.5,0c-0.5,0-1.1-0.1-1.6-0.2c0.5-1.4,1.7-1.6,2.9-1.7
			c1.9-0.1,3.8,0,5.7,0c4.8-0.1,9.7-0.3,14.5-0.5c1.9-0.1,3.9-0.1,5.8-0.2C1014,611.9,1014.5,612.4,1014.6,614.4z"/>
		<path class="st11" d="M886.9,568.4c0.4-0.5,0.9-0.9,1.1-1.5c0.3-1.1,0.4-2.2,0.6-3.3c0.4-2.1,1.2-4.1,2.8-5.6c3.4-3,6.8-6,10.2-9
			c1.4-1.2,2.9-2.3,4.4-3.5c0.8-0.6,1.3-1.4,0.8-2.5c-0.1-0.3,0.2-0.7,0.3-1.1c0.6,0.4,1.3,0.8,1.9,1.2c-0.4,0.3-0.8,0.4-1,0.8
			c-1.5,2.5-3.9,3.9-6,5.8c-3.2,2.8-6.5,5.6-9.6,8.4c-1.8,1.6-2.7,3.7-3,6c-0.3,2.6-0.3,5.2-0.5,7.7c0,0.7-0.1,1.4-0.1,2.1
			c-0.1,4.3-0.1,8.5-0.2,12.8c0,2,0.7,4-0.4,5.8c0,0.1,0,0.2,0,0.2c-0.4,0-0.8,0-1.2,0C886.9,584.7,886.9,576.6,886.9,568.4z"/>
		<path class="st7" d="M886.9,496.3c1.1-0.1,1-1,1.1-1.7c0.2-1.9,0.4-3.8,0.5-5.7c0.1-2.7,1-5.1,2.9-7.1c0.3-0.3,0.8-0.4,1.2-0.7
			c-1.2,1.5-2.5,3-2.6,5c-0.4,5.1-0.8,10.1-0.9,15.2c-0.1,3.8,0.4,7.5,0.6,11.3c0.1,1.6-0.2,3.1-1.6,4.2c-0.3,0-0.6,0-1,0
			C887.1,510,887,503.2,886.9,496.3z"/>
		<path class="st12" d="M984.7,467.3c-1.1-0.5-2.1-1.1-2.1-2.6c9.9,0,19.8,0,29.7,0c0,1.9-0.4,2.3-2.3,2.2
			c-4.1-0.1-8.2-0.4-12.3-0.3C993.3,466.7,989,467.1,984.7,467.3z"/>
		<path class="st12" d="M907,465.6c0-0.1,0-0.2,0-0.2c0-0.2,0-0.5,0-0.7c10.8,0,21.5,0,32.3,0c0,0.1,0,0.3,0,0.4
			c-0.5,1.4-1.8,1.3-2.9,1.3c-4.7,0.1-9.4,0.1-14.1,0.1c-2.9,0-5.8-0.1-8.7,0.2C911.4,466.9,909.1,466.9,907,465.6z"/>
		<path class="st8" d="M888.1,592.9c0-0.1,0-0.2,0-0.2c0.3-0.2,0.6-0.5,1-0.7c1.3-0.2,2.2,0.4,2.9,1.4c1.5,2.2,3.5,3.9,5.4,5.7
			c3.2,3,6.3,6.2,9.4,9.4c0.6,0.6,1,1.5,1.5,2.3c-1.2-1.1-2.5-2.1-3.7-3.2c-2-1.9-3.8-3.9-5.8-5.7c-2-1.9-4.1-3.7-6.1-5.6
			c-0.9-0.8-1.7-1.8-2.6-2.6c-0.2-0.2-0.8-0.3-1-0.1c-1.1,0.5-1.4,1.6-0.8,2.6c0.4,0.7,0.9,1.4,1.5,2c4,3.8,8,7.6,12,11.3
			c1.8,1.7,3.6,3.2,5.4,4.8c0,0.1,0,0.2,0,0.2c-2.1-0.4-3.8-1.4-5.2-3c-2.3-2.6-4.9-4.9-7.3-7.3c-0.9-0.9-1.9-1.8-2.8-2.8
			c-1.2-1.3-2.3-2.7-3.6-4c-1.1-1.1-0.9-2.4-0.9-3.7C887.5,593.4,887.8,593.1,888.1,592.9z"/>
		<path class="st13" d="M1032.8,482.6c-0.3,0.2-0.6,0.3-1,0.5c-1.7-0.2-3.5-0.3-4.9-1.5c-1.7-1.5-3.5-3.1-5.1-4.6
			c-1.9-1.7-3.6-3.6-5.5-5.3c-1.5-1.3-3.2-2.5-4.8-3.7c-3.4,0-6.8,0-10.2,0c-0.5,0-1-0.1-1.5-0.2c0.5-0.1,1-0.2,1.5-0.2
			c3,0,6,0,8.9,0c0.9,0,1.8,0.1,2.7,0.2c0.2,0,0.5,0,0.7,0c3.8,3.4,7.5,6.9,11.4,10.2c1.7,1.5,3.8,2.6,5.7,3.9
			c0.2,0.1,0.3,0.2,0.5,0.2c0.4-0.1,0.8-0.2,1.2-0.2c0.1-0.2,0.2-0.3,0.2-0.5c0.5-1,0.2-1.7-0.7-2.4c-4-3.3-8-6.6-12-9.9
			c-1.6-1.3-3.2-2.5-4.9-3.8c0-0.2,0-0.5,0-0.7c0.2,0,0.5,0,0.7,0c1.9,1.6,3.9,3.1,5.7,4.7c3.3,2.8,6.5,5.7,9.8,8.5
			C1033.7,479.9,1033.8,479.8,1032.8,482.6z"/>
		<path class="st14" d="M888.1,516.9c1.4-1.1,1.6-2.6,1.6-4.2c-0.2-3.8-0.6-7.5-0.6-11.3c0.1-5.1,0.5-10.2,0.9-15.2
			c0.1-2,1.5-3.5,2.6-5c0,0,0,0,0,0c0.5-0.4,1-0.8,1.4-1.2c0.2-0.2,0.3-0.3,0.5-0.5c0.4-0.2,0.7-0.5,1.1-0.7
			c0.8-0.6,1.7-1.1,2.5-1.7c-0.2,0.3-0.3,0.6-0.5,1c-1.6,1.3-3.2,2.6-4.8,3.9c-1,0.9-1.7,2-1.7,3.4c-0.1,3.7-0.2,7.4-0.2,11.1
			c0,0.5,0,1,0,1.4c0,0.2,0,0.5,0,0.7c-0.1,1-0.2,1.9-0.2,2.9c0,0.6,0,1.1,0,1.7c0.1,1.1,0.2,2.2,0.2,3.4c0,0.6,0,1.1,0,1.7
			c-0.1,0.6-0.2,1.3-0.2,1.9c0.1,0.2,0.2,0.5,0.2,0.7c0,0.2,0,0.5,0,0.7c0,0.8,0,1.6,0,2.4c-0.5,0.9-1,1.8-1.4,2.6
			c-0.3,0.2-0.6,0.3-1,0.5c-0.1,0.1-0.2,0.2-0.2,0.2c-0.2,0.2-0.3,0.5-0.5,0.7c-0.1,0.3-0.2,0.6-0.2,1c-1.2-0.4-0.7-1.2-0.5-1.9
			C887.5,517.1,887.8,517,888.1,516.9z"/>
		<path class="st15" d="M907.8,614.7c-0.1-0.3-0.3-0.6-0.3-0.9c0.1-0.6,0.1-1.3,0.5-1.7c0.3-0.3,1.1-0.5,1.6-0.4
			c2.8,0.6,5.7,1.4,8.5,1.9c1.1,0.2,2.4,0.2,3.5,0c4.6-0.8,9.2-1.5,13.9-1.3c0.6,0,1.3-0.4,1.9-0.5c0.7,0,1.4,0,2,0.3
			c0.2,0.1,0.2,0.9,0.2,1.4c-0.5-0.3-1.1-0.9-1.6-0.8c-1.9,0-3.9,0.2-5.8,0.4c-1,0.1-2.3,0.2-2.7,1.5
			C922.3,614.6,915,614.6,907.8,614.7z"/>
		<path class="st3" d="M1015.4,613.7c1.7-1.7,3.4-3.3,5-5.1c3.3-3.4,6.4-6.9,9.8-10.3c1.2-1.3,2.7-2.2,4.1-3.3
			c0.3,2.2-1.4,3.3-2.6,4.6c-3,2.9-6.3,5.5-9,8.7c-1.7,2.1-4,3.8-6.1,5.6c-0.3,0.3-0.9,0.4-1.3,0.5
			C1015.3,614.2,1015.3,614,1015.4,613.7z"/>
		<path class="st16" d="M909,543.3c-0.6-0.4-1.3-0.8-1.9-1.2c-0.2-0.4-0.3-0.8-0.5-1.2c0.2-0.4,0.3-0.8,0.5-1.2c0-0.2,0-0.3,0-0.5
			c0.7,0,1.4,0,2.1-0.1c0,0,0,0.1,0,0.1c-0.3,0.3-0.6,0.6-1,1.1c0.5,0.3,0.9,0.5,1.3,0.6c1.7,0.3,3.5,0.6,5.2,0.6
			c5.2-0.1,10.4-0.3,15.6-0.4c1.3,0,2.7-0.1,4-0.3c0.7-0.1,1.4-0.2,1.4-1.1c0.2,0,0.3,0,0.5,0c0.2,0,0.3,0,0.5,0
			c0.1,0.1,0.2,0.2,0.2,0.2c0,0.2,0,0.3,0,0.5c-0.5,1.5-1.6,2-3.1,1.9c-0.4,0-0.8,0-1.2,0c-0.2-0.1-0.5-0.2-0.7-0.2
			c-0.5,0.1-1,0.2-1.4,0.2c-1,0-1.9,0-2.9,0c-2.4,0-4.8,0-7.2,0c-1,0.1-2.1,0.2-3.1,0.2c-0.4,0-0.8,0-1.2,0c-0.9,0-1.9-0.1-2.8,0
			c-1.1,0.2-2.5-0.2-3.4,0.9c-0.2,0-0.3,0-0.5,0C909.3,543.4,909.1,543.4,909,543.3z"/>
		<path class="st5" d="M981.6,614.4c-0.8-2.4-0.4-2.9,2.2-3.1c0.3,0,0.6-0.1,0.9-0.2c0.8-0.1,1.6-0.2,2.4-0.2c0.6,0,1.3,0,1.9,0
			c0.2,0,0.5,0,0.7,0c0.6,0,1.1,0,1.7,0c0.2,0,0.3,0,0.5,0c2.6,0,5.1,0,7.7,0c0.6,0,1.3,0,1.9,0c2.9-0.2,5.7-0.3,8.6-0.5
			c1,0.1,1.9,0.2,2.9,0.2c-0.7,1.1-1.8,1.2-2.9,1.2c-4.3,0.1-8.5,0.2-12.8,0.2c-3.8,0.1-7.6,0.1-11.3,0.3c-1.3,0-2.6,0.3-4.2,0.4
			c0.5,0.8,0.8,1.3,1,1.8C982.4,614.5,982,614.4,981.6,614.4z"/>
		<path class="st4" d="M906.3,465.2c-2.1,2.6-4.7,4.6-7.3,6.6c-3.6,2.8-7.3,5.5-10.9,8.3c-0.3,0.2-0.7,0.4-1,0.6
			c0.2-0.5,0.3-1.1,0.7-1.5c2.7-3,5.9-5.4,9.1-7.7c2.5-1.8,4.8-3.9,7.3-5.8c0.6-0.5,1.4-0.7,2.1-1.1
			C906.3,464.8,906.3,465,906.3,465.2z"/>
		<path class="st11" d="M907,539.7c-0.2,0.4-0.3,0.8-0.5,1.2c-1.1-0.2-1.8,0.3-2.2,1.3c-0.2,0.4-0.4,0.8-0.8,1.1
			c-3.2,2.8-6.3,5.6-9.5,8.3c-1.9,1.7-3.9,3.4-5.8,5.1c-0.3,0.3-0.7,0.5-1.1,0.7c0.2-1.8,1.5-2.9,2.7-3.9c4.1-3.6,8.3-7.2,12.4-10.8
			C903.7,541.4,904.9,539.9,907,539.7z"/>
		<path class="st3" d="M1034.5,569.4c-0.3,0.6-0.6,1.1-1,1.9c-0.1-1.5-0.2-2.8-0.4-4c-0.5-2.5-1-4.9-1.6-7.3
			c-0.4-1.8,0.2-2.7,2.1-2.8c0.3,0,0.6,0,1,0C1034.5,561.2,1034.5,565.3,1034.5,569.4z"/>
		<path class="st16" d="M1013,467.8c-0.9-0.1-1.8-0.2-2.7-0.2c-3,0-6,0-8.9,0c-0.5,0-1,0.2-1.5,0.2c-2.1,0-4.2,0-6.2,0
			c-0.2,0-0.3,0-0.5,0c-1,0-2.1,0-3.1,0c-1.4,0-2.7,0-4.1,0c-0.4,0.1-0.8,0.1-1.2,0.2c0-0.2,0-0.3,0-0.5c0-0.1,0-0.2,0-0.2
			c4.3-0.2,8.6-0.6,12.9-0.7c4.1-0.1,8.2,0.2,12.3,0.3c1.9,0.1,2.4-0.3,2.3-2.2c0.7,0.1,1.5,0.1,2.2,0.2c-0.3,0.6-0.6,1.3-0.9,1.9
			C1013.4,467.2,1013.1,467.5,1013,467.8z"/>
		<path class="st17" d="M1034.5,493.9c-0.7,0.2-1.1,0-1.5-0.6c-1.8-2.6-2-5.4-1.1-8.3c0.3-1.1,1.3-1.6,2.4-1.4
			c0.1,0.7,0.2,1.3,0.2,2C1034.5,488.4,1034.5,491.1,1034.5,493.9z"/>
		<path class="st15" d="M982.8,614.5c-0.3-0.5-0.6-1-1-1.8c1.6-0.2,2.9-0.4,4.2-0.4c3.8-0.1,7.6-0.2,11.3-0.3
			c4.3-0.1,8.5-0.2,12.8-0.2c1.1,0,2.2-0.1,2.9-1.2c0.1,0,0.2,0,0.2,0c0.7,0,1.3-0.1,2,0c1.2,0.2,1.3,0.5,0.8,1.6
			c-0.2,0.5-0.4,1-0.6,1.5c0,0.2,0,0.5,0,0.7c-0.2,0-0.5,0-0.7,0c-0.1-2-0.7-2.5-2.7-2.4c-1.9,0.1-3.9,0.2-5.8,0.2
			c-4.8,0.2-9.7,0.3-14.5,0.5c-1.9,0.1-3.8,0-5.7,0c-1.2,0-2.4,0.3-2.9,1.7C982.9,614.5,982.8,614.5,982.8,614.5z"/>
		<path class="st18" d="M1032.8,482.6c1-2.8,0.9-2.8-1.5-4.8c-3.3-2.8-6.5-5.7-9.8-8.5c-1.9-1.6-3.8-3.1-5.7-4.7
			c0.6,0.1,1.4,0,1.8,0.3c1.4,1,2.9,2.2,4.1,3.4c3.7,3.6,7.5,7,11.7,10c1.2,0.9,1.4,2.1,0.8,3.5
			C1033.8,482.2,1033.3,482.4,1032.8,482.6z"/>
		<path class="st18" d="M1034.5,556.5c-0.2-0.1-0.5-0.2-0.7-0.2c0.4-1.2,0.1-2.2-0.8-3c-1.1-1-2.4-2-3.6-2.9
			c-4.8-3.7-9.6-7.4-14.5-11.1c-0.2-0.2-0.4-0.4-0.5-0.6c0.4,0,0.8,0,1.2,0c0.6,0.4,1.3,0.9,1.9,1.3c3.4,2.5,6.8,5,10.1,7.6
			c1.9,1.5,3.8,3.2,5.6,4.8C1034.6,553.4,1034.8,554.8,1034.5,556.5z"/>
		<path class="st10" d="M929.6,614.6c0.4-1.4,1.7-1.4,2.7-1.5c1.9-0.3,3.8-0.4,5.8-0.4c0.5,0,1.1,0.6,1.6,0.8c0,0.2,0,0.3,0,0.5
			c-0.1,0.2-0.2,0.5-0.3,0.7C936.1,614.6,932.8,614.6,929.6,614.6z"/>
		<path class="st11" d="M1013,467.8c0.2-0.3,0.4-0.6,0.6-1c0.3-0.6,0.6-1.3,0.9-1.9c0.2-0.1,0.5-0.2,0.7-0.2c0,0.2,0,0.5,0,0.7
			c0,0.2,0.1,0.5,0.1,0.7c0.2,0.9,0.1,1.5-1,1.5c-0.2,0-0.4,0.1-0.5,0.2C1013.4,467.8,1013.2,467.8,1013,467.8z"/>
		<path class="st13" d="M888.1,592.9c-0.3,0.2-0.6,0.5-1,0.7c-0.1-0.2-0.2-0.5-0.2-0.7C887.3,592.9,887.7,592.9,888.1,592.9z"/>
		<path class="st16" d="M906.3,465.2c0-0.2,0-0.3,0-0.5c0.2,0,0.5,0,0.7,0c0,0.2,0,0.5,0,0.7C906.8,465.3,906.6,465.2,906.3,465.2z"
			/>
		<path class="st4" d="M888.1,516.9c-0.3,0.1-0.6,0.2-1,0.2c0-0.1,0-0.2,0-0.2C887.5,516.9,887.8,516.9,888.1,516.9z"/>
		<path class="st0" d="M909.4,543.5c0.2,0,0.3,0,0.5,0c0.9,0.1,1.8,0.2,2.6,0.2c0.9,0,1.9,0.1,2.8,0.1c2.5-0.1,5.1-0.5,7.6-0.5
			c4.6-0.1,9.2-0.2,13.8,0.7c0.3,0.1,0.6,0.1,0.9,0.3c1.5,0.9,3,1.9,4.6,2.7c2.4,1.1,4.1,2.9,5.8,4.8c1.9,2.1,3.7,4.3,5.7,6.2
			c1.4,1.4,2.8,3,4.9,3.4c-0.4,1.4-1,2.9-1.1,4.3c-0.2,2.2-0.1,4.5-0.1,6.8c0,2.3,0.2,4.6,0.2,6.9c0.1,2.2,0.3,4.5,0.2,6.7
			c-0.1,2.3-0.4,4.5-0.7,6.7c-0.2,0.2-0.3,0.5-0.5,0.7c-1.7,1.4-3.4,2.8-5.1,4.3c-2.4,2.1-4.7,4.2-7,6.3c-1.7,1.5-3.3,3.2-4.9,4.7
			c-0.2,0.2-0.5,0.5-0.7,0.7c-0.9,0.4-1.7,1.1-2.7,1.1c-3.8,0.2-7.6,0.3-11.5,0.3c-3.4,0-6.8-0.2-10.3-0.2c-1.1,0-2.1,0.1-3.2,0.2
			c-0.4-0.1-0.8-0.2-1.2-0.2c-0.2,0-0.5,0-0.7,0c-0.2,0-0.3,0-0.5,0c-0.3-0.1-0.6-0.2-1-0.2c-0.5-0.8-0.9-1.6-1.5-2.3
			c-3.1-3.2-6.2-6.4-9.4-9.4c-1.9-1.8-3.9-3.5-5.4-5.7c-0.7-0.9-1.6-1.5-2.9-1.4c0.1-2.1,0.2-4.2,0.2-6.3c0.1-3.7,0.1-7.5,0.3-11.2
			c0.1-3.7,0.3-7.4,0.5-11.1c0.1-0.8,0.4-1.8,0.9-2.4c1.7-1.9,3.4-3.8,5.3-5.5C900.9,551.7,905.4,547.9,909.4,543.5z M927.4,544.3
			c-3.5,0.2-6.8,0.3-10.1,0.7c-4.3,0.5-8.5,1.8-12,4.4c-4,3-7.8,6.5-11.5,9.9c-1.3,1.2-2.3,3-2.7,4.7c-0.6,2.7-0.6,5.6-0.8,8.4
			c-0.1,1.9,0,3.8,0,5.7c-0.1,3-0.2,6.1-0.2,9.1c0,1.2,0.3,2.9,1,3.5c1.7,1.4,3.1,3.2,5.6,3.7c2.1,0.4,3.9,0.2,5.5-1
			c2.1-1.5,3-3.8,3.9-6.1c1.9-4.8,4-9.6,7.2-13.7c0.5-0.6,1-1.1,1.6-1.6c0.6-0.5,1.2-0.8,1.8-1.3c1.9-1.6,3.7-3.3,5.6-4.8
			c1.5-1.2,3-2.3,4.6-3.2c2.3-1.2,4.9-0.6,7.4-0.5c1.3,0,2.5,0.6,3.8,0.9c5.4,1.2,9.8-1.4,10.9-6.5c0.1-0.7-0.1-1.6-0.5-2.2
			c-3.1-4.3-7.7-6.6-12-9.4c-0.2-0.1-0.5-0.2-0.8-0.2C933,544.7,930.2,544.5,927.4,544.3z M923,610.4c2.6,0,5.2,0,7.8,0
			c3.2-0.1,6.4-0.6,8.9-2.9c1.9-1.6,3.8-3.3,5.7-4.9c2.2-2,4.5-4.1,6.6-6.2c1.8-1.8,3.4-3.7,4-6.3c0.8-3.6,0.7-7.1,0.1-10.7
			c-0.3-1.3-0.9-2.5-2-3.3c-3.3-2.4-7.8-1.4-9.5,2.3c-0.9,1.8-1.4,3.7-2.1,5.6c-1.7,4-5,6.6-8.1,9.3c-3.3,2.9-7.2,4.5-11.4,5.6
			c-2.2,0.6-4.4,1.1-6.6,1.8c-3,1-5.2,2.8-5.7,6.1c-0.3,1.8,0.3,2.8,2.1,3.1c0.9,0.2,1.9,0.3,2.8,0.3
			C918.1,610.4,920.6,610.4,923,610.4z"/>
		<path class="st9" d="M987.1,610.8c-0.8,0.1-1.6,0.2-2.4,0.2c-2.2-0.6-3.6-2.3-5.2-3.7c-2.4-2-4.7-4.2-6.9-6.4
			c-1.9-1.9-3.6-4-5.4-6.1c-1-1.2-2.2-2.2-3.8-2.5c0.3-0.6,0.9-1.2,0.9-1.9c0.1-2.3,0.1-4.6,0-6.9c-0.1-5.1-0.3-10.1-0.5-15.2
			c0-1.4-0.2-2.7-0.2-4.1c0.1-0.4,0.2-0.8,0.2-1.2c0.1-1.5,1-2.5,2-3.5c3.9-4,7.8-8,11.7-12.1c0.5-0.4,1-0.8,1.4-1.2
			c0.2-0.2,0.5-0.5,0.7-0.7c1-0.7,1.9-1.4,2.9-2.2c7.8-0.3,15.6-0.9,23.5-0.5c0.2,0.1,0.3,0.2,0.5,0.2c0.9,0,1.8,0,2.6,0
			c0.8,0.2,1.5,0.3,2.3,0.5c0.6,0.2,1.4,0.2,1.9,0.5c3.4,2.8,6.6,5.7,10,8.6c0.1,0.6,0.2,1.2,0.2,1.8c-0.1,4.4-2,7.5-5.9,9.6
			c-2.4,1.3-4.8,1.9-7.4,1.3c-1.3-0.3-2.7-0.5-4-0.5c-4.3,0-7.7,2.3-10.6,5.1c-2.5,2.5-4.2,5.6-5.5,9c-0.8,2.1-2,4.2-3.1,6.2
			c-0.2,0.4-0.8,0.7-1.2,0.8c-1,0.3-2,0.4-3,0.6c-2,0-4-0.1-6,0c-1.9,0.1-3.8,0.3-5.2,1.7c-1.1,1.1-2.1,2.2-3.1,3.3
			c-0.8,0.9-0.8,1.9,0.1,2.8c1.8,2,3.6,4.1,5.6,6.1c2.9,2.8,5.9,5.5,8.7,8.3c0.8,0.8,1.7,1.3,2.9,1.2
			C986.2,610.4,986.6,610.7,987.1,610.8z M964.7,570.9c0.2,2.1,0.3,4.1,0.6,6.2c0.1,1,0.6,1.9,0.9,2.8c0.3,1,0.5,2,0.9,2.9
			c0.1,0.2,0.4,0.4,0.6,0.4c1.6-0.2,3.2,0.3,4.8,0.5c0.7,0.1,1.5-0.1,2.2-0.1c2.2,0.1,4.1-0.6,6.1-1.4c0.2-0.1,0.5-0.3,0.6-0.6
			c0.5-1.1,1-2.2,1.4-3.3c0.5-1.3,0.8-2.6,1.3-3.9c1.1-3.1,3.4-5.4,5.6-7.7c3.6-3.7,8.1-5.8,13.3-6.5c1.1-0.2,2.3-0.1,3.4-0.1
			c1.9,0.1,3.9,0.5,5.8,0.5c2.8-0.1,6.5-2.4,6.2-6.5c-0.2-2.2-1.4-3.8-3.1-5c-1.4-1-2.9-1.9-4.5-2.6c-1.7-0.8-3.5-1.5-5.3-2
			c-3.6-1-7.4-0.7-11.1-0.4c-2.9,0.2-5.9,0.7-8.6,1.8c-6.6,2.8-12.7,6.4-16.8,12.7C966.5,562.4,964.6,566.3,964.7,570.9z"/>
		<path class="st13" d="M958.8,561.5c-2.1-0.5-3.5-2.1-4.9-3.4c-2-1.9-3.9-4.1-5.7-6.2c-1.7-1.9-3.5-3.7-5.8-4.8
			c-1.6-0.8-3.1-1.8-4.6-2.7c-0.3-0.2-0.6-0.2-0.9-0.3c-4.6-0.9-9.2-0.8-13.8-0.7c-2.5,0-5.1,0.4-7.6,0.5c-0.9,0.1-1.9,0-2.8-0.1
			c0.4-0.2,0.7-0.4,1.1-0.5c0.8-0.3,1.7-0.5,2.5-0.7c0.4,0,0.8,0,1.2,0c1.1,0.3,2.1,0.6,3.1-0.2c2.4,0,4.8,0,7.2,0c1,0,1.9,0,2.9,0
			c0.5-0.1,1-0.2,1.4-0.2c0.2,0.1,0.5,0.2,0.7,0.2c0.4,0,0.8,0,1.2,0c0.6,1.1,1.6,0.6,2.4,0.7c0.9,0.1,1.5-0.3,1.8-1.2
			c0.3-0.9-0.5-1.1-1.1-1.4c0-0.2,0-0.3,0-0.5c0.2,0,0.5,0,0.7,0c0.2,0.2,0.5,0.3,0.7,0.5c0.4-0.1,0.8-0.2,1.2-0.2
			c0.2,0.2,0.3,0.4,0.5,0.5c1.7,1.3,3.5,2.5,5.2,3.9c1.1,0.9,2,2,3.1,2.8c2.3,1.8,4.7,3.5,7.1,5.2c1.3,0.9,2.5,1.9,3.8,2.9
			c0.9,0.7,1.7,0.8,2.5,0c1.9-1.9,3.8-3.7,5.7-5.6c0.6-0.6,1.2-1.1,1.9-1.6c0,0.2,0,0.3,0,0.5c-0.2,0.2-0.3,0.3-0.5,0.5
			c-0.2,0.3-0.5,0.6-0.7,1c-0.4,0.4-0.8,0.8-1.2,1.2c-0.5,0.5-1,1-1.5,1.5c-1.7,1.7-3,3.8-5.7,4c-0.5-0.2-1.2-0.3-1.6-0.6
			c-1.5-1.2-3-2.5-4.5-3.6c-0.3-0.2-0.9-0.3-1.2-0.2c-0.2,0.1-0.4,0.8-0.3,1.1c0.3,0.7,0.8,1.5,1.3,2c1.6,1.6,3.3,3.1,4.9,4.6
			c0.2,0.2,0.5,0.5,0.7,0.7c0.1,0.2,0.2,0.3,0.2,0.5l0,0C959.1,561.5,959,561.5,958.8,561.5z"/>
		<path class="st13" d="M963.6,564.4c0.1,1.4,0.2,2.7,0.2,4.1c0.2,5.1,0.4,10.1,0.5,15.2c0.1,2.3,0.1,4.6,0,6.9
			c0,0.6-0.6,1.2-0.9,1.9c-0.7,0-1.4,0-2.2,0c-0.2-0.6-0.3-1.3-0.5-1.9c0-0.2,0-0.3,0-0.5c0-0.2,0-0.5,0-0.7
			c-0.2-5.8-0.3-11.5-0.5-17.3c-0.1-2.2,0-4.3,0-6.5c-0.2-0.2-0.3-0.3-0.5-0.5c0-0.5,0-1,0-1.4c-0.1-0.2-0.2-0.5-0.2-0.7
			c-0.1-0.5-0.2-1-0.2-1.4c0,0,0,0,0,0c1.2,0.1,1.4,0.9,1.4,1.9c0.1,1.2-0.1,2.6,0.4,3.7c1,2.6,0.9,5.2,0.5,7.8
			c-0.7,5.4-0.4,10.8,0.1,16.2c0,0.3,0.5,0.8,0.8,0.8c0.3,0,0.8-0.3,1-0.6c0.2-0.3,0.1-0.8,0.1-1.2c0-1.7,0-3.4,0-5.1
			c-0.1-2.6-0.1-5.2-0.2-7.8c-0.1-2-0.4-4-0.4-5.9C963,568.9,963.4,566.6,963.6,564.4z"/>
		<path class="st9" d="M960.7,590.5c0.2,0.6,0.3,1.3,0.5,1.9C960.6,591.9,960.3,591.3,960.7,590.5z"/>
		<path class="st0" d="M959.5,562.9c0.1,0.2,0.2,0.5,0.2,0.7C959.7,563.4,959.6,563.2,959.5,562.9z"/>
		<path class="st9" d="M960.7,589.3c0,0.2,0,0.5,0,0.7C960.7,589.8,960.7,589.5,960.7,589.3z"/>
		<path class="st0" d="M959.8,565.1c0.2,0.2,0.3,0.3,0.5,0.5C960.1,565.4,959.9,565.2,959.8,565.1z"/>
		<path class="st18" d="M925.3,536.3c-1.5-0.1-3-0.2-4.5-0.3c-1.3-0.1-2.6-0.1-3.9-0.2c0.5-0.2,0.9-0.4,1.4-0.5
			c2.4-0.1,4.9-0.2,7.3-0.2c5.1-0.2,9.6-2.3,13.9-4.7c4.1-2.4,7.4-5.8,10.3-9.5c1.9-2.3,3.7-4.8,5-7.4c1-2,1.3-4.5,1.7-6.8
			c0.6-3.9,0-7.6-2.1-11c-1-1.7-2.6-2.4-4.5-2.2c-3.7,0.2-7,3.4-6.9,7.1c0.1,3.5-1,6.5-3,9.2c-2.6,3.6-5.4,6.9-9.5,8.8
			c-4.4,2.1-9,3.5-13.8,4.2c-3,0.5-6,1-8.5,3.1c-2.3,1.9-2.6,4-2.1,5.9c0.6,2.3,2.5,3.5,5.2,3.5c0.4,0,0.9-0.1,1.3,0
			c0.3,0.1,0.5,0.4,0.8,0.7c-1.4,0.1-2.7,0.2-4.1,0.2c-1.2-1-2.4-2-3.6-3.1c-1.2-1.1-2.3-2.4-3.4-3.6c-0.3-0.3-0.6-0.6-1-1
			c0-0.3,0.1-0.6,0-0.9c-0.7-1.1-0.3-1.7,0.7-2.3c1.5-0.8,3.1-1.7,4.5-2.7c1.8-1.4,3.5-3,5.2-4.5c0.3-0.3,0.5-0.8,0.6-1.3
			c0.2-2.2,0.5-4.4,0.5-6.5c0-5.6,2.3-10,7.1-13c4-2.5,8.2-3.5,12.8-2.4c1.4,0.3,2.9,0.8,4.3,1.1c0.5,0.1,1.1,0.1,1.5-0.2
			c2.3-1.3,4.7-2.6,6.9-4c1.8-1.2,3.4-2.6,5-4c0.3-0.3,0.6-0.7,0.6-1.1c0.3-3.3-0.9-6.2-2.6-8.8c-1.6-2.3-4-4-6.5-5.4
			c-1.1-0.6-2.2-1.3-2.9-2.2c-1-1.3-2.2-1.6-3.6-1.7c-0.5,0-0.9-0.3-1.4-0.5c0.2-0.1,0.5-0.2,0.7-0.2c0.7,0,1.4,0,2.2,0
			c1,0.2,1.6,0.9,2.3,1.7c0.8,0.9,1.7,1.6,2.7,2.3c1.8,1.4,3.8,2.6,5.6,4c3.1,2.7,6.1,5.5,10.1,7c0.4,0.2,0.8,0.7,1.1,1
			c-0.6-0.2-1.2-0.5-1.7-0.7c-0.7-0.3-1.4-0.2-1.5,0.5c-0.3,1.9-1,3.8,0.5,5.5c0.2,0.3,0.3,0.7,0.3,1.1c0.1,1.2,0.1,2.4,0.2,3.7
			c0.3,3.9,1,7.7,1,11.6c0,3.5-0.7,6.9-1.1,10.4c0,0.1,0,0.2,0,0.2c0,0,0,0,0,0c-0.2,0.2-0.5,0.4-0.7,0.6c-2.2,2.2-4.3,4.3-6.5,6.5
			c-1.3,1.3-2.7,2.6-4.1,4c-0.3,0.3-0.6,0.6-1,1c-0.3,0.3-0.7,0.6-1,0.9c-1,1-2.1,2-3.1,3c-0.6,0.5-1.1,1-1.7,1.4c0,0,0,0,0,0
			c-0.2,0.2-0.3,0.3-0.5,0.5c-0.2,0.2-0.5,0.3-0.7,0.5c-0.4,0.2-0.8,0.5-1.2,0.7c-0.2,0-0.5,0-0.7,0c-0.8-0.3-1.5-0.6-2.2,0.2
			c-0.2,0-0.5,0-0.7,0c-0.8-0.3-1.7-0.6-2.4,0.2c-0.6,0.1-1.3,0.2-1.9,0.2c-0.5,0-1,0-1.4,0c-0.1-0.1-0.1-0.2-0.2-0.3
			c-0.1,0.1-0.2,0.2-0.3,0.3C925.7,536.2,925.5,536.2,925.3,536.3z"/>
		<path class="st19" d="M913.3,536.1c-0.3-0.2-0.5-0.6-0.8-0.7c-0.4-0.1-0.9,0-1.3,0c-2.7,0-4.5-1.1-5.2-3.5c-0.5-1.9-0.2-4,2.1-5.9
			c2.5-2.1,5.5-2.6,8.5-3.1c4.8-0.8,9.4-2.2,13.8-4.2c4.1-2,6.9-5.3,9.5-8.8c2-2.8,3.1-5.8,3-9.2c-0.1-3.7,3.2-6.9,6.9-7.1
			c1.9-0.1,3.5,0.6,4.5,2.2c2,3.4,2.7,7.1,2.1,11c-0.4,2.3-0.7,4.7-1.7,6.8c-1.3,2.6-3.1,5.1-5,7.4c-3,3.7-6.2,7.1-10.3,9.5
			c-4.3,2.5-8.8,4.6-13.9,4.7c-2.4,0.1-4.9,0.1-7.3,0.2c-0.5,0-0.9,0.3-1.4,0.5C915.7,535.9,914.5,536,913.3,536.1z"/>
		<path class="st20" d="M891,511.6c0-0.2,0-0.5,0-0.7c0.2,0,0.3,0,0.5,0c0.2,0.4,0.3,0.9,0.5,1.2c1.8,2.5,3,5.5,5.6,7.5
			c1.9,1.4,3.8,2.2,6.1,1.3c2-0.8,3.2-2.4,3.5-4.5c0.5-3.2,0.9-6.4,1.2-9.6c0.4-4,2-7.4,4.7-10.2c3.1-3.3,7.1-5.3,11.4-6.4
			c1-0.3,2-0.5,2.9-0.4c2.9,0.4,5.8,0.9,8.7,1.5c1.8,0.3,3.7,0.9,5.5-0.1c0.9-0.5,1.9-1,2.7-1.8c0.7-0.7,1.4-1.7,1.6-2.7
			c0.4-2,0.5-4-0.9-5.8c-0.4-0.5-0.5-1.3-0.9-1.8c-0.7-1.1-1.2-2.4-2.2-3.2c-1.2-1.1-2.7-1.9-4.2-2.7c-3.6-2.1-7.6-2.9-11.7-3.2
			c-5.6-0.4-11,0.4-16.1,2.9c-4.5,2.1-8.5,4.8-11.2,9.1c-1.6,2.7-3,5.5-4.4,8.4c-1,2.2-1.7,4.5-2.5,6.7c-0.1,0.2-0.3,0.3-0.4,0.5
			c-0.1-0.2-0.2-0.5-0.2-0.7c0-0.2,0-0.5,0-0.7c0.2-0.9,0.5-1.8,0.5-2.7c-0.1-5.4,2.2-9.8,5.7-13.6c1.8-1.9,3.8-3.6,5.7-5.5
			c3.4-3.3,7.2-5.2,12.1-5.1c4.5,0.1,9,0,13.5,0c2.4,0,4.8,0.3,7.1,0.5c0.6,0.1,1.3,0.6,1.8,1c0.6,0.4,1,1,1.6,1.4
			c1.5,1.1,3.1,2.1,4.7,3.1c1,0.6,1.7,1.5,2,2.7c0.1,0.3,0.2,0.6,0.4,0.9c1,1.5,1.9,2.8,1.9,4.8c0,1.9,0.7,3.7-1.2,5.1
			c-1.1,0.9-2,2.2-3.2,3c-1.4,0.9-3.1,1.2-4.5,2c-1.3,0.8-2.5,0.6-3.9,0.2c-3.7-1.2-7.6-1.8-11.4-0.5c-1.9,0.6-3.7,1.5-5.4,2.5
			c-2.9,1.7-5.1,3.9-6.6,7c-1.3,2.8-1.4,5.7-1.7,8.6c-0.1,1.9-0.2,3.7-0.5,5.6c-0.1,0.7-0.7,1.4-1.2,1.9c-1.9,1.8-4,3.4-6.4,4.7
			c-1.2,0.7-2.2,0.7-3.3,0.3c-0.4-0.1-0.8-0.3-1.2-0.6c-0.7-0.4-0.9-0.1-0.9,0.6c-0.2,0-0.5,0-0.7,0c-0.4-0.4-0.8-0.8-1.2-1.2
			c-0.6-0.9-1.3-1.8-1.9-3.4c-0.4,0.8,0.5,0.8,1.4,0.8c-0.4-0.4-0.7-0.9-1.4-0.8c-0.6,0.2-1.2-0.4-1.7-1c0.8,0,1-0.4,0.8-1.1
			c-0.3-1.2-0.3-2.5-0.6-3.7C891.6,512.9,891.2,512.3,891,511.6z"/>
		<path class="st21" d="M897,523.9c0-0.7,0.2-1,0.9-0.6c0.4,0.2,0.8,0.4,1.2,0.6c1.2,0.4,2.1,0.4,3.3-0.3c2.4-1.3,4.5-2.8,6.4-4.7
			c0.5-0.5,1.1-1.2,1.2-1.9c0.3-1.8,0.4-3.7,0.5-5.6c0.2-2.9,0.4-5.9,1.7-8.6c1.4-3.1,3.7-5.4,6.6-7c1.7-1,3.5-1.9,5.4-2.5
			c3.8-1.2,7.6-0.7,11.4,0.5c1.3,0.4,2.5,0.6,3.9-0.2c1.4-0.9,3.1-1.2,4.5-2c1.2-0.8,2-2.1,3.2-3c1.9-1.5,1.2-3.2,1.2-5.1
			c0-2-0.9-3.4-1.9-4.8c-0.2-0.3-0.3-0.6-0.4-0.9c-0.3-1.2-1-2.1-2-2.7c-1.6-1-3.2-2-4.7-3.1c-0.6-0.4-1-1-1.6-1.4
			c-0.6-0.4-1.2-0.9-1.8-1c-2.4-0.3-4.8-0.5-7.1-0.5c-4.5-0.1-9,0.1-13.5,0c-4.8-0.1-8.7,1.8-12.1,5.1c-1.9,1.8-3.9,3.6-5.7,5.5
			c-3.5,3.8-5.8,8.2-5.7,13.6c0,0.9-0.3,1.8-0.5,2.7c0.1-2.5,0.2-5,0.2-7.6c0-3.4,1.5-5.9,4.1-8c0.8-0.6,1.3-1.5,1.9-2.2
			c0.2-0.3,0.3-0.6,0.5-1c0.5-0.3,1-0.6,1.4-1c0.6-0.6,1.3-1.1,1.9-1.7c0.4-0.4,0.8-0.8,1.2-1.2c0.5-0.4,1-0.8,1.4-1.2
			c0.2-0.2,0.3-0.3,0.5-0.5c0.9-0.6,1.8-1.3,2.6-1.9c0.2-0.2,0.5-0.5,0.7-0.7c2-0.2,4-0.3,6-0.5c0.2,0,0.4-0.4,0.7-0.7
			c1.9,0,3.7-0.1,5.6-0.1c2.3,0,4.6,0,6.8,0.1c0.1,0.6,0.4,0.8,1,0.5c1.9,0,3.8,0,5.8,0c0.5,0.2,0.9,0.4,1.4,0.5
			c1.4,0.1,2.6,0.4,3.6,1.7c0.7,1,1.9,1.6,2.9,2.2c2.5,1.4,4.9,3.1,6.5,5.4c1.7,2.6,2.9,5.5,2.6,8.8c0,0.4-0.3,0.9-0.6,1.1
			c-1.6,1.4-3.2,2.8-5,4c-2.2,1.5-4.6,2.7-6.9,4c-0.4,0.2-1,0.3-1.5,0.2c-1.4-0.3-2.9-0.7-4.3-1.1c-4.6-1.1-8.8-0.1-12.8,2.4
			c-4.8,3-7.1,7.4-7.1,13c0,2.2-0.3,4.4-0.5,6.5c0,0.4-0.3,1-0.6,1.3c-1.7,1.6-3.4,3.1-5.2,4.5c-1.4,1.1-3,1.9-4.5,2.7
			c-1,0.6-1.4,1.2-0.7,2.3c0.1,0.2,0,0.6,0,0.9c-0.9-0.9-1.8-1.8-2.6-2.6C898.1,525.3,897.5,524.6,897,523.9z"/>
		<path class="st5" d="M925.3,536.3c0.2-0.1,0.5-0.2,0.7-0.2c0.2,0,0.3,0,0.5,0c0.5,0,1,0,1.4,0c0.7,0,1.4,0,2.2,0
			c0.7,0,1.4,0,2.2,0c0.6-0.1,1.3-0.2,1.9-0.2c0.3,0,0.6,0,1,0c0.2-0.1,0.5-0.2,0.7-0.2c0.4-0.2,0.8-0.3,1.2-0.5
			c0.4-0.2,1-0.2,1.3-0.5c1.5-1.2,2.9-2.5,4.3-3.8c2.1-2,4.1-4,6.1-6.1c2.4-2.4,4.7-4.8,7-7.3c0.3-0.3,0.3-0.7,0.5-1c0,0,0,0,0,0
			c0.1,0,0.2,0,0.2,0c0.2-0.1,0.3-0.2,0.5-0.2c0.4-0.1,0.8-0.3,1.3-0.4c1.1-0.2,1.8,0.5,1.5,1.6c-0.1,0.5-0.4,1-0.7,1.4
			c-1.7,1.9-3.3,3.7-5.1,5.5c-1.6,1.5-3.3,2.8-4.9,4.3c-3.5,3.3-6.8,6.7-10.3,10c-0.4,0.4-0.9,0.6-1.4,0.8c0.2-0.4,0.4-0.8,0.6-1.2
			c0.4-1.2-0.4-2.3-1.7-2.1c-2.2,0.3-4.5,0.5-6.7,0.7c-1.7,0.1-3.5,0.2-5.2,0.3c-3.2,0.2-6.3,0.5-9.5,0.6c-1.1,0-2.2-0.3-3.3-0.4
			c-1.3-0.2-1.9,0.2-2.1,1.4c-0.5,0-1,0-1.9,0c0.4-0.6,0.6-1.1,0.9-1.3c1-0.4,2.1-0.8,3.2-0.8c2-0.1,4.1,0,6.1,0.2
			c2.3,0.2,4.6,0.2,6.9-0.3C924.7,536.5,925,536.4,925.3,536.3z"/>
		<path class="st15" d="M909.2,538.7c0.2-1.2,0.8-1.6,2.1-1.4c1.1,0.1,2.2,0.5,3.3,0.4c3.2-0.1,6.3-0.4,9.5-0.6
			c1.7-0.1,3.5-0.2,5.2-0.3c2.2-0.2,4.5-0.4,6.7-0.7c1.3-0.1,2.1,0.9,1.7,2.1c-0.1,0.4-0.4,0.8-0.6,1.2c-0.2,0.1-0.3,0.2-0.5,0.3
			c-0.2,0-0.3,0-0.5,0c-0.7-0.2-1.3-0.4-2-0.6c-0.3,0-0.6-0.1-0.9-0.1c-0.9-0.7-1.9-0.5-2.9-0.1c-0.7,0.1-1.4,0.1-2.1,0.2
			c-0.2,0-0.3-0.1-0.5-0.1c-0.7,0.1-1.4,0.1-2.2,0.2c-0.8,0-1.5,0.1-2.3,0.1c-4.8,0-9.5,0-14.3,0.1c0,0,0-0.1,0-0.1
			C909.2,539,909.2,538.9,909.2,538.7z"/>
		<path class="st22" d="M902.3,529.6c1.1,1.2,2.2,2.5,3.4,3.6c1.1,1.1,2.4,2.1,3.6,3.1c-0.9,0.5-1.9,0.3-2.5-0.5
			C905.2,533.8,903.7,531.7,902.3,529.6z"/>
		<path class="st22" d="M893.1,520c0.6,0.9,1.3,1.8,1.9,2.6c-1.3-1.3-2.6-2.6-4-3.8c-0.7-0.7-1.6-1.1-2.5-1.7c0.3-0.2,0.6-0.3,1-0.5
			c0.2,0,0.5,0,0.7,0c0.4,0.6,0.8,1.1,1.2,1.7C892,518.9,892.6,519.5,893.1,520z"/>
		<path class="st22" d="M897,523.9c0.6,0.7,1.1,1.4,1.7,2.2c-0.8-0.7-1.6-1.4-2.4-2.2C896.5,523.9,896.7,523.9,897,523.9z"/>
		<path class="st22" d="M887.9,518.1c0.2-0.2,0.3-0.5,0.5-0.7C888.2,517.6,888,517.9,887.9,518.1z"/>
		<path class="st16" d="M927.2,467.8c-2.3,0-4.6-0.1-6.8-0.1c-1.9,0-3.7,0-5.6,0.1c-1.5,0-2.9,0-4.4,0c-0.5,0-1.1,0.1-1.6,0.2
			c-0.1-0.2-0.2-0.3-0.2-0.5c-0.5-0.6-1-1.3-1.4-1.9c2.1,1.3,4.3,1.3,6.7,1c2.9-0.3,5.8-0.1,8.7-0.2c4.7,0,9.4,0,14.1-0.1
			c1.1,0,2.4,0.1,2.9-1.3c0.7,1.4-0.4,1.9-1.2,2.6c-0.5,0.1-1,0.2-1.4,0.2c-0.7,0-1.4,0-2.2,0c-0.4-0.1-0.8-0.2-1.3-0.2
			c-1.7,0-3.5,0-5.2,0C927.8,467.8,927.5,467.8,927.2,467.8z"/>
		<path class="st13" d="M936.8,468c0.5-0.1,1-0.2,1.4-0.2c0.7,0.9,1.4,1.7,2.1,2.6c0.1,0.1,0.3,0.3,0.5,0.4c3.5,1.2,5.8,3.9,8.7,6
			c1.8,1.4,3.7,2.7,5.6,4c1.4,1,2.8,1.9,4.2,2.8c0,0.2,0,0.3,0,0.5c-0.2,0-0.3,0-0.5,0c-0.1,0-0.2,0-0.2,0c-0.4-0.3-0.7-0.8-1.1-1
			c-4-1.4-7-4.3-10.1-7c-1.7-1.5-3.7-2.7-5.6-4c-0.9-0.7-1.9-1.4-2.7-2.3C938.4,469,937.8,468.2,936.8,468z"/>
		<path class="st3" d="M908.2,610.6c0.3,0.1,0.6,0.2,1,0.2c-0.4,0.2-0.9,0.3-1.3,0.5c-1.1,0.7-1.2,1.7-0.8,2.8
			c-1.8-1.6-3.7-3.2-5.4-4.8c-4-3.8-8-7.5-12-11.3c-0.6-0.6-1.1-1.3-1.5-2c-0.6-1.1-0.2-2.1,0.8-2.6c0.3-0.1,0.8-0.1,1,0.1
			c0.9,0.8,1.7,1.7,2.6,2.6c2,1.9,4.1,3.7,6.1,5.6c2,1.9,3.8,3.9,5.8,5.7C905.7,608.5,907,609.5,908.2,610.6z"/>
		<path class="st2" d="M911.6,611.1c1.1-0.1,2.1-0.2,3.2-0.2c3.4,0,6.8,0.2,10.3,0.2c3.8,0,7.6-0.1,11.5-0.3c0.9,0,1.8-0.7,2.7-1.1
			c-0.3,1.1-1.3,1.5-2.3,1.6c-2.2,0.2-4.4,0.4-6.7,0.5c-2.5,0.2-5,0.3-7.5,0.4C919,612.4,915.2,612.1,911.6,611.1z"/>
		<path class="st2" d="M939.9,608.9c1.6-1.6,3.2-3.2,4.9-4.7c2.3-2.1,4.7-4.2,7-6.3c1.7-1.5,3.4-2.9,5.1-4.3c-0.8,1-1.4,2-2.3,2.8
			c-2.5,2.3-5.1,4.6-7.6,6.8c-2,1.7-3.9,3.4-5.9,5.1C940.7,608.6,940.3,608.8,939.9,608.9z"/>
		<path class="st2" d="M909.7,610.9c0.2,0,0.5,0,0.7,0C910.2,611.4,909.9,611.4,909.7,610.9z"/>
		<path class="st22" d="M959.3,485c1.3,3.4,0.5,7,0.7,10.5c0,1.3,0,2.6,0,3.8c-0.1,0.3-0.2,0.7-0.2,1c0.1,2.1,0.2,4.3,0.2,6.4
			c0,0.2,0,0.5,0,0.7c0,1.1,0,2.2,0,3.4c0.1,0.9,0.1,1.7,0.2,2.6c-1,0.4-0.4,1.3-0.5,1.9c-0.2-0.5-0.6-1.1-0.7-1.6
			c-0.2-0.8-0.2-1.6-0.3-2.5c-0.1,0-0.3,0-0.4,0c-0.1,0.5-0.2,1-0.3,1.4c-0.3,1,0,2.2-1.2,2.9c0.3-2.9,0.6-5.8,0.7-8.7
			c0.1-3.2,0.1-6.5-0.2-9.7c-0.4-3.7-1-7.3,0-11c0.2-0.7,0.3-1.4,1.2-1.3C958.8,485,959,485,959.3,485z"/>
		<path class="st7" d="M960.2,513.6c-0.1-0.9-0.1-1.7-0.2-2.6c0.7-0.8,0.7-2.5,0-3.4c0-0.2,0-0.5,0-0.7c0.1-0.5,0.4-0.9,0.4-1.4
			c0-1.5-0.1-3-0.2-4.5c0-0.5-0.2-1.1-0.2-1.6c0-1.3,0-2.6,0-3.8c0.3,0.5,0.6,1,0.9,1.4c0.1,0,0.2,0,0.3,0c0.2-1.3,0.4-2.7,0.5-4
			c0.3-2.5,0.5-5.1,0.8-7.6c0.1-0.5,0.4-1.1,0.8-1.4c3.9-3.2,7.9-6.4,11.9-9.6c2.6-2.1,5.3-4.2,8-6.2c0.4-0.3,1.1-0.4,1.6-0.6
			c0,0.2,0,0.3,0,0.5c-0.2,0.1-0.5,0.2-0.7,0.2c-0.2,0.1-0.5,0.2-0.7,0.4c-3,2.4-6.1,4.8-9.1,7.3c-3.3,2.8-6.7,5.6-9.9,8.4
			c-0.4,0.4-0.6,1.1-0.8,1.6c0,0.1,0,0.2,0,0.2c-0.2,0.5-0.6,1.1-0.7,1.6c-0.2,2.7-0.5,5.4-0.5,8.1c-0.1,5.4,0,10.7,0,16.1
			c0,1.4-0.1,2.8-0.2,4.2c-1.5,0.1-1.7-0.1-1.7-1.6C960.2,514.3,960.2,513.9,960.2,513.6z"/>
		<path class="st18" d="M959.3,485c-0.2,0-0.5,0-0.7,0c0.1-0.3,0.2-0.6,0.2-1c0.2,0,0.3,0,0.5,0C959.3,484.4,959.3,484.7,959.3,485z
			"/>
		<path class="st7" d="M908.5,467.6c0.1,0.2,0.2,0.3,0.2,0.5c-0.2,0.3-0.5,0.6-0.7,1c-0.2,0.2-0.5,0.5-0.7,0.7
			c-0.9,0.6-1.8,1.3-2.6,1.9c-0.2,0.2-0.3,0.3-0.5,0.5c-0.5,0.4-1,0.8-1.4,1.2c-0.4,0.4-0.8,0.8-1.2,1.2c-0.6,0.6-1.3,1.1-1.9,1.7
			c-0.5,0.3-1,0.6-1.4,1c-0.8,0.6-1.7,1.1-2.5,1.7c-0.4,0.2-0.7,0.5-1.1,0.7c0.8-0.8,1.5-1.7,2.4-2.5c3.5-3,7-6,10.5-9
			C907.7,467.8,908.1,467.7,908.5,467.6z"/>
		<path class="st7" d="M894.1,480c-0.5,0.4-1,0.8-1.4,1.2C893.1,480.8,893.6,480.4,894.1,480z"/>
		<path class="st18" d="M987.1,610.8c-0.5-0.2-0.9-0.5-1.4-0.4c-1.2,0.1-2-0.4-2.9-1.2c-2.9-2.8-5.9-5.5-8.7-8.3
			c-2-1.9-3.8-4-5.6-6.1c-0.8-0.9-0.9-1.9-0.1-2.8c1-1.1,2-2.3,3.1-3.3c1.4-1.4,3.3-1.7,5.2-1.7c2-0.1,4,0,6,0
			c1.1,1.3,1.5,1.4,3.1,0.8c0.3-0.1,0.8-0.1,1.1,0c2.7,1.8,5.6,2.5,8.8,2.7c4.3,0.2,8.5,0.1,12.1-2.7c3.4-2.7,5-6,4.8-10.3
			c-0.3-4.2,0.4-8.1,3.7-11.2c3.6-3.4,9.2-4.1,13.3-1.3c0.5,0.4,0.8,1.1,1.2,1.7c0.3,0.5,0.4,1,0.7,1.4c0.9,5.5,0.9,11.1,0.5,16.6
			c-0.1,1.3,0,2.6,0,3.9c0,1.4-0.2,2.8-1.3,3.9c-0.2,0.2-0.3,0.6-0.4,1c-0.4,0.4-0.8,0.8-1.2,1.2c-0.2,0.1-0.5,0.2-0.6,0.3
			c-1.8,1.8-3.6,3.5-5.3,5.4c-0.5,0.6-0.9,1.3-1.3,2c-0.1,0.1-0.2,0.2-0.2,0.2c-0.5,0.2-1,0.5-1.4,0.7c-0.2,0.3-0.5,0.6-0.7,1
			c-1.8,1.7-3.7,3.3-5.5,5c-0.1,0.1-0.2,0.4-0.2,0.5c-0.1,0.1-0.2,0.2-0.2,0.2c-1.1,0.2-2.2,0.3-3.4,0.5c-2.9,0.2-5.7,0.3-8.6,0.5
			c-0.6,0-1.3,0-1.9,0c-2.6,0-5.1,0-7.7,0c-0.2,0-0.3,0-0.5,0c-0.6,0-1.1,0-1.7,0c-0.2-0.5-0.5-0.5-0.7,0
			C988.4,610.8,987.7,610.8,987.1,610.8z M1031.1,580.4c0,0-0.1,0-0.1,0c0-0.9,0-1.8,0-2.8c0-2.5-0.6-4.8-2.3-6.6
			c-1.5-1.7-3.3-2.7-5.7-2.3c-2.5,0.4-4.1,2-4.7,4.4c-0.3,1.2-0.4,2.5-0.5,3.8c-0.1,1.7,0.2,3.4-0.2,5c-1.9,7.3-6.7,11.7-13.9,13.5
			c-3.1,0.8-6.3,0.6-9.5,0.3c-3.7-0.4-7.2-1.3-10.3-3.5c-0.8-0.6-1.7-1-2.7-1.4c-2.4-0.8-4.9-1.5-7.4,0c-2.8,1.7-3.4,5.4-1.1,7.7
			c2.2,2.2,4.4,4.3,6.6,6.4c1.4,1.3,3,2.5,5,3c4.2,1.1,8.5,1.6,12.8,1.7c3.2,0.1,6.5-0.3,9.8-0.7c3.7-0.5,7.1-1.9,10.1-4.1
			c3.2-2.4,6.2-5.3,8.7-8.4c2.2-2.7,4.3-5.5,4.8-9.1C1030.8,584.8,1030.9,582.6,1031.1,580.4z"/>
		<path class="st8" d="M1020.1,603.2c0.5-0.2,1-0.5,1.4-0.7c-0.2,0.3-0.3,0.7-0.5,0.9c-2.3,2.1-4.6,4.1-6.9,6.1
			c-0.1,0.1-0.3,0.1-0.4,0.2c0.1-0.2,0.1-0.4,0.2-0.5c1.8-1.7,3.7-3.3,5.5-5C1019.7,603.8,1019.9,603.5,1020.1,603.2z"/>
		<path class="st8" d="M1021.8,602.2c0.4-0.7,0.8-1.4,1.3-2c1.7-1.8,3.5-3.6,5.3-5.4c0.2-0.2,0.4-0.2,0.6-0.3
			c-0.1,0.2-0.1,0.4-0.2,0.5C1026.5,597.5,1024.1,599.8,1021.8,602.2z"/>
		<path class="st22" d="M1010.1,610.4c1.1-0.2,2.2-0.3,3.4-0.5c-0.1,0.2-0.2,0.5-0.2,0.7c-0.1,0-0.2,0-0.2,0
			C1012,610.5,1011,610.5,1010.1,610.4z"/>
		<path class="st19" d="M1023.5,522.4c-0.1,0.1-0.2,0.2-0.2,0.2c-0.8-0.5-1.2,0-1.4,0.7c-0.6,0.5-1.1,1-1.7,1.4
			c-0.3,0.1-0.7,0.2-1,0.4c-1.2,1-2.3,2-3.5,2.9c-2.4,1.8-4.6,4.3-7.7,4.8c-2.9,0.5-5.8,0.8-8.6,0.9c-4.8,0.1-9.7,0.1-14.5,0
			c-0.5,0-1.1-0.1-1.5-0.4c-1.6-1.3-3.2-2.7-4.7-4.1c-1-1-1.3-2.2-0.9-3.6c0.6-2.3,3.8-4.7,6.2-4.8c0.9,0,1.8,0,2.8,0
			c4.5,0,9,0.2,13.5-0.7c10.2-2.1,16.9-8,19.8-18c0.5-1.8,0.8-3.6,1.4-5.3c1.1-3.5,2.8-4.6,6.4-4.5c1.2,0,2,0.6,2.3,1.7
			c0.4,1.6,1,3.3,1,5c0.1,4.2-0.3,8.4-1.2,12.6c-0.7,3.1-1.8,5.7-4.2,7.8c-0.7,0.6-1.3,1.5-1.9,2.2
			C1023.7,521.9,1023.6,522.2,1023.5,522.4z"/>
		<path class="st18" d="M1023.7,521.7c0.6-0.8,1.2-1.6,1.9-2.2c2.4-2.1,3.5-4.7,4.2-7.8c1-4.2,1.3-8.3,1.2-12.6c0-1.7-0.5-3.4-1-5
			c-0.3-1.1-1.1-1.6-2.3-1.7c-3.6-0.1-5.3,1-6.4,4.5c-0.6,1.7-0.9,3.6-1.4,5.3c-3,10-9.7,15.9-19.8,18c-4.5,0.9-9,0.7-13.5,0.7
			c-0.9,0-1.8,0-2.8,0c-2.4,0.1-5.5,2.5-6.2,4.8c-0.4,1.4-0.1,2.7,0.9,3.6c1.5,1.4,3.1,2.8,4.7,4.1c0.4,0.3,1,0.3,1.5,0.4
			c4.8,0,9.7,0.1,14.5,0c2.9-0.1,5.8-0.5,8.6-0.9c3.2-0.5,5.3-3,7.7-4.8c1.2-0.9,2.3-2,3.5-2.9c0.3-0.2,0.6-0.3,1-0.4l0,0
			c-0.1,0.2-0.2,0.3-0.2,0.5c-1,0.9-1.9,1.8-2.9,2.6c-0.2,0.2-0.5,0.5-0.7,0.7c-0.2,0.1-0.3,0.2-0.5,0.2c-0.2,0.2-0.5,0.5-0.7,0.7
			c-0.2,0.2-0.5,0.5-0.7,0.7c-1.3,0.3-2,1.3-2.6,2.4c-0.4,0.4-0.8,0.8-1.2,1.2c-0.2,0.2-0.3,0.3-0.5,0.5c0,0,0,0,0,0
			c-1,0.1-1.9,0.2-2.9,0.2c-4.2,0-8.4,0-12.6,0c-1.6,0-3.2-0.2-4.7-0.2c-2.4,0.1-4.7,0.3-7.1,0.4c-0.1-0.2-0.2-0.3-0.2-0.5
			c-0.4-0.4-0.7-0.8-1.1-1.1c-2.8-1.9-4.7-4.6-6.3-7.5c-0.3-0.5-0.3-1.4,0-1.8c1.4-1.8,3-3.5,4.5-5.2c0.8-0.5,2-0.8,2.4-1.5
			c0.8-1.5,1.9-1.7,3.3-1.7c3.5,0,6.9,0.1,10.4,0c4.7-0.2,9.1-1.4,12.8-4.5c3.8-3.1,6.2-7,7-11.9c0.3-1.6,0.8-3.3,1.8-4.6
			c1.1-1.5,2.9-2.6,4.3-3.9c0.9-0.8,1.5-1.9,2.4-2.8c0.5-0.5,1-1,1.6-1.2c0.7-0.3,1.3-0.1,1.4,0.8c0,0.3,0.5,0.7,0.8,0.8
			c0.9,0.4,1.8,0.7,2.8,1c0.4,1.9,0.6,3.8,1.1,5.7c0.7,3.1,1.1,6.2,0.6,9.3c-0.3,2.5-0.4,5.1-0.9,7.6c-0.3,1.8-1.2,3.4-1.8,5.1
			c0,0,0,0,0,0c-2.1,1-3.7,2.6-5,4.6c-0.1,0-0.2,0-0.2,0C1024.1,521.7,1023.9,521.7,1023.7,521.7z"/>
		<path class="st5" d="M1009.8,534.9c0.4-0.1,0.9-0.2,1.2-0.4c2.5-1.7,5-3.4,7.4-5.3c1.6-1.2,2.9-2.7,4.3-4.1
			c2.6-2.6,5.1-5.2,7.8-7.7c0.4-0.4,1.4-0.5,1.9-0.3c0.8,0.4,0.9,1.3,0.3,2.1c-1.3,1.6-2.6,3.2-4,4.7c-1.1,1.2-2.3,2.3-3.4,3.5
			c-3.1,3-6.3,5.9-9.5,8.9c-0.7,0.7-1.4,1.4-2.1,2.1c-0.6,0-1.1,0-1.7,0c0.1-0.6,0.5-1.3,0.3-1.8c-0.4-1.1-1.3-1.2-2.5-0.8
			c-0.9,0.3-1.8,0.6-2.7,0.6c-2.8,0-5.6-0.2-8.3-0.1c-3.4,0.1-6.7,0.3-10.1,0.4c-1.1,0-2.3-0.2-3.4-0.2c-1.4,0-1.6,0.2-1.7,1.7
			c-0.8-0.2-0.8-0.8-0.6-1.4c0.2-0.9,1-1,1.7-1c5.9-0.1,11.8-0.2,17.7-0.2c1.3,0,2.6,0,3.9,0c0.4,0,0.8-0.3,1.2-0.5
			c0.2,0,0.5,0,0.7,0c0.2,0.5,0.5,0.5,0.7,0C1009.2,534.9,1009.5,534.9,1009.8,534.9z"/>
		<path class="st13" d="M1012,538.2c0.6,0,1.1,0,1.7,0c0.2,0.1,0.5,0.2,0.7,0.2c0.2,0.2,0.3,0.4,0.5,0.6c4.8,3.7,9.6,7.4,14.5,11.1
			c1.2,0.9,2.5,1.9,3.6,2.9c0.9,0.8,1.2,1.9,0.8,3c-0.9,0.3-1.8,0.6-2.6,1c-1.3,0.2-2.1-0.7-2.9-1.4c-4.8-3.9-9.5-7.8-14.2-11.8
			c-1.5-1.3-3.2-0.8-4.9-0.8c-0.9,0-1.8,0-2.6,0c-0.2-0.1-0.3-0.2-0.5-0.2c-7.8-0.4-15.7,0.2-23.5,0.5c-1.6-0.1-2,1.3-2.9,2.2
			c-0.2,0.2-0.5,0.5-0.7,0.7c-0.5,0.4-1,0.8-1.4,1.2c-3.9,4-7.8,8.1-11.7,12.1c-1,1-1.9,2-2,3.5c-0.1-0.2-0.2-0.3-0.2-0.5
			c-0.1-1.2,0.2-2.2,1.3-2.9c0.4-0.2,0.6-0.6,0.9-1c0.2-0.2,0.3-0.5,0.5-0.7c0.1-0.2,0.2-0.3,0.2-0.5c0.2-0.2,0.3-0.3,0.5-0.5
			c0.8-0.9,1.5-1.9,2.3-2.7c1.6-1.7,3.3-3.3,4.9-5c0.3-0.3,0.6-0.6,1-1c1.6-1.3,3.1-2.6,4.7-3.9c0.3-0.2,0.3-0.7,0.4-1.1
			c0.4-0.2,0.8-0.4,1.2-0.5c1.7-0.2,3.4-0.4,5.1-0.5c3.1-0.2,6.2-0.3,9.3-0.5c0.4,0,0.8-0.2,1.2-0.2c0.2,0,0.3,0,0.5,0
			c0.4,0,0.8,0,1.2,0c1-0.1,2.1-0.2,3.1-0.2c0.2,0.2,0.4,0.4,0.6,0.4c1.8,0.3,3.6,0.6,5.4,0.7c0.6,0,1.3-0.4,1.9-0.6
			c0.2,0,0.5,0,0.7,0c0.6-0.1,1.1-0.2,0.7-1c0-0.2,0-0.5,0-0.7c0-0.7,0-1.3,0-2c0.2,0,0.3-0.1,0.5-0.1
			C1011.7,538.3,1011.8,538.3,1012,538.2L1012,538.2z M1030.9,556.4c0.7-0.5,1.4-0.8,1.8-1.4c0.2-0.2-0.3-1.1-0.7-1.4
			c-1.9-1.8-3.8-3.5-5.8-5.2c-2.7-2.2-5.5-4.2-8.2-6.4c-1.2-1-2.3-1.2-3.5-0.4c-0.3,0.2-0.9,0.5-0.9,0.8c0,0.3,0.4,0.7,0.7,1
			c1.5,1.2,3.1,2.2,4.6,3.4c3.4,2.8,6.7,5.7,10.1,8.6C1029.5,555.8,1030.2,556,1030.9,556.4z"/>
		<path class="st9" d="M1024.5,521.7c1.3-1.9,2.9-3.5,5-4.6c-0.9,0.8-1.7,1.7-2.6,2.5C1026.1,520.4,1025.3,521,1024.5,521.7z"/>
		<path class="st9" d="M1011.8,532.7c0.6-1.1,1.3-2.1,2.6-2.4C1013.5,531.1,1012.6,531.9,1011.8,532.7z"/>
		<path class="st18" d="M1020.1,524.8c0.6-0.5,1.1-1,1.7-1.4l0,0c0,0.2,0,0.3,0,0.5c-0.4,0.3-0.8,0.6-1.2,1
			C1020.5,524.8,1020.3,524.8,1020.1,524.8L1020.1,524.8z"/>
		<path class="st9" d="M1008.2,534.9c-0.2,0-0.5,0-0.7,0c-0.1-0.1-0.2-0.2-0.2-0.2c1-0.1,1.9-0.2,2.9-0.2c-0.1,0.2-0.2,0.3-0.2,0.5
			c-0.3,0-0.6,0-1,0C1008.6,534.9,1008.4,534.9,1008.2,534.9z"/>
		<path class="st18" d="M1021.8,523.4c0.2-0.7,0.6-1.2,1.4-0.7c-0.3,0.2-0.6,0.5-1,0.7C1022.1,523.4,1022,523.4,1021.8,523.4
			L1021.8,523.4z"/>
		<path class="st9" d="M1023.7,521.7c0.2,0,0.3,0,0.5,0c-0.2,0.2-0.5,0.5-0.7,0.7C1023.6,522.2,1023.7,521.9,1023.7,521.7z"/>
		<path class="st9" d="M1015.1,529.6c0.2-0.2,0.5-0.5,0.7-0.7C1015.6,529.1,1015.4,529.4,1015.1,529.6z"/>
		<path class="st9" d="M1016.3,528.7c0.2-0.2,0.5-0.5,0.7-0.7C1016.8,528.2,1016.6,528.4,1016.3,528.7z"/>
		<path class="st9" d="M1020.1,524.8c0.2,0,0.3,0,0.5,0c-0.2,0.2-0.5,0.3-0.7,0.5C1020,525.1,1020.1,525,1020.1,524.8z"/>
		<path class="st9" d="M1010.1,534.4c0.2-0.2,0.3-0.3,0.5-0.5C1010.4,534.1,1010.2,534.2,1010.1,534.4z"/>
		<path class="st9" d="M1021.8,523.4c0.2,0,0.3,0,0.5,0c-0.2,0.2-0.3,0.3-0.5,0.5C1021.8,523.7,1021.8,523.5,1021.8,523.4z"/>
		<path class="st0" d="M1031.4,568c-0.2-0.5-0.4-1-0.7-1.4c-0.3-0.6-0.6-1.3-1.2-1.7c-4.1-2.7-9.7-2.1-13.3,1.3
			c-3.3,3.1-4,7-3.7,11.2c0.3,4.4-1.4,7.7-4.8,10.3c-3.6,2.8-7.8,3-12.1,2.7c-3.2-0.2-6.1-0.9-8.8-2.7c-0.3-0.2-0.8-0.2-1.1,0
			c-1.6,0.6-2,0.5-3.1-0.8c1-0.2,2-0.3,3-0.6c0.4-0.1,1-0.4,1.2-0.8c1.1-2,2.2-4.1,3.1-6.2c1.3-3.4,3-6.5,5.5-9
			c2.9-2.9,6.2-5.2,10.6-5.1c1.3,0,2.7,0.2,4,0.5c2.7,0.5,5,0,7.4-1.3c3.9-2.1,5.9-5.3,5.9-9.6c0-0.6-0.1-1.2-0.2-1.8
			c1.3,1,2.5,2,3.8,2.9c1.2,0.8,2.4,1.6,3.7,2.4C1030.9,561.4,1031.2,564.7,1031.4,568z"/>
		<path class="st18" d="M1030.7,558.1c-1.2-0.8-2.5-1.5-3.7-2.4c-1.3-0.9-2.5-1.9-3.8-2.9c-3.3-2.9-6.6-5.7-10-8.6
			c-0.5-0.4-1.2-0.4-1.9-0.5c-0.8-0.2-1.5-0.3-2.3-0.5c1.7,0,3.4-0.5,4.9,0.8c4.7,4,9.5,7.8,14.2,11.8c0.8,0.7,1.7,1.5,2.9,1.4
			C1031,557.5,1030.8,557.8,1030.7,558.1z"/>
		<path class="st0" d="M1030.4,489.4c-0.9-0.3-1.9-0.6-2.8-1c-0.3-0.1-0.8-0.5-0.8-0.8c-0.1-1-0.7-1.2-1.4-0.8
			c-0.6,0.3-1.2,0.8-1.6,1.2c-0.8,0.9-1.5,1.9-2.4,2.8c-1.4,1.3-3.1,2.4-4.3,3.9c-1,1.3-1.5,3-1.8,4.6c-0.8,4.9-3.2,8.7-7,11.9
			c-3.7,3.1-8.1,4.3-12.8,4.5c-3.5,0.2-6.9,0-10.4,0c-1.4,0-2.5,0.2-3.3,1.7c-0.4,0.7-1.5,1-2.4,1.5c0.2-0.4,0.5-0.8,0.7-1.3
			c0.6-1.5,2.3-2.3,2.6-4c0.2-1.1,0.8-2.2,1.3-3.3c1.9-4.1,5.1-7.2,8.5-10.1c1.1-0.9,2.2-1.6,3.9-1.3c1.9,0.4,3.6-1,4.2-2.8
			c0.1-0.4,0.5-0.8,0.8-0.9c2.3-0.9,4.7-1.3,7.1-1.1c2.1,0.2,4.1,0.3,6.2,0.3c0.5,0,1.2-0.2,1.6-0.6c2.1-2.1,4.7-3.6,6.4-6.2
			c1-1.5,1.5-2.8,1.5-4.5c0-0.9-0.1-1.7-0.2-2.6c1.4,1.3,2.8,2.6,4.8,3.1c0.1,0.3,0.1,0.7,0.3,0.9
			C1030.5,485.9,1030.5,487.6,1030.4,489.4z"/>
		<path class="st18" d="M1029,483.6c-2-0.5-3.4-1.8-4.8-3.1c-0.4-0.3-0.8-0.6-1.2-1c-2.9-2.9-5.8-5.7-8.8-8.6
			c-0.9-0.9-1.9-1.9-2.8-2.9c1.6,1.2,3.3,2.4,4.8,3.7c1.9,1.7,3.7,3.5,5.5,5.3c1.7,1.6,3.4,3.1,5.1,4.6c1.4,1.2,3.2,1.3,4.9,1.5
			C1031.1,484.2,1030,483.5,1029,483.6z"/>
		<path class="st13" d="M909.4,543.5c-4,4.4-8.5,8.2-13.1,12c-2,1.6-3.6,3.6-5.3,5.5c-0.5,0.6-0.9,1.6-0.9,2.4
			c-0.3,3.7-0.4,7.4-0.5,11.1c-0.1,3.7-0.2,7.5-0.3,11.2c-0.1,2.1-0.2,4.2-0.2,6.3c-0.3,0.2-0.6,0.5-1,0.7c1.2-1.9,0.4-3.9,0.4-5.8
			c0.1-4.3,0.1-8.5,0.2-12.8c0-0.7,0-1.4,0.1-2.1c0.1-2.6,0.2-5.2,0.5-7.7c0.3-2.3,1.2-4.4,3-6c3.2-2.8,6.4-5.6,9.6-8.4
			c2.1-1.8,4.5-3.3,6-5.8c0.2-0.3,0.7-0.5,1-0.8C909.1,543.4,909.3,543.4,909.4,543.5z"/>
		<path class="st20" d="M1011.5,468c0.9,1,1.8,1.9,2.8,2.9c2.9,2.9,5.8,5.7,8.8,8.6c0.4,0.4,0.8,0.7,1.2,1c0.1,0.9,0.2,1.7,0.2,2.6
			c0,1.7-0.6,3-1.5,4.5c-1.7,2.6-4.3,4.1-6.4,6.2c-0.4,0.4-1.1,0.6-1.6,0.6c-2.1,0-4.1-0.1-6.2-0.3c-2.5-0.2-4.8,0.1-7.1,1.1
			c-0.3,0.1-0.7,0.6-0.8,0.9c-0.6,1.8-2.3,3.2-4.2,2.8c-1.7-0.4-2.8,0.4-3.9,1.3c-3.4,2.9-6.5,6-8.5,10.1c-0.5,1.1-1.1,2.2-1.3,3.3
			c-0.3,1.8-2,2.5-2.6,4c-0.2,0.4-0.4,0.8-0.7,1.3c-1.5,1.7-3.1,3.4-4.5,5.2c-0.3,0.4-0.3,1.3,0,1.8c1.6,2.9,3.5,5.6,6.3,7.5
			c0.4,0.3,0.7,0.7,1.1,1.1c-0.1,0.1-0.2,0.2-0.2,0.2c-0.2,0-0.3,0-0.5,0c-0.3-0.2-0.6-0.5-1-0.7c-0.1,0-0.2,0-0.2,0
			c-0.3-0.3-0.6-0.6-1-1c-0.1,0-0.2,0-0.2,0c-0.8-0.8-1.6-1.6-2.4-2.4c-0.1-0.3-0.2-0.6-0.3-0.9c-1.1-1.9-2.3-3.8-3.5-5.7
			c-0.6-1-0.4-1.6,0.4-2.4c2.5-2.4,4.2-5.2,5.3-8.5c0.8-2.4,1.8-4.7,3-6.9c1.8-3.3,4.3-6,7.2-8.4c1.1-0.9,2.3-2,3.7-2.3
			c2.1-0.6,4-1.4,5.4-3.2c0.2-0.2,0.4-0.4,0.7-0.5c3.3-1.5,6.7-2.2,10.2-1.6c2.1,0.3,4.1,0.8,6.3,0.3c3.1-0.7,5.3-2.6,5.5-5.8
			c0.1-2.1-0.6-4.3-1-6.4c-0.1-0.4-0.3-0.9-0.7-1.3c-2-1.9-3.4-4.3-5.9-5.7c-2.1-1.2-4-2.7-6.5-2.7c-2.4-0.1-4.9-0.2-7.3-0.1
			c-3.8,0.1-7.5,0.3-11,1.9c-0.9,0.4-1.8,0.7-2.7,1.1c-4.3,1.6-8.2,3.9-11.3,7.2c-2.5,2.7-4.7,5.6-6.6,8.7
			c-2.2,3.5-3.7,7.3-3.4,11.6c0,0.4-0.3,0.7-0.5,1.1c0-1.9,0-3.8,0-5.8c0-0.2,0-0.3,0-0.5c0.1-1.2,0.2-2.5,0.3-3.7
			c0.1-1-0.1-2.2,0.4-3c1.4-2.3,2.9-4.6,5.4-6c0.9-0.5,1.5-1.6,2.3-2.4c0.1,0,0.2,0,0.2,0c0.2-0.2,0.3-0.3,0.5-0.5c0,0,0,0,0,0
			c0.2-0.2,0.5-0.3,0.7-0.5c0.1-0.1,0.2-0.2,0.2-0.2c0.2-0.2,0.5-0.3,0.7-0.5c0.1-0.1,0.2-0.2,0.2-0.2c0.3-0.2,0.6-0.5,1-0.7
			c0.6-0.6,1.1-1.3,1.7-1.9c0.2-0.1,0.3-0.2,0.5-0.2c0.2-0.2,0.5-0.3,0.7-0.5c0.2-0.2,0.5-0.3,0.7-0.5c0.1-0.1,0.2-0.2,0.2-0.2
			c0.3-0.2,0.6-0.5,1-0.7c0.3-0.2,0.6-0.5,1-0.7c0.1-0.1,0.2-0.2,0.2-0.2c0.3-0.1,0.7-0.2,1-0.4c1.7-1.5,3.5-2.5,5.9-2.3
			c0.3,0,0.7-0.4,1-0.7c1,0,2.1,0,3.1,0c0.1,0.1,0.1,0.2,0.2,0.3c0.1-0.1,0.2-0.2,0.3-0.3c2.1,0,4.2,0,6.2,0c0.5,0.1,1,0.2,1.5,0.2
			C1004.7,468,1008.1,468,1011.5,468z"/>
		<path class="st14" d="M1013.7,467.8c0.2-0.1,0.4-0.2,0.5-0.2c1.1,0,1.3-0.6,1-1.5c-0.1-0.2-0.1-0.5-0.1-0.7
			c1.6,1.3,3.3,2.5,4.9,3.8c4,3.3,8,6.6,12,9.9c0.8,0.7,1.2,1.4,0.7,2.4c-0.2-0.6-0.3-1.4-0.7-1.7c-2.9-2.2-6-4.4-9-6.5
			c-0.7-0.5-1.4-1-2.1-1.5c-0.4-0.3-0.9-0.5-1.3-0.8c-0.1,0.1-0.1,0.2-0.2,0.3c0.1,0.2,0.1,0.5,0.3,0.7c2.2,2.2,4.4,4.4,6.7,6.5
			c1.4,1.3,2.9,2.4,4.4,3.6c-1.9-1.3-3.9-2.4-5.7-3.9C1021.2,474.7,1017.5,471.2,1013.7,467.8z"/>
		<path class="st4" d="M1030.7,481.9c-1.5-1.2-3-2.3-4.4-3.6c-2.3-2.1-4.5-4.3-6.7-6.5c-0.2-0.2-0.2-0.5-0.3-0.7
			c0.1-0.1,0.1-0.2,0.2-0.3c0.4,0.3,0.9,0.5,1.3,0.8c0.7,0.5,1.4,1,2.1,1.5c3,2.2,6,4.3,9,6.5c0.4,0.3,0.5,1.1,0.7,1.7
			c-0.1,0.2-0.2,0.3-0.2,0.5c-0.4,0.1-0.8,0.2-1.2,0.2C1031,482.1,1030.8,482,1030.7,481.9z"/>
		<path class="st14" d="M1031.2,482.2c0.4-0.1,0.8-0.2,1.2-0.2C1032,482,1031.6,482.1,1031.2,482.2z"/>
		<path class="st22" d="M891.7,497.3c0.2-0.2,0.4-0.3,0.4-0.5c0.8-2.2,1.5-4.5,2.5-6.7c1.3-2.9,2.7-5.7,4.4-8.4
			c2.6-4.3,6.7-7,11.2-9.1c5.1-2.4,10.5-3.2,16.1-2.9c4.1,0.3,8.1,1.1,11.7,3.2c1.4,0.8,3,1.6,4.2,2.7c0.9,0.8,1.5,2.1,2.2,3.2
			c0.4,0.6,0.5,1.3,0.9,1.8c1.3,1.8,1.2,3.9,0.9,5.8c-0.2,1-0.9,1.9-1.6,2.7c-0.7,0.8-1.7,1.3-2.7,1.8c-1.8,1-3.6,0.5-5.5,0.1
			c-2.9-0.5-5.8-1.1-8.7-1.5c-0.9-0.1-2,0.2-2.9,0.4c-4.4,1.1-8.3,3.1-11.4,6.4c-2.7,2.8-4.3,6.3-4.7,10.2c-0.3,3.2-0.7,6.4-1.2,9.6
			c-0.3,2.1-1.5,3.7-3.5,4.5c-2.3,0.9-4.2,0.1-6.1-1.3c-2.7-1.9-3.8-4.9-5.6-7.5c-0.2-0.3-0.3-0.8-0.5-1.2c0-0.2,0-0.5,0-0.7
			c0.5-0.8,0.1-1.4-0.5-1.9c0-0.6,0-1.1,0-1.7c0.1-1.1,0.2-2.2,0.2-3.4c0.6-1.2,0.6-2.5,0.2-3.8c0.1-0.5,0.2-1,0.2-1.4
			C891.7,497.7,891.7,497.5,891.7,497.3z M892.6,504.5c0.4,2.2,0.1,4.7,1.2,7c1.5,3,3.5,5.3,6.4,6.8c1.6,0.8,3.1,0.4,3.8-1.1
			c0.7-1.6,1.4-3.3,1.7-5.1c0.5-2.6,0.8-5.2,1.2-7.8c0.7-4.3,2.6-8,5.6-11.1c2.2-2.2,4.9-3.8,7.9-4.9c2.9-1.1,5.9-1.5,9-0.7
			c2.8,0.7,5.7,1.2,8.6,1.7c3.4,0.6,5.7-0.9,5.9-4.2c0.1-1.3-0.2-2.7-0.7-4c-1.3-3.4-3.7-5.7-7.2-6.9c-1.4-0.5-2.9-0.7-4.3-1.1
			c-4.1-1.3-8.3-1.3-12.4-0.4c-4.7,1-9.1,2.8-13,5.6c-2.7,1.9-5.2,4-6.8,6.9c-1.1,2-2.1,4.1-3.1,6.1
			C894.4,495.4,892.9,499.6,892.6,504.5z"/>
		<path class="st18" d="M897.7,478.1c-0.6,0.7-1.2,1.6-1.9,2.2c-2.6,2.1-4.1,4.6-4.1,8c0,2.5-0.1,5-0.2,7.6c0,0.2,0,0.5,0,0.7
			c-0.2,0-0.3,0-0.5,0c0.1-3.7,0.2-7.4,0.2-11.1c0-1.4,0.7-2.5,1.7-3.4C894.5,480.7,896.1,479.4,897.7,478.1z"/>
		<path class="st21" d="M891.5,518.4c-0.4-0.6-0.8-1.1-1.2-1.7c1-0.7,0.7-1.7,0.7-2.6c0-0.8,0-1.6,0-2.4c0.2,0.6,0.6,1.2,0.7,1.9
			c0.2,1.2,0.3,2.5,0.6,3.7C892.4,518,892.3,518.4,891.5,518.4z"/>
		<path class="st21" d="M891.5,499.4c0.4,1.3,0.4,2.6-0.2,3.8c-0.2,0-0.3,0-0.5,0c0-0.6,0-1.1,0-1.7c0.2-0.8,0.3-1.6,0.5-2.4
			C891.3,499.3,891.4,499.3,891.5,499.4z"/>
		<path class="st18" d="M891,514c-0.1,0.9,0.3,2-0.7,2.6c-0.2,0-0.5,0-0.7,0C890,515.8,890.5,514.9,891,514z"/>
		<path class="st18" d="M890.8,503.3c0.2,0,0.3,0,0.5,0c-0.1,1.1-0.2,2.2-0.2,3.4C890.9,505.5,890.8,504.4,890.8,503.3z"/>
		<path class="st20" d="M891,508.3c0.6,0.5,1,1.1,0.5,1.9c-0.2,0-0.5,0-0.7,0C890.8,509.6,890.9,508.9,891,508.3z"/>
		<path class="st18" d="M891.2,499.2c-0.2,0.8-0.3,1.6-0.5,2.4c0.1-1,0.2-1.9,0.2-2.9C891.1,498.9,891.2,499,891.2,499.2z"/>
		<path class="st20" d="M891.2,499.2c-0.1-0.2-0.2-0.3-0.2-0.5c0-0.2,0-0.5,0-0.7c0.2,0,0.5,0,0.7,0c-0.1,0.5-0.2,1-0.2,1.4
			C891.4,499.3,891.3,499.3,891.2,499.2z"/>
		<path class="st21" d="M891.7,498c-0.2,0-0.5,0-0.7,0c0-0.5,0-1,0-1.4c0.2,0,0.3,0,0.5,0c0.1,0.2,0.2,0.5,0.2,0.7
			C891.7,497.5,891.7,497.7,891.7,498z"/>
		<path class="st21" d="M890.8,510.2c0.2,0,0.5,0,0.7,0c0,0.2,0,0.5,0,0.7c-0.2,0-0.3,0-0.5,0C890.9,510.7,890.8,510.4,890.8,510.2z
			"/>
		<path class="st3" d="M1007.2,534.6c0.1,0.1,0.2,0.2,0.2,0.2c-0.4,0.2-0.8,0.4-1.2,0.5c-1.3,0.1-2.6,0-3.9,0
			c-5.9,0.1-11.8,0.2-17.7,0.2c-0.8,0-1.5,0.1-1.7,1c-0.2,0.6-0.2,1.2,0.6,1.4c1.3,0,2.6,0,3.9,0c1.2,0,2.3,0.1,3.5,0.2
			c-1.3,0.1-2.6,0.2-3.8,0.3c-1,0-1.9,0-2.9,0c-0.3,0.1-0.6,0.1-1,0.2c-0.3,0-0.6,0-1,0c-0.3,0-0.6,0-1,0c-0.6,0-1.3,0.3-1.8,0.1
			c-1.7-0.7-3.5-1.2-4.7-2.8c-0.8-1.1-1.8-2-2.8-3c-3.5-3.3-7-6.6-10.5-9.9c-0.3-0.3-0.6-0.6-0.9-0.9c-0.7-0.6-1.5-0.7-2.1,0
			c-1.6,1.6-3.1,3.2-4.7,4.8c-1.9,1.9-3.4,4.3-5.7,5.9c-0.8,0.5-1.4,1.3-2,2c-1.8,1.7-3.5,3.4-5.3,5c-0.2,0.2-0.7,0.2-1,0.3
			c-0.4,0.1-0.8,0.2-1.2,0.2c-0.2-0.2-0.5-0.3-0.7-0.5c-0.2,0-0.5,0-0.7,0c-0.1-0.1-0.2-0.2-0.2-0.2c0.2-0.1,0.3-0.2,0.5-0.3
			c0.5-0.3,1-0.5,1.4-0.8c3.4-3.3,6.8-6.7,10.3-10c1.6-1.5,3.4-2.8,4.9-4.3c1.8-1.7,3.5-3.6,5.1-5.5c0.3-0.4,0.6-0.9,0.7-1.4
			c0.3-1.1-0.4-1.8-1.5-1.6c-0.4,0.1-0.8,0.2-1.3,0.4c0-0.2,0-0.3,0-0.5c1.1-0.6,0.9-1.9,1.2-2.9c0.1-0.5,0.2-1,0.3-1.4
			c0.1,0,0.3,0,0.4,0c0.1,0.8,0.1,1.7,0.3,2.5c0.1,0.6,0.5,1.1,0.7,1.6c0.4,0.5,0.8,1,1.2,1.4c0.1,0.1,0.2,0.2,0.3,0.3
			c0.1-0.1,0.1-0.2,0.2-0.3c0.2-0.2,0.3-0.3,0.5-0.5c0.2,0,0.3,0,0.5,0c0.2,0,0.5,0,0.7,0c0.2,0.2,0.3,0.3,0.5,0.5
			c0.6,0.5,1.1,1,1.8,1.4c3.5,2.4,5.8,5.8,8.3,9c1.6,2,3.1,4.2,4.8,6.1c0.9,1,2.1,2.1,3.8,1.6c0.2,0,0.3,0,0.5,0
			c2.4-0.1,4.7-0.3,7.1-0.4c1.6,0,3.2,0.2,4.7,0.2C998.8,534.7,1003,534.6,1007.2,534.6z"/>
		<path class="st12" d="M928.4,539c0.7-0.1,1.4-0.1,2.1-0.2c1,0,1.9,0.1,2.9,0.1c0.3,0,0.6,0.1,0.9,0.1c0.5,0.2,1,0.4,1.5,0.7
			c0,0.9-0.7,1.1-1.4,1.1c-1.3,0.1-2.7,0.2-4,0.3c-5.2,0.2-10.4,0.4-15.6,0.4c-1.7,0-3.5-0.4-5.2-0.6c-0.4-0.1-0.8-0.4-1.3-0.6
			c0.4-0.5,0.7-0.8,1-1.1c4.8,0,9.5,0,14.3-0.1c0.8,0,1.5,0,2.3-0.1c0.7,0,1.4,0,2.2,0C928.1,539.1,928.2,539.1,928.4,539z"/>
		<path class="st11" d="M937,540.4c0.6,0.3,1.3,0.5,1.1,1.4c-0.2,0.9-0.8,1.3-1.8,1.2c-0.8-0.1-1.9,0.4-2.4-0.7
			C935.4,542.4,936.5,541.9,937,540.4z"/>
		<path class="st11" d="M916.1,542.6c-0.8,0.2-1.7,0.5-2.5,0.7c-0.4,0.1-0.7,0.3-1.1,0.5c-0.9-0.1-1.8-0.2-2.6-0.2
			c0.9-1.1,2.2-0.7,3.4-0.9C914.2,542.4,915.2,542.6,916.1,542.6z"/>
		<path class="st11" d="M920.5,542.3c-1,0.9-2.1,0.5-3.1,0.2C918.4,542.5,919.4,542.4,920.5,542.3z"/>
		<path class="st11" d="M930.5,542.3c-1,0-1.9,0-2.9,0C928.6,542.3,929.6,542.3,930.5,542.3z"/>
		<path class="st2" d="M935.8,539.7c-0.5-0.2-1-0.4-1.5-0.7c0.7,0.2,1.3,0.4,2,0.6C936.1,539.7,936,539.7,935.8,539.7z"/>
		<path class="st11" d="M932.7,542.3c-0.2-0.1-0.5-0.2-0.7-0.2C932.2,542.2,932.4,542.2,932.7,542.3z"/>
		<path class="st2" d="M999.5,610.9c0.6,0,1.3,0,1.9,0C1000.8,610.9,1000.2,610.9,999.5,610.9z"/>
		<path class="st9" d="M989,610.8c0.2-0.5,0.5-0.5,0.7,0C989.5,610.8,989.2,610.8,989,610.8z"/>
		<path class="st2" d="M991.4,610.9c0.2,0,0.3,0,0.5,0C991.7,610.9,991.5,610.9,991.4,610.9z"/>
		<path class="st18" d="M990,467.8c-0.3,0.2-0.7,0.7-1,0.7c-2.4-0.3-4.2,0.8-5.9,2.3c-0.3,0.2-0.6,0.3-1,0.4c0-0.1,0-0.2,0-0.2
			c0.6-0.6,1.1-1.1,1.7-1.7c0.7-0.5,1.4-1,2.2-1.4C987.2,467.8,988.6,467.8,990,467.8z"/>
		<path class="st13" d="M985.9,467.8c-0.7,0.5-1.4,1-2.2,1.4c0.1-0.3,0.2-0.6,0.2-1c0.2-0.1,0.5-0.2,0.7-0.2
			C985.1,468,985.5,467.9,985.9,467.8z"/>
		<path class="st18" d="M993.5,467.8c-0.1,0.1-0.2,0.2-0.3,0.3c-0.1-0.1-0.1-0.2-0.2-0.3C993.2,467.8,993.4,467.8,993.5,467.8z"/>
		<path class="st8" d="M927.4,544.3c2.7,0.2,5.5,0.4,8.4,0.6c0.3,0,0.6,0.1,0.8,0.2c4.3,2.8,8.9,5.1,12,9.4c0.4,0.6,0.6,1.5,0.5,2.2
			c-1,5.1-5.5,7.8-10.9,6.5c-1.3-0.3-2.5-0.9-3.8-0.9c-2.5-0.1-5.1-0.7-7.4,0.5c-1.6,0.8-3.1,2-4.6,3.2c-1.9,1.5-3.7,3.2-5.6,4.8
			c-0.6,0.5-1.2,0.8-1.8,1.3c-0.6,0.5-1.2,1-1.6,1.6c-3.2,4.1-5.3,8.9-7.2,13.7c-0.9,2.3-1.8,4.5-3.9,6.1c-1.7,1.2-3.4,1.4-5.5,1
			c-2.5-0.5-3.9-2.3-5.6-3.7c-0.8-0.7-1-2.3-1-3.5c-0.1-3,0.1-6.1,0.2-9.1c0-1.9-0.1-3.8,0-5.7c0.2-2.8,0.2-5.7,0.8-8.4
			c0.4-1.7,1.5-3.5,2.7-4.7c3.7-3.5,7.4-6.9,11.5-9.9c3.5-2.6,7.7-3.9,12-4.4C920.6,544.6,924,544.5,927.4,544.3z"/>
		<path class="st19" d="M923,610.4c-2.4,0-4.9,0-7.3,0c-1,0-1.9-0.1-2.8-0.3c-1.8-0.3-2.4-1.3-2.1-3.1c0.5-3.4,2.7-5.1,5.7-6.1
			c2.2-0.7,4.4-1.2,6.6-1.8c4.2-1.1,8.1-2.8,11.4-5.6c3.1-2.7,6.5-5.3,8.1-9.3c0.8-1.8,1.3-3.8,2.1-5.6c1.8-3.7,6.2-4.7,9.5-2.3
			c1.1,0.8,1.7,2,2,3.3c0.7,3.6,0.8,7.1-0.1,10.7c-0.6,2.6-2.2,4.5-4,6.3c-2.2,2.1-4.4,4.2-6.6,6.2c-1.9,1.7-3.8,3.3-5.7,4.9
			c-2.6,2.2-5.7,2.8-8.9,2.9C928.2,610.4,925.6,610.4,923,610.4z"/>
		<path class="st17" d="M964.7,570.9c-0.1-4.6,1.8-8.5,4.2-12.3c4-6.3,10.1-10,16.8-12.7c2.7-1.1,5.7-1.6,8.6-1.8
			c3.7-0.3,7.4-0.6,11.1,0.4c1.8,0.5,3.6,1.2,5.3,2c1.6,0.7,3.1,1.6,4.5,2.6c1.7,1.2,2.9,2.8,3.1,5c0.4,4.1-3.3,6.5-6.2,6.5
			c-1.9,0-3.9-0.3-5.8-0.5c-1.1-0.1-2.3-0.1-3.4,0.1c-5.1,0.7-9.7,2.8-13.3,6.5c-2.2,2.3-4.5,4.6-5.6,7.7c-0.4,1.3-0.8,2.6-1.3,3.9
			c-0.4,1.1-0.9,2.2-1.4,3.3c-0.1,0.2-0.3,0.5-0.6,0.6c-1.9,0.8-3.9,1.5-6.1,1.4c-0.7,0-1.5,0.2-2.2,0.1c-1.6-0.3-3.1-0.7-4.8-0.5
			c-0.2,0-0.6-0.2-0.6-0.4c-0.3-1-0.6-2-0.9-2.9c-0.3-0.9-0.8-1.9-0.9-2.8C965,575,964.9,572.9,964.7,570.9z"/>
		<path class="st14" d="M963.6,562.7c0.1,0.2,0.2,0.3,0.2,0.5c-0.1,0.4-0.2,0.8-0.2,1.2c-0.2,2.3-0.6,4.6-0.6,6.8c0,2,0.3,4,0.4,5.9
			c0.1,2.6,0.2,5.2,0.2,7.8c0,1.7,0,3.4,0,5.1c0,0.4,0.1,0.9-0.1,1.2c-0.2,0.3-0.7,0.7-1,0.6c-0.3,0-0.7-0.5-0.8-0.8
			c-0.5-5.4-0.9-10.8-0.1-16.2c0.4-2.6,0.5-5.2-0.5-7.8c-0.4-1.1-0.3-2.4-0.4-3.7c-0.1-0.9-0.3-1.8-1.4-1.9
			c-0.1-0.2-0.2-0.3-0.2-0.5c0.1,0,0.2,0,0.2,0c0.2,0,0.5,0,0.7,0c1.2,0.7,1.6,1.7,1.7,3.1c0,0.7,0.1,1.5,0.2,2.2c0.1,0,0.3,0,0.4,0
			c0.1-0.3,0.3-0.7,0.4-1C963,564.4,963.3,563.6,963.6,562.7z"/>
		<path class="st18" d="M979.7,545.7c0.9-0.8,1.3-2.3,2.9-2.2C981.6,544.2,980.6,545,979.7,545.7z"/>
		<path class="st18" d="M977.5,547.6c0.5-0.4,1-0.8,1.4-1.2C978.5,546.8,978,547.2,977.5,547.6z"/>
		<path class="st18" d="M1006,543c0.2,0.1,0.3,0.2,0.5,0.2C1006.3,543.2,1006.2,543.1,1006,543z"/>
		<path class="st0" d="M939.6,540.2c0.3-0.1,0.8-0.1,1-0.3c1.8-1.7,3.6-3.3,5.3-5c0.7-0.7,1.3-1.5,2-2c2.3-1.6,3.8-3.9,5.7-5.9
			c1.6-1.6,3.1-3.2,4.7-4.8c0.7-0.7,1.4-0.6,2.1,0c0.3,0.3,0.6,0.6,0.9,0.9c3.5,3.3,7,6.6,10.5,9.9c1,0.9,2,1.9,2.8,3
			c1.2,1.7,3,2.2,4.7,2.8c0.5,0.2,1.2-0.1,1.8-0.1c-0.2,0.2-0.3,0.3-0.5,0.5c-0.5,0.3-1,0.6-1.4,1c-0.2,0-0.5,0-0.7,0
			c-0.6,0.1-1.5,0-1.9,0.4c-1.8,1.5-3.2,3.5-5.2,4.8c-1,0.6-1.5,1.9-2.2,3l0,0c-0.6,0.5-1.3,1-1.9,1.6c-1.9,1.8-3.8,3.7-5.7,5.6
			c-0.9,0.9-1.7,0.7-2.5,0c-1.3-1-2.5-2-3.8-2.9c-2.4-1.8-4.8-3.4-7.1-5.2c-1.1-0.8-2-2-3.1-2.8c-1.7-1.4-3.5-2.6-5.2-3.9
			C939.9,540.5,939.8,540.3,939.6,540.2z"/>
		<path class="st7" d="M960,561c-0.2,0-0.5,0-0.7,0c-0.9-2.2,0-3.6,2.4-3.7c0.3,0,0.6-0.1,0.7-0.3c0.9-0.9,1.9-1.8,2.7-2.8
			c0.7-0.8,1.2-1.8,1.8-2.8c0.4-0.4,0.8-0.8,1.2-1.2c0.2-0.3,0.5-0.6,0.7-1c0.2-0.2,0.3-0.3,0.5-0.5c0.2-0.3,0.5-0.6,0.7-1
			c1.3-1.1,2.6-2.2,3.8-3.4c2-0.8,3.1-2.6,4.6-4.1c0.1,0,0.2,0,0.2,0c1,0.8,1.1,3.1,0.1,3.9c-1.8,1.5-3.7,2.9-5.3,4.6
			c-3.5,3.8-6.8,7.8-10.2,11.7c-0.7,0.8-1.2,1.1-2.1,0.4C960.9,560.7,960.4,560.2,960,561z"/>
		<path class="st14" d="M958.3,560.3c-1.6-1.5-3.3-3-4.9-4.6c-0.6-0.6-1-1.3-1.3-2c-0.1-0.3,0.1-1,0.3-1.1c0.3-0.2,0.9-0.1,1.2,0.2
			c1.5,1.2,3,2.5,4.5,3.6c0.4,0.3,1.1,0.4,1.6,0.6C958.8,557.8,958,558.8,958.3,560.3z"/>
		<path class="st11" d="M958.3,560.3c-0.3-1.5,0.4-2.5,1.4-3.4c2.7-0.2,4-2.3,5.7-4c0.5-0.5,1-1,1.5-1.5c-0.6,0.9-1.1,1.9-1.8,2.8
			c-0.8,1-1.8,1.9-2.7,2.8c-0.2,0.2-0.5,0.3-0.7,0.3c-2.4,0.1-3.3,1.5-2.4,3.7c-0.1,0-0.2,0-0.2,0
			C958.8,560.8,958.6,560.5,958.3,560.3z"/>
		<path class="st11" d="M968.9,549.3c-0.2,0.3-0.5,0.6-0.7,1C968.4,549.9,968.6,549.6,968.9,549.3z"/>
		<path class="st11" d="M970.1,547.8c-0.2,0.3-0.5,0.6-0.7,1c0-0.2,0-0.3,0-0.5c0,0,0,0,0,0C969.6,548.1,969.8,548,970.1,547.8z"/>
		<path class="st0" d="M937.7,539.9c0.2,0.2,0.5,0.3,0.7,0.5C938.2,540.2,938,540.1,937.7,539.9z"/>
		<path class="st21" d="M956.9,515.7c0,0.2,0,0.3,0,0.5c-0.2,0.1-0.3,0.2-0.5,0.2c-0.1-0.1-0.2-0.2-0.2-0.2
			c0.4-3.5,1.1-6.9,1.1-10.4c0-3.9-0.6-7.7-1-11.6c-0.1-1.2-0.1-2.4-0.2-3.7c0-0.4-0.1-0.8-0.3-1.1c-1.5-1.7-0.8-3.7-0.5-5.5
			c0.1-0.8,0.8-0.9,1.5-0.5c0.6,0.3,1.2,0.5,1.7,0.7c0.1,0,0.2,0,0.2,0c-0.1,0.3-0.2,0.6-0.2,1c-0.9-0.1-1,0.6-1.2,1.3
			c-1,3.7-0.4,7.3,0,11c0.3,3.2,0.3,6.5,0.2,9.7C957.5,510,957.1,512.8,956.9,515.7z"/>
		<path class="st3" d="M956.2,516.4c-0.2,0.4-0.2,0.8-0.5,1c-2.3,2.4-4.7,4.9-7,7.3c-2,2-4,4.1-6.1,6.1c-1.4,1.3-2.8,2.6-4.3,3.8
			c-0.3,0.3-0.9,0.3-1.3,0.5c0-0.2,0-0.3,0-0.5c0.2-0.2,0.5-0.3,0.7-0.5c0.2-0.2,0.3-0.3,0.5-0.5c0,0,0,0,0,0c0.6-0.5,1.1-1,1.7-1.4
			c1-1,2.1-2,3.1-3c0.3-0.3,0.6-0.6,1-0.9c0.3-0.3,0.6-0.6,1-1c1.4-1.3,2.7-2.6,4.1-4c2.2-2.1,4.3-4.3,6.5-6.5
			C955.7,516.8,955.9,516.6,956.2,516.4z"/>
		<path class="st13" d="M928.1,467.8c1.7,0,3.5,0,5.2,0c0.4,0,0.8,0.1,1.3,0.2c-0.2,0.1-0.5,0.2-0.7,0.2c-1.9,0-3.8,0-5.8,0
			C928.1,468.1,928.1,468,928.1,467.8z"/>
		<path class="st9" d="M932.2,536.1c-0.7,0-1.4,0-2.2,0c-0.1-0.1-0.2-0.2-0.2-0.2c0.7-0.8,1.6-0.5,2.4-0.2
			C932.2,535.8,932.2,535.9,932.2,536.1z"/>
		<path class="st9" d="M935.1,535.8c-0.3,0-0.6,0-1,0c-0.4-0.1-0.8-0.2-1.2-0.2c0.6-0.8,1.4-0.5,2.2-0.2
			C935.1,535.5,935.1,535.7,935.1,535.8z"/>
		<path class="st3" d="M929.8,535.8c0.1,0.1,0.2,0.2,0.2,0.2c-0.7,0-1.4,0-2.2,0C928.5,536,929.2,535.9,929.8,535.8z"/>
		<path class="st9" d="M939.9,532.3c-0.6,0.5-1.1,1-1.7,1.4C938.8,533.2,939.3,532.7,939.9,532.3z"/>
		<path class="st3" d="M932.9,535.6c0.4,0.1,0.8,0.2,1.2,0.2c-0.6,0.1-1.3,0.2-1.9,0.2c0-0.2,0-0.3,0-0.5
			C932.4,535.6,932.7,535.6,932.9,535.6z"/>
		<path class="st9" d="M937,534.6c0,0.2,0,0.3,0,0.5c-0.4,0.2-0.8,0.3-1.2,0.5c0-0.1,0-0.2,0-0.2C936.2,535.1,936.6,534.9,937,534.6
			z"/>
		<path class="st17" d="M944.9,527.5c-0.3,0.3-0.6,0.6-1,1C944.3,528.1,944.6,527.8,944.9,527.5z"/>
		<path class="st3" d="M935.8,535.4c0,0.1,0,0.2,0,0.2c-0.2,0.1-0.5,0.2-0.7,0.2c0-0.2,0-0.3,0-0.5
			C935.3,535.4,935.6,535.4,935.8,535.4z"/>
		<path class="st9" d="M926.5,536.1c-0.2,0-0.3,0-0.5,0c0.1-0.1,0.2-0.2,0.3-0.3C926.3,535.9,926.4,536,926.5,536.1z"/>
		<path class="st9" d="M938.2,533.7c-0.2,0.2-0.3,0.3-0.5,0.5C937.9,534,938,533.8,938.2,533.7z"/>
		<path class="st22" d="M956.2,516.2c0.1,0.1,0.2,0.2,0.2,0.2c-0.1,0-0.2,0-0.2,0C956.2,516.4,956.2,516.3,956.2,516.2z"/>
		<path class="st21" d="M893.2,518.6c0.6,0.7,0.9,1.1,1.3,1.5C893.6,520.2,892.8,520.1,893.2,518.6z"/>
		<path class="st18" d="M908,469c0.2-0.3,0.5-0.6,0.7-1c0.5-0.1,1.1-0.2,1.6-0.2c1.5,0,2.9,0,4.4,0c-0.2,0.2-0.4,0.6-0.7,0.7
			C912,468.7,910,468.8,908,469z"/>
		<path class="st18" d="M904.6,471.6c0.9-0.6,1.8-1.3,2.6-1.9C906.4,470.3,905.5,471,904.6,471.6z"/>
		<path class="st18" d="M899.6,476.2c0.6-0.6,1.3-1.1,1.9-1.7C900.9,475.1,900.3,475.6,899.6,476.2z"/>
		<path class="st18" d="M902.7,473.3c0.5-0.4,1-0.8,1.4-1.2C903.7,472.5,903.2,472.9,902.7,473.3z"/>
		<path class="st18" d="M928.1,467.8c0,0.2,0,0.3,0,0.5c-0.6,0.4-0.9,0.2-1-0.5C927.5,467.8,927.8,467.8,928.1,467.8z"/>
		<path class="st2" d="M933.4,538.9c-1,0-1.9-0.1-2.9-0.1C931.5,538.4,932.5,538.2,933.4,538.9z"/>
		<path class="st2" d="M927.9,539.2c-0.7,0-1.4,0-2.2,0c0.7-0.1,1.4-0.1,2.2-0.2C927.9,539,927.9,539.1,927.9,539.2z"/>
		<path class="st16" d="M927.9,539.2c0-0.1,0-0.2,0-0.3c0.2,0,0.3,0.1,0.5,0.1C928.2,539.1,928.1,539.1,927.9,539.2z"/>
		<path class="st13" d="M960,499.4c0.1,0.5,0.2,1.1,0.2,1.6c0.1,1.5,0.2,3,0.2,4.5c0,0.4-0.3,0.9-0.4,1.4c-0.1-2.1-0.2-4.3-0.2-6.4
			C959.8,500.1,959.9,499.8,960,499.4z"/>
		<path class="st13" d="M961,516.9c-0.4-0.5-0.8-1-1.2-1.4c0.1-0.7-0.6-1.5,0.5-1.9c0,0.4,0,0.7,0,1.1c0,1.5,0.2,1.6,1.7,1.6
			c0,0.1,0,0.2,0,0.3c-0.2,0.2-0.3,0.3-0.5,0.5C961.3,516.9,961.1,516.9,961,516.9z"/>
		<path class="st13" d="M960,507.6c0.7,0.8,0.7,2.5,0,3.4C960,509.8,960,508.7,960,507.6z"/>
		<path class="st11" d="M961.9,516.5c0-0.1,0-0.2,0-0.3c0.1-1.4,0.2-2.8,0.2-4.2c0-5.4,0-10.7,0-16.1c0-2.7,0.3-5.4,0.5-8.1
			c0-0.6,0.4-1.1,0.7-1.6c0,0.1,0,0.2,0,0.2c0,0.3,0,0.6,0,1c0.2,0.8,0.3,1.6,0.5,2.4c0,0.3,0,0.6,0,1c-0.1,0.1-0.2,0.1-0.3,0.2
			c0.1,0.1,0.2,0.2,0.3,0.3c0,0.2,0,0.5,0,0.7c-0.2,0.2-0.4,0.4-0.4,0.6c-0.4,3.2-0.9,6.5-0.9,9.7c-0.1,3.6,0.2,7.3,0.5,10.9
			c0.1,1.2,0.1,2.2-0.5,3.2C962.2,516.4,962.1,516.4,961.9,516.5z"/>
		<path class="st11" d="M984,468.3c-0.1,0.3-0.2,0.6-0.2,1c-0.6,0.6-1.1,1.1-1.7,1.7c-0.2,0.2-0.5,0.3-0.7,0.5
			c-0.2,0.2-0.3,0.3-0.5,0.5c-0.3,0.3-0.6,0.6-1,1c-0.1,0.1-0.2,0.2-0.2,0.2c-0.2,0-0.3,0-0.5,0c-0.3,0.3-0.6,0.6-1,1
			c-0.2,0.1-0.3,0.2-0.5,0.2c-0.4,0.2-0.8,0.2-1,0.5c-1.4,1.1-2.7,2.2-4.1,3.3c-0.3,0.2-0.4,0.5-0.6,0.8c-0.2,0.2-0.3,0.3-0.5,0.5
			c-0.2,0.2-0.5,0.3-0.7,0.5c-0.3,0.3-0.6,0.6-0.9,0.8c-2,1.7-4.1,3.5-6.1,5.2c-0.2,0.1-0.3,0.2-0.5,0.2c0.3-0.5,0.4-1.3,0.8-1.6
			c3.3-2.8,6.6-5.7,9.9-8.4c3-2.5,6.1-4.9,9.1-7.3C983.4,468.5,983.7,468.4,984,468.3z"/>
		<path class="st13" d="M963.4,486c0.2-0.1,0.3-0.2,0.5-0.2c-0.2,0.2-0.3,0.5-0.5,0.7c0-0.1,0-0.2,0-0.2
			C963.4,486.2,963.4,486.1,963.4,486z"/>
		<path class="st19" d="M1031.1,580.4c-0.2,2.2-0.2,4.5-0.6,6.7c-0.6,3.6-2.6,6.4-4.8,9.1c-2.6,3.2-5.5,6-8.7,8.4
			c-3,2.2-6.4,3.6-10.1,4.1c-3.2,0.5-6.5,0.8-9.8,0.7c-4.3-0.1-8.6-0.6-12.8-1.7c-2-0.5-3.5-1.7-5-3c-2.3-2.1-4.5-4.2-6.6-6.4
			c-2.3-2.3-1.7-6,1.1-7.7c2.5-1.5,4.9-0.9,7.4,0c0.9,0.3,1.9,0.8,2.7,1.4c3.1,2.2,6.6,3.2,10.3,3.5c3.2,0.3,6.4,0.5,9.5-0.3
			c7.2-1.8,12-6.2,13.9-13.5c0.4-1.6,0.1-3.3,0.2-5c0.1-1.3,0.2-2.6,0.5-3.8c0.7-2.4,2.2-3.9,4.7-4.4c2.4-0.4,4.2,0.6,5.7,2.3
			c1.6,1.9,2.3,4.2,2.3,6.6c0,0.9,0,1.8,0,2.8C1031,580.4,1031,580.4,1031.1,580.4z"/>
		<path class="st9" d="M1020.1,603.2c-0.2,0.3-0.5,0.6-0.7,1C1019.7,603.8,1019.9,603.5,1020.1,603.2z"/>
		<path class="st22" d="M982.8,534.9c-0.2,0-0.3,0-0.5,0c0-0.1,0-0.2,0-0.2c0.1-0.1,0.2-0.2,0.2-0.2
			C982.6,534.6,982.7,534.7,982.8,534.9z"/>
		<path class="st15" d="M990.9,538.2c-1.2-0.1-2.3-0.2-3.5-0.2c-1.3,0-2.6,0-3.9,0c0.1-1.5,0.3-1.7,1.7-1.7c1.2,0,2.3,0.2,3.4,0.2
			c3.4-0.1,6.7-0.4,10.1-0.4c2.8,0,5.6,0.2,8.3,0.1c0.9,0,1.9-0.3,2.7-0.6c1.2-0.4,2.1-0.2,2.5,0.8c0.2,0.5-0.2,1.2-0.3,1.8
			c0,0,0,0,0,0c-0.2,0-0.3,0-0.5,0c-0.2,0-0.3,0.1-0.5,0.1c-1.4,0-2.9,0.1-4.3,0.1c-0.5,0-1,0-1.4,0c-2.2,0-4.5-0.1-6.7-0.1
			c-0.9-0.8-1.9-0.5-2.9-0.2c-0.3,0-0.6,0-1,0c-0.6-0.7-1.3-0.7-1.9,0C992.2,538.2,991.5,538.2,990.9,538.2z"/>
		<path class="st3" d="M1008.2,534.9c0.2,0,0.5,0,0.7,0C1008.6,535.4,1008.4,535.4,1008.2,534.9z"/>
		<path class="st14" d="M1030.9,556.4c-0.7-0.4-1.4-0.6-1.9-1c-3.4-2.8-6.7-5.8-10.1-8.6c-1.5-1.2-3.1-2.3-4.6-3.4
			c-0.3-0.2-0.8-0.7-0.7-1c0-0.3,0.6-0.6,0.9-0.8c1.3-0.9,2.3-0.6,3.5,0.4c2.7,2.2,5.5,4.2,8.2,6.4c2,1.6,3.9,3.4,5.8,5.2
			c0.4,0.4,0.9,1.2,0.7,1.4C1032.3,555.6,1031.6,555.9,1030.9,556.4z"/>
		<path class="st11" d="M960,561c0.4-0.8,0.9-0.3,1.3,0c0.9,0.7,1.4,0.4,2.1-0.4c3.3-3.9,6.7-7.9,10.2-11.7c1.6-1.7,3.5-3.1,5.3-4.6
			c0.9-0.8,0.8-3.1-0.1-3.9c0-0.1,0-0.2,0-0.2c0.2,0,0.5,0,0.7,0c0.2,0,0.3,0,0.5,0c0.7,0.6,0.8,0,1-0.5h0c0.6-0.1,1.3-0.1,1.4-1
			c0.3,0,0.6,0,1,0c-0.1,0.2-0.2,0.4-0.3,0.6c-1,1.5-0.8,1.9,1,2.2c0.2,0,0.3,0,0.5,0c-1,0.3-2.1,0.9-3.1,0.9
			c-1.1-0.1-1.3,0.2-1.2,1.1c-0.1,0.4-0.1,0.9-0.4,1.1c-1.5,1.3-3.1,2.6-4.7,3.9c-0.3,0.3-0.6,0.6-1,1c-1.6,1.6-3.3,3.3-4.9,5
			c-0.8,0.9-1.5,1.8-2.3,2.7c-0.2,0.2-0.3,0.3-0.5,0.5c-0.1,0.2-0.2,0.3-0.2,0.5c-0.2,0.2-0.3,0.5-0.5,0.7c-0.3,0.3-0.5,0.7-0.9,1
			c-1.1,0.7-1.4,1.7-1.3,2.9c-0.3,0.9-0.6,1.7-0.9,2.6c-0.1,0.3-0.2,0.7-0.4,1c-0.1,0-0.3,0-0.4,0c-0.1-0.7-0.2-1.5-0.2-2.2
			C961.6,562.8,961.2,561.7,960,561z"/>
		<path class="st16" d="M1006.7,538.5c1.4-0.1,2.9-0.1,4.3-0.2c0,0.7,0,1.4,0,2c-0.9,0.9-2.1,1-3.3,1c-3.1-0.1-6.1-0.2-9.2-0.3
			c-0.4,0-0.8,0-1.2,0c-0.3,0.2-0.6,0.3-1,0.5c-2.4,0-4.8,0-7.2,0c-0.6,0-1.2-0.1-1.9-0.2c0.2-0.1,0.4-0.2,0.7-0.2
			c2.8-0.2,5.6-0.3,8.3-0.5c4.2-0.3,8.5-0.6,12.7-1c0.3,0,0.5-0.2,0.8-0.3c0-0.1,0-0.2,0-0.3c-0.6,0-1.1,0-1.7-0.1
			C1007.6,538.9,1007.2,538.7,1006.7,538.5z"/>
		<path class="st14" d="M987.3,541.4c0.6,0.1,1.2,0.2,1.9,0.2c2.4,0,4.8,0,7.2,0c0.2,0.1,0.3,0.2,0.5,0.2c-0.4,0.1-0.8,0.2-1.2,0.2
			c-3.1,0.2-6.2,0.3-9.3,0.5c-1.7,0.1-3.4,0.3-5.1,0.5c-0.4,0-0.8,0.3-1.2,0.5c0-0.9,0.2-1.1,1.2-1.1c1,0.1,2.1-0.5,3.1-0.9
			C985.4,541.5,986.4,541.4,987.3,541.4z"/>
		<path class="st11" d="M998.6,541.1c3.1,0.1,6.1,0.1,9.2,0.3c1.2,0,2.4-0.1,3.3-1c0,0.2,0,0.5,0,0.7c-0.2,0.3-0.5,0.6-0.7,1
			c-0.2,0-0.5,0-0.7,0c-0.8-0.1-1.6-0.1-2.4-0.2c-1.8-0.1-3.7-0.2-5.5-0.3c-1,0.1-2.1,0.2-3.1,0.2
			C998.6,541.6,998.6,541.4,998.6,541.1z"/>
		<path class="st14" d="M1001.7,541.6c1.8,0.1,3.7,0.2,5.5,0.3c0.8,0,1.6,0.1,2.4,0.2c-0.6,0.2-1.3,0.7-1.9,0.6
			c-1.8-0.1-3.6-0.4-5.4-0.7C1002.1,542,1001.9,541.8,1001.7,541.6z"/>
		<path class="st14" d="M998.6,541.1c0,0.2,0,0.5,0,0.7c-0.4,0-0.8,0-1.2,0c0-0.2,0-0.5,0-0.7C997.8,541.1,998.2,541.1,998.6,541.1z
			"/>
		<path class="st14" d="M1010.3,542.1c0.2-0.3,0.5-0.6,0.7-1C1011.4,541.9,1010.9,542,1010.3,542.1z"/>
		<path class="st11" d="M997.4,541.1c0,0.2,0,0.5,0,0.7c-0.2,0-0.3,0-0.5,0c-0.2-0.1-0.3-0.2-0.5-0.2
			C996.7,541.4,997.1,541.3,997.4,541.1z"/>
		<path class="st14" d="M974.1,549.5c0.3-0.3,0.6-0.6,1-1C974.8,548.9,974.5,549.2,974.1,549.5z"/>
		<path class="st14" d="M965.8,558.8c0.2-0.2,0.3-0.5,0.5-0.7C966.1,558.4,965.9,558.6,965.8,558.8z"/>
		<path class="st14" d="M966.5,557.7c0.2-0.2,0.3-0.3,0.5-0.5C966.8,557.3,966.6,557.5,966.5,557.7z"/>
		<path class="st3" d="M1011.5,538.3c0.2,0,0.3,0,0.5,0C1011.8,538.3,1011.7,538.3,1011.5,538.3z"/>
		<path class="st8" d="M982.3,534.6c0,0.1,0,0.2,0,0.2c-1.7,0.5-2.8-0.5-3.8-1.6c-1.7-1.9-3.2-4-4.8-6.1c-2.6-3.2-4.9-6.6-8.3-9
			c-0.6-0.4-1.2-0.9-1.8-1.4c1.6,0.6,3.2,1.2,4.8,1.8c0.1-0.1,0.2-0.1,0.3-0.2c-0.3-0.6-0.6-1.2-0.9-1.8c-0.8-1.7-1.9-3.3-2.4-5
			c-0.9-3.2-0.5-6.5,0.1-9.8c1.1-6,3.8-11.1,7.1-16c2.4-3.6,5.1-6.8,8.9-8.8c2.7-1.5,5.7-2.7,8.6-3.8c3.5-1.4,7-2.5,10.8-2.5
			c4.3,0.1,8.4,0.6,12.2,3.1c2.8,1.9,5,3.9,6.1,7.1c1,2.9-0.5,6.4-3.3,7.6c-2.1,0.9-4,0.5-6.1,0c-1.9-0.5-3.8-0.8-5.7-1.1
			c-0.6-0.1-1.2,0.1-1.8,0.1c-2.3,0-4.2,1-6.1,2.2c-1.2,0.7-2.2,1.7-3.3,2.4c-1.6,1-3.7,1.1-5.1,2.7c-1.5,1.7-3.5,3-4.8,4.8
			c-1.9,2.5-3.4,5.3-4.4,8.4c-1,3-2.5,5.9-3.8,8.8c-0.4,0.9-0.8,1.8-1.5,2.4c-0.7,0.7-1.8,1-2.8,1.5c0,0,0,0.2,0.1,0.3
			c1.1,1.9,2.3,3.9,3.5,5.7c0.9,1.3,2,2.6,3,3.9c0.8,0.8,1.6,1.6,2.4,2.4c0.1,0,0.2,0,0.2,0c0.3,0.3,0.6,0.6,1,1c0.1,0,0.2,0,0.2,0
			c0.3,0.2,0.6,0.5,1,0.7C982,534.6,982.1,534.6,982.3,534.6z"/>
		<path class="st22" d="M977,530.6c-1-1.3-2.1-2.5-3-3.9c-1.2-1.9-2.3-3.8-3.5-5.7c-0.1-0.1-0.1-0.3-0.1-0.3c1-0.5,2-0.8,2.8-1.5
			c0.7-0.6,1.1-1.5,1.5-2.4c1.3-2.9,2.8-5.7,3.8-8.8c1-3.1,2.5-5.9,4.4-8.4c1.3-1.8,3.3-3.1,4.8-4.8c1.4-1.5,3.5-1.7,5.1-2.7
			c1.2-0.7,2.2-1.7,3.3-2.4c1.9-1.1,3.8-2.2,6.1-2.2c0.6,0,1.2-0.2,1.8-0.1c1.9,0.3,3.8,0.7,5.7,1.1c2,0.5,4,0.9,6.1,0
			c2.8-1.2,4.3-4.7,3.3-7.6c-1.1-3.2-3.3-5.3-6.1-7.1c-3.8-2.5-7.9-3.1-12.2-3.1c-3.7-0.1-7.3,1.1-10.8,2.5
			c-2.9,1.2-5.9,2.3-8.6,3.8c-3.8,2.1-6.5,5.3-8.9,8.8c-3.3,4.9-6,10-7.1,16c-0.6,3.3-1,6.6-0.1,9.8c0.5,1.8,1.6,3.3,2.4,5
			c0.3,0.6,0.6,1.2,0.9,1.8c-0.1,0.1-0.2,0.1-0.3,0.2c-1.6-0.6-3.2-1.2-4.8-1.8c-0.2-0.2-0.3-0.3-0.5-0.5c0.1-0.1,0.2-0.2,0.2-0.2
			c0.9-0.8,1-1.5,0.2-2.4c0-0.2,0-0.5,0-0.7c0.7-0.5,0.5-1.1,0.2-1.7c0-0.4,0-0.8,0-1.2c0-0.2,0-0.3,0-0.5c0-0.2,0-0.3,0-0.5
			c0.1-0.7,0.2-1.4,0.2-2.2c-0.1-0.4-0.2-0.8-0.2-1.2c0-0.4,0-0.8,0-1.2c0.9-1.3,0.5-2.7,0.2-4.1c0-0.2,0-0.3,0-0.5
			c0.2-0.4,0.5-0.8,0.5-1.1c-0.4-4.3,1.2-8.1,3.4-11.6c1.9-3.1,4.2-6.1,6.6-8.7c3.1-3.3,7-5.6,11.3-7.2c0.9-0.3,1.8-0.7,2.7-1.1
			c3.5-1.5,7.3-1.8,11-1.9c2.4,0,4.9,0,7.3,0.1c2.5,0.1,4.5,1.6,6.5,2.7c2.5,1.4,3.9,3.8,5.9,5.7c0.3,0.3,0.6,0.8,0.7,1.3
			c0.4,2.1,1.1,4.3,1,6.4c-0.2,3.1-2.4,5-5.5,5.8c-2.2,0.5-4.2,0-6.3-0.3c-3.6-0.6-7,0.1-10.2,1.6c-0.2,0.1-0.5,0.3-0.7,0.5
			c-1.4,1.8-3.2,2.6-5.4,3.2c-1.3,0.4-2.6,1.4-3.7,2.3c-2.9,2.4-5.5,5.1-7.2,8.4c-1.2,2.2-2.2,4.5-3,6.9c-1.1,3.3-2.8,6.1-5.3,8.5
			c-0.8,0.8-1,1.4-0.4,2.4c1.2,1.9,2.3,3.8,3.5,5.7C976.9,530,976.9,530.3,977,530.6z"/>
		<path class="st13" d="M963.4,516.2c-0.1,0.1-0.2,0.2-0.2,0.2c-0.2,0-0.5,0-0.7,0c0.7-1,0.6-2,0.5-3.2c-0.3-3.6-0.5-7.3-0.5-10.9
			c0.1-3.2,0.6-6.5,0.9-9.7c0-0.2,0.3-0.4,0.4-0.6c0.1,0.6,0.2,1.3,0.2,1.9c0,0.2,0,0.3,0,0.5c-0.1,0.1-0.4,0.3-0.4,0.4
			c0,1.9,0.1,3.9,0.1,5.8c0,1.4,0,2.7,0,4.1c0,0.4,0,0.8,0,1.2c-0.1,0.4-0.2,0.8-0.2,1.2c0.1,0.7,0.2,1.4,0.2,2.2c0,0.2,0,0.3,0,0.5
			c0,0.2,0,0.3,0,0.5c0,0.4,0,0.8,0,1.2c-0.1,0.6-0.2,1.1-0.2,1.7c0,0.2,0,0.5,0,0.7C963.5,514.6,963.4,515.4,963.4,516.2z"/>
		<path class="st18" d="M964.1,493.9c-0.1-0.6-0.2-1.3-0.2-1.9c0-0.2,0-0.5,0-0.7c0-0.2,0-0.3,0-0.5c0-0.3,0-0.6,0-1
			c-0.2-0.8-0.3-1.6-0.5-2.4c0-0.3,0-0.6,0-1c0.2-0.2,0.3-0.5,0.5-0.7c2-1.7,4.1-3.5,6.1-5.2c0.3-0.3,0.6-0.5,0.9-0.8
			c0.2-0.2,0.5-0.3,0.7-0.5c0.2-0.2,0.3-0.3,0.5-0.5c0.2,0,0.3,0,0.5,0c-0.7,0.8-1.3,1.9-2.3,2.4c-2.5,1.4-4,3.7-5.4,6
			c-0.5,0.8-0.3,2-0.4,3C964.3,491.4,964.2,492.7,964.1,493.9z"/>
		<path class="st13" d="M972.5,478.8c-0.2,0-0.3,0-0.5,0c0.2-0.3,0.4-0.6,0.6-0.8c1.3-1.1,2.7-2.2,4.1-3.3c0.3-0.2,0.7-0.3,1-0.5
			c-0.6,0.6-1.1,1.3-1.7,1.9c-0.3,0.2-0.6,0.5-1,0.7c-0.1,0.1-0.2,0.2-0.2,0.2c-0.2,0.2-0.5,0.3-0.7,0.5c-0.1,0.1-0.2,0.2-0.2,0.2
			c-0.2,0.2-0.5,0.3-0.7,0.5c0,0,0,0,0,0c-0.2,0.2-0.3,0.3-0.5,0.5C972.6,478.8,972.5,478.8,972.5,478.8z"/>
		<path class="st18" d="M963.8,500.6c-0.1-1.9-0.1-3.9-0.1-5.8c0-0.1,0.3-0.3,0.4-0.4c0,1.9,0,3.8,0,5.8c0,0.2,0,0.3,0,0.5
			C964,500.6,963.9,500.6,963.8,500.6z"/>
		<path class="st22" d="M979.4,533c-0.8-0.8-1.6-1.6-2.4-2.4C977.8,531.4,978.6,532.2,979.4,533z"/>
		<path class="st13" d="M979.9,472.8c0.3-0.3,0.6-0.6,1-1c0,0.1,0,0.2,0,0.2C980.5,472.3,980.2,472.6,979.9,472.8z"/>
		<path class="st13" d="M978.2,474c0.3-0.3,0.6-0.6,1-1c-0.1,0.2-0.2,0.3-0.2,0.5C978.7,473.7,978.5,473.9,978.2,474z"/>
		<path class="st22" d="M980.6,533.9c-0.3-0.3-0.6-0.6-1-1C980,533.3,980.3,533.6,980.6,533.9z"/>
		<path class="st22" d="M981.8,534.6c-0.3-0.2-0.6-0.5-1-0.7C981.2,534.2,981.5,534.4,981.8,534.6z"/>
		<path class="st18" d="M975.1,476.9c0.3-0.2,0.6-0.5,1-0.7C975.7,476.4,975.4,476.7,975.1,476.9z"/>
		<path class="st18" d="M980.8,472.1c0-0.1,0-0.2,0-0.2c0.2-0.2,0.3-0.3,0.5-0.5c0.2,0,0.3,0,0.5,0
			C981.5,471.6,981.2,471.9,980.8,472.1z"/>
		<path class="st18" d="M974.1,477.6c0.2-0.2,0.5-0.3,0.7-0.5C974.6,477.3,974.4,477.5,974.1,477.6z"/>
		<path class="st18" d="M978.9,473.5c0.1-0.2,0.2-0.3,0.2-0.5c0.2,0,0.3,0,0.5,0C979.4,473.2,979.2,473.4,978.9,473.5z"/>
		<path class="st18" d="M973.2,478.3c0.2-0.2,0.5-0.3,0.7-0.5C973.7,478,973.4,478.2,973.2,478.3z"/>
		<path class="st13" d="M981.8,471.4c-0.2,0-0.3,0-0.5,0c0.2-0.2,0.5-0.3,0.7-0.5c0,0.1,0,0.2,0,0.2
			C982,471.2,981.9,471.3,981.8,471.4z"/>
		<path class="st18" d="M972.7,478.8c0.2-0.2,0.3-0.3,0.5-0.5C973,478.5,972.9,478.7,972.7,478.8z"/>
		<path class="st23" d="M892.6,504.5c0.2-4.9,1.8-9.1,4-13.2c1.1-2,2-4.1,3.1-6.1c1.7-2.9,4.1-5,6.8-6.9c3.9-2.8,8.3-4.6,13-5.6
			c4.1-0.9,8.3-0.9,12.4,0.4c1.4,0.5,2.9,0.7,4.3,1.1c3.5,1.1,5.9,3.5,7.2,6.9c0.5,1.2,0.8,2.7,0.7,4c-0.2,3.2-2.5,4.8-5.9,4.2
			c-2.9-0.5-5.7-1-8.6-1.7c-3.1-0.7-6.1-0.4-9,0.7c-3,1.1-5.7,2.7-7.9,4.9c-3,3.1-4.9,6.8-5.6,11.1c-0.4,2.6-0.7,5.2-1.2,7.8
			c-0.4,1.7-1,3.4-1.7,5.1c-0.7,1.5-2.1,1.9-3.8,1.1c-3-1.5-4.9-3.9-6.4-6.8C892.7,509.2,893.1,506.7,892.6,504.5z"/>
		<path class="st24" d="M987.3,541.4c-1,0.1-1.9,0.1-2.9,0.2c-0.2,0-0.3,0-0.5,0c-0.6-1.1-0.7-2.1,0.2-3.1c1,0,1.9,0,2.9,0
			c0.4,0.2,0.8,0.4,1.3,0.4c5.2,0,10.5,0,15.7,0c0.4,0,0.9-0.3,1.3-0.4c0.5,0,1,0,1.4,0c0.5,0.1,0.9,0.3,1.4,0.4
			c0.6,0.1,1.1,0.1,1.7,0.1c0,0.1,0,0.2,0,0.3c-0.3,0.1-0.5,0.3-0.8,0.3c-4.2,0.3-8.5,0.7-12.7,1c-2.8,0.2-5.6,0.3-8.3,0.5
			C987.8,541.2,987.5,541.3,987.3,541.4z"/>
		<path class="st16" d="M1005.3,538.5c-0.4,0.1-0.9,0.4-1.3,0.4c-5.2,0-10.5,0-15.7,0c-0.4,0-0.8-0.3-1.3-0.4
			c1.3-0.1,2.6-0.2,3.8-0.3c0.6,0,1.3,0,1.9,0c0.6,0,1.3,0,1.9,0c0.3,0,0.6,0,1,0c1,0.1,1.9,0.1,2.9,0.2
			C1000.8,538.5,1003.1,538.5,1005.3,538.5z"/>
		<path class="st16" d="M984.2,538.5c-0.9,1-0.9,2-0.2,3.1c-1.9-0.3-2-0.7-1-2.2c0.1-0.2,0.2-0.4,0.3-0.6
			C983.6,538.6,983.9,538.6,984.2,538.5z"/>
		<path class="st14" d="M982.3,538.7c-0.1,0.9-0.8,0.9-1.4,1c0-0.2,0-0.3,0-0.5c0.2-0.2,0.3-0.3,0.5-0.5
			C981.6,538.7,982,538.7,982.3,538.7z"/>
		<path class="st22" d="M961,516.9c0.2,0,0.3,0,0.5,0c-0.1,0.1-0.1,0.2-0.2,0.3C961.2,517.1,961.1,517,961,516.9z"/>
		<path class="st13" d="M978.7,540.2c0,0.1,0,0.2,0,0.2c-0.1,0-0.2,0-0.2,0c-1.5,1.4-3,2.7-4.6,4.1c-1.3,1.1-2.6,2.2-3.8,3.4
			c-0.2,0.2-0.5,0.3-0.7,0.5c0.7-1,1.3-2.3,2.2-3c2.1-1.3,3.4-3.3,5.2-4.8C977.2,540.2,978,540.3,978.7,540.2z"/>
		<path class="st13" d="M980.8,539.2c0,0.2,0,0.3,0,0.5h0c-0.3,0.2-0.6,0.3-1,0.5c-0.2,0-0.3,0-0.5,0
			C979.9,539.8,980.4,539.5,980.8,539.2z"/>
		<path class="st11" d="M973.9,544.5c1.5-1.4,3-2.7,4.6-4.1C977,541.9,975.9,543.6,973.9,544.5z"/>
		<path class="st13" d="M963.4,487.4c0.2,0.8,0.3,1.6,0.5,2.4C963.7,489,963.5,488.2,963.4,487.4z"/>
		<path class="st13" d="M963.8,490.8c0,0.2,0,0.3,0,0.5c-0.1-0.1-0.2-0.2-0.3-0.3C963.7,490.9,963.7,490.9,963.8,490.8z"/>
		<path class="st13" d="M971.5,479.3c-0.2,0.2-0.5,0.3-0.7,0.5C971,479.6,971.3,479.5,971.5,479.3z"/>
		<path class="st3" d="M998.6,538.4c-1-0.1-1.9-0.1-2.9-0.2C996.7,538,997.7,537.7,998.6,538.4z"/>
		<path class="st3" d="M994.7,538.2c-0.6,0-1.3,0-1.9,0C993.5,537.5,994.1,537.5,994.7,538.2z"/>
		<path class="st14" d="M979.9,540.2c0.3-0.2,0.6-0.3,1-0.5C980.7,540.1,980.6,540.8,979.9,540.2z"/>
		<path class="st20" d="M963.8,500.6c0.1,0,0.2,0,0.2,0c0.2,1.4,0.7,2.8-0.2,4.1C963.8,503.3,963.8,502,963.8,500.6z"/>
		<path class="st18" d="M963.4,516.2c0.1-0.8,0.2-1.6,0.2-2.4C964.3,514.7,964.3,515.4,963.4,516.2z"/>
		<path class="st18" d="M963.8,509.2c-0.1-0.7-0.2-1.4-0.2-2.2c0.2,0,0.3,0,0.5,0C964,507.8,963.9,508.5,963.8,509.2z"/>
		<path class="st18" d="M963.6,513.1c0.1-0.6,0.2-1.1,0.2-1.7C964.1,512,964.3,512.6,963.6,513.1z"/>
		<path class="st20" d="M964.1,507.1c-0.2,0-0.3,0-0.5,0c0.1-0.4,0.2-0.8,0.2-1.2C963.9,506.3,964,506.7,964.1,507.1z"/>
		<path class="st18" d="M963.8,510.2c0-0.2,0-0.3,0-0.5C963.8,509.9,963.8,510,963.8,510.2z"/>
	</g>
</g>
</svg>
