<?xml version="1.0" encoding="utf-8"?>
<!-- Generator: Adobe Illustrator 24.0.0, SVG Export Plug-In . SVG Version: 6.00 Build 0)  -->
<svg version="1.1" id="Layer_1" xmlns="http://www.w3.org/2000/svg" xmlns:xlink="http://www.w3.org/1999/xlink" x="0px" y="0px"
	 viewBox="0 0 1920 1080" style="enable-background:new 0 0 1920 1080;" xml:space="preserve">
<style type="text/css">
	.st0{fill:#2600B5;}
	.st1{fill:#FCFCFD;}
	.st2{fill:#2300B2;}
	.st3{fill:#2200B1;}
	.st4{fill:#2D00B8;}
	.st5{fill:#3502C9;}
	.st6{fill:#3000C0;}
	.st7{fill:#1E00AA;}
	.st8{fill:#2E00BD;}
	.st9{fill:#3101C4;}
	.st10{fill:#2F00BF;}
	.st11{fill:#3800CE;}
	.st12{fill:#3A03CF;}
	.st13{fill:#2200B0;}
	.st14{fill:#2200AF;}
	.st15{fill:#3500C9;}
	.st16{fill:#15009B;}
	.st17{fill:#3400C6;}
	.st18{fill:#542CD3;}
	.st19{fill:#1A00A5;}
	.st20{fill:#3907CF;}
	.st21{fill:#3100C2;}
	.st22{fill:#4F27D2;}
	.st23{fill:#1900A3;}
	.st24{fill:#2200AD;}
	.st25{fill:#2600B6;}
	.st26{fill:#4B22D1;}
</style>
<g>
	<g>
		<path class="st0" d="M1036,468.3c0,47.6,0,95.2,0,142.8c-1.2,3.5-3.7,5.3-7.5,5.3c-45.1,0-90.2,0-135.2,0c-5.1,0-8-2.9-8-8
			c0-36.9,0-73.9,0-110.8c0-9,0-18,0-27.1c0-3.4,1.7-5.8,4.8-7.1c0.2-0.1,0.4-0.3,0.7-0.4c46.6,0,93.1,0,139.7,0
			c0.1,0.1,0.2,0.2,0.4,0.2C1033.5,464,1035.1,465.7,1036,468.3z M979.2,473.1c0.2-0.2,0.5-0.3,0.7-0.5c0.5-0.4,1-0.8,1.4-1.2
			c1.3-1.1,2.6-2.2,3.8-3.4c0.2,0,0.5,0,0.7,0c0.2-0.1,0.5-0.2,0.7-0.2c6.9-0.1,13.9-0.2,20.8-0.2c0.4,0.2,0.9,0.4,1.3,0.5
			c1.1,0.1,2.6-0.3,3.4,0.3c2.3,1.6,4.5,3.6,6.6,5.5c1.9,1.7,3.6,3.7,5.6,5.4c1.9,1.7,3.7,3.4,6.4,3.7c1.4,0.2,1.6,0.2,2.4-1.2
			c0.6-1,0.5-1.8-0.5-2.6c-1.4-1-2.8-2.1-4.1-3.3c-3.4-2.9-6.7-6-10.1-8.9c-1.2-1-2.2-2.6-4.2-2.3c-10,0-20.1,0-30.1,0
			c-0.5,0-1,0.1-1.5,0.2c-0.4,0-0.8,0-1.2,0c-0.8,0.3-1.8,0.4-2.4,0.9c-3.4,2.6-6.7,5.3-10,7.9c-2.2,1.7-4.5,3.4-6.7,5.2
			c-1,0.8-1.9,0.6-2.8-0.1c-3-2.2-5.9-4.4-8.9-6.6c-2.3-1.7-4.6-3.3-6.7-5.1c-1.4-1.2-2.9-1.9-4.6-2.3c-10.5,0-21.1,0-31.6,0
			c-0.1,0-0.3,0-0.4,0c-0.3,0-0.5,0-0.8,0c-0.6,0.3-1.2,0.5-1.7,0.9c-2,1.5-3.9,3.2-5.8,4.7c-3.7,2.9-7.6,5.6-10.9,9
			c-0.5,0.5-1.2,0.9-0.7,1.8c-0.1,2.2-0.1,4.5-0.2,6.7c0,9.8,0,19.6,0,29.5c0,0.5,0.1,1,0.1,1.7c0.6-0.6,0.9-1.1,1.3-1.5
			c-0.3,0.9-0.5,1.8-0.9,2.7c-0.5,1.1-0.4,2,0.5,2.8c1.1,1,2.2,2,3.3,3.1c1.4,1.4,2.8,2.9,4.3,4.3c2.8,2.6,5.6,5.1,8.3,7.7
			c0.9,0.9,1.8,1.5,3.1,1.3c-0.3,0.3-0.6,0.8-0.9,0.9c-1.6,0.3-2.4,1.7-3.4,2.6c-4.1,3.6-8.2,7.1-12.3,10.7c-2.1,1.9-3.7,3.8-3.5,7
			c0.2,5.5,0.1,11.1,0.1,16.6c0,5.5,0,10.9,0,16.5c1.3-0.5,2.4-1.9,2.4-3.1c0.1-5.6,0.1-11.2,0.3-16.7c0.1-3.6,0.3-7.2,0.5-10.7
			c0.1-0.9,0.5-1.9,1-2.5c2.1-2.2,4.3-4.3,6.6-6.4c2.4-2.2,4.9-4.2,7.3-6.3c1.5-1.4,2.8-2.9,4.2-4.4c0.6,0,1.3,0,1.9,0
			c0.5,0.1,0.9,0.2,1.4,0.2c3.7-0.1,7.4-0.3,11.1-0.5c2.2-0.1,4.4,0,6.6,0c0.7,0,1.5-0.2,2.2-0.1c1.6,0.2,3.2,0.5,4.7,0.8
			c0.4,0.1,0.8,0.1,1.1,0.3c1.2,0.7,2.4,1.4,3.6,2.1c1.7,1.1,3.5,2,4.8,3.4c3.1,3.3,5.8,7.1,9.4,9.9c0.8,0.6,1.8,1,2.8,1.5
			c0.2,0.1,0.3,0.2,0.5,0.2c0.2,0.7,0.6,1.3,0.7,2c0.2,3.1,0.4,6.3,0.5,9.4c0.1,4.2,0,8.5,0,12.7c0,1.8,0.3,3.6,0.5,5.4
			c0.1,0.7,0.4,1.4,1.3,1.4c0.9,0,1.5-0.4,1.5-1.3c0.1-0.8,0.1-1.6,0.1-2.5c0.1-1.8,0.3-3.7,0.3-5.5c-0.1-2.8-0.3-5.6-0.4-8.3
			c-0.1-2.9-0.2-5.8-0.3-8.7c0-0.3-0.1-0.5-0.2-0.8c0.1-0.6,0.2-1.1,0.2-1.7c0-0.4,0-0.8,0-1.2c0.2-0.6,0.3-1.1,0.5-1.7
			c0.4-0.2,0.8-0.4,1.1-0.7c1.1-1.2,2-2.5,3.2-3.6c4.2-4.2,8.5-8.3,12.7-12.5c0.3-0.3,0.7-0.4,1-0.5c3.3-0.2,6.7-0.3,10-0.5
			c0.4,0,0.7-0.1,1.1-0.1c3.5,0,7,0,10.5,0c1.9,0,3.8,0,5.7,0.1c1.8,0.1,3.5-0.3,5.2,1.2c4.7,4.2,9.7,8,14.5,12
			c0.8,0.7,1.6,1.1,2.7,0.3c0.4-0.3,1.1-0.2,1.6-0.5c0.3-0.1,0.7-0.6,0.7-0.7c-0.3-0.8-0.5-1.9-1.1-2.4c-2.1-1.9-4.3-3.7-6.6-5.5
			c-1.5-1.2-3.1-2.3-4.6-3.4c-2.3-1.7-4.2-3.9-6.9-5c-0.4-0.2-0.8-0.6-1.2-0.9l0,0c1.7,0.3,2.8-0.5,3.9-1.6c1.4-1.4,2.8-2.7,4.1-4.1
			c3.7-3.8,7.4-7.5,11-11.3c1.2-1.2,2.1-2.6,1.8-4.4c-0.1-0.9,0-1.9,0-2.9c0-0.7-0.2-1.4-0.3-2.2c-0.1,0-0.2,0-0.3,0
			c-0.2,0.3-0.3,0.7-0.5,1c-0.5,1-0.8,2.2-1.6,3c-1.4,1.5-3.2,2.8-4.7,4.2c-4.7,4.1-9.4,8.1-14.1,12.2c-1,0.9-2.1,1.8-3.1,2.7
			c-0.5,0-1,0-1.4,0c-3,0-5.9,0-8.9,0c-0.2,0-0.5,0-0.7,0c-0.8,0-1.6,0-2.4,0c-2.1-0.1-4.3-0.2-6.4-0.2c-2.3,0-4.7,0.1-7,0.2
			c-2.4-0.6-4.1-2.3-5.4-4c-2.1-2.7-3.6-5.8-5.3-8.7c-0.1-0.2,0.1-0.8,0.3-0.9c2-1,2.9-2.7,3.4-4.8c0.2-0.8,0.4-1.6,0.9-2.2
			c1.7-2.2,2.7-4.6,3.4-7.3c0.2-1,0.3-2,0.9-2.8c2.5-3.9,5.6-7.2,9.6-9.7c0.3-0.2,0.6-0.4,0.9-0.3c1.2,0.4,2.3,0.9,3.6,1.3
			c0.7,0.2,1.4,0.1,2.2,0.1c-0.1-0.7-0.2-1.3-0.1-2c0.1-1.1,0.3-2.1,0.4-3.1c0-0.1,0.2-0.1,0.3-0.2c1.7-0.6,3.3-1.3,5.1-1.8
			c1.4-0.4,2.9-0.7,4.2,0.6c0.4,0.4,1.2,0.4,1.8,0.5c1.1,0.2,2.2,0.2,3.3,0.4c2.2,0.4,4.2-0.2,5.9-1.5c1.8-1.4,1.9-3.7,2.4-5.8
			c0.1-0.3-0.1-0.6-0.2-0.9c-0.3-0.8-0.8-1.6-1.1-2.4c-0.8-2-1.5-4-4-4.5c-0.1,0-0.2-0.2-0.4-0.3c-1.5-1.2-3-2.2-4.8-2.9
			c-4.9-1.9-9.8-2-14.8-0.8c-2.4,0.6-4.8,1.4-7.2,2.3c-2.6,1.1-5.2,2.3-7.7,3.8c-3.4,2.1-5.9,5.1-8.2,8.4c-3.4,4.7-5.6,9.9-6.9,15.6
			c-0.2,0.8-0.2,1.7-0.2,2.5c0,3.2,0,6.4,0.1,9.7c0,0.3,0.2,0.6,0.4,0.8c1.2,1,1,2.4,1.1,3.6c-1-0.1-2-0.2-2.9-0.2
			c-0.2,0-0.3,0-0.5,0c-0.7-0.2-1.4,0.9-2.2,0c0-0.2,0-0.3,0-0.5c0.3,0,0.6,0,1,0c1.5,0.1,1.9-0.2,1.9-2c0.1-8.8,0.2-17.5,0.2-26.3
			c0-0.8,0-1.6,0-2.4v0c0.6-0.6,1.1-1.1,1.7-1.7c1-0.9,2.1-1.8,3.1-2.6c0.3-0.2,0.6-0.5,1-0.7v0c3.1-2.2,6.4-4.2,8.9-7.2
			c0,0,0,0,0,0C978.7,473.4,978.9,473.2,979.2,473.1C979.2,473.1,979.2,473.1,979.2,473.1z M940.6,614.4c0.5-0.2,1.1-0.3,1.6-0.6
			c2.2-1.7,4.5-3.3,6.6-5.1c1.6-1.3,2.9-3,4.4-4.4c1.5-1.4,3.2-2.8,4.7-4.2c0.3-0.3,0.5-0.7,0.7-1.1c0.1-0.1,0.2-0.2,0.2-0.2
			c0.7-0.4,1.5-0.9,2.2-1.3c0.5-0.4,1-0.8,1.7-0.2c2,1.8,4.1,3.5,6.1,5.4c3.1,3,6,6.2,9.1,9.3c1,1,2.5,1.7,3.7,2.5
			c0.5,0.1,1,0.2,1.4,0.2c10.6,0,21.2,0,31.9,0c0.2-0.1,0.5-0.2,0.7-0.4c1.2-1,2.3-2.1,3.4-3.2c2.4-2.5,4.6-5.1,7.1-7.5
			c2.2-2.2,4.5-4.2,6.7-6.3c1.7-1.6,2.1-4.6,0.8-7.1c-2.1,1.9-4.1,3.7-6,5.7c-3.9,4-7.5,8.4-11.8,12c-1.5,1.2-2.8,3.1-5.2,2.5
			c-0.7,0.1-1.4,0.2-2.2,0.2c-0.2,0-0.5,0-0.7,0c-0.2,0.2-0.3,0.3-0.5,0.5c-0.4,0-0.8,0-1.2,0c-0.2-0.1-0.3-0.2-0.5-0.2
			c-2.5,0-5,0-7.4,0c-2.6,0-5.1,0-7.7,0c-1.7,0-3.4,0-5,0c-1.2,0.1-2.2-0.1-3.1-0.9c-0.5-0.4-0.9-0.9-1.4-1.3
			c-2.1-1.7-4.3-3.3-6.2-5.2c-2.6-2.6-4.9-5.6-7.3-8.3c-1.3-1.5-2.8-2.8-5.1-2.1c-0.3,0.1-0.7,0-1.1,0c-0.2,0-0.3,0-0.5,0
			c-0.1-0.3-0.2-0.6-0.2-1c0-0.1,0-0.2,0-0.2c-0.2-1.5-0.4-2.9-0.5-4.4c-0.1-6.4-0.2-12.8-0.3-19.2c0-1.6-0.3-3.2-0.5-4.7
			c0-0.4-0.2-0.7-0.4-1c-0.4,0.3-0.6,0.5-0.6,0.8c-0.2,1.8-0.4,3.6-0.5,5.5c-0.1,2.8-0.2,5.7,0.1,8.4c0.5,5.1,1.1,10.1-0.1,15.1
			c-0.2,0.3-0.5,0.6-0.7,1c-2.6,2.3-5.3,4.5-7.9,6.9c-3.5,3.2-7,6.5-10.5,9.7c-0.6,0.5-1.4,1-2.2,1.1c-4.1,0.3-8.3,0.5-12.4,0.5
			c-4.8-0.1-9.6-0.4-14.4-0.7c-0.7,0-1.6-0.3-2-0.8c-2.4-2.4-4.6-4.8-6.9-7.3c-3.2-3.3-7-5.9-9.8-9.6c-0.2-0.3-0.5-0.5-0.9-0.6
			c-0.3-0.1-0.7-0.1-0.9,0c-1.6,0.8-2.2,2.8-1.1,4.1c1.5,1.8,3.2,3.5,4.8,5.1c3.1,3.1,6.3,6.1,9.4,9.2c1.4,1.4,2.9,2.6,4.8,3.2
			c0.5,0.2,1,0.5,1.5,0.5c7,0,14,0,21,0c2.9,0,5.8,0,8.7,0c0.5,0,0.9-0.2,1.4-0.2c0.1,0,0.2,0,0.2,0
			C940.1,614.4,940.4,614.4,940.6,614.4z M996.8,543.8c0,0,0,0.1,0,0.1c-1.3,0.1-2.7,0.3-4,0.3c-4.8,0.2-9.3,1.7-13.4,4.1
			c-4.6,2.7-8.4,6.3-11.1,11c-2.2,3.8-3.9,7.7-3.6,12.3c0.2,3.2,0.7,6.3,1.3,9.5c0.2,0.8,0.1,1.7,0.2,2.6c0.1,1,0.5,1.2,1.4,0.6
			c0.2-0.1,0.5-0.3,0.8-0.3c1.2-0.1,2.3,0,3.5-0.1c1.9-0.1,3.8-0.2,5.7-0.4c1.9-0.2,3.6-0.8,4.5-2.8c1.4-3.1,2.7-6.3,4.3-9.2
			c2-3.6,4.4-6.7,8.6-8c1.7-0.5,3.2-1.4,4.8-2.2c2.4-1.1,4.8-1.9,7.3-0.7c1.7,0.8,3.5,0.6,5.3,0.3c1.9-0.3,3.7-1.1,4.8-2.7
			c2.4-3.2,1.2-6.4-1.5-8.9c-2.3-2-5.5-2.6-7.7-4.8c-0.1-0.1-0.3-0.1-0.5-0.1C1003.9,544.3,1000.4,544,996.8,543.8z M998.5,609.8
			c1.9-0.1,3.9-0.2,5.8-0.3c3-0.2,5.9-1.1,8.8-2.2c3.5-1.4,6-4.2,8.7-6.6c1.8-1.6,3.4-3.6,5-5.5c1.7-2,3.5-4.2,3.7-7
			c0.4-3.9,0.5-7.9,0.6-11.8c0-2.6-1-4.8-3-6.7c-2.6-2.4-6.8-2-9,0.7c-2,2.5-1.4,5.4-1.7,8.1c-0.1,1.1,0,2.2-0.2,3.3
			c-0.8,3.9-3.2,6.9-6.2,9.4c-2.6,2.2-5.6,3.6-9,3.7c-2.8,0.1-5.7,0.2-8.5-0.1c-3.2-0.3-6.3-1.2-9-3.2c-1.1-0.8-2.4-1.3-3.8-1.7
			c-1.4-0.4-2.9-0.5-4.4-0.7c-1.8-0.2-3.3,0.5-4.3,2.1c-1.1,1.7-2,3.6-0.5,5.5c2.3,3.1,5.3,5.6,8.2,8.1c1.6,1.4,3.2,2.7,5.4,3.2
			C989.5,609.3,993.9,609.7,998.5,609.8z M994,534.1c0,0,0-0.1,0-0.1c2.2,0,4.5,0,6.7,0c1.9-0.1,3.9-0.1,5.8-0.4
			c2.8-0.5,5-1.9,7.2-3.7c4.7-3.9,9.5-7.6,13.6-12.2c1.1-1.3,1.9-3,2.3-4.7c0.7-2.6,1-5.4,1.4-8.1c0.5-3.5,0.6-7-0.7-10.3
			c-0.8-2.2-3.9-3.4-5.9-2c-1.1,0.8-2.2,1.9-2.7,3.1c-0.9,2.1-1.3,4.4-1.9,6.6c-2.1,7.7-7,12.9-14.1,16.2c-3.1,1.5-6.5,2-9.8,2.3
			c-2.8,0.2-5.6,0-8.5,0.1c-1.7,0-3.4-0.2-5.2,0.5c-2,0.8-3.1,2.3-4.3,3.9c-0.9,1.2-0.7,2.4,0.2,3.8c1.2,1.7,2.7,3,4.4,4.2
			c0.5,0.4,1.1,1,1.7,1C987.5,534.1,990.8,534.1,994,534.1z M921.2,610.8c3.9-0.2,7.5-0.6,11.2-0.6c2.7,0,5-0.9,7.1-2.5
			c2.4-2,4.7-4.1,7-6.1c1.8-1.6,3.6-3.1,5.3-4.9c1.3-1.4,2.7-2.9,3.5-4.6c1.9-4.2,1.5-8.6,0.8-13c-0.5-2.7-4.5-4.6-6.7-4.1
			c-3.4,0.7-4.8,3.2-5.8,6.2c-0.4,1.2-0.6,2.4-1.2,3.5c-2.7,4.8-6.8,8.2-11.3,11.2c-2.7,1.8-5.9,2.6-9,3.5c-2.5,0.7-5,1.4-7.4,2.4
			c-2.7,1.1-3.8,3.3-3.8,6.2c0,1.5,0.6,2.1,2.1,2.2C915.8,610.4,918.6,610.6,921.2,610.8z"/>
		<path class="st1" d="M890.8,463c-0.2,0.1-0.4,0.3-0.7,0.4c-3.2,1.2-4.8,3.7-4.8,7.1c0,9,0,18,0,27.1c0,36.9,0,73.9,0,110.8
			c0,5.1,2.9,8,8,8c45.1,0,90.2,0,135.2,0c3.8,0,6.2-1.8,7.5-5.3c0,1.8,0,3.7,0,5.5c-50.3,0-100.6,0-151,0c0-51.2,0-102.4,0-153.6
			C886.9,463,888.8,463,890.8,463z"/>
		<path class="st1" d="M1036,468.3c-0.9-2.6-2.5-4.3-5.2-5c-0.1,0-0.2-0.2-0.4-0.2c1.8,0,3.7,0,5.5,0
			C1036,464.8,1036,466.5,1036,468.3z"/>
		<path class="st2" d="M963.4,516.9c0.9,0.1,1.9,0.2,2.9,0.2c0-1.2,0.1-2.5-1.1-3.6c-0.2-0.2-0.4-0.5-0.4-0.8c0-3.2-0.1-6.4-0.1-9.7
			c0-0.8,0-1.7,0.2-2.5c1.2-5.7,3.4-10.9,6.9-15.6c2.3-3.2,4.8-6.3,8.2-8.4c2.5-1.5,5.1-2.7,7.7-3.8c2.3-1,4.7-1.7,7.2-2.3
			c5-1.2,9.9-1.1,14.8,0.8c1.8,0.7,3.3,1.8,4.8,2.9c0.1,0.1,0.2,0.3,0.4,0.3c2.4,0.5,3.2,2.5,4,4.5c0.3,0.8,0.7,1.6,1.1,2.4
			c0.1,0.3,0.3,0.6,0.2,0.9c-0.4,2.1-0.5,4.4-2.4,5.8c-1.7,1.3-3.7,1.9-5.9,1.5c-1.1-0.2-2.2-0.2-3.3-0.4c-0.6-0.1-1.4-0.1-1.8-0.5
			c-1.3-1.2-2.7-1-4.2-0.6c-1.7,0.5-3.4,1.2-5.1,1.8c-0.1,0-0.3,0.1-0.3,0.2c-0.2,1-0.4,2.1-0.4,3.1c0,0.7,0.1,1.3,0.1,2
			c-0.7,0-1.5,0.1-2.2-0.1c-1.2-0.3-2.4-0.9-3.6-1.3c-0.2-0.1-0.6,0.1-0.9,0.3c-3.9,2.5-7,5.9-9.6,9.7c-0.5,0.8-0.6,1.9-0.9,2.8
			c-0.6,2.7-1.7,5.1-3.4,7.3c-0.5,0.6-0.7,1.4-0.9,2.2c-0.5,2.1-1.4,3.8-3.4,4.8c-0.2,0.1-0.4,0.7-0.3,0.9c1.7,3,3.3,6,5.3,8.7
			c1.3,1.8,3.1,3.5,5.4,4c-0.2,0.1-0.4,0.2-0.7,0.2c-1.7,0.2-2.9-0.7-3.8-1.8c-2.2-2.7-4.2-5.5-6.4-8.3c-1.6-1.9-3.2-3.8-5-5.5
			C965.8,518.5,964.5,517.8,963.4,516.9z"/>
		<path class="st3" d="M996.8,543.8c3.6,0.2,7.1,0.4,10.7,0.7c0.2,0,0.4,0,0.5,0.1c2.2,2.2,5.4,2.8,7.7,4.8c2.7,2.4,3.9,5.7,1.5,8.9
			c-1.2,1.5-2.9,2.3-4.8,2.7c-1.8,0.3-3.5,0.5-5.3-0.3c-2.5-1.2-5-0.5-7.3,0.7c-1.6,0.8-3.1,1.7-4.8,2.2c-4.2,1.3-6.7,4.4-8.6,8
			c-1.6,3-2.9,6.1-4.3,9.2c-0.9,2-2.5,2.6-4.5,2.8c-1.9,0.2-3.8,0.3-5.7,0.4c-1.2,0.1-2.3,0-3.5,0.1c-0.3,0-0.5,0.2-0.8,0.3
			c-0.9,0.5-1.3,0.4-1.4-0.6c-0.1-0.9,0-1.8-0.2-2.6c-0.6-3.1-1.1-6.3-1.3-9.5c-0.3-4.6,1.4-8.5,3.6-12.3c2.7-4.6,6.5-8.3,11.1-11
			c4.1-2.4,8.5-3.9,13.4-4.1c1.3,0,2.7-0.2,4-0.3C996.8,543.9,996.8,543.8,996.8,543.8z"/>
		<path class="st4" d="M998.5,609.8c-4.5,0-9-0.5-13.4-1.5c-2.2-0.5-3.8-1.8-5.4-3.2c-2.9-2.5-5.9-5-8.2-8.1
			c-1.4-1.9-0.6-3.8,0.5-5.5c1-1.5,2.4-2.3,4.3-2.1c1.5,0.2,3,0.3,4.4,0.7c1.3,0.4,2.7,0.9,3.8,1.7c2.7,2,5.8,2.8,9,3.2
			c2.8,0.3,5.6,0.2,8.5,0.1c3.4-0.1,6.4-1.5,9-3.7c3-2.5,5.4-5.5,6.2-9.4c0.2-1.1,0.1-2.2,0.2-3.3c0.3-2.8-0.2-5.7,1.7-8.1
			c2.2-2.8,6.4-3.1,9-0.7c2,1.8,3.1,4.1,3,6.7c0,3.9-0.2,7.9-0.6,11.8c-0.3,2.7-2,4.9-3.7,7c-1.6,1.9-3.2,3.8-5,5.5
			c-2.7,2.4-5.2,5.2-8.7,6.6c-2.8,1.1-5.7,2-8.8,2.2C1002.4,609.6,1000.4,609.6,998.5,609.8z"/>
		<path class="st4" d="M994,534.1c-3.2,0-6.5,0-9.7,0c-0.6,0-1.1-0.6-1.7-1c-1.7-1.2-3.2-2.5-4.4-4.2c-0.9-1.3-1.1-2.5-0.2-3.8
			c1.1-1.5,2.3-3.1,4.3-3.9c1.8-0.7,3.5-0.4,5.2-0.5c2.8-0.1,5.6,0.1,8.5-0.1c3.4-0.2,6.7-0.8,9.8-2.3c7.1-3.3,12-8.5,14.1-16.2
			c0.6-2.2,1.1-4.5,1.9-6.6c0.5-1.2,1.6-2.3,2.7-3.1c2-1.4,5-0.2,5.9,2c1.3,3.4,1.2,6.9,0.7,10.3c-0.4,2.7-0.7,5.4-1.4,8.1
			c-0.4,1.7-1.2,3.4-2.3,4.7c-4.1,4.5-8.9,8.2-13.6,12.2c-2.2,1.8-4.4,3.3-7.2,3.7c-1.9,0.3-3.9,0.3-5.8,0.4c-2.2,0.1-4.5,0-6.7,0
			C994,534,994,534,994,534.1z"/>
		<path class="st4" d="M921.2,610.8c-2.6-0.2-5.4-0.4-8.3-0.7c-1.5-0.1-2-0.7-2.1-2.2c-0.1-2.9,1.1-5.1,3.8-6.2
			c2.4-0.9,4.9-1.6,7.4-2.4c3.1-0.9,6.3-1.7,9-3.5c4.4-3,8.6-6.4,11.3-11.2c0.6-1.1,0.9-2.3,1.2-3.5c1-3,2.4-5.5,5.8-6.2
			c2.2-0.5,6.3,1.4,6.7,4.1c0.7,4.4,1.1,8.8-0.8,13c-0.8,1.7-2.2,3.2-3.5,4.6c-1.6,1.7-3.5,3.3-5.3,4.9c-2.3,2.1-4.6,4.2-7,6.1
			c-2,1.6-4.4,2.5-7.1,2.5C928.7,610.2,925.1,610.6,921.2,610.8z"/>
		<path class="st5" d="M886.9,577.1c0-5.5,0.2-11.1-0.1-16.6c-0.1-3.2,1.4-5.2,3.5-7c4.1-3.6,8.2-7.1,12.3-10.7
			c1.1-1,1.9-2.3,3.4-2.6c0.3-0.1,0.6-0.6,0.9-0.9c0.2,0,0.5,0,0.7,0c0.2,0.1,0.3,0.2,0.5,0.2c-0.4,0.9,0.1,1.5,0.9,1.6
			c2.6,0.3,5.3,0.8,7.9,0.8c4.9-0.1,9.7-0.4,14.6-0.6c1.1-0.1,2.3-0.2,3.4-0.3c0.7-0.1,1-0.4,0.9-1.1c0.2,0,0.3,0,0.5,0
			c0.1,0.2,0.2,0.3,0.3,0.5c0.2,0.2,0.5,0.5,0.6,0.7c0.1,0.3,0,0.9-0.1,0.9c-0.9,0.3-1.8,0.6-2.7,0.6c-1.5,0.1-3-0.2-4.5-0.2
			c-5,0-10,0.1-14.9,0.3c-1.3,0-2.7,0.6-4,0.9c-0.6,0-1.3,0-1.9,0c-0.9-0.4-1.6-0.5-1.8,0.8c-0.1,0.5-0.5,0.9-0.9,1.2
			c-1.8,1.6-3.6,3.1-5.4,4.7c-2.6,2.3-5.2,4.6-7.9,6.7c-2,1.6-3.5,3.5-4,5.9c-0.5,2-0.4,4.1-0.6,6.2c-0.3,2.4-0.6,4.9-1,7.3
			C887.6,576.6,887.2,576.8,886.9,577.1z"/>
		<path class="st6" d="M939.2,464.7c1.7,0.4,3.2,1.1,4.6,2.3c2.1,1.9,4.5,3.4,6.7,5.1c3,2.2,5.9,4.4,8.9,6.6c0.9,0.7,1.7,1,2.8,0.1
			c2.2-1.8,4.5-3.4,6.7-5.2c3.3-2.6,6.6-5.3,10-7.9c0.7-0.5,1.6-0.6,2.4-0.9c-2.6,2.2-5.1,4.4-7.7,6.5c-3.2,2.7-6.4,5.3-9.7,7.9
			c-0.6,0.4-1.1,0.9-1.8,1.2c-2,0.9-3,2.9-2.4,4.9c0.1,0.3,0.2,0.7,0.2,1c-0.2-0.3-0.5-0.6-0.6-0.9c-0.5-1.5-1.3-2.7-3.1-3
			c-0.2,0-0.4-0.1-0.5-0.3c-3.1-1.9-6-4.2-8.7-6.6c-1.5-1.4-3.3-2.4-5-3.7c-1-0.7-2-1.6-2.9-2.4c-0.6-0.5-0.9-1.4-2-1.4
			c-6.1,0-12.3-0.1-18.4-0.2c-0.8,0-1.6,0-2.4,0c-0.4,0-0.8-0.2-1.1-0.2c0.5-0.1,0.9-0.2,1.4-0.2c3.8,0,7.5,0,11.3,0
			c1.7,0,3.3,0.2,5,0.2c1.8,0,3.6,0,5.4-0.3c1.3-0.2,1.7-1.6,0.9-2.6l0,0C939.1,464.8,939.1,464.8,939.2,464.7z"/>
		<path class="st7" d="M983,614.7c-0.5-0.1-1-0.2-1.4-0.2c-0.1-0.2-0.2-0.4-0.3-0.6c-0.7-1.4-0.5-1.8,1-2.2c0.7-0.2,1.4-0.1,2.1-0.3
			c0.4-0.1,0.7-0.3,1.1-0.5c1.7,0,3.4,0,5,0c0.3,0.2,0.6,0.4,0.9,0.5c2,0,4,0,6,0c0.3,0,0.6-0.3,0.9-0.5c2.5,0,5,0,7.4,0
			c0.2,0.1,0.3,0.2,0.5,0.2c0.4,0,0.8,0,1.2,0c0.2-0.2,0.3-0.3,0.5-0.5c0.2,0,0.5,0,0.7,0c0.8,0.3,1.5,0.6,2.2-0.2
			c2.4,0.7,3.7-1.2,5.2-2.5c4.4-3.6,7.9-7.9,11.8-12c1.9-2,3.9-3.7,6-5.7c1.3,2.5,0.9,5.5-0.8,7.1c-2.2,2.1-4.6,4.1-6.7,6.3
			c-2.4,2.4-4.7,5-7.1,7.5c-1.1,1.1-2.3,2.1-3.4,3.2c-0.2,0.2-0.5,0.2-0.7,0.4c0.1-0.7,0.3-1.3,0.4-2c0-0.4,0-1.1-0.3-1.3
			c-0.3-0.2-1-0.2-1.4-0.2c-1,0.1-1.9,0.5-2.9,0.5c-1.3,0.1-2.6,0-4,0.1c-3.5,0.2-6.9,0.5-10.4,0.5c-3.2,0.1-6.4-0.1-9.5-0.1
			c-0.8,0-1.7,0.1-2.5,0.3C983,613,982.7,613.5,983,614.7z"/>
		<path class="st8" d="M911.1,543.5c1.3-0.3,2.7-0.9,4-0.9c5-0.2,9.9-0.2,14.9-0.3c1.5,0,3,0.2,4.5,0.2c0.9,0,1.9-0.4,2.7-0.6
			c0.1,0,0.2-0.6,0.1-0.9c-0.1-0.3-0.4-0.5-0.6-0.7c0.1,0,0.2,0,0.2,0c1.7,0.5,3.5,0.5,5,1.7c3.9,3.3,7.4,7,11.8,9.7
			c1.8,1.1,3.4,2.6,5.1,3.9c0.9,0.6,1.8,1.2,2.8,0.3c1.4-1.3,2.8-2.7,4.2-4.1c1-0.9,2-1.8,3-2.7c-0.2,0.3-0.3,0.6-0.5,0.8
			c-1,1.3-2.1,2.5-3.1,3.7c-1.6,1.3-2.9,3.2-5.3,3.4c-0.1,0-0.3,0.2-0.4,0.3c-1.4,1.1-1.5,1.8-0.8,4c-0.9-0.5-2-0.9-2.8-1.5
			c-3.6-2.8-6.3-6.6-9.4-9.9c-1.3-1.4-3.2-2.3-4.8-3.4c-1.2-0.8-2.4-1.4-3.6-2.1c-0.3-0.2-0.7-0.3-1.1-0.3c-1.6-0.3-3.1-0.6-4.7-0.8
			c-0.7-0.1-1.5,0.1-2.2,0.1c-2.2,0-4.4,0-6.6,0c-3.7,0.1-7.4,0.3-11.1,0.5C912,543.8,911.6,543.6,911.1,543.5z"/>
		<path class="st9" d="M958.8,561.2c-0.7-2.2-0.6-2.9,0.8-4c0.1-0.1,0.3-0.3,0.4-0.3c2.4-0.1,3.6-2.1,5.3-3.4
			c-0.8,1-1.6,2.1-2.5,3.1c-0.4,0.4-1.1,0.7-1.6,0.7c-1.1,0.1-1.7,0.6-1.9,1.6c-0.1,0.5-0.1,1.4,0.2,1.5c1,0.5,2.2,0.7,3.3,1
			c0.1,0,0.2-0.3,0.4-0.4c3.5-4,6.9-8.2,10.4-12.1c1.4-1.6,3.2-2.9,4.9-4.2c1.2-0.9,1.2-2,1.1-3.3c0-0.4-0.1-0.7-0.2-1.1
			c0.5-0.3,1-0.6,1.4-1c0,0,0,0,0,0c0.2-0.2,0.5-0.3,0.7-0.5c0.1-0.1,0.2-0.2,0.2-0.2c0.2-0.1,0.5-0.2,0.7-0.2
			c0.2-0.1,0.5-0.2,0.7-0.2c0.2,0,0.5,0,0.7,0c0.2,0.1,0.5,0.2,0.7,0.2c-1,0.4-1.5,1.1-1.2,2.2c0.3,1,1.2,0.7,1.9,0.7
			c3.8-0.1,7.5-0.3,11.3-0.5c4.3-0.3,8.5-0.6,12.8-1c0.7-0.1,1.2-0.3,1.2-1.2c0.2,0.1,0.3,0.2,0.5,0.2c0,0.5,0.2,1.1,0,1.5
			c-0.1,0.5-0.3,1.3-0.7,1.4c-0.9,0.3-2,0.6-3,0.5c-2.1-0.1-4.3-0.5-6.4-0.6c-3.3,0-6.7,0.1-10,0.2c-2,0.1-4,0.3-5.9,0.5
			c-1.4,0.1-2.7,0.2-4.1,0.3c-0.3,0-0.5,0.3-0.7,0.5c-0.8,1-1.4,2.1-2.3,2.9c-4,3.3-7.7,6.8-10.9,10.8c-1,1.2-1.9,2.4-2.8,3.7
			c-0.2,0.6-0.3,1.1-0.5,1.7c0,0.4,0,0.8,0,1.2c-0.1,0.6-0.2,1.1-0.2,1.7c-0.2,1.4-0.7,2.9-0.7,4.3c0,2.1,0.2,4.1,0.5,6.2
			c0.6,5,0.2,10-0.1,15c0,0.4-0.5,0.7-0.8,1.1c-0.1-0.1-0.3-0.1-0.4-0.2c-0.2-2.2-0.6-4.5-0.7-6.7c-0.1-2.7,0.1-5.4,0.2-8.1
			c0-0.2,0.1-0.5,0.1-0.7c0.4-3.2,1-6.3-0.4-9.4c-0.2-0.3-0.1-0.8-0.1-1.2c0-0.8,0.1-1.5,0-2.3c-0.1-0.9-0.4-1.9-1.6-1.9
			C959.1,561.4,959,561.3,958.8,561.2z"/>
		<path class="st10" d="M1014.1,464.7c2-0.4,3,1.2,4.2,2.3c3.4,2.9,6.7,5.9,10.1,8.9c1.3,1.1,2.7,2.2,4.1,3.3c1,0.7,1.1,1.5,0.5,2.6
			c-0.8,1.4-1,1.4-2.4,1.2c-2.7-0.4-4.6-2-6.4-3.7c-1.9-1.7-3.6-3.7-5.6-5.4c-2.1-1.9-4.2-3.9-6.6-5.5c-0.8-0.6-2.2-0.2-3.4-0.3
			c-0.5,0-0.9-0.3-1.3-0.5c1.5,0,2.9,0.1,4.4,0C1014,467.2,1014.9,466.3,1014.1,464.7z"/>
		<path class="st7" d="M983.7,538.2c-0.2,0-0.5,0-0.7,0c-0.8-2.1-0.4-2.6,1.8-2.6c4.3-0.1,8.5-0.1,12.8-0.3c0.3,0,0.6-0.3,1-0.5
			c0.2,0,0.5,0,0.7,0c0.3,0.2,0.6,0.5,1,0.5c2.3,0,4.6,0,6.9,0c0.3,0,0.6-0.3,1-0.5c0.5,0,1,0,1.4,0c0.5-0.1,1.1-0.2,1.5-0.5
			c5.3-3.7,10.3-7.6,14.6-12.4c1.5-1.6,3-3.1,4.6-4.6c0.6-0.6,1.5-1.2,2.3-0.4c0.8,0.7,0.4,1.6,0,2.4c-0.5,0.8-1.2,1.6-1.8,2.3
			c-2.5,2.6-5,5.2-7.5,7.7c-1.8,1.8-3.6,3.6-5.5,5.3c-1.4,1.2-2.9,2.3-4.3,3.5c0,0,0,0,0,0c-0.2,0-0.3,0-0.5,0
			c0.2-0.3,0.4-0.7,0.7-1c0.6-0.7,1.3-1.3,1.9-1.9c-1.6,0-3.2-0.1-4.7-0.1c-0.1,0-0.2,0-0.3,0.1c-1.6,0.9-3.4,0.8-5.2,0.8
			c-4.7,0-9.4,0.1-14.1,0.2c-2,0-4,0-5.9,0C983.5,536.3,983.3,536.6,983.7,538.2z"/>
		<path class="st11" d="M960,486.5c-0.1-0.3-0.1-0.7-0.2-1c-0.6-2.1,0.4-4.1,2.4-4.9c0.6-0.3,1.2-0.7,1.8-1.2
			c3.2-2.6,6.5-5.3,9.7-7.9c2.6-2.1,5.2-4.3,7.7-6.5c0.4,0,0.8,0,1.2,0c0,0,0,0,0,0c0,0.2,0,0.3,0,0.5c0.1,0.2,0.2,0.3,0.2,0.5
			c0.1,0.2,0.2,0.3,0.2,0.5c0.4,0.5,0.8,1,1.2,1.4c-0.4,0.1-0.9,0.2-1.2,0.4c-3.5,2.8-7.1,5.6-10.6,8.4c-3.2,2.5-6.3,5.1-9.5,7.6
			c-0.2,0.2-0.5,0.5-0.5,0.8c-0.2,1.5-0.4,3.1-0.5,4.6c-0.2,2.4-0.3,4.8-0.5,7.1c0,0.4-0.3,0.8-0.5,1.4c-0.4-0.8-0.7-1.3-0.9-1.8
			c0-1.8,0-3.7,0-5.5c0.7-0.3,0.7-0.6,0-1C960,488.7,960,487.6,960,486.5z"/>
		<path class="st8" d="M1013,538.2c0.2,0,0.3,0,0.5,0c0.4,0.3,0.8,0.7,1.2,0.9c2.7,1.1,4.6,3.3,6.9,5c1.5,1.1,3.1,2.2,4.6,3.4
			c2.2,1.8,4.5,3.6,6.6,5.5c0.6,0.6,0.8,1.6,1.1,2.4c0.1,0.2-0.4,0.6-0.7,0.7c-0.5,0.2-1.2,0.2-1.6,0.5c-1,0.8-1.9,0.4-2.7-0.3
			c-4.9-4-9.8-7.9-14.5-12c-1.7-1.5-3.4-1.1-5.2-1.2c-1.9-0.1-3.8-0.1-5.7-0.1c-3.5,0-7,0-10.5,0c-0.4,0-0.7,0-1.1,0.1
			c-3.3,0.2-6.7,0.3-10,0.5c-0.4,0-0.8,0.2-1,0.5c-4.3,4.1-8.5,8.3-12.7,12.5c-1.1,1.1-2.1,2.4-3.2,3.6c-0.3,0.3-0.7,0.5-1.1,0.7
			c0.9-1.2,1.8-2.5,2.8-3.7c3.3-4,7-7.5,10.9-10.8c0.9-0.8,1.6-1.9,2.3-2.9c0.2-0.2,0.4-0.5,0.7-0.5c1.4-0.1,2.7-0.2,4.1-0.3
			c2-0.1,4-0.4,5.9-0.5c3.3-0.1,6.7-0.3,10-0.2c2.1,0,4.3,0.5,6.4,0.6c1,0,2.1-0.2,3-0.5c0.4-0.1,0.6-0.9,0.7-1.4c0.1-0.5,0-1,0-1.5
			c0.3-0.2,0.6-0.3,1-0.5c0.1-0.1,0.2-0.2,0.2-0.2C1012.5,538.2,1012.7,538.2,1013,538.2z M1014.3,542.5c1.7,1.3,3.5,2.6,5.1,3.9
			c1.3,1.1,2.5,2.3,3.8,3.4c1.5,1.3,2.9,2.6,4.4,3.8c0.9,0.7,1.8,1.4,2.8,1.9c0.4,0.2,1.1-0.1,1.5-0.4c0.2-0.2,0.1-1-0.2-1.3
			c-0.8-0.9-1.7-1.8-2.7-2.6c-2.5-2.1-5.1-4.1-7.6-6.1c-1.2-1-2.5-1.8-3.7-2.9C1016.3,541.1,1015.7,541.1,1014.3,542.5z"/>
		<path class="st12" d="M939.1,464.9c0.8,1,0.3,2.4-0.9,2.6c-1.8,0.2-3.6,0.3-5.4,0.3c-1.7,0-3.3-0.2-5-0.2c-3.8,0-7.5,0-11.3,0
			c-0.5,0-0.9,0.1-1.4,0.2c-0.3,0-0.6,0-1,0c-1.4,0-2.7,0-4.1,0c-0.5,0-1,0-1.4,0c-0.6,0.1-1.3,0.1-1.7,0.4
			c-1.9,1.5-3.6,3.1-5.4,4.6c-2.9,2.5-5.8,4.9-8.6,7.5c-1.9,1.7-3.8,3.4-4.3,6.1c-0.2,1-0.8,1.4-1.8,1.2c0.1-2.2,0.1-4.5,0.2-6.7
			c1.1-0.8,2.3-1.5,3.4-2.4c4.6-3.6,9.1-7.1,13.6-10.8c1-0.8,2.2-1.6,2.1-3.1c0.3,0,0.5,0,0.8,0c0.4,1.3,1.7,2.1,3.3,2.1
			c2.9,0,5.7-0.2,8.6-0.2c6.2-0.1,12.3-0.2,18.5-0.2C938.6,466.4,939,465.9,939.1,464.9z"/>
		<path class="st13" d="M985.4,610.9c-0.4,0.2-0.7,0.4-1.1,0.5c-0.7,0.1-1.4,0.1-2.1,0.3c-1.5,0.4-1.6,0.9-1,2.2
			c0.1,0.2,0.2,0.4,0.3,0.6c-1.2-0.8-2.7-1.4-3.7-2.5c-3.1-3-6-6.2-9.1-9.3c-1.9-1.9-4-3.6-6.1-5.4c-0.7-0.6-1.1-0.2-1.7,0.2
			c-0.7,0.5-1.5,0.9-2.2,1.3c0.5-0.5,1.1-1,1.6-1.5c1.6-1.4,1.5-1.3,3.2,0c0.8,0.6,1.5,1.5,2.9,1.1c-0.4-1.1-0.6-2.3-1.2-3.1
			c-0.6-1-1.4-2.1-3-1.4c-0.7,0.3-1-0.2-1.1-0.8c0.4,0,0.7,0.1,1.1,0c2.3-0.8,3.7,0.6,5.1,2.1c2.5,2.8,4.7,5.7,7.3,8.3
			c1.9,1.9,4.1,3.5,6.2,5.2c0.5,0.4,1,0.8,1.4,1.3C983.2,610.8,984.2,611,985.4,610.9z"/>
		<path class="st14" d="M907,614.2c-1.9-0.6-3.4-1.8-4.8-3.2c-3.1-3.1-6.3-6.1-9.4-9.2c-1.7-1.7-3.3-3.3-4.8-5.1
			c-1.1-1.3-0.5-3.4,1.1-4.1c0.3-0.1,0.6-0.1,0.9,0c0.3,0.1,0.7,0.3,0.9,0.6c2.9,3.6,6.6,6.3,9.8,9.6c2.3,2.4,4.6,4.9,6.9,7.3
			c0.5,0.5,1.3,0.8,2,0.8c4.8,0.3,9.6,0.7,14.4,0.7c4.1,0,8.3-0.2,12.4-0.5c0.8,0,1.6-0.5,2.2-1.1c3.5-3.2,7-6.5,10.5-9.7
			c2.6-2.3,5.3-4.6,7.9-6.9c-0.4,0.6-0.6,1.4-1.1,1.9c-5,4.6-10.1,9.2-15.1,13.7c-2.1,1.8-4.4,3.2-7.3,2.9c-0.3,0-0.6,0.3-0.9,0.5
			c-0.7-0.1-1.4-0.2-2.2-0.2c-0.8,0-1.6,0-2.4,0c-0.6,0-1.1,0-1.7,0c-0.4,0-0.8,0-1.2,0c-3.8,0-7.6,0.4-11.3-0.4
			c-0.1,0-0.3,0.1-0.4,0.2c-1.1-0.2-2.2-0.3-3.4-0.5c-0.8,0.1-1.6,0.2-2.4,0.2c-0.8,0.3-1.2,0-1.4-0.7c-0.2-0.7-0.6-1.3-1-1.9
			c-0.4-0.5-0.9-0.9-1.4-1.4c-1.5-1.6-3-3.4-4.6-4.9c-2.1-2.1-4.4-4-6.6-6c-0.9-0.8-1.7-1.6-2.6-2.4c-0.4-0.4-0.8-0.8-1.4-0.1
			c-0.6,0.6-0.8,1.2-0.3,1.8c0.9,0.9,1.8,1.7,2.8,2.6c0.3,0.3,0.9,0.5,1,0.8c0.6,1.8,2,3,3.5,3.9c1.5,0.9,2.9,1.9,4.1,3.2
			c1.5,1.6,2.9,3.1,4.4,4.6c0.9,0.8,1.9,1.5,2.9,2.3C907,613.6,907,613.9,907,614.2z"/>
		<path class="st7" d="M932.7,612.3c0.3-0.2,0.6-0.5,0.9-0.5c2.9,0.3,5.3-1,7.3-2.9c5.1-4.5,10.1-9.1,15.1-13.7
			c0.5-0.5,0.7-1.3,1.1-1.9c0.2-0.3,0.5-0.6,0.7-1c0,0,0.1,0,0.1,0l0.1,0c0.8-0.1,1.6-0.2,2.4-0.2c0.1,0.3,0.2,0.6,0.2,1
			c-0.4,1-0.6,2-1.2,2.9c-0.7,1-1.7,1.8-2.4,2.8c-1.1,1.4-2.2,2.8-3.3,4.2h0c-0.3,0.2-0.6,0.5-1,0.7c-0.1,0.1-0.2,0.2-0.2,0.2
			c-0.4,0.2-0.8,0.2-1,0.5c-2.6,2.1-5.3,4.1-7.8,6.3c-1.4,1.2-2.6,2.5-3.9,3.8c-0.1,0-0.2,0-0.2,0c0-0.3,0-0.6,0-1
			c0.2-0.5,0.4-1,0.6-1.5c-0.6-0.2-1.2-0.6-1.7-0.5c-0.6,0.1-1.2,0.6-1.7,0.9c-0.2,0-0.3,0-0.5,0
			C935.1,612.3,933.9,612.3,932.7,612.3z"/>
		<path class="st15" d="M886.9,487.7c1,0.1,1.6-0.2,1.8-1.2c0.5-2.7,2.4-4.4,4.3-6.1c2.8-2.6,5.8-5,8.6-7.5c1.8-1.6,3.6-3.2,5.4-4.6
			c0.4-0.3,1.1-0.3,1.7-0.4c-2.4,2.1-4.8,4.3-7.2,6.4c-1.4,1.2-2.9,2.5-4.3,3.7c-0.9,0.7-1.8,1.4-2.6,2.2l0,0
			c-2.6,1.5-4.4,3.6-4.8,6.6c-0.3,2.4-0.4,4.9-0.5,7.4c-0.1,2.2-0.1,4.5-0.1,6.7c0,2.3-0.1,4.5,0,6.8c0,2.2,0.3,4.4,0.3,6.7
			c0,1.9-1,2.9-2.6,3C886.9,507.3,886.9,497.5,886.9,487.7z"/>
		<path class="st16" d="M983,614.7c-0.3-1.2,0-1.7,1.3-2c0.8-0.2,1.7-0.3,2.5-0.3c3.2,0,6.4,0.2,9.5,0.1c3.5-0.1,6.9-0.4,10.4-0.5
			c1.3-0.1,2.6,0,4-0.1c1-0.1,1.9-0.4,2.9-0.5c0.5-0.1,1.1-0.1,1.4,0.2c0.3,0.2,0.3,0.8,0.3,1.3c0,0.7-0.2,1.3-0.4,2
			C1004.2,614.7,993.6,614.7,983,614.7z"/>
		<path class="st14" d="M998.6,534.9c-0.3,0.2-0.6,0.4-1,0.5c-4.3,0.1-8.5,0.2-12.8,0.3c-2.2,0-2.7,0.6-1.8,2.6
			c-0.2,0.1-0.5,0.2-0.7,0.2c-0.4-0.1-0.8-0.2-1.2-0.3c-0.6-0.1-1.2,0.1-1.7-0.1c-1.1-0.6-2.2-1.3-3.1-2.1c-1.3-1.2-2.6-2.5-3.9-3.7
			c0.7,0,0.8-0.4,0.6-1c-0.3-0.8-0.7-1.6-0.7-2.4c-0.1-3.3-2.7-5.1-4.6-7.2c-0.8-0.8-1.7-1.6-2.4-2.5c-1.1-1.4-2.9-1.6-4.2-0.4
			c-0.7,0.6-0.7,1,0,1.8c0.9,0.9,1.5,2,2.3,3c-0.7-0.5-1.3-1-2-1.4c-0.8-0.5-1.7-0.9-2.6-1.3c0.2-0.3,0.3-0.6,0.5-0.8
			c0.6-0.6,0.7-1.3,0.3-2.1c0.3-0.6,0.6-1.1,1-1.7c0.1,0,0.2,0,0.2,0c0,0.2,0,0.3,0,0.5c0.1,0.3,0.2,0.6,0.2,0.9
			c0.6-0.3,1.3-0.6,1.9-0.9c0.2,0,0.3,0,0.5,0c1.2,0.9,2.4,1.6,3.5,2.6c1.8,1.8,3.4,3.6,5,5.5c2.2,2.7,4.2,5.6,6.4,8.3
			c0.9,1.1,2.2,2,3.8,1.8c0.2,0,0.4-0.1,0.7-0.2c2.3-0.1,4.7-0.2,7-0.2c2.1,0,4.3,0.1,6.4,0.2C997,534.9,997.8,534.9,998.6,534.9z"
			/>
		<path class="st8" d="M886.9,577.1c0.2-0.2,0.7-0.5,0.7-0.7c0.4-2.4,0.7-4.9,1-7.3c0.2-2.1,0.2-4.2,0.6-6.2c0.6-2.4,2.1-4.3,4-5.9
			c2.7-2.2,5.3-4.5,7.9-6.7c1.8-1.6,3.6-3.1,5.4-4.7c0.4-0.3,0.8-0.8,0.9-1.2c0.2-1.3,0.9-1.2,1.8-0.8c-1.4,1.5-2.7,3-4.2,4.4
			c-2.4,2.2-4.9,4.2-7.3,6.3c-2.3,2.1-4.5,4.2-6.6,6.4c-0.6,0.6-1,1.6-1,2.5c-0.3,3.6-0.4,7.1-0.5,10.7c-0.1,5.6-0.2,11.2-0.3,16.7
			c0,1.2-1,2.6-2.4,3.1C886.9,588,886.9,582.5,886.9,577.1z"/>
		<path class="st13" d="M907.8,539.2c-0.2,0-0.5,0-0.7,0c-1.3,0.2-2.2-0.4-3.1-1.3c-2.7-2.6-5.6-5.1-8.3-7.7
			c-1.5-1.4-2.9-2.9-4.3-4.3c-1.1-1.1-2.2-2.1-3.3-3.1c-0.9-0.8-1-1.7-0.5-2.8c0.4-0.9,0.6-1.8,0.9-2.7c0.2-0.2,0.5-0.3,0.7-0.5
			c0.9,0.8,1.8,1.5,2.6,2.3c1.2,1.1,2.2,2.4,3.4,3.6c1.5,1.4,3.1,2.6,4.5,4.1c1.8,2,3.4,4.2,5.1,6.3c1.5,1.8,2.6,4.1,5.7,3.2
			c0,0,0.1,0,0.1,0.1c-0.5,0.3-1,0.6-1.5,0.8C907.8,537.5,907.2,538,907.8,539.2z M888.9,517.8c-0.5,1.2-0.8,2.1-1.1,2.9
			c-0.1,0.2,0,0.5,0.2,0.6c0.5,0.6,1,1.2,1.6,1.8c1.5,1.5,3,3,4.5,4.4c2.1,2,4.2,4,6.3,6c0.1,0.1,0.5,0.2,0.6,0.2
			c0.2-0.2,0.3-0.5,0.3-0.7c-0.1-0.5-0.4-1.1-0.4-1.6c0.1-2-1.1-3.2-2.4-4.4c-2-1.7-3.8-3.5-5.7-5.4
			C891.5,520.4,890.3,519.2,888.9,517.8z"/>
		<path class="st17" d="M960.7,516.4c-0.1,0-0.2,0-0.2,0c-0.1-0.2-0.2-0.3-0.2-0.5c0-1.2,0-2.5,0-3.7c0-2.4,0-4.7,0-7.1
			c0-0.5,0-0.9,0-1.4c-0.1-1.4-0.2-2.7-0.2-4.1c0-1.1,0-2.2,0-3.4c0.3,0.5,0.5,1,0.9,1.8c0.2-0.6,0.4-1,0.5-1.4
			c0.2-2.4,0.3-4.8,0.5-7.1c0.1-1.5,0.3-3.1,0.5-4.6c0-0.3,0.3-0.6,0.5-0.8c3.1-2.6,6.3-5.1,9.5-7.6c3.5-2.8,7-5.6,10.6-8.4
			c0.3-0.2,0.8-0.3,1.2-0.4c0,0.1,0,0.2,0,0.2c-0.7,0.7-1.4,1.4-2.2,2.2c-0.5,0.4-1,0.8-1.4,1.2c-0.2,0.2-0.3,0.3-0.5,0.5
			c-0.3,0.2-0.6,0.5-1,0.7c0,0.2,0,0.3,0,0.5c0,0,0,0,0,0c-0.2,0.2-0.5,0.3-0.7,0.5c0,0,0,0,0,0c-0.3,0.1-0.6,0.2-1,0.2
			c-0.8,0.6-1.6,1.3-2.4,1.9c0,0,0,0,0,0c-0.4,0.2-0.8,0.2-1.1,0.5c-3.1,2.6-6.3,5.1-9.4,7.7c-0.6,0.5-0.9,1.4-1.3,2.1
			c-0.1,0.4-0.2,0.8-0.2,1.2c-0.2,0.4-0.4,0.8-0.5,1.2c-0.2,2.6-0.4,5.1-0.5,7.7c0,1.3,0.1,2.7,0.2,4c0,0.6,0,1.1,0,1.7
			c-0.1,0.1-0.4,0.2-0.4,0.4c0,1.5,0,3,0,4.5c0,0.1,0.3,0.3,0.4,0.4c0,0.3,0,0.6,0,1c-0.2,0.2-0.5,0.5-0.4,0.7
			c0,1.6,0.2,3.1,0.2,4.7c0,0.9-0.2,1.8-0.3,2.7c-0.1,0.1-0.2,0.2-0.2,0.2C961.4,516.4,961,516.4,960.7,516.4z"/>
		<path class="st14" d="M1013.4,538.2c1.4-1.2,2.9-2.2,4.3-3.5c1.9-1.7,3.7-3.5,5.5-5.3c2.5-2.5,5-5.1,7.5-7.7
			c0.7-0.7,1.3-1.5,1.8-2.3c0.5-0.7,0.9-1.7,0-2.4c-0.9-0.8-1.7-0.2-2.3,0.4c-1.6,1.5-3.1,3-4.6,4.6c-4.4,4.8-9.4,8.8-14.6,12.4
			c-0.4,0.3-1,0.3-1.5,0.5c1-0.9,2.1-1.8,3.1-2.7c4.7-4.1,9.4-8.1,14.1-12.2c1.6-1.4,3.3-2.7,4.7-4.2c0.8-0.8,1.1-2,1.6-3
			c0.2-0.3,0.3-0.7,0.5-1c0.1,0,0.2,0,0.3,0c0.1,0.7,0.3,1.4,0.3,2.2c0.1,1-0.1,1.9,0,2.9c0.3,1.9-0.6,3.2-1.8,4.4
			c-3.7,3.8-7.3,7.5-11,11.3c-1.4,1.4-2.8,2.7-4.1,4.1C1016.2,537.7,1015.1,538.6,1013.4,538.2z"/>
		<path class="st18" d="M939.1,464.9c-0.1,1-0.5,1.4-1.6,1.5c-6.2,0-12.3,0.1-18.5,0.2c-2.9,0-5.7,0.2-8.6,0.2
			c-1.7,0-2.9-0.8-3.3-2.1c0.1,0,0.3,0,0.4,0c0.5,0.1,1,0.2,1.5,0.2C919.1,464.9,929.1,464.9,939.1,464.9
			C939.1,464.9,939.1,464.9,939.1,464.9z"/>
		<path class="st13" d="M958.1,592.4l-0.1,0c0,0-0.1,0-0.1,0c1.2-5,0.6-10.1,0.1-15.1c-0.3-2.8-0.1-5.6-0.1-8.4
			c0-1.8,0.3-3.6,0.5-5.5c0-0.3,0.2-0.5,0.6-0.8c0.1,0.3,0.3,0.7,0.4,1c0.2,1.6,0.4,3.2,0.5,4.7c0.1,6.4,0.2,12.8,0.3,19.2
			c0,1.5,0.3,2.9,0.5,4.4C959.6,591.6,958.7,591.2,958.1,592.4z"/>
		<path class="st10" d="M889.1,516.9c-0.2,0.2-0.5,0.3-0.7,0.5c-0.4,0.4-0.8,0.9-1.3,1.5c-0.1-0.7-0.1-1.2-0.1-1.7
			c1.6-0.2,2.6-1.2,2.6-3c0-2.2-0.2-4.4-0.3-6.7c-0.1-2.3,0-4.5,0-6.8c0-2.2,0-4.5,0.1-6.7c0.1-2.5,0.2-4.9,0.5-7.4
			c0.4-3,2.2-5.1,4.8-6.6c-0.7,0.8-1.4,1.5-2,2.3c-0.6,0.9-1.3,1.8-1.4,2.8c-0.3,2.6-0.2,5.3-0.3,7.9c-0.1,2.6-0.2,5.2-0.2,7.7
			c-0.1,4.4-0.2,8.7-0.2,13.1C890.5,515.2,890.1,516.2,889.1,516.9z"/>
		<path class="st8" d="M959.3,561.5c1.3,0,1.5,0.9,1.6,1.9c0.1,0.7,0,1.5,0,2.3c0,0.4,0,0.8,0.1,1.2c1.4,3.1,0.8,6.2,0.4,9.4
			c0,0.2-0.1,0.5-0.1,0.7c-0.1,2.7-0.3,5.4-0.2,8.1c0.1,2.2,0.4,4.5,0.7,6.7c0.1,0.1,0.3,0.1,0.4,0.2c0.3-0.4,0.7-0.7,0.8-1.1
			c0.3-5,0.7-10,0.1-15c-0.2-2-0.5-4.1-0.5-6.2c0-1.4,0.4-2.9,0.7-4.3c0.1,0.3,0.2,0.5,0.2,0.8c0.1,2.9,0.1,5.8,0.3,8.7
			c0.1,2.8,0.4,5.5,0.4,8.3c0,1.8-0.2,3.6-0.3,5.5c0,0.8,0,1.6-0.1,2.5c-0.1,0.9-0.6,1.3-1.5,1.3c-1,0-1.3-0.7-1.3-1.4
			c-0.2-1.8-0.5-3.6-0.5-5.4c-0.1-4.2,0-8.5,0-12.7c-0.1-3.1-0.3-6.3-0.5-9.4C959.9,562.8,959.5,562.2,959.3,561.5z"/>
		<path class="st19" d="M932.7,612.3c1.2,0,2.4,0,3.6,0c-0.4,0.2-0.7,0.4-1.1,0.5c-1.5,0.2-3,0.3-4.4,0.7c-0.5,0.1-0.8,0.8-1.2,1.2
			c-7,0-14,0-21,0c-0.5,0-1-0.3-1.5-0.5c0-0.3,0-0.6,0-1c0.2-0.6,0.5-1.1,0.7-1.7c0.8-0.1,1.6-0.2,2.4-0.2c0.7,0.3,1.4,0.7,2.2,0.9
			c2.5,0.5,5,1.3,7.6,1.4c2.2,0.1,4.5-0.6,6.7-0.9c0.2,0,0.3-0.3,0.5-0.4c0.3,0,0.6,0,1,0c0.8,0.3,1.7,0.6,2.4-0.2
			C931.2,612.1,932,612.2,932.7,612.3z"/>
		<path class="st20" d="M984.2,468c0-0.1,0-0.2,0-0.2c-0.4-0.5-0.8-1-1.2-1.4c2.5,1.3,5.1,0.6,7.7,0.3c0.2,0,0.3,0,0.5,0
			c6.4,0.1,12.9,0.2,19.3,0.2c1.5,0,1.7-0.2,1.5-1.9c-5.5,0-11,0-16.6,0c-4.1,0-8.1,0-12.2,0c-0.2,0-0.5,0-0.7,0c0,0,0,0,0,0
			c0.5-0.1,1-0.2,1.5-0.2c10,0,20.1,0,30.1,0c0.7,1.6-0.1,2.6-2.3,2.8c-1.4,0.2-2.9,0-4.4,0c-6.9,0.1-13.9,0.2-20.8,0.2
			c-0.2,0.1-0.5,0.2-0.7,0.2c-0.2,0-0.5,0-0.7,0C984.8,468,984.5,468,984.2,468z"/>
		<path class="st21" d="M906.3,464.7c0.1,1.6-1.2,2.3-2.1,3.1c-4.5,3.6-9.1,7.2-13.6,10.8c-1.1,0.9-2.3,1.6-3.4,2.4
			c-0.5-0.9,0.3-1.3,0.7-1.8c3.3-3.4,7.2-6.1,10.9-9c2-1.5,3.9-3.2,5.8-4.7C905.1,465.2,905.8,465,906.3,464.7z"/>
		<path class="st14" d="M953.8,602.9c1.1-1.4,2.2-2.8,3.3-4.2c0.8-0.9,1.8-1.7,2.4-2.8c0.6-0.9,0.8-1.9,1.2-2.9c0.2,0,0.3,0,0.5,0
			c0.1,0.6,0.4,1.2,1.1,0.8c1.6-0.7,2.4,0.4,3,1.4c0.6,0.9,0.8,2,1.2,3.1c-1.4,0.4-2.1-0.6-2.9-1.1c-1.7-1.3-1.6-1.4-3.2,0
			c-0.6,0.5-1.1,1-1.6,1.5c-0.1,0.1-0.2,0.2-0.2,0.2c-0.5,0.3-1,0.7-1.4,1.1C956,601.1,954.9,602,953.8,602.9z"/>
		<path class="st8" d="M962.4,501.8c0-0.6,0-1.1,0-1.7c0.1-0.2,0.2-0.4,0.2-0.5c0.3-2.2,0.6-4.3,0.7-6.5c0.1-2-0.1-3.9-0.2-5.9
			c0.1-0.4,0.2-0.8,0.2-1.2c0.2-0.1,0.3-0.2,0.5-0.2c0,0.8,0,1.6,0,2.4c-0.1,8.8-0.2,17.5-0.2,26.3c0,1.8-0.4,2.2-1.9,2
			c0.1-0.1,0.2-0.2,0.2-0.2c0.4-0.5,1.1-1.1,1.1-1.6c-0.1-2.2-0.4-4.4-0.6-6.6c0-0.3,0-0.6,0-1C962.4,505.3,962.4,503.6,962.4,501.8
			z"/>
		<path class="st16" d="M929.6,614.7c0.4-0.4,0.7-1.1,1.2-1.2c1.5-0.3,3-0.4,4.4-0.7c0.4-0.1,0.7-0.3,1.1-0.5c0.2,0,0.3,0,0.5,0
			c0.2,0.1,0.5,0.3,0.6,0.2c1.1-0.4,1.7,0.1,2.2,1c0,0.3,0,0.6,0,1c-0.5,0.1-0.9,0.2-1.4,0.2C935.4,614.7,932.5,614.7,929.6,614.7z"
			/>
		<path class="st13" d="M953.8,602.9c1.1-0.9,2.3-1.9,3.4-2.8c0.5-0.4,0.9-0.7,1.4-1.1c-0.2,0.4-0.4,0.8-0.7,1.1
			c-1.6,1.4-3.2,2.7-4.7,4.2c-1.5,1.4-2.8,3.1-4.4,4.4c-2.1,1.8-4.4,3.4-6.6,5.1c-0.4,0.3-1,0.4-1.6,0.6c0.6-0.6,1.3-1.2,1.9-1.7
			c3.6-2.7,7.1-5.5,10-8.9c0.1-0.1,0.2-0.2,0.2-0.2C953.1,603.4,953.5,603.2,953.8,602.9L953.8,602.9z"/>
		<path class="st14" d="M952.6,603.9c-3,3.4-6.5,6.2-10,8.9c-0.7,0.5-1.3,1.1-1.9,1.7c-0.2,0-0.5,0-0.7,0c1.3-1.3,2.5-2.6,3.9-3.8
			c2.5-2.2,5.2-4.2,7.8-6.3C951.8,604.1,952.2,604.1,952.6,603.9z"/>
		<path class="st21" d="M963.8,485.8c-0.2,0.1-0.3,0.2-0.5,0.2c0.4-0.7,0.7-1.6,1.3-2.1c3.1-2.6,6.2-5.2,9.4-7.7
			c0.3-0.2,0.7-0.3,1.1-0.5c-1,0.8-2,1.7-2.9,2.5c-0.9,0.8-1.7,1.7-2.6,2.5c0,0,0,0,0,0c-0.3,0.2-0.6,0.5-1,0.7
			c-1,0.9-2.1,1.8-3.1,2.6C965,484.6,964.4,485.2,963.8,485.8C963.8,485.8,963.8,485.8,963.8,485.8z"/>
		<path class="st12" d="M939.1,464.9c-10,0-20.1,0-30.1,0c-0.5,0-1-0.1-1.5-0.2c10.5,0,21.1,0,31.6,0
			C939.1,464.8,939.1,464.8,939.1,464.9z"/>
		<path class="st8" d="M969.6,480.7c0.9-0.8,1.7-1.7,2.6-2.5c1-0.9,2-1.7,2.9-2.5c0,0,0,0,0,0c0.8-0.6,1.6-1.3,2.4-1.9
			c0.3-0.1,0.6-0.2,1-0.2C975.9,476.5,972.7,478.5,969.6,480.7z"/>
		<path class="st14" d="M1008.2,534.9c-0.3,0.2-0.6,0.5-1,0.5c-2.3,0-4.6,0-6.9,0c-0.3,0-0.6-0.3-1-0.5
			C1002.3,534.9,1005.2,534.9,1008.2,534.9z"/>
		<path class="st13" d="M998.1,610.9c-0.3,0.2-0.6,0.4-0.9,0.5c-2,0-4,0-6,0c-0.3,0-0.6-0.3-0.9-0.5
			C993,610.9,995.5,610.9,998.1,610.9z"/>
		<path class="st8" d="M984.2,468c0.3,0,0.6,0,1,0c-1.3,1.1-2.6,2.2-3.8,3.4c0,0,0,0,0,0c0.2-0.4,0.5-0.8,0.7-1.2
			C982.8,469.5,983.5,468.7,984.2,468z"/>
		<path class="st2" d="M962.9,516.9c-0.6,0.3-1.3,0.6-1.9,0.9c-0.1-0.3-0.2-0.6-0.2-0.9C961.4,517.8,962.2,516.7,962.9,516.9z"/>
		<path class="st14" d="M958.1,592.4c0.6-1.1,1.5-0.8,2.4-0.5c0,0.1,0,0.2,0,0.2C959.7,592.2,958.9,592.3,958.1,592.4z"/>
		<path class="st8" d="M963.8,485.8c0.6-0.6,1.1-1.1,1.7-1.7C965,484.6,964.4,485.2,963.8,485.8z"/>
		<path class="st13" d="M1010.6,610.4c-0.6,0.8-1.4,0.5-2.2,0.2C1009.1,610.5,1009.8,610.5,1010.6,610.4z"/>
		<path class="st8" d="M980.1,471.9c0.2-0.2,0.3-0.3,0.5-0.5c0.2,0,0.5,0,0.7,0c0,0,0,0,0,0c-0.5,0.4-1,0.8-1.4,1.2c0,0,0,0,0,0
			C980,472.3,980,472.1,980.1,471.9z"/>
		<path class="st8" d="M963.6,563.6c0-0.4,0-0.8,0-1.2C963.6,562.8,963.6,563.2,963.6,563.6z"/>
		<path class="st8" d="M968.6,481.5c0.3-0.2,0.6-0.5,1-0.7C969.3,481,968.9,481.2,968.6,481.5z"/>
		<path class="st8" d="M985.9,468c0.2-0.1,0.5-0.2,0.7-0.2C986.4,467.9,986.1,468,985.9,468z"/>
		<path class="st8" d="M978.5,473.5c0.2-0.2,0.5-0.3,0.7-0.5C978.9,473.2,978.7,473.4,978.5,473.5z"/>
		<path class="st8" d="M979.2,473.1c0-0.2,0-0.3,0-0.5c0.2,0,0.5,0,0.7,0c0,0,0,0,0,0C979.6,472.7,979.4,472.9,979.2,473.1z"/>
		<path class="st13" d="M1006,611.1c-0.2-0.1-0.3-0.2-0.5-0.2C1005.7,610.9,1005.8,611,1006,611.1z"/>
		<path class="st13" d="M1007.7,610.6c-0.2,0.2-0.3,0.3-0.5,0.5C1007.4,610.9,1007.5,610.8,1007.7,610.6z"/>
		<path class="st22" d="M936,539.7c0.1,0.7-0.2,1.1-0.9,1.1c-1.1,0.1-2.3,0.2-3.4,0.3c-4.9,0.2-9.7,0.6-14.6,0.6
			c-2.6,0-5.3-0.4-7.9-0.8c-0.8-0.1-1.2-0.7-0.9-1.6c0.4-0.1,0.8-0.3,1.2-0.4c1.4,0.1,2.8,0.2,4.3,0.2c3.9,0,7.8,0,11.8,0
			c0.6,0,1.1,0,1.7,0c0.9-0.1,1.7-0.1,2.6-0.2c1.5,0.1,3,0.2,4.6,0.3l0,0c0.2,0.1,0.5,0.1,0.7,0.2c0.1,0,0.1,0,0.2,0
			c0.2,0.1,0.3,0.1,0.5,0.2C935.9,539.7,935.9,539.7,936,539.7z"/>
		<path class="st23" d="M935.3,539.5c-0.1,0-0.1,0-0.2,0c-0.2-0.1-0.5-0.1-0.7-0.2c0,0,0,0,0,0c-0.8-0.9-3.6-1.1-4.6-0.3
			c-0.9,0.1-1.7,0.1-2.6,0.2c-0.6-0.6-1.1-0.7-1.7,0c-3.9,0-7.8,0-11.8,0c-1.4,0-2.8-0.1-4.3-0.2c-0.2-1.3,0.4-1.8,1.8-1.7
			c2.4,0.2,4.8,0.4,7.1,0.4c4-0.2,7.9-0.6,11.9-0.9c1.8-0.2,3.6-0.4,5.4-0.7c0.3,0,0.6-0.5,0.8-0.8c0,0,0.1,0,0.1,0s0.1,0,0.1,0
			c0.3,0.3,0.5,0.7,0.8,0.8c1.5,0.8,1.5,0.8,0.9,2.3c-0.3,0.3-0.6,0.6-1,1c-0.2,0.1-0.3,0.2-0.5,0.2c-0.2,0-0.3,0-0.5,0
			c-0.2,0-0.3,0-0.5,0c-0.1,0-0.1,0-0.2,0C935.6,539.6,935.5,539.5,935.3,539.5z"/>
		<path class="st7" d="M936.5,535.4c-0.3,0.3-0.5,0.7-0.8,0.8c-1.8,0.3-3.6,0.5-5.4,0.7c-4,0.3-7.9,0.7-11.9,0.9
			c-2.4,0.1-4.8-0.2-7.1-0.4c-1.4-0.1-2,0.4-1.8,1.7c-0.4,0.1-0.8,0.3-1.2,0.4c-0.2-0.1-0.3-0.2-0.5-0.2c-0.5-1.2,0.1-1.7,1.1-2.1
			c0.5-0.2,1-0.5,1.5-0.8c0.2,0,0.3,0,0.5,0c0.7,0.2,1.4,0.4,2.2,0.5c1.9,0.1,3.7,0.1,5.6,0c1.9,0,3.8-0.1,5.8-0.3
			c0.3,0,0.6-0.3,0.8-0.5c0.4,0.1,0.8,0.2,1.2,0.2c0.2-0.1,0.5-0.2,0.7-0.2c0.5,0,1,0,1.4,0c0.5,0,1,0,1.4,0c0.3,0,0.6,0,1,0
			c0.2-0.1,0.3-0.2,0.5-0.2c0.2,0,0.3,0,0.5,0c0.6,0.3,1.2,0.5,1.7-0.2c0.4,0,0.8,0,1.2,0c0.3-0.1,0.6-0.2,1-0.2
			C936,535.4,936.3,535.4,936.5,535.4z"/>
		<path class="st24" d="M936.5,539.7c0.2,0,0.3,0,0.5,0c0,0.1,0,0.2,0,0.2c0,0.1,0,0.2,0,0.2c-0.1,0-0.2,0-0.2,0
			C936.7,540,936.6,539.8,936.5,539.7z"/>
		<path class="st0" d="M932,535.8c-0.2,0-0.3,0-0.5,0c-0.2,0.1-0.3,0.2-0.5,0.2c-0.3,0-0.6,0-1,0c-0.5,0-1,0-1.4,0c-0.5,0-1,0-1.4,0
			c-0.2,0.1-0.5,0.2-0.7,0.2c-0.4-0.1-0.8-0.2-1.2-0.2c-2,0.1-4,0.2-6.1,0.2c-2,0-4.1-0.2-6.1-0.2c-0.7,0-1.5,0.1-2.2,0.2
			c-0.2,0-0.3,0-0.5,0c0,0-0.1-0.1-0.1-0.1c-3,0.9-4.2-1.4-5.7-3.2c-1.7-2.1-3.3-4.3-5.1-6.3c-1.4-1.5-3-2.7-4.5-4.1
			c-1.2-1.1-2.2-2.4-3.4-3.6c-0.8-0.8-1.7-1.5-2.6-2.3c1-0.7,1.4-1.8,1.4-3c0.1-4.4,0.1-8.7,0.2-13.1c0.1-2.6,0.2-5.2,0.2-7.7
			c0.1-2.6,0-5.3,0.3-7.9c0.1-1,0.8-1.9,1.4-2.8c0.6-0.8,1.3-1.6,2-2.3c0,0,0,0,0,0c0.9-0.7,1.8-1.4,2.6-2.2
			c1.4-1.2,2.9-2.4,4.3-3.7c2.4-2.1,4.8-4.3,7.2-6.4c0.5,0,1,0,1.4,0c1.4,0,2.7,0,4.1,0c0.3,0,0.6,0,1,0c0.4,0.1,0.8,0.2,1.1,0.2
			c0.8,0,1.6,0,2.4,0c6.1,0.1,12.3,0.2,18.4,0.2c1.1,0,1.4,0.9,2,1.4c1,0.8,1.9,1.6,2.9,2.4c1.7,1.2,3.5,2.3,5,3.7
			c2.7,2.5,5.6,4.7,8.7,6.6c0.2,0.1,0.4,0.2,0.5,0.3c1.8,0.2,2.5,1.5,3.1,3c0.1,0.3,0.4,0.6,0.6,0.9c0,1.1,0,2.2,0,3.3
			c0,0.3,0,0.6,0,1c0,1.8,0,3.7,0,5.5c0,1.1,0,2.2,0,3.4c-0.1,1.7-0.1,3.4-0.2,5.1c0,0.1,0.3,0.2,0.4,0.4c0,2.4,0,4.7,0,7.1
			c0,1.2,0,2.5,0,3.7c-0.2,0-0.5,0-0.7,0c-0.3-0.6-0.5-1.6-1.4-1.2c-0.6,0.3-1,1.1-1.5,1.7c-0.4,0.4-0.8,0.8-1.2,1.2
			c-0.5,0.4-1,0.8-1.4,1.2c-0.2,0.3-0.5,0.6-0.7,1c-0.2,0.3-0.5,0.6-0.7,1c0,0,0,0,0,0c-0.2,0.2-0.5,0.3-0.7,0.5
			c-1,1-2.1,1.9-3.1,2.9c-1.6,1.5-3.2,3-4.8,4.6c-0.8,0.8-1.6,1.6-2.4,2.4c-0.4,0.4-0.8,0.8-1.2,1.2c-0.4,0.3-0.8,0.6-1.2,1
			c-0.2,0.2-0.3,0.3-0.5,0.5c-0.2,0.2-0.5,0.3-0.7,0.5c-0.2,0.2-0.5,0.5-0.7,0.7c0,0.1,0,0.2,0,0.2c-0.2,0.1-0.3,0.2-0.5,0.2l-0.1,0
			c0,0-0.1,0-0.1,0c-0.2,0-0.5,0-0.7,0c-0.3,0.1-0.6,0.2-1,0.2c-0.4,0-0.8,0-1.2,0C933.1,535.7,932.5,535.8,932,535.8z M927.4,471.5
			c-4.5,0.5-8.4,0.4-12.1,1.5c-7.1,2.2-12.6,6.3-16.5,12.6c-1.1,1.8-1.8,3.7-2.6,5.6c-1.5,3.6-3.4,7.1-3.9,11.1
			c-0.2,1.8-0.7,3.7-0.3,5.3c0.7,2.9,1.7,5.9,4.2,7.9c0.3,0.2,0.4,0.7,0.6,1c0.5,1.1,1,2.2,2.6,1.8c0.2,0,0.4,0.1,0.6,0.2
			c2.6,1.3,4.6,0.3,5.2-2.6c0.1-0.6,0.4-1.2,0.8-1.7c1-1.3,1.4-2.8,1.4-4.4c0.1-1.6,0-3.3,0.5-4.9c0.8-2.8,1.8-5.4,2.8-8.1
			c0.4-1,0.8-2.1,1.6-2.7c2.3-2.1,4.9-3.9,7.8-5.1c3.5-1.4,6.8-2.5,10.6-0.7c1.8,0.9,3.9,1.3,5.9,1.4c2.9,0.2,5.7-0.2,7.8-2.6
			c0.8-0.9,1.2-1.6,0.8-2.7c-0.4-1.1-1-2.1-0.7-3.4c0.1-0.3-0.3-0.7-0.5-1c-0.7-1-1.5-2-2.1-3.1c-0.7-1.3-1.6-2.1-3-2.6
			c-2.2-0.7-4.4-1.4-6.6-2C930.3,472.1,928.5,471.7,927.4,471.5z M917.2,535.4c6,0.2,12,0.2,17.5-2.7c2.8-1.5,5.8-2.8,8.2-4.8
			c4.5-3.8,8.2-8.3,11.4-13.3c0.2-0.3,0.4-0.7,0.5-1.1c0.5-2.4,1.6-4.6,1.7-7.1c0.3-4-0.4-7.7-2.5-11.2c-0.2-0.3-0.4-0.5-0.7-0.7
			c-2.4-1.7-4.9-1.2-7.1,0.2c-1.6,1.1-3,2.7-3.1,5c-0.2,3.5-0.7,6.8-2.9,9.8c-3.2,4.2-6.5,8.1-11.7,10.1c-3.6,1.4-7.2,2.5-11,3.2
			c-3.3,0.6-6.6,0.9-9.4,3.1c-3.2,2.6-3.2,6.5,0.1,9.1c0.4,0.3,1,0.4,1.6,0.4C912.4,535.4,914.8,535.4,917.2,535.4z"/>
		<path class="st25" d="M937,540.2c0-0.1,0-0.2,0-0.2c0.2,0,0.3,0,0.5,0c0.2,0,0.3,0,0.5,0c1,0,2.2,0.3,2.9-0.1
			c1.6-1.1,3-2.5,4.4-3.8c0.9-0.9,1.7-2,2.7-2.8c0.9-0.8,1.9-1.4,2.7-2.4c2.2-2.6,4.6-5,7-7.5c1.7-1.7,2.1-1.7,3.8-0.1
			c2.5,2.5,5.1,4.9,7.6,7.4c1.7,1.7,3.6,3.3,5.2,5.1c1.8,2.1,3.8,3.3,6.6,3.2c-0.1,0.2-0.2,0.3-0.2,0.5c0,0,0,0,0,0
			c-1.8,0.5-3.6,0.7-4.9,2.3c-1.1,1.3-2.6,2.3-3.9,3.4c-0.7,0.6-1.2,1.4-1.8,2.2c0,0.1,0,0.2,0,0.2c-0.4,0.5-0.8,1-1.2,1.4v0
			c-1,0.9-2,1.8-3,2.7c-1.4,1.3-2.7,2.8-4.2,4.1c-1,0.9-1.9,0.3-2.8-0.3c-1.7-1.3-3.3-2.8-5.1-3.9c-4.4-2.7-7.9-6.4-11.8-9.7
			C940.5,540.7,938.7,540.6,937,540.2z"/>
		<path class="st15" d="M970.1,547.6c0-0.1,0-0.2,0-0.2c0.3-0.2,0.6-0.3,0.8-0.5c1.8-1.5,3.6-3,5.4-4.6c0.2-0.2,0.3-0.3,0.5-0.5h0
			c0.6-0.5,1.1-1,1.7-1.4c0.2,0,0.5,0,0.7,0c0.1,0.4,0.2,0.7,0.2,1.1c0.2,1.3,0.1,2.4-1.1,3.3c-1.7,1.3-3.4,2.6-4.9,4.2
			c-3.6,4-7,8.1-10.4,12.1c-0.1,0.2-0.3,0.5-0.4,0.4c-1.1-0.3-2.3-0.5-3.3-1c-0.2-0.1-0.3-1-0.2-1.5c0.2-1,0.8-1.5,1.9-1.6
			c0.6,0,1.2-0.3,1.6-0.7c0.9-0.9,1.7-2,2.5-3.1c1-1.2,2.1-2.5,3.1-3.7c0.2-0.2,0.3-0.5,0.5-0.8c0,0,0,0,0,0
			C969.3,548.5,969.7,548.1,970.1,547.6z"/>
		<path class="st23" d="M1013,538.2c-0.2,0-0.5,0-0.7,0c-0.2,0.1-0.5,0.2-0.7,0.2c-0.3,0-0.6,0-1,0l0,0c-0.1-0.1-0.2-0.1-0.3-0.2
			c-0.2,0-0.4,0-0.6,0c-0.1,0-0.2,0-0.3,0c-3.8,0.6-7.6,0.7-11.4,0c-1.2,0-2.4,0-3.6-0.1c-0.3-0.6-0.6-0.6-1,0
			c-0.7,0.1-1.4,0.2-2.2,0.2c-2.2,0-4.5,0-6.7,0c-0.2-0.1-0.5-0.2-0.7-0.2c-0.4-1.7-0.2-1.9,1.5-1.9c2,0,4,0,5.9,0
			c4.7-0.1,9.4-0.2,14.1-0.2c1.8,0,3.6,0.1,5.2-0.8c0.1-0.1,0.2-0.1,0.3-0.1c1.5,0,3.1,0.1,4.7,0.1c-0.6,0.6-1.2,1.2-1.9,1.9
			C1013.4,537.5,1013.2,537.9,1013,538.2z"/>
		<path class="st26" d="M1009.6,538.3c0.2,0,0.4,0,0.6,0c0.1,0.1,0.2,0.1,0.3,0.2c0,0,0,0,0,0c0,0.1,0,0.2,0,0.2
			c0,0.8-0.5,1.1-1.2,1.2c-4.3,0.3-8.5,0.7-12.8,1c-3.8,0.2-7.5,0.4-11.3,0.5c-0.7,0-1.6,0.3-1.9-0.7c-0.3-1,0.2-1.8,1.2-2.2
			c2.2,0,4.5,0,6.7,0c0.1,0.1,0.3,0.2,0.4,0.2c1.9,0,3.8,0,5.7,0c0.2,0,0.4-0.3,0.7-0.4c3.8,0.7,7.6,0.6,11.4,0
			C1009.4,538.3,1009.5,538.3,1009.6,538.3z"/>
		<path class="st2" d="M980.8,539c-2.8,0-4.8-1.2-6.6-3.2c-1.6-1.8-3.5-3.4-5.2-5.1c-2.6-2.5-5.1-4.9-7.6-7.4
			c-1.7-1.7-2.1-1.7-3.8,0.1c-2.4,2.5-4.8,4.9-7,7.5c-0.8,1-1.8,1.6-2.7,2.4c-1,0.9-1.8,1.9-2.7,2.8c-1.4,1.3-2.8,2.8-4.4,3.8
			c-0.7,0.5-1.9,0.1-2.9,0.1c0.2-0.1,0.5-0.4,0.6-0.4c1.2,0.4,1.9-0.3,2.6-1c0.3-0.3,0.5-0.6,0.8-0.9c2.4-2.3,4.8-4.5,7.1-6.8
			c3.3-3.2,6.5-6.6,9.7-9.8c0.9,0.4,1.7,0.8,2.6,1.3c0.7,0.4,1.3,0.9,2,1.4c1,1,2.1,2.1,3.1,3.1c0.2,0.2,0.5,0.5,0.7,0.7
			c1,1,2.1,1.9,3.1,2.9c0.2,0.2,0.5,0.3,0.7,0.5c0.5,0.5,1,1,1.4,1.4c1.3,1.2,2.5,2.5,3.9,3.7c0.9,0.8,2,1.5,3.1,2.1
			c0.4,0.2,1.1,0.1,1.7,0.1c0.4,0,0.8,0.2,1.2,0.3c-0.2,0.1-0.5,0.2-0.7,0.2c-0.2,0.1-0.3,0.2-0.5,0.2C981,539,980.9,539,980.8,539z
			"/>
		<path class="st8" d="M979.2,540.4c-0.2,0-0.5,0-0.7,0c-0.6,0.5-1.1,1-1.7,1.4h0c-0.2,0.2-0.3,0.3-0.5,0.5
			c-1.8,1.5-3.6,3.1-5.4,4.6c-0.2,0.2-0.5,0.3-0.8,0.5c0.6-0.7,1.1-1.5,1.8-2.2c1.3-1.2,2.8-2.1,3.9-3.4c1.3-1.6,3.1-1.8,4.9-2.3
			C980.1,539.8,979.6,540.1,979.2,540.4z"/>
		<path class="st0" d="M1010.6,538.7c0-0.1,0-0.2,0-0.2c0.3,0,0.6,0,1,0c0.2,0,0.3,0,0.5,0c-0.3,0.2-0.6,0.3-1,0.5
			C1010.9,538.9,1010.7,538.8,1010.6,538.7z"/>
		<path class="st8" d="M980.8,539c0.1,0,0.2,0,0.2,0c0.1,0,0.2,0,0.2,0c-0.2,0.2-0.5,0.3-0.7,0.5C980.7,539.3,980.8,539.1,980.8,539
			z"/>
		<path class="st25" d="M981.3,539c-0.1,0-0.2,0-0.2,0c0.2-0.1,0.3-0.2,0.5-0.2C981.5,538.8,981.4,538.9,981.3,539z"/>
		<path class="st22" d="M982.5,464.9c0.2,0,0.5,0,0.7,0c0,0.9,0.6,1.1,1.3,1.2c1.6,0.1,3.1,0.2,4.7,0.3c0.5,0,0.9,0.2,1.4,0.2
			c-2.6,0.3-5.1,1.1-7.7-0.3c-0.1-0.2-0.2-0.3-0.2-0.5c-0.1-0.2-0.2-0.3-0.2-0.5C982.5,465.2,982.5,465.1,982.5,464.9z"/>
		<path class="st17" d="M960,490.8c0-0.3,0-0.6,0-1C960.7,490.2,960.7,490.5,960,490.8z"/>
		<path class="st20" d="M982.5,465.4c0.1,0.2,0.2,0.3,0.2,0.5C982.7,465.7,982.6,465.6,982.5,465.4z"/>
		<path class="st10" d="M1014.3,542.5c1.4-1.4,2-1.4,3.4-0.2c1.2,1,2.4,1.9,3.7,2.9c2.6,2,5.1,4,7.6,6.1c1,0.8,1.9,1.7,2.7,2.6
			c0.3,0.3,0.4,1.1,0.2,1.3c-0.3,0.3-1.1,0.5-1.5,0.4c-1-0.5-1.9-1.2-2.8-1.9c-1.5-1.2-3-2.5-4.4-3.8c-1.3-1.1-2.5-2.4-3.8-3.4
			C1017.7,545.1,1016,543.9,1014.3,542.5z"/>
		<path class="st7" d="M1012,538.5c-0.2,0-0.3,0-0.5,0c0.2-0.1,0.5-0.2,0.7-0.2C1012.2,538.3,1012.1,538.4,1012,538.5z"/>
		<path class="st15" d="M914.2,467.8c-1.4,0-2.7,0-4.1,0C911.5,467.8,912.9,467.8,914.2,467.8z"/>
		<path class="st24" d="M907.8,611.6c-0.2,0.6-0.5,1.1-0.7,1.7c-1-0.8-2-1.4-2.9-2.3c-1.5-1.5-3-3.1-4.4-4.6
			c-1.2-1.3-2.6-2.3-4.1-3.2c-1.5-0.9-2.9-2.1-3.5-3.9c-0.1-0.3-0.7-0.5-1-0.8c-0.9-0.8-1.9-1.7-2.8-2.6c-0.6-0.6-0.3-1.2,0.3-1.8
			c0.6-0.6,1-0.2,1.4,0.1c0.9,0.8,1.7,1.6,2.6,2.4c2.2,2,4.5,3.9,6.6,6c1.6,1.6,3.1,3.3,4.6,4.9c0.5,0.5,1,0.9,1.4,1.4
			c0.4,0.6,0.7,1.2,1,1.9C906.6,611.6,907,611.9,907.8,611.6z"/>
		<path class="st7" d="M927.2,612.3c-0.2,0.2-0.3,0.4-0.5,0.4c-2.2,0.4-4.5,1-6.7,0.9c-2.5-0.1-5.1-0.8-7.6-1.4
			c-0.8-0.2-1.5-0.6-2.2-0.9c1.1,0.2,2.2,0.3,3.4,0.5c0.1,0.1,0.2,0.2,0.3,0.2c3.7,1.1,7.4,0.8,11.1,0.5c0.1,0,0.3-0.3,0.4-0.4
			c0.4,0,0.8,0,1.2,0C926.7,612.1,926.9,612.2,927.2,612.3z"/>
		<path class="st24" d="M925.3,612c-0.1,0.1-0.2,0.4-0.4,0.4c-3.7,0.4-7.4,0.6-11.1-0.5c-0.1,0-0.2-0.1-0.3-0.2
			c0.1-0.1,0.3-0.2,0.4-0.2C917.7,612.5,921.5,612,925.3,612z"/>
		<path class="st7" d="M930.5,612c-0.7,0.9-1.6,0.5-2.4,0.2c0-0.1,0-0.2,0-0.2C928.9,612,929.7,612,930.5,612z"/>
		<path class="st24" d="M928.1,612c0,0.1,0,0.2,0,0.2c-0.3,0-0.6,0-1,0c-0.2-0.1-0.5-0.2-0.7-0.2C927,612,927.6,612,928.1,612z"/>
		<path class="st19" d="M939.6,613.5c-0.5-0.9-1.1-1.4-2.2-1c-0.2,0.1-0.4-0.1-0.6-0.2c0.6-0.3,1.1-0.8,1.7-0.9
			c0.5-0.1,1.1,0.3,1.7,0.5C940,612.5,939.8,613,939.6,613.5z"/>
		<path class="st14" d="M953.8,602.9c-0.3,0.2-0.6,0.5-1,0.7C953.1,603.4,953.5,603.2,953.8,602.9z"/>
		<path class="st10" d="M897.2,477.9c-0.9,0.7-1.8,1.4-2.6,2.2C895.5,479.3,896.3,478.6,897.2,477.9z"/>
		<path class="st7" d="M953.3,519.8c0.2-0.3,0.5-0.6,0.7-1c1,0.2,1.2-0.6,1.4-1.2c0.4-0.4,0.8-0.8,1.2-1.2c1-0.2,1.9-0.3,2.9-0.5
			c0.2,0,0.5,0,0.7,0c0.1,0.2,0.2,0.3,0.2,0.5c-0.3,0.6-0.6,1.1-1,1.7c-1.2,1.4-2.4,3-3.8,4.3c-2.3,2.3-4.8,4.3-7.2,6.6
			c-3.1,2.9-6.1,5.9-9.1,8.9c-0.3,0.3-0.6,0.4-1,0.6c0.6-1.5,0.6-1.5-0.9-2.3c-0.3-0.2-0.5-0.6-0.8-0.8c0.2-0.1,0.3-0.2,0.5-0.2
			c0.4-0.1,1,0,1.3-0.2c1.3-1.1,2.7-2.1,3.9-3.3c2.5-2.4,5.1-4.7,7.5-7.2c0.9-0.9,1.6-2.1,2.4-3.2c0.1-0.2,0.2-0.3,0.2-0.5
			c0,0,0,0,0,0C952.8,520.4,953.1,520.1,953.3,519.8z"/>
		<path class="st24" d="M970.3,530.3c-1-1-2.1-1.9-3.1-2.9c-0.2-0.2-0.5-0.5-0.7-0.7c-1-1-2.1-2.1-3.1-3.1c-0.7-1-1.4-2.1-2.3-3
			c-0.7-0.7-0.7-1.2,0-1.8c1.3-1.2,3.1-1,4.2,0.4c0.7,0.9,1.6,1.6,2.4,2.5c2,2.1,4.5,3.8,4.6,7.2c0,0.8,0.5,1.6,0.7,2.4
			c0.2,0.6,0.1,1-0.6,1c-0.5-0.5-1-1-1.4-1.4C970.8,530.7,970.5,530.5,970.3,530.3z"/>
		<path class="st24" d="M938.4,538.5c0.3-0.2,0.7-0.4,1-0.6c3.1-3,6.1-6,9.1-8.9c2.4-2.2,4.9-4.3,7.2-6.6c1.4-1.3,2.5-2.9,3.8-4.3
			c0.4,0.8,0.3,1.4-0.3,2.1c-0.2,0.2-0.3,0.5-0.5,0.8c-3.2,3.3-6.4,6.6-9.7,9.8c-2.3,2.3-4.8,4.6-7.1,6.8c-0.3,0.3-0.6,0.6-0.8,0.9
			c-0.7,0.7-1.4,1.4-2.6,1c-0.1,0-0.4,0.2-0.6,0.4c-0.2,0-0.3,0-0.5,0c0-0.2,0-0.3,0-0.5C937.8,539.1,938.1,538.8,938.4,538.5z"/>
		<path class="st24" d="M888.9,517.8c1.4,1.4,2.6,2.6,3.8,3.8c1.9,1.8,3.8,3.6,5.7,5.4c1.4,1.2,2.5,2.4,2.4,4.4
			c0,0.5,0.3,1.1,0.4,1.6c0,0.2-0.1,0.5-0.3,0.7c-0.1,0.1-0.5,0-0.6-0.2c-2.1-2-4.2-4-6.3-6c-1.5-1.5-3-2.9-4.5-4.4
			c-0.6-0.6-1.1-1.1-1.6-1.8c-0.1-0.2-0.2-0.5-0.2-0.6C888.1,519.9,888.4,519,888.9,517.8z"/>
		<path class="st21" d="M963.1,487.2c0.1,2,0.3,4,0.2,5.9c-0.1,2.2-0.4,4.3-0.7,6.5c0,0.2-0.1,0.4-0.2,0.5c-0.1-1.3-0.2-2.7-0.2-4
			c0.1-2.6,0.3-5.2,0.5-7.7C962.7,488,963,487.6,963.1,487.2z"/>
		<path class="st21" d="M962.4,508c0.2,2.2,0.5,4.4,0.6,6.6c0,0.5-0.7,1.1-1.1,1.6c0.1-0.9,0.3-1.8,0.3-2.7c0-1.6-0.2-3.1-0.2-4.7
			C961.9,508.5,962.2,508.3,962.4,508z"/>
		<path class="st8" d="M960.2,505.2c-0.1-0.1-0.4-0.3-0.4-0.4c0-1.7,0.1-3.4,0.2-5.1c0.1,1.4,0.2,2.7,0.2,4.1
			C960.3,504.2,960.2,504.7,960.2,505.2z"/>
		<path class="st21" d="M962.4,501.8c0,1.8,0,3.5,0,5.3c-0.1-0.1-0.4-0.2-0.4-0.4c0-1.5,0-3,0-4.5
			C962,502.1,962.3,501.9,962.4,501.8z"/>
		<path class="st21" d="M977.5,473.8c-0.8,0.6-1.6,1.3-2.4,1.9C975.9,475.1,976.7,474.4,977.5,473.8z"/>
		<path class="st21" d="M981.3,471.4c-0.2,0-0.5,0-0.7,0c0.5-0.4,1-0.8,1.4-1.2C981.8,470.6,981.6,471,981.3,471.4z"/>
		<path class="st21" d="M979.9,472.6c-0.2,0-0.5,0-0.7,0c0.3-0.2,0.6-0.5,1-0.7C980,472.1,980,472.3,979.9,472.6z"/>
		<path class="st22" d="M995.5,464.9c5.5,0,11,0,16.6,0c0.1,1.7-0.1,1.9-1.5,1.9c-6.4-0.1-12.9-0.2-19.3-0.2c0.9-0.3,1.8-0.6,2.7-1
			C994.4,465.4,994.9,465.2,995.5,464.9z"/>
		<path class="st18" d="M995.5,464.9c-0.5,0.2-1,0.5-1.6,0.7c-0.9,0.3-1.8,0.6-2.7,1c-0.2,0-0.3,0-0.5,0c-0.5-0.1-0.9-0.2-1.4-0.2
			c-1.6-0.1-3.1-0.2-4.7-0.3c-0.7,0-1.3-0.3-1.3-1.2C987.3,464.9,991.4,464.9,995.5,464.9z"/>
		<path class="st25" d="M929.8,538.9c0.9-0.8,3.8-0.6,4.6,0.3C932.8,539.1,931.3,539,929.8,538.9z"/>
		<path class="st25" d="M925.5,539.2c0.6-0.7,1.1-0.7,1.7,0C926.6,539.2,926.1,539.2,925.5,539.2z"/>
		<path class="st5" d="M934.4,539.2c0.2,0.1,0.5,0.1,0.7,0.2C934.8,539.4,934.6,539.3,934.4,539.2z"/>
		<path class="st5" d="M935.3,539.5c0.2,0.1,0.3,0.1,0.5,0.2C935.6,539.6,935.5,539.5,935.3,539.5z"/>
		<path class="st2" d="M937.5,539.4c0,0.2,0,0.3,0,0.5c-0.2,0-0.3,0-0.5,0c0-0.1,0-0.2,0-0.2C937.2,539.6,937.3,539.5,937.5,539.4z"
			/>
		<path class="st13" d="M910.9,536.3c0.7-0.1,1.5-0.2,2.2-0.2c2,0,4.1,0.2,6.1,0.2c2,0,4-0.1,6.1-0.2c-0.3,0.2-0.6,0.4-0.8,0.5
			c-1.9,0.1-3.8,0.2-5.8,0.3c-1.9,0-3.7,0.1-5.6,0C912.3,536.8,911.6,536.5,910.9,536.3z"/>
		<path class="st13" d="M932,535.8c0.6-0.1,1.1-0.2,1.7-0.2C933.2,536.4,932.6,536.1,932,535.8z"/>
		<path class="st13" d="M928.6,536.1c0.5,0,1,0,1.4,0C929.6,536.1,929.1,536.1,928.6,536.1z"/>
		<path class="st13" d="M934.8,535.6c0.3-0.1,0.6-0.2,1-0.2C935.5,535.4,935.2,535.5,934.8,535.6z"/>
		<path class="st13" d="M926.5,536.3c0.2-0.1,0.5-0.2,0.7-0.2C926.9,536.2,926.7,536.2,926.5,536.3z"/>
		<path class="st13" d="M931,536.1c0.2-0.1,0.3-0.2,0.5-0.2C931.3,535.9,931.2,536,931,536.1z"/>
		<path class="st2" d="M927.4,471.5c1.1,0.2,2.9,0.6,4.7,1c2.2,0.6,4.4,1.3,6.6,2c1.4,0.4,2.3,1.3,3,2.6c0.6,1.1,1.4,2,2.1,3.1
			c0.2,0.3,0.6,0.7,0.5,1c-0.4,1.3,0.3,2.3,0.7,3.4c0.4,1.1,0,1.8-0.8,2.7c-2.1,2.5-4.9,2.8-7.8,2.6c-2-0.1-4.1-0.6-5.9-1.4
			c-3.7-1.8-7.1-0.8-10.6,0.7c-2.9,1.2-5.5,3-7.8,5.1c-0.8,0.7-1.2,1.8-1.6,2.7c-1,2.7-2,5.4-2.8,8.1c-0.4,1.5-0.4,3.2-0.5,4.9
			c-0.1,1.6-0.5,3-1.4,4.4c-0.4,0.5-0.6,1.1-0.8,1.7c-0.6,2.9-2.6,3.8-5.2,2.6c-0.2-0.1-0.4-0.2-0.6-0.2c-1.6,0.4-2.1-0.7-2.6-1.8
			c-0.2-0.4-0.3-0.8-0.6-1c-2.5-2.1-3.5-5-4.2-7.9c-0.4-1.6,0.1-3.5,0.3-5.3c0.5-4,2.4-7.5,3.9-11.1c0.8-1.9,1.5-3.9,2.6-5.6
			c3.8-6.3,9.3-10.5,16.5-12.6C919,471.9,922.9,472,927.4,471.5z"/>
		<path class="st4" d="M917.2,535.4c-2.4,0-4.9,0-7.3,0c-0.5,0-1.2-0.1-1.6-0.4c-3.3-2.6-3.3-6.5-0.1-9.1c2.8-2.2,6.1-2.6,9.4-3.1
			c3.8-0.7,7.4-1.8,11-3.2c5.1-2,8.5-5.8,11.7-10.1c2.2-3,2.8-6.3,2.9-9.8c0.1-2.3,1.5-3.9,3.1-5c2.2-1.4,4.7-1.9,7.1-0.2
			c0.3,0.2,0.5,0.4,0.7,0.7c2.1,3.4,2.8,7.1,2.5,11.2c-0.2,2.5-1.3,4.7-1.7,7.1c-0.1,0.4-0.3,0.7-0.5,1.1c-3.1,5-6.8,9.6-11.4,13.3
			c-2.4,2-5.4,3.3-8.2,4.8C929.2,535.6,923.2,535.6,917.2,535.4z"/>
		<path class="st24" d="M952.3,521.2c-0.8,1.1-1.5,2.3-2.4,3.2c-2.4,2.4-5,4.8-7.5,7.2c-1.3,1.2-2.6,2.3-3.9,3.3
			c-0.3,0.2-0.8,0.2-1.3,0.2c0-0.1,0-0.2,0-0.2c0.2-0.2,0.5-0.5,0.7-0.7c0.2-0.2,0.5-0.3,0.7-0.5c0.2-0.2,0.3-0.3,0.5-0.5
			c0.4-0.3,0.8-0.6,1.2-1c0.4-0.4,0.8-0.8,1.2-1.2c0.8-0.8,1.6-1.6,2.4-2.4c2.1-1,3.5-2.8,4.8-4.6c1-1,2.1-1.9,3.1-2.9
			C952,521.2,952.2,521.2,952.3,521.2z"/>
		<path class="st13" d="M948.7,524.1c-1.3,1.8-2.7,3.6-4.8,4.6C945.5,527.1,947.1,525.6,948.7,524.1z"/>
		<path class="st24" d="M959.5,516c-1,0.2-1.9,0.3-2.9,0.5c0.5-0.6,0.9-1.4,1.5-1.7C959,514.4,959.2,515.4,959.5,516z"/>
		<path class="st24" d="M955.4,517.6c-0.3,0.6-0.5,1.4-1.4,1.2C954.5,518.4,955,518,955.4,517.6z"/>
		<path class="st13" d="M941.6,531.1c-0.4,0.4-0.8,0.8-1.2,1.2C940.8,531.9,941.2,531.5,941.6,531.1z"/>
		<path class="st13" d="M953.3,519.8c-0.2,0.3-0.5,0.6-0.7,1C952.8,520.4,953.1,520.1,953.3,519.8z"/>
		<path class="st13" d="M938,534.2c-0.2,0.2-0.5,0.5-0.7,0.7C937.5,534.6,937.7,534.4,938,534.2z"/>
		<path class="st13" d="M952.3,521.2c-0.2,0-0.3,0-0.5,0c0.2-0.2,0.5-0.3,0.7-0.5C952.5,520.9,952.4,521.1,952.3,521.2z"/>
		<path class="st13" d="M939.2,533.2c-0.2,0.2-0.3,0.3-0.5,0.5C938.8,533.5,939,533.4,939.2,533.2z"/>
		<path class="st8" d="M970.1,547.6c-0.4,0.5-0.8,1-1.2,1.4C969.3,548.5,969.7,548.1,970.1,547.6z"/>
		<path class="st9" d="M976.8,541.8c0.6-0.5,1.1-1,1.7-1.4C977.9,540.9,977.3,541.4,976.8,541.8z"/>
		<path class="st9" d="M976.3,542.3c0.2-0.2,0.3-0.3,0.5-0.5C976.6,542,976.5,542.2,976.3,542.3z"/>
		<path class="st9" d="M997.9,538.3c-0.2,0.1-0.4,0.4-0.7,0.4c-1.9,0-3.8,0-5.7,0c-0.1,0-0.3-0.1-0.4-0.2c0.7-0.1,1.4-0.2,2.2-0.2
			c0.3,0,0.7,0,1,0C995.5,538.2,996.7,538.3,997.9,538.3z"/>
		<path class="st3" d="M994.3,538.2c-0.3,0-0.7,0-1,0C993.6,537.6,993.9,537.6,994.3,538.2z"/>
		<path class="st9" d="M1010.6,538.5c-0.1-0.1-0.2-0.1-0.3-0.2C1010.4,538.4,1010.5,538.4,1010.6,538.5z"/>
		<path class="st0" d="M1009.6,538.3c-0.1,0-0.2,0-0.3,0C1009.4,538.3,1009.5,538.3,1009.6,538.3z"/>
		<path class="st14" d="M966.5,526.7c0.2,0.2,0.5,0.5,0.7,0.7C966.9,527.2,966.7,527,966.5,526.7z"/>
		<path class="st14" d="M970.3,530.3c0.2,0.2,0.5,0.3,0.7,0.5C970.8,530.7,970.5,530.5,970.3,530.3z"/>
	</g>
</g>
</svg>
