<?xml version="1.0" encoding="utf-8"?>
<!-- Generator: Adobe Illustrator 24.0.0, SVG Export Plug-In . SVG Version: 6.00 Build 0)  -->
<svg version="1.1" id="Layer_1" xmlns="http://www.w3.org/2000/svg" xmlns:xlink="http://www.w3.org/1999/xlink" x="0px" y="0px"
	 viewBox="0 0 1920 1080" style="enable-background:new 0 0 1920 1080;" xml:space="preserve">
<style type="text/css">
	.st0{fill:#BD450A;}
	.st1{fill:#FEFDFC;}
	.st2{fill:#B5410A;}
	.st3{fill:#B0400A;}
	.st4{fill:#AE3E0A;}
	.st5{fill:#CA5417;}
	.st6{fill:#D56324;}
	.st7{fill:#D25D1F;}
	.st8{fill:#C34F14;}
	.st9{fill:#A1370A;}
	.st10{fill:#B9440B;}
	.st11{fill:#862A09;}
	.st12{fill:#C85216;}
	.st13{fill:#B4400A;}
	.st14{fill:#B1400A;}
	.st15{fill:#DF854F;}
	.st16{fill:#C44D10;}
	.st17{fill:#91300A;}
	.st18{fill:#9D360A;}
	.st19{fill:#D97D47;}
	.st20{fill:#CE652C;}
	.st21{fill:#D0703B;}
	.st22{fill:#C1490E;}
	.st23{fill:#BD450B;}
	.st24{fill:#B9430A;}
	.st25{fill:#C34C10;}
	.st26{fill:#B3400A;}
</style>
<g>
	<g>
		<path class="st0" d="M1036,468.3c0,47.6,0,95.2,0,142.8c-1.2,3.5-3.7,5.3-7.5,5.3c-45.2,0-90.4,0-135.6,0c-0.6,0-1.1,0-1.7-0.1
			c-3.7-0.7-6-3.6-6-7.6c0-46,0-91.9,0-137.9c0-0.2,0-0.4,0-0.6c0.1-3,1.8-5.5,4.6-6.7c0.3-0.1,0.6-0.3,0.9-0.5
			c46.6,0,93.1,0,139.7,0c0.2,0.1,0.3,0.2,0.5,0.3C1033.5,464,1035.1,465.7,1036,468.3z M1025.7,473.1
			C1025.7,473.1,1025.7,473.1,1025.7,473.1c-0.1-0.2-0.2-0.5-0.4-0.7c-1.8-1.7-3.5-3.4-5.4-5c-1-0.9-2.2-1.6-3.3-2.4
			c-0.4-0.1-0.8-0.2-1.2-0.2c-0.2,0-0.5,0-0.7,0c-0.6,0.1-1.3,0.1-1.9,0.2c-0.2,0-0.5,0-0.7,0c-0.7-0.1-1.3-0.2-2-0.2
			c-8.5,0-17.1,0-25.6,0c-0.5,0-0.9,0.1-1.4,0.2c-0.2,0-0.5,0-0.7,0c-0.5,0-1,0-1.4,0c-0.5,0.2-1,0.2-1.4,0.5
			c-2.1,1.6-4.1,3.2-6.1,4.8c-3.7,2.8-7.4,5.7-11.1,8.5c-1.2,0.9-1.7,1-2.9,0c-2.9-2.2-5.8-4.3-8.7-6.5c-2.3-1.7-4.8-3.4-7-5.3
			c-1.3-1.1-2.6-1.9-4.3-2.1c-0.2,0-0.3,0-0.5,0c-0.5-0.1-1.1-0.2-1.6-0.2c-9.9,0-19.7,0.1-29.6,0.1c-0.5-0.1-0.9-0.1-1.4-0.2
			c-0.5,0.2-1.1,0.3-1.5,0.6c-2.3,1.8-4.5,3.7-6.8,5.4c-3.6,2.7-7.3,5.1-10.2,8.5c-0.3,0.4-0.5,1-0.7,1.5c-0.1,0.6-0.2,1.2-0.2,1.8
			c0,5.4,0,10.8,0,16.2c0,6.1,0,12.3,0,18.4c0.2,0.8,0.3,1.6,0.5,2.4c-0.5,1.6-0.2,2.9,1.1,4.1c2.1,1.9,4.1,4,6.3,6
			c2.8,2.6,5.7,5.1,8.5,7.6c1.1,1,2,2.4,3.8,2.2c-0.1,0.1-0.2,0.2-0.2,0.2c-2,0.2-3.2,1.8-4.6,3c-4.1,3.6-8.3,7.2-12.4,10.8
			c-1.2,1.1-2.6,2.1-2.7,3.9c-0.1,0.6-0.2,1.3-0.2,1.9c0,4.9,0,9.8,0,14.6c0,6.1,0,12.1,0,18.2c0,0.4,0.3,0.8,0.5,1.2
			c-0.6,1.9-0.1,3.5,1.5,4.8c0.8,0.7,1.4,1.6,2.1,2.4c0.6,0.7,1.2,1.4,1.8,2c2.9,2.8,5.9,5.5,8.7,8.5c1.5,1.7,3.1,3,5.3,3.4
			c0.3,0.1,0.6,0.1,1,0.2c2.2,0,4.5,0,6.7,0c2.6,0,5.3,0,7.9,0c5.2,0,10.5,0,15.7,0c0.5,0,1-0.1,1.5-0.2c1-0.1,2.1,0.1,2.8-0.4
			c2.4-1.6,4.8-3.4,7-5.3c2-1.7,3.6-3.8,5.5-5.6c2.1-2,4.3-3.7,6.5-5.6c0.2-0.2,0.9-0.2,1.1,0c2,1.6,3.9,3.2,5.7,5
			c3.5,3.5,6.8,7.1,10.3,10.7c0.8,0.8,1.8,1.4,3,1.2c0.5,0,0.9,0,1.4,0c10.5,0.1,21.1,0.1,31.6,0.2c0.2-0.1,0.5-0.1,0.7-0.2
			c0.3-0.1,0.6-0.1,0.8-0.2c2.3-2,4.6-4,6.8-6.1c2.1-2,4.1-4.1,6.1-6.1c1.5-1.5,3.1-2.9,4.5-4.6c0.5-0.6,0.5-1.5,0.7-2.3
			c0-0.9,0-1.8,0-2.6c0.1-1,0.2-1.9,0.2-2.9c0-6.4,0-12.8,0-19.2c0-4.4,0-8.8,0-13.2c-0.2-0.3-0.3-0.6-0.5-1c0-1.4-0.4-2.6-1.5-3.5
			c-4.9-3.9-9.8-7.8-14.7-11.7c-1.1-0.9-2.2-1.7-3.2-2.6c0.5-0.1,1-0.1,1.4-0.4c1.7-1.3,3.4-2.7,4.9-4.2c3.8-3.9,7.5-7.9,11.4-11.7
			c1.5-1.5,2.2-3,2.2-5.1c0-2.7,0-5.4,0-8.1c0-4.8,0-9.6,0-14.4c0-3.7,0-7.3,0-11c-0.2-0.7-0.3-1.4-0.5-2.2
			c-0.1-0.7,0.2-1.7-0.2-2.1c-1.1-1-2.5-1.8-3.8-2.7c-0.1-0.1-0.2-0.2-0.2-0.2c-0.3-0.2-0.6-0.5-1-0.7c-0.1-0.1-0.2-0.2-0.2-0.2
			c-0.4-0.3-0.8-0.6-1.2-1c-0.1-0.1-0.2-0.2-0.2-0.2C1026.6,473.9,1026.1,473.5,1025.7,473.1z"/>
		<path class="st1" d="M890.8,463c-0.3,0.2-0.6,0.4-0.9,0.5c-2.8,1.1-4.6,3.6-4.6,6.7c0,0.2,0,0.4,0,0.6c0,46,0,91.9,0,137.9
			c0,4,2.3,7,6,7.6c0.5,0.1,1.1,0.1,1.7,0.1c45.2,0,90.4,0,135.6,0c3.7,0,6.3-1.8,7.5-5.3c0,1.8,0,3.7,0,5.5c-50.3,0-100.6,0-151,0
			c0-51.2,0-102.4,0-153.6C886.9,463,888.8,463,890.8,463z"/>
		<path class="st1" d="M1036,468.3c-0.8-2.5-2.5-4.2-5-5c-0.2-0.1-0.3-0.2-0.5-0.3c1.8,0,3.7,0,5.5,0
			C1036,464.8,1036,466.5,1036,468.3z"/>
		<path class="st2" d="M906.8,614.4c-2.2-0.4-3.8-1.7-5.3-3.4c-2.7-3-5.8-5.7-8.7-8.5c-0.6-0.6-1.2-1.3-1.8-2
			c-0.7-0.8-1.3-1.8-2.1-2.4c-1.6-1.3-2.1-2.8-1.5-4.8c0.5-0.6,1-1.1,1.4-1.7c0.1-0.1,0.2-0.2,0.2-0.2c0.2,0,0.3,0,0.5,0
			c0.3,0.1,0.7,0.1,1.2,0.2c-0.4-1.1-0.7-2-1-2.8c0-4.7,0-9.4,0-14.1c0-1.7,0.1-3.4,0.2-5.1c0-0.2,0-0.3,0-0.5c0-0.6,0-1.3,0-1.9
			c0.7-0.4,0.5-0.9,0.2-1.4c0-0.3,0-0.6,0-1c0.2-0.3,0.4-0.6,0.5-0.9c0.3-0.8,0.3-1.7,0.8-2.3c1.2-1.6,2.7-3,4-4.5
			c0.7-0.8,1.4-1.6,2.1-2.4c0.6-0.5,1.3-1,1.9-1.4c0-0.2,0-0.3,0-0.5c0.2,0,0.3,0,0.5,0c0.4-0.2,0.8-0.2,1.1-0.5
			c1.6-1.3,3.2-2.7,4.8-3.9c4.5-3.2,9.7-4,15-4.2c3.1-0.1,6.2-0.1,9.3,0c1.6,0,3.2,0,4.8,0.3c1.2,0.2,2.3,0.9,3.3,1.5
			c3.5,2.1,7,4.3,9.7,7.5c0.7,0.8,1.4,1.5,1.4,2.8c-0.1,4.7-4.7,8.1-9.2,7.7c-2.2-0.2-4.3-0.9-6.5-1.1c-2.9-0.2-5.8-0.7-8.1,1.9
			c-0.2,0.2-0.5,0.3-0.7,0.4c-2.4,1.8-4.8,3.4-7,5.3c-1.5,1.3-2.3,3.3-4.4,4.1c-0.2,0.1-0.3,0.3-0.4,0.4c-1.4,2.4-2.9,4.8-4.2,7.4
			c-1.3,2.6-2.3,5.4-3.6,8.1c-2.3,5.1-7.6,6.5-12.2,3c-0.1-0.1-0.4-0.1-0.6-0.1c-0.1,0.1-0.2,0.2-0.3,0.3c1,1.2,1.9,2.5,3,3.6
			c4,4,8,7.9,12,11.8c0.4,0.4,0.6,1.1,0.9,1.7c-0.4-0.3-0.8-0.5-1.1-0.8c-1.3-1.3-2.5-2.8-3.9-4.1c-3.4-3.3-6.9-6.6-10.4-9.9
			c-0.9-0.8-1.7-1.7-2.5-2.5c-0.8-0.7-1.4-0.5-2,0.3c-1,1.2-0.9,2.3,0.4,3.6c2.6,2.5,5.4,5,8,7.5c2.3,2.2,4.5,4.6,6.9,6.8
			c1,0.9,2.2,1.6,3.2,2.4C906.8,614.1,906.8,614.3,906.8,614.4z M900.2,566.6c-0.2,0-0.3,0-0.5-0.1c-0.3,0.3-0.6,0.6-0.8,1
			c-2.2,4.3-4.4,8.6-6.4,12.9c-0.7,1.4-1.2,3.1-1,4.6c0.3,2.8,2.3,4.6,4.9,5.7c1.1,0.4,2.6-0.1,3.3-1c1.9-2.3,2.5-5,2.7-7.9
			c0.2-2.2,0.5-4.4,0.8-6.6c0.1-0.7,0.6-1.4,0.5-2.1c-0.2-1.8,0.7-3.3,1.6-4.6c1.5-2,3.3-3.5,5.5-4.9c4-2.4,8.4-3.7,12.8-4.2
			c4.1-0.5,8.3-0.6,12.4,0.7c1.8,0.6,3.8,0.8,5.6,0.8c3.9,0,6.5-4.5,4.4-7.7c-1.6-2.4-3.9-4-6.6-5c-4.2-1.5-8.5-1.4-12.9-1
			c-2.6,0.2-5.1,0.7-7.4,1.9c-4.5,2.3-8.6,5.3-12.3,8.8c-1.2,1.2-2.4,2.5-3.8,4c1.3,0.3,1.1,0.8,0.7,1.3c-0.6,0.8-0.9,1.8-1.8,2.5
			c-0.5,0.4-0.4,1.4-0.6,2.1c-0.1,0.3-0.3,0.7-0.4,1c-0.1,0-0.2-0.1-0.3-0.1C900.4,568.1,900.3,567.4,900.2,566.6z"/>
		<path class="st3" d="M981.6,614.4c-1.2,0.2-2.2-0.4-3-1.2c-3.4-3.5-6.8-7.2-10.3-10.7c-1.8-1.8-3.8-3.4-5.7-5
			c-0.2-0.2-0.9-0.2-1.1,0c-2.2,1.8-4.4,3.6-6.5,5.6c-1.9,1.8-3.5,3.9-5.5,5.6c-2.2,1.9-4.6,3.7-7,5.3c-0.7,0.5-1.9,0.3-2.8,0.4
			c0.1-0.3,0.2-0.6,0.2-0.9c0.3-0.2,0.6-0.3,0.9-0.5c2.4-2,4.7-4,7.1-5.9c2.1-1.7,4.3-3.3,6.3-5.1c1.8-1.8,3.3-3.9,5-5.9
			c0.9-1,1.8-1.9,1.8-3.4c0.2-0.1,0.5-0.2,0.7-0.2c0.2,0,0.3,0,0.5,0c0.2,0,0.3,0,0.5,0c0.2,0,0.5,0,0.7,0c1.7,0.5,3,1.5,4.2,2.9
			c1.4,1.7,2.8,3.5,4.4,5.1c2.4,2.4,4.9,4.8,7.5,7c1.7,1.4,3,3.5,5.5,3.8c-0.7,0.1-1.4,0.2-2.1,0.3c-1.5,0.2-2.1,1.3-1.3,2.6
			C981.6,614.1,981.6,614.3,981.6,614.4z"/>
		<path class="st4" d="M907,539.5c-1.8,0.2-2.6-1.2-3.8-2.2c-2.8-2.6-5.7-5-8.5-7.6c-2.1-2-4.1-4.1-6.3-6c-1.3-1.2-1.5-2.5-1.1-4.1
			c0.5-0.8,0.3-2.2,1.7-2.4c1.1,0.9,2.2,1.7,3.1,2.6c3,2.8,5.9,5.6,8.8,8.4c0,0.2,0,0.3,0,0.5c0.2,0.2,0.3,0.3,0.5,0.5
			c0.2,0.1,0.3,0.2,0.5,0.2c0,0.1,0,0.2,0,0.2c1.1,2.6,2.6,4.8,4.6,6.7c0.3,0.3,0.8,0.5,1.2,0.4c1.4-0.2,2.7-0.4,4.1-0.7
			c0.2,0,0.5,0,0.7,0c0.5,0.1,1,0.2,1.5,0.2c3.5,0,7.1,0,10.6,0c0.5,0,0.9,0.3,1.4,0.4c0,0.1,0,0.2,0,0.3c-0.3,0-0.6,0-1,0
			c-0.6,0.1-1.3,0.2-1.9,0.2c-0.2,0-0.5,0-0.7,0c-2.9,0-5.7,0-8.6,0c-1.1,0-2.3-0.2-3.4-0.2c-1.2,0-1.8,1-1.2,1.9
			c-0.4,0.2-0.8,0.3-1.2,0.5C907.7,539.5,907.4,539.5,907,539.5z"/>
		<path class="st5" d="M939.4,464.9c1.7,0.2,3,1,4.3,2.1c2.2,1.9,4.6,3.5,7,5.3c2.9,2.2,5.8,4.3,8.7,6.5c1.3,1,1.7,0.9,2.9,0
			c3.7-2.9,7.4-5.7,11.1-8.5c2-1.6,4.1-3.2,6.1-4.8c0.4-0.3,0.9-0.4,1.4-0.5c-0.1,0.2-0.2,0.5-0.4,0.7c-2.3,1.9-4.6,3.9-7,5.8
			c-3.3,2.7-7.1,4.9-9.9,8.2c-0.3,0.3-0.7,0.6-1.1,0.7c-1.5,0.3-2.2,1.3-2.7,2.6c-0.1,0.3-0.3,0.5-0.5,0.7c-1.1-0.7-2.1-1.4-3.1-2.1
			c-3.4-2.6-6.7-5.2-10.1-7.8c-1.4-1.1-2.7-2.4-4.3-3c-1.5-0.7-2.3-1.8-3.1-3c0-0.1,0-0.2,0-0.2
			C939.7,466.7,939.3,465.8,939.4,464.9z"/>
		<path class="st6" d="M959.3,483.6c0.2-0.2,0.4-0.4,0.5-0.7c0.5-1.3,1.2-2.3,2.7-2.6c0.4-0.1,0.8-0.4,1.1-0.7
			c2.8-3.4,6.6-5.5,9.9-8.2c2.3-1.9,4.7-3.8,7-5.8c0.2-0.2,0.3-0.5,0.4-0.7c0.5,0,1,0,1.4,0c0.3,1.3,1.2,2.1,2.4,2.6
			c0,0.1,0,0.2,0,0.3c-0.3,0.1-0.6,0.2-1,0.2c-1.1,0.9-2.2,1.8-3.4,2.6c0,0,0,0,0,0c-2.2,1.7-4.3,3.4-6.5,5c0,0,0,0,0,0
			c-1.1,0.9-2.2,1.8-3.4,2.6c-0.1,0-0.2,0-0.2,0c-0.3,0.2-0.6,0.5-1,0.7c-0.2,0.2-0.3,0.3-0.5,0.5c-0.2,0.2-0.3,0.3-0.5,0.5
			c-0.3,0.2-0.6,0.5-1,0.7c-0.5,0.5-1,1-1.4,1.4c-0.4,0.3-0.8,0.6-1.2,1c-1.3,0.6-2.5,1.1-2.5,2.9c0,1.7-0.1,3.3-0.2,5
			c0,0.3,0,0.6,0,1c-0.2,0.5-0.4,1-0.5,1.5c-0.2,1.4-0.4,2.8-0.5,4.3c-0.6-0.3-0.9-0.4-1.1-0.5c0-0.9,0-1.8,0-2.6
			c0-2.4,0.1-4.7,0-7.1c0-0.6-0.4-1.2-0.7-1.8c0-0.4,0-0.8,0-1.2C959.3,484.3,959.3,483.9,959.3,483.6z"/>
		<path class="st7" d="M886.9,573.9c0-4.9,0-9.8,0-14.6c0-0.6,0.1-1.3,0.2-1.9c0.3-0.2,0.6-0.3,0.8-0.5c4.6-4,9.1-8,13.6-12.1
			c0.9-0.8,1.8-1.7,2.4-2.8c0.6-1,1.2-1.6,2.4-1.7c0.4,0.6,0.8,1.2,1.2,1.8c0.3,0.4,0.8,0.7,1.2,1.1c0,0.1,0,0.2,0,0.2
			c-0.2,0-0.3,0-0.5,0c-0.2,0.2-0.3,0.3-0.5,0.5c-1,1.3-2.1,2.6-3.1,3.8c-0.1,0-0.2,0-0.2,0c-0.2,0.2-0.5,0.3-0.7,0.5c0,0,0,0,0,0
			c-2.3,2-4.6,4-7,6c-0.1,0.1-0.2,0.2-0.2,0.2c-0.1,0-0.2,0-0.2,0c-0.2,0.2-0.5,0.5-0.7,0.7c-0.3,0.2-0.6,0.5-1,0.7
			c-0.2,0.2-0.5,0.3-0.7,0.5c-0.7,0.7-1.4,1.4-2.2,2.2c-2,1.1-2.5,3.1-2.8,5.1c-0.5,3-0.7,6-1.1,9.1
			C887.7,573.2,887.2,573.5,886.9,573.9z"/>
		<path class="st6" d="M887,498.7c0-5.4,0-10.8,0-16.2c0-0.6,0.1-1.2,0.2-1.8c1.3-0.9,2.5-1.8,3.8-2.7c3.5-2.7,7-5.3,10.3-8.1
			c1.8-1.5,3.4-3.3,5.1-5c0.9,0.8,1.8,1.6,2.6,2.4c0.2,0.2,0.3,0.3,0.5,0.5c-0.2,0-0.3,0-0.5,0c-0.2,0-0.5,0-0.7,0
			c-0.8,0-1.2,0.4-1.2,1.2l0,0c-0.2,0.2-0.5,0.3-0.7,0.5c-0.2,0.4-0.5,0.8-0.7,1.2c-0.2,0-0.3,0-0.5,0c-0.3,0.2-0.6,0.5-1,0.7
			c-0.2,0.2-0.3,0.3-0.5,0.5c-0.4,0.3-0.8,0.6-1.2,1c-0.4,0.4-0.8,0.8-1.2,1.2c-0.4,0.3-0.8,0.6-1.2,1c-0.2,0.2-0.5,0.5-0.7,0.7
			c-0.2,0.2-0.5,0.3-0.7,0.5c-0.1,0.1-0.2,0.2-0.2,0.2c-0.3,0.2-0.6,0.5-1,0.7c-0.2,0.2-0.3,0.3-0.5,0.5c-0.2,0.2-0.5,0.3-0.7,0.5
			c-0.1,0.1-0.2,0.2-0.2,0.2c-0.3,0.2-0.6,0.5-1,0.7c-0.3,0.3-0.6,0.7-0.9,1c-1.1,1-2.1,1.9-3.2,2.9c-0.6,0.8-1.4,1.6-1.6,2.5
			c-0.4,1.8-0.5,3.7-0.8,5.5c-0.3,2.3-0.5,4.6-0.9,6.8C887.7,498.1,887.2,498.4,887,498.7z"/>
		<path class="st8" d="M1014.6,538.5c1.1,0.9,2.2,1.7,3.2,2.6c4.9,3.9,9.8,7.8,14.7,11.7c1.1,0.9,1.5,2.1,1.5,3.5
			c-1,0.3-1.9,0.6-2.9,1c-0.6-0.2-1.4-0.3-1.9-0.6c-2.9-2.3-5.7-4.7-8.6-7c-1.2-1-2.5-1.9-3.7-2.9c-0.1,0-0.2,0-0.2,0
			c-0.2-0.2-0.5-0.5-0.7-0.7c-0.1,0-0.2,0-0.2,0c-1-0.9-2.1-1.9-3.1-2.8c-0.1-0.1-0.5,0.2-0.7,0.4c-0.7,0-1.4,0-2.2,0
			c-0.2-0.1-0.3-0.2-0.5-0.2c-0.9,0-1.8-0.1-2.7-0.1c-3.1-0.1-6.3-0.4-9.4-0.3c-4.4,0.1-8.8,0.4-13.2,0.6c-0.5,0-1-0.1-1.5-0.2
			c1.7-0.3,3.4-0.6,5.1-1c0.3-0.1,0.6-0.4,0.9-0.7c1.3,0,2.6,0,3.8,0c0.4-0.1,0.8-0.1,1.2-0.2c1,0.1,2.1,0.1,3.1,0.2
			c3.9,0.2,7.8,0.5,11.8,0.6c1.5,0.1,2.9-0.3,2.6-2.1c0-0.5,0-0.9,0-1.4c0-0.1,0-0.2,0-0.3c0.6-0.1,1.3-0.2,1.9-0.2
			C1013.5,538.3,1014.1,538.4,1014.6,538.5z M1030.9,556.4c0.6-0.5,1.3-0.7,1.5-1.2c0.2-0.3,0-1.2-0.3-1.5c-1.7-1.6-3.4-3.2-5.2-4.7
			c-2.8-2.3-5.9-4.4-8.7-6.8c-1.9-1.6-2.4-1.1-4-0.4c-0.8,0.3-0.8,0.8-0.1,1.3c1.1,0.8,2.2,1.6,3.3,2.4c3.7,3.1,7.5,6.2,11.2,9.3
			C1029.2,555.4,1030,555.9,1030.9,556.4z"/>
		<path class="st9" d="M1034.3,592.4c0,0.9,0,1.8,0,2.6c-0.7,0.5-1.3,1.1-2,1.6c-1.9,1.6-3.8,3.1-5.5,4.8c-2.1,2.1-3.9,4.4-5.9,6.5
			c-1.7,1.9-3.5,3.8-5.3,5.7c0.1-0.4,0.1-0.8,0.3-1.1c0.6-0.8,1.4-1.5,2-2.3c0.4-0.5,0.7-1,0.9-1.4c-1.9,0.5-3.7,1-5.5,1.5
			c1-1,2.1-2.1,3.1-3.1c1.2-1,2.5-2,3.6-3.1c0.7-0.6,1.1-1.5,1.7-2.2c0.5-0.6,1-1.1,1.4-1.7c0-0.1,0-0.2,0-0.2
			c0.2-0.2,0.5-0.3,0.7-0.5c1.2-1.1,2.4-2.1,3.6-3.2c0.6-0.5,1-1.2,1.5-1.8c0.4-0.5,0.8-1,1.2-1.4c0.6-0.4,1.1-0.8,1.7-1.2
			C1032.7,592.1,1033.5,592.2,1034.3,592.4z"/>
		<path class="st5" d="M1014.6,464.7c0.2,0,0.5,0,0.7,0c0.2,0.4,0.4,0.8,0.7,1.1c1.1,1,2.2,1.9,3.3,2.9c3.2,2.7,6.3,5.4,9.5,8
			c1.2,1,2.5,2,3.7,3c0.9,0.8,0.3,1.7-0.2,2.5c-0.5,0.8-1.1,0.4-1.7,0c-0.8-0.4-1.5-0.9-2.2-1.4c-4.9-3.4-9.1-7.5-13.3-11.6
			c-0.9-0.8-1.8-1.3-3-1.2c0.5-0.4,1-0.8,1.4-1.2C1014.5,466.3,1014.7,465.6,1014.6,464.7z"/>
		<path class="st10" d="M1034,481.5c0.2,0.7,0.3,1.4,0.5,2.2c-1.4-0.3-3.1,0.5-3.1,1.8c0,2.2,0.1,4.4,0.5,6.5
			c0.2,1.2,0.8,2.6,2.5,2.8c0,4.8,0,9.6,0,14.4c-1,0-1.2,0.8-1.4,1.5c-0.7,2-1.3,3.9-1.9,5.9c0,0,0,0,0,0c-0.4,0.2-0.8,0.3-1.1,0.6
			c-1.6,1.4-3.1,2.8-4.7,4.2c-0.6,0.5-1.2,0.8-1.8,1.3c1.5-1.5,3-3.1,4.6-4.6c0.5-0.6,1.3-1,1.6-1.7c0.5-1.5,0.9-3,1.2-4.6
			c1.1-4.9,1-9.8,0.6-14.7c-0.2-1.8-0.6-3.7-1-5.5c0.1-1.5,0.3-2.9,0.4-4.4c0-0.6-0.2-1.3-0.4-1.9c-0.2-0.5-0.5-0.9-0.7-1.4
			c0.6-0.2,1.1-0.3,1.7-0.5c1.2,0.3,1.5-0.7,1.9-1.4C1033.6,481.6,1033.8,481.5,1034,481.5z"/>
		<path class="st11" d="M1014.6,614.7c-10.5-0.1-21.1-0.1-31.6-0.2c0.4-1,1.1-1.6,2.1-1.7c6.1-0.2,12.2-0.3,18.3-0.5
			c1.2,0,2.3-0.3,3.5-0.4c0.2,0,0.3,0,0.5,0c0.3,0.1,0.6,0.4,0.9,0.4c1.6,0,3.2-0.1,4.8-0.1c1,0,1.4,0.5,1.5,1.4
			C1014.6,613.9,1014.6,614.3,1014.6,614.7z"/>
		<path class="st12" d="M896,478.3c0.1-0.1,0.2-0.2,0.2-0.2c0.2-0.2,0.5-0.3,0.7-0.5c0.2-0.2,0.3-0.3,0.5-0.5c0.3-0.2,0.6-0.5,1-0.7
			c0.1-0.1,0.2-0.2,0.2-0.2c0.2-0.2,0.5-0.3,0.7-0.5c0.2-0.2,0.5-0.5,0.7-0.7c0.2,0,0.5,0,0.7,0c-0.4,0.4-0.8,0.9-1.2,1.3
			c-2.2,2-4.4,3.9-6.6,5.9c-1,0.9-1.7,2.1-1.8,3.6c-0.1,1.7-0.2,3.3-0.3,5c0,2.9,0,5.9,0,8.8c0,3.8,0.1,7.5-0.1,11.3
			c-0.1,2.2,0.4,4.7-1.9,6.3c-1.4,0.2-1.1,1.6-1.7,2.4c-0.2-0.8-0.3-1.6-0.5-2.4c1.1,0,1.8-0.7,2.1-1.7c0.3-1,0.4-2,0.4-3
			c-0.1-3.8-0.3-7.5-0.3-11.3c0-4,0.1-7.9,0.2-11.9c0.1-1.9,0.1-3.7,1.4-5.3c0.2-0.3,0.2-0.7,0.3-1c1.1-1,2.1-1.9,3.2-2.9
			c0.3-0.3,0.6-0.6,0.9-1C895.4,478.8,895.7,478.6,896,478.3z"/>
		<path class="st13" d="M1031.9,591.9c-0.6,0.4-1.1,0.8-1.7,1.2c0.5-0.9,1.3-1.8,1.4-2.7c0.3-2.9,0.6-5.9,0.5-8.8
			c-0.2-6-0.6-12-0.9-18.1c-0.1-1.3,0-2.7,0-4c0.2,0.4,0.4,0.8,0.5,1.2c0.3,1.5,0.6,2.9,0.8,4.4c0.2,1.5,0.4,3,0.6,4.4
			c0.1,0.8,0.2,1.5,0.3,2.3c0.1,0,0.2,0,0.3,0c0.3-0.5,0.6-1,0.9-1.5c0,6.4,0,12.8,0,19.2c-0.4,0-0.9-0.1-1,0.1
			C1032.9,590.4,1032.4,591.2,1031.9,591.9z"/>
		<path class="st14" d="M1031.2,516.4c0.6-2,1.3-4,1.9-5.9c0.2-0.7,0.4-1.5,1.4-1.5c0,2.7,0,5.4,0,8.1c0,2-0.8,3.6-2.2,5.1
			c-3.9,3.8-7.6,7.9-11.4,11.7c-1.5,1.5-3.2,2.8-4.9,4.2c-0.3,0.3-0.9,0.3-1.4,0.4c-0.6-0.1-1.1-0.2-1.7-0.2
			c1.1-0.8,2.3-1.5,3.3-2.4c2-1.7,3.9-3.4,5.8-5.1c2.1-2.1,4.1-4.4,6.3-6.4c1.9-1.7,3.6-3.5,4.8-5.7c0.7-0.4,0.6-1,0.2-1.5
			c-0.4-0.5-0.8-1.2-1.6-0.6C1031.5,516.4,1031.3,516.4,1031.2,516.4z"/>
		<path class="st15" d="M907.7,464.9c9.9,0,19.7-0.1,29.6-0.1c0.5,0,1.1,0.1,1.6,0.2c0,0.8-0.5,1.2-1.3,1.3
			c-1.4,0.1-2.8,0.3-4.3,0.5c-0.2,0-0.5,0-0.7,0c-0.5-0.1-1-0.2-1.5-0.2c-6.8,0.1-13.7,0.1-20.5,0.2
			C909.3,466.6,908.3,466.2,907.7,464.9z"/>
		<path class="st7" d="M891,482.9c-0.1,0.3-0.1,0.7-0.3,1c-1.2,1.6-1.3,3.5-1.4,5.3c-0.1,4-0.3,7.9-0.2,11.9c0,3.8,0.3,7.5,0.3,11.3
			c0,1-0.2,2.1-0.4,3c-0.3,1-1,1.6-2.1,1.7c0-6.2,0-12.3,0-18.4c0.3-0.3,0.7-0.6,0.8-1c0.3-2.3,0.6-4.5,0.9-6.8
			c0.2-1.8,0.3-3.7,0.8-5.5C889.6,484.5,890.4,483.7,891,482.9z"/>
		<path class="st16" d="M1033.3,481.7c-0.5,0.7-0.7,1.7-1.9,1.4c-1.2-0.3-2.7-0.4-3.7-1.1c-2.3-1.7-4.3-3.7-6.5-5.6
			c-1.6-1.5-3.2-3.1-4.8-4.6c-1.4-1.3-2.8-2.6-4.2-3.8c0,0,0,0,0,0c1.2-0.1,2.1,0.3,3,1.2c4.2,4.1,8.4,8.2,13.3,11.6
			c0.7,0.5,1.5,1,2.2,1.4c0.6,0.3,1.2,0.7,1.7,0c0.5-0.8,1.1-1.6,0.2-2.5c-1.2-1.1-2.5-2-3.7-3c-3.2-2.7-6.3-5.3-9.5-8
			c-1.1-1-2.3-1.9-3.3-2.9c-0.3-0.3-0.5-0.7-0.7-1.1c0.4,0.1,0.8,0.2,1.2,0.2c0.1,0.2,0.2,0.5,0.3,0.6c2.7,2.4,5.4,4.8,8,7.2
			c0.2,0.2,0.5,0.3,0.7,0.4c0,0,0,0,0,0c0.5,0.4,1,0.8,1.4,1.2c0.1,0.1,0.2,0.2,0.2,0.2c0.4,0.3,0.8,0.6,1.2,1
			c0.1,0.1,0.2,0.2,0.2,0.2c0.3,0.2,0.6,0.5,1,0.7c0.1,0.1,0.2,0.2,0.2,0.2c0.8,0.6,1.4,1.4,2.3,1.9
			C1033.5,479.3,1033.8,480.3,1033.3,481.7z"/>
		<path class="st15" d="M983,464.9c0.5-0.1,0.9-0.2,1.4-0.2c8.5,0,17.1,0,25.6,0c0.7,0,1.3,0.1,2,0.2c-0.3,1.7-0.4,1.7-2,1.7
			c-0.7,0-1.4,0-2-0.2c-3.6-0.6-7.2-0.9-10.9-0.5c-4,0.4-8.1,0.5-12.1,0.7C983.9,466.6,983.1,466.1,983,464.9z"/>
		<path class="st5" d="M886.9,573.9c0.3-0.4,0.8-0.8,0.8-1.2c0.4-3,0.6-6.1,1.1-9.1c0.3-1.9,0.8-4,2.8-5.1c-0.2,0.4-0.5,0.7-0.7,1.1
			c-0.3,0.6-0.5,1.2-0.7,1.8c-0.1,0.4-0.2,0.8-0.2,1.2c-0.2,0.1-0.5,0.3-0.5,0.4c-0.1,1.5-0.1,3.1-0.2,4.6c0,0.2,0,0.3,0,0.5
			c-0.6,0.3-0.6,0.6,0,1c0,0.2,0,0.3,0,0.5c-0.9,1.5-0.5,3-0.2,4.6c0,0.5,0,1,0,1.4c-0.2,0.3-0.5,0.6-0.5,0.9
			c0.1,5.1,0.1,10.1,0.2,15.2c-0.5,0.6-1,1.1-1.4,1.7c-0.2-0.4-0.5-0.8-0.5-1.2C886.9,586.1,886.9,580,886.9,573.9z"/>
		<path class="st4" d="M1015.6,613.7c1.8-1.9,3.5-3.7,5.3-5.7c2-2.2,3.8-4.5,5.9-6.5c1.7-1.7,3.7-3.2,5.5-4.8c0.7-0.6,1.3-1.1,2-1.6
			c-0.2,0.8-0.2,1.8-0.7,2.3c-1.4,1.6-3,3-4.5,4.6c-2,2-4,4.1-6.1,6.1c-2.2,2.1-4.5,4.1-6.8,6.1c-0.2,0.2-0.5,0.2-0.8,0.2
			C1015.4,614.2,1015.5,614,1015.6,613.7z"/>
		<path class="st17" d="M939.9,613.5c-0.1,0.3-0.2,0.6-0.2,0.9c-0.5,0.1-1,0.2-1.5,0.2c-5.2,0-10.5,0-15.7,0
			c0.2-0.3,0.4-0.7,0.7-0.8c1.2-0.3,2.4-0.6,3.6-0.9c1.6-0.3,3.2-0.5,4.8-0.7c0.9,0,1.8,0,2.7,0c1-0.1,2-0.1,2.9-0.4
			C938.7,611.2,939.7,611.8,939.9,613.5z"/>
		<path class="st18" d="M931.5,612.3c-1.6,0.2-3.2,0.4-4.8,0.7c-1.2,0.2-2.4,0.5-3.6,0.9c-0.3,0.1-0.5,0.5-0.7,0.8
			c-2.6,0-5.3,0-7.9,0c-0.4-0.5-0.7-1.1-1.1-1.3c-1.2-0.6-2.5-1.1-3.8-1.6c-1-0.3-1.6,0.3-1.8,1.1c-0.2,0.6,0,1.2,0.1,1.8
			c-0.3-0.1-0.6-0.1-1-0.2c0-0.2,0-0.3,0-0.5c0.3-1.4,0.5-2.9,2.4-3.1c0.6,0,1.3,0,1.9,0c0,0.1,0,0.2,0,0.2c0.2,0.1,0.5,0.2,0.7,0.2
			c0.2,0,0.3,0,0.5,0c0.3,0.2,0.7,0.6,1.1,0.7c3.8,0.9,7.6,0.9,11.4,0.5c0.3,0,0.5-0.3,0.8-0.5c0.3,0,0.6,0,1,0c0.5,0,1,0,1.4,0
			c0.9-0.1,1.8-0.2,2.6-0.2C930.8,612,931.2,612.1,931.5,612.3z"/>
		<path class="st4" d="M1034.5,570.4c-0.3,0.5-0.6,1-0.9,1.5c-0.1,0-0.2,0-0.3,0c-0.1-0.8-0.2-1.5-0.3-2.3c-0.2-1.5-0.4-3-0.6-4.4
			c-0.2-1.5-0.5-3-0.8-4.4c-0.1-0.4-0.3-0.8-0.5-1.2c0-0.2,0-0.3,0-0.5c-0.1-0.8,0.3-1.4,1.1-1.6c0.7-0.2,1.5-0.2,2.3-0.3
			C1034.5,561.6,1034.5,566,1034.5,570.4z"/>
		<path class="st12" d="M906.3,464.9c-1.7,1.7-3.3,3.5-5.1,5c-3.4,2.8-6.9,5.4-10.3,8.1c-1.2,0.9-2.5,1.8-3.8,2.7
			c0.2-0.5,0.3-1.1,0.7-1.5c2.9-3.4,6.7-5.9,10.2-8.5c2.3-1.7,4.5-3.6,6.8-5.4c0.4-0.3,1-0.4,1.5-0.6
			C906.3,464.8,906.3,464.8,906.3,464.9z"/>
		<path class="st14" d="M1034.5,494.6c-1.7-0.1-2.3-1.5-2.5-2.8c-0.4-2.1-0.5-4.3-0.5-6.5c0-1.2,1.6-2.1,3.1-1.8
			C1034.5,487.3,1034.5,491,1034.5,494.6z"/>
		<path class="st19" d="M983,464.9c0.1,1.2,0.9,1.7,2,1.7c4-0.2,8.1-0.3,12.1-0.7c3.7-0.4,7.3-0.1,10.9,0.5c0.7,0.1,1.3,0.2,2,0.2
			c1.6,0,1.7-0.1,2-1.7c0.2,0,0.5,0,0.7,0c-0.2,0.7-0.3,1.4-0.5,2.2c-0.6,0.1-1.2,0.2-1.8,0.2c-5.9-0.1-11.8-0.3-17.6-0.4
			c-0.2,0.1-0.5,0.3-0.7,0.4c-1.1,0.1-2.2,0.2-3.3,0.2c-0.4,0-0.8,0-1.2,0c-0.7,0-1.4,0-2.2,0c-0.2,0-0.3,0-0.5,0
			c-0.1,0-0.2,0-0.2,0c-1.2-0.5-2.1-1.3-2.4-2.6C982.5,464.9,982.8,464.9,983,464.9z"/>
		<path class="st12" d="M906.3,540.4c-1.1,0.1-1.8,0.6-2.4,1.7c-0.6,1.1-1.5,2-2.4,2.8c-4.5,4.1-9.1,8.1-13.6,12.1
			c-0.2,0.2-0.5,0.3-0.8,0.5c0.1-1.8,1.5-2.9,2.7-3.9c4.1-3.6,8.3-7.2,12.4-10.8c1.4-1.2,2.6-2.7,4.6-3
			C906.7,539.9,906.5,540.2,906.3,540.4z"/>
		<path class="st20" d="M906.3,540.4c0.2-0.2,0.3-0.5,0.5-0.7c0.1-0.1,0.2-0.2,0.2-0.2c0.3,0,0.6,0,1,0c-0.1,1,0.3,1.7,1.3,1.8
			c1.5,0.2,3.1,0.5,4.6,0.5c5.6-0.1,11.2-0.3,16.8-0.5c1.3,0,2.5-0.1,3.8-0.3c0.7-0.1,1.3-0.6,2-0.9c0.6,0.9,0.1,1.6-0.7,1.8
			c-0.8,0.2-1.7,0.2-2.5,0.2c-0.5,0-0.9-0.2-1.4-0.2c-2.1,0.1-4.1,0.3-6.2,0.4c-1.4,0-2.7,0-4.1,0c-2.4,0-4.7,0.1-7.1,0.1
			c-1.1,0-2.3,0.1-3.4,0.3c-0.4,0.1-0.7,0.6-1,0.9c-0.3,0-0.6,0-0.9,0c-0.2-0.2-0.3-0.3-0.5-0.5c-0.4-0.4-0.8-0.7-1.2-1.1
			C907.1,541.6,906.7,541,906.3,540.4z"/>
		<path class="st18" d="M1007,611.8c-1.2,0.2-2.3,0.4-3.5,0.4c-6.1,0.2-12.2,0.3-18.3,0.5c-1.1,0-1.8,0.7-2.1,1.7
			c-0.5,0-0.9,0-1.4,0c0-0.2,0-0.3,0-0.5c0.2-1.9,0.2-1.9,2.2-1.7c0.6,0.1,1.1,0,1.7,0c3.3-0.1,6.5-0.1,9.8-0.2
			c3.5-0.1,6.9-0.3,10.4-0.5C1006,611.6,1006.5,611.7,1007,611.8z"/>
		<path class="st18" d="M1015.6,613.7c-0.1,0.2-0.2,0.5-0.2,0.7c-0.2,0.1-0.5,0.1-0.7,0.2c0-0.4,0-0.8,0-1.2c0-0.9-0.5-1.5-1.5-1.4
			c-1.6,0.1-3.2,0.1-4.8,0.1c-0.3,0-0.6-0.2-0.9-0.4c1.1-0.1,2.3-0.1,3.4-0.3c0.6-0.1,1.1-0.6,1.6-0.9c0.2-0.1,0.5-0.2,0.7-0.2
			c0.1,0,0.2,0,0.2,0c1.8-0.5,3.6-1,5.5-1.5c-0.3,0.4-0.6,0.9-0.9,1.4c-0.7,0.8-1.4,1.5-2,2.3
			C1015.7,612.9,1015.7,613.3,1015.6,613.7z"/>
		<path class="st21" d="M906.3,464.9c0-0.1,0-0.1,0-0.2c0.5,0.1,0.9,0.1,1.4,0.2c0.6,1.3,1.6,1.8,3,1.7c6.8-0.1,13.7-0.2,20.5-0.2
			c0.5,0,1,0.2,1.5,0.2c-0.3,0.1-0.6,0.2-0.9,0.2c-7.6,0.2-15.2,0.3-22.8,0.5C908.1,466.5,907.2,465.7,906.3,464.9z"/>
		<path class="st17" d="M907.8,614.6c0-0.6-0.2-1.3-0.1-1.8c0.2-0.8,0.8-1.4,1.8-1.1c1.3,0.5,2.6,1,3.8,1.6c0.5,0.2,0.8,0.9,1.1,1.3
			C912.2,614.6,910,614.6,907.8,614.6z"/>
		<path class="st22" d="M1025.7,473.1c-0.2-0.1-0.5-0.2-0.7-0.4c-2.7-2.4-5.4-4.8-8-7.2c-0.2-0.1-0.2-0.4-0.3-0.6
			c1.1,0.8,2.3,1.5,3.3,2.4c1.8,1.6,3.6,3.3,5.4,5C1025.5,472.5,1025.5,472.8,1025.7,473.1z"/>
		<path class="st21" d="M933.4,466.6c1.4-0.2,2.8-0.4,4.3-0.5c0.8-0.1,1.2-0.4,1.3-1.3c0.2,0,0.3,0,0.5,0c-0.1,0.8,0.3,1.8-0.7,2.4
			c-1.2-0.1-2.4-0.1-3.6-0.3C934.5,467,934,466.8,933.4,466.6z"/>
		<path class="st4" d="M1031.9,591.9c0.5-0.8,1-1.6,1.6-2.3c0.2-0.2,0.7-0.1,1-0.1c-0.1,1-0.2,1.9-0.2,2.9
			C1033.5,592.2,1032.7,592.1,1031.9,591.9z"/>
		<path class="st6" d="M1012.2,467.1c0.2-0.7,0.3-1.4,0.5-2.2c0.6-0.1,1.3-0.1,1.9-0.2c0.1,0.9-0.1,1.6-0.9,2.1
			C1013.2,466.9,1012.7,467,1012.2,467.1z"/>
		<path class="st22" d="M1033.3,481.7c0.5-1.3,0.2-2.3-1.1-3.1c-0.8-0.5-1.5-1.3-2.3-1.9c1.3,0.9,2.7,1.7,3.8,2.7
			c0.4,0.4,0.2,1.4,0.2,2.1C1033.8,481.5,1033.6,481.6,1033.3,481.7z"/>
		<path class="st13" d="M1034.5,557.2c-0.8,0.1-1.5,0.1-2.3,0.3c-0.7,0.2-1.2,0.8-1.1,1.6c-1-0.6,0.1-1.3,0-1.9c1-0.3,1.9-0.6,2.9-1
			C1034.2,556.5,1034.4,556.9,1034.5,557.2z"/>
		<path class="st22" d="M1027.1,474.3c-0.5-0.4-1-0.8-1.4-1.2C1026.1,473.5,1026.6,473.9,1027.1,474.3z"/>
		<path class="st22" d="M1028.5,475.5c-0.4-0.3-0.8-0.6-1.2-1C1027.7,474.8,1028.1,475.1,1028.5,475.5z"/>
		<path class="st22" d="M1029.7,476.4c-0.3-0.2-0.6-0.5-1-0.7C1029.1,475.9,1029.4,476.2,1029.7,476.4z"/>
		<path class="st23" d="M909.2,543.7c0.3,0,0.6,0,0.9,0c1,0,1.9,0,2.9,0c1.9,0,3.8,0,5.7-0.1c2.3-0.1,4.6-0.4,6.9-0.3
			c3.4,0.1,6.8,0.4,10.2,0.7c0.8,0.1,1.7,0.5,2.5,1c1.1,0.6,2.2,1.6,3.3,2c2,0.8,3.5,1.9,5,3.4c2.9,3.1,5.9,6.1,8.9,9.1
			c0.7,0.7,1.5,1.1,2.3,1.7c-1,0.9-1,2.1-1.1,3.2c-0.1,1.8-0.3,3.6-0.3,5.3c0,1.7,0.3,3.4,0.4,5.1c0.1,1.4,0.1,2.8,0.3,4.2
			c0.6,4.6,0.4,9.2,0,13.8c-0.4,0.6-0.8,1.1-1.2,1.7c-0.4,0.3-0.8,0.6-1.2,1c-0.1,0.1-0.2,0.2-0.2,0.2c-0.3,0.2-0.7,0.4-1,0.6
			c-2.6,2.3-5.3,4.6-7.8,6.9c-1.2,1.1-2.1,2.3-3.2,3.5c-0.8,0.6-1.5,1.3-2.3,1.9c-1.1,0.8-2.2,1.6-3.2,2.4c-0.5-0.1-0.9-0.2-1.4-0.2
			c-2,0-4,0-6.1,0c0.4-0.2,0.9-0.5,1.3-0.5c3.6,0.1,6.8-0.9,9.5-3.3c4.3-3.9,8.5-7.8,12.7-11.8c1.8-1.7,3.1-3.8,3.2-6.2
			c0.2-3.1,0.3-6.3-0.1-9.4c-0.4-3.5-4.2-5.7-7.6-4.8c-2.4,0.7-4,2.2-4.7,4.5c-1.3,4.4-3.4,8.1-6.8,11.3c-4.2,3.8-8.8,6.7-14.3,8.1
			c-2.9,0.7-5.8,1.6-8.5,2.7c-2.8,1.1-3.9,3.5-3.7,6.5c0.1,1.1,0.6,1.8,1.7,2c0.6,0.1,1.3,0.1,1.9,0.3c0.3,0.1,0.7,0.3,1,0.5
			c-0.5,0-1,0-1.5,0c-0.8,0-1.7,0-2.5,0c-0.6,0-1.3,0-1.9,0c-0.3-0.1-0.6-0.2-1-0.2c-0.3-0.6-0.4-1.2-0.9-1.7c-4-4-8-7.9-12-11.8
			c-1.1-1.1-2-2.4-3-3.6c0.1-0.1,0.2-0.2,0.3-0.3c0.2,0,0.5,0,0.6,0.1c4.5,3.5,9.8,2.2,12.2-3c1.2-2.7,2.3-5.5,3.6-8.1
			c1.3-2.5,2.8-4.9,4.2-7.4c0.1-0.2,0.2-0.4,0.4-0.4c2-0.8,2.8-2.8,4.4-4.1c2.3-1.9,4.7-3.6,7-5.3c0.2-0.2,0.5-0.2,0.7-0.4
			c2.3-2.6,5.3-2.1,8.1-1.9c2.2,0.2,4.3,0.9,6.5,1.1c4.5,0.5,9.1-2.9,9.2-7.7c0-1.2-0.7-2-1.4-2.8c-2.7-3.2-6.2-5.3-9.7-7.5
			c-1-0.6-2.1-1.3-3.3-1.5c-1.5-0.3-3.2-0.3-4.8-0.3c-3.1,0-6.2-0.1-9.3,0c-5.3,0.3-10.5,1-15,4.2c-1.7,1.2-3.2,2.6-4.8,3.9
			c-0.3,0.2-0.7,0.3-1.1,0.5c0.5-0.5,1-1.1,1.5-1.6c0.5-0.6,1-1.1,1.6-1.7c0.2-0.2,0.3-0.3,0.5-0.5c0.8,0,1.2-0.4,1.2-1.2
			c1.7-0.9,3-2.3,3.8-4.1C908.9,543.8,909.1,543.7,909.2,543.7z"/>
		<path class="st14" d="M900.2,566.6c0.1,0.7,0.3,1.4,0.4,2.1c0.1,0,0.2,0.1,0.3,0.1c0.1-0.3,0.3-0.6,0.4-1c0.2-0.7,0.2-1.8,0.6-2.1
			c0.9-0.7,1.2-1.7,1.8-2.5c0.4-0.6,0.7-1.1-0.7-1.3c1.4-1.5,2.5-2.8,3.8-4c3.7-3.5,7.8-6.4,12.3-8.8c2.3-1.2,4.8-1.7,7.4-1.9
			c4.4-0.4,8.7-0.5,12.9,1c2.7,1,5,2.6,6.6,5c2.1,3.1-0.4,7.6-4.4,7.7c-1.9,0-3.9-0.2-5.6-0.8c-4.1-1.3-8.3-1.2-12.4-0.7
			c-4.5,0.5-8.8,1.8-12.8,4.2c-2.2,1.3-4.1,2.9-5.5,4.9c-1,1.3-1.8,2.8-1.6,4.6c0.1,0.7-0.4,1.4-0.5,2.1c-0.3,2.2-0.7,4.4-0.8,6.6
			c-0.2,2.9-0.8,5.6-2.7,7.9c-0.7,0.9-2.2,1.4-3.3,1c-2.6-1-4.6-2.9-4.9-5.7c-0.2-1.5,0.4-3.2,1-4.6c2-4.4,4.3-8.6,6.4-12.9
			c0.2-0.4,0.5-0.6,0.8-1C899.9,566.6,900,566.6,900.2,566.6z"/>
		<path class="st4" d="M908.2,610.6c0.3,0.1,0.6,0.2,1,0.2c-1.8,0.2-2.1,1.7-2.4,3.1c-1.1-0.8-2.3-1.5-3.2-2.4
			c-2.3-2.2-4.6-4.6-6.9-6.8c-2.6-2.5-5.4-5-8-7.5c-1.3-1.3-1.4-2.4-0.4-3.6c0.6-0.7,1.3-1,2-0.3c0.9,0.8,1.7,1.7,2.5,2.5
			c3.5,3.3,6.9,6.6,10.4,9.9c1.3,1.3,2.6,2.7,3.9,4.1C907.4,610.1,907.9,610.3,908.2,610.6z"/>
		<path class="st22" d="M889.3,569.6c0-0.2,0-0.3,0-0.5c0-0.3,0-0.6,0-1c0-0.2,0-0.3,0-0.5c0.2-0.5,0.5-1,0.7-1.4c0,0.3,0,0.6,0,1
			c0,0.6,0,1.3,0,1.9c0,0.2,0,0.3,0,0.5c-0.1,1.7-0.2,3.4-0.2,5.1c0,4.7,0,9.4,0,14.1c-0.2,0-0.3,0-0.5,0c0-0.9-0.1-1.8-0.1-2.7
			c0-2.2,0-4.4,0-6.6c0-1.3-0.1-2.6-0.2-3.8c0-0.5,0-1,0-1.4c0.1-0.2,0.2-0.5,0.2-0.7C889.3,572.2,889.3,570.9,889.3,569.6z"/>
		<path class="st23" d="M890,562.7c0.1-0.4,0.2-0.8,0.2-1.2c1-1,1.9-2.1,2.9-3.1c0.7-0.7,1.4-1.4,2.2-2.2c0.1-0.1,0.2-0.2,0.2-0.2
			c0.2-0.2,0.3-0.5,0.5-0.7l0,0c0.2,0,0.3,0,0.5,0c0.4-0.2,0.8-0.3,1.2-0.5c0,0,0,0,0,0c-0.7,0.8-1.4,1.6-2.1,2.4
			c-1.3,1.5-2.8,2.9-4,4.5c-0.5,0.6-0.5,1.5-0.8,2.3c-0.1,0.3-0.3,0.6-0.5,0.9c-0.1-0.3-0.2-0.6-0.2-1
			C890,563.5,890,563.1,890,562.7z"/>
		<path class="st8" d="M889.1,575.6c0.1,1.3,0.2,2.6,0.2,3.8c0,2.2,0,4.4,0,6.6c0,0.9,0.1,1.8,0.1,2.7c0,0.2,0,0.5,0,0.7
			c-0.1,0.6-0.2,1.3-0.2,1.9c-0.1,0.1-0.2,0.2-0.2,0.2c-0.1-5.1-0.2-10.1-0.2-15.2C888.6,576.2,888.9,575.9,889.1,575.6z"/>
		<path class="st22" d="M903.2,549.5c-0.5,0.6-1,1.1-1.6,1.7c-0.5,0.6-1,1.1-1.5,1.6c-0.2,0-0.3,0-0.5,0c0,0,0,0,0,0
			C900.8,551.7,902,550.6,903.2,549.5z"/>
		<path class="st23" d="M889.3,589.5c0-0.2,0-0.5,0-0.7c0.2,0,0.3,0,0.5,0c0.3,0.9,0.6,1.7,1,2.8c-0.5-0.1-0.9-0.1-1.2-0.2
			C889.6,590.8,890.1,590.1,889.3,589.5z"/>
		<path class="st23" d="M899.6,553.3c-0.6,0.5-1.3,1-1.9,1.4c0,0,0,0,0,0c0.2-0.3,0.3-0.6,0.5-1c0.1,0,0.2,0,0.2,0
			C898.8,553.7,899.2,553.5,899.6,553.3z"/>
		<path class="st22" d="M890,563.9c0.1,0.3,0.2,0.6,0.2,1c0,0.3,0,0.6,0,1c-0.1,0-0.2,0-0.2,0C890,565.2,890,564.5,890,563.9z"/>
		<path class="st22" d="M889.3,589.5c0.8,0.5,0.3,1.3,0.2,1.9c-0.2,0-0.3,0-0.5,0C889.2,590.8,889.2,590.2,889.3,589.5z"/>
		<path class="st22" d="M899.6,553.3c-0.4,0.2-0.8,0.3-1.2,0.5c0.4-0.3,0.8-0.6,1.2-1c0,0,0,0,0,0
			C899.6,553,899.6,553.2,899.6,553.3z"/>
		<path class="st23" d="M890,565.8c0.1,0,0.2,0,0.2,0c0.3,0.5,0.5,1.1-0.2,1.4c0-0.3,0-0.6,0-1C890,566.1,890,566,890,565.8z"/>
		<path class="st23" d="M890,569.6c0-0.2,0-0.3,0-0.5C890,569.3,890,569.5,890,569.6z"/>
		<path class="st10" d="M1016.8,546.6c0.1,0,0.2,0,0.2,0c0.5,0.6,0.9,1.2,1.4,1.7c0.7,0.7,1.5,1.2,2.1,1.9c0.8,0.9,1.8,1.8,2.1,2.8
			c1,3.3-1.1,8.1-4.1,9.9c-3.3,2-6.9,1.7-10.5,1.9c-2,0.1-3.9-0.6-6,0.2c-3.7,1.4-6.2,4.3-9.2,6.6c-0.1,0.1-0.2,0.3-0.3,0.5
			c-0.9,2-1.8,3.9-2.7,5.9c-0.7,1.6-1.4,3.1-2,4.7c-0.9,2.3-2.7,3.4-4.9,3.8c-1.8,0.3-3.6,0.4-5.4,0.5c-1.8,0.1-3.4,0.4-4.8,1.5
			c-1.6,1.3-3.1,2.7-4.6,4.1c-0.2,0.2-0.2,1,0,1.4c0.7,1,1.6,2,2.5,2.9c0.6,0.6,1.3,1.1,1.9,1.7c1,1.1,2.1,2.2,3.1,3.4
			c0.4,0.4,0.8,0.9,1.2,1.3c2.2,2.2,4.4,4.4,6.6,6.6c0.3,0.3,1,0.4,1.5,0.5c0.6,0.2,1.3,0.3,1.9,0.5c-0.6,0.1-1.3,0.2-1.9,0.2
			c-2.5-0.3-3.8-2.3-5.5-3.8c-2.6-2.2-5.1-4.6-7.5-7c-1.6-1.6-2.9-3.4-4.4-5.1c-1.1-1.3-2.5-2.3-4.2-2.9c0.2-0.4,0.6-0.8,0.7-1.2
			c0.2-2.1,0.4-4.2,0.3-6.3c-0.2-6.3-0.5-12.6-0.8-18.8c0-0.2,0-0.3,0-0.5c0-0.2,0-0.5,0-0.7c0-1,0-2.1,0-3.1
			c0.7-0.8,1.4-1.6,2.1-2.4c0.2-0.2,0.3-0.3,0.5-0.5c0.4-0.4,0.8-0.8,1.2-1.2c3-3,6.1-6.1,9.1-9.1c0,0,0.1,0,0.1-0.1
			c1.7-1.7,3.5-3.5,5.2-5.2c0.2,0,0.5,0,0.7,0c0.5,0.1,1,0.2,1.5,0.2c4.4-0.2,8.8-0.6,13.2-0.6c3.1-0.1,6.3,0.2,9.4,0.3
			c0.9,0,1.8,0.1,2.7,0.1c0.2,0.1,0.3,0.2,0.5,0.2c0.7,0,1.4,0,2.2,0c1.3,0.8,2.6,1.6,3.8,2.4c0.1,0,0.2,0,0.2,0
			C1016.3,546.2,1016.6,546.4,1016.8,546.6z M964.7,571.1c0.2,1.4,0.2,2.8,0.5,4.1c0.5,2,1,4,1.7,5.9c0.5,1.6,1,1.7,2.7,1.5
			c0.2,0,0.5,0,0.6,0.1c1.4,1.2,3.1,0.8,4.7,0.8c2,0.1,3.8-0.6,5.6-1.4c0.4-0.2,0.7-0.7,0.9-1.1c0.5-1.5,0.9-3.1,1.4-4.5
			c0.6-1.7,1.1-3.7,2.2-5.1c1.7-2.3,3.6-4.6,5.9-6.4c2.5-1.9,5.3-3.6,8.5-4.2c3-0.6,5.9-1.2,9-0.4c1.4,0.3,3,0.2,4.5,0.1
			c2-0.1,4.8-2.4,5.2-4.7c0.4-2.3-0.4-4-1.9-5.5c-2.3-2.5-5.6-3.7-8.6-5c-3.3-1.4-6.8-1.5-10.3-1.4c-6,0.2-11.5,1.5-16.7,4.7
			c-4.7,2.9-9.2,6-12.1,10.9C966.3,563.2,964.7,566.9,964.7,571.1z"/>
		<path class="st9" d="M937,611.1c1.1-0.8,2.2-1.6,3.2-2.4c0.8-0.6,1.5-1.3,2.3-1.9c1-0.8,2.1-1.6,3.1-2.5c2-1.8,3.9-3.5,5.9-5.4
			c1-1,2-2.1,3-3.1c0.1-0.1,0.2-0.2,0.2-0.2c0.4-0.3,0.8-0.6,1.2-1c0.4-0.6,0.8-1.1,1.2-1.7c0.2-0.1,0.3-0.2,0.5-0.2
			c1.1-0.6,2.2-0.6,3.3,0l0,0c0.1,1.5-0.9,2.4-1.8,3.4c-1.7,1.9-3.2,4.1-5,5.9c-1.9,1.9-4.2,3.4-6.3,5.1c-2.4,2-4.8,4-7.1,5.9
			c-0.3,0.2-0.6,0.4-0.9,0.5c-0.2-1.7-1.2-2.2-2.8-1.6c-0.9,0.3-1.9,0.3-2.9,0.4c-0.9,0.1-1.8,0-2.7,0c-0.3-0.2-0.6-0.3-1-0.5
			c0.5-0.1,1.1-0.2,1.6-0.2C933.7,611.4,935.4,611.3,937,611.1z"/>
		<path class="st12" d="M963.6,561.7c0,1,0,2.1,0,3.1c0,0.2,0,0.5,0,0.7c0,0.2,0,0.3,0,0.5c-0.2,0.2-0.4,0.4-0.4,0.6
			c0,2.4,0,4.8,0.1,7.2c0.1,3.1,0.5,6.2,0.6,9.3c0.1,2-0.2,4-0.2,6c0,1.2,0,2.4-1,3.3c-0.2,0-0.3,0-0.5,0c-0.4-2-1.1-3.9-1.1-5.9
			c0-4.1,0.4-8.2,0.6-12.3c0.1-2.3,0.4-4.6-0.5-7c-0.4-1.1-0.4-2.4-0.4-3.6c0-0.9-0.2-1.7-1.2-1.9c-0.1-0.1-0.2-0.2-0.2-0.2
			c0-0.2,0-0.3,0-0.5c2.4-0.3,2.3,1.9,3.2,3.5c0.2-0.7,0.3-1.1,0.5-1.6C963.2,562.5,963.4,562.1,963.6,561.7L963.6,561.7z"/>
		<path class="st9" d="M984.9,611.1c0.6-0.1,1.3-0.2,1.9-0.2c1.4,0,2.9,0,4.3,0c0.5,0.7,1,0.7,1.5,0c2.6,0,5.1,0,7.7,0
			c0.2,0,0.3,0,0.5,0c0.2,0,0.5,0,0.7,0c0.2,0,0.3,0,0.5,0c3.3-0.2,6.5-0.3,9.8-0.5c0.2,0.1,0.5,0.2,0.7,0.2
			c-0.5,0.3-1.1,0.8-1.6,0.9c-1.1,0.2-2.3,0.2-3.4,0.3c-0.2,0-0.3,0-0.5,0c-0.5-0.1-0.9-0.3-1.4-0.2c-3.5,0.1-6.9,0.3-10.4,0.5
			c-3.3,0.1-6.5,0.2-9.8,0.2c-0.6,0-1.1,0-1.7,0c-2-0.2-2-0.2-2.2,1.7c-0.8-1.3-0.3-2.4,1.3-2.6
			C983.5,611.3,984.2,611.2,984.9,611.1z"/>
		<path class="st8" d="M959.5,561.7c1,0.3,1.1,1,1.2,1.9c0,1.2,0,2.5,0.4,3.6c0.9,2.3,0.6,4.6,0.5,7c-0.1,4.1-0.6,8.2-0.6,12.3
			c0,2,0.7,3.9,1.1,5.9c-0.2,0-0.3,0-0.5,0c-0.2-0.4-0.5-0.9-0.7-1.3c-0.2-0.7-0.2-1.4-0.3-2c-0.1-0.4-0.2-0.8-0.2-1.2
			c0-0.2,0-0.5,0-0.7c0-3.7,0-7.3,0-11c-0.1-0.2-0.2-0.3-0.2-0.5c0-1.7,0-3.4,0-5c0-0.5,0-1,0-1.4c-0.1-1-0.2-1.9-0.2-2.9
			c-0.1-0.2-0.2-0.5-0.2-0.7c0-0.4,0-0.8,0-1.2c-0.1-0.4-0.2-0.8-0.2-1.2c0-0.2,0-0.3,0-0.5C959.5,562.4,959.5,562,959.5,561.7z"/>
		<path class="st8" d="M962.6,592.4c0.9-0.9,1-2,1-3.3c0-2,0.2-4,0.2-6c-0.1-3.1-0.4-6.2-0.6-9.3c-0.1-2.4-0.1-4.8-0.1-7.2
			c0-0.2,0.3-0.4,0.4-0.6c0.3,6.3,0.6,12.6,0.8,18.8c0.1,2.1-0.2,4.2-0.3,6.3c0,0.4-0.4,0.8-0.7,1.2
			C963.1,592.4,962.9,592.4,962.6,592.4z"/>
		<path class="st10" d="M960.7,589c0.1,0.7,0.1,1.4,0.3,2c0.1,0.5,0.4,0.9,0.7,1.3c-0.2,0.1-0.5,0.2-0.7,0.2c0,0,0,0,0,0
			C960.9,591.4,960.8,590.2,960.7,589z"/>
		<path class="st24" d="M889.1,517.1c2.2-1.6,1.7-4.1,1.9-6.3c0.2-3.7,0.1-7.5,0.1-11.3c0-2.9,0-5.9,0-8.8c0-1.7,0.2-3.3,0.3-5
			c0.1-1.4,0.7-2.6,1.8-3.6c2.2-2,4.4-3.9,6.6-5.9c0.4-0.4,0.8-0.9,1.2-1.3c0.2-0.2,0.3-0.3,0.5-0.5c0.6-0.6,1.1-1.1,1.7-1.7
			c0.1,0,0.2,0,0.2,0c0.5-0.5,1-1,1.4-1.4c0.2-0.2,0.3-0.5,0.5-0.7c0.2,0,0.3,0,0.5,0c0.2-0.1,0.5-0.2,0.7-0.2
			c0.3-0.2,0.6-0.5,1-0.7l0,0c1.5-0.8,3.2-1.1,4.9-1c0.7,0,1.3-0.1,2-0.3c0.2-0.1,0.4-0.4,0.5-0.6c0.2,0,0.5,0,0.7,0
			c0.2,0,0.5,0,0.7,0c0.2,0,0.3,0,0.5,0c0.6,0.1,1.1,0.1,1.7,0.2c0.3-0.1,0.6-0.1,0.9-0.2c0.5,0.1,0.9,0.2,1.4,0.2
			c2.2,0,4.4,0,6.5,0c0.2,0.1,0.5,0.2,0.7,0.2c1.8,0,3.7,0,5.5,0c0.9,0.2,1.8,0.5,2.6,0.7c0.7,0.2,1.6,0.3,2,0.8
			c1.2,1.7,3,2.7,4.7,3.6c2.2,1.2,3.8,3.1,5.5,4.9c0.2,0.2,0.3,0.6,0.5,1c0.3,1.1,0.7,2.1,1,3.2c0.3,1.5,0.5,3,0.7,4.4
			c0,0.3-0.1,0.7-0.3,1c-0.7,0.7-1.4,1.5-2.2,2c-3.1,2-6.2,3.9-9.4,5.8c-0.3,0.2-0.9,0.2-1.3,0.1c-0.9-0.2-1.8-0.4-2.7-0.7
			c-5.1-1.6-9.9-1-14.5,1.8c-5.3,3.2-7.8,7.8-7.7,13.9c0,1.7-0.1,3.4-0.2,5.1c-0.1,1.5-0.5,2.8-2,3.6c-0.4,0.2-0.7,0.7-1.1,1
			c-1.7,1.3-3.4,2.6-5.1,3.8c-1.1,0.8-2.3,1.4-3.4,2c0.2,0.8,0.4,1.4,0.5,2.1c-2.9-2.8-5.9-5.6-8.8-8.4
			C891.2,518.8,890.1,518,889.1,517.1z M944.7,484.8c-0.2-0.9-0.2-2.2-0.7-3.3c-1-1.9-2.1-3.8-3.6-5.4c-1.8-2.1-4.7-2.2-7.1-3.2
			c-3.6-1.5-7.2-1.5-10.9-1.1c-5.3,0.7-10.3,2.3-14.9,5.2c-3.6,2.3-6.6,5.3-8.8,9c-1.7,3-2.9,6.4-4.4,9.6c-1.5,3.1-2,6.5-2,9.9
			c-0.1,2.5,0.5,4.9,1.8,7.2c1.6,2.6,3.2,5,6.2,6.3c1.6,0.7,3.5,0.4,4.1-1c0.9-1.9,1.6-4,2.2-6c0.4-1.2,0.4-2.6,0.5-3.9
			c0.4-3.3,0.9-6.6,2.6-9.5c0.8-1.4,1.3-3,2.4-4.1c2.7-2.6,5.9-4.8,9.6-5.8c1.9-0.5,4-0.9,6-0.8c2.8,0.2,5.5,1,8.2,1.7
			c1.8,0.4,3.6,0.5,5.4,0C943.1,489,944.7,486.9,944.7,484.8z"/>
		<path class="st0" d="M901.1,528.2c-0.2-0.6-0.3-1.3-0.5-2.1c1.1-0.6,2.3-1.2,3.4-2c1.8-1.2,3.4-2.5,5.1-3.8c0.4-0.3,0.7-0.7,1.1-1
			c1.5-0.8,1.9-2.1,2-3.6c0.1-1.7,0.3-3.4,0.2-5.1c-0.1-6.1,2.4-10.7,7.7-13.9c4.6-2.8,9.4-3.4,14.5-1.8c0.9,0.3,1.8,0.5,2.7,0.7
			c0.4,0.1,0.9,0.1,1.3-0.1c3.2-1.9,6.3-3.8,9.4-5.8c0.8-0.5,1.5-1.3,2.2-2c0.2-0.2,0.4-0.7,0.3-1c-0.2-1.5-0.4-3-0.7-4.4
			c-0.2-1.1-0.6-2.1-1-3.2c-0.1-0.3-0.2-0.7-0.5-1c-1.7-1.8-3.3-3.7-5.5-4.9c-1.7-0.9-3.5-1.9-4.7-3.6c-0.4-0.5-1.3-0.6-2-0.8
			c-0.9-0.3-1.8-0.5-2.6-0.7c1.1,0,2.2,0,3.2,0c0.9-0.1,1.5,0.3,2.1,1.1c0.8,1,1.8,2,2.9,2.6c2.8,1.7,5.4,3.6,7.8,5.9
			c2.2,2.2,4.9,3.8,7.7,5.1c0.6,0.3,1,0.9,1.6,1.3c-0.7,0-1.1,0.2-1.2,1c-0.1,1.7-0.3,3.3-0.5,5c-0.1,1-0.2,2.1-0.2,3.1
			c0.1,1.9,0.3,3.9,0.4,5.8c-0.2-0.3-0.4-0.6-0.5-1c-0.5-1.8-0.9-3.5-2.1-5c-1.3-1.7-3.3-2.5-5.2-1.7c-2.7,1-5.3,2.3-7,4.7
			c-0.7,0.9-1.1,2.1-1.4,3.3c-0.3,1.3-0.2,2.6-0.5,3.9c-1.3,5.3-4.9,9-9.2,12.1c-2.9,2.1-6.3,3.1-9.7,4c-3.5,0.9-7.1,1.4-10.5,2.6
			c-2.9,1-5.4,2.8-7.1,5.6c-0.5,0.8-0.6,1.6-0.2,2.5c0.3,0.6,0.5,1.2,0.8,1.8c-0.3-0.3-0.6-0.6-1-0.8c-0.6-0.5-1.1-1-1.7-1.5
			c0-0.1,0-0.2,0-0.2c-0.2-0.2-0.3-0.5-0.5-0.7c-0.2,0-0.3,0-0.5,0C901.1,528.5,901.1,528.3,901.1,528.2z"/>
		<path class="st22" d="M904.6,532c-0.3-0.6-0.5-1.2-0.8-1.8c-0.4-0.9-0.3-1.6,0.2-2.5c1.6-2.8,4.2-4.6,7.1-5.6
			c3.4-1.2,7-1.7,10.5-2.6c3.4-0.9,6.8-1.9,9.7-4c4.2-3.1,7.8-6.8,9.2-12.1c0.3-1.3,0.2-2.6,0.5-3.9c0.3-1.2,0.7-2.3,1.4-3.3
			c1.7-2.4,4.3-3.7,7-4.7c2-0.8,3.9,0,5.2,1.7c1.2,1.5,1.6,3.3,2.1,5c0.1,0.3,0.3,0.7,0.5,1c0,0.5,0,1,0,1.4c0,0.2,0,0.3,0,0.5
			c0,2.3,0,4.5,0,6.8c0,0.8,0,1.6,0,2.4c-0.2,0.3-0.4,0.6-0.5,1c-0.6,2.3-0.8,4.6-2.6,6.4c-0.4,0.4-0.7,1-1,1.5
			c-0.6,0.6-1.1,1.3-1.7,1.9c-0.2,0.2-0.5,0.5-0.7,0.7c-2.3,2.2-4.6,4.5-7,6.6c-2.3,2.1-4.7,4-7.1,6c-0.4,0.3-1,0.5-1.5,0.6
			c-4.4,0.4-8.7,0.7-13.1,0.9c-2.7,0.1-5.3,0-8,0c-0.5,0-0.9,0.1-1.4,0.2c-0.2,0-0.5,0-0.7,0c-0.8-0.1-1.6-0.1-2.4-0.2
			c-0.5-0.1-1.1-0.1-1.4-0.4C906.8,534.3,905.7,533.2,904.6,532z M955.7,504.4c0-0.4,0-0.9,0-1.3c-0.2-3-1.2-5.5-4-7.1
			c-3-1.7-6.3,0.3-6.3,3.7c0,0.9,0.1,1.9,0,2.8c-0.3,1.6-0.4,3.3-1.2,4.7c-1.5,2.6-3.4,5.1-5.3,7.5c-1.8,2.3-4,4.1-6.5,5.5
			c-5.2,2.7-10.7,4.2-16.5,5.1c-2.2,0.3-4.4,0.7-6.3,2.1c-1.4,1-2,2.5-1.6,4.2c0.3,1.5,1.7,2.8,3.2,3.1c3.6,0.7,7.2,0.6,10.7-0.2
			c4.2-1,8.3-2.3,12.3-3.8c4-1.4,7.4-3.9,10.4-6.9c3.2-3.2,5.7-6.9,8.2-10.5C954.6,510.5,956,507.7,955.7,504.4z"/>
		<path class="st17" d="M922.4,537.3c0.2,0,0.5,0,0.7,0c0.7,0.3,1.4,0.6,1.9-0.2c0.3,0,0.6,0,1,0c0.4-0.1,0.8-0.2,1.2-0.2
			c0.1,0,0.2,0,0.2,0c0.3,0,0.6,0,1,0c0.3,0,0.6,0,1,0c0.2,0,0.3,0,0.5,0c1.8-0.1,3.6-0.3,5.5-0.4c0.7,0,1.8-0.1,1.9,0.2
			c0.3,0.7,0.2,1.6,0.1,2.3c0,0.3-0.2,0.5-0.3,0.8c-0.2,0-0.3,0-0.5,0c-0.1,0-0.2,0-0.2,0l0,0c-0.3-0.2-0.5-0.5-0.9-0.7
			c-1.3-0.5-2.7-0.7-4.2-0.6c-3.5,0.2-7,0.2-10.6,0.3c-0.4,0-0.8,0.2-1.2,0.4c-1.4,0-2.7,0-4.1,0c-0.4-0.1-0.8-0.3-1.2-0.4
			c-1.5,0-3.1,0-4.6,0c0.1-1.4,1.3-0.9,2-0.9c2.7,0,5.4,0.2,8.2,0.2C920.7,538,921.5,537.5,922.4,537.3z"/>
		<path class="st2" d="M927.4,536.8c-0.1,0-0.2,0-0.2,0c-0.4,0-0.8,0-1.2,0c-0.5-0.2-0.9-0.4-1.4-0.4c-3.5,0-7.1,0-10.6,0
			c-0.5,0-1-0.2-1.5-0.2c0.5-0.1,0.9-0.2,1.4-0.2c2.7,0,5.3,0.1,8,0c4.4-0.2,8.7-0.6,13.1-0.9c0.5,0,1.1-0.3,1.5-0.6
			c2.4-2,4.8-3.9,7.1-6c2.4-2.1,4.7-4.4,7-6.6c0.2-0.2,0.5-0.5,0.7-0.7c0.6-0.6,1.1-1.3,1.7-1.9c0.2,0,0.5,0,0.7,0
			c-0.9,1.1-1.7,2.3-2.8,3.2c-3.3,3.2-6.5,6.4-9.9,9.5c-1.6,1.5-3.3,3-5.3,3.8c-1.8,0.7-4,0.4-6,0.5c-0.2,0-0.3,0-0.5,0
			c-0.3,0-0.6,0-1,0C928.1,536.3,927.7,536.6,927.4,536.8z"/>
		<path class="st21" d="M915.4,539.1c1.4,0,2.7,0,4.1,0c2.2,0,4.3,0.1,6.5,0.1c-0.5,0.1-0.9,0.4-1.4,0.4c-4.8,0-9.6,0-14.4,0
			c-0.5,0-1,0.2-1.4,0.2c0,0.1,0,0.3,0,0.4c0.3,0.1,0.7,0.4,1,0.4c1.7,0.2,3.3,0.5,5,0.5c2.4,0,4.8-0.1,7.3-0.2
			c3.3-0.1,6.6-0.1,9.9-0.3c1.1,0,2.1-0.3,3.2-0.4c-0.2-0.4-0.3-0.6-0.5-0.6c-0.9-0.2-1.8-0.3-2.7-0.4c-1.6-0.1-3.2-0.2-4.8-0.3
			c0.4-0.1,0.8-0.2,1.3-0.2c2.6-0.1,5.3-0.2,7.9,0.7c0,0,0,0,0,0c0.1,0.1,0.2,0.2,0.2,0.3c0,0.1,0,0.1,0,0.2c-0.7,0.3-1.3,0.8-2,0.9
			c-1.2,0.2-2.5,0.3-3.8,0.3c-5.6,0.2-11.2,0.4-16.8,0.5c-1.5,0-3.1-0.3-4.6-0.5c-1-0.1-1.4-0.8-1.3-1.8c0.4-0.2,0.8-0.3,1.2-0.5
			c0.2,0,0.3,0,0.5,0C911.6,539,913.5,539.1,915.4,539.1z"/>
		<path class="st2" d="M904.6,532c1.1,1.1,2.2,2.3,3.3,3.4c0.3,0.3,0.9,0.4,1.4,0.4c0.8,0.1,1.6,0.2,2.4,0.2
			c-1.4,0.2-2.7,0.5-4.1,0.7c-0.4,0-0.9-0.1-1.2-0.4c-1.9-2-3.5-4.2-4.6-6.7c0.6,0.5,1.1,1,1.7,1.5C904,531.5,904.3,531.7,904.6,532
			z"/>
		<path class="st18" d="M909.7,539c-0.2,0-0.3,0-0.5,0c-0.6-0.9-0.1-1.9,1.2-1.9c1.1,0,2.3,0.2,3.4,0.2c2.9,0,5.7,0,8.6,0
			c-0.8,0.2-1.7,0.7-2.5,0.7c-2.7,0-5.4-0.1-8.2-0.2c-0.8,0-1.9-0.5-2,0.9C909.7,538.8,909.7,538.9,909.7,539z"/>
		<path class="st18" d="M925,537c-0.5,0.8-1.2,0.5-1.9,0.2C923.7,537.2,924.4,537.1,925,537z"/>
		<path class="st18" d="M926,536.8c0.4,0,0.8,0,1.2,0c-0.4,0.1-0.8,0.2-1.2,0.2C926,536.9,926,536.9,926,536.8z"/>
		<path class="st24" d="M901.5,528.7c0.2,0.2,0.3,0.5,0.5,0.7c-0.2-0.1-0.3-0.2-0.5-0.2C901.5,529,901.5,528.8,901.5,528.7z"/>
		<path class="st2" d="M901.5,528.7c0,0.2,0,0.3,0,0.5c-0.2-0.2-0.3-0.3-0.5-0.5C901.2,528.7,901.4,528.7,901.5,528.7z"/>
		<path class="st12" d="M958.6,484.3c-0.5-0.4-1-1-1.6-1.3c-2.8-1.4-5.4-2.9-7.7-5.1c-2.3-2.3-4.9-4.2-7.8-5.9
			c-1.1-0.6-2-1.6-2.9-2.6c-0.6-0.7-1.1-1.1-2.1-1.1c-1.1,0.1-2.1,0-3.2,0c-1.8,0-3.7,0-5.5,0c-0.2-0.1-0.5-0.2-0.7-0.2
			c-2.2,0-4.4,0-6.5,0c-0.5,0-0.9-0.1-1.4-0.2c0.5-0.1,1-0.2,1.5-0.2c5.3,0.1,10.5,0.2,15.8,0.2c0.7,0,1.4-0.1,2.1-0.2
			c0.9,1.2,1.6,2.4,3.1,3c1.6,0.7,2.9,2,4.3,3c3.4,2.6,6.7,5.3,10.1,7.8c1,0.8,2.1,1.4,3.1,2.1c0,0.3,0,0.6,0,1
			C959,484.5,958.8,484.4,958.6,484.3z"/>
		<path class="st20" d="M938.7,467.6c-0.7,0.1-1.4,0.2-2.1,0.2c-5.3-0.1-10.5-0.2-15.8-0.2c-0.5,0-1,0.1-1.5,0.2
			c-0.3,0.1-0.6,0.1-0.9,0.2c-0.6-0.1-1.1-0.1-1.7-0.2c-0.2,0-0.3,0-0.5,0c-0.2,0-0.5,0-0.7,0c-0.2,0-0.5,0-0.7,0
			c-1.8,0-3.5,0-5.3,0c-0.2-0.2-0.3-0.3-0.5-0.5c7.6-0.2,15.2-0.3,22.8-0.5c0.3,0,0.6-0.1,0.9-0.2c0.2,0,0.5,0,0.7,0
			c0.6,0.2,1.1,0.4,1.7,0.4c1.2,0.1,2.4,0.2,3.6,0.3C938.7,467.4,938.7,467.5,938.7,467.6z"/>
		<path class="st10" d="M958.6,484.3c0.2,0.1,0.5,0.2,0.7,0.2c0,0.4,0,0.8,0,1.2c-0.4,0.2-1.1,0.3-1.1,0.6c-0.3,1.4-0.7,2.9-0.7,4.3
			c0,1.8,0.4,3.6,0.7,5.4c0.1,0.8,0.3,1.6,0.5,2.4c0.1,0,0.2,0,0.4,0c0.1-0.9,0.1-1.9,0.3-2.8c0.1-0.4,0.4-0.7,0.7-1
			c0,0.9,0,1.8,0,2.6c0,0.8,0,1.6,0,2.4c0,1.8,0,3.7,0,5.5c0.1,3.5,0.1,7,0.2,10.6c-0.3,0-0.6,0-0.9,0c-0.2-0.9-0.5-1.8-0.8-2.9
			c-0.6,1.2-1.1,2.3-1.6,3.4c-0.2,0-0.3,0-0.5,0c0.2-2,0.5-4,0.7-6c0-0.8,0-1.6,0-2.4c0-2.3,0-4.5,0-6.8c0-0.2,0-0.3,0-0.5
			c0-0.5,0-1,0-1.4c-0.1-1.9-0.3-3.9-0.4-5.8c0-1,0.1-2.1,0.2-3.1c0.1-1.7,0.4-3.3,0.5-5C957.4,484.5,957.9,484.3,958.6,484.3z"/>
		<path class="st5" d="M984.9,467.6c0.2,0,0.3,0,0.5,0c-0.1,0.2-0.2,0.3-0.2,0.5c-0.6,0.5-1.3,0.9-1.9,1.4c-2.3,2-4.6,4.1-7,6.1
			c-1.4,1.2-3,2.1-4.4,3.3c-2.2,1.8-4.3,3.7-6.5,5.4c-1.5,1.2-2.5,2.4-1.8,4.4c0,0.4,0,0.8,0,1.2c0,0.3,0,0.6,0,1
			c0.1,0.2,0.2,0.3,0.2,0.5c0,0.2,0,0.5,0,0.7c-0.2,0.3-0.4,0.6-0.5,1c-0.3,2.4-0.7,4.9-0.7,7.3c-0.1,4.1,0.1,8.2,0.1,12.3
			c0,1.3-0.2,2.6-0.3,3.8c-0.2,0-0.3,0-0.5,0c0.1-1.1,0.2-2.2,0.2-3.3c0-2.1-0.2-4.2-0.2-6.3c0-4.9,0.1-9.9,0.2-14.8
			c0-0.3,0-0.6,0-1c0.1-0.3,0.2-0.7,0.2-1c0-2.4,0.2-4.7,2.2-6.4c0.1-0.1,0.1-0.3,0.2-0.4c0.4-0.3,0.8-0.6,1.2-1
			c0.5-0.5,1-1,1.4-1.4c0.3-0.2,0.6-0.5,1-0.7c0.2-0.2,0.3-0.3,0.5-0.5c0.2-0.2,0.3-0.3,0.5-0.5c0.3-0.2,0.6-0.5,1-0.7
			c0.1,0,0.2,0,0.2,0c1.1-0.9,2.2-1.8,3.4-2.6c0,0,0,0,0,0c0.3-0.1,0.6-0.1,0.9-0.3c1.4-1,2.8-2.1,4.2-3.2c0.5-0.4,0.9-1,1.4-1.5
			c0,0,0,0,0,0c1.1-0.9,2.2-1.8,3.4-2.6c0.3-0.1,0.6-0.2,1-0.2C984.8,467.7,984.8,467.6,984.9,467.6z"/>
		<path class="st7" d="M962.2,492c-0.1,4.9-0.2,9.9-0.2,14.8c0,2.1,0.2,4.2,0.2,6.3c0,1.1-0.1,2.2-0.2,3.3c-0.6-0.2-1.1-0.3-1.7-0.5
			c0-0.1,0-0.1,0-0.2c-0.1-3.5-0.1-7-0.2-10.6c0-1.8,0-3.7,0-5.5c0-0.8,0-1.6,0-2.4c0.3,0.1,0.6,0.3,1.1,0.5
			c0.2-1.5,0.3-2.9,0.5-4.3C961.8,493,962,492.5,962.2,492z"/>
		<path class="st3" d="M960,494.6c-0.2,0.3-0.6,0.7-0.7,1c-0.2,0.9-0.2,1.9-0.3,2.8c-0.1,0-0.2,0-0.4,0c-0.2-0.8-0.4-1.6-0.5-2.4
			c-0.3-1.8-0.6-3.6-0.7-5.4c0-1.4,0.4-2.9,0.7-4.3c0.1-0.3,0.7-0.4,1.1-0.6c0.2,0.6,0.6,1.2,0.7,1.8C960,489.9,960,492.3,960,494.6
			z"/>
		<path class="st7" d="M964.8,483.1c-0.1,0.1-0.1,0.4-0.2,0.4c-2,1.7-2.3,4-2.2,6.4c0,0.3-0.1,0.7-0.2,1c0.1-1.7,0.2-3.3,0.2-5
			C962.3,484.3,963.5,483.7,964.8,483.1z"/>
		<path class="st7" d="M980.4,470.7c-0.5,0.5-0.9,1.1-1.4,1.5c-1.4,1.1-2.8,2.1-4.2,3.2c-0.2,0.2-0.6,0.2-0.9,0.3
			C976.1,474,978.2,472.3,980.4,470.7z"/>
		<path class="st7" d="M973.9,475.7c-1.1,0.9-2.2,1.8-3.4,2.6C971.7,477.5,972.8,476.6,973.9,475.7z"/>
		<path class="st7" d="M983.7,468c-1.1,0.9-2.2,1.8-3.4,2.6C981.5,469.8,982.6,468.9,983.7,468z"/>
		<path class="st7" d="M967.4,480.7c-0.5,0.5-1,1-1.4,1.4C966.5,481.7,967,481.2,967.4,480.7z"/>
		<path class="st7" d="M970.3,478.3c-0.3,0.2-0.6,0.5-1,0.7C969.7,478.8,970,478.6,970.3,478.3z"/>
		<path class="st7" d="M968.9,479.5c-0.2,0.2-0.3,0.3-0.5,0.5C968.5,479.9,968.7,479.7,968.9,479.5z"/>
		<path class="st7" d="M984.9,467.6c-0.1,0.1-0.2,0.2-0.2,0.2c0-0.1,0-0.2,0-0.3C984.8,467.5,984.8,467.5,984.9,467.6z"/>
		<path class="st16" d="M899.6,552.9c-0.4,0.3-0.8,0.6-1.2,1c-0.1,0-0.2,0-0.2,0c-0.5,0.2-1,0.3-1.4,0.5c2.3-2,4.6-4,7-6
			c0,0.2,0,0.5,0,0.7c-0.2,0.2-0.3,0.3-0.5,0.5C902,550.6,900.8,551.7,899.6,552.9z"/>
		<path class="st16" d="M893.1,558.4c-1,1-1.9,2.1-2.9,3.1c0.2-0.6,0.5-1.2,0.7-1.8c0.2-0.4,0.5-0.7,0.7-1.1
			c0.7-0.7,1.4-1.4,2.2-2.2c0.2,0,0.3,0,0.5,0C893.9,557.1,893.5,557.7,893.1,558.4z"/>
		<path class="st16" d="M908.7,543.8c-0.8,1.8-2.1,3.1-3.8,4.1c-0.1,0-0.2,0-0.2,0c1-1.3,2.1-2.6,3.1-3.8c0.2-0.2,0.3-0.3,0.5-0.5
			c0.2,0,0.3,0,0.5,0C908.7,543.6,908.7,543.7,908.7,543.8z"/>
		<path class="st22" d="M896.7,554.3c0.5-0.2,1-0.3,1.4-0.5c-0.2,0.3-0.3,0.6-0.5,1c-0.4,0.2-0.8,0.3-1.2,0.5c0-0.2,0-0.5,0-0.7
			C896.6,554.5,896.7,554.4,896.7,554.3z"/>
		<path class="st22" d="M904.6,547.8c0.1,0,0.2,0,0.2,0c0,0.8-0.4,1.2-1.2,1.2c0-0.2,0-0.5,0-0.7c0,0,0,0,0,0
			c0.2-0.2,0.5-0.3,0.7-0.5C904.5,547.8,904.6,547.8,904.6,547.8z"/>
		<path class="st16" d="M895.5,556c-0.1,0.1-0.2,0.2-0.2,0.2c-0.2,0-0.5,0-0.7,0c0-0.1,0-0.2,0-0.2c0.3-0.2,0.6-0.5,1-0.7
			c0.1,0,0.2,0,0.2,0C895.7,555.5,895.6,555.7,895.5,556z"/>
		<path class="st5" d="M895.8,555.3c-0.1,0-0.2,0-0.2,0c0.2-0.2,0.5-0.5,0.7-0.7c-0.1,0.2-0.2,0.5-0.2,0.7c0,0,0,0,0,0
			C895.9,555.3,895.9,555.3,895.8,555.3z"/>
		<path class="st5" d="M904.4,547.8c-0.2,0.2-0.5,0.3-0.7,0.5C903.9,548.1,904.2,548,904.4,547.8z"/>
		<path class="st5" d="M894.6,556c0,0.1,0,0.2,0,0.2c-0.1,0.1-0.2,0.2-0.2,0.2c-0.2,0-0.3,0-0.5,0
			C894.1,556.3,894.3,556.1,894.6,556z"/>
		<path class="st5" d="M908.2,543.5c-0.2,0.2-0.3,0.3-0.5,0.5C907.9,543.8,908.1,543.7,908.2,543.5z"/>
		<path class="st16" d="M896,555.3c0.1-0.2,0.2-0.5,0.2-0.7c0.1,0,0.2,0,0.2,0c0,0.2,0,0.5,0,0.7C896.3,555.3,896.2,555.3,896,555.3
			z"/>
		<path class="st5" d="M908.7,543.8c0-0.1,0-0.2,0-0.3c0-0.1,0-0.2,0-0.2c0.2,0.2,0.3,0.3,0.5,0.5
			C909.1,543.7,908.9,543.8,908.7,543.8z"/>
		<path class="st0" d="M909.4,467.8c1.8,0,3.5,0,5.3,0c-0.2,0.2-0.3,0.6-0.5,0.6c-0.6,0.2-1.3,0.3-2,0.3c-1.7-0.1-3.4,0.2-4.9,1
			c0.6-0.6,1.1-1.3,1.7-1.9C909.1,467.8,909.3,467.8,909.4,467.8z"/>
		<path class="st12" d="M909,467.8c-0.6,0.6-1.1,1.3-1.7,1.9c0,0,0,0,0,0c-0.3,0.2-0.6,0.5-1,0.7c-0.2,0.1-0.5,0.2-0.7,0.2
			c0.2-0.4,0.5-0.8,0.7-1.2c0.2-0.2,0.5-0.3,0.7-0.5c0,0,0,0,0,0c0.4-0.4,0.8-0.8,1.2-1.2C908.5,467.8,908.7,467.8,909,467.8z"/>
		<path class="st12" d="M903,472.8c-0.6,0.6-1.1,1.1-1.7,1.7c0-0.2,0-0.3,0-0.5c0.4-0.4,0.8-0.8,1.2-1.2
			C902.7,472.8,902.8,472.8,903,472.8z"/>
		<path class="st7" d="M901.3,474c0,0.2,0,0.3,0,0.5c-0.2,0.2-0.3,0.3-0.5,0.5c-0.2,0-0.5,0-0.7,0
			C900.5,474.7,900.9,474.3,901.3,474z"/>
		<path class="st12" d="M904.7,471.4c-0.5,0.5-1,1-1.4,1.4c0.2-0.3,0.3-0.6,0.5-1c0.2-0.2,0.3-0.3,0.5-0.5
			C904.3,471.4,904.5,471.4,904.7,471.4z"/>
		<path class="st7" d="M903.7,471.9c-0.2,0.3-0.3,0.6-0.5,1c-0.1,0-0.2,0-0.2,0c-0.2,0-0.3,0-0.5,0
			C902.9,472.5,903.3,472.2,903.7,471.9z"/>
		<path class="st7" d="M904.7,471.4c-0.2,0-0.3,0-0.5,0c0.3-0.2,0.6-0.5,1-0.7C905,470.9,904.8,471.2,904.7,471.4z"/>
		<path class="st7" d="M908.2,467.8c-0.4,0.4-0.8,0.8-1.2,1.2C907.1,468.2,907.5,467.8,908.2,467.8z"/>
		<path class="st7" d="M898.4,476.4c-0.3,0.2-0.6,0.5-1,0.7C897.8,476.9,898.1,476.7,898.4,476.4z"/>
		<path class="st7" d="M896,478.3c-0.3,0.2-0.6,0.5-1,0.7C895.4,478.8,895.7,478.6,896,478.3z"/>
		<path class="st7" d="M897,477.6c-0.2,0.2-0.5,0.3-0.7,0.5C896.5,477.9,896.7,477.8,897,477.6z"/>
		<path class="st7" d="M899.4,475.7c-0.2,0.2-0.5,0.3-0.7,0.5C898.9,476,899.1,475.9,899.4,475.7z"/>
		<path class="st7" d="M907,469c-0.2,0.2-0.5,0.3-0.7,0.5C906.6,469.3,906.8,469.2,907,469z"/>
		<path class="st0" d="M972.5,598.6c-0.7-0.6-1.4-1.1-1.9-1.7c-0.9-0.9-1.7-1.9-2.5-2.9c-0.2-0.3-0.3-1.1,0-1.4
			c1.5-1.4,3-2.8,4.6-4.1c1.4-1.1,3.1-1.4,4.8-1.5c1.8-0.1,3.6-0.1,5.4-0.5c2.2-0.4,4.1-1.5,4.9-3.8c0.6-1.6,1.3-3.2,2-4.7
			c0.9-2,1.8-4,2.7-5.9c0.1-0.2,0.2-0.4,0.3-0.5c3-2.3,5.5-5.2,9.2-6.6c2.1-0.8,4-0.1,6-0.2c3.6-0.2,7.3,0.1,10.5-1.9
			c3-1.8,5.1-6.6,4.1-9.9c-0.3-1.1-1.3-1.9-2.1-2.8c-0.6-0.7-1.4-1.3-2.1-1.9c-0.5-0.5-0.9-1.1-1.4-1.7c1.2,1,2.5,1.9,3.7,2.9
			c2.9,2.3,5.7,4.7,8.6,7c0.5,0.4,1.2,0.4,1.9,0.6c0.1,0.6-1,1.3,0,1.9c0,0.2,0,0.3,0,0.5c0,1.3,0,2.7,0,4c0.3,6,0.7,12,0.9,18.1
			c0.1,2.9-0.2,5.9-0.5,8.8c-0.1,0.9-0.9,1.8-1.4,2.7c-0.4,0.5-0.8,1-1.2,1.4c-1.2,1.1-2.4,2.1-3.6,3.2c-0.6,0.5-1,1.2-1.5,1.8
			c-0.2,0.2-0.5,0.3-0.7,0.5c0.2-0.4,0.2-1,0.5-1.3c1.3-1.5,2.6-2.9,3.9-4.4c1.5-1.8,2.7-3.7,3.1-6.1c0.7-4.6,0.7-9.3,0.2-13.9
			c-0.3-3.2-3.3-6.2-6.2-6.4c-4.5-0.4-6.7,2.4-7.3,5.8c-0.3,1.7-0.2,3.5-0.3,5.2c-0.1,0.9,0.1,1.9-0.2,2.7
			c-1.7,6.5-6,10.7-12.4,12.6c-3.5,1.1-7.2,0.8-10.8,0.4c-3.3-0.4-6.4-1.4-9.3-3.2c-1.9-1.2-4.2-1.9-6.4-2.5c-2.8-0.8-5.7,0.6-7,3.2
			c-1.1,2-0.9,3.5,0.6,5.3C972,597.8,972.2,598.2,972.5,598.6z"/>
		<path class="st18" d="M1031.2,516.4c0.2,0,0.3,0,0.5,0c0.9,0.4,1.5,1.1,1.4,2.2c-1.2,2.2-2.9,4-4.8,5.7c-2.2,2-4.1,4.3-6.3,6.4
			c-1.8,1.8-3.8,3.5-5.8,5.1c-1,0.9-2.2,1.6-3.3,2.4c-0.6,0.1-1.3,0.2-1.9,0.2c-0.9-1-2.2-1.2-3.3-1.2c-2.6,0-5.2,0.4-7.8,0.4
			c-3.6,0.1-7.1,0-10.7,0c-2,0-4,0.1-5.9,0.2c-0.2-0.5-0.7-1-0.6-1.5c0.1-0.4,0.7-0.9,1.2-0.9c1.3-0.1,2.6,0,3.9,0
			c3.2-0.1,6.5-0.4,9.7-0.5c2.9-0.1,5.7,0,8.6,0c0.5,0,0.9-0.1,1.4-0.2c1-0.1,1.9-0.2,2.9-0.2c1-0.6,1.9-1.3,2.9-1.8
			c4.9-2.4,8.3-6.5,12.1-10.1c1.7-1.6,3.2-3.4,4.8-5.2C1030.5,517.2,1030.8,516.8,1031.2,516.4
			C1031.2,516.4,1031.2,516.4,1031.2,516.4z"/>
		<path class="st12" d="M1030.9,556.4c-0.9-0.6-1.7-1-2.4-1.6c-3.7-3.1-7.4-6.2-11.2-9.3c-1-0.9-2.1-1.6-3.3-2.4
			c-0.7-0.5-0.7-0.9,0.1-1.3c1.7-0.7,2.2-1.2,4,0.4c2.7,2.4,5.8,4.5,8.7,6.8c1.8,1.5,3.5,3.1,5.2,4.7c0.3,0.3,0.5,1.1,0.3,1.5
			C1032.1,555.7,1031.5,556,1030.9,556.4z"/>
		<path class="st12" d="M982.5,543.3c-0.2,0-0.5,0-0.7,0c-0.7-0.4-1.1-0.1-1.5,0.6c-0.4,0.6-1.1,1.1-1.6,1.6
			c0.1-0.1,0.1-0.4,0.2-0.4c1.4-1,0.8-2.5,0.9-3.8c0-0.2-0.6-0.6-1-0.6c-0.3,0-0.7,0.3-1,0.5c-1.6,1.3-3.1,2.6-4.7,4
			c-0.8,0.7-1.4,1.4-2.1,2.2c-0.5,0.5-1,1-1.6,1.6c0-0.1,0-0.2,0-0.2c0.6-0.8,1-1.8,1.7-2.5c1.6-1.6,3.4-3,5-4.6
			c0.9-0.9,1.7-1.6,3.1-1.5c0.9,0,1.6-0.3,2-1.2c0.6-0.1,1.3-0.1,1.9-0.2c0,0.1,0,0.1,0,0.2c-1.7,0.8-2.5,1.7-2.1,2.8
			c0.2,0.4,0.8,1,1.1,1c0.6-0.1,1.1-0.6,1.7-1c0.1-0.1,0.2-0.1,0.2-0.2c0.7,0,1.5,0,2.2,0.1c0.2,0.1,0.4,0.1,0.7,0.2
			c0.6,0,1.1,0,1.7,0c-0.3,0.2-0.6,0.6-0.9,0.7C985.9,542.7,984.2,543,982.5,543.3z"/>
		<path class="st20" d="M988.5,541.6c-0.6,0-1.1,0-1.7,0c0-0.1,0-0.1,0-0.2c1.2-0.1,2.4-0.2,3.6-0.3c3.9-0.3,7.8-0.6,11.8-0.9
			c2.3-0.2,4.7-0.3,7-0.5c0.3,0,0.6-0.2,0.9-0.3c0-0.1,0-0.3-0.1-0.4c-0.5,0-1,0.1-1.5,0c-0.6-0.1-1.1-0.3-1.6-0.4
			c1.4,0.1,2.7,0.1,4.1,0.2c0,0.5,0,0.9,0,1.4c-0.8,1-1.9,1.2-3,1.2c-3.4-0.1-6.9-0.2-10.3-0.2c-0.3,0-0.7,0.3-1,0.4
			c-1-0.1-2.1-0.1-3.1-0.2c-0.4,0.1-0.8,0.1-1.2,0.2C991.1,541.6,989.8,541.6,988.5,541.6z"/>
		<path class="st9" d="M1011,538.8c-1.4-0.1-2.7-0.1-4.1-0.2c-0.6,0-1.1,0-1.7,0c-1,0-1.9,0.1-2.9,0.1c-0.7,0-1.4,0-2.2,0
			c-0.2-0.1-0.4-0.2-0.6-0.2c-4-0.1-8.1-0.2-12.1-0.2c-0.3,0-0.5,0.1-0.8,0.2c-0.9,0-1.9,0-2.8,0c-0.3,0-0.5,0-0.8,0
			c0-0.2,0-0.3,0-0.5c2-0.1,4-0.2,5.9-0.2c3.6,0,7.1,0,10.7,0c2.6-0.1,5.2-0.4,7.8-0.4c1.2,0,2.5,0.1,3.3,1.2
			C1011,538.6,1011,538.7,1011,538.8z"/>
		<path class="st7" d="M996.7,541.6c0.3-0.2,0.7-0.4,1-0.4c3.4,0,6.9,0.1,10.3,0.2c1.2,0,2.2-0.2,3-1.2c0.2,1.8-1.1,2.1-2.6,2.1
			C1004.5,542.1,1000.6,541.8,996.7,541.6z"/>
		<path class="st0" d="M1015.8,545.9c-1.3-0.8-2.6-1.6-3.8-2.4c0.2-0.1,0.6-0.4,0.7-0.4C1013.8,544,1014.8,545,1015.8,545.9z"/>
		<path class="st7" d="M992.4,541.6c0.4-0.1,0.8-0.2,1.2-0.2C993.2,541.5,992.8,541.5,992.4,541.6z"/>
		<path class="st0" d="M1016.8,546.6c-0.2-0.2-0.5-0.5-0.7-0.7C1016.3,546.2,1016.6,546.4,1016.8,546.6z"/>
		<path class="st0" d="M1009.8,543.5c-0.2-0.1-0.3-0.2-0.5-0.2C1009.5,543.4,1009.7,543.4,1009.8,543.5z"/>
		<path class="st25" d="M972.5,598.6c-0.3-0.4-0.5-0.8-0.8-1.2c-1.5-1.7-1.7-3.2-0.6-5.3c1.3-2.6,4.2-4,7-3.2
			c2.2,0.6,4.5,1.4,6.4,2.5c2.9,1.8,6,2.8,9.3,3.2c3.6,0.4,7.3,0.7,10.8-0.4c6.4-2,10.6-6.1,12.4-12.6c0.2-0.9,0.1-1.8,0.2-2.7
			c0.1-1.7,0-3.5,0.3-5.2c0.6-3.4,2.8-6.1,7.3-5.8c2.9,0.2,5.9,3.2,6.2,6.4c0.5,4.7,0.4,9.3-0.2,13.9c-0.3,2.4-1.6,4.3-3.1,6.1
			c-1.2,1.5-2.6,2.9-3.9,4.4c-0.3,0.3-0.3,0.9-0.5,1.3c0,0.1,0,0.2,0,0.2c-0.5,0.4-1,0.8-1.4,1.2c-0.4,0.2-0.8,0.5-1.2,0.7
			c-0.5,0.3-1,0.6-1.5,0.9c-1.8,1.4-3.5,3-5.4,4.1c-4,2.2-8.5,2.7-13,2.7c-3.8,0-7.6-0.2-11.3-0.5c-3.1-0.3-6.2-0.8-8.6-3.1
			c-1.3-1.2-2.5-2.3-3.8-3.5c-0.4-0.3-0.9-0.5-1.4-0.8C974.5,600.9,973.5,599.7,972.5,598.6z"/>
		<path class="st13" d="M1021.8,602c-0.5,0.7-1,1.6-1.7,2.2c-1.1,1.1-2.4,2-3.6,3.1c0,0,0,0,0,0c0.7-0.9,1.4-1.8,2.2-2.6
			C1019.7,603.7,1020.8,602.9,1021.8,602L1021.8,602z"/>
		<path class="st13" d="M1024,599.6c0.5-0.6,0.9-1.3,1.5-1.8c1.2-1.1,2.4-2.2,3.6-3.2c-0.5,0.6-0.9,1.3-1.5,1.8
			C1026.4,597.5,1025.2,598.5,1024,599.6z"/>
		<path class="st13" d="M1013.4,610.4c-0.1,0-0.2,0-0.2,0c-0.1-0.1-0.2-0.2-0.2-0.2c0.6-0.6,1.1-1.3,1.7-1.8
			c0.5-0.4,1.2-0.7,1.9-1.1c0,0,0,0,0,0C1015.5,608.3,1014.5,609.3,1013.4,610.4z"/>
		<path class="st13" d="M1021.8,601.5c0.5-0.4,1-0.8,1.4-1.2c-0.5,0.6-1,1.1-1.4,1.7c0,0,0,0,0,0
			C1021.8,601.8,1021.8,601.7,1021.8,601.5z"/>
		<path class="st7" d="M1012.2,467.1c0.5-0.1,1-0.1,1.5-0.2c-0.5,0.4-1,0.8-1.4,1.2c0,0,0,0,0,0c-0.2-0.1-0.5-0.2-0.7-0.2
			c-3.7,0-7.3,0-11,0c-0.5,0-1,0-1.4,0c-2.8,0-5.6,0-8.4,0c-0.6-0.1-1.3-0.2-1.9-0.3c1.1-0.1,2.2-0.2,3.3-0.2
			c0.2-0.1,0.5-0.3,0.7-0.4c5.9,0.1,11.8,0.3,17.6,0.4C1011,467.3,1011.6,467.1,1012.2,467.1z"/>
		<path class="st0" d="M1029.7,483.6c0.2,0.5,0.6,0.9,0.7,1.4c0.2,0.6,0.4,1.3,0.4,1.9c-0.1,1.5-0.3,2.9-0.4,4.4
			c-0.9-0.8-1.9-1.4-3.2-1.3c-0.2,0-0.5-0.2-0.8-0.3c-0.6-0.1-1.3-0.2-1.8,0c-3.6,1.9-5.9,4.8-6.5,8.8c-1.2,7.9-5.5,13.5-12.4,17.2
			c-3.6,1.9-7.6,2.4-11.6,2.5c-2.9,0.1-5.8-0.1-8.7-0.2c-1.5,0-2.8,0.4-4.1,1.3c-1.9,1.3-3.7,2.5-4.9,4.5c-0.6,1-0.9,1.9-0.5,3.1
			c-1.2-0.9-1.8-2.2-1.1-3c0.7-1,1.5-1.9,2.3-2.9c2.7-3.1,5.2-6.3,6.5-10.3c0.1-0.3,0.3-0.6,0.4-0.9c2.1-4.1,5.2-7.4,8.8-10.3
			c1.1-0.8,2.1-1.5,3.7-1.1c1.4,0.4,3.4-1.1,3.9-2.5c0.2-0.5,0.7-1.2,1.2-1.3c1.6-0.4,3.2-0.9,4.8-0.9c2.7-0.1,5.5,0.2,8.2,0.2
			c0.6,0,1.5-0.3,1.9-0.7c2.2-2.1,4.9-3.6,6.5-6.3c0.5-0.9,1-1.7,1.1-2.8c0.1-1.7-0.1-3.3-1.3-4.6c-0.2-0.3-0.3-0.7-0.4-1.1
			c0.2,0.2,0.5,0.4,0.7,0.6C1025.3,480.8,1027,482.9,1029.7,483.6z"/>
		<path class="st22" d="M976.1,527c-0.4-1.1-0.1-2.1,0.5-3.1c1.2-2,3-3.2,4.9-4.5c1.3-0.9,2.6-1.3,4.1-1.3c2.9,0.1,5.8,0.3,8.7,0.2
			c4-0.1,8-0.6,11.6-2.5c6.9-3.7,11.2-9.4,12.4-17.2c0.6-4,2.9-6.9,6.5-8.8c0.5-0.2,1.2,0,1.8,0c0.3,0,0.5,0.3,0.8,0.3
			c1.3-0.1,2.3,0.4,3.2,1.3c0.3,1.8,0.8,3.7,1,5.5c0.5,4.9,0.5,9.8-0.6,14.7c-0.4,1.5-0.7,3.1-1.2,4.6c-0.2,0.7-1,1.1-1.6,1.7
			c-1.5,1.5-3,3.1-4.6,4.6c0,0,0,0,0,0c-0.5,0.4-1,0.8-1.4,1.2c-0.1,0.1-0.2,0.2-0.2,0.2c-1.7,0.7-2.9,1.8-3.8,3.4l0,0
			c-0.6,0.5-1.3,1-1.9,1.4c-0.2,0.2-0.3,0.3-0.5,0.5c-0.2,0.2-0.3,0.3-0.5,0.5l0,0c-0.2,0.1-0.5,0-0.7,0.2c-1.2,1.1-2.4,2.2-3.6,3.3
			c-0.2,0.2-0.2,0.6-0.3,0.9c-0.1,0.1-0.2,0.2-0.2,0.2c-1,0.2-1.9,0.3-2.9,0.5c-2.7-0.1-5.3-0.2-8-0.2c-2.5,0-4.9,0.1-7.4,0.2
			c-0.9,0-1.9,0-2.8,0c-0.5-0.7-1-0.7-1.4,0c-1,0-1.9,0-2.9,0c-0.2,0.1-0.3,0.2-0.5,0.2c-0.2,0-0.5,0-0.7,0
			c-0.1-0.2-0.2-0.4-0.4-0.5C980.2,532.5,977.8,530,976.1,527z M991.5,533.5c3.7-0.3,7.2-0.5,10.7-1c5-0.7,9.7-2.3,13.8-5.4
			c2.7-2.1,5.2-4.3,7.7-6.6c2-1.8,3.8-3.9,4.6-6.6c0.3-1.1,0.6-2.3,1-3.3c1.9-4.4,1.1-8.9,1.1-13.4c0-1.9-1-2.8-2.4-3.1
			c-1.8-0.4-3.1,0.1-4,1.8c-0.6,1-0.9,2.2-1.2,3.4c-0.7,3.6-1.5,7.2-3.6,10.2c-1.5,2.3-3.4,4.3-5.3,6.3c-2.4,2.5-5.3,4.4-8.7,5.3
			c-3,0.9-6.2,1.4-9.4,1.7c-3.1,0.3-6.3,0.2-9.4,0.2c-1.2,0-2.4-0.1-3.5,0.1c-1.8,0.3-3.1,1.4-3.5,3.2c-0.4,1.6,0,3.1,1.3,4.1
			c1.2,0.9,2.5,1.9,3.9,2.3C986.8,533.1,989.3,533.2,991.5,533.5z"/>
		<path class="st4" d="M1010.3,534.2c0.1-0.1,0.2-0.2,0.2-0.2c1.5-1.4,3-2.9,4.6-4.3c0,0,0,0,0,0c0.2-0.2,0.3-0.3,0.5-0.5
			c0.2-0.2,0.3-0.3,0.5-0.5c0.6-0.5,1.3-1,1.9-1.4c0,0,0,0,0,0c1.3-1.1,2.6-2.2,3.8-3.4c0.1-0.1,0.2-0.2,0.2-0.2
			c0.5-0.4,1-0.8,1.4-1.2c0,0,0,0,0,0c0.6-0.4,1.3-0.8,1.8-1.3c1.6-1.4,3.1-2.8,4.7-4.2c0.3-0.3,0.8-0.4,1.1-0.6
			c-0.3,0.4-0.7,0.8-1,1.1c-1.6,1.7-3,3.6-4.8,5.2c-3.9,3.6-7.3,7.7-12.1,10.1c-1,0.5-1.9,1.2-2.9,1.8
			C1010.3,534.5,1010.3,534.3,1010.3,534.2z"/>
		<path class="st23" d="M1029.7,483.6c-2.7-0.7-4.4-2.8-6.5-4.4c-0.2-0.2-0.5-0.4-0.7-0.6c-1.2-1.1-2.3-2.3-3.5-3.4
			c-1.6-1.5-3.2-2.9-4.7-4.4c-1-0.9-1.8-2-2.8-3c0.2,0.1,0.5,0.2,0.7,0.2c1.4,1.3,2.8,2.5,4.2,3.8c1.6,1.5,3.2,3.1,4.8,4.6
			c2.1,1.9,4.2,3.9,6.5,5.6c1,0.7,2.4,0.7,3.7,1.1C1030.8,483.3,1030.3,483.4,1029.7,483.6z"/>
		<path class="st4" d="M1033.1,518.6c0.1-1.1-0.5-1.7-1.4-2.2c0.8-0.6,1.3,0.1,1.6,0.6C1033.7,517.6,1033.8,518.2,1033.1,518.6z"/>
		<path class="st8" d="M890,565.8c0,0.2,0,0.3,0,0.5c-0.2,0.5-0.5,1-0.7,1.4c0.1-1.5,0.1-3.1,0.2-4.6c0-0.2,0.3-0.3,0.5-0.4
			c0,0.4,0,0.8,0,1.2C890,564.5,890,565.2,890,565.8z"/>
		<path class="st8" d="M889.3,569.6c0,1.3,0,2.6,0,3.9c0,0.2-0.2,0.5-0.2,0.7C888.8,572.7,888.4,571.1,889.3,569.6z"/>
		<path class="st8" d="M889.3,568.2c0,0.3,0,0.6,0,1C888.7,568.8,888.7,568.5,889.3,568.2z"/>
		<path class="st3" d="M937,611.1c-1.6,0.2-3.2,0.3-4.9,0.5c-0.5,0.1-1.1,0.2-1.6,0.2c-0.9,0.1-1.8,0.2-2.6,0.2c-0.5,0-1,0-1.4,0
			c-0.3,0-0.6,0-1,0c-4.4,0-8.8,0.2-13.2-0.7c-0.2,0-0.3,0-0.5,0c-0.2-0.1-0.5-0.2-0.7-0.2c0-0.1,0-0.2,0-0.2c0.8,0,1.7,0,2.5,0
			c0.5,0,1,0,1.5,0c4.8,0,9.6,0,14.4,0c2,0,4,0,6.1,0C936.1,610.9,936.5,611,937,611.1z"/>
		<path class="st9" d="M912.3,611.3c4.4,0.9,8.8,0.7,13.2,0.7c-0.3,0.2-0.5,0.4-0.8,0.5c-3.8,0.4-7.6,0.4-11.4-0.5
			C913,611.9,912.7,611.6,912.3,611.3z"/>
		<path class="st9" d="M926.5,612.1c0.5,0,1,0,1.4,0C927.4,612,926.9,612.1,926.5,612.1z"/>
		<path class="st9" d="M911.1,611.1c0.2,0.1,0.5,0.2,0.7,0.2C911.6,611.3,911.4,611.2,911.1,611.1z"/>
		<path class="st22" d="M988.7,467.5c0.6,0.1,1.3,0.2,1.9,0.3c-0.5,0.9-2.4,1-3.4,0.2c0.1-0.2,0.2-0.3,0.2-0.5
			C988,467.5,988.4,467.5,988.7,467.5z"/>
		<path class="st7" d="M987.6,467.6c-0.1,0.2-0.2,0.3-0.2,0.5c-0.2,0-0.3,0-0.5,0c-0.6,0-1.1,0-1.7,0c0.1-0.2,0.2-0.3,0.2-0.5
			C986.1,467.6,986.8,467.6,987.6,467.6z"/>
		<path class="st6" d="M992.8,466.9c-0.2,0.1-0.5,0.3-0.7,0.4C992.3,467.1,992.6,467,992.8,466.9z"/>
		<path class="st16" d="M959.3,561c0,0.2,0,0.3,0,0.5c-0.5-0.1-1-0.2-1.4-0.2c-0.8-0.6-1.6-1-2.3-1.7c-3-3-6-6-8.9-9.1
			c-1.4-1.5-3-2.7-5-3.4c-1.2-0.5-2.2-1.4-3.3-2c-0.8-0.4-1.6-0.9-2.5-1c-3.4-0.3-6.8-0.6-10.2-0.7c-2.3-0.1-4.6,0.2-6.9,0.3
			c-1.9,0.1-3.8,0.1-5.7,0.1c2.4-0.3,4.9-0.6,7.3-1c0.5-0.1,0.9-0.3,1.3-0.5c1.4,0,2.7,0,4.1,0c0.6,0.1,1.3,0.4,1.9,0.4
			c1.5-0.1,2.9-0.3,4.4-0.4c0.4,0,1,0.1,1.3,0.4c0.8,0.8,1.7,0.8,2.7,0.8c1.4,0,2-0.5,2-1.9c0-0.5-0.4-1-0.6-1.5
			c0.7,0.1,1.4,0.2,2.2,0.2c1.6,1.1,3.4,1.9,4.8,3.3c4.5,4.7,10.1,7.9,15.1,12c0.8,0.7,1.6,0.5,2.4-0.1c0.5-0.3,1-0.6,1.5-0.9
			c-0.6,0.6-1.3,1.3-1.9,1.9c-0.6,0.1-1.1,0.2-1.7,0.2c-0.4-0.2-0.9-0.2-1.3-0.5c-1.5-1.1-2.9-2.3-4.4-3.4c-0.9-0.6-1.9-1.1-2.9-1.6
			c-0.1,0.1-0.3,0.3-0.4,0.4c0.8,1.3,1.6,2.6,2.5,3.9c0.5,0.7,1.1,1.4,1.7,2c1.1,0.9,2.2,1.7,3.4,2.6l0.1,0l0.1,0
			C958.8,560.5,959,560.8,959.3,561z"/>
		<path class="st5" d="M937.5,540.2c0.2,0.5,0.6,1,0.6,1.5c0,1.4-0.6,1.8-2,1.9c-1,0-2,0-2.7-0.8c-0.3-0.3-0.9-0.4-1.3-0.4
			c-1.5,0.1-2.9,0.3-4.4,0.4c-0.6,0-1.3-0.3-1.9-0.4c2.1-0.1,4.1-0.3,6.2-0.4c0.5,0,0.9,0.2,1.4,0.2c0.9,0,1.8,0.1,2.5-0.2
			c0.8-0.2,1.2-0.9,0.7-1.8c0-0.1,0-0.1,0-0.2c0-0.1,0-0.2,0-0.3c0.2,0,0.3,0,0.5,0c0,0,0,0,0,0C937.2,539.9,937.3,540,937.5,540.2z
			"/>
		<path class="st5" d="M921.7,542.3c-0.4,0.2-0.9,0.4-1.3,0.5c-2.4,0.3-4.9,0.7-7.3,1c-1,0-1.9,0-2.9,0c0.3-0.3,0.6-0.9,1-0.9
			c1.1-0.2,2.3-0.3,3.4-0.3C916.9,542.4,919.3,542.4,921.7,542.3z"/>
		<path class="st3" d="M1013,610.1c0.1,0.1,0.2,0.2,0.2,0.2c-0.2,0.1-0.5,0.2-0.7,0.2c-0.2-0.1-0.5-0.2-0.7-0.2
			C1012.2,610.3,1012.6,610.2,1013,610.1z"/>
		<path class="st25" d="M929.6,610.8c-4.8,0-9.6,0-14.4,0c-0.3-0.2-0.6-0.4-1-0.5c-0.6-0.1-1.3-0.2-1.9-0.3c-1.1-0.2-1.6-0.9-1.7-2
			c-0.1-3,1-5.4,3.7-6.5c2.7-1.1,5.6-2,8.5-2.7c5.5-1.4,10.1-4.3,14.3-8.1c3.4-3.2,5.5-6.9,6.8-11.3c0.7-2.3,2.3-3.9,4.7-4.5
			c3.4-1,7.2,1.2,7.6,4.8c0.4,3.1,0.3,6.3,0.1,9.4c-0.2,2.4-1.4,4.5-3.2,6.2c-4.2,3.9-8.5,7.9-12.7,11.8c-2.7,2.4-5.9,3.4-9.5,3.3
			C930.5,610.4,930,610.7,929.6,610.8z"/>
		<path class="st10" d="M957.8,561.2c0.5,0.1,1,0.2,1.4,0.2c0.1,0.1,0.2,0.2,0.2,0.2c0,0.3,0,0.6,0,1c-0.6-0.6-1.1-0.7-1.2,0.4
			c-0.1,1.6-0.4,3.2-0.4,4.7c-0.1,2-0.1,4,0,5.9c0.1,2.8,0.3,5.6,0.4,8.4c0.2,3.5,0.3,7-0.6,10.4c-0.2,0.1-0.3,0.2-0.5,0.2
			c0.4-4.6,0.6-9.2,0-13.8c-0.2-1.4-0.2-2.8-0.3-4.2c-0.1-1.7-0.4-3.4-0.4-5.1c0-1.8,0.1-3.6,0.3-5.3
			C956.8,563.3,956.9,562.1,957.8,561.2z"/>
		<path class="st4" d="M954.5,595.8c-1,1-2,2.1-3,3.1c-1.9,1.8-3.9,3.6-5.9,5.4c-1,0.9-2.1,1.7-3.1,2.5c1.1-1.2,2-2.4,3.2-3.5
			c2.6-2.4,5.2-4.6,7.8-6.9C953.8,596.1,954.2,596,954.5,595.8z"/>
		<path class="st4" d="M955.9,594.6c-0.4,0.3-0.8,0.6-1.2,1C955.1,595.2,955.5,594.9,955.9,594.6z"/>
		<path class="st22" d="M894.3,556.5c0.1-0.1,0.2-0.2,0.2-0.2c0.2,0,0.5,0,0.7,0c-0.7,0.7-1.4,1.4-2.2,2.2
			C893.5,557.7,893.9,557.1,894.3,556.5z"/>
		<path class="st22" d="M895.8,555.3c0.1,0,0.2,0,0.2,0c-0.2,0.2-0.3,0.5-0.5,0.7C895.6,555.7,895.7,555.5,895.8,555.3z"/>
		<path class="st14" d="M964.7,571.1c0-4.3,1.7-8,3.8-11.6c2.9-5,7.4-8,12.1-10.9c5.2-3.2,10.7-4.5,16.7-4.7c3.6-0.1,7,0,10.3,1.4
			c3.1,1.3,6.3,2.4,8.6,5c1.4,1.5,2.3,3.3,1.9,5.5c-0.4,2.3-3.2,4.5-5.2,4.7c-1.5,0.1-3.1,0.3-4.5-0.1c-3.1-0.7-6-0.2-9,0.4
			c-3.2,0.7-6,2.3-8.5,4.2c-2.3,1.7-4.2,4-5.9,6.4c-1.1,1.5-1.6,3.4-2.2,5.1c-0.6,1.5-0.9,3-1.4,4.5c-0.1,0.4-0.5,0.9-0.9,1.1
			c-1.8,0.8-3.6,1.4-5.6,1.4c-1.6-0.1-3.3,0.4-4.7-0.8c-0.1-0.1-0.4-0.1-0.6-0.1c-1.7,0.3-2.2,0.1-2.7-1.5c-0.7-1.9-1.2-3.9-1.7-5.9
			C964.9,573.9,964.9,572.5,964.7,571.1z"/>
		<path class="st0" d="M1013,610.1c-0.4,0.1-0.8,0.2-1.2,0.2c-3.3,0.2-6.5,0.3-9.8,0.5c-0.1-0.1-0.1-0.2-0.2-0.3
			c-0.1,0.1-0.2,0.2-0.3,0.3c-0.2,0-0.5,0-0.7,0c-0.2,0-0.3,0-0.5,0c-2.6,0-5.1,0-7.7,0c-0.5,0-1,0-1.5,0c-1.4,0-2.9,0-4.3,0
			c-0.6-0.2-1.3-0.3-1.9-0.5c-0.5-0.1-1.2-0.2-1.5-0.5c-2.2-2.1-4.4-4.4-6.6-6.6c-0.4-0.4-0.8-0.9-1.2-1.3c0.5,0.3,1,0.5,1.4,0.8
			c1.3,1.1,2.6,2.3,3.8,3.5c2.4,2.3,5.5,2.8,8.6,3.1c3.8,0.3,7.6,0.5,11.3,0.5c4.5,0,9-0.5,13-2.7c2-1.1,3.6-2.7,5.4-4.1
			c0.5-0.3,1-0.6,1.5-0.9c-0.6,0.8-1.3,1.6-1.9,2.4c-0.7,0.9-1.4,1.8-2.2,2.6c-0.6,0.4-1.3,0.6-1.9,1.1
			C1014,608.8,1013.5,609.5,1013,610.1z"/>
		<path class="st8" d="M978.7,545.4c0.6-0.5,1.3-1,1.6-1.6c0.4-0.7,0.8-1,1.5-0.6c-1.7,1.7-3.5,3.5-5.2,5.2c0,0-0.1,0-0.1,0.1
			c-3,3-6.1,6.1-9.1,9.1c-0.4,0.4-0.8,0.8-1.2,1.2c0.4-0.8,0.8-1.6,1.2-2.4c0.1-0.2,0.2-0.3,0.2-0.5c0.6-0.6,1.1-1.1,1.7-1.7
			c0.2-0.2,0.3-0.5,0.5-0.7c2.2-2,4.3-4,6.5-6c0,0,0,0,0,0c0.3-0.3,0.6-0.6,1-1l0,0c0.3-0.2,0.6-0.5,1-0.7
			C978.4,545.7,978.5,545.6,978.7,545.4z"/>
		<path class="st12" d="M967.4,556.5c-0.4,0.8-0.8,1.6-1.2,2.4c-0.2,0.2-0.3,0.3-0.5,0.5c-0.6,0.5-1.3,1-1.9,1.4
			c0.7-1,1.3-2,2.1-2.9C966.4,557.3,966.9,556.9,967.4,556.5z"/>
		<path class="st8" d="M963.8,560.8c0.6-0.5,1.3-1,1.9-1.4c-0.7,0.8-1.4,1.6-2.1,2.4c0,0,0,0,0,0
			C963.7,561.4,963.8,561.1,963.8,560.8z"/>
		<path class="st8" d="M963.6,565.6c0-0.2,0-0.5,0-0.7C963.6,565.1,963.6,565.3,963.6,565.6z"/>
		<path class="st3" d="M957.6,592.6c0.9-3.4,0.8-6.9,0.6-10.4c-0.1-2.8-0.3-5.6-0.4-8.4c-0.1-2-0.1-4,0-5.9c0.1-1.6,0.3-3.2,0.4-4.7
			c0.1-1.1,0.6-1,1.2-0.4c0,0.2,0,0.3,0,0.5c0.1,0.4,0.2,0.8,0.2,1.2c0,0.4,0,0.8,0,1.2c0.1,0.2,0.2,0.5,0.2,0.7
			c0.1,1,0.2,1.9,0.2,2.9c0,0.5,0,1,0,1.4c0,1.7,0,3.4,0,5c0.1,0.2,0.2,0.3,0.2,0.5c0,3.7,0,7.3,0,11c0,0.2,0,0.5,0,0.7
			c0.1,0.4,0.2,0.8,0.2,1.2c0.1,1.2,0.2,2.4,0.2,3.6C959.8,592,958.7,592,957.6,592.6z"/>
		<path class="st7" d="M963.8,560.8c-0.1,0.3-0.2,0.6-0.2,1c-0.2,0.4-0.4,0.8-0.6,1.2c-0.2,0.4-0.3,0.8-0.5,1.6
			c-0.9-1.6-0.8-3.8-3.2-3.5c-0.2-0.2-0.5-0.5-0.7-0.7c0.2-0.8,0.5-1.6,0.7-2.4c0.2-0.3,0.3-0.6,0.5-1c0.6-0.1,1.1-0.2,1.7-0.2
			c0.2,0,0.6,0.2,0.6,0.1c0.9-1,1.7-2,2.5-3c0.2-0.2,0.3-0.5,0.5-0.7c0.2-0.2,0.5-0.3,0.7-0.5c0.2-0.2,0.5-0.5,0.7-0.7
			c0.4-0.6,0.8-1.3,1.2-1.9c0.3-0.2,0.6-0.5,0.9-0.7c0.2-0.2,0.3-0.3,0.5-0.5c0.1,0,0.2,0,0.2,0c0.5-0.5,1.1-1,1.6-1.6
			c0.7-0.7,1.4-1.5,2.1-2.2c1.5-1.4,3.1-2.7,4.7-4c0.3-0.2,0.7-0.6,1-0.5c0.4,0,1,0.4,1,0.6c-0.1,1.3,0.6,2.8-0.9,3.8
			c-0.1,0.1-0.1,0.3-0.2,0.4c-0.2,0.2-0.3,0.3-0.5,0.5c-0.3,0.2-0.6,0.5-1,0.7c0,0,0,0,0,0c-0.3,0.3-0.6,0.6-1,1c0,0,0,0,0,0
			c-0.6,0.3-1.3,0.5-1.7,0.9c-1.3,1.2-2.6,2.5-3.9,3.8c-0.3,0.4-0.6,0.8-0.9,1.2c-0.2,0.2-0.3,0.5-0.5,0.7c-0.6,0.6-1.1,1.1-1.7,1.7
			c-0.1,0.2-0.2,0.3-0.2,0.5c-0.5,0.5-1.1,0.9-1.5,1.4C965.2,558.8,964.5,559.8,963.8,560.8z"/>
		<path class="st3" d="M991.1,610.9c0.5,0,1,0,1.5,0C992.1,611.5,991.6,611.5,991.1,610.9z"/>
		<path class="st10" d="M1001.5,610.8c0.1-0.1,0.2-0.2,0.3-0.3c0.1,0.1,0.1,0.2,0.2,0.3C1001.8,610.8,1001.6,610.8,1001.5,610.8z"/>
		<path class="st3" d="M1000.3,610.9c0.2,0,0.3,0,0.5,0C1000.6,610.9,1000.4,610.9,1000.3,610.9z"/>
		<path class="st10" d="M960.2,570.6c0-0.5,0-1,0-1.4C960.2,569.6,960.2,570.1,960.2,570.6z"/>
		<path class="st10" d="M959.8,564.4c-0.1-0.4-0.2-0.8-0.2-1.2C959.6,563.6,959.7,564,959.8,564.4z"/>
		<path class="st10" d="M960.5,587.8c0-0.2,0-0.5,0-0.7C960.5,587.4,960.5,587.6,960.5,587.8z"/>
		<path class="st10" d="M960,566.3c-0.1-0.2-0.2-0.5-0.2-0.7C959.8,565.8,959.9,566,960,566.3z"/>
		<path class="st10" d="M960.5,576.1c-0.1-0.2-0.2-0.3-0.2-0.5C960.3,575.8,960.4,575.9,960.5,576.1z"/>
		<path class="st26" d="M944.7,484.8c0,2.1-1.6,4.2-3.4,4.6c-1.8,0.4-3.6,0.4-5.4,0c-2.7-0.7-5.4-1.4-8.2-1.7c-2-0.2-4,0.2-6,0.8
			c-3.7,1.1-6.9,3.2-9.6,5.8c-1.1,1.1-1.6,2.7-2.4,4.1c-1.7,2.9-2.2,6.2-2.6,9.5c-0.2,1.3-0.2,2.6-0.5,3.9c-0.6,2-1.3,4.1-2.2,6
			c-0.6,1.4-2.5,1.7-4.1,1c-2.9-1.2-4.6-3.7-6.2-6.3c-1.3-2.3-1.9-4.7-1.8-7.2c0.1-3.4,0.6-6.7,2-9.9c1.5-3.2,2.6-6.5,4.4-9.6
			c2.1-3.7,5.1-6.7,8.8-9c4.6-2.9,9.6-4.5,14.9-5.2c3.7-0.5,7.4-0.4,10.9,1.1c2.4,1,5.3,1.1,7.1,3.2c1.4,1.6,2.6,3.5,3.6,5.4
			C944.5,482.6,944.5,483.9,944.7,484.8z"/>
		<path class="st12" d="M916.6,467.8c0.6,0.1,1.1,0.1,1.7,0.2C917.8,467.9,917.2,467.9,916.6,467.8z"/>
		<path class="st0" d="M906.3,470.4c0.3-0.2,0.6-0.5,1-0.7C907,469.9,906.6,470.2,906.3,470.4z"/>
		<path class="st0" d="M927.2,468c0.2,0.1,0.5,0.2,0.7,0.2C927.7,468.2,927.4,468.1,927.2,468z"/>
		<path class="st12" d="M915.4,467.8c0.2,0,0.5,0,0.7,0C915.9,467.8,915.7,467.8,915.4,467.8z"/>
		<path class="st16" d="M955.7,504.4c0.3,3.3-1.1,6.1-2.9,8.8c-2.6,3.6-5.1,7.3-8.2,10.5c-3,3-6.4,5.5-10.4,6.9
			c-4,1.5-8.2,2.8-12.3,3.8c-3.5,0.8-7.1,1-10.7,0.2c-1.4-0.3-2.9-1.6-3.2-3.1c-0.4-1.7,0.2-3.2,1.6-4.2c1.9-1.3,4.1-1.7,6.3-2.1
			c5.8-0.9,11.3-2.4,16.5-5.1c2.6-1.4,4.8-3.2,6.5-5.5c1.9-2.4,3.7-4.9,5.3-7.5c0.8-1.3,0.9-3.1,1.2-4.7c0.2-0.9,0-1.8,0-2.8
			c0-3.4,3.4-5.4,6.3-3.7c2.7,1.5,3.8,4.1,4,7.1C955.7,503.5,955.7,504,955.7,504.4z"/>
		<path class="st0" d="M957.1,510.2c-0.2,2-0.5,4-0.7,6c-0.2,0.2-0.3,0.5-0.5,0.7c-0.6,0.5-1.1,1-1.7,1.4c-0.2,0.2-0.3,0.5-0.5,0.7
			c-0.2,0-0.5,0-0.7,0c0.3-0.5,0.6-1.1,1-1.5c1.8-1.8,2-4.2,2.6-6.4C956.7,510.8,957,510.5,957.1,510.2z"/>
		<path class="st0" d="M951.4,521c-0.2,0.2-0.5,0.5-0.7,0.7C950.9,521.5,951.1,521.2,951.4,521z"/>
		<path class="st0" d="M957.1,500.6c0,0.2,0,0.3,0,0.5C957.1,500.9,957.1,500.8,957.1,500.6z"/>
		<path class="st9" d="M955.9,516.9c0.2-0.2,0.3-0.5,0.5-0.7c0.2,0,0.3,0,0.5,0c0.8-0.2,1.6-0.3,2.4-0.5c0.3,0,0.6,0,0.9,0
			c0,0.1,0,0.1,0,0.2c-0.1,0.1-0.1,0.2-0.2,0.2c-0.4,1-0.7,2.2-1.4,3.1c-1.2,1.5-2.5,2.9-3.9,4.2c-1.9,1.8-4,3.4-5.9,5.2
			c-3.5,3.3-6.9,6.8-10.3,10.1c-0.4,0.4-1,0.6-1.5,0.9c0,0,0,0,0,0c0.1-0.3,0.3-0.5,0.3-0.8c0-0.8,0.2-1.7-0.1-2.3
			c-0.1-0.3-1.2-0.2-1.9-0.2c-1.8,0.1-3.6,0.3-5.5,0.4c0-0.2,0-0.5,0-0.7c2-0.1,4.2,0.2,6-0.5c2-0.8,3.7-2.3,5.3-3.8
			c3.4-3.1,6.7-6.3,9.9-9.5c1-1,1.8-2.2,2.8-3.2c0.2-0.2,0.3-0.5,0.5-0.7C955.3,518.4,955.6,517.6,955.9,516.9z"/>
		<path class="st9" d="M936.3,539.7c-2.6-0.9-5.2-0.8-7.9-0.7c-0.4,0-0.8,0.1-1.3,0.2c-0.4,0-0.8,0-1.2,0c-2.2,0-4.3-0.1-6.5-0.1
			c0.4-0.1,0.8-0.4,1.2-0.4c3.5-0.1,7.1-0.1,10.6-0.3c1.5-0.1,2.8,0,4.2,0.6C935.7,539.1,936,539.4,936.3,539.7z"/>
		<path class="st9" d="M909.7,539c0-0.1,0-0.2,0-0.3c1.5,0,3.1,0,4.6,0c0.4,0,0.8,0.2,1.2,0.4C913.5,539.1,911.6,539,909.7,539z"/>
		<path class="st9" d="M928.4,536.1c0.3,0,0.6,0,1,0c0,0.2,0,0.5,0,0.7c-0.3,0-0.6,0-1,0C928.4,536.6,928.4,536.3,928.4,536.1z"/>
		<path class="st4" d="M928.4,536.1c0,0.2,0,0.5,0,0.7c-0.3,0-0.6,0-1,0C927.7,536.6,928.1,536.3,928.4,536.1z"/>
		<path class="st4" d="M929.3,536.8c0-0.2,0-0.5,0-0.7c0.2,0,0.3,0,0.5,0c0,0.2,0,0.5,0,0.7C929.6,536.8,929.5,536.8,929.3,536.8z"
			/>
		<path class="st9" d="M936.5,539.7c0,0.1,0,0.2,0,0.3c-0.1-0.1-0.2-0.2-0.2-0.3C936.4,539.7,936.4,539.7,936.5,539.7z"/>
		<path class="st15" d="M926,539.2c0.4,0,0.8,0,1.2,0c1.6,0.1,3.2,0.1,4.8,0.3c0.9,0.1,1.8,0.2,2.7,0.4c0.2,0,0.3,0.2,0.5,0.6
			c-1.1,0.1-2.1,0.4-3.2,0.4c-3.3,0.1-6.6,0.2-9.9,0.3c-2.4,0.1-4.9,0.2-7.3,0.2c-1.7,0-3.3-0.3-5-0.5c-0.4,0-0.7-0.3-1-0.4
			c0-0.1,0-0.3,0-0.4c0.5-0.1,1-0.2,1.4-0.2c4.8,0,9.6,0,14.4,0C925.1,539.7,925.5,539.4,926,539.2z"/>
		<path class="st4" d="M959.3,515.7c-0.8,0.2-1.6,0.3-2.4,0.5c0.5-1.1,1-2.1,1.6-3.4C958.8,513.9,959,514.8,959.3,515.7z"/>
		<path class="st8" d="M960,499.7c0,1.8,0,3.7,0,5.5C960,503.3,960,501.5,960,499.7z"/>
		<path class="st22" d="M985.2,468c0.6,0,1.1,0,1.7,0c-0.3,0.3-0.5,0.6-0.8,0.8c-2.6,1.9-5.3,3.6-7.7,5.6c-2.7,2.1-5,4.7-7.8,6.7
			c-2.1,1.4-3.6,3.2-5,5.2c-0.5,0.7-0.8,1.7-0.9,2.6c-0.3,2.8-0.4,5.7-0.5,8.6c0,0.2-0.1,0.4-0.2,0.5c-0.1-0.4-0.2-0.8-0.2-1.3
			c0-1.6,0.1-3.2,0.2-4.7c0-0.2,0-0.5,0-0.7c-0.1-0.2-0.2-0.3-0.2-0.5c0-0.3,0-0.6,0-1c0-0.4,0-0.8,0-1.2c-0.7-2,0.2-3.2,1.8-4.4
			c2.2-1.7,4.3-3.6,6.5-5.4c1.4-1.1,3-2.1,4.4-3.3c2.4-2,4.6-4.1,7-6.1C983.8,468.9,984.5,468.5,985.2,468z"/>
		<path class="st8" d="M963.8,492c-0.1,1.6-0.2,3.2-0.2,4.7c0,0.4,0.1,0.8,0.2,1.3c0,0.2,0,0.3,0,0.5c-0.1,1-0.2,1.9-0.2,2.9
			c0,0.2,0,0.3,0,0.5c0.1,0.5,0.2,1,0.2,1.4c0,0.2,0,0.5,0,0.7c-0.1,0.1-0.2,0.1-0.3,0.2c0.1,0.1,0.2,0.2,0.3,0.3c0,0.3,0,0.6,0,1
			c0,1.7,0,3.4,0,5c0,0.2,0,0.5,0,0.7c-0.1,0.6-0.2,1.1-0.2,1.7c0,0.4,0,0.8,0,1.2c-0.1,0.7-0.2,1.4-0.2,2.2c-0.3,0.1-0.6,0.2-1,0.2
			l0,0c0.1-1.3,0.3-2.6,0.3-3.8c0-4.1-0.2-8.2-0.1-12.3c0-2.5,0.5-4.9,0.7-7.3C963.4,492.6,963.7,492.3,963.8,492z"/>
		<path class="st10" d="M960,516.2c0.1-0.1,0.1-0.2,0.2-0.2c0.6,0.2,1.1,0.3,1.7,0.5c0.2,0,0.3,0,0.5,0c0,0,0,0,0,0
			c0,0.2,0,0.3,0,0.5C961,517.9,960.9,517.9,960,516.2z"/>
		<path class="st8" d="M963.6,488.6c0,0.4,0,0.8,0,1.2C963.6,489.4,963.6,489,963.6,488.6z"/>
		<path class="st8" d="M963.6,490.8c0.1,0.2,0.2,0.3,0.2,0.5C963.8,491.1,963.7,491,963.6,490.8z"/>
		<path class="st4" d="M960,516.2c0.9,1.7,1,1.7,2.4,0.7c0.5,0,1,0,1.4,0c0.4,0.4,0.7,0.8,1.2,1.2c1.2,1,2.6,1.8,3.5,3
			c2.4,2.8,4.5,5.8,6.9,8.6c1.4,1.6,2.8,3.2,4.4,4.7c0.5,0.4,1.2,1.2,2,0.3c0.6,0.1,1.3,0.2,1.9,0.2c0.2,0,0.5,0,0.7,0
			c0.2-0.1,0.3-0.2,0.5-0.2c1,0,1.9,0,2.9,0c0.5,0,1,0,1.4,0c0.9,0,1.9,0,2.8,0c2.5-0.1,4.9-0.2,7.4-0.2c2.7,0,5.3,0.1,8,0.2
			c0,0.1,0,0.2,0,0.2c-0.5,0.1-0.9,0.2-1.4,0.2c-2.9,0-5.7-0.1-8.6,0c-3.2,0.1-6.5,0.3-9.7,0.5c-1.3,0.1-2.6-0.1-3.9,0
			c-0.4,0-1.1,0.5-1.2,0.9c-0.1,0.4,0.4,1,0.6,1.5c0,0.2,0,0.3,0,0.5c-0.1,0-0.1,0-0.2,0c-0.6,0.1-1.3,0.1-1.9,0.2
			c-0.6,0-1.2,0.3-1.6,0.1c-1.9-0.8-3.7-1.6-5-3.3c-1.2-1.4-2.5-2.8-3.9-4c-2.7-2.5-5.4-5-8.2-7.5c-0.7-0.7-1.3-1.5-2.1-2
			c-0.3-0.2-1.2-0.2-1.5,0.1c-1.4,1.2-2.7,2.5-4,3.8c-2.4,2.4-4.3,5.3-7.1,7.3c-0.7,0.5-1.2,1.3-1.9,2c-2,1.8-4,3.6-6,5.3
			c-0.7-0.1-1.4-0.2-2.2-0.2c-0.2-0.2-0.3-0.3-0.5-0.5c0.5-0.3,1.1-0.5,1.5-0.9c3.5-3.4,6.8-6.8,10.3-10.1c1.9-1.8,4-3.4,5.9-5.2
			c1.4-1.3,2.7-2.7,3.9-4.2C959.3,518.4,959.6,517.2,960,516.2z"/>
		<path class="st24" d="M1007.4,534.9c0-0.1,0-0.2,0-0.3c1-0.2,1.9-0.3,2.9-0.5c0,0.2,0,0.3,0,0.5
			C1009.4,534.7,1008.4,534.8,1007.4,534.9z"/>
		<path class="st0" d="M939.6,540.4c2-1.8,4-3.5,6-5.3c0.7-0.6,1.2-1.4,1.9-2c2.8-2,4.8-4.8,7.1-7.3c1.3-1.3,2.6-2.6,4-3.8
			c0.3-0.3,1.2-0.3,1.5-0.1c0.8,0.5,1.4,1.4,2.1,2c2.7,2.5,5.5,5,8.2,7.5c1.4,1.3,2.7,2.6,3.9,4c1.3,1.7,3.2,2.5,5,3.3
			c0.5,0.2,1.1,0,1.6-0.1c-0.3,0.9-1.1,1.2-2,1.2c-1.3-0.1-2.2,0.6-3.1,1.5c-1.6,1.6-3.4,3-5,4.6c-0.7,0.7-1.2,1.7-1.7,2.5
			c-0.1,0.1-0.2,0.2-0.2,0.2c-0.2,0.2-0.3,0.3-0.5,0.5c-0.3,0.2-0.6,0.5-0.9,0.7c-0.4,0.6-0.8,1.3-1.2,1.9c-0.2,0.1-0.5,0.2-0.7,0.2
			c-0.2,0.3-0.5,0.6-0.7,1c-0.2,0.2-0.3,0.5-0.5,0.7c-0.4,0.3-0.8,0.6-1.2,1c-0.5,0.3-1,0.5-1.5,0.9c-0.8,0.6-1.5,0.8-2.4,0.1
			c-5-4.1-10.6-7.3-15.1-12C943.1,542.3,941.2,541.5,939.6,540.4z"/>
		<path class="st19" d="M1000.3,538.7c0.7,0,1.4,0,2.2,0c1,0,1.9-0.1,2.9-0.1c0.6,0,1.1,0,1.7,0c0.5,0.1,1.1,0.3,1.6,0.4
			c0.5,0.1,1,0,1.5,0c0,0.1,0,0.3,0.1,0.4c-0.3,0.1-0.6,0.3-0.9,0.3c-2.3,0.2-4.7,0.3-7,0.5c-3.9,0.3-7.8,0.6-11.8,0.9
			c-1.2,0.1-2.4,0.2-3.6,0.3c-0.2,0-0.5,0-0.7,0c-0.7,0-1.5,0-2.2-0.1c-0.8-1-0.4-1.9,0.1-2.9c0.9,0,1.9,0,2.8,0
			c0.4,0.2,0.8,0.4,1.2,0.4c3.7,0,7.4,0,11.1,0C999.5,538.9,999.9,538.8,1000.3,538.7z"/>
		<path class="st7" d="M983.7,541.6c-0.5,0.3-1.1,0.9-1.7,1c-0.3,0-1-0.6-1.1-1c-0.4-1.1,0.4-2.1,2.1-2.8c-0.1,0.3-0.1,0.7-0.2,1
			C982.3,540.8,982.6,541.4,983.7,541.6z"/>
		<path class="st20" d="M983.7,541.6c-1.1-0.2-1.4-0.8-1-1.9c0.1-0.3,0.2-0.7,0.2-1c0-0.1,0-0.1,0-0.2c0.1,0,0.1,0,0.2,0
			c0.3,0,0.5,0,0.8,0c-0.5,0.9-0.9,1.9-0.1,2.9C983.9,541.5,983.8,541.5,983.7,541.6z"/>
		<path class="st8" d="M986.1,541.5c0.2,0,0.5,0,0.7,0c0,0.1,0,0.1,0,0.2C986.6,541.6,986.4,541.5,986.1,541.5z"/>
		<path class="st16" d="M969.1,548.8c0.1-0.1,0.2-0.2,0.2-0.2c0,0.1,0,0.2,0,0.2C969.3,548.8,969.2,548.8,969.1,548.8z"/>
		<path class="st20" d="M1000.3,538.7c-0.4,0.1-0.8,0.2-1.1,0.2c-3.7,0-7.4,0-11.1,0c-0.4,0-0.8-0.3-1.2-0.4
			c0.3-0.1,0.5-0.2,0.8-0.2c4,0.1,8.1,0.1,12.1,0.2C999.9,538.5,1000.1,538.6,1000.3,538.7z"/>
		<path class="st20" d="M1005.3,538.5c-1,0-1.9,0.1-2.9,0.1C1003.4,538.6,1004.3,538.6,1005.3,538.5z"/>
		<path class="st10" d="M1018.7,604.6c0.6-0.8,1.3-1.6,1.9-2.4c0.4-0.2,0.8-0.5,1.2-0.7c0,0.2,0,0.3,0,0.5
			C1020.8,602.9,1019.7,603.7,1018.7,604.6z"/>
		<path class="st24" d="M963.8,516.9c-0.5,0-1,0-1.4,0c0-0.2,0-0.3,0-0.5c0.3-0.1,0.6-0.2,1-0.2c0.9-0.6,1-1.3,0.2-2.2
			c0-0.4,0-0.8,0-1.2c0.8-0.5,0.5-1.1,0.2-1.7c0-0.2,0-0.5,0-0.7c0-1.7,0-3.4,0-5c0-0.3,0-0.6,0-1c0-0.2,0-0.3,0-0.5
			c0-0.2,0-0.5,0-0.7c0.3-0.5,0.5-1.1-0.2-1.4c0-0.2,0-0.3,0-0.5c0.9-0.9,0.5-1.9,0.2-2.9c0-0.2,0-0.3,0-0.5
			c0.1-0.2,0.2-0.4,0.2-0.5c0.2-2.9,0.3-5.7,0.5-8.6c0.1-0.9,0.4-1.9,0.9-2.6c1.3-2,2.9-3.8,5-5.2c2.8-2,5.1-4.5,7.8-6.7
			c2.5-2,5.2-3.7,7.7-5.6c0.3-0.2,0.6-0.5,0.8-0.8c0.2,0,0.3,0,0.5,0c0.9,0.8,2.9,0.7,3.4-0.2c2.8,0,5.6,0,8.4,0
			c0.5,0.7,1,0.7,1.4,0c3.7,0,7.3,0,11,0c0.9,1,1.8,2.1,2.8,3c1.5,1.5,3.2,2.9,4.7,4.4c1.2,1.1,2.3,2.3,3.5,3.4
			c0.1,0.4,0.2,0.8,0.4,1.1c1.1,1.4,1.4,2.9,1.3,4.6c-0.1,1.1-0.6,1.9-1.1,2.8c-1.6,2.7-4.3,4.2-6.5,6.3c-0.5,0.4-1.3,0.7-1.9,0.7
			c-2.7,0-5.5-0.2-8.2-0.2c-1.6,0.1-3.2,0.5-4.8,0.9c-0.5,0.1-1,0.8-1.2,1.3c-0.5,1.4-2.5,2.8-3.9,2.5c-1.6-0.4-2.6,0.3-3.7,1.1
			c-3.6,2.8-6.7,6.1-8.8,10.3c-0.1,0.3-0.3,0.6-0.4,0.9c-1.3,4-3.8,7.2-6.5,10.3c-0.8,0.9-1.6,1.9-2.3,2.9c-0.6,0.8-0.1,2.1,1.1,3
			c1.8,3.1,4.2,5.5,7.2,7.4c0.2,0.1,0.3,0.4,0.4,0.5c-0.6-0.1-1.3-0.2-1.9-0.2c-1-0.7-2-1.4-3-2.2c-3.2-2.7-5-6.3-6.8-9.8
			c-0.3-0.5-0.5-1.1-0.8-1.7c1.5-0.3,2.6-1,3.1-2.3c0.6-1.4,1.2-2.8,1.9-4.2c0.8-1.6,1.7-3.2,2.4-4.8c0.8-1.8,1.2-3.8,2.1-5.5
			c1.9-3.2,4.1-6.3,7.2-8.5c1.3-1,2.5-2.4,4.5-1.8c0.8,0.2,3.6-1.7,3.7-2.5c0.1-0.9,0.7-1.4,1.5-1.7c0.7-0.3,1.4-0.7,2.1-0.9
			c1.9-0.3,3.9-0.8,5.8-0.7c2.5,0.2,4.8,1.3,7.3,1.6c2.3,0.2,4.5-0.5,5.7-2.7c1.2-2.1,1.7-4.2,0.5-6.5c-0.9-1.6-1.5-3.5-2.8-4.6
			c-2.9-2.3-6-4.3-9.9-5c-3.8-0.6-7.6-0.8-11.2,0.3c-3.9,1.2-7.7,2.5-11.4,4.2c-2.3,1-4.5,2.5-6.4,4.1c-3.4,2.9-6,6.5-8,10.5
			c-1.8,3.5-3.7,7-4.2,11c-0.1,0.8-0.2,1.7-0.3,2.5c-0.4,3.8-0.7,7.5,1.3,11c0.6,1,1.1,2,1.6,3c0.1,0.1,0,0.4,0.1,0.6
			C966.4,517.6,965.1,517.3,963.8,516.9z"/>
		<path class="st8" d="M1000.5,467.8c-0.5,0.7-1,0.7-1.4,0C999.5,467.8,1000,467.8,1000.5,467.8z"/>
		<path class="st16" d="M991.5,533.5c-2.2-0.3-4.7-0.4-7-1c-1.4-0.4-2.7-1.4-3.9-2.3c-1.4-1-1.8-2.5-1.3-4.1
			c0.5-1.8,1.8-2.9,3.5-3.2c1.2-0.2,2.4,0,3.5-0.1c3.1-0.1,6.3,0.1,9.4-0.2c3.2-0.3,6.3-0.9,9.4-1.7c3.3-0.9,6.3-2.9,8.7-5.3
			c1.9-2,3.8-4,5.3-6.3c2.1-3,2.8-6.6,3.6-10.2c0.2-1.2,0.6-2.3,1.2-3.4c0.9-1.7,2.2-2.2,4-1.8c1.4,0.3,2.5,1.3,2.4,3.1
			c-0.1,4.5,0.7,9.1-1.1,13.4c-0.5,1.1-0.7,2.2-1,3.3c-0.8,2.7-2.6,4.8-4.6,6.6c-2.5,2.3-5,4.5-7.7,6.6c-4,3.1-8.8,4.7-13.8,5.4
			C998.7,532.9,995.2,533.1,991.5,533.5z"/>
		<path class="st10" d="M1015.1,529.6c-1.5,1.4-3,2.9-4.6,4.3c0.1-0.3,0.1-0.7,0.3-0.9c1.2-1.1,2.4-2.2,3.6-3.3
			C1014.6,529.6,1014.9,529.7,1015.1,529.6z"/>
		<path class="st10" d="M1021.8,523.9c-1.3,1.1-2.6,2.2-3.8,3.4C1018.9,525.7,1020.2,524.6,1021.8,523.9z"/>
		<path class="st10" d="M1018,527.2c-0.6,0.5-1.3,1-1.9,1.4C1016.7,528.2,1017.3,527.7,1018,527.2z"/>
		<path class="st10" d="M1023.5,522.4c-0.5,0.4-1,0.8-1.4,1.2C1022.5,523.2,1023,522.8,1023.5,522.4z"/>
		<path class="st24" d="M989.2,534.6c-0.5,0-1,0-1.4,0C988.3,534,988.8,534,989.2,534.6z"/>
		<path class="st24" d="M984.9,534.6c-0.2,0.1-0.3,0.2-0.5,0.2C984.6,534.8,984.8,534.7,984.9,534.6z"/>
		<path class="st10" d="M1015.6,529.1c-0.2,0.2-0.3,0.3-0.5,0.5C1015.3,529.5,1015.4,529.3,1015.6,529.1z"/>
		<path class="st12" d="M959.8,556.9c-0.2,0.3-0.3,0.6-0.5,1c-1.4,0.4-0.8,1.5-1,2.4c-1.1-0.9-2.3-1.7-3.4-2.6
			c-0.7-0.6-1.3-1.2-1.7-2c-0.9-1.3-1.7-2.6-2.5-3.9c0.1-0.1,0.3-0.3,0.4-0.4c1,0.5,2,1,2.9,1.6c1.5,1.1,2.9,2.3,4.4,3.4
			C958.8,556.7,959.3,556.8,959.8,556.9z"/>
		<path class="st5" d="M963.4,554.8c0.4-0.3,0.8-0.6,1.2-1c-0.8,1-1.6,2-2.5,3c-0.1,0.1-0.4-0.1-0.6-0.1
			C962.1,556.1,962.7,555.4,963.4,554.8z"/>
		<path class="st5" d="M958.3,560.3c0.1-0.9-0.4-2,1-2.4c-0.2,0.8-0.5,1.6-0.7,2.4c0,0-0.1,0-0.1,0L958.3,560.3z"/>
		<path class="st12" d="M969.8,553.6c0.3-0.4,0.5-0.9,0.9-1.2c1.3-1.3,2.5-2.6,3.9-3.8c0.5-0.4,1.1-0.6,1.7-0.9
			C974.1,549.6,972,551.6,969.8,553.6z"/>
		<path class="st12" d="M967.7,556c0.6-0.6,1.1-1.1,1.7-1.7C968.8,554.9,968.2,555.4,967.7,556z"/>
		<path class="st12" d="M976.3,547.6c0.3-0.3,0.6-0.6,1-1C976.9,546.9,976.6,547.3,976.3,547.6z"/>
		<path class="st12" d="M977.3,546.6c0.3-0.2,0.6-0.5,1-0.7C977.9,546.1,977.6,546.4,977.3,546.6z"/>
		<path class="st16" d="M967.7,550c0.3-0.2,0.6-0.5,0.9-0.7C968.3,549.5,968,549.8,967.7,550z"/>
		<path class="st16" d="M965,553.1c0.2-0.3,0.5-0.6,0.7-1c0,0.2,0,0.3,0,0.5C965.5,552.8,965.3,552.9,965,553.1z"/>
		<path class="st12" d="M965.8,552.6c0-0.2,0-0.3,0-0.5c0.2-0.1,0.5-0.2,0.7-0.2C966.2,552.1,966,552.4,965.8,552.6z"/>
		<path class="st4" d="M955.9,516.9c-0.3,0.7-0.7,1.5-1.7,1.4C954.8,517.9,955.4,517.4,955.9,516.9z"/>
		<path class="st22" d="M963.8,505.4c0,1.7,0,3.4,0,5C963.8,508.8,963.8,507.1,963.8,505.4z"/>
		<path class="st22" d="M963.8,498.5c0.2,1,0.6,2-0.2,2.9C963.7,500.4,963.8,499.4,963.8,498.5z"/>
		<path class="st22" d="M963.6,514c0.7,0.9,0.7,1.6-0.2,2.2C963.4,515.5,963.5,514.8,963.6,514z"/>
		<path class="st22" d="M963.8,511.2c0.3,0.6,0.5,1.2-0.2,1.7C963.7,512.3,963.8,511.7,963.8,511.2z"/>
		<path class="st22" d="M963.6,501.8c0.7,0.4,0.5,0.9,0.2,1.4C963.8,502.8,963.7,502.3,963.6,501.8z"/>
		<path class="st22" d="M963.8,504c0,0.2,0,0.3,0,0.5c-0.1-0.1-0.2-0.2-0.3-0.3C963.6,504.1,963.7,504,963.8,504z"/>
		<path class="st13" d="M963.8,516.9c1.3,0.4,2.6,0.7,3.9,1.1c0-0.2,0-0.4-0.1-0.6c-0.5-1-1-2-1.6-3c-2-3.5-1.7-7.3-1.3-11
			c0.1-0.8,0.2-1.7,0.3-2.5c0.5-4,2.4-7.5,4.2-11c2-4,4.6-7.6,8-10.5c1.9-1.6,4.1-3.1,6.4-4.1c3.7-1.6,7.6-3,11.4-4.2
			c3.7-1.1,7.4-1,11.2-0.3c3.9,0.6,7,2.6,9.9,5c1.3,1.1,2,3,2.8,4.6c1.2,2.2,0.6,4.4-0.5,6.5c-1.2,2.2-3.5,2.9-5.7,2.7
			c-2.5-0.2-4.8-1.3-7.3-1.6c-1.9-0.2-3.9,0.3-5.8,0.7c-0.7,0.1-1.4,0.6-2.1,0.9c-0.8,0.3-1.4,0.7-1.5,1.7c-0.1,0.7-2.9,2.7-3.7,2.5
			c-2.1-0.6-3.2,0.9-4.5,1.8c-3.1,2.2-5.3,5.3-7.2,8.5c-1,1.7-1.4,3.7-2.1,5.5c-0.7,1.6-1.6,3.2-2.4,4.8c-0.7,1.4-1.3,2.8-1.9,4.2
			c-0.6,1.3-1.6,2-3.1,2.3c0.3,0.7,0.5,1.2,0.8,1.7c1.9,3.6,3.7,7.2,6.8,9.8c0.9,0.8,2,1.4,3,2.2c-0.8,0.9-1.5,0.2-2-0.3
			c-1.5-1.5-3-3-4.4-4.7c-2.3-2.8-4.5-5.8-6.9-8.6c-1-1.2-2.4-2-3.5-3C964.6,517.7,964.2,517.3,963.8,516.9z"/>
	</g>
</g>
</svg>
