<?xml version="1.0" encoding="utf-8"?>
<!-- Generator: Adobe Illustrator 24.0.0, SVG Export Plug-In . SVG Version: 6.00 Build 0)  -->
<svg version="1.1" id="Layer_1" xmlns="http://www.w3.org/2000/svg" xmlns:xlink="http://www.w3.org/1999/xlink" x="0px" y="0px"
	 viewBox="0 0 1920 1080" style="enable-background:new 0 0 1920 1080;" xml:space="preserve">
<style type="text/css">
	.st0{fill:#B5231F;}
	.st1{fill:#FDFCFC;}
	.st2{fill:#A71F20;}
	.st3{fill:#B12221;}
	.st4{fill:#A41E1E;}
	.st5{fill:#C22F33;}
	.st6{fill:#D13D45;}
	.st7{fill:#CB3740;}
	.st8{fill:#96191F;}
	.st9{fill:#861520;}
	.st10{fill:#C23036;}
	.st11{fill:#79111C;}
	.st12{fill:#BC292A;}
	.st13{fill:#A91F1F;}
	.st14{fill:#DB5D73;}
	.st15{fill:#BB2929;}
	.st16{fill:#AB201F;}
	.st17{fill:#C83F51;}
	.st18{fill:#D3546C;}
	.st19{fill:#B62420;}
	.st20{fill:#9E1C21;}
	.st21{fill:#B52320;}
	.st22{fill:#B12220;}
	.st23{fill:#B1221F;}
	.st24{fill:#B92D37;}
	.st25{fill:#BA2726;}
	.st26{fill:#AC201F;}
	.st27{fill:#AE211F;}
</style>
<g>
	<g>
		<path class="st0" d="M1036,468.3c0,47.6,0,95.2,0,142.8c-1.2,3.5-3.7,5.3-7.5,5.3c-45.2,0-90.4,0-135.6,0c-0.6,0-1.1,0-1.7-0.1
			c-3.7-0.7-6-3.6-6-7.6c0-46,0-91.9,0-137.9c0-0.2,0-0.4,0-0.6c0.1-3,1.8-5.5,4.6-6.7c0.3-0.1,0.6-0.3,0.9-0.5
			c46.6,0,93.1,0,139.7,0c0.2,0.1,0.3,0.2,0.5,0.3C1033.5,464,1035.1,465.7,1036,468.3z M1012,464.8c-2.9,0-5.8,0-8.7-0.1
			c-1.4,0-2.7,0-4.1,0c-5.4,0-10.8,0-16.3,0c-0.2,0-0.5,0-0.7,0c-0.6,0.1-1.1,0.1-1.7,0.2c-0.4,0.2-0.8,0.3-1.2,0.5
			c-2.2,1.7-4.3,3.5-6.4,5.1c-3.5,2.7-7.1,5.4-10.7,8.2c-1.1,0.9-1.7,1-2.9,0.1c-3.4-2.5-6.8-5-10.1-7.6c-2.1-1.6-4.2-3.1-6.1-4.7
			c-1.1-0.9-2.2-1.5-3.6-1.7c-0.3-0.1-0.5-0.1-0.8-0.2c-0.6,0-1.3,0-1.9,0c-9.9,0-19.8,0.1-29.7,0.1c-0.3,0-0.6-0.1-0.9-0.1
			c-0.5,0.2-1.1,0.3-1.5,0.7c-5.2,4.6-11.3,8.2-16.3,13.2c-0.7,0.7-1.7,1.3-1.6,2.5c0,4.7,0,9.4,0,14.1c0,7.3,0,14.7,0,22
			c0.2,0.9,0.3,1.8,0.5,2.6c-0.7,1.4-0.3,2.5,0.8,3.5c1.2,1,2.3,2.1,3.4,3.2c1,1,2,2.2,3,3.2c3.2,3,6.5,5.9,9.7,8.8
			c0.5,0.5,1.3,0.6,2,0.9c-0.3,0.2-0.7,0.5-1,0.7c-0.4,0.3-0.9,0.4-1.3,0.8c-2.7,2.5-5.4,5-8.2,7.5c-2.6,2.3-5.2,4.6-7.7,7
			c-0.5,0.5-0.7,1.4-1,2.1c0,4.2,0,8.3,0,12.5c-0.1,0.6-0.2,1.3-0.2,1.9c0,7.1,0,14.2,0,21.3c0.1,0.2,0.2,0.5,0.2,0.7
			c0.2,1,0.1,2.3,0.6,3c1.1,1.6,2.6,3.1,4,4.6c0.9,1,1.9,1.9,2.9,2.8c2.4,2.4,4.9,4.6,7.2,7.1c1.5,1.7,3.1,2.7,5.2,3
			c0.1,0,0.2,0,0.2,0c0.5,0.1,1,0.2,1.5,0.2c10.1,0,20.2,0,30.3,0c1.1-0.2,2.4,0,3.4-0.5c3.1-1.8,6-4,8.3-6.7
			c3.2-3.7,6.8-6.9,10.7-9.9c0.2-0.2,0.9-0.2,1.1,0c1.3,1,2.5,2,3.7,3.2c2,1.9,3.8,4,5.7,5.9c2,2.1,4,4.1,6,6.1c1,1,2.1,1.9,3.7,1.6
			c0.3,0,0.6,0,1,0c0.2,0.1,0.3,0.1,0.5,0.2c10.2,0,20.5,0,30.7,0c0.3,0,0.6-0.1,0.9-0.2c0.2,0,0.3,0,0.5,0c0.3-0.1,0.6-0.1,0.8-0.2
			c2.2-2,4.7-3.7,6.6-6c2.7-3.2,5.9-5.7,8.8-8.5c1.3-1.3,3-2.4,2.7-4.6c0.1-1,0.2-1.9,0.2-2.9c0-7.4,0-14.7,0-22.1
			c0-4.3,0-8.6,0-12.9c-0.1-0.3-0.2-0.6-0.2-1c0-1.7-1-3-2.3-4c-0.8-0.6-1.6-1.2-2.4-1.8c-4-3.1-7.9-6.3-11.8-9.5
			c-0.9-0.8-1.8-1.6-2.7-2.5c0.5-0.2,1-0.3,1.4-0.6c2.9-2.7,5.8-5.5,8.6-8.3c2.4-2.4,4.7-4.8,7.2-7.2c1.4-1.4,2.3-2.9,2.3-4.9
			c0-2.9,0-5.8,0-8.7c0-4.6,0-9.3,0-13.9c0-3.4,0-6.7,0-10.1c0-0.5-0.1-1.1-0.2-1.6c0.1-0.7,0.3-1.4,0.2-2c-0.1-0.6-0.6-1.1-0.9-1.6
			c-0.8-0.6-1.5-1.1-2.3-1.7c-4.5-3.9-9-7.8-13.5-11.7c-0.7-0.6-1.6-0.9-2.4-1.4c-0.2,0-0.5,0-0.7,0c-0.8,0.1-1.5,0.1-2.3,0.2
			C1012.2,464.9,1012.1,464.9,1012,464.8z"/>
		<path class="st1" d="M890.8,463c-0.3,0.2-0.6,0.4-0.9,0.5c-2.8,1.1-4.6,3.6-4.6,6.7c0,0.2,0,0.4,0,0.6c0,46,0,91.9,0,137.9
			c0,4,2.3,7,6,7.6c0.5,0.1,1.1,0.1,1.7,0.1c45.2,0,90.4,0,135.6,0c3.7,0,6.3-1.8,7.5-5.3c0,1.8,0,3.7,0,5.5c-50.3,0-100.6,0-151,0
			c0-51.2,0-102.4,0-153.6C886.9,463,888.8,463,890.8,463z"/>
		<path class="st1" d="M1036,468.3c-0.8-2.5-2.5-4.2-5-5c-0.2-0.1-0.3-0.2-0.5-0.3c1.8,0,3.7,0,5.5,0
			C1036,464.8,1036,466.5,1036,468.3z"/>
		<path class="st2" d="M981.8,614.4c-1.6,0.3-2.7-0.6-3.7-1.6c-2-2-4-4.1-6-6.1c-1.9-2-3.8-4-5.7-5.9c-1.2-1.1-2.4-2.2-3.7-3.2
			c-0.2-0.2-0.9-0.2-1.1,0c-3.9,2.9-7.5,6.2-10.7,9.9c-2.4,2.7-5.2,4.9-8.3,6.7c-0.9,0.5-2.2,0.4-3.4,0.5c0-0.1,0-0.1,0-0.2
			c0.2-0.2,0.3-0.3,0.5-0.5c0.1-0.2,0.2-0.3,0.2-0.5c0.3-0.2,0.6-0.3,0.9-0.5c2.8-2.3,5.5-4.6,8.3-6.8c1.7-1.4,3.6-2.7,5.1-4.3
			c1.7-1.7,3.3-3.7,4.9-5.6c0.6-0.7,1.2-1.4,1.6-2.2c0.6-1,0-1.9-1.1-1.9c-0.6,0-1.4,0.3-1.9,0.7c-2.5,2.4-4.8,4.9-7.4,7.3
			c-2.5,2.3-5.1,4.5-7.7,6.8c-1.5,1.3-3,2.7-4.5,4.1c-0.2,0.1-0.5,0.2-0.7,0.2c-0.4,0-0.8,0-1.2,0c-1.5,0-3-0.1-4.5,0
			c-0.8,0.1-1.6,0.4-2.5,0.7c-0.5,0-1,0-1.4,0c-0.4-0.1-0.8-0.2-1.3-0.2c-1.2,0-2.4,0.3-3.6,0.2c-3.9-0.3-7.8-0.6-11.7-0.9
			c-0.2,0-0.3,0-0.5,0c0.4-0.2,0.8-0.3,1.2-0.5c6.9,0,13.9,0,20.8,0c1.5,0,3,0.1,4.5,0.1c0.3,0,0.6-0.3,0.8-0.5
			c3.5-3.2,7-6.5,10.5-9.8c1.6-1.5,3.2-3,5-4.3c2.9-2.1,4.5-4.7,4.2-8.5c-0.3-3.5-0.4-7.1-0.5-10.6c-0.1-3.5-0.1-6.9,0-10.4
			c0.1-1.7,0.6-3.3,0.9-5c0.8,0,1.1,0.4,1.2,1.2c0.2,2.7,0.6,5.3,0.7,8c0.2,4.9,0.2,9.7,0.3,14.6c0,0.3,0,0.6,0,1c0,0.2,0,0.3,0,0.5
			c0.1,1.5,0.1,2.9,0.2,4.4c0.1,1.1,0.6,1.5,1.7,1.3c0.3-0.1,0.6-0.1,0.9-0.2c1.7,0.5,3,1.5,4.2,2.9c1.4,1.6,2.8,3.2,4.2,4.7
			c2.4,2.5,4.9,4.9,7.5,7.2c1.7,1.5,3.1,3.6,5.7,3.9c-0.6,0.1-1.2,0.3-1.8,0.4C981,611.9,980.7,612.7,981.8,614.4z"/>
		<path class="st3" d="M1034.5,494.9c0,4.6,0,9.3,0,13.9c-0.3,0.3-0.8,0.6-1,1c-0.8,2.2-1.6,4.4-2.4,6.6c-0.5,0.3-1,0.6-1.5,0.9
			c-1,0.8-1.9,1.7-2.9,2.5c-2.4,2-4.8,4.1-7.2,6.1c-2.9,2.6-5.9,5.1-8.8,7.7c-1.1,0.3-2.2,0.6-3.4,1c-4.8,0-9.6,0-14.4,0
			c-2.3,0-4.5,0-6.8,0c-0.5,0-0.9,0.3-1.4,0.5c-0.8-0.1-1.6-0.2-2.4-0.2c-0.2,0-0.3,0-0.5,0c-1-0.8-2.1-1.4-3-2.3
			c-1-1-1.8-2.3-2.7-3.5c-0.1-0.6-0.2-1.1-0.2-1.7c0.3,0,0.6,0,1,0c1.8,1.9,3.6,3.9,5.5,5.8c0.7,0.7,1.5,1,2.6,1
			c7.1-0.1,14.2-0.2,21.3-0.3c1.9,0,3.7-0.4,5.1-1.9c0.7-0.7,1.5-1.3,2.2-2c4.6-4.1,9.2-8.1,13.8-12.1c1.4-1.2,2-2.6,2.3-4.2
			c1-3.9,1.4-7.9,1.6-11.9c0.1-3.4-0.4-6.7-1.7-9.8c0.4-0.7,0.8-1.4,1.2-2.2c0.8,1.5,1.7,3,2.6,4.4
			C1033.7,494.5,1034.2,494.7,1034.5,494.9z"/>
		<path class="st4" d="M906.3,539.4c-0.7-0.3-1.4-0.5-2-0.9c-3.3-2.9-6.5-5.8-9.7-8.8c-1.1-1-2-2.2-3-3.2c-1.1-1.1-2.3-2.1-3.4-3.2
			c-1.1-1-1.4-2.2-0.8-3.5c0.3-1,0.6-1.9,1-2.9c0,0,0,0,0,0c0.3,0,0.6,0,0.9,0c0.2,0,0.3,0,0.5,0c0.1,0.2,0.2,0.5,0.3,0.6
			c3.1,3.2,6.3,6.3,9.5,9.4c0.4,0.4,1,0.6,1.5,1c0.1,0.2,0.2,0.5,0.2,0.7c0.2,0.2,0.5,0.5,0.7,0.7c0.2,0.1,0.3,0.2,0.5,0.2
			c0,0.1,0,0.2,0,0.2c1.2,2.7,2.8,5.2,5.3,6.9c-0.2,0.8-0.5,1.6-0.7,2.4C906.8,539.3,906.6,539.4,906.3,539.4z"/>
		<path class="st5" d="M939.6,464.9c1.4,0.1,2.5,0.8,3.6,1.7c2,1.7,4.1,3.2,6.1,4.7c3.4,2.5,6.8,5,10.1,7.6c1.1,0.9,1.7,0.8,2.9-0.1
			c3.6-2.7,7.2-5.4,10.7-8.2c2.2-1.7,4.3-3.4,6.4-5.1c0.3-0.3,0.8-0.3,1.2-0.5c0,0.2,0,0.3,0,0.5c-0.4,0.2-0.9,0.4-1.3,0.8
			c-2.8,2.2-5.5,4.4-8.2,6.6c-0.7,0.6-1.3,1.3-1.9,2c-0.1,0-0.2,0-0.2,0c-0.3,0.1-0.6,0.2-0.8,0.4c-1.8,1.3-3.6,2.7-5.4,4
			c-1.5,1.1-3,2.2-3.4,4.2c0,0.1,0,0.2,0,0.2c-1.5-1-2.9-2-4.4-3c-1.6-1.1-3.2-2-4.8-3.2c-1.7-1.3-3.3-2.9-5.1-4.2
			c-1.2-0.9-2.3-2.1-4-2.2c-0.3,0-0.6-0.4-0.9-0.7c-0.6-0.6-1.2-1.2-1.7-1.7c-0.1-0.2-0.2-0.3-0.2-0.5c0-0.2,0-0.3,0-0.5
			C939.8,467.3,939.6,466,939.6,464.9z"/>
		<path class="st6" d="M980.6,465.4c0-0.2,0-0.3,0-0.5c0.6-0.1,1.1-0.1,1.7-0.2c0.5,0.8,1.1,1.6,1.6,2.3c0,0.2,0,0.5,0,0.7l0,0
			c-0.4,0.2-0.8,0.3-1.1,0.5c-4.1,3.2-8.2,6.4-12.3,9.7c-0.4,0.4-0.8,0.9-1.1,1.3c-0.2,0.1-0.3,0.2-0.5,0.2
			c-0.2,0.2-0.3,0.3-0.5,0.5c-0.3,0.2-0.6,0.5-1,0.7c-0.5,0.5-1,1-1.4,1.4c-0.2,0.2-0.5,0.3-0.7,0.5c-1.3,0.9-3,1.4-3,3.4
			c0,1.7-0.1,3.3-0.1,5c0,0.2,0,0.5,0,0.7c-0.2,0.4-0.4,0.9-0.5,1.3c-0.2,1.3-0.4,2.7-0.6,4.2c-0.5-0.2-0.8-0.3-1.1-0.5
			c0-0.8,0-1.6,0-2.4c0-1.1,0-2.2,0-3.4c0-0.4,0-0.8,0-1.2c-0.1-1-0.2-2.1-0.2-3.1c0-0.2,0-0.5,0-0.7c-0.2-0.6-0.3-1.3-0.5-1.9
			c0-0.2,0-0.3,0-0.5c0-0.1,0-0.2,0-0.2c0.4-0.4,0.7-0.9,1.1-1.3c0.4-0.4,0.8-0.9,1.3-1.2c0.7-0.5,1.4-0.8,2.1-1.3
			c0.9-0.8,1.8-1.6,2.7-2.5c0.8-0.7,1.6-1.5,2.4-2.2c0.1,0,0.2,0,0.2,0c0.3-0.1,0.6-0.3,0.8-0.5c2.6-2,5.3-3.9,7.8-6
			C978.8,467.5,979.7,466.4,980.6,465.4z"/>
		<path class="st7" d="M887.1,569.9c0-4.2,0-8.3,0-12.5c0.2-0.1,0.4-0.1,0.5-0.2c2.5-2.2,5-4.3,7.5-6.5c2.5-2.1,4.9-4.3,7.3-6.4
			c0.8-0.7,1.5-1.6,2-2.5c0.4-0.9,0.9-1.2,1.8-1.1c0.2,0.6,0.5,1.1,0.7,1.7c-0.1,0.3-0.3,0.7-0.2,0.9c0.6,0.9,0.2,1.5-0.5,2
			c-2,1.6-3.9,3.2-5.9,4.9c-2.4,2-4.8,4.1-7.1,6.2c-1.4,1.3-3,2.6-3.7,4.3c-0.9,2.1-1.1,4.5-1.6,6.8
			C887.9,568.3,888.2,569.4,887.1,569.9z"/>
		<path class="st6" d="M887,495.1c0-4.7,0-9.4,0-14.1c0.2-0.1,0.5-0.2,0.7-0.4c3.4-2.7,6.8-5.4,10.2-8c3-2.3,6.1-4.5,8.5-7.4
			c0.6,0.8,1.3,1.6,1.9,2.4c-0.3,0.2-0.7,0.4-1,0.6c-3.3,2.8-6.5,5.6-9.8,8.4c-0.4,0.3-0.7,0.9-1,1.3c0,0,0,0,0,0
			c-0.4,0.3-0.8,0.6-1.2,1c-1,0.9-1.9,1.8-2.9,2.6c-0.3,0.2-0.6,0.5-1,0.7c-0.2,0.2-0.3,0.5-0.5,0.7c-0.5,0.5-1.2,1-1.5,1.6
			c-0.5,1.3-0.7,2.6-0.9,3.9c-0.3,1.9-0.5,3.8-0.8,5.7C887.8,494.4,887.3,494.8,887,495.1z"/>
		<path class="st8" d="M1015.4,614.4c-0.2,0-0.3,0-0.5,0c0-0.1,0-0.2,0-0.2c0.3-0.5,0.6-1,0.8-1.6c0.5-1.3,0.1-1.9-1.3-2
			c-0.3,0-0.6,0-1,0c0.1-0.3,0.2-0.6,0.3-0.9c1-0.8,1.9-1.6,2.9-2.4c1.4-1.3,2.7-2.6,4.1-3.8c0.5-0.6,1-1.1,1.4-1.7
			c0.4-0.4,0.8-0.8,1.2-1.2c0.4-0.6,0.8-1.1,1.2-1.7c0.1-0.1,0.2-0.2,0.2-0.2c1.3-1.2,2.5-2.4,3.8-3.6c0.8-0.8,1.5-1.7,2.2-2.6
			c0.3-0.2,0.6-0.3,1-0.5c1,0.1,1.9,0.2,2.9,0.3c-0.1,1-0.2,1.9-0.2,2.9c-1.9,1.6-4,3-5.7,4.7c-4,4.1-7.8,8.4-11.7,12.6
			C1016.3,613,1015.9,613.7,1015.4,614.4z"/>
		<path class="st5" d="M1014.6,464.7c0.2,0,0.5,0,0.7,0c0.3,0.4,0.5,0.8,0.8,1.1c3.1,2.7,6.3,5.5,9.5,8.2c2.2,1.9,4.5,3.6,6.8,5.5
			c0.9,0.8,0.9,1.6,0.1,2.6c-0.6,0.9-1.3,0.3-1.9,0c-0.5-0.2-0.9-0.5-1.3-0.8c-5.1-3.5-9.5-7.7-13.9-12c-0.9-0.9-1.8-1.5-3.2-1.3
			c0.2-0.2,0.4-0.5,0.7-0.6C1014.2,467,1014.7,466,1014.6,464.7z"/>
		<path class="st9" d="M927.9,612.1c0.5,0,1,0,1.4,0c0.3,0.1,0.6,0.2,0.9,0.2c1.5,0,3.1,0,4.6,0c1,0,2.1,0.3,2.6-1
			c0.2-0.1,0.5-0.2,0.7-0.2c0.2,0.2,0.4,0.4,0.6,0.5c0.9,0.3,1.2,1,1.1,1.9c-0.1,0.2-0.2,0.3-0.2,0.5c-0.2,0.2-0.3,0.3-0.5,0.5
			c0,0.1,0,0.1,0,0.2c-10.1,0-20.2,0-30.3,0c-0.5,0-1-0.1-1.5-0.2c-0.1-0.1-0.2-0.2-0.2-0.2c0,0,0,0,0,0c0.1-0.3,0.1-0.6,0.2-1
			c0.1-0.3,0.2-0.6,0.2-1c0.2-0.2,0.5-0.5,0.7-0.7c0.1-0.2,0.2-0.3,0.3-0.5c0-0.1,0-0.2,0-0.2c0.2,0,0.3,0,0.5,0
			c0.2,0.1,0.3,0.2,0.5,0.2c0.3,0,0.6,0,1,0c0.3,0.3,0.5,0.7,0.9,0.8c1,0.3,2,0.4,3,0.7c3.2,0.1,6.4,0.2,9.6,0.2
			C925.2,612.7,926.5,612.3,927.9,612.1z"/>
		<path class="st10" d="M887.1,569.9c1.1-0.5,0.7-1.6,0.9-2.4c0.5-2.3,0.7-4.7,1.6-6.8c0.7-1.7,2.3-3,3.7-4.3
			c2.3-2.2,4.7-4.2,7.1-6.2c1.9-1.7,3.9-3.3,5.9-4.9c0.7-0.6,1-1.1,0.5-2c-0.1-0.2,0.1-0.6,0.2-0.9c1,0.3,2.1,0.6,3.1,1
			c0,0.2,0,0.3,0,0.5c-0.3,0-0.6,0-1,0c-0.5,0.2-1.1,0.2-1.4,0.6c-1.3,1.3-2.4,2.7-3.8,3.9c-4,3.6-8.1,7-12.1,10.6
			c-0.8,0.7-1.4,1.9-1.8,2.9c-0.9,2.2-1,4.5-1.1,6.8c0,2.4-0.2,4.8-0.2,7.1c0,4.9,0.1,9.8,0.2,14.7c0,1.1-0.9,2.5-2.1,2.8
			c0-7.1,0-14.2,0-21.3C886.9,571.1,887.1,570.5,887.1,569.9z"/>
		<path class="st11" d="M1014.9,614.2c0,0.1,0,0.2,0,0.2c-0.3,0.1-0.6,0.2-0.9,0.2c-10.2,0-20.5,0-30.7,0c0.3-1.2,1.1-1.8,2.7-1.8
			c5.7-0.2,11.4-0.4,17.1-0.5c2.6-0.1,5.2,0.1,7.8-0.1C1012.7,612.1,1014.1,612.3,1014.9,614.2z"/>
		<path class="st12" d="M1015.1,538.5c0.9,0.8,1.7,1.7,2.7,2.5c3.9,3.2,7.9,6.3,11.8,9.5c0.8,0.6,1.6,1.2,2.4,1.8
			c1.3,1,2.2,2.2,2.3,4c-0.7,0.2-1.4,0.3-2.2,0.5c-0.2,0.2-0.5,0.3-0.7,0.5c-0.1,0.1-0.2,0.2-0.2,0.2c-0.2,0-0.3,0-0.5,0
			c-1-0.7-1.9-1.4-2.9-2.1c-2.2-1.6-4.5-3.3-6.7-4.9c-0.2-0.3-0.4-0.7-0.6-1c-1.8-1.6-3.7-3.1-5.6-4.6c-1.2-1-2.4-2-4.1-1.4
			c0-0.2,0-0.5,0-0.7c1.1-0.3,1.1-0.6,0.2-1.9c0-0.4,0-0.8,0-1.2c0.2-0.3,0.3-0.6,0.5-0.9c0-0.1,0-0.2,0-0.2c0.4,0,0.8,0,1.2,0
			C1013.5,538.5,1014.3,538.5,1015.1,538.5z M1030.9,556.5c0.7-0.5,1.4-0.9,1.7-1.4c0.2-0.3-0.3-1.1-0.7-1.4
			c-4.6-3.8-9.2-7.4-13.7-11.3c-1.5-1.3-2.7-1.3-4.2-0.5c-0.3,0.2-0.7,0.4-0.7,0.6c0,0.2,0.3,0.6,0.6,0.8c4.9,4,9.9,7.9,14.8,11.9
			C1029.3,555.6,1030.1,555.9,1030.9,556.5z"/>
		<path class="st13" d="M1015.1,538.5c-0.8,0-1.6,0-2.4,0c0.5-0.3,1.1-0.5,1.5-0.8c2.6-2.2,5.2-4.4,7.7-6.8c3.2-3.1,6.3-6.4,9.4-9.7
			c0.7-0.8,1.2-1.9,1.8-2.8c0.1-0.4,0.3-0.9,0.2-1.2c-0.3-0.6-0.8-1.1-1.6-0.7c-0.2,0-0.3,0-0.5,0l0,0c0.8-2.2,1.5-4.4,2.4-6.6
			c0.2-0.4,0.7-0.7,1-1c0,2.9,0,5.8,0,8.7c0,2-0.9,3.5-2.3,4.9c-2.4,2.3-4.7,4.8-7.2,7.2c-2.8,2.8-5.7,5.5-8.6,8.3
			C1016.1,538.2,1015.6,538.3,1015.1,538.5z"/>
		<path class="st14" d="M907.2,464.8c9.9,0,19.8-0.1,29.7-0.1c0.6,0,1.3,0,1.9,0c0.1,0.7,0.1,1.5-0.9,1.6c-1.1,0.1-2.1,0.2-3.2,0.2
			c-3.7,0-7.5,0-11.2,0c-1.3,0-2.6-0.2-3.9-0.2c-3.1,0.1-6.1,0.3-9.2,0.4C909.1,466.8,907.8,466.4,907.2,464.8z"/>
		<path class="st7" d="M887,495.1c0.3-0.3,0.8-0.7,0.9-1c0.3-1.9,0.5-3.8,0.8-5.7c0.2-1.3,0.5-2.7,0.9-3.9c0.2-0.6,1-1.1,1.5-1.6
			c-0.2,0.4-0.4,0.8-0.5,1.1c-0.3,0.6-0.7,1.2-0.8,1.8c-0.3,2-0.5,4.1-0.5,6.2c-0.1,2.5,0,5.1,0,7.6c0,1.7-0.1,3.5-0.1,5.2
			c0,1.1,0.1,2.1,0.1,3.2c0.1,3,0.9,6-0.6,8.9c0,0,0,0,0,0c-0.5,0.1-0.9,0.1-1.4,0.2C886.9,509.8,887,502.4,887,495.1z"/>
		<path class="st15" d="M886.9,593.1c1.2-0.3,2.1-1.7,2.1-2.8c-0.1-4.9-0.2-9.8-0.2-14.7c0-2.4,0.2-4.8,0.2-7.1
			c0-2.3,0.2-4.6,1.1-6.8c0.4-1,1-2.2,1.8-2.9c4-3.6,8.1-7,12.1-10.6c1.3-1.2,2.5-2.6,3.8-3.9c0.3-0.3,1-0.4,1.4-0.6
			c-1.2,1.3-2.4,2.7-3.7,4c-1.7,1.7-3.5,3.3-5.4,4.9c-2.6,2.3-5.4,4.6-8,7c-0.9,0.9-1.7,2.1-1.9,3.3c-0.4,2.1-0.2,4.2-0.3,6.3
			c-0.1,6.3-0.2,12.6-0.2,18.9c-0.2,1.2-0.3,2.4-0.5,3.6c-0.7,0.6-1.4,1.3-2.2,1.9C887.1,593.6,887,593.4,886.9,593.1z"/>
		<path class="st16" d="M1034.5,592.2c-1-0.1-1.9-0.2-2.9-0.3c0.6-1.3,1-2.7,0.5-4.2c-0.1-0.2,0-0.6,0-0.8c0.1-1.7,0.4-3.4,0.4-5.1
			c-0.1-4.6-0.2-9.2-0.5-13.9c-0.1-1.8-0.6-3.5-0.9-5.3c0-0.2,0-0.5,0-0.7c0-0.7,0-1.4,0-2.2c0.2,0.5,0.6,0.9,0.7,1.4
			c0.6,3,1.1,6,1.6,9.1c0.4-0.1,0.7-0.1,1.1-0.2C1034.5,577.5,1034.5,584.8,1034.5,592.2z"/>
		<path class="st16" d="M887.2,593.8c0.7-0.6,1.4-1.3,2.2-1.9c1.5,0,2.2,1.1,3,2.1c0.8,1,1.5,2,2.4,2.9c1.6,1.6,3.5,2.9,5.1,4.5
			c2.8,2.8,5.6,5.8,8.4,8.7c0,0.2,0,0.3,0,0.5c-0.6-0.4-1.3-0.8-1.9-1.4c-0.7-0.6-1.2-1.4-1.9-2c-4.6-4.5-9.2-8.9-13.8-13.4
			c-0.5-0.5-1.1-1-1.9-0.5c-0.8,0.6-1.5,1.3-0.9,2.3c0.7,1.1,1.5,2.2,2.4,3.1c3.8,3.6,7.6,7.2,11.4,10.7c1.8,1.6,3.6,3.2,5.4,4.8
			c0,0,0,0,0,0c0,0.1,0,0.2,0,0.2c-2.1-0.4-3.7-1.4-5.2-3c-2.2-2.5-4.8-4.8-7.2-7.1c-1-0.9-2-1.9-2.9-2.8c-1.4-1.5-2.8-2.9-4-4.6
			C887.2,596.1,887.3,594.9,887.2,593.8z"/>
		<path class="st12" d="M1012.2,468c1.3-0.2,2.3,0.5,3.2,1.4c4.4,4.3,8.9,8.5,13.9,12c0.4,0.3,0.9,0.6,1.3,0.8
			c0.6,0.3,1.2,0.9,1.9,0c0.8-1,0.8-1.9-0.1-2.6c-2.2-1.9-4.5-3.6-6.8-5.5c-3.2-2.7-6.3-5.4-9.5-8.2c-0.3-0.3-0.5-0.8-0.8-1.1
			c0.8,0.5,1.7,0.8,2.4,1.4c4.5,3.9,9,7.8,13.5,11.7c0.7,0.6,1.5,1.2,2.3,1.7c0,0.4,0.1,0.7,0,1.1c-0.4,1.9-1.3,3.6-3.6,2.3
			c-0.4-0.3-1.1-0.2-1.6-0.2c-0.1,0-0.2,0-0.2,0c-0.2-0.2-0.3-0.3-0.5-0.5c-0.9-0.7-1.8-1.4-2.6-2.2c-0.5-0.4-1-0.8-1.4-1.2
			c-0.1,0-0.2,0-0.2,0c-1.3-1.4-2.6-2.8-4-4.2c-0.1-0.1-0.4-0.1-0.6-0.1c-0.1-0.1-0.2-0.2-0.2-0.2c-1.5-2.3-3.6-3.9-6-5.3
			C1012.4,468.7,1012.3,468.3,1012.2,468L1012.2,468z"/>
		<path class="st4" d="M1015.4,614.4c0.5-0.7,0.9-1.5,1.5-2.1c3.9-4.2,7.7-8.5,11.7-12.6c1.7-1.8,3.8-3.2,5.7-4.7
			c0.3,2.2-1.4,3.4-2.7,4.6c-2.9,2.9-6.1,5.4-8.8,8.5c-1.9,2.3-4.4,4-6.6,6C1015.9,614.4,1015.6,614.4,1015.4,614.4z"/>
		<path class="st8" d="M981.8,614.4c-1.1-1.8-0.8-2.5,1.3-3c0.6-0.1,1.2-0.3,1.8-0.4c1.8-0.1,3.7-0.2,5.5-0.2c0.2,0,0.3,0,0.5,0
			c0.7,0.7,1.4,0.7,2.2,0c2.2,0,4.5,0,6.7,0c0.4,0,0.8,0,1.2,0c0.3,0,0.6,0,1,0c1.2,0,2.4,0,3.6,0c0.8,0.8,1.5,0.4,2.2-0.2l0,0
			c0.2,0,0.3,0,0.5,0c0.2-0.1,0.3-0.2,0.5-0.2c0.4,0,0.8,0,1.2,0c1,0.1,2.1,0.2,3.1,0.2c-0.6,1.1-1.7,1.2-2.8,1.2
			c-6.8,0.1-13.5,0.1-20.3,0.3c-2.6,0.1-5.1,0.4-7.8,0.7c0.3,0.6,0.5,1.2,0.7,1.7C982.4,614.4,982.1,614.4,981.8,614.4z"/>
		<path class="st17" d="M907.2,464.8c0.5,1.5,1.8,2,3.2,2c3.1,0,6.1-0.3,9.2-0.4c1.3,0,2.6,0.1,3.9,0.2c3.7,0,7.5,0,11.2,0
			c1.1,0,2.1-0.1,3.2-0.2c1-0.1,1-0.8,0.9-1.6c0.3,0.1,0.5,0.1,0.8,0.2c0,1.1,0.2,2.4-1.4,2.7c-0.2,0.1-0.3,0.3-0.5,0.4
			c-0.2,0-0.3,0-0.5,0c-2.1-0.2-4.3-0.4-6.4-0.4c-5.3-0.1-10.7,0-16,0c-1.3,0-2.5,0.1-3.8,0.2c-0.9,0-1.9,0-2.8,0.1
			c0-0.1,0-0.2,0-0.2c-0.6-0.8-1.3-1.6-1.9-2.4c0-0.2,0-0.3,0-0.5C906.6,464.7,906.9,464.8,907.2,464.8z"/>
		<path class="st17" d="M1014.6,464.7c0.1,1.3-0.4,2.3-1.7,2.7c-0.3,0.1-0.5,0.4-0.7,0.6c0,0,0,0,0,0c-0.1,0-0.2,0-0.3,0
			c-0.1,0-0.1,0-0.2,0c-1.3-0.1-2.5-0.2-3.8-0.2c-1.3-0.1-2.7-0.1-4-0.1c-1,0-2,0.2-2.9,0.3c-0.9,0-1.8,0-2.6,0
			c-1.5-0.1-3.1-0.2-4.6-0.2c-0.9,0-1.7,0.1-2.6,0.2c-0.6,0-1.1,0-1.7,0c-0.8-0.1-1.6-0.1-2.4-0.2c-0.6,0.1-1.3,0.1-1.9,0.2
			c-0.4-0.1-0.8-0.2-1.2-0.2c0-0.2,0-0.5,0-0.7c1.6-0.1,3.2-0.2,4.8-0.3c0.2,0,0.5,0,0.7,0c6.8,0,13.6,0,20.4,0c0.4,0,0.8,0,1.2,0
			c1.4,0,1.1-1.1,1.3-2C1013.1,464.8,1013.8,464.8,1014.6,464.7z"/>
		<path class="st13" d="M1034.5,494.9c-0.4-0.2-0.8-0.3-1-0.6c-0.9-1.4-1.7-2.9-2.6-4.4c0-1.7,0-3.4,0-5c0.8-1.2,2-1.5,3.4-1.7
			c0.1,0.5,0.2,1.1,0.2,1.6C1034.5,488.1,1034.5,491.5,1034.5,494.9z"/>
		<path class="st5" d="M906.3,464.7c0,0.2,0,0.3,0,0.5c-2.4,3-5.4,5.2-8.5,7.4c-3.5,2.6-6.8,5.3-10.2,8c-0.2,0.2-0.5,0.3-0.7,0.4
			c0-1.2,0.9-1.8,1.6-2.5c5-4.9,11-8.5,16.3-13.2C905.2,465,905.8,464.9,906.3,464.7z"/>
		<path class="st10" d="M906.3,540.6c-0.9-0.1-1.4,0.3-1.8,1.1c-0.5,0.9-1.2,1.8-2,2.5c-2.4,2.2-4.9,4.3-7.3,6.4
			c-2.5,2.2-5,4.3-7.5,6.5c-0.1,0.1-0.4,0.2-0.5,0.2c0.3-0.7,0.5-1.6,1-2.1c2.5-2.4,5.1-4.6,7.7-7c2.7-2.5,5.4-5,8.2-7.5
			c0.4-0.3,0.9-0.5,1.3-0.8c0.3-0.2,0.7-0.5,1-0.7c0.2-0.1,0.5-0.2,0.7-0.2c0,0,0,0.1,0,0.1C906.8,539.7,906.6,540.2,906.3,540.6z"
			/>
		<path class="st4" d="M1034.5,570.1c-0.3,0.1-0.7,0.1-1.1,0.2c-0.5-3.1-1.1-6.1-1.6-9.1c-0.1-0.5-0.4-0.9-0.7-1.4
			c-0.1-0.5-0.2-1-0.2-1.4c1.1-0.7,2.2-1.5,3.6-1.2C1034.5,561.5,1034.5,565.8,1034.5,570.1z"/>
		<path class="st9" d="M982.8,614.5c-0.2-0.5-0.4-1.1-0.7-1.7c2.7-0.2,5.3-0.6,7.8-0.7c6.8-0.2,13.5-0.2,20.3-0.3
			c1.1,0,2.2-0.1,2.8-1.2c0.2,0,0.3,0,0.5,0c0.3,0,0.6,0,1,0c1.3,0.1,1.7,0.7,1.3,2c-0.2,0.5-0.5,1.1-0.8,1.6c-0.7-1.9-2.2-2.1-4-2
			c-2.6,0.2-5.2,0-7.8,0.1c-5.7,0.1-11.4,0.3-17.1,0.5c-1.6,0-2.4,0.7-2.7,1.8C983.1,614.6,982.9,614.5,982.8,614.5z"/>
		<path class="st14" d="M989.5,466.8c-0.2,0-0.5,0-0.7,0c-1.3-0.2-2.6-0.4-3.9-0.5c-1-0.1-1.8-0.4-1.8-1.6c5.4,0,10.8,0,16.3,0
			c-0.3,0.2-0.5,0.5-0.8,0.6c-0.4,0.1-0.9,0.1-1.4,0.1c-2.2,0.3-4.5,0.6-6.7,0.9C990,466.4,989.8,466.7,989.5,466.8z"/>
		<path class="st18" d="M989.5,466.8c0.3-0.2,0.6-0.4,0.9-0.4c2.2-0.3,4.5-0.6,6.7-0.9c0.5-0.1,1,0,1.4-0.1c0.3-0.1,0.6-0.4,0.8-0.6
			c1.4,0,2.7,0,4.1,0c0.2,0.2,0.4,0.5,0.7,0.6c1.5,0.3,3.1,0.5,4.6,0.8c0.4,0.1,0.8,0.4,1.2,0.7
			C1003.1,466.8,996.3,466.8,989.5,466.8z"/>
		<path class="st14" d="M1009.8,466.8c-0.4-0.2-0.7-0.6-1.2-0.7c-1.5-0.3-3.1-0.5-4.6-0.8c-0.3-0.1-0.5-0.4-0.7-0.6
			c2.9,0,5.8,0,8.7,0.1c-0.3,0.7-0.7,1.3-1,2C1010.6,466.8,1010.2,466.8,1009.8,466.8z"/>
		<path class="st19" d="M1034.3,483.1c-1.3,0.2-2.6,0.5-3.4,1.7c-0.9-0.7-1.8-1.4-2.6-2.2c0.5,0.1,1.2,0,1.6,0.2
			c2.3,1.3,3.2-0.4,3.6-2.3c0.1-0.3,0-0.7,0-1.1c0.3,0.5,0.8,1,0.9,1.6C1034.6,481.8,1034.4,482.5,1034.3,483.1z"/>
		<path class="st18" d="M983,464.8c0.1,1.1,0.8,1.5,1.8,1.6c1.3,0.1,2.6,0.3,3.9,0.5c-1.6,0.1-3.2,0.2-4.8,0.3
			c-0.5-0.8-1.1-1.6-1.6-2.3C982.6,464.8,982.8,464.8,983,464.8z"/>
		<path class="st16" d="M1034.5,557.2c-1.4-0.3-2.5,0.5-3.6,1.2c0.1-0.3,0.2-0.6,0.2-1c0.1-0.1,0.2-0.2,0.2-0.2
			c0.2-0.2,0.5-0.3,0.7-0.5c0.7-0.2,1.4-0.3,2.2-0.5C1034.4,556.5,1034.4,556.9,1034.5,557.2z"/>
		<path class="st5" d="M886.9,517.1c0.5-0.1,0.9-0.1,1.4-0.2c-0.3,1-0.6,1.9-1,2.9C887.2,518.9,887.1,518,886.9,517.1z"/>
		<path class="st18" d="M1011,466.8c0.3-0.7,0.7-1.3,1-2c0.1,0,0.2,0,0.2,0C1012.2,465.7,1012.4,466.8,1011,466.8z"/>
		<path class="st4" d="M907,614.4c0-0.1,0-0.2,0-0.2c0.1,0.1,0.2,0.2,0.2,0.2C907.2,614.4,907.1,614.4,907,614.4z"/>
		<path class="st19" d="M908.2,610.6c0-0.2,0-0.3,0-0.5c-0.3-0.7-0.5-1.5-1-2.1c-1.9-2.1-4-4.1-5.9-6.2c-0.7-0.7-1.2-1.5-1.9-2.3
			c0.3-0.2,0.4-0.3,0.5-0.3c4.9-0.6,7.6-3.9,9.4-8.2c1.3-3.2,2.7-6.3,4.1-9.4c0.2-0.4,0.8-0.9,1.1-0.8c1.9,0.2,2.1,0.3,3-1.3
			c1.5-2.7,3.7-4.8,5.9-6.8c1.1-1,2.1-2.2,2.8-3.5c0.7-1.4,1.5-2.3,2.9-2.7c1.5-0.4,3.2-0.6,4.7-1.1c1.1-0.3,2.2-0.3,3.1,0.3
			c1.5,1,3.2,1.4,5,1.2c5.4-0.5,8.5-2.2,10.2-7.4c0.4-1.2,0.3-2.1-0.7-3c-0.3-0.3-0.5-0.9-0.7-1.3c0.2,0.1,0.3,0.2,0.5,0.2
			c0.3,0.4,0.6,0.8,1,1.1c2,1.7,4.1,3.4,6.2,5.1c-0.3,1.7-0.8,3.3-0.9,5c-0.1,3.5-0.1,6.9,0,10.4c0.1,3.5,0.2,7.1,0.5,10.6
			c0.3,3.7-1.3,6.4-4.2,8.5c-1.8,1.3-3.4,2.8-5,4.3c-3.5,3.2-7,6.5-10.5,9.8c-0.2,0.2-0.5,0.5-0.8,0.5c-1.5,0-3-0.1-4.5-0.1
			c0.1-0.1,0.3-0.2,0.4-0.2c2.9-0.3,5.3-1.7,7.4-3.5c4-3.5,8-7.2,11.9-10.9c1.5-1.4,2.7-3.1,3.4-5.1c1.3-3.6,1-7.3,0.4-11
			c-0.7-3.9-4.7-6.1-8.3-4.8c-2.5,0.9-3.8,2.8-4.6,5.1c-0.7,1.8-1.1,3.8-2.1,5.3c-3,4.6-7,8.3-12,10.7c-3.3,1.6-7,2.4-10.5,3.6
			c-1.8,0.6-3.7,1.3-5.4,2.1c-1.7,0.9-2.7,2.4-2.9,4.3c-0.2,1.6-0.3,3.3,1.4,4.3c-0.4,0.2-0.8,0.3-1.2,0.5c-0.2,0-0.3,0-0.5,0
			c-0.3,0-0.6,0-1,0c-0.2-0.1-0.3-0.2-0.5-0.2c-0.2,0-0.3,0-0.5,0C908.4,610.8,908.3,610.7,908.2,610.6z"/>
		<path class="st15" d="M912.1,610.6c-1.6-1.1-1.6-2.7-1.4-4.3c0.3-1.9,1.3-3.4,2.9-4.3c1.7-0.9,3.6-1.5,5.4-2.1
			c3.5-1.2,7.2-2,10.5-3.6c4.9-2.4,9-6.1,12-10.7c1-1.6,1.4-3.5,2.1-5.3c0.9-2.3,2.2-4.3,4.6-5.1c3.6-1.3,7.6,0.9,8.3,4.8
			c0.6,3.6,0.9,7.4-0.4,11c-0.7,2-1.9,3.7-3.4,5.1c-3.9,3.7-7.8,7.4-11.9,10.9c-2.1,1.9-4.5,3.3-7.4,3.5c-0.1,0-0.3,0.1-0.4,0.2
			C926,610.6,919,610.6,912.1,610.6z"/>
		<path class="st3" d="M990.4,610.8c-1.8,0.1-3.7,0.2-5.5,0.2c-2.5-0.4-3.9-2.4-5.7-3.9c-2.6-2.3-5-4.7-7.5-7.2
			c-1.5-1.5-2.8-3.1-4.2-4.7c-1.2-1.3-2.5-2.3-4.2-2.9c0.1-0.2,0.2-0.3,0.2-0.5c0-0.2,0-0.3,0-0.5c0.2-0.2,0.4-0.5,0.4-0.8
			c0.1-1.5,0.3-3.1,0.2-4.6c0-2.5-0.2-4.9-0.2-7.4c-0.1-3.5-0.2-7-0.3-10.5c0-0.4-0.2-0.8-0.2-1.2c0-0.5,0-1,0-1.4
			c0-0.2,0-0.5,0-0.7c0-1.1,0-2.2,0-3.3c0.2-0.3,0.5-0.6,0.7-1c0.6-0.6,1.3-1.3,1.9-1.9c0.2-0.1,0.5-0.2,0.7-0.4
			c1.6-1.6,3.1-3.3,4.7-4.9c1.5-1.5,2.9-3,4.4-4.5c0.2-0.2,0.3-0.3,0.5-0.5c0.2-0.2,0.3-0.3,0.5-0.5c0.6-0.5,1.2-1,1.7-1.5
			c0.7-0.7,1.2-1.4,1.9-2.1c0.3-0.3,0.6-0.6,1-1l0,0c1.1,0.1,2.1,0.2,3.2,0.2c2.1-0.1,4.3-0.3,6.4-0.4c0.9,0,1.8,0,2.6,0
			c0.4,0,0.8,0,1.2,0c1.4-0.1,2.9-0.2,4.3-0.2c0.2,0,0.3,0,0.5,0c2,0.7,4,0.6,6,0.2c0.4,0,0.8,0,1.2,0c0.5,0.2,0.9,0.4,1.4,0.4
			c0.8,0.1,1.6,0,2.4,0c1.7-0.7,2.9,0.4,4.1,1.4c1.8,1.5,3.7,3.1,5.6,4.6c0.3,0.2,0.4,0.6,0.6,1c0.1,0.2,0,0.5,0.2,0.7
			c1.3,1.6,1.4,3.4,1,5.3c-0.6,3.2-2.3,5.7-5.3,6.9c-3.9,1.4-8,1.6-12.1,1c-0.7-0.1-1.4-0.1-2.1,0.1c-4.3,1.3-7.3,4.4-10.4,7.3
			c-0.1,0.1-0.2,0.3-0.3,0.4c-0.8,1.7-1.7,3.4-2.5,5.2c-1.1,2.4-2.2,4.8-3.4,7.1c-0.2,0.4-0.8,0.7-1.2,1c-1.1,0.7-2.3,1.5-3.5,2.2
			c-0.7,0-1.4,0.1-2-0.1c-4.9-0.8-8.3,1.3-10.8,5.1c-0.5,0.7-0.6,1.5,0,2.1c1.2,1.3,2.4,2.6,3.7,3.9c0.2,0.2,0.3,0.3,0.5,0.5
			c0.3,0.4,0.5,0.9,0.9,1.2c3,2.9,6.1,5.8,9.1,8.7c0.9,0.9,1.9,1.3,3.1,1.3c1.1,0,2.2,0,3.3,0C989.7,610.4,990.1,610.7,990.4,610.8z
			 M964.6,571c0.3,2.2,0.5,4.3,0.9,6.5c0.2,1.2,0.5,2.4,1.1,3.5c0.4,0.9,0.5,2.4,2,2.2c1.2-0.2,2.2,0.2,3.3,0.4c3,0.4,6,0,8.8-1.3
			c0.3-0.1,0.5-0.4,0.6-0.7c0.4-1.1,0.9-2.2,1.2-3.4c0.9-3,1.7-6,4.2-8.3c1.1-1.1,2.2-2.2,3.2-3.4c2.1-2.7,5.2-3.9,8.2-5.1
			c3.9-1.5,7.9-1.5,12-0.7c2.1,0.4,4-0.1,5.8-1.3c1.9-1.3,2.7-3.6,2.2-5.9c-0.4-1.7-1.3-3-2.6-4c-1.3-0.9-2.6-1.8-4.1-2.5
			c-1.9-0.9-3.8-1.9-5.8-2.4c-3.8-1.1-7.7-0.9-11.6-0.5c-4.9,0.5-9.5,2-13.8,4.7c-4.5,2.8-8.7,5.7-11.5,10.4
			C966.4,562.8,964.6,566.5,964.6,571z"/>
		<path class="st10" d="M963.6,565.6c0,0.5,0,1,0,1.4c-0.2,0.2-0.4,0.4-0.4,0.6c0,2,0,4,0.1,5.9c0.2,3.3,0.5,6.6,0.6,9.9
			c0.1,2.7-0.1,5.3-0.2,8c0,0.2,0,0.3,0,0.5c-1.9,0.3-1.9,0.3-1.9-1.7c0-0.4,0.1-0.8,0-1.2c-0.3-0.8-0.8-1.5-1.2-2.2
			c0-0.2,0-0.3,0-0.5c0.2-0.4,0.4-0.7,0.4-1.1c0.1-1.1,0-2.2,0-3.3c0.1-2.1,0-4.2,0.3-6.3c0.4-3.1,0.9-6.1-0.6-9.1
			c-0.1-0.3-0.2-0.6-0.2-0.9c0.3-2.1,0-3.9-1.9-5.1c0.1-0.1,0.2-0.2,0.2-0.2c1.1,0.4,2.3,0.8,3.4,1.1c0.2,0.1,0.6-0.2,0.8-0.4
			c1.8-2.2,3.6-4.6,5.5-6.8c1.6-1.9,3.3-3.7,5.1-5.5c1.6-1.6,3.4-2.9,5.1-4.4c0.3-0.3,0.6-0.9,0.6-1.3c0-0.9-0.1-1.7-0.2-2.6
			c0.7-0.5,1.4-1,2.2-1.4c0.3-0.1,0.6-0.2,1-0.2c-0.1,0.5-0.1,0.9-0.3,1.4c-0.7,1.5-0.6,1.8,1,2c-0.5,0.3-1,0.6-1.4,1
			c-0.4-0.2-0.7-0.5-1.3-0.8c0,1.8-1,2.6-2,3.5c-0.9,0.9-1.8,1.9-2.7,2.8c-0.3,0.2-0.7,0.4-1,0.7c-1.8,1.7-3.6,3.4-5.2,5.2
			c-1.2,1.3-2.8,2.3-3.2,4.2c-0.6,0.6-1.3,1.3-1.9,1.9c-0.2,0.3-0.5,0.6-0.7,1c0,1.1,0,2.2,0,3.3
			C963.6,565.1,963.6,565.3,963.6,565.6z"/>
		<path class="st12" d="M958.6,560.5c2,1.2,2.3,3.1,1.9,5.1c0,0.3,0,0.7,0.2,0.9c1.6,2.9,1.1,6,0.6,9.1c-0.3,2.1-0.2,4.2-0.3,6.3
			c0,1.1,0,2.2,0,3.3c0,0.4-0.3,0.7-0.4,1.1c0-0.3,0-0.6,0-1c-0.1-4.9-0.1-9.7-0.3-14.6c-0.1-2.7-0.5-5.3-0.7-8
			c-0.1-0.8-0.4-1.2-1.2-1.2c-2.1-1.7-4.1-3.4-6.2-5.1c-0.4-0.3-0.7-0.7-1-1.1c-0.3-0.6-0.6-1.2-1-1.7c-2.4-3.8-5.6-6.6-9.8-8.4
			c-0.8-0.3-1.8-0.5-2-1.6c0-0.2-0.5-0.2-0.8-0.3c0-0.1,0-0.2,0-0.2c0.9-1,0.8-2,0.2-3.1c0.6,0.1,1.3,0.2,1.9,0.2
			c1.4,0.9,2.8,1.8,4.1,2.8c2.6,2.1,5.1,4.4,7.7,6.5c2.9,2.3,5.8,4.5,8.8,6.7c-0.8,0.4-1.4,0.3-2.1-0.3c-1.5-1.3-3-2.6-4.6-3.8
			c-0.9-0.6-1.9-0.9-3.2-1.5c0.1,0.6,0.1,1,0.3,1.3c1.4,3,3.9,5.2,6.3,7.4C957.4,560,958,560.2,958.6,560.5z"/>
		<path class="st8" d="M939.9,613.5c0.1-0.9-0.2-1.5-1.1-1.9c-0.2-0.1-0.4-0.3-0.6-0.5c1.5-1.4,3-2.7,4.5-4.1
			c2.6-2.3,5.2-4.5,7.7-6.8c2.5-2.4,4.9-4.9,7.4-7.3c0.5-0.4,1.2-0.7,1.9-0.7c1.1,0,1.6,0.9,1.1,1.9c-0.4,0.8-1,1.5-1.6,2.2
			c-1.6,1.9-3.1,3.8-4.9,5.6c-1.6,1.6-3.4,2.8-5.1,4.3c-2.8,2.3-5.5,4.6-8.3,6.8C940.5,613.2,940.2,613.3,939.9,613.5z"/>
		<path class="st20" d="M927.9,612.1c-1.4,0.2-2.7,0.7-4.1,0.7c-3.2,0-6.4-0.1-9.6-0.2c-0.4-0.2-0.8-0.5-1.1-0.7
			c-0.6-0.3-1.2-0.5-1.7-0.8c3.9,0.3,7.8,0.7,11.7,0.9c1.2,0.1,2.4-0.2,3.6-0.2C927.1,611.8,927.5,612,927.9,612.1z"/>
		<path class="st12" d="M960.5,586.9c0.4,0.7,0.8,1.4,1.2,2.2c0.1,0.3,0,0.8,0,1.2c0,2,0,2,1.9,1.7c-0.1,0.2-0.2,0.3-0.2,0.5
			c-0.3,0.1-0.6,0.1-0.9,0.2c-1.1,0.2-1.6-0.2-1.7-1.3C960.6,589.8,960.6,588.4,960.5,586.9z"/>
		<path class="st20" d="M934.8,612.3c-1.5,0-3.1,0-4.6,0c-0.3,0-0.6-0.1-0.9-0.2c0.8-0.2,1.6-0.6,2.5-0.7c1.5-0.1,3,0,4.5,0
			C935.8,611.6,935.3,612,934.8,612.3z"/>
		<path class="st8" d="M911.4,611.1c0.6,0.3,1.2,0.5,1.7,0.8c0.4,0.2,0.8,0.4,1.1,0.7c-1-0.2-2-0.4-3-0.7c-0.3-0.1-0.6-0.5-0.9-0.8
			c0.2,0,0.3,0,0.5,0C911,611.1,911.2,611.1,911.4,611.1z"/>
		<path class="st8" d="M934.8,612.3c0.5-0.3,1-0.6,1.4-1c0.4,0,0.8,0,1.2,0C936.9,612.6,935.8,612.2,934.8,612.3z"/>
		<path class="st8" d="M939.2,614.4c0.2-0.2,0.3-0.3,0.5-0.5C939.5,614.1,939.3,614.3,939.2,614.4z"/>
		<path class="st16" d="M976.3,529.1c0.9,1.2,1.7,2.4,2.7,3.5c0.9,0.9,2,1.5,3,2.3c-0.5,0-1,0.2-1.3,0c-1.1-0.7-2.3-1.3-3.1-2.3
			c-2.2-2.6-4.3-5.3-6.2-8.2c-2.1-3.1-4.8-5.2-7.8-7.3c0.7-0.3,1.3-0.5,2-0.8c-1.1-2.7-1.1-5.6-1.1-8.4c0-2.6,0.1-5.2,0.2-7.8
			c0-0.6,0-1.3,0.1-1.9c0.5-3.6,1.7-6.9,3.6-10.1c3.9-6.7,8.8-12.2,16.2-15.3c5.7-2.3,11.5-4.1,17.8-4c4.5,0.1,8.3,1.8,11.9,4.1
			c2.1,1.4,3.6,3.4,4.8,5.7c1.1,2.2,1.5,4.5,0.8,6.8c-0.5,1.6-1.3,2.9-2.9,3.7c-2.4,1.2-4.9,0.9-7.4,0.4c-3.5-0.7-7-0.8-10.4,0.9
			c-1,0.5-1.9,1.4-2.9,1.9c-1.6,0.8-3.3,1.4-4.8,2.4c-1.5,0.9-2.8,2.1-4.2,3.2c-4.8,4-7.4,9.4-9.3,15.2c-0.9,3-2.7,5.4-4.8,7.5
			c-1.1,1.1-1.3,1.6-0.5,3c0.9,1.6,1.8,3.2,2.7,4.8C975.6,528.8,976,528.9,976.3,529.1z"/>
		<path class="st15" d="M1029.7,492c1.3,3.1,1.8,6.4,1.7,9.8c-0.2,4-0.6,8-1.6,11.9c-0.4,1.5-1,3-2.3,4.2c-4.7,4-9.2,8.1-13.8,12.1
			c-0.7,0.7-1.6,1.3-2.2,2c-1.4,1.5-3.2,1.9-5.1,1.9c-7.1,0.1-14.2,0.1-21.3,0.3c-1,0-1.9-0.3-2.6-1c-1.9-1.9-3.7-3.9-5.5-5.8
			c0.1-3.8,3.2-6.9,7.2-7c4.3-0.1,8.6,0,12.9-0.3c4.9-0.3,9.5-1.8,13.4-4.9c4.3-3.4,7.7-7.5,9-13c0.4-1.7,0.7-3.3,1.2-5
			C1021.9,493.2,1025.2,490.2,1029.7,492z"/>
		<path class="st21" d="M1029.7,492c-4.5-1.8-7.9,1.2-9,5.4c-0.5,1.6-0.8,3.3-1.2,5c-1.3,5.5-4.7,9.6-9,13
			c-3.9,3.1-8.5,4.5-13.4,4.9c-4.3,0.3-8.6,0.2-12.9,0.3c-4,0.1-7.2,3.1-7.2,7c-0.3,0-0.6,0-1,0c-0.4-0.6-0.9-1.2-1.1-1.8
			c-0.2-0.6-0.2-1.4,0.1-1.8c1.3-1.8,2.9-3.5,4.3-5.3c0.7-0.9,1.3-1.9,1.9-2.9c0.5-0.7,0.9-1.5,1.2-2.3c0.3-0.7,0.5-1.4,0.8-2.1
			c1.8-4,4.4-7.5,7.8-10.3c1.5-1.2,2.7-2.9,5-2.6c0.3,0,0.6-0.4,0.8-0.6c0.3-0.3,0.7-0.7,1-0.8c1.3-0.3,2.5-0.6,3-2.1
			c0.1-0.2,0.5-0.3,0.7-0.4c2.7-1,5.6-1,8.5-0.9c2.6,0.1,5.3,1,7.7-1.5c1.5-1.6,3.6-2.6,4.7-4.7c0.4-0.7,1.1-1.2,1.4-1.9
			c0.6-1.9,0.4-3.8-0.7-5.6c-0.3-0.4-0.4-1-0.6-1.5c0.2,0.1,0.5,0.2,0.7,0.2c0.1,0,0.2,0,0.2,0c0.5,0.4,1,0.8,1.4,1.2
			c0.9,0.7,1.8,1.4,2.6,2.2c0.2,0.2,0.3,0.3,0.5,0.5c0.1,0,0.2,0,0.2,0c0.9,0.7,1.8,1.4,2.6,2.2c0,1.7,0,3.4,0,5
			C1030.5,490.6,1030.1,491.3,1029.7,492z"/>
		<path class="st22" d="M1022.5,478.6c0.2,0.5,0.3,1.1,0.6,1.5c1.2,1.8,1.4,3.7,0.7,5.6c-0.2,0.7-1,1.2-1.4,1.9
			c-1.1,2.1-3.2,3.1-4.7,4.7c-2.3,2.5-5,1.6-7.7,1.5c-2.9-0.1-5.7-0.2-8.5,0.9c-0.3,0.1-0.6,0.2-0.7,0.4c-0.5,1.4-1.7,1.8-3,2.1
			c-0.4,0.1-0.7,0.5-1,0.8c-0.3,0.2-0.6,0.6-0.8,0.6c-2.3-0.3-3.5,1.4-5,2.6c-3.4,2.8-6,6.3-7.8,10.3c-0.3,0.7-0.5,1.4-0.8,2.1
			c-0.4,0.8-0.8,1.5-1.2,2.3c-0.6,1-1.2,2-1.9,2.9c-1.4,1.8-2.9,3.5-4.3,5.3c-0.3,0.4-0.3,1.3-0.1,1.8c0.2,0.7,0.7,1.2,1.1,1.8
			c0.1,0.6,0.2,1.1,0.2,1.7c-0.3-0.2-0.7-0.3-0.8-0.6c-0.9-1.6-1.8-3.2-2.7-4.8c-0.8-1.4-0.6-1.9,0.5-3c2.2-2.1,3.9-4.6,4.8-7.5
			c1.9-5.8,4.4-11.2,9.3-15.2c1.3-1.1,2.7-2.3,4.2-3.2c1.5-0.9,3.2-1.5,4.8-2.4c1-0.5,1.9-1.4,2.9-1.9c3.3-1.7,6.8-1.6,10.4-0.9
			c2.5,0.5,4.9,0.8,7.4-0.4c1.6-0.8,2.4-2.2,2.9-3.7c0.8-2.4,0.3-4.6-0.8-6.8c-1.1-2.3-2.7-4.3-4.8-5.7c-3.6-2.4-7.3-4-11.9-4.1
			c-6.3-0.1-12.1,1.7-17.8,4c-7.4,3-12.3,8.6-16.2,15.3c-1.8,3.1-3.1,6.4-3.6,10.1c-0.1,0.6-0.1,1.3-0.1,1.9c-0.2,0-0.5,0-0.7,0
			c0.2-3.9,0.3-7.8,0.5-11.8c0-0.3,0.1-0.7,0.2-0.9c1.3-1.7,2.6-3.5,4.1-5.1c1-1.1,2.3-2,3.5-3c2-1.7,4-3.3,5.9-5
			c0.6-0.5,1.1-1,1.6-1.5c0,0,0,0,0,0c0.4-0.2,0.8-0.3,1.1-0.5c1.3-0.9,2.7-1.7,4-2.7c0.7-0.5,1.4-1.2,2.1-1.8
			c0.8,0.1,1.6,0.1,2.4,0.2c0.6,0.8,1.1,0.8,1.7,0c0.9-0.1,1.7-0.2,2.6-0.2c1.5,0,3.1,0.1,4.6,0.2c0.9,0,1.8,0,2.6,0
			c1-0.1,2-0.3,2.9-0.3c1.3,0,2.7,0.1,4,0.1c1.3,0.1,2.5,0.1,3.8,0.2c0.1,0,0.1,0,0.2,0c0.1,0,0.2,0,0.3,0c0.1,0.3,0.2,0.6,0.2,1
			c0.8,0.8,1.5,1.5,2.4,2.2c1.2,1,2.4,2,3.6,3c0.1,0.1,0.2,0.2,0.2,0.2c0,0.1,0.1,0.1,0.1,0.2C1020.1,476,1021.3,477.3,1022.5,478.6
			z"/>
		<path class="st4" d="M963.6,517.2c3,2,5.7,4.2,7.8,7.3c1.9,2.8,4,5.5,6.2,8.2c0.8,1,2,1.6,3.1,2.3c0.3,0.2,0.9,0,1.3,0
			c0.2,0,0.3,0,0.5,0c0.2,0.9,0.3,1.8,0.5,2.6c0.1,0.2,0.2,0.3,0.3,0.5c0,0.1,0,0.2,0,0.2c-0.3,0.2-0.6,0.3-1,0.5
			c-0.3,0.1-0.6,0.2-1,0.2c-0.2,0-0.3,0-0.5,0c-0.5,0-1,0-1.4-0.1c-1.9-0.8-3.8-1.7-5.1-3.4c-0.5-0.7-1.1-1.3-1.7-1.9
			c-3.3-3.1-6.6-6.2-10-9.3c-0.8-0.8-1.6-1.7-2.5-2.4c-0.3-0.2-1.2-0.2-1.5,0.1c-1.8,1.7-3.5,3.6-5.3,5.3c-1.9,1.8-3.2,4.2-5.6,5.5
			c-0.8,0.4-1.4,1.2-1.9,1.9c-1.7,2.3-4.1,3.8-6.3,5.6c-0.6-0.1-1.3-0.2-1.9-0.2c-0.1-0.1-0.2-0.2-0.2-0.3c0.1-0.2,0.1-0.4,0.3-0.5
			c2.8-2.7,5.7-5.4,8.5-8.1c4.1-4,8.2-8,12.3-11.9c0.6-0.6,1.3-1.1,1.9-1.7C961.5,517.5,962.6,517.3,963.6,517.2z"/>
		<path class="st20" d="M1010.8,533.7c2.9-2.6,5.8-5.2,8.8-7.7c2.4-2.1,4.8-4.1,7.2-6.1c1-0.8,1.9-1.7,2.9-2.5
			c0.5-0.4,1-0.6,1.5-0.9c0,0,0,0,0,0c-0.1,0.2-0.2,0.5-0.4,0.7c-3.1,3.2-6,6.5-9.2,9.5c-2.2,2.1-4.6,3.9-7.1,5.6
			c-1.3,0.9-2.7,1.6-4.1,2.4C1010.5,534.3,1010.6,534,1010.8,533.7z"/>
		<path class="st20" d="M983,537.5c-0.2-0.9-0.3-1.8-0.5-2.6c0.8,0.1,1.6,0.2,2.4,0.2c2.3,0,4.6,0,6.9,0c0.4,0,0.8-0.3,1.2-0.5
			c4.8,0,9.6,0,14.4,0c0.7,0.1,1.4,0.2,2.2,0.2c-0.4,0.2-0.7,0.6-1.1,0.6c-1.2,0.1-2.4,0.1-3.5,0.1c-4.9,0.1-9.7,0.2-14.6,0.2
			c-1.9,0-3.8,0-5.7,0C983.3,535.9,983.1,536.1,983,537.5z"/>
		<path class="st2" d="M993.1,534.7c-0.4,0.2-0.8,0.4-1.2,0.5c-2.3,0-4.6,0-6.9,0c0.5-0.2,0.9-0.4,1.4-0.5
			C988.6,534.6,990.8,534.7,993.1,534.7z"/>
		<path class="st22" d="M1009.6,534.9c-0.7-0.1-1.4-0.2-2.2-0.2c1.1-0.3,2.2-0.6,3.4-1c-0.2,0.3-0.3,0.6-0.5,1
			C1010.1,534.7,1009.8,534.8,1009.6,534.9z"/>
		<path class="st21" d="M902.5,529.9c0-0.1,0-0.2,0-0.2c-0.2-0.2-0.3-0.5-0.5-0.7l0,0c-0.2-0.4-0.3-0.8-0.5-1.2
			c-0.4-0.9-0.2-1.4,0.7-1.8c1-0.4,2-0.9,2.9-1.6c2.2-1.7,4.8-2.8,6.4-5.3c0.1-0.2,0.4-0.4,0.7-0.5c0.9-0.2,1.3-0.9,1.5-1.7
			c0.2-0.9,0.3-1.8,0.4-2.7c0.1-2.3,0-4.6,0.3-6.8c0.2-1.5,0.8-3.1,1.6-4.4c1.4-2,3.1-3.8,5.4-4.9c4-2,7.9-3,12.2-1.4
			c1,0.4,2,0.5,3,0.7c0.4,0.1,1,0.1,1.1-0.1c0.9-1.3,2.6-1.3,3.7-2.3c0.4-0.3,0.9-0.5,1.3-0.7c-0.3,0.7-0.6,1.5-0.7,2.2
			c-0.4,1.8-1.1,3.6-0.5,5.4c0,0.2,0,0.5,0,0.7c-0.2,0.2-0.4,0.4-0.5,0.6c-0.7,1.6-1.3,3.3-2.1,4.9c-0.4,0.8-1,1.6-1.5,2.4
			c0,0.1,0,0.2,0,0.2c-0.2,0.3-0.5,0.6-0.7,1c-0.2,0.2-0.5,0.5-0.7,0.7c-0.6,0.6-1.3,1.3-1.9,1.9c-0.2,0.2-0.3,0.3-0.5,0.5
			c-0.3,0.1-0.7,0.2-1,0.4c-2,1.1-4,2.3-6.1,3.2c-4.5,1.9-9.3,2.5-14,3.4c-4.1,0.8-7.4,2.6-8.3,7.1c-0.1,0.7-0.5,1.1-1.2,1
			C902.8,530,902.7,529.9,902.5,529.9z"/>
		<path class="st23" d="M901.1,527.9c-0.5-0.3-1.1-0.5-1.5-1c-3.2-3.1-6.3-6.3-9.5-9.4c-0.2-0.2-0.2-0.4-0.3-0.6
			c1-0.5,1.4-1.2,1.2-2.3c0-0.3,0.2-0.7,0.1-1c0-0.3-0.3-0.6-0.4-1c0.1-0.4,0.2-0.8,0.2-1.2c0.1-0.3,0.2-0.6,0.2-1
			c0.3,0.6,0.5,1.3,0.8,1.9c1.4,2.2,2.6,4.6,4.3,6.6c1.4,1.8,3.5,3,6,2.6c3.1-0.5,4.9-2.3,5.4-5.5c0.5-3.1,0.8-6.2,1.2-9.3
			c0.4-2.9,1.5-5.5,3-8c1.4-2.3,3.5-3.8,5.7-5.2c3.3-2,6.8-3.6,10.8-3.4c2.2,0.1,4.4,0.6,6.6,1.2c3.2,0.9,6.3,0.8,8.9-1.3
			c1.6-1.3,3-2.9,2.6-5.3c-0.7-4.5-2.7-8.2-6.5-11c-2.3-1.7-4.9-2.5-7.6-3.3c-4.5-1.3-9.1-1.5-13.7-0.8c-4.1,0.6-7.9,2-11.4,4.1
			c-3.3,1.9-6.3,4.1-8.3,7.4c-1.8,3-3.3,6.2-4.9,9.3c-1.4,2.9-2.6,5.8-2.5,9.1c0,0.2-0.3,0.4-0.4,0.6c-0.1-0.5-0.2-1-0.2-1.4
			c0-0.6,0-1.3,0-1.9c0.2-0.3,0.4-0.7,0.5-1c0.1-2.5,0.3-5,0.2-7.5c0-3.3,1.3-5.8,3.9-7.8c1.1-0.9,2.2-1.9,3.2-2.9
			c0.3-0.3,0.4-0.8,0.6-1.2c0-0.1,0-0.2,0-0.2c0,0,0.1,0,0.1,0s0.1,0,0.1,0c0.2-0.2,0.5-0.3,0.7-0.5c0.2-0.2,0.3-0.5,0.5-0.7
			c0.4-0.4,0.8-0.8,1.2-1.2c0.3-0.2,0.6-0.3,1-0.5c0.5-0.4,1-0.8,1.4-1.2c0.2-0.2,0.3-0.3,0.5-0.5c0.5-0.2,1-0.3,1.4-0.6
			c1.7-1.2,3.4-2.3,5.7-2.2c0.5,0,1,0,1.5-0.1c0.8-0.2,1.6-0.5,2.4-0.7c0.3,0.1,0.6,0.2,0.9,0.2c2.6,0,5.3-0.1,7.9-0.2
			c0.3,0.6,0.6,0.6,1,0c2.2,0.1,4.3,0.2,6.5,0.2c0.3,0.2,0.6,0.4,0.9,0.5c2.4,0.4,4.7,0.6,6.5,2.7c1.2,1.4,3.2,2.1,4.8,3.3
			c0.7,0.5,1.5,1.2,1.9,2.1c1.1,2.2,2.7,4.1,2.9,6.7c0.1,1.8,0.6,3.4-1.1,5.1c-1.9,1.9-3.9,3.6-6.3,4.8c-2.4,1.2-4.8,2-7.6,0.8
			c-1.7-0.7-3.7-0.9-5.6-0.9c-3.2,0-6.2,1.1-9,2.8c-3.6,2.2-6.4,4.9-7.4,9.1c-0.6,2.7-0.6,5.4-0.9,8.2c-0.2,2.4-0.1,4.9-2.6,6.4
			c-0.1,0-0.1,0.1-0.2,0.2c-2.6,2.5-5.5,4.6-9.2,5c-0.1,0-0.1,0.1-0.3,0.3c0.3,0.4,0.7,0.9,1,1.3C900.4,527,900.7,527.5,901.1,527.9
			z"/>
		<path class="st0" d="M901.1,527.9c-0.3-0.4-0.6-0.9-0.9-1.3c-0.3-0.5-0.7-0.9-1-1.3c0.2-0.2,0.2-0.3,0.3-0.3
			c3.7-0.4,6.6-2.5,9.2-5c0.1-0.1,0.1-0.1,0.2-0.2c2.5-1.5,2.4-4,2.6-6.4c0.3-2.7,0.3-5.5,0.9-8.2c0.9-4.2,3.8-6.9,7.4-9.1
			c2.8-1.7,5.8-2.8,9-2.8c1.9,0,3.9,0.1,5.6,0.9c2.8,1.2,5.2,0.5,7.6-0.8c2.4-1.2,4.4-2.9,6.3-4.8c1.7-1.7,1.2-3.2,1.1-5.1
			c-0.2-2.6-1.8-4.5-2.9-6.7c-0.4-0.8-1.2-1.5-1.9-2.1c-1.6-1.1-3.6-1.9-4.8-3.3c-1.8-2.2-4.1-2.3-6.5-2.7c-0.3-0.1-0.6-0.3-0.9-0.5
			c0.4,0,0.9,0,1.3,0c1.2-0.1,2.5-0.2,3.7-0.3c0.2,0,0.3,0,0.5,0c0.2,0,0.3,0,0.5,0c0.1,0.2,0.2,0.3,0.2,0.5c0.3,0.6,0.5,1.4,1,1.8
			c2.3,1.7,4.6,3.3,6.9,4.9c0,0.8,0.4,1.2,1.2,1.2c0.1,0.1,0.2,0.2,0.2,0.2c0.8,1.1,1.4,2.4,2.4,3.4c1.9,2,2.2,4.3,2.2,6.8
			c0,0.7-0.3,1.1-1.1,1.3c-0.4,0.1-0.8,0.4-1.1,0.7c-0.5,0.4-1,0.9-1.4,1.4c-0.3,0.3-0.6,0.7-0.9,1c-2.2,0.3-3.7,1.5-5,3.1
			c-0.4,0.2-1,0.4-1.3,0.7c-1.1,0.9-2.8,0.9-3.7,2.3c-0.1,0.2-0.8,0.1-1.1,0.1c-1-0.2-2-0.4-3-0.7c-4.3-1.6-8.3-0.6-12.2,1.4
			c-2.3,1.2-4,2.9-5.4,4.9c-0.9,1.3-1.4,2.9-1.6,4.4c-0.3,2.2-0.2,4.5-0.3,6.8c0,0.9-0.2,1.8-0.4,2.7c-0.2,0.8-0.6,1.5-1.5,1.7
			c-0.3,0.1-0.5,0.2-0.7,0.5c-1.6,2.5-4.2,3.6-6.4,5.3c-0.8,0.7-1.9,1.1-2.9,1.6c-0.9,0.4-1.1,0.9-0.7,1.8c0.2,0.4,0.3,0.8,0.5,1.2
			c-0.2-0.1-0.5-0.2-0.7-0.2C901.2,528.4,901.1,528.2,901.1,527.9z"/>
		<path class="st5" d="M891,511.4c-0.1,0.4-0.2,0.8-0.2,1.2c-0.3,1.5-0.3,3.1-1.4,4.3c-0.3,0-0.6,0-0.9,0c1.6-2.9,0.7-5.9,0.6-8.9
			c0-1.1-0.1-2.1-0.1-3.2c0-1.7,0.1-3.5,0.1-5.2c0-2.5-0.1-5.1,0-7.6c0.1-2.1,0.3-4.1,0.5-6.2c0.1-0.6,0.5-1.2,0.8-1.8
			c0.2-0.4,0.4-0.8,0.5-1.1c0.2-0.2,0.3-0.5,0.5-0.7c0.3-0.2,0.6-0.5,1-0.7c1-0.9,1.9-1.8,2.9-2.6c0.4-0.3,0.8-0.6,1.2-1
			c0,0,0,0,0,0c0.3-0.2,0.6-0.4,1-0.6c0.6-0.4,1.3-0.7,1.9-1.1c0,0.1,0,0.2,0,0.2c-2.2,1.9-4.5,3.7-6.7,5.7
			c-0.6,0.6-1.2,1.4-1.3,2.2c-0.3,2.5-0.5,5-0.6,7.5c-0.1,1.7,0.1,3.3,0.2,5c0,0.6,0,1.3,0,1.9c-0.1,0.4-0.2,0.8-0.2,1.3
			c0,2.1,0,4.2,0,6.3c0,0.4,0.1,0.8,0.2,1.3c0,0.2,0,0.5,0,0.7C890.8,509.3,890.3,510.4,891,511.4z"/>
		<path class="st20" d="M907,539.2c0.2-0.8,0.5-1.6,0.7-2.4c0.6-0.2,1.1-0.5,1.7-0.7c0.2,0,0.5,0,0.7,0c0.3,0.1,0.7,0.2,1,0.2
			c4.2,0,8.4,0,12.6,0c0.3,0,0.7-0.2,1-0.2c0.9-0.1,1.8-0.2,2.6-0.2c0.3,0,0.6,0,1,0c0.2,0.1,0.3,0.2,0.5,0.2
			c-0.2,0.2-0.4,0.4-0.6,0.4c-3,0.3-6,0.6-9,0.7c-2.7,0.1-5.5-0.1-8.2-0.2c-1.6,0-2.1,0.5-2.2,2.1c0,0.1,0,0.2,0,0.3
			c-0.2,0-0.3,0-0.5,0C907.9,539.4,907.5,539.3,907,539.2L907,539.2z"/>
		<path class="st3" d="M909.4,536.1c-0.6,0.2-1.1,0.5-1.7,0.7c-2.5-1.7-4.1-4.2-5.3-6.9c0.2,0.1,0.3,0.2,0.5,0.2
			c0.8,0.9,1.6,1.8,2.4,2.6l0,0c0.3,0.3,0.6,0.6,1,1c0.6,0.6,1.3,1.3,1.9,1.9c0.2,0.1,0.3,0.2,0.5,0.2
			C909,535.9,909.2,536,909.4,536.1z"/>
		<path class="st19" d="M889.3,516.9c1.2-1.2,1.2-2.8,1.4-4.3c0.1,0.3,0.4,0.6,0.4,1c0,0.3-0.2,0.7-0.1,1c0.1,1.1-0.3,1.8-1.2,2.3
			C889.6,516.9,889.5,516.9,889.3,516.9z"/>
		<path class="st3" d="M901.3,528.7c0.2,0.1,0.5,0.2,0.7,0.2c0,0,0,0,0,0c0,0.2,0,0.3,0,0.5C901.8,529.1,901.5,528.9,901.3,528.7z"
			/>
		<path class="st0" d="M902,529.4c0-0.2,0-0.3,0-0.5c0.2,0.2,0.3,0.5,0.5,0.7C902.3,529.5,902.2,529.5,902,529.4z"/>
		<path class="st12" d="M946.3,475.2c-2.3-1.6-4.7-3.2-6.9-4.9c-0.5-0.4-0.7-1.2-1-1.8c0.6,0.6,1.1,1.2,1.7,1.7
			c0.3,0.3,0.6,0.7,0.9,0.7c1.7,0.1,2.8,1.4,4,2.2c1.8,1.3,3.3,2.9,5.1,4.2c1.5,1.2,3.2,2.1,4.8,3.2c1.5,1,2.9,2,4.4,3
			c0,0.2,0,0.3,0,0.5c-0.1,0-0.2,0-0.3,0c-0.2-0.1-0.5-0.2-0.7-0.2c-0.8-0.3-1.6-0.6-2.4-1c-0.1-0.2-0.2-0.4-0.4-0.5
			c-2.6-1.6-5.2-3.3-7.3-5.6c-0.1-0.1-0.3-0.1-0.4-0.2c-0.1-0.1-0.2-0.2-0.2-0.2C947.1,476,946.7,475.6,946.3,475.2z"/>
		<path class="st7" d="M980.6,465.4c-1,1-1.8,2.1-2.9,2.9c-2.6,2.1-5.2,4-7.8,6c-0.2,0.2-0.5,0.3-0.8,0.5c0.6-0.7,1.2-1.4,1.9-2
			c2.7-2.2,5.5-4.4,8.2-6.6C979.7,465.8,980.2,465.6,980.6,465.4z"/>
		<path class="st7" d="M968.9,474.7c-0.8,0.7-1.6,1.5-2.4,2.2c-0.9,0.8-1.8,1.7-2.7,2.5c-0.6,0.5-1.4,0.9-2.1,1.3
			c-0.5,0.4-0.9,0.8-1.3,1.2c-0.4,0.4-0.7,0.9-1.1,1.3c0.3-2,1.9-3.1,3.4-4.2c1.8-1.3,3.6-2.7,5.4-4
			C968.3,475,968.6,474.9,968.9,474.7z"/>
		<path class="st24" d="M938.2,468c-0.2,0-0.3,0-0.5,0c0.2-0.1,0.3-0.3,0.5-0.4C938.2,467.7,938.2,467.9,938.2,468z"/>
		<path class="st3" d="M960,494.4c0,0.8,0,1.6,0,2.4c0,0.7,0,1.4,0,2.2c-0.1,1.8-0.3,3.5-0.3,5.3c0,1.7,0.1,3.4,0.2,5.1
			c0,0.6,0.3,1.2,0.4,1.8c0,0.2,0,0.5,0,0.7c-0.2,0.4-0.4,0.7-0.4,1.1c-0.1,0.8,0,1.7,0,2.5c-1.6-0.5-2-0.4-3.1,1
			c-0.1,0-0.2,0-0.2,0c0-0.1-0.1-0.3-0.1-0.3c1-1.9,0.9-4.1,1.1-6.2c0.1-1.7,0.2-3.3,0.2-5c0-0.3-0.3-0.7-0.4-1c0-0.3,0-0.6,0-1
			c0.1-0.4,0.2-0.8,0.2-1.3c0-1.6,0-3.2,0-4.7c-0.2-1.8-0.3-3.6-0.5-5.3c0-0.5,0.1-0.9,0.2-1.4c0.5,2.3,0.9,4.6,1.4,6.9
			c0.1,0,0.3,0,0.4,0c0.1-0.6,0.2-1.1,0.4-1.7C959.4,495.1,959.7,494.8,960,494.4z"/>
		<path class="st10" d="M984,467.8c0.4,0.1,0.8,0.2,1.2,0.2c-1.8,1.6-3.5,3.2-5.3,4.8c0,0,0,0,0,0c-0.4,0.2-0.8,0.3-1.2,0.5
			c-2.8,2.2-5.6,4.4-8.4,6.7c-2.1,1.7-4.2,3.5-6.2,5.3c-0.4,0.4-0.7,1.1-0.7,1.6c0,2.1,0.2,4.1,0.4,6.2c-0.3,0.8-0.8,1.5-0.9,2.4
			c-0.6,5.3-0.7,10.6-0.3,16c0.1,1.1,0.4,2.2,0.7,3.2c0,0.2,0,0.5,0,0.7c-0.3,0.3-0.6,0.6-1,1c-0.2,0-0.5,0-0.7,0c0-0.1,0-0.2,0-0.3
			c0.2-0.6,0.5-1.1,0.5-1.7c0-2-0.2-4-0.2-6c0-5.6,0.1-11.2,0.2-16.8c0-0.2,0-0.5,0-0.7c0.1-0.3,0.2-0.6,0.2-0.9
			c-0.1-2.6,0.3-5.1,2.6-6.9c0.2-0.1,0.2-0.4,0.3-0.6c0.2-0.2,0.5-0.3,0.7-0.5c0.5-0.5,1-1,1.4-1.4c0.3-0.2,0.6-0.5,1-0.7
			c0.2-0.2,0.3-0.3,0.5-0.5c0.2-0.1,0.3-0.2,0.5-0.2c0.2-0.1,0.4-0.1,0.5-0.2c2.9-2.1,5.8-4.2,8.6-6.4
			C980.4,471.1,982.1,469.4,984,467.8C984,467.8,984,467.8,984,467.8z"/>
		<path class="st7" d="M962.2,491.8c-0.1,5.6-0.2,11.2-0.2,16.8c0,2,0.2,4,0.2,6c0,0.6-0.3,1.1-0.5,1.7c-1.1,0.1-1.4-0.6-1.4-1.5
			c0-1,0-1.9,0-2.9c0-0.2,0-0.5,0-0.7c0.1-0.3,0.2-0.6,0.2-0.9c0-2.5,0.1-5,0-7.5c0-1.3-0.3-2.6-0.5-3.9c0-0.7,0-1.4,0-2.2
			c0.3,0.1,0.6,0.2,1.1,0.5c0.2-1.5,0.4-2.8,0.6-4.2C961.8,492.6,962,492.2,962.2,491.8z"/>
		<path class="st2" d="M960,494.4c-0.2,0.4-0.5,0.7-0.7,1.2c-0.2,0.5-0.2,1.1-0.4,1.7c-0.1,0-0.3,0-0.4,0c-0.5-2.3-0.9-4.6-1.4-6.9
			c0.2-0.8,0.3-1.6,0.5-2.4c0.1-0.2,0.2-0.3,0.2-0.5c0-0.2,0-0.5,0-0.7c0.4-1,1-1.2,1.6-0.1c0,0.1,0.2,0.1,0.3,0.1
			c0.1,1,0.2,2.1,0.2,3.1c0,0.4,0,0.8,0,1.2C960,492.2,960,493.3,960,494.4z"/>
		<path class="st7" d="M984,467.8c-1.8,1.6-3.6,3.3-5.5,4.8c-2.8,2.2-5.7,4.3-8.6,6.4c-0.2,0.1-0.4,0.2-0.5,0.2
			c0.4-0.4,0.7-0.9,1.1-1.3c4.1-3.2,8.2-6.5,12.3-9.7C983.2,468.1,983.6,468,984,467.8z"/>
		<path class="st7" d="M965.3,482.7c-0.1,0.2-0.1,0.5-0.3,0.6c-2.3,1.8-2.7,4.2-2.6,6.9c0,0.3-0.1,0.6-0.2,0.9c0-1.7,0.1-3.3,0.1-5
			C962.3,484,964,483.5,965.3,482.7z"/>
		<path class="st3" d="M959.8,486.7c-0.1,0-0.3-0.1-0.3-0.1c-0.6-1.1-1.2-0.9-1.6,0.1c0.2-1,0.3-1.9,0.5-2.9
			c0.2,0.1,0.5,0.2,0.7,0.2c0.2,0.6,0.5,1.3,0.7,1.9C959.8,486.2,959.8,486.5,959.8,486.7z"/>
		<path class="st7" d="M967.4,480.7c-0.5,0.5-1,1-1.4,1.4C966.5,481.7,966.9,481.2,967.4,480.7z"/>
		<path class="st7" d="M959.8,486c-0.2-0.6-0.5-1.3-0.7-1.9c0.1,0,0.2,0,0.3,0C959.4,484.7,959.6,485.4,959.8,486z"/>
		<path class="st24" d="M960,491c0-0.4,0-0.8,0-1.2C960,490.2,960,490.6,960,491z"/>
		<path class="st7" d="M968.9,479.5c-0.2,0.2-0.3,0.3-0.5,0.5C968.5,479.9,968.7,479.7,968.9,479.5z"/>
		<path class="st17" d="M907.1,539.3c0.4,0,0.8,0.1,1.2,0.1c-0.3,1.2-0.1,1.7,1.2,1.9c1.7,0.2,3.4,0.5,5.1,0.5
			c6-0.1,11.9-0.3,17.9-0.5c1,0,2-0.2,2.9-0.4c0.4-0.1,0.6-0.5,0.9-0.7c0.9,0.5,0.5,1.2,0,1.5c-0.7,0.4-1.6,0.5-2.4,0.7
			c-1.3,0-2.7,0-4,0c-6.6,0.1-13.2-0.3-19.7,1c-1-0.3-2.1-0.6-3.1-1c-0.2-0.6-0.5-1.1-0.7-1.7C906.6,540.2,906.8,539.7,907.1,539.3z
			"/>
		<path class="st7" d="M899.4,476.2c-0.6,0.4-1.3,0.7-1.9,1.1c-0.3,0.2-0.7,0.4-1,0.6c0.3-0.4,0.6-0.9,1-1.3
			c3.2-2.8,6.5-5.6,9.8-8.4c0.3-0.3,0.7-0.4,1-0.6c0,0.1,0,0.2,0,0.2c-0.5,0.6-1,1.3-1.4,1.9c-0.2,0.1-0.3,0.2-0.5,0.3
			c-0.2,0.2-0.5,0.5-0.7,0.7c-0.2,0.2-0.3,0.3-0.5,0.5c-0.4,0.3-0.8,0.6-1.2,1c-0.2,0.2-0.3,0.3-0.5,0.5c-0.5,0.4-1,0.8-1.4,1.2
			c-0.4,0.4-0.8,0.8-1.2,1.2c-0.3,0.2-0.6,0.5-1,0.7c-0.1,0.2-0.2,0.3-0.2,0.5c0,0-0.1,0-0.1,0S899.4,476.2,899.4,476.2z"/>
		<path class="st7" d="M896.5,477.9c-0.4,0.3-0.8,0.6-1.2,1C895.7,478.5,896.1,478.2,896.5,477.9z"/>
		<path class="st7" d="M892.4,481.4c-0.3,0.2-0.6,0.5-1,0.7C891.8,481.9,892.1,481.7,892.4,481.4z"/>
		<path class="st25" d="M972.5,598.6c-1.2-1.3-2.5-2.5-3.7-3.9c-0.6-0.6-0.5-1.4,0-2.1c2.5-3.8,5.9-5.9,10.8-5.1
			c0.7,0.1,1.3,0,2,0.1c0.2,0.2,0.3,0.4,0.6,0.6c1.5,0.9,2.9,1.8,4.5,2.5c1.6,0.8,3.3,1.5,5.1,1.9c1.9,0.4,4,0.3,5.9,0.6
			c2.7,0.4,5.3-0.1,7.8-1c2.2-0.7,3.9-2.1,5.5-3.7c3-2.9,4.5-6.4,4.4-10.6c-0.1-1.5,0-3,0.3-4.4c0.6-3.4,2.3-6,5.8-7.1
			c3.5-1.1,6.3,0.1,8.8,2.6c0.5,0.5,0.8,1,1.2,1.6c0.1,1.6,0.2,3.2,0.2,4.8c0,5.7,0.3,11.4-0.9,17.1c-0.7,0.9-1.4,1.8-2.2,2.6
			c-1.2,1.2-2.5,2.4-3.8,3.6c-0.1,0.1-0.2,0.2-0.2,0.2c-0.4,0.6-0.8,1.1-1.2,1.7c-0.4,0.2-0.8,0.5-1.2,0.7c-1.1,1.1-2.2,2.2-3.4,3.4
			c-0.7,0.9-1.4,1.8-2.2,2.6c-1,0.8-1.9,1.6-2.9,2.4c-1.2,0.1-2.4,0.2-3.6,0.4c-0.1,0-0.2,0.2-0.3,0.4c-0.4,0-0.8,0-1.2,0
			c-0.2,0-0.3,0-0.5,0c-0.2,0.1-0.3,0.2-0.5,0.2c0,0,0,0,0,0c-0.2,0-0.3,0-0.5,0c-0.2,0.1-0.3,0.2-0.5,0.2c-0.4,0-0.8,0-1.2,0
			c-1.2,0-2.4,0-3.6,0c-0.3-0.1-0.6-0.2-1-0.2c-0.4,0.1-0.8,0.2-1.2,0.2c-2.2,0-4.5,0-6.7,0c-0.7,0-1.4,0-2.2,0c-0.2,0-0.3,0-0.5,0
			c-0.4-0.2-0.7-0.4-1.1-0.4c-1.1-0.1-2.2,0-3.3,0c-1.2,0-2.2-0.4-3.1-1.3c-3-3-6.1-5.8-9.1-8.7c-0.4-0.3-0.6-0.8-0.9-1.2
			c0.3,0.2,0.6,0.3,0.9,0.6c1.5,1.4,2.9,2.7,4.4,4.1c2.1,1.9,4.5,3.4,7.3,4.1c6.4,1.4,12.8,1.8,19.2,1.1c3.8-0.4,7.5-1.5,10.8-3.6
			c5.4-3.4,9.6-8,12.9-13.4c1.2-1.9,2.1-4,2.2-6.3c0.1-2.9,0.3-5.7,0.2-8.6c-0.1-2.6-1-4.9-3-6.7c-2.9-2.7-6.9-2.1-8.6,0.8
			c-0.7,1.3-1.1,2.9-1.3,4.4c-0.3,2.2-0.1,4.6-0.5,6.8c-0.7,4.1-3.5,6.9-6.4,9.5c-2.5,2.2-5.4,3.5-8.7,3.7c-2.8,0.2-5.6,0.1-8.3,0
			c-3.9-0.1-7.4-1.4-10.6-3.6c-1.6-1.1-3.4-1.8-5.2-2.4c-1.5-0.6-3.1-0.7-4.7,0c-2.7,1.2-3.9,6-1.7,8.1
			C972.2,597.8,972.3,598.3,972.5,598.6z"/>
		<path class="st3" d="M1030.7,592.4c1.2-5.6,0.9-11.4,0.9-17.1c0-1.6-0.1-3.2-0.2-4.8c-0.1-1.5-0.2-2.9-0.2-4.4c0-1.2,0-2.3,0-3.5
			c0.3,1.8,0.8,3.5,0.9,5.3c0.3,4.6,0.4,9.2,0.5,13.9c0,1.7-0.3,3.4-0.4,5.1c0,0.3-0.1,0.6,0,0.8c0.5,1.5,0,2.8-0.5,4.2
			C1031.3,592.1,1031,592.2,1030.7,592.4z"/>
		<path class="st16" d="M1016.5,607.3c0.7-0.9,1.4-1.8,2.2-2.6c0.6-0.4,1.3-0.8,1.9-1.2C1019.3,604.7,1017.9,606,1016.5,607.3z"/>
		<path class="st3" d="M1009.8,610.4c0.1-0.1,0.2-0.3,0.3-0.4c1.2-0.1,2.4-0.3,3.6-0.4c-0.1,0.3-0.2,0.6-0.3,0.9c-0.2,0-0.3,0-0.5,0
			C1011.9,610.5,1010.9,610.5,1009.8,610.4z"/>
		<path class="st3" d="M1020.6,603.4c-0.6,0.4-1.3,0.8-1.9,1.2c1.1-1.1,2.2-2.2,3.4-3.4c0,0.2,0,0.3,0,0.5
			C1021.6,602.3,1021.1,602.9,1020.6,603.4z"/>
		<path class="st16" d="M1022.1,601.7c0-0.2,0-0.3,0-0.5c0.4-0.2,0.8-0.5,1.2-0.7C1022.9,600.9,1022.5,601.3,1022.1,601.7z"/>
		<path class="st3" d="M1024.5,598.9c0.1-0.1,0.2-0.2,0.2-0.2C1024.6,598.7,1024.5,598.8,1024.5,598.9z"/>
		<path class="st4" d="M908.2,610.6c0.1,0.1,0.2,0.2,0.2,0.2c0,0.1,0,0.2,0,0.2c-0.1,0.2-0.2,0.3-0.3,0.5c-0.2,0.2-0.5,0.5-0.7,0.7
			c-0.5,0.2-1,0.4-0.2,1c-0.1,0.3-0.1,0.6-0.2,1c-1.8-1.6-3.6-3.1-5.4-4.8c-3.8-3.5-7.6-7.1-11.4-10.7c-0.9-0.9-1.7-2-2.4-3.1
			c-0.6-1,0.1-1.8,0.9-2.3c0.8-0.6,1.3,0,1.9,0.5c4.6,4.5,9.2,8.9,13.8,13.4c0.7,0.6,1.2,1.4,1.9,2
			C906.9,609.8,907.6,610.2,908.2,610.6z"/>
		<path class="st8" d="M907.3,613.2c-0.7-0.5-0.2-0.7,0.2-1C907.4,612.6,907.4,612.9,907.3,613.2z"/>
		<path class="st8" d="M908.2,611.6c0.1-0.2,0.2-0.3,0.3-0.5C908.4,611.2,908.3,611.4,908.2,611.6z"/>
		<path class="st4" d="M909,610.9c0.2,0.1,0.3,0.2,0.5,0.2C909.3,611,909.1,610.9,909,610.9z"/>
		<path class="st23" d="M890,569.4c0.1-2.1,0-4.3,0.3-6.3c0.2-1.2,1-2.5,1.9-3.3c2.6-2.4,5.3-4.7,8-7c1.8-1.6,3.6-3.2,5.4-4.9
			c1.3-1.3,2.5-2.7,3.7-4c0.3,0,0.6,0,1,0c0.5,0.1,1,0.2,1.5,0.2c1.7,0,3.3-0.1,5-0.2c0.8,0,1.6,0,2.4,0c5.1,0.2,10.2,0.5,15.4,0.4
			c2.2,0,3.6,1,5,2.5c-0.5-0.2-1-0.5-1.5-0.7c-0.9-0.4-1.7-0.9-2.7-1c-3-0.3-6.1-0.5-9.2-0.5c-3.1,0-6.1,0.3-9.1,0.7
			c-4.8,0.7-9.3,2.3-13.1,5.4c-2.7,2.1-5.2,4.5-7.8,6.6c-3.6,2.9-5.4,6.5-5.5,11.1C890.5,568.7,890.2,569.1,890,569.4z"/>
		<path class="st24" d="M916.6,543.8c-1.7,0.1-3.3,0.2-5,0.2c-0.5,0-1-0.1-1.5-0.2c0-0.2,0-0.3,0-0.5c6.5-1.3,13.1-0.9,19.7-1
			c1.3,0,2.7,0,4,0c0.4,0.2,0.8,0.6,1.2,0.7c0.8,0.2,1.6,0.2,2.4,0.3c0,0.1,0,0.2,0,0.2c-1.6,0.3-3.1,0.7-4.5-0.5
			c-0.3-0.2-0.8-0.2-1.1-0.2c-3.4,0.1-6.8,0.1-10.1,0.3C920,543.2,918.3,543.5,916.6,543.8z"/>
		<path class="st21" d="M1031.2,562.7c0,1.2,0,2.3,0,3.5c0,1.5,0.1,2.9,0.2,4.4c-0.4-0.5-0.8-1.1-1.2-1.6c-2.4-2.5-5.3-3.7-8.8-2.6
			c-3.5,1.1-5.2,3.7-5.8,7.1c-0.2,1.4-0.3,2.9-0.3,4.4c0.2,4.2-1.4,7.7-4.4,10.6c-1.6,1.6-3.4,2.9-5.5,3.7c-2.5,0.9-5.1,1.3-7.8,1
			c-2-0.3-4-0.1-5.9-0.6c-1.8-0.4-3.5-1.1-5.1-1.9c-1.5-0.7-3-1.7-4.5-2.5c-0.2-0.1-0.4-0.4-0.6-0.6c1.2-0.7,2.3-1.4,3.5-2.2
			c0.4-0.3,1-0.6,1.2-1c1.2-2.4,2.2-4.7,3.4-7.1c0.8-1.7,1.6-3.4,2.5-5.2c0.1-0.1,0.1-0.3,0.3-0.4c3.1-2.9,6.2-6.1,10.4-7.3
			c0.7-0.2,1.4-0.2,2.1-0.1c4.1,0.6,8.2,0.5,12.1-1c3-1.1,4.7-3.6,5.3-6.9c0.3-1.9,0.3-3.7-1-5.3c-0.1-0.2-0.1-0.5-0.2-0.7
			c2.2,1.6,4.5,3.3,6.7,4.9c1,0.7,1.9,1.4,2.9,2.1c0,1.3,0,2.6,0,3.9c0,0.2,0.3,0.4,0.4,0.6C1031.2,562.2,1031.2,562.4,1031.2,562.7
			z"/>
		<path class="st8" d="M1009.6,534.9c0.2-0.1,0.5-0.2,0.7-0.2c1.4-0.8,2.8-1.4,4.1-2.4c2.4-1.8,4.9-3.6,7.1-5.6
			c3.2-3,6.2-6.3,9.2-9.5c0.2-0.2,0.3-0.5,0.4-0.7c0.2,0,0.3,0,0.5,0c0.8,0.4,1.4,0.9,1.4,1.9c-0.6,0.9-1,2-1.8,2.8
			c-3.1,3.3-6.2,6.5-9.4,9.7c-2.5,2.4-5.1,4.6-7.7,6.8c-0.4,0.4-1,0.6-1.5,0.8c-0.4,0-0.8,0-1.2,0c0-0.1,0-0.2,0-0.3
			c0.6-0.6,1-1.2,0.4-2c-0.3-0.4-1-0.8-1.3-0.7c-2.2,1-4.5,0.5-6.7,0.6c-3.6,0-7.3,0.2-10.9,0.2c-2.4,0-4.8,0-7.1,0
			c-1.3,0-2.3,0.3-2.6,1.7c-0.1-0.2-0.2-0.3-0.3-0.5c0.1-1.4,0.3-1.7,1.7-1.7c1.9,0,3.8,0,5.7,0c4.9-0.1,9.7-0.2,14.6-0.2
			c1.2,0,2.4,0,3.5-0.1C1008.9,535.5,1009.2,535.1,1009.6,534.9z"/>
		<path class="st5" d="M1030.9,556.5c-0.9-0.5-1.6-0.9-2.2-1.4c-4.9-3.9-9.9-7.9-14.8-11.9c-0.3-0.2-0.6-0.5-0.6-0.8
			c0-0.2,0.4-0.5,0.7-0.6c1.5-0.8,2.7-0.8,4.2,0.5c4.5,3.9,9.1,7.5,13.7,11.3c0.4,0.3,0.8,1.2,0.7,1.4
			C1032.3,555.6,1031.6,556,1030.9,556.5z"/>
		<path class="st17" d="M982.3,538.7c0.3-0.2,0.6-0.3,1-0.5c2.5,0,5,0,7.4,0c2.1,0,4.1,0,6.2,0c0.2,0,0.3,0,0.5,0c0,0.1,0,0.2,0,0.3
			c-0.9,0.1-1.9,0.4-2.8,0.4c-3.2,0-6.4-0.1-9.7-0.2c-0.4,0-0.9,0.1-1.1,0.3c-0.3,0.4-0.6,1.1-0.4,1.5c0.2,0.4,0.9,0.8,1.4,0.8
			c3.1-0.1,6.2-0.2,9.3-0.4c5.2-0.4,10.3-0.8,15.4-1.2c0.8-0.1,1-0.4,0.8-1.2c0.2,0.1,0.5,0.1,0.7,0.2c0,0.3,0,0.6,0,0.9
			c0,0.4,0,0.8,0,1.2c-0.4,1-1.1,1.3-2.1,1.2c-1.9-0.2-3.9-0.5-5.8-0.5c-6.2,0-12.5,0.1-18.7,0.2c-0.5,0-0.9,0.1-1.4,0.2
			c-1.6-0.2-1.7-0.5-1-2C982.2,539.7,982.2,539.2,982.3,538.7z"/>
		<path class="st24" d="M983,542.1c0.5-0.1,0.9-0.2,1.4-0.2c6.2-0.1,12.5-0.2,18.7-0.2c1.9,0,3.9,0.3,5.8,0.5c1,0.1,1.7-0.2,2.1-1.2
			c0.9,1.3,0.8,1.6-0.2,1.9c-1.3,0.1-2.6,0.2-3.8,0.2c-0.4,0-0.8,0-1.2,0c-1-0.1-2.1-0.2-3.1-0.2c-1,0-1.9,0-2.9,0
			c-0.2,0-0.3,0-0.5,0c-1.3-0.1-2.6-0.1-3.9-0.2c-0.1,0-0.3,0.3-0.4,0.4c-0.4,0-0.8,0-1.2,0c-0.9,0-1.8,0-2.6,0
			c-2.1,0.1-4.3,0.3-6.4,0.4c-1.1,0-2.1-0.1-3.2-0.2c0-0.1,0-0.2,0-0.2C982,542.7,982.5,542.4,983,542.1z"/>
		<path class="st20" d="M1011,538.8c-0.2-0.1-0.5-0.1-0.7-0.2c-1.4,0-2.7-0.1-4.1-0.1c0.3-0.1,0.7-0.4,1-0.4c1.4,0,2.8,0.1,4.2,0.2
			c0,0.1,0,0.2,0,0.3c0,0.1,0,0.2,0,0.2C1011.4,538.7,1011.2,538.7,1011,538.8z"/>
		<path class="st3" d="M1031.2,562c-0.2-0.2-0.4-0.4-0.4-0.6c0-1.3,0-2.6,0-3.9c0.2,0,0.3,0,0.5,0c-0.1,0.3-0.2,0.6-0.2,1
			c0.1,0.5,0.2,1,0.2,1.4C1031.2,560.5,1031.2,561.2,1031.2,562z"/>
		<path class="st15" d="M1007,543c1.3-0.1,2.6-0.2,3.8-0.2c0,0.2,0,0.5,0,0.7c-0.8,0-1.6,0-2.4,0
			C1007.9,543.4,1007.4,543.2,1007,543z"/>
		<path class="st24" d="M1011,538.8c0.2,0,0.3,0,0.5,0c-0.2,0.3-0.3,0.6-0.5,0.9C1011,539.4,1011,539.1,1011,538.8z"/>
		<path class="st3" d="M1032.1,556.7c-0.2,0.2-0.5,0.3-0.7,0.5C1031.6,557,1031.9,556.9,1032.1,556.7z"/>
		<path class="st20" d="M1033.1,518.4c0-1-0.6-1.5-1.4-1.9c0.8-0.5,1.3,0.1,1.6,0.7C1033.4,517.4,1033.1,517.9,1033.1,518.4z"/>
		<path class="st26" d="M890,569.4c0.2-0.3,0.5-0.7,0.5-1c0.1-4.6,1.9-8.3,5.5-11.1c2.7-2.1,5.2-4.5,7.8-6.6
			c3.8-3.1,8.3-4.6,13.1-5.4c3-0.5,6.1-0.7,9.1-0.7c3.1,0,6.1,0.2,9.2,0.5c0.9,0.1,1.8,0.6,2.7,1c0.5,0.2,1,0.4,1.5,0.7
			c0.2,0.2,0.5,0.3,0.7,0.5c0.2,0.2,0.3,0.3,0.5,0.5c0.4,0.2,0.8,0.3,1.2,0.5c0.3,0.3,0.6,0.6,0.9,0.9c1.7,1.5,3.4,3,5.1,4.5
			c1,0.9,1.4,2.1,1.2,3.5c-0.6,3.6-3.8,6.3-7.2,6.4c-1.7,0.1-3.4-0.4-5.1-0.6c-1.7-0.2-3.3-0.8-4.9-0.7c-2.3,0.1-4.4,0.5-6.6,1.7
			c-4.3,2.2-7.6,5.5-10.9,8.7c-3.4,3.4-5.2,7.9-7.2,12.2c-1.2,2.6-2.3,5.3-3.8,7.7c-1.1,1.8-3.2,2.8-5.4,2.3c-3.4-0.8-6.2-2.6-7.6-6
			c0-0.1-0.2-0.2-0.4-0.3C889.9,582,890,575.7,890,569.4z M903.8,561.3c0.2,0.5,0.6,0.9,0.6,1.1c-0.3,1-0.6,2.3-1.3,2.8
			c-1,0.8-1.3,1.8-1.6,2.9c-0.1,0.4-0.5,0.7-0.7,1c-0.1-0.4-0.3-0.7-0.4-1.1c-0.1-0.3-0.3-0.7-0.5-0.8c-0.1-0.1-0.6,0.2-0.7,0.4
			c-0.4,0.5-0.8,1-1.1,1.6c-2.2,4.2-4.4,8.5-6,13c-1.4,3.9,1,7.2,4.3,8.5c1,0.4,2.4,0.4,3.1-0.7c0.9-1.4,1.8-2.9,2.2-4.5
			c0.6-2.5,0.6-5.1,1-7.7c0.3-2.2,0.6-4.5,1.3-6.5c1.2-3.4,3.6-5.8,6.9-7.7c4.8-2.7,9.9-4.1,15.4-4.2c1.4,0,2.8-0.1,4.1,0
			c1.6,0.1,3.2,0.2,4.7,0.6c2.2,0.5,4.3,1.3,6.7,1.1c2.1-0.1,3.7-1.1,4.5-3c0.7-1.8,0.9-3.7-0.6-5.3c-2.1-2.4-4.7-4.1-7.8-4.8
			c-3.8-0.9-7.6-0.9-11.5-0.4c-1.8,0.3-3.8,0.4-5.5,1.1C914.2,551.5,908.5,555.7,903.8,561.3z"/>
		<path class="st23" d="M889.8,588.3c0.1,0.1,0.3,0.1,0.4,0.3c1.4,3.4,4.2,5.2,7.6,6c2.2,0.5,4.3-0.5,5.4-2.3
			c1.5-2.4,2.7-5.1,3.8-7.7c2-4.3,3.7-8.8,7.2-12.2c3.3-3.2,6.7-6.5,10.9-8.7c2.2-1.1,4.3-1.6,6.6-1.7c1.6-0.1,3.3,0.5,4.9,0.7
			c1.7,0.2,3.4,0.7,5.1,0.6c3.4-0.1,6.6-2.8,7.2-6.4c0.2-1.4-0.2-2.6-1.2-3.5c-1.7-1.5-3.4-3-5.1-4.5c-0.3-0.3-0.6-0.6-0.9-0.9
			c1.2,0.8,2.5,1.4,3.6,2.3c1.8,1.5,3.5,3.3,5.3,4.9c0.2,0.4,0.4,1,0.7,1.3c0.9,0.9,1.1,1.8,0.7,3c-1.7,5.3-4.8,6.9-10.2,7.4
			c-1.8,0.2-3.5-0.2-5-1.2c-0.9-0.6-2-0.7-3.1-0.3c-1.5,0.4-3.1,0.6-4.7,1.1c-1.4,0.4-2.3,1.3-2.9,2.7c-0.6,1.3-1.7,2.5-2.8,3.5
			c-2.2,2.1-4.4,4.1-5.9,6.8c-0.8,1.5-1.1,1.5-3,1.3c-0.3,0-0.9,0.4-1.1,0.8c-1.4,3.1-2.8,6.3-4.1,9.4c-1.8,4.3-4.5,7.5-9.4,8.2
			c-0.1,0-0.3,0.2-0.5,0.3c0.7,0.8,1.2,1.6,1.9,2.3c2,2.1,4,4.1,5.9,6.2c0.5,0.6,0.7,1.4,1,2.1c-2.8-2.9-5.5-5.9-8.4-8.7
			c-1.6-1.6-3.4-3-5.1-4.5c-0.9-0.9-1.6-2-2.4-2.9c-0.8-1-1.6-2-3-2.1C889.5,590.7,889.6,589.5,889.8,588.3z"/>
		<path class="st19" d="M1018.5,474.3c-1.2-1-2.4-2-3.6-3c-0.8-0.7-1.6-1.5-2.4-2.2C1014.8,470.3,1016.9,472,1018.5,474.3z"/>
		<path class="st19" d="M1022.5,478.6c-1.2-1.3-2.5-2.6-3.7-3.9c-0.1-0.1-0.1-0.1-0.1-0.2c0.2,0,0.5,0,0.6,0.1
			c1.3,1.4,2.7,2.8,4,4.2C1023,478.7,1022.8,478.7,1022.5,478.6z"/>
		<path class="st19" d="M1024.9,480c-0.5-0.4-1-0.8-1.4-1.2C1024,479.2,1024.5,479.6,1024.9,480z"/>
		<path class="st19" d="M1028.1,482.6c-0.2-0.2-0.3-0.3-0.5-0.5C1027.7,482.3,1027.9,482.5,1028.1,482.6z"/>
		<path class="st2" d="M990.9,610.9c0.7,0,1.4,0,2.2,0C992.4,611.6,991.6,611.6,990.9,610.9z"/>
		<path class="st2" d="M1005.5,610.9c0.4,0,0.8,0,1.2,0c0.2-0.1,0.3-0.2,0.5-0.2c0.2,0,0.3,0,0.5,0
			C1007,611.2,1006.3,611.6,1005.5,610.9z"/>
		<path class="st2" d="M999.8,610.8c0.4-0.1,0.8-0.2,1.2-0.2c0,0.1,0,0.2,0,0.2C1000.6,610.9,1000.2,610.8,999.8,610.8z"/>
		<path class="st3" d="M1001,610.9c0-0.1,0-0.2,0-0.2c0.3,0.1,0.6,0.2,1,0.2C1001.6,610.8,1001.3,610.9,1001,610.9z"/>
		<path class="st2" d="M1008.2,610.4c0.2,0,0.3,0,0.5,0c-0.2,0.1-0.3,0.2-0.5,0.2C1008.2,610.5,1008.2,610.5,1008.2,610.4z"/>
		<path class="st3" d="M1008.2,610.4c0,0.1,0,0.2,0,0.2c-0.2,0-0.3,0-0.5,0C1007.8,610.5,1008,610.4,1008.2,610.4z"/>
		<path class="st24" d="M906.8,469.7c0.5-0.6,1-1.3,1.4-1.9c0.9,0,1.9,0,2.8-0.1c1.3,0,2.5-0.1,3.8-0.2c5.3,0,10.7,0,16,0
			c2.1,0,4.3,0.3,6.4,0.4c-1.2,0.1-2.5,0.2-3.7,0.3c-0.4,0-0.9,0-1.3,0c-2.2-0.1-4.3-0.2-6.5-0.2c-0.3,0-0.6,0-1,0
			c-2.6,0.1-5.3,0.1-7.9,0.2c-0.3,0-0.6-0.1-0.9-0.2c-1.2,0.1-2.4,0.3-3.6,0.2c-2-0.3-3.9-0.2-5.3,1.4
			C907,469.7,906.9,469.7,906.8,469.7z"/>
		<path class="st19" d="M979.9,472.8c1.8-1.6,3.5-3.2,5.3-4.8c0.6-0.1,1.3-0.1,1.9-0.2c-0.7,0.6-1.3,1.2-2.1,1.8
			c-1.3,0.9-2.6,1.8-4,2.7C980.7,472.5,980.3,472.7,979.9,472.8z"/>
		<path class="st12" d="M1001,468c-0.9,0-1.8,0-2.6,0C999.2,468,1000.1,468,1001,468z"/>
		<path class="st19" d="M991.2,468c-0.6,0.8-1.1,0.8-1.7,0C990,468,990.6,468,991.2,468z"/>
		<path class="st5" d="M1012,468c-0.1,0-0.1,0-0.2,0C1011.8,468,1011.9,468,1012,468z"/>
		<path class="st25" d="M950.7,555.3c-1.8-1.6-3.5-3.4-5.3-4.9c-1.1-0.9-2.4-1.5-3.6-2.3c-0.4-0.2-0.8-0.3-1.2-0.5
			c-0.2-0.2-0.3-0.3-0.5-0.5c-0.2-0.2-0.5-0.3-0.7-0.5c-1.3-1.5-2.7-2.5-5-2.5c-5.1,0-10.2-0.3-15.4-0.4c-0.8,0-1.6,0-2.4,0
			c1.7-0.2,3.4-0.6,5-0.7c3.4-0.2,6.8-0.2,10.1-0.3c0.4,0,0.9,0,1.1,0.2c1.4,1.2,3,0.8,4.5,0.5c0.3,0.1,0.8,0.1,0.8,0.3
			c0.3,1.1,1.2,1.3,2,1.6c4.2,1.7,7.4,4.5,9.8,8.4c0.3,0.6,0.7,1.1,1,1.7C951,555.4,950.8,555.3,950.7,555.3z"/>
		<path class="st13" d="M964.6,571c0-4.4,1.8-8.2,4-11.9c2.8-4.6,7-7.6,11.5-10.4c4.3-2.6,8.9-4.2,13.8-4.7
			c3.9-0.4,7.8-0.6,11.6,0.5c2,0.6,3.9,1.5,5.8,2.4c1.4,0.7,2.8,1.5,4.1,2.5c1.4,1,2.3,2.3,2.6,4c0.5,2.3-0.3,4.6-2.2,5.9
			c-1.7,1.2-3.6,1.7-5.8,1.3c-4-0.8-8.1-0.8-12,0.7c-3,1.2-6.1,2.4-8.2,5.1c-1,1.2-2,2.3-3.2,3.4c-2.4,2.3-3.3,5.3-4.2,8.3
			c-0.3,1.1-0.8,2.3-1.2,3.4c-0.1,0.3-0.4,0.6-0.6,0.7c-2.8,1.3-5.8,1.7-8.8,1.3c-1.1-0.1-2.1-0.6-3.3-0.4c-1.4,0.3-1.5-1.3-2-2.2
			c-0.5-1.1-0.9-2.3-1.1-3.5C965.1,575.3,964.9,573.2,964.6,571z"/>
		<path class="st15" d="M972.5,598.6c-0.2-0.4-0.2-0.8-0.5-1c-2.2-2.1-0.9-6.9,1.7-8.1c1.6-0.7,3.2-0.5,4.7,0
			c1.8,0.7,3.6,1.4,5.2,2.4c3.2,2.2,6.7,3.5,10.6,3.6c2.8,0.1,5.6,0.2,8.3,0c3.3-0.2,6.2-1.5,8.7-3.7c3-2.6,5.7-5.4,6.4-9.5
			c0.4-2.2,0.2-4.5,0.5-6.8c0.2-1.5,0.5-3.1,1.3-4.4c1.7-2.9,5.7-3.5,8.6-0.8c2,1.8,2.9,4.1,3,6.7c0.1,2.8-0.1,5.7-0.2,8.6
			c-0.1,2.3-1,4.4-2.2,6.3c-3.3,5.4-7.6,9.9-12.9,13.4c-3.3,2.1-7,3.2-10.8,3.6c-6.5,0.7-12.9,0.4-19.2-1.1
			c-2.9-0.6-5.2-2.1-7.3-4.1c-1.5-1.3-2.9-2.7-4.4-4.1c-0.3-0.2-0.6-0.4-0.9-0.6C972.8,598.9,972.6,598.8,972.5,598.6z"/>
		<path class="st12" d="M963.6,591.4c0.1-2.7,0.3-5.3,0.2-8c-0.1-3.3-0.4-6.6-0.6-9.9c-0.1-2-0.1-4-0.1-5.9c0-0.2,0.3-0.4,0.4-0.6
			c0.1,0.4,0.2,0.8,0.2,1.2c0.1,3.5,0.2,7,0.3,10.5c0.1,2.5,0.2,4.9,0.2,7.4c0,1.5-0.1,3.1-0.2,4.6C964,591,963.8,591.2,963.6,591.4
			z"/>
		<path class="st12" d="M966.2,558.6c0.3-1.9,2-2.9,3.2-4.2c1.6-1.8,3.5-3.5,5.2-5.2c0.3-0.3,0.6-0.5,1-0.7c0.2,0.1,0.3,0.2,0.5,0.2
			c-1.5,1.5-2.9,3-4.4,4.5c-1.6,1.6-3.1,3.3-4.7,4.9C966.8,558.4,966.5,558.5,966.2,558.6z"/>
		<path class="st5" d="M976.1,548.8c-0.2-0.1-0.3-0.2-0.5-0.2c0.9-0.9,1.7-1.9,2.7-2.8c1-0.9,2-1.8,2-3.5c0.6,0.4,1,0.6,1.3,0.8
			c0,0.1,0,0.2,0,0.2c0,0,0,0,0,0c-0.3,0.3-0.6,0.6-1,1c-0.6,0.7-1.2,1.4-1.9,2.1c-0.5,0.5-1.2,1-1.7,1.5c-0.2,0.2-0.3,0.3-0.5,0.5
			C976.4,548.5,976.2,548.6,976.1,548.8z"/>
		<path class="st15" d="M999.8,542.8c1,0,1.9,0,2.9,0c1,0,2.1,0.2,3.1,0.2C1003.8,543.4,1001.8,543.5,999.8,542.8z"/>
		<path class="st15" d="M995,543c0.1-0.1,0.3-0.4,0.4-0.4c1.3,0,2.6,0.1,3.9,0.2C997.9,542.9,996.4,543,995,543z"/>
		<path class="st15" d="M991.2,543c0.9,0,1.8,0,2.6,0C992.9,543,992,543,991.2,543z"/>
		<path class="st12" d="M980.6,544.2c0.3-0.3,0.6-0.6,1-1C981.2,543.6,980.9,543.9,980.6,544.2z"/>
		<path class="st12" d="M963.6,561.5c0.2-0.3,0.5-0.6,0.7-1C964.1,560.9,963.8,561.2,963.6,561.5z"/>
		<path class="st12" d="M963.6,565.6c0-0.2,0-0.5,0-0.7C963.6,565.1,963.6,565.3,963.6,565.6z"/>
		<path class="st12" d="M976.5,548.3c0.2-0.2,0.3-0.3,0.5-0.5C976.9,548,976.7,548.1,976.5,548.3z"/>
		<path class="st7" d="M979.2,540.4c0.1,0.9,0.2,1.7,0.2,2.6c0,0.5-0.3,1-0.6,1.3c-1.7,1.5-3.5,2.9-5.1,4.4
			c-1.8,1.7-3.5,3.6-5.1,5.5c-1.9,2.2-3.7,4.5-5.5,6.8c-0.2,0.2-0.6,0.5-0.8,0.4c-1.1-0.3-2.3-0.7-3.4-1.1c0-0.2,0-0.3,0-0.5
			c0-0.2,0-0.3,0-0.5c0-0.2,0-0.3,0-0.5c0.2-0.2,0.3-0.3,0.5-0.5c0.4-0.9,0.9-1.6,2.1-1.3c0.3,0.1,0.7-0.1,0.9-0.2
			c1-1.1,2-2.3,3-3.5c0.2-0.2,0.3-0.5,0.5-0.7c0.6-0.6,1.1-1.1,1.7-1.7c0.2-0.2,0.5-0.5,0.7-0.7c0.2-0.2,0.3-0.5,0.5-0.7
			c0.1-0.1,0.2-0.2,0.2-0.2c0.2-0.2,0.3-0.5,0.5-0.7c0.1-0.2,0.2-0.3,0.2-0.5c0.2,0,0.4,0.1,0.5,0c1.8-1.5,3.5-3,5.2-4.5
			c0.4-0.5,0.8-1,1.2-1.4c0.1-0.1,0.2-0.2,0.2-0.2c0.2-0.2,0.5-0.3,0.7-0.5c0.3-0.3,0.6-0.6,1-1c0.1,0,0.2,0,0.2,0
			C978.8,540.4,979,540.4,979.2,540.4z"/>
		<path class="st5" d="M965.3,553.3c-1,1.2-2,2.4-3,3.5c-0.2,0.2-0.6,0.3-0.9,0.2c-1.2-0.3-1.7,0.4-2.1,1.3
			c-0.2,0.2-0.3,0.3-0.5,0.5c0,0.2,0,0.3,0,0.5c0,0.2,0,0.3,0,0.5c0,0.2,0,0.3,0,0.5c-0.1,0.1-0.2,0.2-0.2,0.2
			c-0.5-0.3-1.2-0.5-1.6-1c-2.4-2.2-4.9-4.3-6.3-7.4c-0.2-0.3-0.1-0.7-0.3-1.3c1.2,0.6,2.3,0.9,3.2,1.5c1.6,1.2,3.1,2.5,4.6,3.8
			c0.7,0.6,1.3,0.7,2.1,0.3c0.3,0,0.6,0,1,0c0.2-0.2,0.3-0.3,0.5-0.5c0.2-0.2,0.5-0.3,0.7-0.5c0.2-0.2,0.5-0.5,0.7-0.7
			c0.6-0.5,1.3-1,1.9-1.4C965.1,553.3,965.2,553.3,965.3,553.3z"/>
		<path class="st5" d="M979.2,540.4c-0.2,0-0.3,0-0.5,0c0.7-0.5,1.4-1,2.2-1.4c0.2,0,0.3,0,0.5,0
			C980.6,539.4,979.9,539.9,979.2,540.4z"/>
		<path class="st0" d="M980.8,539c-0.7,0.5-1.4,1-2.2,1.4c-0.1,0-0.2,0-0.2,0c-0.8-0.4-1.3,0.1-1.9,0.6c-1.3,1.2-2.6,2.4-3.8,3.7
			c-1.1,1.1-2.1,2.3-3.2,3.4c-0.1,0.2-0.2,0.3-0.2,0.5c-0.2,0.1-0.3,0.2-0.5,0.2c-0.2,0.2-0.5,0.5-0.7,0.7c-0.4,0.5-0.8,1-1.2,1.4
			l0,0c-0.1,0.1-0.2,0.2-0.2,0.2c-0.3,0.3-0.6,0.6-1,1c-0.2,0.4-0.5,0.8-0.7,1.2c-0.6,0.5-1.3,1-1.9,1.4c-0.2,0.2-0.5,0.5-0.7,0.7
			c-0.2,0.2-0.5,0.3-0.7,0.5c-0.2,0.2-0.3,0.3-0.5,0.5c-0.3,0-0.6,0-1,0c-2.9-2.2-5.9-4.4-8.8-6.7c-2.6-2.1-5.1-4.4-7.7-6.5
			c-1.3-1-2.7-1.9-4.1-2.8c2.1-1.8,4.6-3.3,6.3-5.6c0.5-0.7,1.2-1.5,1.9-1.9c2.4-1.3,3.6-3.7,5.6-5.5c1.8-1.7,3.5-3.6,5.3-5.3
			c0.3-0.3,1.2-0.3,1.5-0.1c0.9,0.7,1.6,1.6,2.5,2.4c3.3,3.1,6.7,6.2,10,9.3c0.6,0.6,1.2,1.2,1.7,1.9c1.3,1.7,3.2,2.6,5.1,3.4
			C979.9,539,980.4,538.9,980.8,539z"/>
		<path class="st10" d="M937.5,543.3c-0.8-0.1-1.6-0.1-2.4-0.3c-0.4-0.1-0.8-0.4-1.2-0.7c0.8-0.2,1.7-0.3,2.4-0.7
			c0.5-0.3,0.9-1,0-1.5c0-0.1,0-0.2,0-0.3c0.4,0,0.8,0,1.2,0c0.1,0.1,0.2,0.2,0.2,0.3C938.3,541.3,938.4,542.3,937.5,543.3z"/>
		<path class="st3" d="M961.7,516.4c0.2,0,0.5,0,0.7,0c0.3-0.1,0.6-0.2,1-0.2c0.8,0,1.1-0.3,1-1.1c-0.2-1.8-0.2-3.7-0.3-5.6
			c0-0.4-0.3-0.8-0.5-1.2c0-0.6,0-1.1,0-1.7c1-1.2,0.3-2.6,0.4-3.9c0-0.1-0.3-0.3-0.4-0.4c0.1-0.4,0.2-0.8,0.2-1.2
			c0.1-0.3,0.2-0.6,0.2-1c0.2,0,0.5,0,0.7,0c-0.1,2.6-0.2,5.2-0.2,7.8c0,2.8-0.1,5.7,1.1,8.4c-0.7,0.3-1.4,0.5-2,0.8
			c-1,0.2-2.1,0.3-3.1,0.5c-0.1-0.3-0.2-0.6-0.2-1C960.7,516.6,961.2,516.5,961.7,516.4z"/>
		<path class="st19" d="M964.1,500.1c-0.1,0.3-0.2,0.6-0.2,1c-0.1-0.2-0.2-0.4-0.2-0.7c0.1-2.4,0.1-4.8,0.2-7.2
			c-0.1-2.1-0.3-4.1-0.4-6.2c0-0.5,0.3-1.3,0.7-1.6c2-1.8,4.1-3.6,6.2-5.3c2.8-2.3,5.6-4.5,8.4-6.7c0.3-0.3,0.8-0.4,1.2-0.5
			c-0.5,0.5-1.1,1-1.6,1.5c-2,1.7-4,3.3-5.9,5c-1.2,1-2.5,1.9-3.5,3c-1.5,1.6-2.7,3.4-4.1,5.1c-0.2,0.2-0.2,0.6-0.2,0.9
			C964.4,492.3,964.2,496.2,964.1,500.1z"/>
		<path class="st8" d="M937.5,539.9c-0.4,0-0.8,0-1.2,0c-1.2-0.3-2.4-0.8-3.6-0.9c-2-0.2-4,0-6,0c0.3-0.2,0.6-0.4,0.9-0.4
			c2.6,0,5.2-0.8,7.8,0.4c0.3,0.1,1-0.1,1.1-0.3c0.2-0.4,0.2-1,0.1-1.4c-0.1-0.3-0.8-0.5-1.2-0.4c-2.3,0.2-4.7,0.4-7,0.6
			c-3.2,0.3-6.5,0.6-9.7,1c-0.3,0-0.6,0.5-0.8,0.8c-3,0-6.1,0.1-9.1,0.1c0.1-1.6,0.7-2.1,2.2-2.1c2.7,0.1,5.5,0.3,8.2,0.2
			c3-0.1,6-0.4,9-0.7c0.2,0,0.4-0.3,0.6-0.4c0.3,0,0.6,0,1,0c0.9,0.3,1.8,0.6,2.6-0.2c0.6,0,1.1,0,1.7,0c0.3-0.1,0.6-0.2,1-0.2
			c0.3-0.1,0.6-0.2,1-0.2c0.2,0,0.3,0,0.5,0c1,0.6,1.7-0.1,2.4-0.6c4.2-3.2,7.9-6.9,11.4-10.7c1-1.1,1.7-2.3,2.5-3.5
			c0-0.1,0-0.2,0-0.2c0.9-0.1,1.4-0.5,1.4-1.4c0.2-0.2,0.5-0.5,0.7-0.7c0.3-0.4,0.6-0.8,1-1.2c0.2-0.2,0.3-0.3,0.5-0.5
			c0.1,0,0.2,0,0.2,0c1-0.2,2.1-0.3,3.1-0.5c0.1,0.1,0.2,0.2,0.2,0.2c-0.5,1-0.9,2.1-1.4,3.1c-4.1,4-8.2,8-12.3,11.9
			c-2.8,2.7-5.7,5.4-8.5,8.1C937.6,539.5,937.6,539.7,937.5,539.9z"/>
		<path class="st9" d="M1011.5,538.2c-1.4-0.1-2.8-0.2-4.2-0.2c-0.3,0-0.7,0.3-1,0.4c-1.1,0.1-2.2,0.1-3.3,0.1
			c-1.2-0.1-2.4-0.1-3.6-0.2c-0.6-0.1-1.3-0.1-1.9-0.2c-0.2,0-0.3,0-0.5,0c-0.8-0.6-5.4-0.6-6.2,0c-2.5,0-5,0-7.4,0
			c0-0.1,0-0.2,0-0.2c0.3-1.4,1.3-1.7,2.6-1.7c2.4,0.1,4.8,0,7.1,0c3.6-0.1,7.3-0.2,10.9-0.2c2.3,0,4.5,0.5,6.7-0.6
			c0.3-0.1,1,0.3,1.3,0.7C1012.5,537,1012.1,537.7,1011.5,538.2z"/>
		<path class="st20" d="M958.6,519.3c0.5-1,0.9-2.1,1.4-3.1c0.1,0.2,0.2,0.3,0.3,0.5c0.1,0.3,0.2,0.6,0.2,1
			C959.8,518.2,959.2,518.8,958.6,519.3z"/>
		<path class="st25" d="M957.1,503c0,0.3,0,0.6,0,1c-0.2,2.1-0.2,4.3-0.6,6.4c-0.4,2.8-1.3,5.4-3.2,7.6c-1.8,2-3.6,3.9-5.4,5.9
			c-0.3,0.4-0.6,0.8-0.9,1.2c-0.2,0.2-0.3,0.3-0.5,0.5c-0.1,0.2-0.2,0.3-0.2,0.5c-1.1,1.1-2.2,2.2-3.4,3.4c-0.4-0.8-0.7-0.1-1,0.1
			c-3.3,2.8-6.9,5-11.3,5.5c-0.6,0.1-1.1,0.4-1.7,0.6c-0.2,0-0.5,0-0.7,0c-0.3,0.1-0.6,0.2-1,0.2c-0.9,0.1-1.8,0.2-2.6,0.2
			c-0.3-0.1-0.7-0.2-1-0.2c-4.2,0-8.4,0-12.6,0c-0.3,0-0.7,0.2-1,0.2c-0.2,0-0.5,0-0.7,0c-0.2-0.1-0.5-0.2-0.7-0.2
			c-0.2-0.1-0.3-0.2-0.5-0.2c-0.6-0.6-1.3-1.3-1.9-1.9c-0.3-0.3-0.6-0.6-1-1c0,0,0,0,0,0c-0.1-0.3-0.1-0.6-0.2-0.8
			c-0.9-2.1-0.6-3.8,0.9-5.6c2-2.3,4.6-3.7,7.6-4.2c4.8-0.8,9.7-1.6,14.2-3.7c2-0.9,3.8-2.3,5.8-3.5c0.2-0.2,0.3-0.3,0.5-0.5
			c0.6-0.6,1.3-1.3,1.9-1.9c0.2-0.2,0.5-0.5,0.7-0.7c0.2-0.3,0.5-0.6,0.7-1c0-0.1,0-0.2,0-0.2c0.7-0.8,1.4-1.5,2-2.3
			c1.2-1.7,2.1-3.5,2.1-5.6c0-0.2,0-0.5,0-0.7c0.1-0.9,0.2-1.9,0.4-2.8c0.8-3.7,3.2-5.7,6.6-6.8c2-0.6,5.1,0.1,6.1,1.9
			c0.9,1.6,1.4,3.5,2,5.3C956.9,500.7,957,501.9,957.1,503z M915.4,535c1.7-0.2,3.4-0.1,5.1-0.5c3.9-1,7.9-2,11.7-3.3
			c4.8-1.6,9-4.3,12.6-8c3.2-3.4,5.8-7.4,8.5-11.2c1.9-2.8,2.6-5.8,2.4-9.1c-0.2-3.2-2.2-6.1-5-7.1c-2-0.7-4.3,0.3-4.8,2.4
			c-0.4,1.6-0.5,3.4-0.5,5.1c0,1.8-0.5,3.5-1.5,5c-0.8,1.3-1.6,2.6-2.5,3.8c-2.2,2.9-4.5,5.8-7.8,7.7c-5.2,3-10.9,4.7-16.8,5.7
			c-1.8,0.3-3.7,0.7-5.5,1.2c-2.1,0.6-3.5,2.6-3.3,4.3c0.3,2.1,1.7,3.4,4.2,3.8C913.3,534.8,914.3,534.9,915.4,535z"/>
		<path class="st19" d="M957.1,503c-0.2-1.1-0.2-2.3-0.5-3.4c-0.5-1.8-1.1-3.7-2-5.3c-1-1.8-4.1-2.5-6.1-1.9
			c-3.5,1.1-5.9,3.2-6.6,6.8c-0.2,0.9-0.2,1.9-0.4,2.8c-0.6-1.9,0-3.6,0.5-5.4c0.2-0.8,0.5-1.5,0.7-2.2c1.3-1.6,2.9-2.9,5-3.1
			c1,0.1,2,0.2,3.1,0.4c2.1,0.4,3.8,1.5,5.3,2.9c0.4,0.8,0.8,1.6,1.2,2.4c0,1.6,0,3.2,0,4.7C957.3,502.2,957.2,502.6,957.1,503z"/>
		<path class="st19" d="M933.6,515c-1.9,1.2-3.7,2.6-5.8,3.5c-4.5,2.1-9.3,2.9-14.2,3.7c-3,0.5-5.6,1.9-7.6,4.2
			c-1.5,1.7-1.8,3.4-0.9,5.6c0.1,0.2,0.1,0.5,0.2,0.8c-0.8-0.9-1.6-1.8-2.4-2.6c0.7,0.1,1.1-0.3,1.2-1c1-4.5,4.2-6.4,8.3-7.1
			c4.7-0.9,9.6-1.5,14-3.4c2.1-0.9,4.1-2.1,6.1-3.2C933,515.2,933.3,515.1,933.6,515z"/>
		<path class="st19" d="M941.5,502.8c0,2.1-0.9,3.9-2.1,5.6c-0.6,0.8-1.3,1.5-2,2.3c0.5-0.8,1.1-1.6,1.5-2.4
			c0.8-1.6,1.4-3.3,2.1-4.9C941.2,503.2,941.4,503,941.5,502.8z"/>
		<path class="st19" d="M936,512.6c-0.6,0.6-1.3,1.3-1.9,1.9C934.8,513.9,935.4,513.2,936,512.6z"/>
		<path class="st19" d="M937.5,510.9c-0.2,0.3-0.5,0.6-0.7,1C937,511.6,937.2,511.2,937.5,510.9z"/>
		<path class="st27" d="M891,508.3c0-0.2,0-0.5,0-0.7c0.1-0.5,0.2-0.9,0.2-1.4c0-2,0-4,0-6.1c0.2-0.2,0.4-0.4,0.4-0.6
			c-0.1-3.3,1-6.3,2.5-9.1c1.6-3.1,3.1-6.3,4.9-9.3c2-3.3,5-5.5,8.3-7.4c3.6-2,7.4-3.5,11.4-4.1c4.6-0.7,9.2-0.5,13.7,0.8
			c2.7,0.8,5.3,1.6,7.6,3.3c3.7,2.8,5.8,6.5,6.5,11c0.4,2.4-1,4-2.6,5.3c-2.7,2.1-5.7,2.2-8.9,1.3c-2.1-0.6-4.4-1.1-6.6-1.2
			c-4-0.3-7.5,1.4-10.8,3.4c-2.2,1.3-4.3,2.9-5.7,5.2c-1.5,2.5-2.6,5.1-3,8c-0.4,3.1-0.7,6.2-1.2,9.3c-0.5,3.2-2.3,5.1-5.4,5.5
			c-2.4,0.4-4.5-0.8-6-2.6c-1.6-2-2.9-4.4-4.3-6.6c-0.4-0.6-0.6-1.2-0.8-1.9C891.1,509.7,891.1,509,891,508.3z M893.4,505.5
			c0,0.4,0,0.8,0,1.2c0,4.8,2.4,8.2,6.4,10.4c0.9,0.5,2,1,3,0c1.5-1.5,1.9-3.6,2.5-5.5c0.5-1.6,0.7-3.4,0.8-5.2
			c0.4-4.5,2-8.5,4.6-12.1c0.5-0.7,1.2-1.4,1.8-2.1c2.1-2.9,4.8-4.9,8.4-5.3c2-0.3,4-0.5,6-0.4c2.1,0.1,4.2,0.7,6.3,1
			c2.2,0.4,4.3,0.7,6.5,1c1.7,0.2,2.8-0.4,3.2-1.6c0.7-1.9,0.7-3.8,0-5.7c-1.4-4.2-4.8-6.1-8.5-7.1c-3.2-0.8-6.6-1.1-9.9-1.3
			c-2.9-0.2-5.7,0.5-8.4,1.5c-3.9,1.3-7.4,3.4-10.7,5.7c-2.2,1.5-4,3.3-5.1,5.7c-0.7,1.4-1.5,2.8-2.4,4.1
			C894.9,494.7,893.1,499.8,893.4,505.5z"/>
		<path class="st19" d="M891,496.8c-0.1-1.7-0.3-3.3-0.2-5c0.1-2.5,0.2-5,0.6-7.5c0.1-0.8,0.7-1.6,1.3-2.2c2.2-2,4.5-3.8,6.7-5.7
			c-0.2,0.4-0.3,0.9-0.6,1.2c-1,1-2,2-3.2,2.9c-2.6,2-3.9,4.5-3.9,7.8c0,2.5-0.1,5-0.2,7.5C891.4,496.1,891.2,496.5,891,496.8z"/>
		<path class="st0" d="M906.8,469.7c0.1,0,0.2,0,0.2-0.1c1.5-1.6,3.3-1.7,5.3-1.4c1.2,0.2,2.4-0.1,3.6-0.2c-0.8,0.2-1.6,0.5-2.4,0.7
			c-0.5,0.1-1,0.1-1.5,0.1c-2.2-0.1-3.9,1.1-5.7,2.2c-0.4,0.3-0.9,0.4-1.4,0.6c0.1-0.2,0.2-0.3,0.2-0.5c0.2-0.2,0.3-0.3,0.5-0.5
			c0.2-0.2,0.5-0.5,0.7-0.7C906.5,469.9,906.6,469.8,906.8,469.7z"/>
		<path class="st19" d="M891.2,500.1c0,2,0,4,0,6.1c0,0.5-0.1,0.9-0.2,1.4c-0.1-0.4-0.2-0.8-0.2-1.3c0-2.1,0-4.2,0-6.3
			c0-0.4,0.1-0.8,0.2-1.3C891.1,499.2,891.2,499.7,891.2,500.1z"/>
		<path class="st19" d="M891,508.3c0.1,0.7,0.2,1.4,0.2,2.2c-0.1,0.3-0.2,0.6-0.2,1C890.3,510.4,890.8,509.3,891,508.3z"/>
		<path class="st5" d="M902,473.8c0.5-0.4,1-0.8,1.4-1.2c-0.2,0.2-0.3,0.5-0.5,0.7C902.7,473.5,902.3,473.6,902,473.8z"/>
		<path class="st0" d="M903,473.3c0.2-0.2,0.3-0.5,0.5-0.7c0.2-0.2,0.3-0.3,0.5-0.5c0.2,0,0.3,0,0.5,0
			C903.9,472.5,903.4,472.9,903,473.3z"/>
		<path class="st5" d="M904.4,472.1c-0.2,0-0.3,0-0.5,0c0.4-0.3,0.8-0.6,1.2-1c-0.1,0.2-0.2,0.3-0.2,0.5
			C904.7,471.8,904.6,471.9,904.4,472.1z"/>
		<path class="st5" d="M899.9,475.7c0.3-0.2,0.6-0.5,1-0.7c-0.2,0.2-0.3,0.5-0.5,0.7C900.2,475.7,900,475.7,899.9,475.7z"/>
		<path class="st0" d="M924.8,468c0.3,0,0.6,0,1,0C925.4,468.7,925.1,468.7,924.8,468z"/>
		<path class="st19" d="M899.9,475.7c0.2,0,0.3,0,0.5,0c-0.2,0.2-0.5,0.3-0.7,0.5C899.7,476,899.8,475.9,899.9,475.7z"/>
		<path class="st21" d="M956.2,494.6c-1.5-1.5-3.2-2.6-5.3-2.9c-1-0.2-2-0.3-3.1-0.4c0.3-0.3,0.6-0.7,0.9-1c0.5-0.5,0.9-0.9,1.4-1.4
			c0.3-0.3,0.7-0.6,1.1-0.7c0.8-0.1,1.1-0.5,1.1-1.3c0.1-2.5-0.3-4.9-2.2-6.8c-1-1-1.6-2.2-2.4-3.4c0.1,0.1,0.3,0.1,0.4,0.2
			c2.1,2.3,4.7,4,7.3,5.6c0.2,0.1,0.3,0.3,0.4,0.5c-1.8,1.6-2.1,5.1-0.4,6.8c0.2,0.2,0.4,0.5,0.4,0.8
			C956,491.9,956.1,493.2,956.2,494.6z"/>
		<path class="st21" d="M946.3,475.2c0.4,0.4,0.8,0.8,1.2,1.2C946.8,476.4,946.4,476,946.3,475.2z"/>
		<path class="st14" d="M908.7,539.2c3,0,6.1-0.1,9.1-0.1c0.5,0.1,0.9,0.2,1.4,0.2c2,0,4,0,6.1,0.1c0.3,0.5,0.5,0.5,0.7,0
			c0.2,0,0.5,0,0.7,0c0.4,0.1,0.8,0.2,1.3,0.2c1.6,0,3.3,0,4.9,0c0.8,0,1.6,0.3,2.3,0.5c-0.2,0.4-0.4,0.6-0.6,0.6
			c-1.2,0.1-2.4,0.2-3.6,0.3c-3,0.1-6,0.1-8.9,0.3c-4.1,0.3-8.1,0.3-12.1-0.3c-0.8-0.1-1.4-0.4-1.3-1.4
			C908.7,539.3,908.7,539.2,908.7,539.2z"/>
		<path class="st18" d="M908.7,539.4c-0.1,1,0.5,1.3,1.3,1.4c4,0.6,8.1,0.7,12.1,0.3c3-0.2,6-0.2,8.9-0.3c1.2,0,2.4-0.2,3.6-0.3
			c0.2,0,0.4-0.2,0.6-0.6c-0.8-0.2-1.6-0.5-2.3-0.5c-1.6-0.1-3.3,0-4.9,0c-0.4,0-0.8-0.1-1.3-0.2c0-0.1,0-0.2,0-0.3c2,0,4-0.1,6,0
			c1.2,0.1,2.4,0.6,3.6,0.9c0,0.1,0,0.2,0,0.3c-0.3,0.3-0.6,0.6-0.9,0.7c-1,0.2-2,0.4-2.9,0.4c-6,0.2-11.9,0.4-17.9,0.5
			c-1.7,0-3.4-0.2-5.1-0.5c-1.2-0.2-1.5-0.7-1.2-1.9C908.4,539.4,908.6,539.4,908.7,539.4z"/>
		<path class="st3" d="M910.2,536.1c0.3-0.1,0.7-0.2,1-0.2c4.2,0,8.4,0,12.6,0c0.3,0,0.7,0.1,1,0.2c-0.3,0.1-0.7,0.2-1,0.2
			c-4.2,0-8.4,0-12.6,0C910.8,536.3,910.5,536.2,910.2,536.1z"/>
		<path class="st3" d="M928.4,535.6c0.2,0,0.5,0,0.7,0c0.2,0.1,0.5,0.2,0.7,0.2c0,0.1,0,0.2,0,0.2c-0.3,0-0.6,0-1,0
			c-0.2-0.1-0.3-0.2-0.5-0.2C928.4,535.8,928.4,535.7,928.4,535.6z"/>
		<path class="st19" d="M928.4,535.6c0,0.1,0,0.2,0,0.2c-0.3,0-0.6,0-1,0C927.7,535.8,928.1,535.7,928.4,535.6z"/>
		<path class="st19" d="M905.4,532.7c0.3,0.3,0.6,0.6,1,1C906,533.4,905.7,533.1,905.4,532.7z"/>
		<path class="st19" d="M908.2,535.6c0.2,0.1,0.3,0.2,0.5,0.2C908.6,535.8,908.4,535.7,908.2,535.6z"/>
		<path class="st23" d="M956.2,494.6c-0.1-1.4-0.1-2.8-0.3-4.1c0-0.3-0.2-0.6-0.4-0.8c-1.6-1.7-1.4-5.2,0.4-6.8
			c0.8,0.3,1.6,0.6,2.4,1c-0.2,1-0.3,1.9-0.5,2.9c0,0.2,0,0.5,0,0.7c-0.1,0.2-0.2,0.3-0.2,0.5c-0.2,0.8-0.3,1.6-0.5,2.4
			c-0.1,0.5-0.3,0.9-0.2,1.4c0.1,1.8,0.3,3.6,0.5,5.3C957,496.2,956.6,495.4,956.2,494.6z"/>
		<path class="st19" d="M947.1,525.1c0.3-0.4,0.5-0.9,0.9-1.2c1.8-2,3.6-3.9,5.4-5.9c2-2.1,2.8-4.8,3.2-7.6c0.3-2.1,0.4-4.3,0.6-6.4
			c0.2,0.3,0.4,0.7,0.4,1c0,1.7-0.1,3.3-0.2,5c-0.1,2.1,0,4.2-1.1,6.2c0,0.1,0.1,0.2,0.1,0.3c-0.2,0.2-0.3,0.3-0.5,0.5
			c-0.3,0.4-0.6,0.8-1,1.2c-0.2,0.2-0.5,0.5-0.7,0.7c-0.5,0.4-1,0.8-1.4,1.2c-1.1,1-2.2,2.1-3.4,3.1
			C948.7,523.8,947.9,524.4,947.1,525.1z"/>
		<path class="st24" d="M960,498.9c0.2,1.3,0.4,2.6,0.5,3.9c0.1,2.5,0,5,0,7.5c0,0.3-0.2,0.6-0.2,0.9c-0.1-0.6-0.4-1.2-0.4-1.8
			c-0.1-1.7-0.2-3.4-0.2-5.1C959.7,502.5,959.9,500.7,960,498.9z"/>
		<path class="st24" d="M960.3,516.7c-0.1-0.2-0.2-0.3-0.3-0.5c-0.1-0.1-0.2-0.2-0.2-0.2c0-0.2,0-0.3,0-0.5c0-0.8,0-1.7,0-2.5
			c0-0.4,0.3-0.7,0.4-1.1c0,1,0,1.9,0,2.9c0,0.9,0.4,1.5,1.4,1.5c0,0.1,0,0.2,0,0.3C961.2,516.5,960.7,516.6,960.3,516.7z"/>
		<path class="st20" d="M959.8,515.5c0,0.2,0,0.3,0,0.5c-1,0.2-2.1,0.3-3.1,0.5C957.7,515.1,958.2,515,959.8,515.5z"/>
		<path class="st5" d="M963.8,493.2c-0.1,2.4-0.2,4.8-0.2,7.2c0,0.2,0.1,0.4,0.2,0.7c-0.1,0.4-0.2,0.8-0.2,1.2c0,1.4,0,2.9,0,4.3
			c0,0.6,0,1.1,0,1.7c0,1,0,2,0,3c0,1.2-0.2,2.3-0.2,3.5c-0.2-1.1-0.6-2.1-0.7-3.2c-0.5-5.3-0.4-10.7,0.3-16
			C963,494.7,963.5,494,963.8,493.2z"/>
		<path class="st19" d="M963.4,514.8c0.1-1.2,0.2-2.3,0.2-3.5c0-1,0-2,0-3c0.2,0.4,0.4,0.8,0.5,1.2c0.1,1.8,0.2,3.7,0.3,5.6
			c0.1,0.9-0.3,1.2-1,1.1c0-0.2,0-0.5,0-0.7C963.4,515.2,963.4,515,963.4,514.8z"/>
		<path class="st5" d="M963.4,515.5c0,0.2,0,0.5,0,0.7c-0.3,0.1-0.6,0.2-1,0.2C962.7,516.1,963,515.8,963.4,515.5z"/>
		<path class="st3" d="M957.6,487.9c0.1-0.2,0.2-0.3,0.2-0.5C957.8,487.6,957.7,487.8,957.6,487.9z"/>
		<path class="st24" d="M906.3,470c-0.2,0.2-0.5,0.5-0.7,0.7C905.8,470.4,906.1,470.2,906.3,470z"/>
		<path class="st3" d="M1007.2,610.6c-0.2,0.1-0.3,0.2-0.5,0.2C1006.9,610.8,1007,610.7,1007.2,610.6z"/>
		<path class="st18" d="M1002.9,538.6c1.1,0,2.2-0.1,3.3-0.1c1.4,0,2.7,0.1,4.1,0.1c0.3,0.7,0.1,1.1-0.8,1.2
			c-5.2,0.4-10.3,0.8-15.4,1.2c-3.1,0.2-6.2,0.4-9.3,0.4c-0.5,0-1.2-0.4-1.4-0.8c-0.2-0.3,0.2-1.1,0.4-1.5c0.2-0.2,0.7-0.3,1.1-0.3
			c3.2,0,6.4,0.2,9.7,0.2c0.9,0,1.9-0.2,2.8-0.4c0.3,0,0.6,0,1,0C999.2,539.1,1002,539.1,1002.9,538.6z"/>
		<path class="st20" d="M990.7,538.2c0.8-0.6,5.4-0.6,6.2,0C994.8,538.2,992.8,538.2,990.7,538.2z"/>
		<path class="st20" d="M998.3,538.5c-0.3,0-0.6,0-1,0c0-0.1,0-0.2,0-0.3c0.6,0.1,1.3,0.1,1.9,0.2
			C999,538.5,998.7,538.5,998.3,538.5z"/>
		<path class="st13" d="M903.8,561.3c4.7-5.6,10.5-9.8,17-12.7c1.7-0.7,3.6-0.8,5.5-1.1c3.8-0.5,7.7-0.6,11.5,0.4
			c3.1,0.8,5.7,2.5,7.8,4.8c1.4,1.6,1.3,3.5,0.6,5.3c-0.8,1.9-2.4,2.9-4.5,3c-2.3,0.2-4.5-0.6-6.7-1.1c-1.5-0.3-3.1-0.5-4.7-0.6
			c-1.4-0.1-2.8,0-4.1,0c-5.5,0.1-10.5,1.5-15.4,4.2c-3.3,1.8-5.7,4.2-6.9,7.7c-0.8,2.1-1,4.3-1.3,6.5c-0.4,2.6-0.4,5.2-1,7.7
			c-0.4,1.6-1.3,3.1-2.2,4.5c-0.7,1.1-2,1.1-3.1,0.7c-3.3-1.2-5.7-4.5-4.3-8.5c1.6-4.5,3.8-8.8,6-13c0.3-0.6,0.7-1.1,1.1-1.6
			c0.2-0.2,0.6-0.5,0.7-0.4c0.2,0.2,0.4,0.5,0.5,0.8c0.2,0.3,0.3,0.7,0.4,1.1c0.2-0.3,0.6-0.6,0.7-1c0.3-1.1,0.6-2.1,1.6-2.9
			c0.7-0.6,1-1.8,1.3-2.8C904.4,562.1,904,561.7,903.8,561.3z"/>
		<path class="st23" d="M940.1,547.1c0.2,0.2,0.3,0.3,0.5,0.5C940.4,547.4,940.3,547.3,940.1,547.1z"/>
		<path class="st5" d="M969.6,548.1c1.1-1.1,2.1-2.3,3.2-3.4c1.2-1.3,2.5-2.5,3.8-3.7c0.5-0.5,1.1-1,1.9-0.6c-0.3,0.3-0.6,0.6-1,1
			c-0.2,0.2-0.5,0.3-0.7,0.5c-0.1,0.1-0.2,0.2-0.2,0.2c-0.4,0.5-0.8,1-1.2,1.4c-1.7,1.5-3.5,3-5.2,4.5
			C970,548.1,969.8,548.1,969.6,548.1z"/>
		<path class="st5" d="M965.8,552.1c0.3-0.3,0.6-0.6,1-1c0.1-0.1,0.2-0.2,0.2-0.2c0,0,0,0,0,0c0.2,0,0.3,0,0.5,0
			c-0.6,0.6-1.1,1.1-1.7,1.7C965.8,552.5,965.8,552.3,965.8,552.1z"/>
		<path class="st12" d="M967.4,550.9c-0.2,0-0.3,0-0.5,0c0.4-0.5,0.8-1,1.2-1.4l0,0c0,0.2,0,0.5,0,0.7
			C967.9,550.5,967.7,550.7,967.4,550.9z"/>
		<path class="st10" d="M975.3,543.5c0.4-0.5,0.8-1,1.2-1.4C976.1,542.6,975.7,543,975.3,543.5z"/>
		<path class="st12" d="M965.8,552.1c0,0.2,0,0.3,0,0.5c-0.2,0.2-0.3,0.5-0.5,0.7c-0.1,0-0.2,0-0.2,0
			C965.3,552.9,965.5,552.5,965.8,552.1z"/>
		<path class="st12" d="M968.1,549.5c0.2-0.2,0.5-0.5,0.7-0.7c0,0.2,0,0.3,0,0.5c-0.1,0.1-0.2,0.2-0.2,0.2
			C968.5,549.5,968.3,549.5,968.1,549.5L968.1,549.5z"/>
		<path class="st5" d="M968.9,549.3c0-0.2,0-0.3,0-0.5c0.2-0.1,0.3-0.2,0.5-0.2C969.2,548.8,969,549,968.9,549.3z"/>
		<path class="st10" d="M976.8,541.8c0.2-0.2,0.5-0.3,0.7-0.5C977.3,541.5,977,541.7,976.8,541.8z"/>
		<path class="st5" d="M968.2,549.5c0.2,0,0.3,0,0.5,0c-0.2,0.2-0.3,0.5-0.5,0.7C968.1,550,968.1,549.7,968.2,549.5z"/>
		<path class="st10" d="M958.8,558.9c0.2-0.2,0.3-0.3,0.5-0.5C959.1,558.5,959,558.7,958.8,558.9z"/>
		<path class="st10" d="M958.8,559.8c0-0.2,0-0.3,0-0.5C958.8,559.5,958.8,559.6,958.8,559.8z"/>
		<path class="st12" d="M962.4,555.5c0.2-0.2,0.5-0.5,0.7-0.7C962.9,555,962.6,555.3,962.4,555.5z"/>
		<path class="st12" d="M961.2,556.5c0.2-0.2,0.3-0.3,0.5-0.5C961.5,556.1,961.4,556.3,961.2,556.5z"/>
		<path class="st12" d="M966.9,550.9c-0.1,0.1-0.2,0.2-0.2,0.2C966.8,551.1,966.9,551,966.9,550.9z"/>
		<path class="st19" d="M963.6,506.6c0-1.4,0-2.9,0-4.3c0.1,0.1,0.4,0.3,0.4,0.4C963.9,504,964.6,505.4,963.6,506.6z"/>
		<path class="st9" d="M926.7,538.9c0,0.1,0,0.2,0,0.3c-0.2,0-0.5,0-0.7,0c-0.2,0-0.5,0-0.7,0c-2,0-4,0-6.1-0.1
			c-0.5,0-0.9-0.1-1.4-0.2c0.3-0.3,0.5-0.7,0.8-0.8c3.2-0.4,6.5-0.7,9.7-1c2.3-0.2,4.7-0.4,7-0.6c0.4,0,1.1,0.1,1.2,0.4
			c0.2,0.4,0.2,1-0.1,1.4c-0.1,0.2-0.8,0.4-1.1,0.3c-2.6-1.1-5.2-0.4-7.8-0.4C927.3,538.5,927,538.8,926.7,538.9z"/>
		<path class="st20" d="M947.1,525.1c0.8-0.6,1.6-1.3,2.4-1.9c0.4-0.2,0.9-0.4,1.3-0.7c0.7-0.6,1.4-1.3,2.1-1.9
			c-0.8,1.2-1.5,2.5-2.5,3.5c-3.5,3.9-7.3,7.5-11.4,10.7c-0.7,0.5-1.4,1.2-2.4,0.6c0.6-0.6,1.3-1.1,1.9-1.7c0,0,0,0,0,0
			c0.3-0.3,0.6-0.6,1-1c1.2-1.1,2.4-2.2,3.6-3.4c1.1-1.1,2.2-2.2,3.4-3.4c0.1-0.2,0.2-0.3,0.2-0.5
			C946.7,525.4,946.9,525.2,947.1,525.1z"/>
		<path class="st19" d="M943,529.4c-1.2,1.1-2.4,2.2-3.6,3.4c-0.3,0.3-0.6,0.6-1,1c0,0,0,0,0,0c-0.8,0.6-1.6,1.1-2.4,1.7
			c-0.3,0.1-0.6,0.2-1,0.2c-0.3,0-0.6,0-1,0c-0.8-0.3-1.7-0.6-2.4,0.2c-0.6,0-1.3,0-1.9,0c-0.2-0.1-0.5-0.2-0.7-0.2
			c0.6-0.2,1.1-0.6,1.7-0.6c4.4-0.5,8-2.6,11.3-5.5C942.3,529.3,942.6,528.6,943,529.4z"/>
		<path class="st13" d="M952.8,520.5c-0.7,0.6-1.3,1.3-2.1,1.9c-0.4,0.3-0.9,0.5-1.3,0.7c1.1-1,2.2-2.1,3.4-3.1c0,0.1,0,0.2,0,0.2
			C952.8,520.4,952.8,520.4,952.8,520.5z"/>
		<path class="st20" d="M929.8,535.8c0.6,0,1.3,0,1.9,0c0.2,0,0.5,0,0.7,0c-0.8,0.9-1.7,0.5-2.6,0.2
			C929.8,536,929.8,535.9,929.8,535.8z"/>
		<path class="st3" d="M936,535.4c0.8-0.6,1.6-1.1,2.4-1.7c-0.6,0.6-1.3,1.1-1.9,1.7C936.4,535.4,936.2,535.4,936,535.4z"/>
		<path class="st3" d="M932.4,535.9c-0.2,0-0.5,0-0.7,0c0.7-0.9,1.6-0.5,2.4-0.2c0,0.1,0,0.2,0,0.2
			C933.6,535.8,933,535.8,932.4,535.9z"/>
		<path class="st20" d="M952.8,520.3c0-0.1,0-0.2,0-0.2c0.5-0.4,1-0.8,1.4-1.2C954.2,519.7,953.7,520.2,952.8,520.3z"/>
		<path class="st20" d="M955,518.1c0.3-0.4,0.6-0.8,1-1.2C955.6,517.3,955.3,517.7,955,518.1z"/>
		<path class="st20" d="M934.1,535.8c0-0.1,0-0.2,0-0.2c0.3,0,0.6,0,1,0C934.8,535.7,934.4,535.8,934.1,535.8z"/>
		<path class="st17" d="M998.3,538.5c0.3,0,0.6-0.1,1-0.1c1.2,0.1,2.4,0.1,3.6,0.2C1002,539.1,999.2,539.1,998.3,538.5z"/>
		<path class="st12" d="M915.4,535c-1.1-0.1-2.2-0.2-3.2-0.3c-2.5-0.3-3.9-1.6-4.2-3.8c-0.2-1.7,1.2-3.7,3.3-4.3
			c1.8-0.5,3.6-0.9,5.5-1.2c5.9-1,11.6-2.6,16.8-5.7c3.2-1.9,5.5-4.8,7.8-7.7c0.9-1.2,1.7-2.5,2.5-3.8c1-1.5,1.5-3.1,1.5-5
			c0-1.7,0.1-3.4,0.5-5.1c0.5-2.1,2.8-3,4.8-2.4c2.8,0.9,4.9,3.9,5,7.1c0.2,3.3-0.5,6.3-2.4,9.1c-2.7,3.9-5.3,7.8-8.5,11.2
			c-3.5,3.8-7.8,6.4-12.6,8c-3.8,1.3-7.8,2.3-11.7,3.3C918.9,534.9,917.1,534.8,915.4,535z"/>
		<path class="st19" d="M946.6,525.5c-0.1,0.2-0.2,0.3-0.2,0.5C946.4,525.9,946.5,525.7,946.6,525.5z"/>
		<path class="st13" d="M893.4,505.5c-0.3-5.7,1.5-10.8,4.5-15.6c0.9-1.3,1.7-2.7,2.4-4.1c1.1-2.4,2.9-4.2,5.1-5.7
			c3.4-2.3,6.8-4.4,10.7-5.7c2.7-0.9,5.5-1.7,8.4-1.5c3.3,0.3,6.7,0.5,9.9,1.3c3.8,1,7.2,2.9,8.5,7.1c0.6,1.9,0.7,3.8,0,5.7
			c-0.5,1.2-1.5,1.8-3.2,1.6c-2.2-0.3-4.3-0.7-6.5-1c-2.1-0.4-4.2-0.9-6.3-1c-2-0.1-4,0.1-6,0.4c-3.6,0.5-6.3,2.5-8.4,5.3
			c-0.5,0.7-1.2,1.4-1.8,2.1c-2.6,3.6-4.2,7.6-4.6,12.1c-0.1,1.7-0.3,3.5-0.8,5.2c-0.6,1.9-1,4-2.5,5.5c-1,0.9-2.1,0.5-3,0
			c-4-2.3-6.4-5.6-6.4-10.4C893.4,506.3,893.4,505.9,893.4,505.5z"/>
		<path class="st18" d="M925.3,539.3c0.2,0,0.5,0,0.7,0C925.7,539.7,925.5,539.8,925.3,539.3z"/>
		<path class="st3" d="M938.4,533.7c0.3-0.3,0.6-0.6,1-1C939.1,533.1,938.8,533.4,938.4,533.7z"/>
	</g>
</g>
</svg>
