<?xml version="1.0" encoding="utf-8"?>
<!-- Generator: Adobe Illustrator 24.0.0, SVG Export Plug-In . SVG Version: 6.00 Build 0)  -->
<svg version="1.1" id="Layer_1" xmlns="http://www.w3.org/2000/svg" xmlns:xlink="http://www.w3.org/1999/xlink" x="0px" y="0px"
	 viewBox="0 0 1920 1080" style="enable-background:new 0 0 1920 1080;" xml:space="preserve">
<style type="text/css">
	.st0{fill:#8100B6;}
	.st1{fill:#FDFCFD;}
	.st2{fill:#7C00B2;}
	.st3{fill:#7B00B1;}
	.st4{fill:#8900B8;}
	.st5{fill:#7900AF;}
	.st6{fill:#7200A9;}
	.st7{fill:#9100C1;}
	.st8{fill:#8F00BF;}
	.st9{fill:#7200AA;}
	.st10{fill:#9F03CF;}
	.st11{fill:#9F00CE;}
	.st12{fill:#8B00BC;}
	.st13{fill:#9A00C9;}
	.st14{fill:#63009B;}
	.st15{fill:#9200C3;}
	.st16{fill:#9D05CF;}
	.st17{fill:#6900A3;}
	.st18{fill:#7F00B4;}
	.st19{fill:#8200B6;}
	.st20{fill:#9700C6;}
	.st21{fill:#A527D2;}
	.st22{fill:#A72CD3;}
	.st23{fill:#A323D1;}
	.st24{fill:#7800AD;}
	.st25{fill:#8400B7;}
	.st26{fill:#7B00B2;}
</style>
<g>
	<g>
		<path class="st0" d="M1036,468.3c0,47.6,0,95.2,0,142.8c-1.2,3.5-3.7,5.3-7.6,5.3c-45.1,0-90.2,0-135.2,0c-5,0-7.9-2.9-7.9-8
			c0-36.5,0-73.1,0-109.6c0-9.4,0-18.8,0-28.3c0-3.4,1.7-5.8,4.8-7.1c0.2-0.1,0.5-0.3,0.7-0.4c46.6,0,93.1,0,139.7,0
			c0.2,0.1,0.3,0.2,0.5,0.3C1033.5,464,1035.1,465.7,1036,468.3z M1028.1,595.5c-0.2,0.2-0.3,0.3-0.5,0.5c-0.1,0.1-0.2,0.2-0.2,0.2
			c-0.9,0.9-1.8,1.7-2.7,2.6c-2.5,2.5-5,5.1-7.6,7.6c-0.2,0.2-0.2,0.4-0.3,0.6l0,0c-0.3,0.2-0.6,0.5-1,0.7c-0.6,0.5-1.3,0.9-1.7,1.5
			c-0.6,1-1.5,1.2-2.5,1.1c-0.4,0-0.7,0-1.1,0c-0.8,0.1-1.6,0.2-2.4,0.2c-0.2,0-0.3,0-0.5,0c-0.2,0.1-0.3,0.2-0.5,0.2
			c-0.4,0.1-0.8,0.2-1.2,0.2c-0.2-0.1-0.3-0.2-0.5-0.2c-0.6,0-1.3,0-1.9,0c-0.3,0-0.6,0-1,0c-0.6,0-1.3,0-1.9,0c-0.2,0-0.3,0-0.5,0
			c-0.7,0-1.4,0-2.2,0c-2.6,0-5.1,0-7.7,0c-1.7,0-3.4,0-5,0c-0.2,0-0.5,0-0.7,0c-0.3,0-0.6,0-1,0c-0.1,0-0.2,0-0.2,0
			c-1.2-1.1-2.4-2.2-3.5-3.3c-3.6-3.5-7.1-7-10.6-10.6c-1.8-1.9-3.1-4.4-6.2-4.5c0.3-0.8,0.7-1.5,0.9-2.3c0.1-0.5,0-1.1,0-1.6
			c0.1-1.8,0.3-3.6,0.2-5.4c0-1.7-0.4-3.3-0.4-5c-0.1-4.3-0.2-8.5-0.3-12.8c0-0.5,0-1,0-1.4c0-0.5,0-1,0-1.4c-0.2-0.9,0.2-1.5,1-1.9
			c0.5-0.5,1.1-1,1.6-1.5c3.5-3.6,7-7.1,10.4-10.7c1.4-1.4,2.9-2.9,4.3-4.3c0.3-0.3,0.9-0.5,1.4-0.6c2-0.1,4-0.2,6-0.3
			c2-0.1,4-0.4,6.1-0.4c2.9,0,5.7,0.1,8.6,0.1c2.9,0.1,5.9,0.1,8.8,0.2c0.6,0,1.4,0.1,1.9,0.5c4.7,3.8,9.4,7.7,14.1,11.6
			c1.3,1.1,2.6,2.7,4.6,1.1c0.1,0,0.2-0.1,0.2-0.1c1.5-0.4,1.8-1.1,1-2.5c-0.2-0.4-0.5-0.7-0.9-1c-1.7-1.4-3.4-2.9-5.1-4.3
			c-2.2-1.7-4.5-3.4-6.8-5.1c-1.9-1.4-3.8-2.8-5.8-4.2c-0.5-0.4-1.1-0.7-1.6-1c1.8,0.3,3.1-0.6,4.3-1.8c1.5-1.5,3-3,4.5-4.5
			c0.8-0.8,1.7-1.6,2.5-2.4c2-2.1,4-4.2,6-6.3c0.9-0.9,1.8-1.7,2.6-2.7c1.8-2.1,1.3-4.7,1.2-7.1c-0.1-1-0.3-2.1-0.4-3.1
			c-0.1,0-0.3,0-0.4,0c-0.2,0.4-0.4,0.7-0.6,1.1c-0.3,1-0.5,2-0.9,3c-0.3,0.6-0.6,1.3-1.2,1.7c-3.7,3.2-7.4,6.3-11,9.5
			c-3.5,3-6.9,6.2-10.3,9.2c-0.5,0-1,0-1.4,0c-0.5-0.1-0.9-0.2-1.4-0.2c-2.6,0.1-5.2,0.1-7.7,0.2c-0.2,0-0.3,0-0.5,0
			c-0.6-0.1-1.2-0.2-1.8-0.2c-4.8,0.1-9.7,0.1-14.5,0.2c-0.6-0.4-1.2-0.7-1.7-1.1c-2.7-2.1-5-4.6-6.5-7.7c-0.6-1.2-1.3-2.4-1.8-3.6
			c-0.1-0.3,0.1-1,0.3-1.2c1.7-1.4,2.9-3.1,3.4-5.3c0.1-0.6,0.4-1.3,0.8-1.7c1.9-2.4,2.8-5.2,3.5-8c0.2-0.9,0.6-1.7,1-2.5
			c0.5-0.8,1.1-1.6,1.7-2.3c2.1-2.7,4.6-4.9,7.4-6.7c0.2-0.1,0.5-0.3,0.6-0.2c1.7,0.9,3.9,0.6,5.2,2.4c0.2,0.3,1.1,0,1.7,0
			c0-0.5-0.1-1-0.1-1.5c-0.2-1.1-0.3-2.1-0.5-3.2c0-0.3,0-0.6,0.1-0.8c0.1-0.4,0.3-0.9,0.6-1c1.4-0.6,2.8-1.2,4.3-1.6
			c1.4-0.4,2.9-0.8,4.3,0.4c0.5,0.4,1.3,0.5,1.9,0.6c1.3,0.2,2.7,0.3,4,0.5c2.4,0.3,6.4-1.3,7.1-3.8c0.5-2,1-3.9,0.2-6
			c-1-2.5-2-4.8-4.7-5.9c-0.2-0.1-0.4-0.2-0.5-0.3c-1.6-1.5-3.3-2.5-5.4-3.2c-4.8-1.5-9.6-1.7-14.4-0.5c-3,0.8-5.9,1.9-8.8,3
			c-4.1,1.6-7.8,3.8-10.8,7.2c-4,4.5-7.2,9.3-8.9,15.1c-0.3,0.9-0.9,1.8-1.1,2.8c-0.8,4.8-0.6,9.6-0.4,14.4c0,0.4,0.3,0.7,0.4,1.1
			c0.4,1,0.8,2,1.2,3c-1.2,0-2.1,0-2.9,0c-0.2,0-0.5,0-0.7,0c-0.2-0.1-0.3-0.2-0.5-0.2c1.2-0.3,1.4-1.2,1.4-2.3
			c0.1-8.5,0.2-17,0.2-25.5c0-1.6-0.1-3.2,1.5-4.3c0.1-0.1,0.2-0.4,0.2-0.5c1-0.9,2.1-1.8,3.1-2.6c0.3-0.2,0.6-0.5,1-0.7l0,0
			c0.1-0.1,0.3-0.1,0.4-0.2c3.1-2.5,6.1-5,9.1-7.5c0.2-0.2,0.5-0.3,0.7-0.5c0.1-0.1,0.2-0.2,0.2-0.2c0.5-0.3,1.1-0.6,1.5-1
			c1.2-1.1,2.3-2.2,3.5-3.3c0.2,0,0.5,0,0.7,0c0.2-0.1,0.5-0.1,0.7-0.2c0.4,0,0.8,0,1.2,0c0.2-0.1,0.3-0.1,0.5-0.2
			c2.3,0,4.5,0,6.8,0c0.4,0,0.8,0.1,1.2,0.1c1.8,0.1,3.6,0.3,5.4,0.2c1.9,0,3.9-0.2,5.8-0.4c0.4,0.2,0.7,0.4,1.1,0.4
			c0.9,0.1,1.8,0,2.6,0c0.4,0,1,0.1,1.3,0.4c3.3,3,6.6,5.9,9.9,8.9c2.4,2.2,4.4,4.7,7.9,5.4c1.4,0.3,1.9,0.4,2.5-0.7
			c0.9-1.5,0.8-2.2-0.3-3.1c-4.8-4.1-9.7-8.3-14.5-12.4c-1.1-0.9-2-2.2-3.7-1.9c-10.2,0-20.5,0-30.7,0c-0.5,0-0.9,0.1-1.4,0.2
			c-0.3,0-0.6,0-0.9,0c-1.2-0.3-1.9,0.6-2.7,1.2c-3.4,2.7-6.8,5.4-10.2,8.1c-2.1,1.6-4.2,3.2-6.3,4.7c-1,0.8-1.7,0.7-2.9-0.2
			c-2.8-2.1-5.7-4.2-8.5-6.4c-2.3-1.7-4.8-3.4-6.9-5.3c-1.3-1.2-2.8-1.9-4.5-2.4c-11,0-22,0-33,0c-0.6,0.3-1.3,0.6-1.9,1
			c-2.6,2-5,4.2-7.6,6.1c-3.4,2.3-6.4,4.9-9.2,7.9c-0.3,0.3-0.3,0.9-0.4,1.3c-0.1,2.2-0.1,4.3-0.2,6.5c0,9.7,0,19.5,0,29.2
			c0.2,0.7-0.6,1.8,0.7,2.2c-0.2,1-0.3,2.1-0.5,3.1c0.1,0.4,0,1,0.3,1.3c2.3,2.4,4.6,4.7,7,7c2.1,1.9,4.3,3.7,6.4,5.6
			c1.6,1.4,3.2,2.8,4.8,4.2c-0.7,0.6-1.5,1.1-2.2,1.8c-4.5,3.9-9,7.7-13.4,11.6c-1.3,1.1-2.8,2.1-2.8,4.1c-0.1,3-0.2,6.1-0.2,9.1
			c0.1,2.9,0.1,5.8,0.2,8.6c-0.1,0.6-0.2,1.2-0.2,1.8c0,5.4,0,10.8,0,16.2c0.2,0.2,0.3,0.3,0.5,0.5c-0.5,1.6-0.1,3,1.2,4
			c0.3,0.2,0.5,0.5,0.7,0.8c1.8,1.9,3.6,3.9,5.5,5.8c2.5,2.5,5.1,4.8,7.4,7.4c1.4,1.6,3.1,2.5,5,2.9c0.1,0,0.2,0,0.2,0
			c0.5,0.1,0.9,0.2,1.4,0.2c2.4,0,4.8-0.1,7.2-0.2c2.4,0,4.8,0,7.2,0c1.3,0.1,2.5,0.2,3.8,0.2c3.7,0,7.5,0,11.2,0
			c0.4,0,0.8-0.1,1.3-0.2c0.5,0,1,0,1.4,0c0.7-0.3,1.4-0.4,2.1-0.8c3.4-2.1,6.4-4.7,9-7.7c1.2-1.4,2.5-2.6,3.8-3.9
			c0.2-0.2,0.3-0.3,0.5-0.5c0.3-0.2,0.6-0.3,0.8-0.5c1.4-1.1,2.7-2.3,4.2-3.4c0.3-0.2,1-0.3,1.2-0.1c2.3,1.9,4.5,3.9,6.6,6
			c3.2,3.2,6.3,6.6,9.5,9.8c0.6,0.6,1.7,0.7,2.6,1.1c0.6,0.1,1.1,0.1,1.7,0.2c10.6,0,21.2,0,31.8,0c0.3-0.2,0.7-0.5,1-0.7
			c0.4-0.2,1-0.3,1.3-0.6c2.1-2,4.2-4,6.3-6c1.8-1.7,3.5-3.5,5.2-5.2c1.7-1.7,3.5-3.4,5.1-5.1c0.4-0.4,0.3-1.1,0.5-1.7
			c0-1,0-1.9,0-2.9c0.1-0.4,0.2-0.8,0.2-1.3c0-1.3-0.2-2.6-0.2-3.9c0-4.8,0.2-9.6,0.2-14.5c0-5,0-9.9,0-14.9c0-0.3-0.3-1-0.4-1
			c-0.7,0-1.5,0.1-2.1,0.4c-0.5,0.3-1,1-1,1.6c0.2,2.4,0.6,4.7,0.8,7.1c0.4,4.1,0.9,8.1,1,12.2c0.1,3.5-0.3,6.9-0.4,10.4
			c0,1.4-0.3,2.6-1.2,3.6c-0.4,0.5-0.8,1-1.2,1.4c-0.2,0.2-0.3,0.3-0.5,0.5c-0.3,0.3-0.6,0.6-1,1
			C1028.4,595.2,1028.2,595.4,1028.1,595.5L1028.1,595.5z M1018.7,554.7c0-2.9-2.3-5.9-5.2-7.1c-1.5-0.7-3.2-1.3-4.4-2.3
			c-1-0.9-2-1.1-3.3-1c-0.4,0-0.7,0-1.1-0.1c-5.6-0.8-11.2-0.7-16.6,0.5c-8.3,1.8-14.5,6.7-19.3,13.5c-3,4.3-4.6,9-4.2,14.3
			c0.2,3,0.8,5.9,1.3,8.9c0.2,0.9,0.2,1.8,0.4,2.7c0.1,0.7,0.5,0.8,1.2,0.6c1.1-0.3,2.3-0.5,3.4-0.6c1.4-0.1,2.8,0.1,4.3,0
			c1,0,2.1,0,3-0.3c2-0.5,3.7-1.5,4.4-3.6c0.2-0.6,0.5-1.3,0.8-1.9c1.3-2.8,2.5-5.7,4.1-8.3c1.7-2.7,3.8-5,6.9-6.1
			c1.5-0.5,2.9-1.2,4.2-1.9c2.9-1.5,5.8-2.1,9-1c2.1,0.8,4.3,0.3,6.3-0.4C1017.1,559.6,1018.7,557.5,1018.7,554.7z M1031.3,580
			c-0.1,0-0.1,0-0.2,0c0-1.1,0-2.2,0-3.2c-0.1-2.2-0.4-4.3-1.9-6c-1.6-1.9-3.6-3.1-6.2-2.7c-2.6,0.4-4.5,1.9-5.2,4.5
			c-0.4,1.7-0.6,3.6-0.6,5.4c0,3.8-0.9,7.2-3.4,10.2c-3,3.5-6.5,6.2-11.2,6.6c-2.5,0.2-5,0.4-7.5,0.2c-3.1-0.2-6.3-0.6-9-2.3
			c-2.4-1.5-4.8-2.8-7.6-3.3c-1.7-0.3-3.4-0.6-5,0.3c-2.8,1.6-3.7,5.5-1.6,7.8c2.5,2.8,5.4,5.2,8.1,7.8c1.6,1.5,3.3,2.7,5.5,3.1
			c5.7,1.2,11.4,1.6,17.2,1.2c3.2-0.2,6.3-0.8,9.3-2c1.7-0.6,3.5-1.4,4.8-2.6c3.6-3.3,7.1-6.9,10.5-10.4c1.7-1.8,3-3.9,3.3-6.4
			C1031,585.5,1031.1,582.8,1031.3,580z M1000,533.9C1000,534,1000,534,1000,533.9c2.1,0,4.2,0,6.2-0.3c2.7-0.4,4.9-1.6,7-3.3
			c4.5-3.9,9.3-7.6,13.5-11.9c1.8-1.9,3-4,3.3-6.5c0.3-2.2,0.8-4.5,1.1-6.7c0.5-3.7,0.8-7.4-0.7-11c-0.4-1.1-1.1-1.7-2.2-2.1
			c-2.1-0.6-4.1-0.1-5.4,1.7c-0.5,0.7-1.1,1.4-1.3,2.3c-0.7,2.4-1.3,4.8-2,7.1c-2.1,7.2-6.9,12.1-13.6,15c-6,2.7-12.5,2.7-18.9,2.3
			c-1.4-0.1-2.9,0.3-4.3,0.5c-1.9,0.3-2.9,1.7-4,3.1c-1.3,1.6-1.5,3.2-0.2,4.9c0.3,0.4,0.6,0.9,1.1,1.3c2.1,1.8,3.9,3.9,7.3,3.6
			C991.1,533.6,995.6,533.9,1000,533.9z"/>
		<path class="st1" d="M890.8,463c-0.2,0.1-0.4,0.3-0.7,0.4c-3.2,1.3-4.8,3.7-4.8,7.1c0,9.4,0,18.8,0,28.3c0,36.5,0,73.1,0,109.6
			c0,5,2.9,8,7.9,8c45.1,0,90.2,0,135.2,0c3.9,0,6.4-1.8,7.6-5.3c0,1.8,0,3.7,0,5.5c-50.3,0-100.6,0-151,0c0-51.2,0-102.4,0-153.6
			C886.9,463,888.8,463,890.8,463z"/>
		<path class="st1" d="M1036,468.3c-0.8-2.5-2.5-4.2-5-5c-0.2-0.1-0.3-0.2-0.5-0.3c1.8,0,3.7,0,5.5,0
			C1036,464.8,1036,466.5,1036,468.3z"/>
		<path class="st2" d="M963.4,516.9c0.9,0,1.7,0,2.9,0c-0.4-1-0.8-2-1.2-3c-0.1-0.4-0.4-0.7-0.4-1.1c-0.1-4.8-0.4-9.6,0.4-14.4
			c0.2-1,0.8-1.8,1.1-2.8c1.7-5.8,5-10.6,8.9-15.1c3-3.4,6.7-5.6,10.8-7.2c2.9-1.1,5.8-2.2,8.8-3c4.8-1.3,9.6-1,14.4,0.5
			c2.2,0.7,3.9,1.7,5.4,3.2c0.1,0.1,0.3,0.2,0.5,0.3c2.7,1.1,3.6,3.4,4.7,5.9c0.9,2.1,0.4,4-0.2,6c-0.7,2.6-4.6,4.1-7.1,3.8
			c-1.3-0.2-2.7-0.3-4-0.5c-0.7-0.1-1.4-0.2-1.9-0.6c-1.4-1.2-2.9-0.8-4.3-0.4c-1.5,0.4-2.9,1-4.3,1.6c-0.3,0.1-0.4,0.7-0.6,1
			c-0.1,0.2-0.1,0.5-0.1,0.8c0.2,1.1,0.3,2.1,0.5,3.2c0.1,0.5,0.1,1,0.1,1.5c-0.6,0-1.5,0.3-1.7,0c-1.3-1.7-3.5-1.5-5.2-2.4
			c-0.1-0.1-0.5,0.1-0.6,0.2c-2.8,1.9-5.3,4.1-7.4,6.7c-0.6,0.8-1.2,1.5-1.7,2.3c-0.4,0.8-0.8,1.6-1,2.5c-0.7,2.9-1.6,5.7-3.5,8
			c-0.4,0.5-0.6,1.1-0.8,1.7c-0.5,2.2-1.7,3.9-3.4,5.3c-0.3,0.2-0.5,0.9-0.3,1.2c0.5,1.2,1.2,2.4,1.8,3.6c1.5,3.1,3.7,5.6,6.5,7.7
			c0.5,0.4,1.1,0.7,1.7,1.1c-1.7,0.7-2.9-0.3-3.8-1.3c-2.4-2.8-4.5-5.8-6.8-8.6c-1.5-1.8-3-3.5-4.7-5.2
			C966,518.7,964.6,517.9,963.4,516.9z"/>
		<path class="st3" d="M1018.7,554.7c0,2.7-1.6,4.8-4.7,5.9c-2,0.7-4.2,1.1-6.3,0.4c-3.2-1.1-6.1-0.5-9,1c-1.4,0.7-2.8,1.4-4.2,1.9
			c-3.2,1.1-5.3,3.5-6.9,6.1c-1.6,2.6-2.8,5.5-4.1,8.3c-0.3,0.6-0.6,1.2-0.8,1.9c-0.7,2.1-2.4,3.1-4.4,3.6c-1,0.2-2,0.3-3,0.3
			c-1.4,0-2.8-0.1-4.3,0c-1.1,0.1-2.3,0.3-3.4,0.6c-0.7,0.2-1.1,0.1-1.2-0.6c-0.2-0.9-0.2-1.8-0.4-2.7c-0.5-2.9-1.1-5.9-1.3-8.9
			c-0.3-5.3,1.2-10,4.2-14.3c4.8-6.8,11.1-11.7,19.3-13.5c5.5-1.2,11.1-1.3,16.6-0.5c0.4,0,0.7,0.1,1.1,0.1c1.2,0,2.2,0.2,3.3,1
			c1.2,1.1,2.9,1.7,4.4,2.3C1016.4,548.9,1018.7,551.9,1018.7,554.7z"/>
		<path class="st4" d="M1031.3,580c-0.2,2.7-0.3,5.5-0.7,8.2c-0.3,2.5-1.7,4.6-3.3,6.4c-3.4,3.6-6.9,7.1-10.5,10.4
			c-1.3,1.2-3.1,2-4.8,2.6c-3,1.1-6.1,1.8-9.3,2c-5.8,0.4-11.5,0-17.2-1.2c-2.2-0.5-3.9-1.7-5.5-3.1c-2.7-2.6-5.6-5-8.1-7.8
			c-2.1-2.4-1.2-6.3,1.6-7.8c1.6-0.9,3.3-0.6,5-0.3c2.8,0.4,5.2,1.8,7.6,3.3c2.7,1.7,5.9,2,9,2.3c2.5,0.2,5,0,7.5-0.2
			c4.8-0.4,8.2-3.1,11.2-6.6c2.5-2.9,3.5-6.3,3.4-10.2c0-1.8,0.2-3.7,0.6-5.4c0.6-2.6,2.5-4.1,5.2-4.5c2.6-0.4,4.5,0.9,6.2,2.7
			c1.5,1.7,1.8,3.8,1.9,6c0.1,1.1,0,2.2,0,3.2C1031.2,580,1031.3,580,1031.3,580z"/>
		<path class="st4" d="M1000,533.9c-4.4,0-8.9-0.3-13.3,0.1c-3.4,0.3-5.2-1.8-7.3-3.6c-0.4-0.3-0.7-0.9-1.1-1.3
			c-1.3-1.6-1.1-3.2,0.2-4.9c1.1-1.4,2.2-2.8,4-3.1c1.4-0.3,2.9-0.6,4.3-0.5c6.5,0.4,12.9,0.4,18.9-2.3c6.7-3,11.5-7.9,13.6-15
			c0.7-2.4,1.3-4.8,2-7.1c0.3-0.8,0.8-1.6,1.3-2.3c1.3-1.8,3.3-2.3,5.4-1.7c1.1,0.3,1.7,1,2.2,2.1c1.5,3.6,1.2,7.3,0.7,11
			c-0.3,2.2-0.8,4.5-1.1,6.7c-0.4,2.6-1.5,4.7-3.3,6.5c-4.2,4.3-8.9,8-13.5,11.9c-2.1,1.8-4.4,3-7,3.3
			C1004.2,533.9,1002.1,533.9,1000,533.9C1000,534,1000,534,1000,533.9z"/>
		<path class="st5" d="M963.4,516.9c1.2,1,2.6,1.8,3.7,2.9c1.7,1.6,3.2,3.4,4.7,5.2c2.3,2.8,4.4,5.8,6.8,8.6c0.9,1,2.1,2,3.8,1.3
			c4.8-0.1,9.7-0.2,14.5-0.2c0.6,0,1.2,0.1,1.8,0.2c-0.4,0.2-0.7,0.4-1.1,0.5c-4.2,0.1-8.4,0.2-12.7,0.3c-2.1,0-2.6,0.7-1.8,2.6
			c-0.2,0.2-0.5,0.3-0.7,0.5c-0.2,0-0.5,0-0.7,0c-0.7,0-1.6,0.3-2.2,0c-1.8-0.7-3.5-1.5-4.8-3c-0.6-0.8-1.2-1.5-1.9-2.1
			c-2.9-2.7-5.7-5.4-8.6-8.1c-1.2-1.2-2.4-2.4-3.8-3.5c-0.3-0.3-1.2-0.3-1.6,0c-1.5,1.2-3,2.6-4.3,4c-2.3,2.5-4.3,5.4-7.2,7.3
			c-0.2,0.1-0.4,0.4-0.6,0.6c-0.9,1-1.8,2.1-2.8,3.1c-1,1-2.2,2-3.4,2.8c-0.4,0.3-1.1,0.2-1.7,0.3c-0.4,0.1-0.8,0.1-1.1,0.1
			c-0.3,0-0.6,0-1,0c-0.2-0.1-0.5-0.2-0.7-0.2c-0.2-0.2-0.3-0.3-0.5-0.5c0.8-0.2,1.6-0.3,2.4-0.5c0.4-0.2,0.8-0.2,1-0.5
			c1.3-1.2,2.6-2.4,3.9-3.7c3.9-3.7,7.8-7.4,11.6-11.1c1.4-1.3,2.8-2.6,4-4.1c0.6-0.7,0.9-1.6,1.1-2.5c0.2-0.9-0.7-1.6-1.6-1.3
			c-0.7,0.3-1.4,0.9-2.1,1.3c-0.5,0.4-1,0.8-1.5,1.1c0.5-0.6,1-1.4,1.6-1.9c1-0.9,1.6-1.9,1.6-3.3c0-1.1,0.4-2.2,0.6-3.3
			c0.1,0,0.2,0,0.4,0c0.1,0.3,0.4,0.7,0.4,1c0.1,1.1,0.2,2.3,0.3,3.4c0,0.7,0.1,1.3,0.9,1.4c0.1,0.2,0.2,0.5,0.3,0.7
			c0,0.2,0,0.3,0,0.5c0.3,1.1,1.1,1.1,2.2,0C962.9,516.9,963.1,516.9,963.4,516.9z"/>
		<path class="st6" d="M1003.6,610.9c0.6,0,1.3,0,1.9,0c0.2,0.1,0.3,0.2,0.5,0.2c0.4-0.1,0.8-0.2,1.2-0.2c0.2-0.1,0.3-0.2,0.5-0.2
			c0.2,0,0.3,0,0.5,0c0.8,0.1,1.7,0.6,2.4-0.2c0.4,0,0.7,0,1.1,0c1,0.1,1.9-0.1,2.5-1.1c0.4-0.6,1.1-1,1.7-1.5
			c0.3-0.2,0.6-0.5,1-0.7l0,0c0.6-0.4,1.4-0.8,1.9-1.4c2.7-2.7,5.4-5.5,8.1-8.3c0.3-0.3,0.4-0.8,0.6-1.1c0.1-0.1,0.2-0.2,0.2-0.2
			c0.2-0.2,0.3-0.3,0.5-0.5c0,0,0,0,0,0c0.2-0.2,0.3-0.3,0.5-0.5c0.3-0.3,0.6-0.6,1-1c0.2-0.2,0.3-0.3,0.5-0.5
			c0.4-0.5,0.8-1,1.2-1.4c1.1-0.1,2.1-0.6,3.1,0.2c0,1,0,1.9,0,2.9c-1.7,1.4-3.4,2.9-5.1,4.3c-0.7,0.6-1.5,1.2-2.1,1.9
			c-3.5,3.8-7.1,7.6-10.6,11.4c-0.3,0.3-0.4,0.7-0.6,1.1c-0.3,0.2-0.7,0.5-1,0.7c0.1-0.8,0.2-1.6,0.2-2.4c0-1-0.7-1.4-1.6-1
			c-0.5,0.2-1,0.4-1.4,0.5c-3.7,0.1-7.4,0.2-11.1,0.3c-3.8,0.1-7.6,0.2-11.4,0.3c-1.6,0-3.2,0.1-4.7,0.2c-1.2,0.1-1.7,0.8-1.8,2.1
			c-0.6-0.1-1.1-0.1-1.7-0.2c-0.1-0.2-0.2-0.5-0.2-0.7c-0.2-1.7-0.1-1.8,1.6-2.2c0.4-0.1,0.7-0.4,1-0.7c0.3,0,0.6,0,1,0
			c0.2,0.5,0.5,0.5,0.7,0c1.7,0,3.4,0,5,0c0.3,0.2,0.7,0.4,1,0.5c1.9,0,3.8,0,5.7,0c0.3,0,0.7-0.3,1-0.5c0.7,0,1.4,0,2.2,0
			c0.2,0,0.3,0,0.5,0c0.6,0,1.3,0,1.9,0C1003,610.9,1003.3,610.9,1003.6,610.9z"/>
		<path class="st5" d="M887.2,521.9c0.2-1,0.3-2.1,0.5-3.1c0-0.1,0-0.2,0-0.2c0.1-0.1,0.2-0.1,0.3-0.2c1.4-1.3,1.4-1.3,2.8,0
			c3.7,3.7,7.4,7.4,11.1,11.1c0.2,0.2,0.6,0.4,0.9,0.6c0,0.1,0,0.2,0,0.2c1.3,1.8,2.6,3.7,3.9,5.4c0.6,0.7,1.4,1.1,2.3,0.6
			c0.8-0.1,1.6-0.2,2.4-0.2c4.2,0,8.4,0,12.5,0c0.5,0,0.9,0.1,1.4,0.2c-0.3,0.1-0.5,0.2-0.8,0.3c-3.9,0.8-7.7,0.5-11.6,0.3
			c-1.2,0-2.4,0-3.6,0.2c-1.1,0.2-1.6,0.9-1.2,2.1c-0.2,0.1-0.5,0.2-0.7,0.3c-0.2,0-0.5,0-0.7,0c-1.9-0.7-3.1-2.3-4.5-3.6
			c-0.2-0.2-0.4-0.3-0.6-0.5c-2.4-2.2-4.9-4.5-7.3-6.7C891.9,526.4,889.5,524.2,887.2,521.9z"/>
		<path class="st7" d="M939.4,464.7c1.6,0.5,3.1,1.2,4.5,2.4c2.2,1.9,4.6,3.5,6.9,5.3c2.8,2.1,5.7,4.2,8.5,6.4
			c1.2,0.9,1.9,1,2.9,0.2c2.1-1.6,4.2-3.1,6.3-4.7c3.4-2.7,6.8-5.4,10.2-8.1c0.8-0.6,1.5-1.5,2.7-1.2c-2.8,2.4-5.6,4.8-8.5,7.2
			c-3,2.5-6,4.9-9,7.3c-0.6,0.5-1.2,1-1.9,1.3c-1.6,0.7-2.7,2.8-2.2,4.5c0.1,0.4,0.2,0.9,0.3,1.3c-0.3-0.8-0.6-1.6-1-2.4
			c-0.3-0.5-0.6-1.1-1-1.5c-0.9-0.8-1.9-1.4-2.9-2.1c-2.4-1.8-5-3.2-7.1-5.4c-1.5-1.5-3.3-2.7-5-4.1c-0.4-0.3-0.8-0.7-1.2-0.8
			c-1.6-0.4-2.3-1.9-3.7-2.6C939.6,466.9,939.8,466.3,939.4,464.7z"/>
		<path class="st8" d="M1014.4,464.7c1.7-0.3,2.6,1,3.7,1.9c4.9,4.1,9.7,8.3,14.5,12.4c1.1,0.9,1.2,1.6,0.3,3.1
			c-0.7,1.1-1.2,1-2.5,0.7c-3.5-0.7-5.5-3.2-7.9-5.4c-3.3-3-6.6-6-9.9-8.9c-0.3-0.3-0.9-0.4-1.3-0.4c-0.9-0.1-1.8,0-2.6,0
			c-0.4,0-0.8-0.3-1.1-0.4c1.4,0,2.8,0,4.2,0C1013.6,467.5,1014.4,466.7,1014.4,464.7z"/>
		<path class="st9" d="M983,538.2c-0.8-1.9-0.3-2.6,1.8-2.6c4.2-0.1,8.4-0.1,12.7-0.3c0.4,0,0.7-0.3,1.1-0.5c0.2,0,0.3,0,0.5,0
			c0.3,0.2,0.7,0.4,1,0.5c2.2,0,4.4,0,6.5,0c0.5,0,1-0.3,1.6-0.5c0.5,0,1,0,1.4,0c0.4-0.1,0.8-0.1,1.2-0.3c1.9-1.3,3.9-2.4,5.6-3.9
			c3.2-2.7,6.2-5.6,9.2-8.5c1.8-1.7,3.4-3.4,5.3-5.1c0.3-0.3,1.2-0.3,1.7-0.1c0.7,0.3,0.7,1.1,0.3,1.8c-0.5,0.9-1,1.8-1.7,2.6
			c-2.8,3-5.6,6-8.6,8.8c-2.5,2.5-5.2,4.8-7.9,7.1c-0.3,0.3-0.8,0.3-1.2,0.4c0.6-0.9,1.2-1.7,1.8-2.5c-1.5,0-2.8,0-4.1,0
			c-0.2,0-0.5,0-0.7,0.1c-1.6,0.9-3.4,0.8-5.2,0.8c-4.6,0-9.2,0.1-13.9,0.2c-2.1,0-4.2,0-6.3,0c-1.7,0-1.9,0.3-1.6,1.9
			C983.3,538.2,983.2,538.2,983,538.2z"/>
		<path class="st10" d="M939.4,464.7c0.4,1.6,0.2,2.2-1.2,2.9c-0.6,0.2-1.1,0.3-1.7,0.5c-0.5,0-1,0-1.4,0c-0.4-0.1-0.8-0.2-1.3-0.2
			c-1.8,0-3.6,0-5.5,0c-0.2,0-0.5,0-0.7,0c-1.3-0.1-2.7-0.2-4-0.2c-1.5,0-2.9,0.1-4.4,0.2c-3.5,0-7,0-10.5,0c-0.4,0-1-0.2-1.2,0
			c-2.3,1.8-4.5,3.7-6.7,5.6c-2.6,2.2-5.2,4.5-7.7,6.8c-1.8,1.7-3.9,3.3-4.4,5.9c-0.2,0.9-0.7,1.5-1.8,1.3c0.1-2.2,0.1-4.3,0.2-6.5
			c1.1-0.8,2.3-1.5,3.4-2.4c4.6-3.6,9.1-7.1,13.6-10.8c1-0.8,2.2-1.6,2.1-3.1C917.3,464.7,928.4,464.7,939.4,464.7z M907.3,465
			c0.8,1.4,1.9,1.8,3.2,1.8c2.2,0,4.4-0.2,6.6-0.2c5.5,0,10.9,0,16.4,0c1.4,0,2.7-0.1,4-0.3c0.5-0.1,0.9-0.6,1.3-0.9
			c-0.5-0.2-0.9-0.5-1.4-0.5c-9.6,0-19.2,0-28.7,0C908.3,464.9,907.9,465,907.3,465z"/>
		<path class="st11" d="M960,486.5c-0.1-0.4-0.2-0.9-0.3-1.3c-0.5-1.7,0.6-3.8,2.2-4.5c0.7-0.3,1.3-0.8,1.9-1.3c3-2.4,6-4.8,9-7.3
			c2.8-2.4,5.6-4.8,8.5-7.2c0.3,0,0.6,0,0.9,0c0.1,0,0.2,0,0.3,0c0.2,1.1,0.8,1.9,1.9,2.2c0,0.2,0,0.5,0,0.7c-0.7,0.2-1.4,0.3-2,0.7
			c-2.2,1.7-4.3,3.4-6.4,5.2c-3.8,3.1-7.5,6.2-11.3,9.1c-1.8,1.3-2.7,2.9-2.8,5c-0.1,2.1-0.1,4.1-0.3,6.2c-0.1,1.2-0.4,2.4-0.6,4
			c-0.5-0.7-0.8-1-1.1-1.4c0-1.4,0-2.7,0-4.1c0.7-0.8,0.7-2.3,0-3.1C960,488.4,960,487.4,960,486.5z"/>
		<path class="st5" d="M983.7,610.9c-0.3,0.2-0.6,0.6-1,0.7c-1.7,0.4-1.8,0.5-1.6,2.2c-0.4-0.2-0.9-0.3-1.1-0.6
			c-2.7-2.6-5.4-5.1-7.9-7.9c-2.8-3.2-6.1-6-9.6-8.4c-0.3-0.2-0.9-0.1-1.3,0.1c-0.7,0.4-1.3,0.9-1.9,1.4c-1,1-2,2.1-2.9,3.2
			c-0.2,0.2-0.3,0.3-0.5,0.5c-0.3,0.1-0.7,0.1-0.9,0.3c-1.4,1.2-2.8,2.4-4.2,3.7c-2,1.8-4.1,3.7-6.1,5.5c-1.2,1-2.4,2-3.7,3
			c-0.5,0-1,0-1.4,0c0-0.1,0-0.2,0-0.2c2.3-2,4.7-4.1,7-6c3-2.5,6.5-4.5,9-7.7c1.8-2.4,4.6-4.1,5.2-7.3c0-0.1,0.2-0.1,0.3-0.2
			c0.2,0.8,0.7,0.6,1.3,0.6c0.7,0,1.7-0.1,2.2,0.3c1.3,1.1,2.6,2.3,3.6,3.8c1.6,2.5,3.2,5,5.6,6.7c2.4,1.7,4.7,3.5,7.1,5.2
			c0.8,0.5,1.6,0.9,2.5,1.3C983.6,610.8,983.6,610.9,983.7,610.9z"/>
		<path class="st12" d="M1013.4,538.2c0.5,0.3,1.1,0.6,1.6,1c1.9,1.4,3.8,2.8,5.8,4.2c2.3,1.7,4.6,3.4,6.8,5.1
			c1.8,1.4,3.4,2.8,5.1,4.3c0.3,0.3,0.6,0.6,0.9,1c0.8,1.4,0.5,2.1-1,2.5c-0.1,0-0.2,0-0.2,0.1c-2,1.6-3.2,0-4.6-1.1
			c-4.7-3.9-9.4-7.8-14.1-11.6c-0.5-0.4-1.2-0.4-1.9-0.5c-2.9-0.1-5.9-0.2-8.8-0.2c-2.9-0.1-5.7-0.2-8.6-0.1c-2,0-4,0.3-6.1,0.4
			c-2,0.1-4,0.1-6,0.3c-0.5,0-1,0.3-1.4,0.6c-1.5,1.4-2.9,2.8-4.3,4.3c-3.5,3.5-7,7.1-10.4,10.7c-0.5,0.5-1,1-1.6,1.5
			c0.2-0.4,0.4-0.9,0.7-1.3c0.4-0.6,0.8-1.2,1.2-1.8c0.4-0.5,0.8-1,1.2-1.4c0.7-0.8,1.4-1.6,2.2-2.4c0.3-0.2,0.5-0.4,0.8-0.6
			c2.3-2,4.6-4,6.8-6.2c1.1-1,1.9-2.3,2.9-3.4c0.2-0.2,0.4-0.4,0.7-0.4c1.9-0.2,3.8-0.3,5.7-0.4c2.1-0.1,4.1-0.2,6.2-0.4
			c3.9-0.2,7.8-0.5,11.7,0c1.8,0.2,3.6,1,5.5,0.1c1.3-0.6,1.5-1,1.1-2.4c0-0.3,0-0.7-0.1-1c0-0.1,0-0.1,0-0.2c0.3,0,0.7,0,1,0
			c0.2-0.2,0.5-0.3,0.7-0.5C1013,538.2,1013.2,538.2,1013.4,538.2z M1013.7,542.7c0.9,0.5,1.7,0.9,2.4,1.5c3.8,3.2,7.6,6.5,11.5,9.7
			c0.9,0.7,1.8,1.4,2.8,1.9c0.4,0.2,1.2-0.1,1.7-0.5c0.2-0.2,0.3-1,0-1.4c-0.6-0.8-1.2-1.6-2-2.2c-4.1-3.2-8.2-6.4-12.3-9.6
			C1016.2,540.9,1015.2,541,1013.7,542.7z"/>
		<path class="st13" d="M886.9,566.5c0.1-3,0.2-6.1,0.2-9.1c0.4-0.2,0.7-0.4,1.1-0.7c2-1.7,3.9-3.4,5.8-5.1c3.1-2.7,6.2-5.4,9.3-8.1
			c0.5-0.4,0.9-1,1.1-1.5c0.4-1.2,1.3-1.6,2.4-1.6c0.5,0.7,1,1.3,1.5,2c0.3,0.3,0.6,0.6,0.8,0.9c-0.2,0-0.3,0-0.5,0
			c-0.7-0.4-1.4-0.9-2.4-1.5c0.1,0.7,0.1,1.2,0.3,1.5c0.4,0.9,0.2,1.6-0.6,2.2c-1.6,1.2-3.2,2.5-4.9,3.7c-4.1,2.8-7.4,6.4-10.8,9.9
			c-0.2,0.2-0.3,0.5-0.4,0.7c-0.6,1.8-1.2,3.6-1.8,5.4C887.8,565.7,887.9,566.5,886.9,566.5z"/>
		<path class="st14" d="M983,614.7c0-1.3,0.5-2,1.8-2.1c1.6-0.2,3.2-0.2,4.7-0.2c3.8-0.1,7.6-0.2,11.4-0.3c3.7-0.1,7.4-0.1,11.1-0.3
			c0.5,0,1-0.3,1.4-0.5c1-0.4,1.6-0.1,1.6,1c0,0.8-0.1,1.6-0.2,2.4C1004.2,614.7,993.6,614.7,983,614.7z"/>
		<path class="st5" d="M1034.3,592.4c-1-0.8-2.1-0.4-3.1-0.2c1-1,1.2-2.2,1.2-3.6c0.1-3.5,0.5-6.9,0.4-10.4c-0.1-4.1-0.6-8.2-1-12.2
			c-0.2-2.4-0.6-4.7-0.8-7.1c0-0.5,0.5-1.3,1-1.6c0.6-0.4,1.4-0.4,2.1-0.4c0.1,0,0.4,0.6,0.4,1c0,5,0,9.9,0,14.9
			c0,4.8-0.2,9.6-0.2,14.5c0,1.3,0.2,2.6,0.2,3.9C1034.5,591.5,1034.4,592,1034.3,592.4z"/>
		<path class="st5" d="M1013.4,538.2c-0.2,0-0.5,0-0.7,0c0-0.1,0-0.2,0-0.2c0.2-0.1,0.5-0.2,0.7-0.2c0.4-0.1,0.9-0.1,1.2-0.4
			c2.7-2.4,5.3-4.7,7.9-7.1c2.9-2.9,5.8-5.8,8.6-8.8c0.7-0.7,1.2-1.7,1.7-2.6c0.4-0.6,0.4-1.4-0.3-1.8c-0.5-0.2-1.4-0.2-1.7,0.1
			c-1.8,1.6-3.5,3.4-5.3,5.1c-3,2.9-6.1,5.7-9.2,8.5c-1.7,1.5-3.7,2.6-5.6,3.9c-0.3,0.2-0.8,0.2-1.2,0.3c3.4-3.1,6.9-6.2,10.3-9.2
			c3.7-3.2,7.4-6.3,11-9.5c0.5-0.4,0.9-1.1,1.2-1.7c0.4-1,0.6-2,0.9-3c0.1-0.4,0.4-0.7,0.6-1.1c0.1,0,0.3,0,0.4,0
			c0.1,1,0.4,2.1,0.4,3.1c0.1,2.4,0.6,5-1.2,7.1c-0.8,0.9-1.7,1.8-2.6,2.7c-2,2.1-4,4.2-6,6.3c-0.8,0.8-1.7,1.6-2.5,2.4
			c-1.5,1.5-3,3-4.5,4.5C1016.6,537.6,1015.3,538.6,1013.4,538.2z"/>
		<path class="st13" d="M886.9,487.4c1.1,0.2,1.6-0.4,1.8-1.3c0.6-2.7,2.6-4.2,4.4-5.9c2.5-2.3,5.1-4.6,7.7-6.8
			c2.2-1.9,4.4-3.8,6.7-5.6c0.2-0.2,0.8,0,1.2,0c-1.2,1-2.4,2.1-3.6,3.1c-0.3,0.3-0.6,0.6-1,1c-0.1,0-0.2,0-0.2,0
			c-0.7,0.7-1.4,1.4-2.2,2.1c-0.2,0.2-0.5,0.5-0.7,0.7c-0.4,0.3-0.8,0.6-1.2,1c-0.2,0.1-0.3,0.2-0.5,0.2c-0.5,0.4-1,0.8-1.4,1.2
			c-0.1,0.1-0.2,0.2-0.2,0.2c-1.8,1.4-3.6,2.8-5.3,4.2c-0.6,0.5-1,1.3-1.4,2c-0.5,0.7-1.2,1.4-1.4,2.2c-0.3,2.3-0.4,4.7-0.5,7
			c-0.2,3-0.4,6-0.4,9.1c-0.1,2.7,0.1,5.4,0.1,8.1c0,1.6,0.2,3.3,0,4.9c-0.1,0.9-0.6,1.8-1.9,1.8
			C886.9,506.9,886.9,497.2,886.9,487.4z"/>
		<path class="st7" d="M966.5,557.4c-0.4,0.6-0.8,1.2-1.2,1.8c-0.3,0.4-0.5,0.9-0.7,1.3c-0.8,0.4-1.1,1-1,1.9c0,0.5,0,1,0,1.4
			c0,0.5,0,1,0,1.4c-0.2,0.2-0.4,0.4-0.4,0.6c-0.1,2.3-0.5,4.7-0.2,7c0.7,5.8,0.4,11.6,0.4,17.4c0,0.8-0.3,1.3-1.3,1.5
			c-0.1-0.4-0.4-0.8-0.3-1.2c0.2-2.5-1-4.9-0.6-7.4c0.5-3.2,0.6-6.5,0.7-9.7c0.1-1.4,0.1-2.8-0.1-4.2c-0.2-1.8-0.8-3.6-1-5.5
			c-0.1-1.1-0.3-2-1.2-2.6c0.6-0.6,1.1-0.4,1.6,0.1c1,0.9,1.3,0.8,2.1-0.3C964.2,559.7,965.4,558.6,966.5,557.4L966.5,557.4z"/>
		<path class="st2" d="M907.3,614.4c-2-0.4-3.6-1.3-5-2.9c-2.3-2.6-5-4.9-7.4-7.4c-1.9-1.9-3.7-3.8-5.5-5.8
			c-0.2-0.3-0.4-0.6-0.7-0.8c-1.4-1-1.8-2.4-1.2-4c0.2-0.2,0.3-0.3,0.5-0.5c0.2-0.2,0.3-0.5,0.5-0.7c0.2-0.1,0.3-0.2,0.5-0.2
			c1.6-0.5,2.4,0.5,3.3,1.5c1.1,1.2,2.1,2.5,3.2,3.7c4,4,8,7.8,12,11.8c0.4,0.4,0.6,1,0.9,1.5c-0.9,0.3-1.2-0.3-1.7-0.9
			c-2.5-2.6-4.9-5.3-7.5-7.9c-2.1-2.1-4.3-4.1-6.5-6.1c-0.8-0.8-1.6-1.7-2.5-2.4c-0.3-0.2-1-0.2-1.3,0c-1.2,1-1.3,1.9-0.3,3
			c1.5,1.7,3,3.3,4.6,4.8c2.8,2.7,5.7,5.2,8.5,7.8c0.8,0.7,1.4,1.5,2.2,2.2c1.1,0.9,2.2,1.8,3.3,2.7
			C907.1,614.1,907.2,614.3,907.3,614.4z"/>
		<path class="st12" d="M959.5,561.2c1,0.6,1.1,1.5,1.2,2.6c0.2,1.8,0.7,3.6,1,5.5c0.2,1.4,0.2,2.8,0.1,4.2
			c-0.2,3.3-0.2,6.5-0.7,9.7c-0.4,2.6,0.8,4.9,0.6,7.4c0,0.4,0.2,0.7,0.3,1.2c1-0.2,1.3-0.7,1.3-1.5c0-5.8,0.3-11.6-0.4-17.4
			c-0.3-2.3,0.1-4.7,0.2-7c0-0.2,0.3-0.4,0.4-0.6c0.1,4.3,0.1,8.5,0.3,12.8c0.1,1.7,0.4,3.3,0.4,5c0,1.8-0.1,3.6-0.2,5.4
			c0,0.5,0.1,1.1,0,1.6c-0.2,0.8-0.6,1.6-0.9,2.3c-0.3,0-0.6,0-1,0c-1.1-0.3-1.1-1.3-1.2-2.2c-0.1-0.9-0.3-1.7-0.5-2.6
			c0-4.6,0-9.3,0-13.9c0-0.4,0-0.8,0-1.2c-0.1-0.7-0.2-1.4-0.2-2.2c0-1,0-1.9,0-2.9c0-0.6,0-1.3,0-1.9c-0.2-0.3-0.3-0.6-0.5-1
			c0-0.2,0-0.3,0-0.5c0-0.6,0-1.1,0-1.7c-0.2-0.2-0.3-0.3-0.5-0.5c-0.2-0.2-0.3-0.5-0.5-0.7c0,0,0,0,0,0
			C959,561.2,959.3,561.2,959.5,561.2z"/>
		<path class="st15" d="M886.9,566.5c1,0,0.9-0.8,1.1-1.4c0.6-1.8,1.2-3.6,1.8-5.4c0.1-0.3,0.2-0.5,0.4-0.7
			c3.4-3.5,6.7-7.1,10.8-9.9c1.7-1.2,3.3-2.4,4.9-3.7c0.8-0.6,1-1.3,0.6-2.2c-0.2-0.3-0.1-0.7-0.3-1.5c1,0.6,1.7,1.1,2.4,1.5
			c-0.4,0.2-0.8,0.4-1,0.7c-0.6,0.7-1.1,1.6-1.8,2.2c-4.2,3.7-8.5,7.4-12.8,11.1c-2.5,2.2-4.2,4.8-4.1,8.3c-0.1,0.3-0.2,0.6-0.2,1
			c0,0.7,0,1.4,0,2.2c-0.2,0.3-0.4,0.6-0.5,1c-0.3,1.5-0.4,3-0.7,4.5c-0.1,0.3-0.3,0.6-0.5,1C887.1,572.3,887,569.4,886.9,566.5z"/>
		<path class="st16" d="M982.5,464.9c-0.1,0-0.2,0-0.3,0c0.5-0.1,0.9-0.2,1.4-0.2c10.2,0,20.5,0,30.7,0c0,2-0.8,2.8-2.8,2.9
			c-1.4,0-2.8,0-4.2,0c-1.9,0.1-3.9,0.3-5.8,0.4c-1.8,0-3.6-0.1-5.4-0.2c-0.4,0-0.8-0.1-1.2-0.1c-2.3,0-4.5,0-6.8,0
			c-0.2,0.1-0.3,0.1-0.5,0.2c-0.4,0-0.8,0-1.2,0c-0.2,0.1-0.5,0.1-0.7,0.2c-0.2,0-0.5,0-0.7,0c-0.2,0-0.5,0-0.7,0c0-0.1,0-0.2,0-0.2
			c0-0.2,0-0.5,0-0.7c1.4-0.1,2.7-0.2,4.1-0.3c0.3,0,0.6,0,1,0c1.2-0.1,2.4-0.2,3.6-0.2c0.4,0,0.8,0,1.2,0c5,0.1,9.9,0.2,14.9,0.2
			c0.6,0,1.3,0,1.9,0c1.1-0.1,1.1-0.9,1-1.7c-0.4-0.1-0.8-0.2-1.3-0.2c-9.2,0-18.5,0-27.7,0C982.8,464.9,982.7,464.9,982.5,464.9z"
			/>
		<path class="st2" d="M962.2,592.4c0.3,0,0.6,0,1,0c3.1,0.1,4.4,2.6,6.2,4.5c3.5,3.6,7.1,7.1,10.6,10.6c1.1,1.1,2.4,2.2,3.5,3.3
			c-0.8-0.4-1.7-0.8-2.5-1.3c-2.4-1.7-4.7-3.5-7.1-5.2c-2.4-1.8-4-4.3-5.6-6.7c-0.9-1.4-2.3-2.6-3.6-3.8c-0.5-0.4-1.4-0.3-2.2-0.3
			c-0.6,0-1.1,0.2-1.3-0.6c0,0,0,0,0,0C961.5,592.7,961.8,592.6,962.2,592.4z"/>
		<path class="st15" d="M906.3,464.7c0,1.6-1.2,2.3-2.1,3.1c-4.5,3.6-9.1,7.2-13.6,10.8c-1.1,0.9-2.3,1.6-3.4,2.4
			c0.1-0.4,0.2-1,0.4-1.3c2.8-2.9,5.9-5.5,9.2-7.9c2.7-1.9,5.1-4.1,7.6-6.1C905,465.3,905.7,465,906.3,464.7z"/>
		<path class="st17" d="M939.6,614.2c0,0.1,0,0.2,0,0.2c-0.4,0.1-0.8,0.2-1.3,0.2c-3.7,0-7.5,0-11.2,0c-1.3,0-2.5-0.1-3.8-0.2
			c1-0.4,2-0.9,3.1-1.2c1.7-0.4,3.5-0.7,5.3-1c0.7,0,1.4,0,2.2,0c1.3-0.2,2.7-0.4,4-0.5c0.3,0,0.7,0,1,0.2
			C939.7,612.5,939.9,613.3,939.6,614.2z"/>
		<path class="st7" d="M887.2,575.1c0.2-0.3,0.5-0.6,0.5-1c0.3-1.5,0.4-3,0.7-4.5c0.1-0.3,0.3-0.7,0.5-1c0,2,0,3.9-0.1,5.9
			c-0.1,3.8-0.3,7.6-0.4,11.4c-0.1,2.1,0,4.3,0,6.4c-0.2,0.2-0.3,0.5-0.5,0.7c-0.3,0-0.6,0-1,0c0-5.4,0-10.8,0-16.2
			C886.9,576.3,887.1,575.7,887.2,575.1z"/>
		<path class="st8" d="M906.8,540.4c-1.1,0-2,0.4-2.4,1.6c-0.2,0.6-0.6,1.1-1.1,1.5c-3.1,2.7-6.2,5.4-9.3,8.1
			c-1.9,1.7-3.9,3.4-5.8,5.1c-0.3,0.3-0.7,0.5-1.1,0.7c0.1-2,1.6-3,2.8-4.1c4.4-3.9,8.9-7.8,13.4-11.6c0.7-0.6,1.5-1.2,2.2-1.8
			c0.3-0.2,0.6-0.3,1-0.5c0.2,0,0.5,0,0.7,0C907.1,539.8,907,540.1,906.8,540.4z"/>
		<path class="st6" d="M931.7,612.3c-1.8,0.3-3.6,0.6-5.3,1c-1.1,0.3-2.1,0.8-3.1,1.2c-2.4,0-4.8,0-7.2,0c-0.4-0.3-0.7-0.7-1.1-0.9
			c-2.2-0.7-4.4-1.3-6.5-2c0.3-0.1,0.5-0.4,0.8-0.4c1.2,0.1,2.4,0.3,3.5,0.5c2,0.3,4,0.8,6,0.8c3.8,0,7.6-0.3,11.4-0.4
			C930.7,612,931.2,612.2,931.7,612.3z"/>
		<path class="st12" d="M965.5,484.1c-0.1,0.2-0.1,0.4-0.2,0.5c-1.5,1.1-1.4,2.7-1.5,4.3c0,8.5-0.1,17-0.2,25.5c0,1.1-0.2,2-1.4,2.3
			c-0.2,0-0.3,0-0.5,0c0-0.1,0-0.2,0-0.2c0.4-0.5,1-1,1-1.4c-0.1-3.4-0.3-6.9-0.5-10.3c0.1-1.4,0.2-2.7,0.2-4.1c0-0.5,0-1,0-1.4
			c0.1-0.3,0.2-0.7,0.2-1c0.2-1.6,0.6-3.3,0.6-4.9c0.1-2-0.1-4-0.1-6c0.1-0.5,0.2-1,0.2-1.4C964.1,485.2,964.8,484.6,965.5,484.1z"
			/>
		<path class="st5" d="M1015.8,614c0.2-0.4,0.4-0.8,0.6-1.1c3.5-3.8,7-7.6,10.6-11.4c0.7-0.7,1.4-1.3,2.1-1.9
			c1.7-1.4,3.4-2.9,5.1-4.3c-0.2,0.6-0.1,1.3-0.5,1.7c-1.7,1.8-3.4,3.4-5.1,5.1c-1.7,1.7-3.5,3.5-5.2,5.2c-2.1,2-4.2,4-6.3,6
			C1016.8,613.7,1016.3,613.8,1015.8,614z"/>
		<path class="st15" d="M886.9,516.7c1.2,0.1,1.8-0.8,1.9-1.8c0.1-1.6,0-3.2,0-4.9c-0.1-2.7-0.2-5.4-0.1-8.1c0.1-3,0.3-6,0.4-9.1
			c0.1-2.3,0.2-4.7,0.5-7c0.1-0.8,0.9-1.5,1.4-2.2c0,0.2,0,0.3,0,0.5c0,0.2,0,0.5,0,0.7c-0.1,0.5-0.2,1-0.2,1.4
			c-0.2,0.5-0.7,0.9-0.7,1.4c-0.2,3-0.3,5.9-0.5,8.9c0,3.3,0,6.6,0,9.9c0,0.6,0.1,1.2,0.1,1.8c0.1,2.9,1,5.8-0.6,8.5
			c-0.8,0.4-1.6,0.8-1.4,1.9c0,0.1,0,0.2,0,0.2C886.3,518.5,887.1,517.4,886.9,516.7z"/>
		<path class="st2" d="M956.4,601.5c1-1.1,1.9-2.2,2.9-3.2c0.6-0.6,1.2-1.1,1.9-1.4c0.3-0.2,1-0.3,1.3-0.1c3.5,2.5,6.7,5.2,9.6,8.4
			c2.4,2.8,5.2,5.3,7.9,7.9c0.3,0.3,0.8,0.4,1.1,0.6c0.1,0.2,0.2,0.5,0.2,0.7c-0.9-0.4-2-0.5-2.6-1.1c-3.2-3.2-6.3-6.6-9.5-9.8
			c-2.1-2.1-4.4-4-6.6-6c-0.2-0.2-0.9-0.1-1.2,0.1c-1.4,1.1-2.8,2.2-4.2,3.4C957,601.2,956.7,601.3,956.4,601.5z"/>
		<path class="st18" d="M906.6,539.4c-0.3,0.2-0.6,0.3-1,0.5c-1.6-1.4-3.2-2.8-4.8-4.2c-2.1-1.9-4.3-3.6-6.4-5.6
			c-2.4-2.3-4.7-4.6-7-7c-0.3-0.3-0.2-0.8-0.3-1.3c2.4,2.2,4.7,4.5,7.1,6.7c2.4,2.3,4.9,4.5,7.3,6.7c0.2,0.2,0.4,0.3,0.6,0.5
			C903.5,537.2,904.7,538.7,906.6,539.4z"/>
		<path class="st17" d="M908.5,611.6c2.2,0.7,4.4,1.3,6.5,2c0.4,0.1,0.8,0.6,1.1,0.9c-2.4,0.1-4.8,0.2-7.2,0.2
			c-0.5,0-0.9-0.1-1.4-0.2c-0.1-0.2-0.2-0.5-0.2-0.7c0-0.3,0-0.6,0-1c0.1-0.2,0.2-0.3,0.2-0.5C907.8,612,908.2,611.8,908.5,611.6z"
			/>
		<path class="st2" d="M941.1,614.4c1.2-1,2.5-2,3.7-3c2.1-1.8,4.1-3.6,6.1-5.5c1.4-1.2,2.8-2.5,4.2-3.7c0.2-0.2,0.6-0.2,0.9-0.3
			c-1.3,1.3-2.6,2.6-3.8,3.9c-2.6,3-5.6,5.7-9,7.7C942.5,614,941.8,614.2,941.1,614.4z"/>
		<path class="st15" d="M965.5,484.1c-0.7,0.6-1.4,1.1-2.2,1.7c0.3-0.5,0.4-1.1,0.8-1.4c3.6-3.1,7.3-6.1,10.9-9.1
			c0.7-0.6,1.6-1,2.4-1.5c-1.8,1.5-3.7,3-5.5,4.6c-0.9,0.7-1.6,1.6-2.4,2.4c0,0,0,0,0,0c-0.3,0.2-0.6,0.5-1,0.7
			C967.6,482.3,966.6,483.2,965.5,484.1z"/>
		<path class="st5" d="M1027.3,596.2c-0.2,0.4-0.3,0.8-0.6,1.1c-2.7,2.8-5.3,5.6-8.1,8.3c-0.5,0.5-1.3,0.9-1.9,1.4
			c0.1-0.2,0.2-0.5,0.3-0.6c2.5-2.5,5-5.1,7.6-7.6C1025.5,597.9,1026.4,597.1,1027.3,596.2z"/>
		<path class="st12" d="M969.6,480.7c0.8-0.8,1.6-1.7,2.4-2.4c1.8-1.6,3.7-3,5.5-4.6c0.1-0.1,0.2-0.2,0.2-0.2
			c0.2-0.2,0.5-0.3,0.7-0.5c0.2,0,0.5,0,0.7,0c0,0,0,0,0,0c-3,2.5-6.1,5-9.1,7.5C969.9,480.7,969.7,480.7,969.6,480.7z"/>
		<path class="st5" d="M1008.2,534.9c-0.5,0.2-1,0.4-1.6,0.5c-2.2,0.1-4.4,0-6.5,0c-0.3,0-0.7-0.3-1-0.5c2.6-0.1,5.1-0.2,7.7-0.2
			C1007.2,534.7,1007.7,534.8,1008.2,534.9z"/>
		<path class="st12" d="M984.4,468c0.2,0,0.5,0,0.7,0c-1.2,1.1-2.3,2.2-3.5,3.3c-0.5,0.4-1,0.7-1.5,1c0-0.2,0-0.3,0-0.5
			c0.2-0.2,0.3-0.3,0.5-0.5c0.2-0.2,0.5-0.3,0.7-0.5C982.4,469.9,983.4,469,984.4,468z"/>
		<path class="st5" d="M998.1,610.9c-0.3,0.2-0.7,0.4-1,0.5c-1.9,0-3.8,0-5.7,0c-0.3,0-0.7-0.3-1-0.5
			C993,610.9,995.5,610.9,998.1,610.9z"/>
		<path class="st2" d="M961.7,516.7c0.2,0,0.3,0,0.5,0c0.2,0.1,0.3,0.2,0.5,0.2c-1,1.1-1.8,1.1-2.2,0
			C960.9,516.8,961.3,516.8,961.7,516.7z"/>
		<path class="st5" d="M1010.6,610.4c-0.7,0.9-1.6,0.3-2.4,0.2C1009,610.5,1009.8,610.5,1010.6,610.4z"/>
		<path class="st12" d="M963.6,563.9c0-0.5,0-1,0-1.4C963.6,562.9,963.6,563.4,963.6,563.9z"/>
		<path class="st15" d="M980.1,471.9c0,0.2,0,0.3,0,0.5c-0.1,0.1-0.2,0.2-0.2,0.2c-0.2,0-0.5,0-0.7,0
			C979.5,472.3,979.8,472.1,980.1,471.9z"/>
		<path class="st12" d="M968.6,481.5c0.3-0.2,0.6-0.5,1-0.7C969.3,481,968.9,481.2,968.6,481.5z"/>
		<path class="st5" d="M1003.6,610.9c-0.3,0-0.6,0-1,0C1003,610.9,1003.3,610.9,1003.6,610.9z"/>
		<path class="st5" d="M1016.8,607c-0.3,0.2-0.6,0.5-1,0.7C1016.2,607.5,1016.5,607.3,1016.8,607z"/>
		<path class="st12" d="M886.9,593.1c0.3,0,0.6,0,1,0c-0.2,0.2-0.3,0.3-0.5,0.5C887.2,593.4,887.1,593.3,886.9,593.1z"/>
		<path class="st5" d="M985.4,610.9c-0.2,0.5-0.5,0.5-0.7,0C984.9,610.9,985.2,610.9,985.4,610.9z"/>
		<path class="st12" d="M985.9,468c0.2-0.1,0.5-0.2,0.7-0.2C986.4,467.9,986.1,468,985.9,468z"/>
		<path class="st12" d="M979.2,472.6c0.2,0,0.5,0,0.7,0c-0.2,0.2-0.5,0.3-0.7,0.5c0,0,0,0,0,0C979.2,472.9,979.2,472.7,979.2,472.6z
			"/>
		<path class="st6" d="M907.3,613.7c0.1,0.2,0.2,0.5,0.2,0.7c-0.1,0-0.2,0-0.2,0c-0.1-0.2-0.2-0.3-0.2-0.5
			C907.1,613.9,907.2,613.8,907.3,613.7z"/>
		<path class="st5" d="M1030,593.6c-0.2,0.2-0.3,0.3-0.5,0.5C1029.7,593.9,1029.8,593.8,1030,593.6z"/>
		<path class="st5" d="M1028.5,595c-0.2,0.2-0.3,0.3-0.5,0.5C1028.2,595.4,1028.4,595.2,1028.5,595z"/>
		<path class="st5" d="M1028.1,595.5c-0.2,0.2-0.3,0.3-0.5,0.5C1027.7,595.8,1027.9,595.7,1028.1,595.5z"/>
		<path class="st5" d="M1000.7,610.9c-0.2,0-0.3,0-0.5,0C1000.4,610.9,1000.6,610.9,1000.7,610.9z"/>
		<path class="st5" d="M1007.7,610.6c-0.2,0.1-0.3,0.2-0.5,0.2C1007.4,610.8,1007.5,610.7,1007.7,610.6z"/>
		<path class="st8" d="M987.8,467.8c0.2-0.1,0.3-0.1,0.5-0.2C988.1,467.7,988,467.7,987.8,467.8z"/>
		<path class="st5" d="M1006,611.1c-0.2-0.1-0.3-0.2-0.5-0.2C1005.7,610.9,1005.8,611,1006,611.1z"/>
		<path class="st19" d="M891,484.8c0-0.2,0-0.5,0-0.7c0.1-0.1,0.3-0.1,0.4-0.2c1.3-2.2,3.5-3.5,5.3-5.2c0.4-0.4,0.7-0.9,1-1.3
			c0.1-0.1,0.2-0.2,0.2-0.2c0.5-0.4,1-0.8,1.4-1.2c0.2-0.1,0.3-0.2,0.5-0.2c0.4-0.3,0.8-0.6,1.2-1c0.2-0.2,0.5-0.5,0.7-0.7
			c0.7-0.7,1.4-1.4,2.2-2.1c0.1,0,0.2,0,0.2,0c0.3-0.3,0.6-0.6,1-1c1.2-1,2.4-2.1,3.6-3.1c3.5,0,7,0,10.5,0c1.3,0.1,2.5,0.2,3.8,0.2
			c1.5,0,3.1-0.1,4.6-0.2c0.2,0,0.5,0,0.7,0c0.1,0.1,0.3,0.4,0.4,0.4c2.1,0,4.2-0.1,6.3-0.2c0.5,0,1,0,1.4,0c1.3,0.1,2,0.9,2.8,1.9
			c0.7,0.8,1.6,1.4,2.5,2.1c2.1,1.5,4.2,3,6.2,4.6c1.8,1.3,3.4,2.9,5.2,4.1c1.9,1.3,3.9,2.3,5.8,3.4c0.3,0.8,0.6,1.6,1,2.4
			c0,1,0,1.9,0,2.9c0,1,0,2.1,0,3.1c0,1.4,0,2.7,0,4.1c-0.1,1-0.2,2.1-0.2,3.1c0,1.4,0,2.9,0,4.3c0,0.4,0.3,0.8,0.5,1.2
			c-0.1,0.9-0.2,1.7-0.2,2.6c0,2.7,0.1,5.3,0.2,8c-0.9-0.1-0.9-0.8-0.9-1.4c-0.1-1.1-0.1-2.3-0.3-3.4c0-0.4-0.3-0.7-0.4-1
			c-0.1,0-0.2,0-0.4,0c-0.2,1.1-0.5,2.2-0.6,3.3c0,1.4-0.6,2.4-1.6,3.3c-0.6,0.6-1.1,1.3-1.6,1.9c0,0,0,0,0,0
			c-1.2,1.3-2.4,2.6-3.6,3.8c-0.3,0.2-0.6,0.5-1,0.7c-3,2.8-5.9,5.7-8.9,8.5c-1.3,1.2-2.8,2.3-4.3,3.4c-0.6,0.4-1.3,0.7-1.9,1
			c-0.3,0-0.6,0-1,0c-0.6,0-1.1,0-1.7,0c-0.2,0-0.5,0-0.7,0c-0.2,0.1-0.3,0.2-0.5,0.2c-0.3,0-0.6,0-1,0c-0.5,0-1,0-1.4,0
			c-0.2,0-0.5,0-0.7,0c-0.5,0.1-1,0.2-1.4,0.2c-0.4,0-0.8,0-1.2,0c-0.5-0.1-0.9-0.2-1.4-0.2c-4.2,0-8.4,0-12.5,0
			c-0.8,0-1.6,0.1-2.4,0.2c-0.7-0.5-1.4-0.9-2-1.4c-1.1-1.2-2.1-2.5-3.1-3.7c-0.3-0.3-0.7-0.6-1.1-0.8c0-0.1,0-0.2,0-0.2
			c-1-1.5-2.1-3-3.1-4.4c0-0.1,0-0.2,0-0.4c1.5,0.7,2.2-0.3,3.1-1.1c0.5-0.5,1.2-0.8,1.8-1.2c0.8-0.5,1.5-1,2.3-1.5
			c1.1-0.8,2.2-1.5,3.2-2.5c0.7-0.6,1.3-1.4,1.5-2.3c0.3-1.2,0.2-2.5,0.3-3.7c0.3-2.6,0.3-5.2,0.9-7.7c0.8-3.6,3.3-6.2,6.3-8.3
			c3.8-2.7,8.1-3.8,12.7-3c1.7,0.3,3.3,0.8,5,1.3c1,0.3,1.9,0.4,2.6-0.7c0.2-0.3,0.7-0.6,1.1-0.7c2.9-0.9,5.2-2.6,7.2-4.8
			c0.4-0.4,1-0.8,1.5-1c0.8-0.3,1.2-0.7,1.1-1.6c-0.1-2.9-0.8-5.5-2.7-7.7c-0.3-0.3-0.5-0.6-0.6-1c-0.5-1.9-2-2.9-3.5-3.9
			c-1.9-1.2-4.1-2.2-5.4-4.2c-0.2-0.3-0.6-0.5-1-0.5c-1.6-0.2-3.2-0.5-4.7-0.5c-7.5,0-14.9,0.1-22.4,0.2c-0.3,0-0.7,0.1-1,0.3
			c-2.1,1.6-4.2,3.2-6.1,4.9c-1.9,1.7-3.6,3.7-5.6,5.2c-3.6,2.7-5.2,6.2-5.3,10.6c-0.1,4.6-0.2,9.3-0.2,13.9c0,3.1,0,6.3,0,9.4
			c0,1.2,0,2.3,0,3.6c-0.5,0-0.9,0-1.2-0.1c-0.2,0-0.4-0.1-0.7-0.2c1.1-1.4,1.1-3.1,1.2-4.7c0.2-5.1,0.2-10.2,0.3-15.3
			c0-3.3,0-6.5,0-9.8c0-0.2,0-0.5,0-0.7C891,485.8,891,485.3,891,484.8z M916.5,535.4c2,0,4.1,0.1,6.1,0c2.9-0.2,5.9-0.2,8.7-1.4
			c1.3-0.5,2.7-0.9,3.9-1.6c2.6-1.5,5.5-2.7,7.8-4.7c2.8-2.3,5.1-5.1,7.5-7.9c3.3-3.9,5.6-8.2,6.1-13.5c0.3-3.7-0.3-7-2.1-10.2
			c-1-1.9-2.7-2.6-4.7-2.4c-3.9,0.3-6.5,3.3-6.6,7.2c0,1.6-0.2,3.3-0.7,4.7c-1.7,4.2-4.5,7.7-8,10.6c-3.9,3.3-8.7,4.7-13.5,6
			c-2.8,0.7-5.8,1-8.5,1.7c-3.2,0.9-6,2.4-6.5,6.1c-0.4,2.4,2,5.3,4.3,5.3C912.4,535.4,914.4,535.4,916.5,535.4z"/>
		<path class="st0" d="M937.7,540.2c0.4,0,0.8-0.1,1.1-0.1c0.6-0.1,1.3,0,1.7-0.3c1.2-0.8,2.3-1.8,3.4-2.8c1-1,1.9-2.1,2.8-3.1
			c0.2-0.2,0.3-0.5,0.6-0.6c3-1.9,4.9-4.8,7.2-7.3c1.3-1.4,2.8-2.7,4.3-4c0.3-0.3,1.2-0.2,1.6,0c1.3,1.1,2.5,2.3,3.8,3.5
			c2.9,2.7,5.7,5.4,8.6,8.1c0.7,0.7,1.3,1.4,1.9,2.1c1.2,1.6,3,2.3,4.8,3c0.6,0.3,1.4,0,2.2,0c-0.8,0.4-1.6,0.8-2.4,1.2
			c-0.7,0.1-1.5,0-1.9,0.3c-1.4,1.3-2.6,2.8-3.8,4.2c-0.1,0-0.2,0-0.2,0c-0.6,0.3-1.3,0.6-1.8,1c-1,1-1.8,2.2-2.8,3.3
			c-2.1,2.2-4.3,4.5-6.5,6.6c-1.2,1.1-1.9,1-3.3,0c-1.5-1.2-3-2.5-4.6-3.6c-3.5-2.4-7-4.9-9.9-8c-1.6-1.8-3.5-3.1-6-3.4
			C938.1,540.4,937.9,540.2,937.7,540.2z"/>
		<path class="st12" d="M937.7,540.2c0.2,0.1,0.4,0.2,0.5,0.2c2.5,0.3,4.4,1.6,6,3.4c2.9,3.2,6.4,5.6,9.9,8c1.6,1.1,3.1,2.4,4.6,3.6
			c1.3,1,2.1,1.2,3.3,0c2.3-2.1,4.4-4.4,6.5-6.6c1-1,1.8-2.3,2.8-3.3c0.5-0.5,1.2-0.7,1.8-1c0,0.2,0,0.3,0,0.5
			c-0.4,0.3-0.8,0.5-1.1,0.8c-1.9,2.1-3.7,4.2-5.6,6.4c-0.2,0.2-0.3,0.3-0.5,0.5c-0.2,0.2-0.3,0.5-0.5,0.7c-0.2,0.2-0.3,0.3-0.5,0.5
			c-0.2,0.2-0.3,0.3-0.5,0.5c-0.3,0.3-0.6,0.6-1,1h0c-0.8,0.5-1.7,1-2.6,1.4c-0.5,0.2-1.1,0.3-1.6,0.6c-0.9,0.6-1.6,0.4-2.3-0.3
			c-0.4-0.4-1-0.7-1.5-1.1c-0.1,0.1-0.2,0.2-0.3,0.3c1.1,1.6,2.2,3.1,3.4,4.7c0,0.2,0,0.3,0,0.5c0,0,0,0,0,0c-0.2,0-0.3,0-0.5,0
			c-3.5-2.2-6.1-5.3-8.8-8.4c-1.2-1.4-2.4-3-3.9-4.2c-1.6-1.3-3.6-2.2-5.4-3.3c-0.5-0.3-1.2-0.5-1.4-0.9c-0.2-0.4,0.1-1,0.3-1.8
			c-0.7,0.5-1.3,0.9-1.9,1.3c-1.3-0.1-2.6-0.2-3.8-0.2c-0.6-0.2-1.3-0.7-1.9-0.7c-3.5,0-7.1,0.1-10.6,0.2c-0.3,0-0.6,0.1-0.9,0.2
			c-0.6,0-1.3,0-1.9,0c-0.2,0.1-0.3,0.2-0.5,0.2c-1.8,0-3.5,0-5.3,0c0.5-0.2,1.1-0.5,1.6-0.7c0.4-0.2,0.8-0.3,1.2-0.5
			c1.3-0.1,2.5-0.2,3.8-0.2c5.2,0,10.4,0,15.6,0c0.5,0,1-0.2,1.5-0.3c1.4-0.5,1.4-0.5,0.7-1.8C937.1,540.2,937.4,540.2,937.7,540.2z
			"/>
		<path class="st6" d="M949.9,522.9c0.3-0.2,0.6-0.5,1-0.7c1.8-0.8,2.8-2.2,3.6-3.8c0,0,0,0,0,0c0.5-0.4,1-0.8,1.5-1.1
			c0.7-0.5,1.3-1,2.1-1.3c0.9-0.4,1.8,0.4,1.6,1.3c-0.2,0.9-0.5,1.8-1.1,2.5c-1.2,1.4-2.6,2.8-4,4.1c-3.9,3.7-7.7,7.4-11.6,11.1
			c-1.3,1.2-2.6,2.5-3.9,3.7c-0.3,0.2-0.7,0.3-1,0.5c1.3-1.9,1.3-1.9-0.8-2.9c-0.1-0.1-0.3-0.1-0.4-0.2c0.7-0.5,1.4-0.9,2-1.4
			c3.6-3.3,7.2-6.7,10.8-10C949.8,524.1,949.8,523.4,949.9,522.9z"/>
		<path class="st20" d="M960.2,515.7c-0.1-2.7-0.2-5.3-0.2-8c0-0.9,0.1-1.7,0.2-2.6c0-1.4,0-2.9,0-4.3c0-0.4-0.3-0.8-0.4-1.2
			c0.1-1,0.2-2.1,0.2-3.1c0.3,0.4,0.5,0.7,1.1,1.4c0.2-1.5,0.5-2.7,0.6-4c0.1-2.1,0.2-4.1,0.3-6.2c0.1-2.1,1-3.7,2.8-5
			c3.9-2.9,7.6-6.1,11.3-9.1c2.1-1.7,4.2-3.5,6.4-5.2c0.5-0.4,1.3-0.5,2-0.7c0,0.1,0,0.2,0,0.2c-1,1-2.1,1.9-3.1,2.9
			c-0.2,0.2-0.5,0.3-0.7,0.5c-0.2,0.2-0.3,0.3-0.5,0.5c-0.3,0.2-0.6,0.5-1,0.7c0,0.2,0,0.3,0,0.5c-0.2,0-0.5,0-0.7,0
			c-0.2,0.2-0.5,0.3-0.7,0.5c-0.1,0.1-0.2,0.2-0.2,0.2c-0.8,0.5-1.7,0.9-2.4,1.5c-3.7,3-7.3,6.1-10.9,9.1c-0.4,0.3-0.5,0.9-0.8,1.4
			c-0.1,0.5-0.2,1-0.2,1.4c-0.2,0.4-0.4,0.8-0.5,1.2c-0.2,2-0.4,4.1-0.4,6.2c0,1.5,0.1,3.1,0.2,4.6c0,0.5,0,1,0,1.4
			c-0.9,1.3-0.5,2.7-0.2,4.1c0.2,3.4,0.4,6.9,0.5,10.3c0,0.5-0.7,1-1,1.4c-0.4,0-0.8,0-1.2,0C960.4,516.2,960.3,516,960.2,515.7z"/>
		<path class="st21" d="M935.5,539.5c0.2,0.2,0.3,0.3,0.5,0.5c-0.4,0.3-0.8,0.8-1.3,0.9c-1,0.2-2,0.2-3,0.3
			c-5.9,0.2-11.8,0.4-17.6,0.5c-1.5,0-3.1-0.4-4.6-0.6c-1.1-0.2-1.5-0.7-1-1.8c0.2-0.1,0.5-0.1,0.7-0.2c3.2,0.1,6.4,0.2,9.6,0.2
			c2.1,0,4.1-0.1,6.2-0.2c0.9,0.6,1.8,0.7,2.7,0c0.2,0,0.5,0,0.7,0c0.3,0,0.6,0,1,0c1.8,0.1,3.7,0.3,5.5,0.4
			C935.1,539.4,935.3,539.4,935.5,539.5z"/>
		<path class="st17" d="M935.5,539.5c-0.2,0-0.5,0-0.7,0c-0.6-0.2-1.1-0.6-1.7-0.7c-1.3-0.1-2.5,0-3.8,0c-0.3,0.1-0.6,0.1-1,0.2
			c-0.2,0-0.5,0-0.7,0c-0.9,0-1.8,0-2.7,0c-2.1,0.1-4.1,0.2-6.2,0.2c-3.2,0-6.4-0.1-9.6-0.2c0.2-1.3,0.6-1.6,1.9-1.5
			c1.1,0.1,2.1,0.3,3.2,0.3c4.6-0.2,9.1-0.5,13.7-0.7c1.9-0.1,3.7-0.2,5.6-0.5c0.7-0.1,1.4-0.5,2-0.7c0.4,0,0.8,0,1.2,0
			c0.1,0.1,0.3,0.1,0.4,0.2c2,1,2,1,0.8,2.9C937.1,539.1,936.3,539.3,935.5,539.5z"/>
		<path class="st7" d="M979.2,539.9c0.8-0.4,1.6-0.8,2.4-1.2c0.2,0,0.5,0,0.7,0c0.2,0,0.3,0,0.5,0c-0.1,0.3-0.2,0.6-0.3,0.9
			c-0.4,0.2-1.1,0.3-1.2,0.6c-0.2,0.6-0.2,1.4,0.1,1.8c0.4,0.6,1.1,0.2,1.4-0.4c1.9,0.1,3.8,0.3,5.7,0.2c6.1-0.2,12.2-0.7,18.2-0.1
			c0.4,0,0.8,0,1.2,0.1c2.4,0.3,2.4,0.3,3.1-1.9c0.5,1.4,0.2,1.8-1.1,2.4c-1.9,0.9-3.7,0.1-5.5-0.1c-3.9-0.5-7.8-0.2-11.7,0
			c-2.1,0.1-4.1,0.2-6.2,0.4c-1.9,0.1-3.8,0.2-5.7,0.4c-0.2,0-0.5,0.2-0.7,0.4c-1,1.1-1.8,2.4-2.9,3.4c-2.2,2.1-4.5,4.1-6.8,6.2
			c-0.2,0.2-0.5,0.4-0.8,0.6c0,0,0,0,0,0c0.1-0.3,0.1-0.6,0.2-0.8c1.4-1.4,2.7-2.9,4.1-4.3c1.4-1.3,2.9-2.4,4.3-3.6
			c1.3-1.2,1.5-3,0.4-4.5C979,540.2,979.1,540.1,979.2,539.9z"/>
		<path class="st16" d="M908.5,539.2c-0.4,1,0,1.6,1,1.8c1.5,0.2,3.1,0.6,4.6,0.6c5.9-0.1,11.8-0.3,17.6-0.5c1,0,2-0.1,3-0.3
			c0.5-0.1,0.9-0.6,1.3-0.9c0.2,0.1,0.5,0.2,0.7,0.2c0.7,1.3,0.7,1.3-0.7,1.8c-0.5,0.2-1,0.3-1.5,0.3c-5.2,0-10.4,0-15.6,0
			c-1.3,0-2.5,0.1-3.8,0.2c-1.5,0-3,0-4.6,0c-0.3,0.2-0.6,0.5-1,0.7c-0.2,0-0.3,0-0.5,0c-0.3-0.3-0.6-0.6-0.8-0.9
			c-0.5-0.6-1-1.3-1.5-2c0.2-0.3,0.3-0.6,0.5-0.9c0.2-0.1,0.5-0.2,0.7-0.3C908.2,539.2,908.3,539.2,908.5,539.2z"/>
		<path class="st0" d="M960.5,516.4c0.4,0,0.8,0,1.2,0c0,0.1,0,0.2,0,0.2c-0.4,0.1-0.8,0.2-1.2,0.2
			C960.5,516.8,960.5,516.6,960.5,516.4z"/>
		<path class="st12" d="M982.8,538.7c-0.2,0-0.3,0-0.5,0c0.2-0.2,0.5-0.3,0.7-0.5c0.2,0,0.3,0,0.5,0c0.2,0,0.3,0,0.5,0.1
			c0,0.1,0,0.1,0,0.2C983.6,538.6,983.2,538.7,982.8,538.7z"/>
		<path class="st18" d="M889.6,516.7c0.2,0.1,0.4,0.2,0.7,0.2c0.3,0.1,0.7,0.1,1.2,0.1c0-1.2,0-2.4,0-3.6c0-3.1,0-6.3,0-9.4
			c0.1-4.6,0.2-9.3,0.2-13.9c0.1-4.4,1.7-7.9,5.3-10.6c2-1.5,3.7-3.5,5.6-5.2c2-1.7,4.1-3.3,6.1-4.9c0.3-0.2,0.7-0.3,1-0.3
			c7.5-0.1,14.9-0.2,22.4-0.2c1.6,0,3.2,0.3,4.7,0.5c0.4,0,0.8,0.3,1,0.5c1.3,2,3.5,3,5.4,4.2c1.5,1,3,2,3.5,3.9
			c0.1,0.4,0.4,0.7,0.6,1c1.9,2.2,2.6,4.9,2.7,7.7c0,0.8-0.3,1.3-1.1,1.6c-0.6,0.2-1.1,0.6-1.5,1c-2,2.2-4.3,3.9-7.2,4.8
			c-0.4,0.1-0.8,0.4-1.1,0.7c-0.7,1.1-1.6,1-2.6,0.7c-1.6-0.5-3.3-1-5-1.3c-4.6-0.7-8.9,0.4-12.7,3c-3,2.1-5.5,4.7-6.3,8.3
			c-0.6,2.5-0.6,5.1-0.9,7.7c-0.1,1.2,0,2.5-0.3,3.7c-0.2,0.8-0.9,1.6-1.5,2.3c-1,0.9-2.1,1.7-3.2,2.5c-0.7,0.5-1.5,1-2.3,1.5
			c-0.6,0.4-1.3,0.7-1.8,1.2c-0.9,0.8-1.6,1.8-3.1,1.1c0,0.1,0,0.2,0,0.4c1,1.5,2.1,3,3.1,4.4c-0.3-0.2-0.7-0.3-0.9-0.6
			c-3.7-3.7-7.4-7.4-11.1-11.1c-1.4-1.4-1.4-1.4-2.8,0c-0.1,0.1-0.2,0.1-0.3,0.2c-0.1-1.1,0.7-1.5,1.4-1.9
			C889.2,516.7,889.4,516.7,889.6,516.7z M926.5,471.5c0,0.1-0.1,0.2-0.1,0.2c-1.3,0.1-2.7,0.3-4,0.3c-4.7,0-9,1.5-13,3.6
			c-5.3,2.7-9,7.1-11.6,12.5c-0.6,1.2-1,2.3-1.5,3.5c-1.6,3.8-3.3,7.6-3.9,11.8c-0.4,3-0.5,5.9,1.6,8.4c0.2,0.3,0.4,0.7,0.5,1.1
			c0.2,1.1,0.5,1.9,1.7,2.4c0.4,0.2,0.7,0.8,0.9,1.3c0.4,1,0.8,1.9,2.2,1.6c0.2-0.1,0.6,0.1,0.8,0.3c2.2,1.5,4.3-0.1,4.8-2.1
			c0.3-1,0.9-1.8,1.2-2.8c0.4-1.1,0.8-2.3,1-3.5c0.4-2.3,0.5-4.7,1-6.9c0.5-1.9,1.4-3.7,2.1-5.6c0.6-1.5,1.2-3.1,2.6-4.1
			c2.5-1.9,5.1-3.7,8.1-4.8c3.3-1.3,6.4-1.9,9.8-0.2c1.6,0.8,3.5,1.2,5.3,1.4c2.8,0.2,5.6,0,7.9-2.4c1.4-1.5,1.2-1.7,0.7-3.3
			c-0.2-0.8-0.3-1.8-0.4-2.6c-0.1-0.4-0.2-0.8-0.4-1.1c-0.8-1.2-1.5-2.4-2.4-3.5c-0.6-0.8-1.4-1.6-2.3-1.9c-2.1-0.8-4.4-1.5-6.6-2.1
			C930.4,472.3,928.4,472,926.5,471.5z"/>
		<path class="st6" d="M908.5,539.2c-0.2,0-0.3,0-0.5,0c-0.4-1.2,0.1-1.9,1.2-2.1c1.2-0.2,2.4-0.3,3.6-0.2c3.9,0.1,7.8,0.5,11.6-0.3
			c0.3-0.1,0.5-0.2,0.8-0.3c0.4,0,0.8,0,1.2,0c0.5-0.1,1-0.2,1.4-0.2c0.2,0,0.5,0,0.7,0c0.5,0,1,0,1.4,0c0.3,0,0.6,0,1,0
			c0.2-0.1,0.3-0.2,0.5-0.2c0.2,0,0.5,0,0.7,0c0.6,0,1.1,0,1.7,0c0.3,0,0.6,0,1,0c0.2,0,0.5,0,0.7,0c-0.7,0.2-1.3,0.6-2,0.7
			c-1.9,0.2-3.7,0.4-5.6,0.5c-4.6,0.3-9.1,0.5-13.7,0.7c-1.1,0-2.1-0.2-3.2-0.3c-1.3-0.1-1.7,0.2-1.9,1.5
			C909,539.1,908.7,539.1,908.5,539.2z"/>
		<path class="st18" d="M902.7,530.3c0.4,0.3,0.8,0.5,1.1,0.8c1.1,1.2,2,2.5,3.1,3.7c0.5,0.6,1.3,1,2,1.4c-0.9,0.5-1.8,0.2-2.3-0.6
			C905.3,534,904,532.2,902.7,530.3z"/>
		<path class="st8" d="M959,484.1c-1.9-1.1-4-2.2-5.8-3.4c-1.8-1.3-3.5-2.8-5.2-4.1c-2.1-1.6-4.2-3-6.2-4.6
			c-0.9-0.6-1.8-1.2-2.5-2.1c-0.8-0.9-1.5-1.8-2.8-1.9c0.6-0.2,1.1-0.3,1.7-0.5c1.3,0.7,2.1,2.2,3.7,2.6c0.4,0.1,0.8,0.5,1.2,0.8
			c1.7,1.3,3.5,2.5,5,4.1c2.1,2.2,4.7,3.6,7.1,5.4c0.9,0.7,2,1.3,2.9,2.1C958.5,483,958.7,483.6,959,484.1z"/>
		<path class="st17" d="M984,538.3c-0.2,0-0.3,0-0.5-0.1c-0.3-1.6,0-1.9,1.6-1.9c2.1,0,4.2,0,6.3,0c4.6-0.1,9.2-0.2,13.9-0.2
			c1.8,0,3.6,0.1,5.2-0.8c0.2-0.1,0.5-0.1,0.7-0.1c1.3,0,2.6,0,4.1,0c-0.6,0.8-1.2,1.7-1.8,2.5c-0.2,0.1-0.5,0.2-0.7,0.2
			c-0.5,0.2-1,0.3-1.4,0.5c-0.1,0-0.2,0-0.3,0.1c-2.1,0-4.3,0-6.4,0c-1.9-0.1-3.9-0.1-5.8-0.2c-1,0-2,0-3,0c-1.4,0-2.9,0-4.3,0
			C988.9,538.3,986.5,538.3,984,538.3z"/>
		<path class="st22" d="M907.3,465c0.6,0,1-0.1,1.4-0.1c9.6,0,19.2,0,28.7,0c0.5,0,0.9,0.3,1.4,0.5c-0.4,0.3-0.9,0.8-1.3,0.9
			c-1.3,0.2-2.7,0.3-4,0.3c-5.5,0-10.9,0-16.4,0c-2.2,0-4.4,0.2-6.6,0.2C909.2,466.8,908.1,466.4,907.3,465z"/>
		<path class="st8" d="M927.7,467.8c-1.5,0.1-3.1,0.2-4.6,0.2c-1.3,0-2.5-0.1-3.8-0.2c1.5-0.1,2.9-0.2,4.4-0.2
			C925,467.6,926.3,467.7,927.7,467.8z"/>
		<path class="st8" d="M935.1,468c-2.1,0.1-4.2,0.1-6.3,0.2c-0.1,0-0.3-0.3-0.4-0.4c1.8,0,3.6,0,5.5,0
			C934.2,467.8,934.7,468,935.1,468z"/>
		<path class="st23" d="M982.5,464.9c0.2,0,0.3,0,0.5,0c0.4,0.4,0.7,1,1.1,1.1c1.1,0.3,2.3,0.3,3.4,0.5c0.3,0.1,0.7,0.2,1,0.3
			c-1.4,0.1-2.7,0.2-4.1,0.3C983.3,466.8,982.7,466,982.5,464.9z"/>
		<path class="st20" d="M960,492.5c0-1,0-2.1,0-3.1C960.7,490.2,960.7,491.6,960,492.5z"/>
		<path class="st6" d="M939.6,614.2c0.3-0.9,0.1-1.7-0.8-2.3c-0.3-0.2-0.7-0.2-1-0.2c-1.3,0.2-2.7,0.4-4,0.5
			c0.4-0.2,0.7-0.4,1.1-0.5c0.5-0.1,1.2,0,1.6-0.3c1.8-1.1,3.7-2.2,5.4-3.5c2.3-1.8,4.6-3.8,6.8-5.8c2.4-2.2,4.8-4.3,7.1-6.6
			c0.6-0.6,1.5-1.2,1.1-2.3c0.3-0.4,0.6-0.8,1-1.2c0.2,0,0.5,0,0.7,0c0.2,0,0.3,0,0.5,0c0.2,0,0.5,0,0.7,0c0.2,0,0.5,0,0.7,0l0.1,0
			l0.1,0c0.2,0.2,0.3,0.5,0.5,0.7c0,0,0,0,0,0c-0.1,0.1-0.3,0.1-0.3,0.2c-0.6,3.3-3.4,5-5.2,7.3c-2.5,3.2-6,5.2-9,7.7
			C944.3,610.1,942,612.2,939.6,614.2z"/>
		<path class="st8" d="M1013.7,542.7c1.5-1.7,2.5-1.7,4.1-0.5c4.1,3.2,8.2,6.4,12.3,9.6c0.8,0.6,1.4,1.4,2,2.2
			c0.2,0.3,0.2,1.2,0,1.4c-0.4,0.3-1.2,0.7-1.7,0.5c-1-0.5-2-1.2-2.8-1.9c-3.8-3.2-7.6-6.5-11.5-9.7
			C1015.4,543.6,1014.6,543.2,1013.7,542.7z"/>
		<path class="st23" d="M1004.6,538.5c2.1,0,4.3,0,6.4,0c0,0.1,0,0.1,0,0.2c0,0.1,0,0.1,0,0.2c-0.5,0.2-1.1,0.6-1.6,0.7
			c-4,0.4-8,0.7-12,1c-2.1,0.2-4.3,0.3-6.4,0.4c-2,0.1-4.1,0.2-6.1,0.3c-1.1,0-1.6-0.6-1.3-1.7c0.1-0.4,0.3-0.7,0.4-1.1
			c0-0.1,0-0.1,0-0.2c2.5,0,4.9,0,7.4,0c1.4,0,2.9,0,4.3,0c1,0,2,0,3,0C1000.7,539.1,1002.6,538.8,1004.6,538.5z"/>
		<path class="st16" d="M984,538.5c-0.2,0.4-0.4,0.7-0.4,1.1c-0.3,1.1,0.2,1.7,1.3,1.7c2,0,4.1-0.1,6.1-0.3c2.1-0.1,4.3-0.3,6.4-0.4
			c4-0.3,8-0.6,12-1c0.6-0.1,1.1-0.5,1.6-0.7c0,0.3,0,0.7,0.1,1c-0.8,2.2-0.8,2.2-3.1,1.9c-0.4-0.1-0.8,0-1.2-0.1
			c-6.1-0.7-12.2-0.1-18.2,0.1c-1.9,0.1-3.8-0.1-5.7-0.2c-0.1-0.6-0.2-1.3-0.2-1.9c0.1-0.3,0.2-0.6,0.3-0.9
			C983.2,538.7,983.6,538.6,984,538.5z"/>
		<path class="st7" d="M969.8,553.6c-0.7,0.8-1.4,1.6-2.2,2.4l0,0C967.9,554.8,968.8,554.1,969.8,553.6L969.8,553.6z"/>
		<path class="st7" d="M967.7,556c-0.4,0.5-0.8,1-1.2,1.4c0,0,0,0,0,0C966.9,556.9,967.3,556.5,967.7,556L967.7,556z"/>
		<path class="st9" d="M1011.3,538.5c0.5-0.2,1-0.3,1.4-0.5c0,0.1,0,0.2,0,0.2c-0.2,0.2-0.5,0.3-0.7,0.5
			C1011.8,538.6,1011.5,538.6,1011.3,538.5z"/>
		<path class="st0" d="M1011.3,538.5c0.2,0.1,0.5,0.2,0.7,0.2c-0.3,0-0.7,0-1,0c0-0.1,0-0.1,0-0.2
			C1011.1,538.5,1011.2,538.5,1011.3,538.5z"/>
		<path class="st12" d="M909.2,543.3c0.2,0,0.3,0,0.5,0c0,0.1,0,0.2,0,0.2c-0.6,0.5-1.1,1-1.7,1.4c-0.9,1-1.8,1.9-2.6,2.9
			c-0.3,0.2-0.6,0.5-1,0.7c0,0,0,0,0,0c-0.6,0.6-1.3,1.1-1.9,1.7h0c-0.7,0.6-1.4,1.3-2.2,1.9c-0.2,0.2-0.5,0.5-0.7,0.7
			c-0.3,0.2-0.6,0.5-1,0.7c0,0,0,0,0,0c-0.3,0.2-0.6,0.5-1,0.7c-0.1,0.1-0.2,0.2-0.2,0.2c-0.3,0.2-0.6,0.5-1,0.7c0,0,0,0,0,0
			c-0.7,0.6-1.4,1.3-2.2,1.9c-0.6,0.6-1.3,1.3-1.9,1.9c-0.2,0.3-0.5,0.6-0.7,1c-1.6,1.1-1.7,2.8-1.7,4.6c-0.1,0.7-0.2,1.4-0.2,2.2
			c0,0.2,0,0.3,0,0.5c-0.1,0.8-0.2,1.6-0.2,2.4c-0.1,5.7-0.2,11.3-0.2,17c0,1.2,0.1,2.3,0,3.5c0,0.7-0.3,1.4-0.5,2.1
			c-0.2,0.1-0.3,0.2-0.5,0.2c0-2.1,0-4.3,0-6.4c0.1-3.8,0.3-7.6,0.4-11.4c0.1-2,0-3.9,0.1-5.9c0-0.7,0-1.4,0-2.2
			c0.1-0.3,0.2-0.6,0.2-1c-0.1-3.5,1.5-6.1,4.1-8.3c4.3-3.7,8.5-7.4,12.8-11.1c0.7-0.6,1.1-1.5,1.8-2.2c0.3-0.3,0.7-0.5,1-0.7
			C908.9,543.3,909,543.3,909.2,543.3z"/>
		<path class="st12" d="M897.7,477.4c-0.3,0.4-0.6,0.9-1,1.3c-1.8,1.7-4,3-5.3,5.2c-0.1,0.1-0.3,0.2-0.4,0.2c0-0.2,0-0.3,0-0.5
			c0.5-0.7,0.8-1.5,1.4-2C894.1,480.1,895.9,478.8,897.7,477.4z"/>
		<path class="st8" d="M903.9,471.9c-0.7,0.7-1.4,1.4-2.2,2.1C902.5,473.3,903.2,472.6,903.9,471.9z"/>
		<path class="st8" d="M899.4,475.9c-0.5,0.4-1,0.8-1.4,1.2C898.4,476.7,898.9,476.3,899.4,475.9z"/>
		<path class="st8" d="M901,474.7c-0.4,0.3-0.8,0.6-1.2,1C900.3,475.4,900.7,475.1,901,474.7z"/>
		<path class="st8" d="M905.1,470.9c-0.3,0.3-0.6,0.6-1,1C904.5,471.5,904.8,471.2,905.1,470.9z"/>
		<path class="st13" d="M967.7,556c-0.4,0.5-0.8,1-1.2,1.4c-1.1,1.2-2.2,2.3-3.2,3.6c-0.8,1.1-1.1,1.3-2.1,0.3
			c-0.6-0.5-1.1-0.7-1.6-0.1c-0.2,0-0.5,0-0.7,0c0-0.2,0-0.3,0-0.5c0-0.3,0-0.5,0-0.8c0-1.5,1-2.8,2.3-2.8c1.4,0,2.1-0.7,2.4-1.9h0
			c0.3-0.3,0.6-0.6,1-1c0.2-0.2,0.3-0.3,0.5-0.5c0.2-0.2,0.3-0.3,0.5-0.5c0.2-0.2,0.3-0.5,0.5-0.7c0.2-0.2,0.3-0.3,0.5-0.5
			c1.9-2.1,3.7-4.3,5.6-6.4c0.3-0.3,0.8-0.5,1.1-0.8c0.2-0.2,0.3-0.3,0.5-0.5c0.7-0.6,1.4-1.1,2.2-1.7c0.9-0.8,1.8-1.6,2.6-2.4
			c0.2,0,0.3,0,0.5,0c1,1.6,0.9,3.4-0.4,4.5c-1.4,1.2-2.9,2.3-4.3,3.6c-1.4,1.4-2.8,2.8-4.1,4.3c-0.2,0.2-0.2,0.5-0.2,0.8
			C968.8,554.1,967.9,554.8,967.7,556z"/>
		<path class="st0" d="M889.8,567.2c0-0.2,0-0.3,0-0.5c0.8-0.6,0.5-1.4,0.2-2.2c-0.1-1.7,0.1-3.4,1.7-4.6c0.2-0.3,0.5-0.6,0.7-1
			c0.6-0.6,1.3-1.3,1.9-1.9c0.7-0.6,1.4-1.3,2.2-1.9c0,0,0,0,0,0c0.3-0.2,0.6-0.5,1-0.7c0.1-0.1,0.2-0.2,0.2-0.2
			c0.3-0.2,0.6-0.5,1-0.7c0,0,0,0,0,0c0.3-0.2,0.6-0.5,1-0.7c0.2-0.2,0.5-0.5,0.7-0.7c0.7-0.6,1.4-1.3,2.2-1.9c0,0,0,0,0,0
			c0.6-0.6,1.3-1.1,1.9-1.7c0,0,0,0,0,0c0.3-0.2,0.6-0.5,1-0.7c0.9-1,1.8-1.9,2.6-2.9c0.6-0.4,1.3-0.8,1.9-1.2c0.8,0,1.6,0,2.4,0
			c1.8,0,3.5,0,5.3,0c0.2-0.1,0.3-0.2,0.5-0.2c0.6,0,1.3,0,1.9,0c0.5,0.1,1,0.2,1.5,0.2c3.2,0,6.5,0,9.7,0c0.7,0,1.5,0,2.2,0
			c1.3,0.1,2.6,0.2,3.8,0.2c1.1,1.9,3,2.7,4.8,3.7c1.7,1,3.3,2,4.7,3.4c2.4,2.2,4.5,4.8,6.7,7.1c1,1,2.1,2,3.3,2.9
			c0.4,0.3,1,0.1,1.5,0.2c0.2,0,0.3,0,0.5,0c0.2,0.2,0.3,0.5,0.5,0.7c-0.4,0.3-1,0.6-1.1,1c-0.3,1.4-0.5,2.9-0.6,4.4
			c-0.2,5.5,0.2,10.9,0.6,16.3c0.2,2.8-0.2,5.6-0.4,8.5c-0.3,0.4-0.6,0.8-1,1.2c-1,0.8-1.9,1.6-2.9,2.4c0.5-0.7,1.1-1.3,1.6-2
			c0.5-0.7,1.3-1.4,1.4-2.2c0.2-3.3,0.3-6.7,0.2-10c-0.1-2.8-0.8-5.5-1-8.3c-0.1-1.3-0.6-2.1-1.7-2.6c-4.5-2.1-11.1-0.1-13.5,4.2
			c-1.3,2.3-2.1,4.9-3.1,7.4c-0.2,0.4-0.5,0.8-0.8,1.3c-0.1-0.1-0.3-0.1-0.4-0.2c0.3-0.9,0.5-1.8,0.8-2.7c0.8-2.4,1.6-4.8,2.5-7.1
			c0.9-2.2,0.2-3.9-1.5-5c-1.2-0.8-2.8-1-4.2-1.3c-0.4-0.1-1,0.6-1.3,1c-0.4,0.8-0.7,1.7-1,2.6c-1.3,3.9-2.6,7.9-3.9,11.8
			c-0.4,1.2-0.8,2.3-1.2,3.5c-0.3,0.9-0.2,1.8,0.6,2.4c0.7,0.6,1.6,0.5,2.3,0c0.1-0.1,0.2-0.2,0.3-0.2c0.5,0.1,0.9,0.3,1.4,0.4
			c-0.1,0.4-0.2,0.8-0.5,1.1c-2.1,2.2-4.9,3.3-7.7,4.2c-2.4,0.7-4.9,1.2-7.3,1.9c-4.7,1.3-8.5,3.6-10.2,8.5
			c-0.4,1.1-0.3,1.9,0.5,2.7c0.7,0.8,1.3,1.7,2,2.5c0.2,0.3,0.6,0.5,1,0.6c1.9,0.2,3.7,0.3,5.6,0.5c0.2,0,0.3,0,0.5,0
			c0.5,0.1,0.9,0.2,1.4,0.2c6.4-0.1,12.9-0.3,19.3-0.5c0.6,0,1.2-0.4,1.7-0.7c0.7-0.4,1.4-0.8,2-1.2c-1,1.2-2,2.5-3.7,2.6
			c-4.2,0.2-8.5,0.5-12.7,0.5c-5.2-0.1-10.3-0.6-15.5-0.9c-0.3-0.5-0.5-1.1-0.9-1.5c-4-3.9-8-7.8-12-11.8c-1.1-1.1-2.2-2.4-3.2-3.7
			c-0.9-1-1.7-2-3.3-1.5c0.2-0.7,0.4-1.4,0.5-2.1c0.1-1.2,0-2.3,0-3.5c0.1-5.7,0.2-11.3,0.2-17C890.4,568.9,890.1,568.1,889.8,567.2
			z M914.7,571.5c0.1,0.1,0.3,0.2,0.4,0.3c-0.4,1.7-0.8,3.4-1.2,5.1c-0.3,1.2,0.1,2.1,1.1,2.8c0.3,0.2,0.6,0.4,0.9,0.6
			c1.7,1.6,4.8,1.1,5.9-1c0.6-1.2,1.2-2.5,1.6-3.8c0.7-2.2,1.4-4.5,2-6.8c0.3-1.3,0.6-2.7,0.5-4.1c-0.1-2-0.3-2,1.7-2.5
			c0.8-0.2,1.7-0.1,2.6-0.1c0.5,0,1.1,0.2,1.5,0.1c2.1-0.4,4.1-0.1,6,0.6c4.2,1.6,7.2,0.1,9.6-3c2.2-2.7,1.6-4.8-0.5-7.1
			c-2.6-2.7-5.7-4.7-9-6.5c-0.9-0.5-1.8-1-2.7-1.2c-1.6-0.3-3.3-0.3-5-0.3c-2.7,0-5.4,0.2-8.1,0.2c-3.8,0-7.4,0.6-10.9,2
			c-2.5,1-5.1,1.8-7.1,3.9c-0.7,0.8-1.6,1.4-2.4,2.1c-2.6,2.2-5.3,4.4-7.7,6.8c-1.1,1.1-2.2,2.7-2.6,4.2c-0.7,2.5-1,5.1-1.1,7.7
			c-0.2,5.6-0.1,11.1,0,16.7c0,0.8,0.5,1.8,1,2.4c0.8,0.9,1.8,1.6,2.7,2.4c0.3,0.3,0.6,0.6,1,0.6c1.1,0.2,2.3,0.6,3.4,0.5
			c1.2-0.1,2.5-0.4,3.6-1.1c2-1.2,2.7-3.4,3.6-5.4c2-4.9,4-9.8,7.3-14.1C913.5,573,914.1,572.2,914.7,571.5z"/>
		<path class="st24" d="M908.2,610.6c5.2,0.3,10.3,0.8,15.5,0.9c4.2,0.1,8.5-0.2,12.7-0.5c1.7-0.1,2.7-1.4,3.7-2.6
			c0.2-0.2,0.5-0.5,0.7-0.7c0.2-0.2,0.5-0.3,0.7-0.5c1-0.9,1.9-1.8,2.9-2.6c0.2-0.2,0.5-0.5,0.7-0.7c0.9-0.8,1.8-1.6,2.6-2.4
			c0.3-0.2,0.6-0.5,1-0.7c0.2-0.2,0.3-0.5,0.5-0.7c0.3-0.2,0.6-0.5,1-0.7c0.2-0.2,0.5-0.3,0.7-0.5c0.2-0.2,0.3-0.5,0.5-0.7
			c0.2-0.1,0.5-0.2,0.7-0.2c0.2-0.2,0.5-0.5,0.7-0.7c0.2-0.3,0.5-0.6,0.7-1c0.2-0.2,0.3-0.3,0.5-0.5c1-0.8,1.9-1.6,2.9-2.4
			c0.4,1.1-0.5,1.7-1.1,2.3c-2.3,2.2-4.7,4.4-7.1,6.6c-2.2,2-4.4,4-6.8,5.8c-1.7,1.3-3.5,2.4-5.4,3.5c-0.4,0.3-1.1,0.2-1.6,0.3
			c-0.4,0.1-0.7,0.3-1.1,0.5c-0.7,0-1.4,0-2.2,0c-0.5-0.1-1-0.2-1.5-0.2c-3.8,0.1-7.6,0.4-11.4,0.4c-2,0-4-0.5-6-0.8
			c-1.2-0.2-2.4-0.4-3.5-0.5c-0.2,0-0.5,0.2-0.8,0.4c-0.3,0.2-0.6,0.5-1,0.7c-0.1,0.2-0.2,0.3-0.2,0.5c0,0.3,0,0.6,0,1
			c-0.1,0.1-0.2,0.2-0.2,0.2c-1.1-0.9-2.2-1.8-3.3-2.7c-0.8-0.7-1.5-1.5-2.2-2.2c-2.8-2.6-5.7-5.2-8.5-7.8c-1.6-1.5-3.1-3.2-4.6-4.8
			c-1-1.2-1-2.1,0.3-3c0.3-0.2,1.1-0.2,1.3,0c0.9,0.7,1.7,1.6,2.5,2.4c2.2,2,4.4,4,6.5,6.1c2.6,2.6,5,5.2,7.5,7.9
			C907,610.3,907.3,610.9,908.2,610.6z"/>
		<path class="st3" d="M957.8,592.2c0.2-2.8,0.6-5.7,0.4-8.5c-0.4-5.4-0.8-10.9-0.6-16.3c0-1.5,0.3-2.9,0.6-4.4
			c0.1-0.4,0.7-0.7,1.1-1c0.2,0.2,0.3,0.3,0.5,0.5c0,0.6,0,1.1,0,1.7c0,0.2,0,0.3,0,0.5c0.2,0.3,0.3,0.6,0.5,1c0,0.6,0,1.3,0,1.9
			c0,1,0,1.9,0,2.9c0.1,0.7,0.2,1.4,0.2,2.2c0,0.4,0,0.8,0,1.2c0,4.6,0,9.3,0,13.9c0.1,1.5,0.2,3,0.2,4.6l-0.1,0c0,0-0.1,0-0.1,0
			c-0.2-0.1-0.3-0.2-0.5-0.2c-0.5-0.8-1-1.1-1.4,0c0,0.1,0,0.2,0,0.2C958.3,592.2,958.1,592.2,957.8,592.2z"/>
		<path class="st0" d="M960.7,592.2c-0.1-1.5-0.2-3-0.2-4.6c0.2,0.9,0.3,1.7,0.5,2.6c0.1,0.9,0.1,1.9,1.2,2.2
			c-0.3,0.2-0.6,0.3-1,0.5C961,592.6,960.9,592.4,960.7,592.2z"/>
		<path class="st19" d="M960.2,570.4c0-1,0-1.9,0-2.9C960.2,568.4,960.2,569.4,960.2,570.4z"/>
		<path class="st19" d="M959.8,564.1c0-0.6,0-1.1,0-1.7C959.8,563,959.8,563.6,959.8,564.1z"/>
		<path class="st19" d="M960.5,573.7c0-0.4,0-0.8,0-1.2C960.5,572.9,960.5,573.3,960.5,573.7z"/>
		<path class="st19" d="M960.2,565.6c-0.2-0.3-0.3-0.6-0.5-1C959.9,564.9,960.1,565.2,960.2,565.6z"/>
		<path class="st7" d="M889.1,565.6c-0.1,0.3-0.2,0.6-0.2,1C888.9,566.2,889,565.9,889.1,565.6z"/>
		<path class="st22" d="M988.5,466.8c-0.3-0.1-0.7-0.3-1-0.3c-1.1-0.2-2.3-0.2-3.4-0.5c-0.4-0.1-0.8-0.7-1.1-1.1
			c9.2,0,18.5,0,27.7,0c0.4,0,0.8,0.2,1.3,0.2c-0.3,0.6-0.7,1.1-1,1.7c-0.6,0-1.3,0-1.9,0c-0.4-0.2-0.8-0.6-1.3-0.7
			c-3.8-1-7.7-0.8-11.6-0.4c-0.7,0.1-1.3,0.6-1.9,0.9c-0.4,0-0.8,0-1.2,0c-1.2-0.3-2.4-0.6-3.6,0.2
			C989.2,466.8,988.8,466.8,988.5,466.8z"/>
		<path class="st23" d="M994.3,466.6c0.6-0.3,1.3-0.8,1.9-0.9c3.9-0.4,7.8-0.6,11.6,0.4c0.5,0.1,0.9,0.5,1.3,0.7
			C1004.2,466.8,999.2,466.7,994.3,466.6z"/>
		<path class="st23" d="M989.5,466.8c1.2-0.8,2.4-0.5,3.6-0.2C991.9,466.7,990.7,466.7,989.5,466.8z"/>
		<path class="st23" d="M1011,466.8c0.3-0.6,0.7-1.1,1-1.7C1012.1,466,1012.2,466.7,1011,466.8z"/>
		<path class="st7" d="M962.4,499.2c-0.1-1.5-0.2-3.1-0.2-4.6c0.1-2.1,0.3-4.1,0.4-6.2c0-0.4,0.3-0.8,0.5-1.2c0.1,2,0.2,4,0.1,6
			c-0.1,1.6-0.4,3.3-0.6,4.9C962.6,498.5,962.5,498.8,962.4,499.2z"/>
		<path class="st7" d="M962.2,504.7c-0.2-1.4-0.7-2.8,0.2-4.1C962.3,502,962.2,503.3,962.2,504.7z"/>
		<path class="st12" d="M889.6,516.7c-0.2,0-0.3,0-0.5,0c1.6-2.7,0.7-5.6,0.6-8.5c0-0.6-0.1-1.2-0.1-1.8c0-3.3,0-6.6,0-9.9
			c0.2-0.3,0.4-0.7,0.5-1c0.2-2.4,0.3-4.9,0.5-7.4c0-0.4,0.3-0.8,0.5-1.2c0,3.3,0,6.5,0,9.8c-0.1,5.1-0.1,10.2-0.3,15.3
			C890.7,513.6,890.7,515.3,889.6,516.7z"/>
		<path class="st8" d="M891,487c-0.2,0.4-0.4,0.8-0.5,1.2c-0.2,2.4-0.3,4.9-0.5,7.4c0,0.3-0.3,0.7-0.5,1c0.2-3,0.3-5.9,0.5-8.9
			c0-0.5,0.4-0.9,0.7-1.4c0.1,0,0.2,0,0.2,0C891,486.5,891,486.7,891,487z"/>
		<path class="st12" d="M891,486.2c-0.1,0-0.2,0-0.2,0c0.1-0.5,0.2-1,0.2-1.4C891,485.3,891,485.8,891,486.2z"/>
		<path class="st6" d="M907.3,612.8c0.1-0.2,0.2-0.3,0.2-0.5C907.4,612.4,907.4,612.6,907.3,612.8z"/>
		<path class="st15" d="M977.7,473.5c0.2-0.2,0.5-0.3,0.7-0.5C978.2,473.2,978,473.4,977.7,473.5z"/>
		<path class="st15" d="M980.6,471.4c0.2-0.2,0.5-0.3,0.7-0.5C981.1,471.1,980.8,471.2,980.6,471.4z"/>
		<path class="st4" d="M916.5,535.4c-2.1,0-4.2,0-6.2,0c-2.4,0-4.7-2.9-4.3-5.3c0.6-3.8,3.4-5.3,6.5-6.1c2.8-0.8,5.7-1,8.5-1.7
			c4.8-1.2,9.6-2.7,13.5-6c3.4-2.9,6.3-6.4,8-10.6c0.6-1.4,0.7-3.1,0.7-4.7c0.1-3.9,2.7-6.9,6.6-7.2c2-0.2,3.7,0.5,4.7,2.4
			c1.7,3.2,2.4,6.5,2.1,10.2c-0.4,5.3-2.8,9.6-6.1,13.5c-2.3,2.8-4.7,5.6-7.5,7.9c-2.3,1.9-5.1,3.2-7.8,4.7c-1.2,0.7-2.6,1-3.9,1.6
			c-2.8,1.1-5.8,1.2-8.7,1.4C920.6,535.5,918.6,535.4,916.5,535.4z"/>
		<path class="st5" d="M935.6,535.9c-0.2,0-0.5,0-0.7,0c0.6-0.3,1.4-0.6,1.9-1c1.5-1.1,2.9-2.2,4.3-3.4c3-2.8,5.9-5.7,8.9-8.5
			c-0.1,0.5-0.1,1.2-0.4,1.5c-3.5,3.4-7.1,6.7-10.8,10c-0.6,0.6-1.3,1-2,1.4C936.4,535.8,936,535.8,935.6,535.9z"/>
		<path class="st5" d="M954.5,518.4c-0.8,1.6-1.8,3.1-3.6,3.8C952.1,520.9,953.3,519.6,954.5,518.4z"/>
		<path class="st12" d="M959.8,499.7c0.2,0.4,0.4,0.8,0.4,1.2c0.1,1.4,0,2.9,0,4.3c-0.2-0.4-0.4-0.8-0.5-1.2
			C959.7,502.5,959.8,501.1,959.8,499.7z"/>
		<path class="st5" d="M933.9,535.8c-0.6,0-1.1,0-1.7,0C932.8,535.8,933.3,535.8,933.9,535.8z"/>
		<path class="st5" d="M927.9,536.1c-0.5,0.1-1,0.2-1.4,0.2C926.9,536.2,927.4,536.2,927.9,536.1z"/>
		<path class="st5" d="M930,536.1c-0.5,0-1,0-1.4,0C929.1,536.1,929.6,536.1,930,536.1z"/>
		<path class="st5" d="M931.5,535.8c-0.2,0.1-0.3,0.2-0.5,0.2C931.2,536,931.3,535.9,931.5,535.8z"/>
		<path class="st12" d="M978.9,540.4c-0.2,0-0.3,0-0.5,0c-0.9,0.8-1.8,1.6-2.6,2.4c-0.7,0.6-1.4,1.1-2.2,1.7c-0.1,0-0.2,0-0.2,0
			c1.3-1.4,2.5-2.9,3.8-4.2c0.4-0.4,1.3-0.2,1.9-0.3C979.1,540.1,979,540.2,978.9,540.4z"/>
		<path class="st7" d="M973.4,544.5c0.1,0,0.2,0,0.2,0c-0.2,0.2-0.3,0.3-0.5,0.5c0-0.2,0-0.3,0-0.5
			C973.3,544.5,973.3,544.5,973.4,544.5z"/>
		<path class="st25" d="M958.3,561.2c-0.5-0.1-1.2,0.1-1.5-0.2c-1.2-0.9-2.3-1.8-3.3-2.9c-2.3-2.3-4.4-4.8-6.7-7.1
			c-1.4-1.3-3.1-2.4-4.7-3.4c-1.8-1-3.7-1.9-4.8-3.7c0.6-0.4,1.2-0.8,1.9-1.3c-0.1,0.8-0.5,1.4-0.3,1.8c0.2,0.4,0.9,0.6,1.4,0.9
			c1.8,1.1,3.7,2,5.4,3.3c1.5,1.2,2.7,2.7,3.9,4.2C952.2,556,954.8,559.1,958.3,561.2z"/>
		<path class="st7" d="M963.6,555.3c-0.3,1.2-1,1.9-2.4,1.9c-1.3,0-2.3,1.3-2.3,2.8c0,0.3,0,0.5,0,0.8c-1.1-1.6-2.2-3.1-3.4-4.7
			c0.1-0.1,0.2-0.2,0.3-0.3c0.5,0.4,1,0.7,1.5,1.1c0.7,0.8,1.4,0.9,2.3,0.3c0.4-0.3,1.1-0.3,1.6-0.6
			C961.9,556.2,962.7,555.7,963.6,555.3z"/>
		<path class="st25" d="M933.4,543.8c-0.7,0-1.5,0-2.2,0c-3.2,0-6.5,0-9.7,0c-0.5,0-1-0.1-1.5-0.2c0.3-0.1,0.6-0.2,0.9-0.2
			c3.5-0.1,7.1-0.2,10.6-0.2C932.1,543.1,932.8,543.5,933.4,543.8z"/>
		<path class="st15" d="M912.3,543.8c-0.8,0-1.6,0-2.4,0c0-0.1,0-0.2,0-0.2c0.2-0.3,0.5-0.6,0.7-1c1.5,0,3,0,4.6,0
			c-0.4,0.2-0.8,0.3-1.2,0.5C913.4,543.3,912.9,543.5,912.3,543.8z"/>
		<path class="st7" d="M964.6,554.3c-0.3,0.3-0.6,0.6-1,1C963.9,554.9,964.2,554.6,964.6,554.3z"/>
		<path class="st7" d="M965.5,553.3c-0.2,0.2-0.3,0.3-0.5,0.5C965.2,553.7,965.4,553.5,965.5,553.3z"/>
		<path class="st7" d="M966.5,552.1c-0.2,0.2-0.3,0.3-0.5,0.5C966.2,552.5,966.3,552.3,966.5,552.1z"/>
		<path class="st25" d="M918.1,543.5c-0.2,0.1-0.3,0.2-0.5,0.2C917.7,543.7,917.9,543.6,918.1,543.5z"/>
		<path class="st15" d="M929.3,538.7c1.3,0,2.6-0.1,3.8,0c0.6,0,1.1,0.4,1.7,0.7c-1.8-0.1-3.7-0.3-5.5-0.4
			C929.3,538.9,929.3,538.8,929.3,538.7z"/>
		<path class="st15" d="M925,539c0.9,0,1.8,0,2.7,0C926.8,539.7,925.9,539.6,925,539z"/>
		<path class="st3" d="M929.3,538.7c0,0.1,0,0.2,0,0.3c-0.3,0-0.6,0-1,0C928.7,538.9,929,538.8,929.3,538.7z"/>
		<path class="st20" d="M982.5,539.7c0.1,0.6,0.2,1.3,0.2,1.9c-0.3,0.7-0.9,1-1.4,0.4c-0.3-0.4-0.3-1.2-0.1-1.8
			C981.4,540,982.1,539.9,982.5,539.7z"/>
		<path class="st13" d="M910.6,542.6c-0.2,0.3-0.5,0.6-0.7,1c-0.1,0-0.2,0-0.2,0c0-0.1,0-0.2,0-0.2C910,543,910.3,542.8,910.6,542.6
			z"/>
		<path class="st26" d="M926.5,471.5c2,0.4,4,0.8,5.9,1.3c2.2,0.6,4.5,1.2,6.6,2.1c0.9,0.3,1.6,1.2,2.3,1.9c0.9,1.1,1.7,2.3,2.4,3.5
			c0.2,0.3,0.3,0.7,0.4,1.1c0.2,0.9,0.2,1.8,0.4,2.6c0.5,1.6,0.7,1.8-0.7,3.3c-2.3,2.4-5.1,2.6-7.9,2.4c-1.8-0.1-3.7-0.6-5.3-1.4
			c-3.4-1.6-6.6-1-9.8,0.2c-3,1.2-5.6,2.9-8.1,4.8c-1.4,1-2,2.6-2.6,4.1c-0.7,1.9-1.6,3.7-2.1,5.6c-0.5,2.3-0.6,4.6-1,6.9
			c-0.2,1.2-0.6,2.4-1,3.5c-0.3,1-1,1.8-1.2,2.8c-0.5,2-2.6,3.6-4.8,2.1c-0.2-0.2-0.5-0.3-0.8-0.3c-1.4,0.3-1.8-0.6-2.2-1.6
			c-0.2-0.5-0.5-1.2-0.9-1.3c-1.2-0.4-1.5-1.3-1.7-2.4c-0.1-0.4-0.2-0.8-0.5-1.1c-2.1-2.5-2-5.4-1.6-8.4c0.6-4.2,2.3-7.9,3.9-11.8
			c0.5-1.2,1-2.4,1.5-3.5c2.6-5.4,6.3-9.7,11.6-12.5c4.1-2.1,8.3-3.6,13-3.6c1.3,0,2.7-0.2,4-0.3
			C926.4,471.7,926.4,471.6,926.5,471.5z"/>
		<path class="st12" d="M1004.6,538.5c-1.9,0.3-3.9,0.6-5.8-0.2C1000.7,538.4,1002.6,538.4,1004.6,538.5z"/>
		<path class="st12" d="M995.7,538.3c-1.4,0-2.9,0-4.3,0C992.8,538.3,994.3,538.3,995.7,538.3z"/>
		<path class="st5" d="M958.6,591.9c0.5-1.1,1-0.8,1.4,0c-0.1,0.1-0.2,0.2-0.2,0.2c-0.2,0-0.5,0-0.7,0
			C958.9,592.1,958.7,592,958.6,591.9z"/>
		<path class="st24" d="M959.8,592.2c0.1-0.1,0.2-0.2,0.2-0.2c0.2,0.1,0.3,0.2,0.5,0.2C960.2,592.2,960,592.2,959.8,592.2z"/>
		<path class="st24" d="M958.6,591.9c0.2,0.1,0.3,0.2,0.5,0.2c-0.2,0-0.3,0-0.5,0C958.6,592.1,958.6,592,958.6,591.9z"/>
		<path class="st25" d="M902.5,550.2c-0.7,0.6-1.4,1.3-2.2,1.9C901.1,551.5,901.8,550.9,902.5,550.2z"/>
		<path class="st25" d="M896.5,555.3c-0.7,0.6-1.4,1.3-2.2,1.9C895.1,556.5,895.8,555.9,896.5,555.3z"/>
		<path class="st25" d="M909.7,543.5c0.1,0,0.2,0,0.2,0c0,0.1,0,0.2,0,0.2c-0.6,0.4-1.3,0.8-1.9,1.2
			C908.6,544.5,909.1,544,909.7,543.5z"/>
		<path class="st25" d="M904.4,548.5c-0.6,0.6-1.3,1.1-1.9,1.7C903.1,549.7,903.8,549.1,904.4,548.5z"/>
		<path class="st25" d="M889.8,567.2c0.3,0.8,0.6,1.7-0.2,2.4C889.6,568.8,889.7,568,889.8,567.2z"/>
		<path class="st25" d="M890,564.6c0.3,0.8,0.6,1.5-0.2,2.2C889.9,566,890,565.3,890,564.6z"/>
		<path class="st25" d="M905.4,547.8c-0.3,0.2-0.6,0.5-1,0.7C904.7,548.3,905,548.1,905.4,547.8z"/>
		<path class="st25" d="M899.6,552.9c-0.3,0.2-0.6,0.5-1,0.7C899,553.3,899.3,553.1,899.6,552.9z"/>
		<path class="st25" d="M898.7,553.6c-0.3,0.2-0.6,0.5-1,0.7C898,554.1,898.3,553.8,898.7,553.6z"/>
		<path class="st25" d="M897.5,554.5c-0.3,0.2-0.6,0.5-1,0.7C896.8,555,897.1,554.8,897.5,554.5z"/>
		<path class="st25" d="M892.4,559.1c-0.2,0.3-0.5,0.6-0.7,1C891.9,559.7,892.2,559.4,892.4,559.1z"/>
		<path class="st7" d="M975.8,542.8c0.9-0.8,1.8-1.6,2.6-2.4C977.6,541.2,976.7,542,975.8,542.8z"/>
		<path class="st2" d="M914.7,571.5c-0.6,0.7-1.2,1.5-1.8,2.2c-3.3,4.2-5.3,9.2-7.3,14.1c-0.8,2-1.6,4.2-3.6,5.4
			c-1,0.6-2.3,1-3.6,1.1c-1.1,0.1-2.3-0.2-3.4-0.5c-0.4-0.1-0.7-0.4-1-0.6c-0.9-0.8-1.9-1.5-2.7-2.4c-0.5-0.7-1-1.6-1-2.4
			c-0.1-5.6-0.1-11.1,0-16.7c0.1-2.6,0.4-5.2,1.1-7.7c0.4-1.5,1.4-3.1,2.6-4.2c2.4-2.4,5.1-4.5,7.7-6.8c0.8-0.7,1.7-1.3,2.4-2.1
			c1.9-2.1,4.6-2.9,7.1-3.9c3.5-1.4,7.1-2,10.9-2c2.7,0,5.4-0.2,8.1-0.2c1.7,0,3.4,0.1,5,0.3c0.9,0.2,1.8,0.7,2.7,1.2
			c3.2,1.8,6.4,3.7,9,6.5c2.1,2.2,2.7,4.3,0.5,7.1c-2.4,3-5.4,4.5-9.6,3c-1.9-0.7-3.9-1-6-0.6c-0.5,0.1-1-0.1-1.5-0.1
			c-0.9,0-1.8-0.1-2.6,0.1c-2,0.4-1.8,0.5-1.7,2.5c0.1,1.3-0.2,2.7-0.5,4.1c-0.6,2.3-1.3,4.5-2,6.8c-0.4,1.3-1,2.6-1.6,3.8
			c-1.1,2.1-4.1,2.6-5.9,1c-0.3-0.2-0.6-0.5-0.9-0.6c-1-0.7-1.3-1.6-1.1-2.8c0.4-1.7,0.8-3.4,1.2-5.1
			C915,571.7,914.8,571.6,914.7,571.5z"/>
		<path class="st4" d="M915.7,610.6c-0.2,0-0.3,0-0.5,0c-0.6-0.2-1.3-0.5-1.9-0.7c-1.5-0.4-2-1.1-1.9-2.6c0.3-2.5,1.5-4.4,3.9-5.3
			c2.7-0.9,5.4-1.6,8.1-2.5c2.6-0.9,5.2-1.8,7.6-3.1c3.4-1.8,6.1-4.6,8.8-7.3c2-2,3.3-4.5,4.1-7.2c0.4-1.3,0.9-2.7,1.6-3.8
			c1.3-2.2,3.8-3.1,6.1-2.4c2.5,0.7,4.1,2.7,4.3,5.3c0,0.4,0.1,0.7,0.1,1.1c0.7,5.6-0.6,10.4-4.8,14.3c-3.2,2.9-6.3,5.9-9.5,8.7
			c-2.2,1.9-4.6,3.7-7.5,4.3c-2.2,0.5-4.6,0.7-6.9,0.8c-3.4,0.1-6.8,0-10.2,0C916.7,610.4,916.2,610.5,915.7,610.6z"/>
		<path class="st25" d="M915.7,610.6c0.5-0.1,1-0.2,1.5-0.2c3.4,0,6.8,0.1,10.2,0c2.3-0.1,4.6-0.3,6.9-0.8c2.9-0.6,5.3-2.4,7.5-4.3
			c3.2-2.8,6.3-5.8,9.5-8.7c4.2-3.9,5.5-8.8,4.8-14.3c0-0.4-0.1-0.7-0.1-1.1c-0.1-2.6-1.8-4.6-4.3-5.3c-2.3-0.6-4.8,0.2-6.1,2.4
			c-0.7,1.2-1.2,2.5-1.6,3.8c-0.8,2.7-2.1,5.1-4.1,7.2c-2.7,2.7-5.4,5.5-8.8,7.3c-2.4,1.3-5,2.2-7.6,3.1c-2.7,0.9-5.4,1.5-8.1,2.5
			c-2.4,0.9-3.6,2.8-3.9,5.3c-0.2,1.5,0.4,2.2,1.9,2.6c0.7,0.2,1.3,0.5,1.9,0.7c-1.9-0.2-3.7-0.3-5.6-0.5c-0.3,0-0.7-0.3-1-0.6
			c-0.7-0.8-1.2-1.7-2-2.5c-0.8-0.8-0.9-1.7-0.5-2.7c1.7-4.9,5.5-7.2,10.2-8.5c2.4-0.7,4.9-1.1,7.3-1.9c2.8-0.9,5.5-2.1,7.7-4.2
			c0.3-0.3,0.3-0.7,0.5-1.1c-0.5-0.1-0.9-0.3-1.4-0.4c-0.1,0-0.2,0.1-0.3,0.2c-0.8,0.5-1.6,0.6-2.3,0c-0.8-0.6-0.9-1.5-0.6-2.4
			c0.4-1.2,0.8-2.3,1.2-3.5c1.3-3.9,2.6-7.9,3.9-11.8c0.3-0.9,0.5-1.8,1-2.6c0.2-0.5,0.9-1.1,1.3-1c1.5,0.3,3.1,0.5,4.2,1.3
			c1.7,1.1,2.4,2.9,1.5,5c-1,2.3-1.7,4.7-2.5,7.1c-0.3,0.9-0.5,1.8-0.8,2.7c0.1,0.1,0.3,0.1,0.4,0.2c0.3-0.4,0.6-0.8,0.8-1.3
			c1-2.5,1.8-5,3.1-7.4c2.4-4.3,9-6.3,13.5-4.2c1.1,0.5,1.6,1.3,1.7,2.6c0.2,2.8,0.8,5.5,1,8.3c0.1,3.3,0,6.7-0.2,10
			c0,0.8-0.9,1.5-1.4,2.2c-0.5,0.7-1.1,1.3-1.6,2c-0.2,0.2-0.3,0.3-0.5,0.5c-0.4,0.3-0.8,0.6-1.2,1c-0.1,0.2-0.2,0.5-0.2,0.7
			c-0.2,0.1-0.5,0.2-0.7,0.2c-0.3,0.2-0.6,0.5-1,0.7c-0.1,0.2-0.2,0.3-0.2,0.5c-0.3,0.2-0.6,0.5-1,0.7c-0.3,0.2-0.6,0.5-1,0.7
			c-0.2,0.2-0.3,0.5-0.5,0.7c-0.9,0.8-1.8,1.6-2.6,2.4c-0.2,0.2-0.5,0.5-0.7,0.7c-1,0.9-1.9,1.8-2.9,2.6c-0.2,0.2-0.5,0.3-0.7,0.5
			c-0.2,0.2-0.5,0.5-0.7,0.7c-0.7,0.4-1.3,0.8-2,1.2c-0.5,0.3-1.1,0.7-1.7,0.7c-6.4,0.2-12.9,0.4-19.3,0.5
			C916.6,610.8,916.1,610.7,915.7,610.6z"/>
		<path class="st0" d="M952.3,597.2c0.4-0.3,0.8-0.6,1.2-1c-0.2,0.3-0.5,0.6-0.7,1C952.7,597.2,952.5,597.2,952.3,597.2z"/>
		<path class="st0" d="M950.4,598.9c0.3-0.2,0.6-0.5,1-0.7c-0.2,0.2-0.3,0.5-0.5,0.7C950.7,598.9,950.6,598.9,950.4,598.9z"/>
		<path class="st0" d="M948.3,600.8c0.3-0.2,0.6-0.5,1-0.7c-0.2,0.2-0.3,0.5-0.5,0.7C948.6,600.8,948.4,600.8,948.3,600.8z"/>
		<path class="st3" d="M948.3,600.8c0.2,0,0.3,0,0.5,0c-0.3,0.2-0.6,0.5-1,0.7C947.9,601.3,948.1,601,948.3,600.8z"/>
		<path class="st0" d="M944.4,604.6c0.2-0.2,0.5-0.5,0.7-0.7C944.9,604.1,944.7,604.4,944.4,604.6z"/>
		<path class="st3" d="M952.3,597.2c0.2,0,0.3,0,0.5,0c-0.2,0.2-0.5,0.5-0.7,0.7C952.2,597.7,952.3,597.4,952.3,597.2z"/>
		<path class="st0" d="M940.8,607.7c0.2-0.2,0.5-0.3,0.7-0.5C941.3,607.4,941.1,607.6,940.8,607.7z"/>
		<path class="st3" d="M950.4,598.9c0.2,0,0.3,0,0.5,0c-0.2,0.2-0.5,0.3-0.7,0.5C950.3,599.2,950.3,599,950.4,598.9z"/>
	</g>
</g>
</svg>
