<?xml version="1.0" encoding="utf-8"?>
<!-- Generator: Adobe Illustrator 24.0.0, SVG Export Plug-In . SVG Version: 6.00 Build 0)  -->
<svg version="1.1" id="Layer_1" xmlns="http://www.w3.org/2000/svg" xmlns:xlink="http://www.w3.org/1999/xlink" x="0px" y="0px"
	 viewBox="0 0 1920 1080" style="enable-background:new 0 0 1920 1080;" xml:space="preserve">
<style type="text/css">
	.st0{fill:#00D207;}
	.st1{fill:#FDFEFD;}
	.st2{fill:#FCFEFC;}
	.st3{fill:#00CD05;}
	.st4{fill:#00CB04;}
	.st5{fill:#00DD0C;}
	.st6{fill:#00C402;}
	.st7{fill:#00DB0B;}
	.st8{fill:#00E10D;}
	.st9{fill:#00DC0B;}
	.st10{fill:#00C703;}
	.st11{fill:#00E30F;}
	.st12{fill:#4BE521;}
	.st13{fill:#42E41C;}
	.st14{fill:#00E00D;}
	.st15{fill:#47E51F;}
	.st16{fill:#4EE522;}
	.st17{fill:#01E10C;}
	.st18{fill:#35E518;}
	.st19{fill:#1BE411;}
	.st20{fill:#1CE512;}
	.st21{fill:#2AE314;}
	.st22{fill:#37E419;}
	.st23{fill:#46E51E;}
	.st24{fill:#03E10C;}
	.st25{fill:#31E416;}
	.st26{fill:#15E410;}
	.st27{fill:#1DDF0E;}
	.st28{fill:#2DE112;}
</style>
<g>
	<g>
		<path class="st0" d="M1036,468c0,47.8,0,95.7,0,143.5c-0.1,0.1-0.2,0.1-0.3,0.2c-1.5,3.4-4.2,4.6-7.8,4.6c-43.8,0-87.5,0-131.3,0
			c-1.6,0-3.2,0-4.8,0c-3.3-0.1-6.5-3.2-6.5-6.5c0-21,0-42.1,0-63.1c0-25.3,0-50.6,0-75.9c0-2.5,0.7-4.6,2.7-6.1
			c0.8-0.7,1.9-1.1,2.9-1.6c46.6,0,93.1,0,139.7,0c0.9,0.4,1.9,0.7,2.6,1.4C1034.2,465.5,1035,466.8,1036,468z M911.6,467.8
			c0.2-0.1,0.3-0.2,0.5-0.2c0.2,0,0.5,0,0.7,0c0.4,0.1,0.8,0.2,1.2,0.2c1.3,0,2.5-0.1,3.8-0.2c0.4,0.1,0.8,0.2,1.2,0.2
			c2.8-0.1,5.6-0.2,8.4-0.2c1.3,0.9,2.7,0.5,4.1,0.2c2.2,0,4.3,0,6.5,0c1.4,1.5,2.5,3.4,4.7,4c0.2,0,0.3,0.2,0.5,0.4
			c3.5,2.7,6.9,5.3,10.4,8c1.2,0.9,2.5,1.7,3.7,2.5c0.5,0.4,1,0.8,1.5,1.3c0.3,0.2,0.5,0.5,0.7,0.7c0.2,0.6,0.3,1.3,0.5,1.9
			c0,0.3,0,0.6,0,1c0,0.9,0,1.8,0,2.6c0,0.2,0,0.3,0,0.5c0,2.5,0,5,0,7.4c0.1,2.9,0.2,5.9,0.2,8.8c0,2.6-0.2,5.3-0.2,7.9
			c0,0.8,0.1,1.7,1.2,1.8c1,0.1,1.9-0.3,2-1.4c0.1-0.7-0.1-1.5-0.1-2.2c-0.1-3.8-0.2-7.5-0.2-11.3c0-1.6,0.2-3.2,0.3-4.8
			c0.1-2.9,0.4-5.8,0.3-8.7c0-1.4,0.3-2.3,1.2-3.2c1.3-1.2,2.7-2.5,4.1-3.6c4.1-3.3,8.2-6.4,12.2-9.7c1.2-1,2.3-2.3,3.4-3.4
			c0.3,0,0.6,0,1,0c0.5-0.2,0.9-0.3,1.4-0.5c0.4,0.1,0.7,0.4,1.1,0.4c0.8,0,1.6-0.2,2.4-0.2c4.7,0,9.5,0,14.2,0c0.5,0,1-0.3,1.5-0.5
			c0.2,0,0.5,0,0.7,0c0.4,0.2,0.7,0.4,1.1,0.5c1,0.1,2.1,0,3.1,0c1.6,0.1,3.1,0.5,4.2,1.6c1.9,1.8,3.7,3.6,5.6,5.3
			c1.8,1.8,3.7,3.5,5.5,5.3c1.2,1.2,2.7,1.7,4.2,2.3c0.8,0.3,1.5,0.7,2.1-0.3c0.7-1.1,0.6-2-0.2-2.8c-5.4-4.6-10.9-9.2-16.3-13.7
			c-0.7-0.6-1.5-1.2-2.6-0.6c-0.3,0-0.6,0-1,0c-0.1,0-0.2,0-0.2,0c-0.1,0-0.1,0-0.2,0c-5.8,0-11.5,0-17.3,0c-3.9,0-7.8,0-11.8,0
			c-0.1,0-0.2,0-0.2,0c-0.1,0-0.2,0-0.2,0l0,0c-0.2,0-0.3,0-0.5,0c-0.3,0-0.6,0-1,0c-0.6,0.3-1.4,0.5-1.9,0.9
			c-1.8,1.4-3.5,2.9-5.3,4.2c-4,3.1-8,6.1-12,9.2c-0.9,0.7-1.7,0.6-2.6-0.1c-3.2-2.5-6.5-4.9-9.7-7.3c-2.3-1.7-4.5-3.5-6.9-5.1
			c-1.1-0.8-2.4-1.2-3.6-1.8c-0.2,0-0.3,0-0.5,0c-10.2,0-20.5,0-30.7,0c-0.2,0-0.3,0-0.5,0c-0.4,0-0.8,0-1.2,0
			c-0.4,0.2-0.9,0.4-1.2,0.6c-0.6,0.5-1.2,1.2-1.8,1.7c-4.7,3.8-9.5,7.6-14.2,11.4c-0.7,0.6-1.5,1.2-1.8,1.9
			c-0.4,0.8-0.3,1.8-0.3,2.7c0,4.5,0,8.9,0,13.4c0,6.4,0,12.8,0,19.2c0.1,0.6,0.2,1.2,0.3,2c0.6-0.5,0.9-0.9,1.3-1.2
			c2-1,1.9-2.9,1.9-4.7c0-2.6-0.4-5.2-0.4-7.7c0.1-5.8,0.4-11.7,0.7-17.5c0.1-1.4,0.4-3.2,1.3-4.2c2.2-2.4,4.8-4.4,7.2-6.6
			c2-1.8,4-3.7,6-5.5c0.1-0.1,0.2-0.2,0.2-0.2c1.1-0.9,2.2-1.8,3.4-2.7c0.2,0,0.5,0,0.7,0c0.4,0,0.8,0,1.2,0
			C911.1,467.8,911.4,467.8,911.6,467.8z M1009.6,538.5c-0.2,0-0.3,0-0.5,0c0.9,0,1.8,0,2.6,0c1.8-0.4,3.7-0.2,5.2-1.8
			c2.5-2.7,5.2-5.2,7.8-7.9c1.8-1.8,3.6-3.8,5.4-5.5c2.3-2.2,4.5-4.4,3.8-8c-0.1-0.5-0.1-1-0.2-1.7c-0.7,0.9-1.2,1.6-1.8,2.1
			c-1.8,1.5-3.6,2.9-5.4,4.4c-2.3,2-4.6,4.1-6.9,6.1c-2.9,2.6-5.9,5.1-8.8,7.7c-0.8,0.7-1.6,1.1-2.7,1.1c-7.3,0-14.7,0-22,0
			c-1.3,0-2.6-0.2-3.8,0.1c-1.4,0.3-2.5-0.2-3.4-1c-1.4-1.4-2.9-2.9-4-4.5c-2.7-4-5.6-7.8-9.4-10.9c-0.8-0.7-2.1-1.4-2.9-1.2
			c-1.6,0.4-2.5,0-3.1-1.3c-0.1-0.2-0.2-0.3-0.3-0.5c-0.5-0.7-1-1-1.7-0.2c-1.6,1.6-3.2,3.2-4.8,4.8c-3.2,3.2-6.5,6.4-9.8,9.5
			c-1.6,1.6-3.3,3.1-5.1,4.5c-0.8,0.7-1.9,1.3-3,1.4c-4.5,0.4-9,0.6-13.6,0.8c-3.3,0.1-6.7,0-10.1,0c-0.9,0-1.8,0.3-2.7,0.3
			c-0.8,0-1.8-0.1-2.2-0.6c-1.2-1.3-2.2-2.8-3.3-4.2c-1.4-1.7-2.7-3.5-4.2-5.1c-1.2-1.3-2.8-2.4-4.1-3.7c-1.5-1.5-3-3.1-4.5-4.7
			c-1.2-1.2-1.9-1-2.3,0.6c-0.1,0.4-0.2,0.8-0.4,1.1c-0.6,1.1-0.2,2,0.7,2.7c1.1,1,2.2,2,3.3,3.1c1.1,1.1,2.1,2.3,3.3,3.4
			c3.1,2.8,6.2,5.5,9.3,8.2c0.8,0.7,1.8,1,2.8,1.4c0.3,0.1,0.6,0.2,0.9,0.3c-2.4,0.9-4.2,2.6-6,4.3c-3.5,3.4-7.4,6.4-11.1,9.6
			c-2.5,2.1-4.3,4.4-4.1,8c0.3,4.4,0.3,8.8,0.3,13.2c0,3.7-0.2,7.5-0.2,11.2c0,2.1,0.1,4.3,0.2,6.4c0,0.3,0.1,0.6,0.2,0.8
			c0.3-0.2,0.6-0.3,0.8-0.5c1.1-1.3,0.7-2.9,0.7-4.4c-0.1-2.8-0.3-5.7-0.3-8.5c0-2.5,0.2-5,0.4-7.5c0.2-2.7,0.1-5.4,0.6-8
			c0.3-1.6,1-3.5,2.1-4.6c4-3.8,8.3-7.4,12.5-11.1c1.2-1.1,2.5-2.1,3.5-3.4c0.7-0.9,1.3-1.3,2.3-1.3c2.1-0.1,4.2-0.1,6.3-0.3
			c1.5-0.1,2.9-0.4,4.4-0.4c3.5-0.1,7.1-0.2,10.6-0.2c0.9,0,1.9,0.4,2.8,0.6c0.9,0.1,1.9,0.4,2.8,0.2c1.3-0.2,1.7-1.7,0.9-2.7
			c-0.2-0.2-0.3-0.5-0.5-0.8c0-0.1,0-0.2,0-0.2c0.7,0.1,1.3,0.1,2,0.1c0.3,0,0.8-0.1,1-0.3c1.2-1,2.5-2,3.6-3.1
			c1.7-1.6,2.9-3.7,5.1-4.8c0.2-0.1,0.3-0.3,0.4-0.4c2.9-3.1,5.7-6.2,8.6-9.3c1.1-1.1,1.8-1.2,2.9-0.2c1.3,1.2,2.5,2.5,3.8,3.8
			c3.4,3.2,6.8,6.3,10.1,9.5c0.9,0.9,1.7,2,3.1,2.2c0.2,0,0.3,0.2,0.5,0.3c0.9,0.8,1.9,1,3.1,0.6c0.4-0.1,1,0.2,1.5,0.3
			c-1.6,0.6-3.2,1.2-4.8,1.9c-0.6,0.3-1.1,0.7-1.6,1.2c-1.1,1-2.2,2.1-3.3,3.1c-0.9,0.9-2,1.6-2.8,2.5c-2.7,2.8-5.3,5.7-7.9,8.6
			c-1.3,1.4-3.6,1.4-5.1,0.2c-0.5-0.4-0.9-0.8-1.4-1.1c-0.5-0.2-1-0.3-1.5-0.4c0,0.5-0.1,1.1,0,1.6c0,0.2,0.1,0.4,0.3,0.5
			c1.5,1.5,2.8,3.2,4.4,4.6c1.1,0.9,1.7,1.8,1.6,3.2c0,1.1,0.2,2.2,0.4,3.3c0.1,0.8,0.5,1.7,0.5,2.5c-0.2,4.3-0.6,8.5-0.6,12.7
			c0,2.6,0.4,5.1,0.7,7.7c0,0.4,0.4,0.9,0.6,1.3c0.4-0.4,1.1-0.7,1.1-1.1c0.2-0.8,0-1.7,0-2.6c0.1-2.7,0.2-5.5,0.2-8.2
			c0-1.9-0.3-3.9-0.4-5.8c-0.1-1.8-0.3-3.7-0.2-5.5c0.1-2.2,0.4-4.4,0.7-6.6c0.1-0.6,0.4-1.3,0.8-1.8c0.7-1,1.5-1.9,2.3-2.7
			c2.5-2.6,4.9-5.2,7.4-7.8c2.1-2.1,4.2-4.2,6.3-6.3c0.2-0.2,0.6-0.4,0.9-0.4c2-0.2,4-0.2,6-0.4c3.7-0.2,7.5-0.5,11.2-0.7
			c1.4-0.1,2.9,0.1,4.3,0.2c0.6,0,1.3,0.2,1.9,0.2c1.8,0,3.6,0.1,5.3-0.1c0.5-0.1,1.2-0.9,1.3-1.4c0.2-0.7,0.4-1.7-0.7-2.2
			C1010.4,538.7,1010,538.6,1009.6,538.5z M889.4,592.7c-0.5,0.6-1.1,1.1-1.4,1.7c-0.2,0.4-0.2,1.2,0.1,1.5c1.7,1.9,3.4,3.9,5.3,5.7
			c1.9,1.8,3.9,3.3,5.8,5.1c2.5,2.3,4.9,4.7,7.4,7.1c0.7,0.7,1.5,1,2.5,0.9c9.7,0,19.4,0,29.1-0.1c1.2,0,2.5-0.3,3.5-1
			c2.6-1.8,5.1-3.8,7.5-5.9c3.2-2.7,6.2-5.7,9.2-8.5c0.8-0.8,1.8-1.4,2.6-2.2c0.9-1,1.1-1,2.1-0.2c0.8,0.7,1.7,1.3,2.6,1.9
			c0.2,0.1,0.5,0.1,0.7,0c0.1-0.1,0.2-0.4,0.1-0.6c-0.4-1.1-0.7-2.3-1.3-3.3c-0.3-0.6-1.2-1.3-1.7-1.2c-1.5,0.4-2.1-0.3-2.7-1.4
			c-0.7-1.2-1.7-1.1-2.6,0c-0.8,0.9-1.5,1.9-2.4,2.7c-2.6,2.3-5.2,4.6-7.8,6.9c-3.1,2.8-6.1,5.6-9.2,8.4c-0.5,0.4-1.2,0.8-1.9,0.9
			c-4,0.3-7.9,0.5-11.9,0.8c-5.6,0.3-11.1-0.5-16.7-1c-0.5,0-1.1-0.5-1.5-0.9c-1.1-1.2-2.2-2.5-3.3-3.7c-2-2-4.1-3.9-6.1-5.9
			c-2-2-4-4.1-6.1-6.1C890.7,593.7,890.1,593.3,889.4,592.7z M998.7,614.7c4.5,0,9.1,0,13.6,0c1.6,0,3.3,0.3,4-1.7
			c0-0.1,0.1-0.1,0.2-0.2c2.6-2.7,5.2-5.3,7.6-8.1c2.1-2.3,4.1-4.8,6.8-6.5c1.1-0.7,2.1-1.8,3-2.8c0.9-1,0.6-2.9-0.4-3.4
			c-1.1-0.5-1.8,0.1-2.5,0.8c-2.8,3-5.5,6.1-8.4,9c-2.7,2.7-5.5,5.2-8.4,7.6c-0.7,0.6-1.8,1.1-2.8,1.2c-3,0.2-5.9,0.2-8.9,0.3
			c-3.1,0.1-6.3,0.2-9.4,0.2c-2.2,0-4.5,0-6.7,0c-0.9,0-1.7,0.1-2.6,0.2c-0.8,0.1-1.6,0.1-2.4,0.3c-0.7,0.2-0.8,0.7-0.5,1.3
			c0.5,1.1,1.4,1.6,2.6,1.5C988.5,614.7,993.6,614.7,998.7,614.7z"/>
		<path class="st1" d="M890.8,463c-1,0.5-2,0.9-2.9,1.6c-1.9,1.6-2.7,3.6-2.7,6.1c0,25.3,0,50.6,0,75.9c0,21,0,42.1,0,63.1
			c0,3.4,3.2,6.4,6.5,6.5c1.6,0.1,3.2,0,4.8,0c43.8,0,87.5,0,131.3,0c3.6,0,6.3-1.3,7.8-4.6c0-0.1,0.2-0.1,0.3-0.2c0,1.7,0,3.4,0,5
			c-50.3,0-100.6,0-151,0c0-51.2,0-102.4,0-153.6C886.9,463,888.8,463,890.8,463z"/>
		<path class="st2" d="M1036,468c-1-1.2-1.8-2.6-2.9-3.7c-0.7-0.7-1.7-0.9-2.6-1.4c1.8,0,3.7,0,5.5,0
			C1036,464.7,1036,466.4,1036,468z"/>
		<path class="st3" d="M908,539.2c-0.3-0.1-0.6-0.1-0.9-0.3c-0.9-0.5-2-0.8-2.8-1.4c-3.2-2.7-6.3-5.4-9.3-8.2
			c-1.2-1.1-2.2-2.3-3.3-3.4c-1.1-1.1-2.2-2.1-3.3-3.1c-0.8-0.8-1.3-1.6-0.7-2.7c0.2-0.3,0.3-0.7,0.4-1.1c0.4-1.6,1.1-1.8,2.3-0.6
			c1.5,1.5,2.9,3.2,4.5,4.7c1.3,1.3,2.8,2.4,4.1,3.7c1.5,1.6,2.8,3.4,4.2,5.1c1.1,1.4,2.1,2.9,3.3,4.2c0.5,0.5,1.5,0.6,2.2,0.6
			c0.9,0,1.8-0.2,2.7-0.3c3.4,0,6.7,0.1,10.1,0c4.5-0.2,9.1-0.4,13.6-0.8c1-0.1,2.1-0.7,3-1.4c1.8-1.4,3.4-3,5.1-4.5
			c3.3-3.1,6.5-6.3,9.8-9.5c1.6-1.6,3.2-3.2,4.8-4.8c0.7-0.8,1.2-0.5,1.7,0.2c0.1,0.2,0.2,0.3,0.3,0.5c0.7,1.4,1.5,1.7,3.1,1.3
			c0.8-0.2,2.1,0.6,2.9,1.2c3.8,3,6.7,6.9,9.4,10.9c1.1,1.6,2.6,3.1,4,4.5c0.9,0.9,2,1.3,3.4,1c1.2-0.2,2.5-0.1,3.8-0.1
			c7.3,0,14.7,0,22,0c1.1,0,1.9-0.3,2.7-1.1c2.9-2.6,5.9-5.1,8.8-7.7c2.3-2,4.6-4.1,6.9-6.1c1.7-1.5,3.6-2.9,5.4-4.4
			c0.6-0.5,1-1.2,1.8-2.1c0.1,0.8,0.1,1.3,0.2,1.7c0.7,3.6-1.5,5.8-3.8,8c-1.9,1.8-3.6,3.7-5.4,5.5c-2.6,2.6-5.3,5.1-7.8,7.9
			c-1.5,1.7-3.4,1.5-5.2,1.8c0.2-0.2,0.3-0.4,0.5-0.5c2.1-0.4,3.4-2,4.8-3.4c0.3-0.3,0.4-0.7,0.6-1.1c-0.1-0.1-0.2-0.2-0.3-0.3
			c-0.6,0.3-1.2,0.6-1.8,0.8c-0.8,0.4-1.6,0.9-2.4,1c-2.8,0.4-5.6,0.6-8.4,0.8c-3.8,0.2-7.6,0.2-11.4,0.3c-2.7,0-5.4,0-8.1,0
			c-1,0-1.8,0.3-2.1,1.1c0.2,0.5,0.4,0.9,0.6,1.2c-0.2,0-0.5,0-0.7,0c-0.5-0.1-1.1-0.4-1.5-0.3c-1.2,0.4-2.2,0.2-3.1-0.6
			c-0.2-0.1-0.3-0.3-0.5-0.3c-1.4-0.2-2.1-1.3-3.1-2.2c-3.3-3.2-6.7-6.3-10.1-9.5c-1.3-1.2-2.5-2.6-3.8-3.8c-1.1-1-1.8-1-2.9,0.2
			c-2.9,3.1-5.8,6.2-8.6,9.3c-0.1,0.1-0.3,0.3-0.4,0.4c-2.2,1.1-3.4,3.2-5.1,4.8c-1.1,1.1-2.4,2.1-3.6,3.1c-0.2,0.2-0.7,0.3-1,0.3
			c-0.7,0-1.3-0.1-2-0.1c1.5-1.4,2.9-2.8,4.4-4.1c1-1,2-2,2.6-3.6c-0.6,0.3-0.9,0.4-1.1,0.6c-2.1,1.7-4.1,3.6-7.1,3.5
			c-1.8-0.1-3.5,0.4-5.3,0.5c-2.5,0.2-5,0.3-7.5,0.5c-3.9,0.4-7.8,0.7-11.8,0c-1.6-0.3-2.5,0.5-2.2,2.1c-0.1,0-0.3,0-0.4,0
			C908.5,539.2,908.3,539.2,908,539.2z"/>
		<path class="st4" d="M889.4,592.7c0.7,0.6,1.4,1,1.9,1.5c2,2,4,4.1,6.1,6.1c2,2,4.1,3.9,6.1,5.9c1.2,1.2,2.2,2.5,3.3,3.7
			c0.4,0.4,1,0.9,1.5,0.9c5.5,0.5,11.1,1.3,16.7,1c4-0.2,7.9-0.4,11.9-0.8c0.7-0.1,1.4-0.4,1.9-0.9c3.1-2.8,6.1-5.6,9.2-8.4
			c2.6-2.3,5.2-4.5,7.8-6.9c0.9-0.8,1.6-1.8,2.4-2.7c0.9-1.1,1.9-1.1,2.6,0c0.7,1.1,1.3,1.8,2.7,1.4c0.4-0.1,1.3,0.6,1.7,1.2
			c0.6,1,0.9,2.2,1.3,3.3c0.1,0.2,0,0.6-0.1,0.6c-0.2,0.1-0.6,0.1-0.7,0c-0.9-0.6-1.7-1.2-2.6-1.9c-1-0.9-1.1-0.8-2.1,0.2
			c-0.8,0.8-1.8,1.5-2.6,2.2c-3.1,2.8-6.1,5.7-9.2,8.5c-2.4,2.1-4.9,4.1-7.5,5.9c-0.9,0.7-2.3,1-3.5,1c-9.7,0.1-19.4,0-29.1,0.1
			c-1,0-1.8-0.3-2.5-0.9c-2.5-2.4-4.9-4.8-7.4-7.1c-1.9-1.8-4-3.3-5.8-5.1c-1.9-1.8-3.6-3.7-5.3-5.7c-0.3-0.3-0.2-1.1-0.1-1.5
			C888.3,593.8,888.8,593.3,889.4,592.7z"/>
		<path class="st5" d="M983,538.5c0.2,0,0.5,0,0.7,0c0,0,0,0,0,0c-0.2,0.8-0.8,1.8-0.5,2.4c0.2,0.4,1.4,0.5,2.2,0.7
			c0.6,0.1,1.3,0,1.9,0c3.7-0.2,7.4-0.5,11-0.7c0.4,0.7,0.8,0.7,1.2,0c0.3,0.1,0.6,0.1,0.9,0.2c2.8,0.2,5.5,0.4,8.3,0.5
			c1.6,0.1,2-0.4,2.1-1.9c0-0.3,0-0.6,0-0.9c1,0.5,0.9,1.5,0.7,2.2c-0.2,0.6-0.8,1.4-1.3,1.4c-1.8,0.2-3.5,0.1-5.3,0.1
			c-0.6,0-1.3-0.1-1.9-0.2c-1.4-0.1-2.9-0.3-4.3-0.2c-3.7,0.2-7.5,0.4-11.2,0.7c-2,0.1-4,0.2-6,0.4c-0.3,0-0.7,0.2-0.9,0.4
			c-2.1,2.1-4.3,4.1-6.3,6.3c-2.5,2.6-5,5.2-7.4,7.8c-0.8,0.9-1.6,1.8-2.3,2.7c-0.4,0.5-0.7,1.2-0.8,1.8c-0.3,2.2-0.6,4.4-0.7,6.6
			c-0.1,1.8,0.1,3.7,0.2,5.5c0.1,1.9,0.4,3.9,0.4,5.8c0,2.7-0.1,5.5-0.2,8.2c0,0.9,0.2,1.8,0,2.6c-0.1,0.4-0.7,0.7-1.1,1.1
			c-0.2-0.4-0.5-0.8-0.6-1.3c-0.3-2.6-0.7-5.1-0.7-7.7c0.1-4.3,0.5-8.5,0.6-12.7c0-0.8-0.3-1.7-0.5-2.5c-0.2-1.1-0.5-2.2-0.4-3.3
			c0-1.4-0.6-2.3-1.6-3.2c-1.6-1.4-3-3-4.4-4.6c-0.1-0.1-0.2-0.4-0.3-0.5c0-0.5,0-1.1,0-1.6c0.5,0.1,1.1,0.2,1.5,0.4
			c0.5,0.3,1,0.7,1.4,1.1c1.5,1.2,3.8,1.2,5.1-0.2c2.7-2.8,5.3-5.7,7.9-8.6c0.9-0.9,1.9-1.7,2.8-2.5c1.1-1,2.2-2.1,3.3-3.1
			c0.5-0.4,1-0.9,1.6-1.2C979.8,539.7,981.4,539.1,983,538.5z"/>
		<path class="st5" d="M908,539.2c0.3,0,0.5,0,0.8,0c0,0.1,0,0.2-0.1,0.2c-0.9,0.2-1.2,0.6-0.5,1.4c0.9,1.3,2.2,0.9,3.4,0.9
			c0.3,0,0.6,0,0.9,0c0.2,0.1,0.5,0.2,0.7,0.2c1.6-0.1,3.2-0.2,4.8-0.3c1.4-0.1,2.7-0.1,4.1-0.2c0.2,0.1,0.5,0.1,0.7,0.2
			c0.3-0.1,0.6-0.1,0.9-0.2c0.2,0,0.5,0,0.7,0c0.7,0.3,1.4,0.6,1.9-0.2c0.2-0.1,0.5-0.1,0.7-0.2c1.6,0.6,3.2,0.6,4.8,0.2
			c0.2,0,0.5,0,0.7,0c0.2,0,0.5,0,0.7,0.1c0.6-0.1,1.1-0.3,1.7-0.4c1,0.1,1-0.5,0.7-1.2c0.5,0.1,1,0.2,1.4,0.2
			c0.2,0.3,0.3,0.6,0.5,0.8c0.8,1,0.4,2.5-0.9,2.7c-0.9,0.1-1.9-0.1-2.8-0.2c-1-0.2-1.9-0.6-2.8-0.6c-3.5,0-7.1,0.1-10.6,0.2
			c-1.5,0.1-2.9,0.4-4.4,0.4c-2.1,0.1-4.2,0.2-6.3,0.3c-1,0-1.7,0.4-2.3,1.3c-0.9,1.3-2.3,2.3-3.5,3.4c-4.2,3.7-8.5,7.2-12.5,11.1
			c-1.1,1.1-1.8,3-2.1,4.6c-0.5,2.6-0.4,5.3-0.6,8c-0.1,2.5-0.4,5-0.4,7.5c0,2.8,0.2,5.7,0.3,8.5c0,1.5,0.4,3.1-0.7,4.4
			c-0.2,0.2-0.5,0.3-0.8,0.5c-0.1-0.3-0.2-0.6-0.2-0.8c-0.1-2.1-0.2-4.3-0.2-6.4c0-3.7,0.2-7.5,0.2-11.2c0-4.4,0.1-8.8-0.3-13.2
			c-0.3-3.6,1.6-5.9,4.1-8c3.7-3.2,7.6-6.2,11.1-9.6C903.8,541.8,905.6,540.1,908,539.2z"/>
		<path class="st6" d="M998.7,614.7c-5.1,0-10.1,0-15.2,0c-1.2,0-2.1-0.5-2.6-1.5c-0.3-0.6-0.2-1.1,0.5-1.3c0.8-0.2,1.6-0.2,2.4-0.3
			c0.9-0.1,1.7-0.2,2.6-0.2c2.2,0,4.5,0,6.7,0c3.1-0.1,6.3-0.2,9.4-0.2c3-0.1,5.9-0.1,8.9-0.3c1-0.1,2-0.6,2.8-1.2
			c2.9-2.5,5.7-5,8.4-7.6c2.9-2.9,5.6-6,8.4-9c0.7-0.7,1.5-1.3,2.5-0.8c1,0.4,1.2,2.4,0.4,3.4c-0.9,1-1.8,2.1-3,2.8
			c-2.7,1.7-4.7,4.2-6.8,6.5c-2.5,2.7-5.1,5.4-7.6,8.1c-0.1,0.1-0.2,0.1-0.2,0.2c-0.7,2-2.4,1.7-4,1.7
			C1007.8,614.7,1003.2,614.7,998.7,614.7z"/>
		<path class="st7" d="M939.1,464.9c1.2,0.6,2.5,1.1,3.6,1.8c2.3,1.6,4.6,3.4,6.9,5.1c3.2,2.4,6.5,4.9,9.7,7.3
			c0.9,0.7,1.7,0.8,2.6,0.1c4-3.1,8-6.1,12-9.2c1.8-1.4,3.5-2.9,5.3-4.2c0.5-0.4,1.3-0.6,1.9-0.9c-0.2,0.4-0.3,0.8-0.5,1.2
			c-0.2,0.1-0.5,0.2-0.7,0.4c-2.3,1.8-4.5,3.6-6.8,5.4c-3.1,2.5-6.2,5-9.2,7.5c-0.6,0.4-1.1,1-1.8,1.2c-1.3,0.3-1.8,1.2-2.1,2.3
			c0,0.2,0,0.3,0,0.5c-0.2,0.2-0.3,0.3-0.5,0.5c0,0.2,0,0.5,0,0.7c-0.2-0.2-0.5-0.5-0.7-0.7c-0.5-0.4-1-0.9-1.5-1.3
			c-1.2-0.9-2.5-1.6-3.7-2.5c-3.5-2.6-6.9-5.3-10.4-8c-0.2-0.1-0.3-0.3-0.5-0.4c-2.2-0.5-3.3-2.5-4.7-4c0-0.2,0-0.3,0-0.5
			c0.4-0.3,0.8-0.6,1.2-1C939.1,465.9,939.1,465.4,939.1,464.9z"/>
		<path class="st8" d="M905.6,470.4c-0.1,0.1-0.2,0.2-0.2,0.2c-0.4,0.2-0.9,0.4-1.3,0.7c-1.1,0.9-2.2,2-3.3,2.9
			c-2.6,2.2-5.2,4.3-7.7,6.5c-0.9,0.8-1.7,1.7-2.5,2.6c-0.2,0.2-0.3,0.3-0.5,0.5c0,0.1,0,0.2,0,0.2c-0.4,0.9-1,1.9-1.2,2.8
			c-0.4,2.9-0.6,5.8-0.7,8.8c-0.1,0.9-0.4,1.2-1.2,1.1c0-4.5,0-8.9,0-13.4c0-0.9,0-1.9,0.3-2.7c0.4-0.8,1.1-1.4,1.8-1.9
			c4.7-3.8,9.5-7.6,14.2-11.4c0.6-0.5,1.2-1.2,1.8-1.7c0.3-0.3,0.8-0.4,1.2-0.6c0.5,0.5,1,1,1.4,1.4c0,0,0,0,0,0
			c0.3,0.4,0.6,0.8,1,1.2C907.7,468.5,906.7,469.5,905.6,470.4z"/>
		<path class="st7" d="M984.4,468c-1.1,1.2-2.2,2.4-3.4,3.4c-4,3.3-8.2,6.5-12.2,9.7c-1.4,1.1-2.8,2.4-4.1,3.6
			c-0.9,0.8-1.2,1.8-1.2,3.2c0.1,2.9-0.2,5.8-0.3,8.7c-0.1,1.6-0.3,3.2-0.3,4.8c0,3.8,0.1,7.5,0.2,11.3c0,0.7,0.2,1.5,0.1,2.2
			c-0.2,1.1-1,1.5-2,1.4c-1.1-0.1-1.2-1-1.2-1.8c0-2.6,0.2-5.3,0.2-7.9c0-2.9-0.1-5.9-0.2-8.8c0.3,0.4,0.6,0.9,1.1,1.5
			c0.1-0.5,0.3-0.8,0.3-1.2c0.3-3.5,0.4-7,0.8-10.5c0.2-1.7,0.4-3.5,2.2-4.4c0.3-0.1,0.5-0.3,0.8-0.6c1.1-1.1,2.1-2.2,3.2-3.3
			c1-0.8,1.9-1.6,2.9-2.4c0.2-0.1,0.5-0.2,0.7-0.2c0.2-0.2,0.5-0.3,0.7-0.5c0.2-0.2,0.5-0.3,0.7-0.5c0.2-0.2,0.3-0.3,0.5-0.5
			c0.2-0.1,0.3-0.2,0.5-0.2c0.3-0.3,0.6-0.6,1-1c0.1,0,0.2,0,0.2,0c0.3-0.3,0.6-0.6,1-1c0.1,0,0.2,0,0.2,0c0.2-0.2,0.3-0.3,0.5-0.5
			c0.1,0,0.2,0,0.2,0c0.2-0.2,0.3-0.3,0.5-0.5c0.2-0.1,0.3-0.2,0.5-0.2c0.2-0.2,0.3-0.3,0.5-0.5c0.2-0.1,0.4-0.2,0.6-0.3
			c1.5-1.2,3-2.3,4.4-3.5c0-0.1,0-0.2,0-0.2c0.2,0,0.3,0,0.5,0c0,0,0,0,0,0C984.4,467.7,984.4,467.9,984.4,468z"/>
		<path class="st9" d="M1013.4,464.9c1-0.6,1.8-0.1,2.6,0.6c5.4,4.6,10.9,9.1,16.3,13.7c0.9,0.7,0.9,1.7,0.2,2.8
			c-0.6,1-1.3,0.6-2.1,0.3c-1.5-0.6-3-1.1-4.2-2.3c-1.8-1.8-3.7-3.5-5.5-5.3c-1.9-1.8-3.7-3.6-5.6-5.3c-1.2-1.1-2.7-1.5-4.2-1.6
			c-1,0-2.1,0-3.1,0c-0.4,0-0.7-0.3-1.1-0.5c0.5,0,1,0,1.4,0c1.1-0.1,2.2-0.2,3.4-0.3c0.2-0.1,0.3-0.1,0.5-0.2
			C1012.5,466.2,1012.9,465.6,1013.4,464.9z"/>
		<path class="st10" d="M983.7,538.5c-0.2-0.4-0.4-0.8-0.6-1.2c0.4-0.9,1.2-1.2,2.1-1.1c2.7,0,5.4,0,8.1,0c3.8-0.1,7.6-0.1,11.4-0.3
			c2.8-0.1,5.6-0.4,8.4-0.8c0.8-0.1,1.6-0.7,2.4-1c0.6-0.3,1.2-0.6,1.8-0.8c0.1,0.1,0.2,0.2,0.3,0.3c-0.2,0.4-0.3,0.8-0.6,1.1
			c-1.4,1.4-2.7,3-4.8,3.4c-0.2,0-0.3,0.3-0.5,0.5c-0.9,0-1.8,0-2.6,0c-2.2,0.1-4.3,0.2-6.5,0.2c-0.1,0-0.2,0-0.2,0
			c-1.8-0.1-3.7-0.2-5.5-0.2c-1.7-0.2-3.4-0.3-5-0.4c-0.1,0-0.3,0.3-0.5,0.4c-1,0-2.1,0-3.1,0c-0.2,0-0.3,0-0.5,0
			c-0.2,0-0.5,0-0.7,0C986,538.5,984.9,538.5,983.7,538.5L983.7,538.5z"/>
		<path class="st10" d="M937.2,539.9c-0.5-0.1-1-0.2-1.4-0.2c0,0,0,0,0,0c-0.1-0.1-0.2-0.2-0.3-0.2c-0.2,0-0.3,0-0.5,0
			c-0.2-0.1-0.3-0.1-0.5-0.2c-0.5-0.1-0.9-0.2-1.4-0.3c-0.1-0.1-0.2-0.2-0.2-0.3c-0.1,0.1-0.2,0.2-0.2,0.3c-0.2,0-0.5,0-0.7,0
			c-1,0-1.9,0-2.9,0c-0.7,0-1.4,0-2.1,0c-1.4,0.1-2.7,0.1-4.1,0.2c-0.1,0-0.2,0-0.3,0.1c-1.9,0-3.9,0-5.8,0c-1.3,0-2.7,0.1-4,0.1
			c-0.5,0-0.9-0.1-1.4-0.2c-0.5,0-1,0-1.4,0c-0.2,0-0.5,0-0.7,0c-0.2-1.6,0.6-2.4,2.2-2.1c3.9,0.7,7.8,0.4,11.8,0
			c2.5-0.3,5-0.3,7.5-0.5c1.8-0.1,3.6-0.6,5.3-0.5c3.1,0.1,5-1.8,7.1-3.5c0.2-0.2,0.5-0.3,1.1-0.6c-0.6,1.7-1.6,2.7-2.6,3.6
			c-1.5,1.4-2.9,2.8-4.4,4.1C937.2,539.8,937.2,539.8,937.2,539.9z"/>
		<path class="st11" d="M984.4,467.6c-0.2,0-0.3,0-0.5,0c0,0-0.1,0.1-0.1,0.1c0,0.1,0,0.1,0.1,0.2c-1.5,1.2-2.9,2.3-4.4,3.5
			c-0.2,0.1-0.4,0.2-0.6,0.3c-0.2,0.1-0.3,0.2-0.5,0.2c-0.6,0.2-1.3,0.3-1.8,0.7c-1.5,1.2-2.9,2.6-4.4,3.8c-0.3,0.2-0.6,0.5-1,0.7
			c-1,0.8-1.9,1.6-2.9,2.4c-0.2,0.1-0.4,0.1-0.5,0.2c-1.7,1.3-3.4,2.7-5.1,4.1c-0.4,0.3-0.7,0.8-0.8,1.3c-0.2,1.7-0.4,3.4-0.5,5.1
			c-0.1,0.9-0.2,1.7-0.4,2.6c-0.1,0-0.1,0-0.2,0c-0.1-0.7-0.3-1.4-0.4-2.2c0-0.2,0-0.3,0-0.5c0.3-0.9,0.6-1.8-0.2-2.6
			c-0.1-0.3-0.2-0.6-0.2-1c-0.2-0.6-0.3-1.3-0.5-1.9c0-0.2,0-0.5,0-0.7c0.2-0.2,0.3-0.3,0.5-0.5c0-0.2,0-0.3,0-0.5
			c1.3-0.9,2.6-1.9,3.9-2.8c0.1,0,0.1-0.1,0.2-0.2c2.3-1.6,4.5-3.3,6.8-4.8c2.1-1.3,4.2-2.5,5.7-4.6c0.6-0.9,1.7-1.5,2.4-2.3
			c0.6-0.7,1.1-1.4,1.6-2.2c0.2-0.4,0.3-0.8,0.5-1.2c0.3,0,0.6,0,1,0c0.2,0.3,0.5,0.6,0.7,1c0,0.1,0,0.1,0,0.2c0.3,0.3,0.6,0.6,1,1
			c0.2,0.1,0.5,0.2,0.7,0.2C984.4,467.4,984.4,467.5,984.4,467.6z"/>
		<path class="st7" d="M890.5,483.4c0.8-0.9,1.6-1.8,2.5-2.6c2.5-2.2,5.2-4.3,7.7-6.5c1.1-0.9,2.2-2,3.3-2.9
			c0.4-0.3,0.9-0.5,1.3-0.7c-2,1.8-4,3.7-6,5.5c-2.4,2.2-5,4.2-7.2,6.6c-0.9,1-1.3,2.7-1.3,4.2c-0.4,5.8-0.6,11.7-0.7,17.5
			c-0.1,2.6,0.4,5.2,0.4,7.7c0,1.7,0.1,3.7-1.9,4.7c-0.4,0.2-0.7,0.6-1.3,1.2c-0.1-0.8-0.2-1.4-0.3-2c0.9,0.4,1.5-0.1,1.7-0.9
			c0.2-1,0.2-2,0.2-3c-0.1-3.4-0.4-6.8-0.3-10.2c0.1-3.8,0.4-7.7,0.7-11.5c0.2-2.1,0.6-4.1,0.9-6.2c0-0.1,0-0.2,0-0.2
			C890.2,483.7,890.4,483.5,890.5,483.4z"/>
		<path class="st12" d="M908,464.9c10.2,0,20.5,0,30.7,0c-0.2,0.4-0.5,0.8-0.7,1.2c-0.2,0-0.3,0-0.5,0c-1.5,0.1-3.1,0.1-4.6,0.2
			c-0.5,0-1.1,0.1-1.6,0.2c-2.8,0-5.6,0-8.4,0c-0.8-0.8-1.7-0.5-2.6-0.2c-1.1,0.1-2.2,0.1-3.4,0.2c-1.1-0.2-2.3-0.7-3.4,0.2
			c-0.9,0-1.7,0-2.6,0c-0.4-0.2-0.8-0.3-1.1-0.5C909.1,465.9,908.6,465.4,908,464.9z"/>
		<path class="st13" d="M996.9,538.5c1.8,0.1,3.7,0.2,5.5,0.2c0.1,0,0.2,0,0.2,0c2.2-0.1,4.3-0.2,6.5-0.2c0.2,0,0.3,0,0.5,0
			c-0.2,0.3-0.5,0.6-0.7,0.9c-0.2,0.2-0.5,0.3-0.7,0.5c-0.2,0-0.5,0-0.7,0c-0.4-0.1-0.8-0.2-1.1-0.2c-1.3,0-2.6,0.1-3.9,0.2
			c-2.4,0.2-4.8,0.4-7.1,0.5c-3.4,0.2-6.7,0.5-10.1,0.7c-0.8,0-1.5-0.2-1.5-1.1c0-0.9,0.7-1.1,1.5-1.1c0.7,0,1.3-0.3,2-0.4
			c0.2,0,0.5,0,0.7,0c0.2,0,0.3,0,0.5,0c1,0,2.1,0,3.1,0c0.5,0,0.9,0,1.4,0c0.1,0.2,0.1,0.3,0.2,0.5c0.1-0.2,0.2-0.3,0.3-0.5
			C994.5,538.5,995.7,538.5,996.9,538.5z"/>
		<path class="st14" d="M890,484.1c-0.3,2.1-0.8,4.1-0.9,6.2c-0.3,3.8-0.6,7.7-0.7,11.5c-0.1,3.4,0.2,6.8,0.3,10.2c0,1,0,2-0.2,3
			c-0.2,0.8-0.7,1.3-1.7,0.9c0-6.4,0-12.8,0-19.2c0.8,0.1,1.2-0.2,1.2-1.1c0.2-2.9,0.4-5.9,0.7-8.8C889,485.9,889.6,485,890,484.1z"
			/>
		<path class="st15" d="M1012,466.8c-0.2,0.1-0.3,0.1-0.5,0.2c-1-0.1-1.9-0.1-2.9-0.2c-0.4-0.7-0.8-0.7-1.2,0c-0.2,0-0.5,0-0.7,0
			c-0.9-0.9-2.4-1-3.4-0.2c-0.2,0-0.3,0-0.5,0c-0.8-1-1.4-1-2.2,0c-0.4,0-0.8,0-1.2,0c-0.2-0.6-0.5-0.6-0.7,0c-2,0-4,0-6,0
			c-0.6-0.2-1.4-0.7-1.7,0.4c-0.5,0-0.9,0-1.4,0c-0.4-0.1-0.8-0.3-1.2-0.4c0-0.1,0-0.2,0-0.3c1.8-0.3,3.6-0.6,5.4-1
			c0.3-0.1,0.5-0.3,0.8-0.5c5.8,0,11.5,0,17.3,0c0,0.2,0,0.5,0,0.7c0,0.2,0,0.3,0,0.5C1012,466.4,1012,466.6,1012,466.8z"/>
		<path class="st8" d="M960.5,490.6c0.1,0.7,0.3,1.4,0.4,2.2c0.1,0,0.1,0,0.2,0c0.1-0.9,0.3-1.7,0.4-2.6c0.2-1.7,0.3-3.4,0.5-5.1
			c0.1-0.5,0.4-1,0.8-1.3c1.7-1.4,3.4-2.7,5.1-4.1c0.1-0.1,0.4-0.1,0.5-0.2c-1.1,1.1-2.1,2.2-3.2,3.3c-0.2,0.2-0.5,0.4-0.8,0.6
			c-1.9,0.9-2.1,2.7-2.2,4.4c-0.3,3.5-0.5,7-0.8,10.5c0,0.3-0.2,0.6-0.3,1.2c-0.5-0.6-0.8-1-1.1-1.5c0-2.5,0-5,0-7.4
			C960.2,490.6,960.3,490.6,960.5,490.6z"/>
		<path class="st9" d="M989.7,467c0.5,0,0.9,0,1.4,0c0.6,0,1.1-0.1,1.7-0.1c0.2,0.1,0.4,0.2,0.7,0.2c3.1,0,6.1,0,9.2,0
			c0.2,0,0.4-0.1,0.7-0.2c0.9,0.1,1.8,0.1,2.6,0.2c0,0.1,0,0.2,0,0.3c-0.5,0.2-1,0.5-1.5,0.5c-4.7,0-9.5,0-14.2,0
			c-0.8,0-1.6,0.2-2.4,0.2c-0.4,0-0.7-0.3-1.1-0.4c0.2-0.1,0.5-0.2,0.7-0.3c0.3,0,0.6,0,0.9,0C988.9,467.2,989.3,467.1,989.7,467z"
			/>
		<path class="st16" d="M994.7,464.9c-0.3,0.2-0.5,0.4-0.8,0.5c-1.8,0.3-3.6,0.6-5.4,1c-0.9,0-1.8,0-2.6,0c-0.7-0.3-1.4-0.6-1.9,0.2
			c-0.1,0-0.2,0-0.2,0c-0.1-0.1-0.2-0.2-0.2-0.2c-0.2-0.5-0.3-1-0.5-1.4C986.9,464.9,990.8,464.9,994.7,464.9z"/>
		<path class="st17" d="M938,467.3c0,0.2,0,0.3,0,0.5c-2.2,0-4.3,0-6.5,0c-1.4-0.1-2.7-0.2-4.1-0.2c-2.8,0.1-5.6,0.2-8.4,0.2
			c-0.4-0.1-0.8-0.2-1.2-0.2c-1.3,0.1-2.5,0.2-3.8,0.2c-0.4,0-0.8-0.1-1.2-0.2c0.6-0.2,1.3-0.3,1.9-0.5c0.7-0.1,1.4-0.1,2.2-0.2
			c0.3,0.1,0.7,0.2,1,0.2C924.6,467.2,931.3,467.2,938,467.3z"/>
		<path class="st18" d="M908,464.9c0.6,0.5,1.1,1,1.7,1.4c0.3,0.2,0.8,0.4,1.1,0.5c0,0.1,0,0.2,0,0.3c-0.2,0-0.5,0-0.7,0
			c-0.8-0.2-1.6-0.5-2.4-0.7c0,0,0,0,0,0c-0.1-0.3-0.4-0.5-0.4-0.8c0-0.2,0.1-0.4,0.2-0.7C907.7,464.9,907.8,464.9,908,464.9z"/>
		<path class="st19" d="M1006,467.3c0-0.1,0-0.2,0-0.3c0.2-0.1,0.5-0.2,0.7-0.2c0.2,0,0.5,0,0.7,0c0.4,0,0.8,0,1.2,0
			c1,0.1,1.9,0.1,2.9,0.2c-1.1,0.1-2.2,0.2-3.4,0.3c-0.5,0-1,0-1.4,0C1006.5,467.3,1006.2,467.3,1006,467.3z"/>
		<path class="st7" d="M905.6,470.4c1-1,2.1-1.9,3.1-2.9c0.1,0.1,0.2,0.2,0.2,0.2C907.8,468.7,906.7,469.5,905.6,470.4z"/>
		<path class="st20" d="M910.9,467.1c0-0.1,0-0.2,0-0.3c0.9,0,1.7,0,2.6,0c0.4,0.1,0.8,0.2,1.2,0.2c-0.6,0.2-1.3,0.3-1.9,0.5
			c-0.2,0-0.5,0-0.7,0c-0.2,0-0.5,0-0.7,0c-0.2,0-0.3,0-0.5,0C910.9,467.4,910.9,467.3,910.9,467.1z"/>
		<path class="st7" d="M927.4,467.6c1.4,0.1,2.7,0.2,4.1,0.2C930.1,468,928.7,468.5,927.4,467.6z"/>
		<path class="st21" d="M1008.1,539.9c0.2-0.2,0.5-0.3,0.7-0.5c0.3-0.3,0.5-0.6,0.7-0.9c0.4,0.1,0.8,0.1,1.2,0.2c0,0.3,0,0.6,0,0.9
			c-0.1,0-0.2,0-0.2,0C1009.8,539.8,1009,539.8,1008.1,539.9z"/>
		<path class="st8" d="M960.2,487.4c0.9,0.8,0.5,1.7,0.2,2.6c-0.2,0-0.3,0-0.5,0c0-0.9,0-1.8,0-2.6
			C960.1,487.4,960.2,487.4,960.2,487.4z"/>
		<path class="st19" d="M987.6,467.3c-0.2,0.1-0.5,0.2-0.7,0.3c-0.5,0.2-0.9,0.3-1.4,0.5c-0.3-0.2-0.6-0.3-1-0.5c0,0,0,0,0,0
			c0-0.1,0-0.2,0-0.3C985.5,467.3,986.5,467.3,987.6,467.3z"/>
		<path class="st20" d="M909,467.8c-0.1-0.1-0.2-0.2-0.2-0.2c-0.3-0.4-0.6-0.8-1-1.2c0.8,0.2,1.6,0.5,2.4,0.7
			c-0.2,0.2-0.3,0.5-0.5,0.7C909.4,467.8,909.2,467.8,909,467.8z"/>
		<path class="st19" d="M1012,466.8c0-0.2,0-0.5,0-0.7c0-0.2,0-0.3,0-0.5c0-0.2,0-0.5,0-0.7c0.1,0,0.1,0,0.2,0c0.1,0,0.2,0,0.2,0
			c0.3,0,0.6,0,1,0C1012.9,465.6,1012.5,466.2,1012,466.8z"/>
		<path class="st18" d="M937.9,466.1c0.2-0.4,0.5-0.8,0.7-1.2c0.2,0,0.3,0,0.5,0c0,0.5,0,0.9,0,1.4
			C938.7,466.3,938.3,466.2,937.9,466.1z"/>
		<path class="st20" d="M907.5,464.9c-0.1,0.2-0.2,0.5-0.2,0.7c0.1,0.3,0.3,0.5,0.4,0.8c-0.5-0.5-1-1-1.4-1.4
			C906.7,464.9,907.1,464.9,907.5,464.9z"/>
		<path class="st22" d="M983,464.9c0.2,0.5,0.3,1,0.5,1.4c-0.2-0.1-0.5-0.2-0.7-0.2c0-0.1,0-0.1,0-0.2c-0.1-0.3-0.2-0.6-0.2-1
			c0,0,0,0,0,0c0.1,0,0.2,0,0.2,0C982.8,464.9,982.9,464.9,983,464.9z"/>
		<path class="st8" d="M909.7,467.8c0.2-0.2,0.3-0.5,0.5-0.7c0.2,0,0.5,0,0.7,0c0,0.1,0,0.3,0,0.4c0,0.1,0,0.2,0,0.2
			C910.5,467.8,910.1,467.8,909.7,467.8z"/>
		<path class="st7" d="M917.8,467.6c0.4,0.1,0.8,0.2,1.2,0.2C918.6,467.7,918.2,467.6,917.8,467.6z"/>
		<path class="st9" d="M984.4,467.6c0.3,0.2,0.6,0.3,1,0.5c-0.3,0-0.6,0-1,0C984.4,467.9,984.4,467.7,984.4,467.6z"/>
		<path class="st19" d="M982.5,464.9c0.1,0.3,0.2,0.6,0.2,1c-0.2-0.3-0.5-0.6-0.7-1C982.2,464.9,982.4,464.9,982.5,464.9z"/>
		<path class="st7" d="M960.2,487.4c-0.1,0-0.2,0-0.2,0c0-0.3,0-0.6,0-1C960.1,486.8,960.2,487.1,960.2,487.4z"/>
		<path class="st7" d="M910.9,467.8c0-0.1,0-0.2,0-0.2c0.2,0,0.3,0,0.5,0c0.1,0.1,0.2,0.2,0.2,0.2
			C911.4,467.8,911.1,467.8,910.9,467.8z"/>
		<path class="st17" d="M911.6,467.8c-0.1-0.1-0.2-0.2-0.2-0.2c0.2,0,0.5,0,0.7,0C911.9,467.6,911.8,467.7,911.6,467.8z"/>
		<path class="st7" d="M960,490.1c0.2,0,0.3,0,0.5,0c0,0.2,0,0.3,0,0.5c-0.2,0-0.3,0-0.5,0C960,490.4,960,490.2,960,490.1z"/>
		<path class="st9" d="M1012.5,464.9c-0.1,0-0.2,0-0.2,0C1012.3,464.9,1012.4,464.9,1012.5,464.9z"/>
		<path class="st8" d="M982.8,464.9c-0.1,0-0.2,0-0.2,0C982.6,464.9,982.7,464.9,982.8,464.9z"/>
		<path class="st23" d="M909.2,539.2c0.2,0,0.5,0,0.7,0c0.5,0,1,0,1.4,0c0.5,0.1,0.9,0.2,1.4,0.2c1.3,0,2.7-0.1,4-0.1
			c1.9,0,3.9,0,5.8,0c0.7,0.7,1.5,0.7,2.2,0c0.7,0,1.4,0,2.1,0c0.5,0.1,1.1,0.2,1.6,0.2c2.3,0.2,4.5,0.3,6.8,0.5
			c-0.1,0.2-0.2,0.5-0.2,0.7c-0.6,0.1-1.1,0.2-1.7,0.2c-0.5-0.4-0.7-0.1-0.7,0.4c-0.2,0-0.5,0-0.7,0c-0.3-0.1-0.6-0.1-1-0.2
			c-0.2-0.6-0.5-0.6-0.7,0c-0.4,0-0.8,0-1.2,0c-0.2-0.1-0.3-0.1-0.5-0.2c-0.5,0.1-1,0.2-1.4,0.3c-0.2,0.1-0.5,0.1-0.7,0.2
			c-0.6,0-1.3,0-1.9,0c-0.2,0.1-0.5,0.1-0.7,0.2c-0.3,0.1-0.6,0.1-0.9,0.2c-0.1-0.2-0.2-0.4-0.3-0.6c-0.1,0.1-0.3,0.3-0.4,0.4
			c-1.4,0.1-2.7,0.1-4.1,0.2c-1.6-0.1-3.2-0.3-4.8-0.4c-0.2,0-0.3,0-0.5,0c-0.4-0.1-0.8-0.2-1.2-0.2c-0.2,0-0.3,0-0.5,0
			c-0.4-0.1-0.8-0.2-1.2-0.2c-0.2,0-0.3,0-0.5,0c-0.2-0.5-0.5-0.9-0.7-1.4c0-0.1,0-0.2,0.1-0.2C908.9,539.2,909.1,539.2,909.2,539.2
			z"/>
		<path class="st21" d="M987.1,538.5c-0.7,0.1-1.3,0.4-2,0.4c-0.8,0-1.5,0.1-1.5,1.1c0,0.9,0.7,1.2,1.5,1.1
			c3.4-0.2,6.7-0.4,10.1-0.7c2.4-0.2,4.8-0.4,7.1-0.5c1.3-0.1,2.6-0.2,3.9-0.2c0.4,0,0.8,0.1,1.1,0.2c0,0.1,0,0.2,0,0.3
			c-0.6,0.1-1.1,0.2-1.7,0.2c-0.3,0-0.6,0-1,0c-0.4,0-0.8,0-1.2,0c-1.1,0.2-2.1,0.5-3.2,0.7c-0.3-0.1-0.6-0.1-0.9-0.2
			c-0.4,0-0.8,0-1.2,0c-3.7,0.2-7.4,0.5-11,0.7c-0.6,0-1.3,0.1-1.9,0c-0.8-0.1-2-0.2-2.2-0.7c-0.2-0.7,0.3-1.6,0.5-2.4
			C984.9,538.5,986,538.5,987.1,538.5z"/>
		<path class="st24" d="M1000.5,541.1c1.1-0.2,2.1-0.5,3.2-0.7c0.4-0.1,0.8,0,1.2,0c0.3,0,0.6,0,1,0c0.6-0.1,1.1-0.2,1.7-0.2
			c1.1,0.3,2.2,0.7,3.1-0.5c0.1,0,0.2,0,0.2,0c-0.1,1.5-0.5,2-2.1,1.9C1006,541.5,1003.2,541.3,1000.5,541.1z"/>
		<path class="st24" d="M998.3,540.9c0.4,0,0.8,0,1.2,0C999.1,541.6,998.7,541.6,998.3,540.9z"/>
		<path class="st25" d="M913.3,541.4c1.6,0.1,3.2,0.3,4.8,0.4c-1.6,0.1-3.2,0.2-4.8,0.3C913.3,541.8,913.3,541.6,913.3,541.4z"/>
		<path class="st19" d="M929.1,541.1c0.4,0,0.8,0,1.2,0c0.2,0,0.5,0,0.7,0c0.3,0.1,0.6,0.1,1,0.2c-1.6,0.4-3.2,0.5-4.8-0.2
			c0.5-0.1,1-0.2,1.4-0.3C928.8,541,928.9,541,929.1,541.1z"/>
		<path class="st26" d="M909.4,540.9c0.2,0,0.3,0,0.5,0c0.4,0.1,0.8,0.2,1.2,0.2c0.2,0,0.3,0,0.5,0c0,0.2,0,0.5,0,0.7
			c-1.2,0-2.5,0.3-3.4-0.9C908.6,540.9,909,540.9,909.4,540.9z"/>
		<path class="st25" d="M909.4,540.9c-0.4,0-0.8,0-1.2,0c-0.7-0.8-0.4-1.2,0.5-1.4C909,539.9,909.2,540.4,909.4,540.9z"/>
		<path class="st19" d="M933.4,540.9c0.6-0.1,1.1-0.2,1.7-0.2c0,0.1,0,0.2,0,0.3c-0.6,0.1-1.1,0.3-1.7,0.4
			C933.4,541.2,933.4,541,933.4,540.9z"/>
		<path class="st19" d="M924.5,541.4c0.6,0,1.3,0,1.9,0c-0.5,0.8-1.2,0.5-1.9,0.2C924.5,541.5,924.5,541.4,924.5,541.4z"/>
		<path class="st18" d="M935.1,540.9c0-0.1,0-0.2,0-0.3c0.1-0.2,0.2-0.5,0.2-0.7c0.1-0.1,0.2-0.2,0.2-0.2c0.1,0,0.2,0,0.2,0
			c0,0,0,0,0,0C936.1,540.4,936.1,541,935.1,540.9z"/>
		<path class="st25" d="M911.6,541.8c0-0.2,0-0.5,0-0.7c0.4,0.1,0.8,0.2,1.2,0.2c-0.1,0.2-0.2,0.3-0.2,0.5
			C912.2,541.8,911.9,541.8,911.6,541.8z"/>
		<path class="st25" d="M922.1,541.6c0.1-0.1,0.3-0.3,0.4-0.4c0.1,0.2,0.2,0.4,0.3,0.6C922.6,541.7,922.4,541.6,922.1,541.6z"/>
		<path class="st18" d="M933.4,540.9c0,0.2,0,0.3,0,0.4c-0.2,0-0.5,0-0.7-0.1C932.7,540.8,932.9,540.5,933.4,540.9z"/>
		<path class="st26" d="M912.6,541.8c0.1-0.2,0.2-0.3,0.2-0.5c0.2,0,0.3,0,0.5,0c0,0.2,0,0.5,0,0.7C913,542,912.8,541.9,912.6,541.8
			z"/>
		<path class="st25" d="M924.5,541.4c0,0.1,0,0.2,0,0.3c-0.2,0-0.5,0-0.7,0C924.1,541.5,924.3,541.4,924.5,541.4z"/>
		<path class="st8" d="M980.6,466.1c-0.5,0.7-1,1.5-1.6,2.2c-0.8,0.8-1.8,1.4-2.4,2.3c-1.5,2.1-3.7,3.2-5.7,4.6
			c-2.3,1.5-4.5,3.2-6.8,4.8c-0.1,0-0.1,0.1-0.2,0.2c-1.3,0.9-2.6,1.9-3.9,2.8c0.3-1.1,0.8-2,2.1-2.3c0.6-0.2,1.2-0.8,1.8-1.2
			c3.1-2.5,6.2-5,9.2-7.5c2.3-1.8,4.5-3.6,6.8-5.4C980.1,466.3,980.4,466.2,980.6,466.1z"/>
		<path class="st20" d="M937.9,466.1c0.4,0.1,0.8,0.1,1.2,0.2c-0.4,0.3-0.8,0.6-1.2,1c-6.7-0.1-13.4-0.2-20.1-0.3
			c-0.3,0-0.7-0.1-1-0.2c0-0.1,0-0.2,0-0.3c1.1-0.1,2.2-0.1,3.4-0.2c0.9,0.1,1.8,0.1,2.6,0.2c2.8,0,5.6,0,8.4,0
			c1.6,0,3.2,0.1,4.8,0.1c0.5,0,1-0.4,1.5-0.6C937.6,466.1,937.8,466.1,937.9,466.1z"/>
		<path class="st8" d="M960,483.4c-0.2,0.2-0.3,0.3-0.5,0.5C959.7,483.7,959.8,483.5,960,483.4z"/>
		<path class="st14" d="M890.5,483.4c-0.2,0.2-0.3,0.3-0.5,0.5C890.2,483.7,890.4,483.5,890.5,483.4z"/>
		<path class="st8" d="M972.2,476.4c1.5-1.3,2.9-2.6,4.4-3.8c0.5-0.4,1.2-0.5,1.8-0.7c0,0.1,0,0.2,0,0.2c-0.2,0.1-0.3,0.2-0.5,0.2
			c-0.2,0.2-0.3,0.3-0.5,0.5c-0.1,0-0.2,0-0.2,0c-0.2,0.2-0.3,0.3-0.5,0.5c-0.1,0-0.2,0-0.2,0c-0.3,0.3-0.6,0.6-1,1
			c-0.1,0-0.2,0-0.2,0c-0.3,0.3-0.6,0.6-1,1c-0.2,0.1-0.3,0.2-0.5,0.2c-0.2,0.2-0.3,0.3-0.5,0.5c-0.2,0.2-0.5,0.3-0.7,0.5
			C972.5,476.4,972.4,476.4,972.2,476.4L972.2,476.4z"/>
		<path class="st14" d="M975.6,474.3c0.3-0.3,0.6-0.6,1-1C976.2,473.6,975.9,473.9,975.6,474.3z"/>
		<path class="st14" d="M974.4,475.2c0.3-0.3,0.6-0.6,1-1C975,474.6,974.7,474.9,974.4,475.2z"/>
		<path class="st8" d="M971.3,477.1c0.3-0.2,0.6-0.5,1-0.7c0,0,0,0,0,0c-0.1,0.2-0.2,0.3-0.2,0.5C971.7,477,971.5,477.1,971.3,477.1
			z"/>
		<path class="st14" d="M972,476.9c0.1-0.2,0.2-0.3,0.2-0.5c0.2,0,0.3,0,0.5,0C972.5,476.6,972.2,476.7,972,476.9z"/>
		<path class="st14" d="M973.4,475.9c0.2-0.2,0.3-0.3,0.5-0.5C973.7,475.6,973.6,475.8,973.4,475.9z"/>
		<path class="st14" d="M977.5,472.8c0.2-0.2,0.3-0.3,0.5-0.5C977.8,472.5,977.7,472.7,977.5,472.8z"/>
		<path class="st14" d="M978.5,472.1c0-0.1,0-0.2,0-0.2c0.2-0.1,0.3-0.2,0.5-0.2C978.8,471.8,978.6,471.9,978.5,472.1z"/>
		<path class="st14" d="M976.8,473.3c0.2-0.2,0.3-0.3,0.5-0.5C977.1,473,976.9,473.1,976.8,473.3z"/>
		<path class="st9" d="M984,467.8c0-0.1-0.1-0.1-0.1-0.2c0,0,0,0,0.1-0.1C984,467.6,984,467.7,984,467.8z"/>
		<path class="st0" d="M992.8,538.5c-0.5,0-0.9,0-1.4,0c0.2-0.2,0.3-0.4,0.5-0.4c1.7,0.1,3.4,0.3,5,0.4c-1.2,0-2.4,0-3.6,0
			C993.2,538.5,993,538.5,992.8,538.5z"/>
		<path class="st0" d="M988.3,538.5c-0.2,0-0.3,0-0.5,0C988,538.5,988.1,538.5,988.3,538.5z"/>
		<path class="st27" d="M1002.7,538.7c-0.1,0-0.2,0-0.2,0C1002.5,538.7,1002.6,538.7,1002.7,538.7z"/>
		<path class="st28" d="M935.6,539.7c-0.1,0.1-0.2,0.2-0.2,0.2c-2.3-0.2-4.5-0.3-6.8-0.5c-0.5,0-1.1-0.1-1.6-0.2c0-0.1,0-0.2,0-0.2
			c0.7,0,1.4,0,2.1,0c1,0,1.9,0,2.9,0c0.2,0,0.5,0,0.7,0c0.2,0,0.3,0,0.5,0c0.5,0.1,0.9,0.2,1.4,0.3c0.2,0.1,0.3,0.1,0.5,0.2
			c0.2,0,0.3,0,0.5,0C935.5,539.5,935.6,539.6,935.6,539.7z"/>
		<path class="st0" d="M927,539c0,0.1,0,0.2,0,0.2c-0.7,0-1.4,0-2.1,0c-0.6,0-1.3,0-1.9-0.1C924.2,539.1,925.6,539.1,927,539z"/>
		<path class="st28" d="M922.9,539.2c0.6,0,1.3,0,1.9,0.1c-0.7,0.7-1.5,0.7-2.2,0C922.7,539.2,922.8,539.2,922.9,539.2z"/>
		<path class="st0" d="M932,538.9c-1,0-1.9,0-2.9,0C930,539,931,538.9,932,538.9z"/>
		<path class="st0" d="M911.4,539.2c-0.5,0-1,0-1.4,0C910.4,539.2,910.9,539.2,911.4,539.2z"/>
		<path class="st0" d="M933.2,538.9c-0.2,0-0.3,0-0.5,0c0.1-0.1,0.2-0.2,0.2-0.3C933,538.7,933.1,538.8,933.2,538.9z"/>
		<path class="st0" d="M935.1,539.4c-0.2-0.1-0.3-0.1-0.5-0.2C934.8,539.3,934.9,539.4,935.1,539.4z"/>
		<path class="st0" d="M935.6,539.7c0-0.1,0-0.2,0-0.2c0.1,0.1,0.2,0.2,0.3,0.2C935.7,539.7,935.6,539.7,935.6,539.7z"/>
		<path class="st22" d="M987.6,467.3c-1,0-2.1,0-3.1,0c-0.2-0.1-0.5-0.2-0.7-0.2c0-0.2,0-0.3,0-0.5c0.1,0,0.2,0,0.2,0
			c0.6-0.1,1.3-0.1,1.9-0.2c0.9,0,1.8,0,2.6,0c0,0.1,0,0.2,0,0.3c0,0.2,0,0.4,0,0.7C988.2,467.3,987.9,467.3,987.6,467.3z"/>
		<path class="st19" d="M983.7,466.6c0,0.2,0,0.3,0,0.5c-0.3-0.3-0.6-0.6-1-1c0.2,0.1,0.5,0.2,0.7,0.2
			C983.6,466.4,983.7,466.5,983.7,466.6z"/>
		<path class="st18" d="M937.5,466.1c-0.5,0.2-1,0.5-1.5,0.6c-1.6,0-3.2-0.1-4.8-0.1c0.5-0.1,1.1-0.2,1.6-0.2
			C934.4,466.3,935.9,466.2,937.5,466.1z"/>
		<path class="st18" d="M916.9,466.6c0,0.1,0,0.2,0,0.3c-0.7,0.1-1.4,0.1-2.2,0.2c-0.4-0.1-0.8-0.2-1.2-0.2
			C914.6,465.9,915.7,466.4,916.9,466.6z"/>
		<path class="st18" d="M922.9,466.6c-0.9-0.1-1.8-0.1-2.6-0.2C921.1,466.1,922,465.7,922.9,466.6z"/>
		<path class="st26" d="M1010.6,539.7c-0.9,1.2-2,0.7-3.1,0.5c0-0.1,0-0.2,0-0.3c0.2,0,0.5,0,0.7,0
			C1009,539.8,1009.8,539.8,1010.6,539.7z"/>
		<path class="st21" d="M992.8,538.5c0.2,0,0.4,0,0.5,0c-0.1,0.2-0.2,0.3-0.3,0.5C992.9,538.9,992.9,538.7,992.8,538.5z"/>
		<path class="st19" d="M1003.4,466.8c-0.2,0.1-0.4,0.2-0.7,0.2c-3.1,0-6.1,0-9.2,0c-0.2,0-0.4-0.1-0.7-0.2c0-0.1,0-0.2,0-0.3
			c2,0,4,0,6,0c0.2,0,0.5,0,0.7,0c0.4,0,0.8,0,1.2,0c0.7,0,1.4,0,2.2,0c0.2,0,0.3,0,0.5,0C1003.4,466.7,1003.4,466.8,1003.4,466.8z"
			/>
		<path class="st22" d="M1003.4,466.8c0-0.1,0-0.2,0-0.3c1-0.8,2.5-0.7,3.4,0.2c-0.2,0.1-0.5,0.2-0.7,0.2
			C1005.1,467,1004.3,466.9,1003.4,466.8z"/>
		<path class="st22" d="M1002.9,466.6c-0.7,0-1.4,0-2.2,0C1001.5,465.6,1002.1,465.6,1002.9,466.6z"/>
		<path class="st22" d="M992.8,466.6c0,0.1,0,0.2,0,0.3c-0.6,0-1.1,0.1-1.7,0.1C991.5,465.9,992.2,466.4,992.8,466.6z"/>
		<path class="st19" d="M988.5,467.3c0-0.2,0-0.4,0-0.7c0.4,0.1,0.8,0.3,1.2,0.4C989.3,467.1,988.9,467.2,988.5,467.3z"/>
		<path class="st22" d="M1008.6,466.8c-0.4,0-0.8,0-1.2,0C1007.8,466.1,1008.2,466.1,1008.6,466.8z"/>
		<path class="st22" d="M999.5,466.6c-0.2,0-0.5,0-0.7,0C999.1,466,999.3,466,999.5,466.6z"/>
		<path class="st22" d="M1012,465.6c0,0.2,0,0.3,0,0.5C1012,466,1012,465.8,1012,465.6z"/>
		<path class="st15" d="M985.9,466.4c-0.6,0.1-1.3,0.1-1.9,0.2C984.5,465.8,985.2,466.1,985.9,466.4z"/>
		<path class="st25" d="M911.1,541.1c-0.4-0.1-0.8-0.2-1.2-0.2C910.3,541,910.7,541.1,911.1,541.1z"/>
		<path class="st18" d="M931,541.1c-0.2,0-0.5,0-0.7,0C930.5,540.5,930.8,540.5,931,541.1z"/>
		<path class="st18" d="M929.1,541.1c-0.2-0.1-0.3-0.1-0.5-0.2C928.8,541,928.9,541,929.1,541.1z"/>
		<path class="st26" d="M1005.8,540.4c-0.3,0-0.6,0-1,0C1005.1,540.4,1005.4,540.4,1005.8,540.4z"/>
	</g>
</g>
</svg>
