<?xml version="1.0" encoding="utf-8"?>
<!-- Generator: Adobe Illustrator 24.0.0, SVG Export Plug-In . SVG Version: 6.00 Build 0)  -->
<svg version="1.1" id="Layer_1" xmlns="http://www.w3.org/2000/svg" xmlns:xlink="http://www.w3.org/1999/xlink" x="0px" y="0px"
	 viewBox="0 0 1920 1080" style="enable-background:new 0 0 1920 1080;" xml:space="preserve">
<style type="text/css">
	.st0{fill:#00B3B6;}
	.st1{fill:#FDFEFE;}
	.st2{fill:#00B1B1;}
	.st3{fill:#00B3B4;}
	.st4{fill:#00B0AF;}
	.st5{fill:#00B9C3;}
	.st6{fill:#00BFCE;}
	.st7{fill:#00BBC8;}
	.st8{fill:#00AEAD;}
	.st9{fill:#00B3BC;}
	.st10{fill:#00B7C1;}
	.st11{fill:#00A9A4;}
	.st12{fill:#00B8C5;}
	.st13{fill:#009A90;}
	.st14{fill:#00B2B3;}
	.st15{fill:#00ADAB;}
	.st16{fill:#00B1B0;}
	.st17{fill:#00ACA8;}
	.st18{fill:#00A198;}
	.st19{fill:#12C8D3;}
	.st20{fill:#03C4CF;}
	.st21{fill:#00A49C;}
	.st22{fill:#00B3B7;}
	.st23{fill:#00AEB8;}
	.st24{fill:#2ECCD3;}
	.st25{fill:#29CCD2;}
	.st26{fill:#00B1AF;}
	.st27{fill:#00AFB8;}
</style>
<g>
	<g>
		<path class="st0" d="M1019.4,455c0,47.8,0,95.7,0,143.5c-0.1,0.1-0.3,0.3-0.3,0.4c-1,2-2.5,3.5-4.7,4.1c-0.8,0.2-1.7,0.3-2.6,0.3
			c-45.1,0-90.2,0-135.2,0c-0.8,0-1.7,0-2.5-0.2c-2.8-0.6-5.5-3.6-5.5-7.5c0.1-46,0-91.9,0-137.9c0-0.5,0-1,0-1.4
			c0-0.3,0.1-0.7,0.2-1c0.8-2.8,2.8-4.3,5.3-5.3c46.6,0,93.1,0,139.7,0C1016.4,450.8,1018.4,452.4,1019.4,455z M973.8,521.6
			c-0.2,0-0.3,0-0.5,0c-1.5,0.1-3,0.2-4.6,0.2c-0.4,0-0.8,0-1.2,0c-0.2,0-0.5,0-0.7,0c-0.2,0-0.3,0-0.5,0c-0.6-0.4-1.2-0.8-1.8-1.2
			c-3.6-2.8-6.3-6.2-8.5-10.2c-0.6-1-0.4-1.7,0.4-2.5c1.3-1.5,2.5-3,3.4-4.6c1-1.9,1.6-3.9,2.5-5.9c1.1-2.5,2.1-5.1,3.6-7.4
			c2-3,4.7-5.3,7.5-7.4c2-1.5,3.5-1.3,5,0.6c0.5,0.6,1.2,1.2,1.9,1.6c0.4,0.3,1.1,0.2,1.6,0.2c0.1-0.7,0.3-1.5,0.1-2.1
			c-0.2-0.7-0.8-1.2-1.3-1.8c-0.9-1.2-0.7-2.6,0.7-3.2c2.9-1.3,5.7-2.2,9-1.5c2.1,0.5,4.3,0.7,6.5,0.8c5.1,0.3,7.6-6,6.1-9.5
			c-0.6-1.4-1.2-2.7-1.9-4c-0.2-0.4-0.5-0.7-0.8-1c-1.7-1.4-3.3-2.7-5.2-3.8c-4.3-2.5-8.9-3.1-13.7-2.6c-4.3,0.4-8.4,2-12.4,3.6
			c-4.2,1.7-8,3.9-11,7.3c-1.6,1.8-3.1,3.7-4.5,5.7c-2.9,4.1-4.9,8.6-5.5,13.5c-0.4,3.7-0.4,7.4-0.4,11.1c0,1.4,0.1,2.9,1,4.2
			c0.4,0.6,0.4,1.4,0.7,2.4c-1.1-0.2-1.9-0.3-2.6-0.5c-0.1-0.5-0.2-1-0.2-1.4c0-0.2,0-0.3,0-0.5c0.2-0.4,0.5-0.7,0.5-1.1
			c0.1-7.7,0.2-15.4,0.2-23c0-0.4-0.3-0.8-0.5-1.2c0-0.2,0-0.5,0-0.7c0.1-0.1,0.3-0.2,0.3-0.3c0-1.4,0.6-2.5,1.5-3.6
			c0.1-0.1,0.1-0.3,0.1-0.5h0c0.2-0.2,0.5-0.3,0.7-0.5c0.4-0.4,0.8-0.8,1.2-1.2c0.4-0.3,0.8-0.6,1.2-1c0.1-0.1,0.2-0.2,0.2-0.2
			c0.3-0.2,0.6-0.5,1-0.7c0,0,0,0,0,0c1-0.6,2.1-1.2,3-1.9c2.2-1.8,4.3-3.7,6.4-5.5c0,0,0,0,0,0c0.3-0.2,0.6-0.5,1-0.7
			c0.1-0.1,0.2-0.2,0.2-0.2c0.6-0.5,1.1-1,1.7-1.4c0.1-0.1,0.2-0.2,0.2-0.2c1-0.8,1.9-1.6,2.9-2.4c0-0.1,0-0.2,0-0.2
			c1.9-0.1,3.7-0.2,5.6-0.2c3.3,0,6.5,0,9.8,0c1,0,2.1,0,3.1,0c2.9,0,5.8,0,8.6,0c1.8,1.4,3.7,2.8,5.4,4.3c3,2.7,5.8,5.5,8.7,8.4
			c1.3,1.3,3,1.6,4.7,2.2c1.3,0.5,1.8,0.2,2.3-1.1c0.5-1.1,0.2-1.9-0.8-2.5c-0.5-0.3-1-0.8-1.5-1.2c-4.8-4.1-9.6-8.2-14.5-12.3
			c-0.5-0.4-1.3-0.4-2-0.5c-0.6-0.1-1.3-0.1-1.9-0.2c-9.6,0-19.1,0-28.7,0c-0.4,0-0.9,0.1-1.3,0.2c-0.2,0-0.3,0-0.5,0
			c-0.2,0-0.5,0-0.7,0c-0.6,0.3-1.4,0.5-1.9,0.9c-2.7,2.1-5.4,4.3-8.2,6.4c-3,2.4-6.1,4.7-9.2,7c-0.7,0.5-1.4,0.6-2.1,0.1
			c-0.8-0.6-1.5-1.2-2.2-1.8c-5-3.7-10-7.5-15.1-11.1c-0.9-0.7-2.1-1-3.2-1.5c-0.5-0.1-1-0.2-1.5-0.2c-10,0-19.9,0-29.9,0
			c-0.5,0-1,0.1-1.5,0.2c-0.5,0.2-1,0.4-1.5,0.7c-0.8,0.6-1.4,1.3-2.2,1.8c-4.9,3.9-10.2,7.4-14.7,11.9c-0.4,0.4-0.6,1.1-0.8,1.6
			c-0.1,2.3-0.2,4.7-0.2,7c0,4.4,0,8.8,0,13.1c0,4.7,0,9.3,0,14c0,0.7,0.1,1.4,0.3,2c0.1,0.3,0.4,0.5,0.7,0.8
			c-0.1,0.2-0.2,0.5-0.2,0.7c0,0.2,0,0.3,0,0.5c-0.2,0.6-0.3,1.1-0.5,1.7c0,0.3,0,0.6,0,1c0.1,0.6,0.1,1.3,0.4,1.7
			c2.2,2.3,4.5,4.7,6.8,6.8c2.3,2.1,4.7,4.1,7.1,6.2c1.4,1.2,2.9,2.5,4.3,3.7c-1.3,0.5-1.8,1.7-2.7,2.7c-2.2,2.2-4.6,4.2-7,6.3
			c-2.8,2.5-5.6,5-8.3,7.5c-0.3,0.3-0.7,0.9-0.7,1.3c0,3.1,0,6.2,0,9.3c-0.1,0.6-0.2,1.2-0.2,1.7c0,1,0.2,1.9,0.2,2.9
			c0,7.1,0,14.2,0,21.3c0.1,0.2,0.2,0.3,0.2,0.5c-0.3,1.1-0.5,2.1,0.3,3.1c1.6,1.8,3.3,3.7,5,5.5c3.3,3.3,6.7,6.5,9.9,9.8
			c1.3,1.3,2.8,2.2,4.6,2.5c0.1,0,0.2,0,0.2,0c0.5,0.1,1,0.2,1.5,0.2c2.5,0,5.1-0.1,7.6-0.2c1.8,0,3.7,0,5.5,0
			c1.7,0.1,3.4,0.2,5.1,0.2c3.7,0,7.3,0,11,0c0.5,0,0.9-0.1,1.4-0.2c1-0.2,2.1,0,2.8-0.5c2.7-1.9,5.4-3.8,7.7-6.2
			c3.4-3.5,6.9-6.8,10.6-9.9c1-0.8,1.6-0.6,2.4,0.1c1.8,1.6,3.6,3.1,5.2,4.7c3.3,3.3,6.5,6.7,9.9,10c0.8,0.8,2,1.2,3,1.8
			c0.3,0.1,0.6,0.1,1,0.2c0.2,0,0.5,0,0.7,0c10.1,0,20.3,0,30.4,0c0.4,0,0.8-0.1,1.2-0.2c0.2,0,0.3,0,0.5,0c0.2,0,0.3,0,0.5,0
			c0.5-0.2,1.1-0.2,1.5-0.6c1.6-1.3,3.2-2.6,4.7-4.1c2.7-2.6,5.4-5.3,8-8c1.4-1.4,2.9-2.9,4.2-4.4c0.3-0.4,0.2-1.2,0.3-1.8
			c0-1,0-1.9,0-2.9c0-0.9,0-1.8,0-2.6c0.1-0.5,0.2-1.1,0.2-1.6c0-5.5,0-11.1,0-16.6c0-3.5,0-7.1,0-10.6c0-1.3,0-2.7,0-4
			c-0.2-0.3-0.5-0.6-0.7-1c0.1-1.2-0.3-2.2-1.2-2.9c-2.3-2-4.7-4-7.1-6c-2.7-2.2-5.4-4.3-8.1-6.5c-0.7-0.5-1.3-0.8-2.2-0.4
			c-0.5,0.2-1.1,0.3-1.6,0.3c-0.3,0-0.6-0.2-0.7-0.4c-0.1-0.1,0.1-0.5,0.2-0.7c0.1-0.4,0.3-0.8,0.4-1.2c0-0.1,0-0.2,0-0.2
			c0.9,0.3,1.9,0.5,2.7-0.3c3-2.8,6-5.7,9-8.6c2-1.9,3.8-4.1,5.8-5.9c2.2-2,3.8-4.1,3.6-7.4c-0.3-3.5-0.2-6.9-0.3-10.4
			c0-1.2,0-2.4,0-3.6c0-2.7,0.1-5.4,0.1-8.1c0-3.2,0.1-6.3,0.1-9.5c0-0.2,0-0.6-0.2-0.7c-0.4-0.2-0.9-0.6-1.2-0.5
			c-0.9,0.3-1.7,0.8-1.7,1.9c0,2.8-0.2,5.6,0.2,8.3c0.5,3.1,1.6,6.1,1.2,9.3c-0.4,3.4-0.9,6.7-1.3,10.1c-0.2,2.3-1.5,3.9-3.3,5.1
			c-0.3,0.2-0.6,0.4-0.8,0.7c-3.8,3.3-7.6,6.6-11.3,9.9c-1.2,1-2.2,2.2-3.3,3.4c-0.8,0.8-1.6,1.6-2.4,2.4c-0.2,0.2-0.5,0.3-0.7,0.5
			c-0.1,0-0.2,0-0.2,0c-1.1,0-2.2,0-3.4,0c-0.3-0.6-0.6-0.6-1,0c-0.2,0-0.3,0-0.5,0c-0.3-0.6-0.6-0.6-1,0c-0.2,0-0.3,0-0.5,0
			c-0.9-0.7-1.8-0.7-2.6,0c-2.5,0-5,0-7.4,0C975.6,521.8,974.7,521.7,973.8,521.6z"/>
		<path class="st1" d="M874.2,450c-2.5,1-4.5,2.5-5.3,5.3c-0.1,0.3-0.2,0.7-0.2,1c0,0.5,0,1,0,1.4c0,46,0,91.9,0,137.9
			c0,3.9,2.7,6.9,5.5,7.5c0.8,0.2,1.6,0.2,2.5,0.2c45.1,0,90.2,0,135.2,0c0.9,0,1.7-0.1,2.6-0.3c2.2-0.6,3.7-2,4.7-4.1
			c0.1-0.2,0.2-0.3,0.3-0.4c0,1.7,0,3.4,0,5c-50.3,0-100.6,0-151,0c0-51.2,0-102.4,0-153.6C870.3,450,872.2,450,874.2,450z"/>
		<path class="st1" d="M1019.4,455c-1-2.6-3-4.1-5.5-5c1.8,0,3.7,0,5.5,0C1019.4,451.6,1019.4,453.3,1019.4,455z"/>
		<path class="st2" d="M946.8,503.4c0.8,0.1,1.5,0.3,2.6,0.5c-0.2-0.9-0.2-1.8-0.7-2.4c-0.9-1.3-1-2.8-1-4.2c0-3.7,0-7.4,0.4-11.1
			c0.6-4.9,2.6-9.4,5.5-13.5c1.4-2,2.9-3.9,4.5-5.7c3-3.4,6.8-5.6,11-7.3c4-1.6,8-3.2,12.4-3.6c4.8-0.5,9.4,0.1,13.7,2.6
			c1.9,1.1,3.6,2.4,5.2,3.8c0.3,0.3,0.6,0.6,0.8,1c0.7,1.3,1.3,2.6,1.9,4c1.5,3.5-0.9,9.8-6.1,9.5c-2.2-0.1-4.4-0.3-6.5-0.8
			c-3.3-0.7-6.1,0.2-9,1.5c-1.4,0.6-1.7,2-0.7,3.2c0.5,0.6,1.1,1.2,1.3,1.8c0.2,0.6-0.1,1.4-0.1,2.1c-0.6-0.1-1.2,0-1.6-0.2
			c-0.7-0.4-1.4-1-1.9-1.6c-1.6-1.9-3.1-2.1-5-0.6c-2.8,2.2-5.6,4.5-7.5,7.4c-1.5,2.3-2.4,4.9-3.6,7.4c-0.9,1.9-1.5,4-2.5,5.9
			c-0.9,1.7-2.2,3.2-3.4,4.6c-0.7,0.9-0.9,1.5-0.4,2.5c2.2,4,4.9,7.4,8.5,10.2c0.6,0.4,1.2,0.8,1.8,1.2c-0.2,0-0.3,0-0.5,0
			c-2.1,0.3-3.6-1-4.8-2.4c-1.9-2.3-3.9-4.7-5.4-7.3c-2.2-3.5-5-6.1-8.6-8.1c-0.2-0.1-0.4-0.5-0.6-0.7
			C946.6,503.4,946.7,503.4,946.8,503.4z"/>
		<path class="st3" d="M871,505.6c0.1-0.2,0.2-0.5,0.2-0.7c0.5-0.6,1-1.1,1.4-1.7c0.4,0.1,1.1,0.4,1.2,0.3c0.3-0.5,0.7-1.1,0.7-1.7
			c0.1-7.2,0.2-14.3,0.3-21.5c0-2,0.3-4,0.5-6c0.3-2.6,1.6-4.7,3.4-6.4c2.9-2.9,5.9-5.8,9.1-8.4c2.1-1.8,4.1-3.9,7.2-3.8
			c0.3,0,0.6-0.3,0.8-0.4c0.4,0,0.8,0,1.2,0c1.5,0.3,2.9,0.7,4.3-0.2c0.2,0,0.5,0,0.7,0c0.4,0.2,0.8,0.5,1.2,0.5
			c1.8,0,3.6-0.1,5.4-0.2c0.7,0,1.5,0,2.2,0c0.2,0,0.5,0,0.7,0c0.3,0.1,0.5,0.2,0.8,0.2c1.8,0.1,3.7,0.1,5.5,0.3
			c1.2,0.1,2.5,0,3.6,1c1,1.1,2.2,2,3.4,2.9c1.6,1.3,3.4,2.3,4.9,3.8c1.1,1.2,1.9,2.8,2.7,4.2c0.1,0.2,0.1,0.6,0.1,0.9
			c0,1.1,0,2.2,0.1,3.3c0.1,1.3,0,2.5-0.6,3.7c-0.9,1.8-2.6,2.7-4.1,3.9c-3,2.3-6.2,2.9-9.9,1.8c-2.2-0.7-4.7-0.9-7.1-0.9
			c-2.8,0-5.4,1.1-7.9,2.6c-3,1.8-5.5,4.1-7,7.3c-1.2,2.8-1.3,5.7-1.5,8.7c-0.1,2.2-0.2,4.6-1.1,6.5c-1.3,3-4,4.9-7.2,5.9
			c-1.2,0.4-2.6,0.4-4,0.6c0.1,0.2,0.2,0.5,0.5,0.8c0.6,0.8,1.3,1.5,1.9,2.2c1.9,2.2,3.8,4.3,5.6,6.6c1,1.2,2.1,1.4,3.5,1.3
			c1.1-0.1,2.2-0.1,3.3-0.2c1.1,0,2.2,0,3.4,0c1.6,0,3.2,0,4.8,0c0.4,0,0.8,0.3,1.2,0.5c-1.6,0.2-3.2,0.3-4.8,0.5
			c-0.2,0-0.5,0-0.7,0c-0.1-0.1-0.3-0.3-0.4-0.4c-1.7-0.1-3.4-0.1-5.1-0.1c-0.3,0-0.7,0.3-1,0.5c-0.4-0.1-0.8-0.2-1.2-0.2
			c-0.2,0.1-0.3,0.2-0.5,0.2c-0.2,0-0.3,0-0.5,0c-1.2,0.1-2.2-0.1-2.9-1.2c-0.9-1.3-1.8-2.6-2.8-3.9c-1.3-1.6-2.5-3.3-4-4.8
			c-2.6-2.7-5.3-5.1-7.9-7.8C873,504.2,872.9,504.1,871,505.6z M909.4,458.6c0-0.1,0-0.2,0-0.4c-3.5,0.5-7.1,0.9-10.6,1.7
			c-4.7,1.1-8.9,3.4-12.3,6.9c-2.4,2.5-4.4,5.4-5.8,8.7c-0.6,1.5-1.2,3-1.9,4.5c-1.7,3.6-3,7.2-3.3,11.2c-0.1,1.3-0.4,2.8,0,4
			c1,2.6,1.6,5.5,4,7.3c0.2,0.1,0.3,0.4,0.4,0.6c0.6,1.4,1.3,2.7,3.2,2.4c0.1,0,0.2,0.1,0.3,0.1c2.6,1.1,4.4,0.2,5.1-2.5
			c0.1-0.6,0.5-1.1,0.7-1.7c0.4-1,1-1.9,1.2-2.9c0.3-2,0.2-4,0.7-5.9c0.8-3,2-6,3.1-8.9c0.4-1,0.9-2.1,1.6-2.7
			c2.8-2.4,5.9-4.3,9.3-5.5c1.9-0.6,3.8-1.4,5.8-0.8c2.3,0.6,4.6,1.4,6.9,2c3.7,1,7,0.5,9.8-2.4c0.8-0.8,1-1.6,0.7-2.6
			c-0.3-1.2-0.5-2.4-0.8-3.6c-0.1-0.3-0.2-0.6-0.4-0.9c-0.9-1.3-1.7-2.6-2.7-3.8c-0.7-0.8-1.6-1.5-2.5-1.8c-1.6-0.6-3.3-0.9-4.9-1.5
			C914.7,459.1,912.1,458.4,909.4,458.6z"/>
		<path class="st4" d="M964.7,601.4c-1-0.6-2.2-1-3-1.8c-3.4-3.3-6.6-6.7-9.9-10c-1.7-1.7-3.5-3.2-5.2-4.7c-0.8-0.7-1.4-0.8-2.4-0.1
			c-3.8,3-7.2,6.4-10.6,9.9c-2.3,2.3-5,4.2-7.7,6.2c-0.7,0.5-1.9,0.4-2.8,0.5c0-0.1,0-0.2,0-0.2c0.4-0.3,0.8-0.5,1.2-0.8
			c1.8-1.5,3.6-3.2,5.5-4.6c4.9-3.7,9.6-7.6,13.5-12.4c1-1.2,1.3-2.7,0.7-4c-0.8-0.9-1.6-0.9-2.4,0c-0.2,0.2-0.5,0.3-0.7,0.5
			c0.2-1.9,0.6-3.8,0.6-5.7c0-2.6-0.4-5.2-0.4-7.9c0-5.1,0.1-10.3,0.2-15.4c0-0.7,0.6-1.4,0.9-2c0.3,0.6,0.9,1.2,1,1.9
			c0.3,3.1,0.6,6.3,0.7,9.4c0.2,5.7,0.2,11.3,0.3,17c0,1,0,2,1.2,2.5c1,0.2,2.1,0.2,2.9,0.8c1.3,0.8,2.5,1.8,3.4,2.9
			c2.9,3.5,6,6.9,9.5,9.9c2,1.7,4.1,3.3,6.2,4.9c-0.8,0.1-1.6,0.2-2.5,0.3c-1.5,0.3-1.6,0.7-0.7,1.9
			C964.4,600.6,964.6,601,964.7,601.4z"/>
		<path class="st5" d="M922.6,451.9c1.1,0.5,2.3,0.8,3.2,1.5c5.1,3.7,10.1,7.4,15.1,11.1c0.8,0.6,1.5,1.2,2.2,1.8
			c0.7,0.5,1.4,0.5,2.1-0.1c3.1-2.3,6.1-4.7,9.2-7c2.7-2.1,5.4-4.3,8.2-6.4c0.6-0.4,1.3-0.6,1.9-0.9c-0.2,0.3-0.4,0.7-0.6,1
			c-2.6,2.3-5.3,4.5-8,6.8c-2.5,2.1-5.2,4.1-7.7,6.1c-0.9,0.7-1.7,1.6-2.7,2c-1,0.4-1.6,1.1-2,2c-0.3,0.6-0.5,1.2-0.8,1.7
			c-0.1,0-0.2,0-0.2,0c0-1.1-0.8-1.5-1.6-2c-2.8-1.8-5.6-3.5-8.2-5.5c-2.7-2-4.9-4.6-8.2-5.9c-0.5-0.2-0.8-0.7-1.2-1.1
			c-0.8-0.7-1.6-1.5-2.4-2.2c0.5-0.2,1-0.5,1.4-0.7c0.2-0.3,0.3-0.6,0.5-0.9c-0.1-0.2-0.2-0.5-0.2-0.7c-0.1,0-0.1,0-0.2,0
			c0-0.1,0-0.3,0-0.4C922.4,451.9,922.5,451.9,922.6,451.9z"/>
		<path class="st2" d="M996.1,519c1.1-1.1,2.1-2.3,3.3-3.4c3.7-3.3,7.5-6.6,11.3-9.9c0.3-0.2,0.5-0.5,0.8-0.7
			c1.9-1.2,3.1-2.8,3.3-5.1c0.4-3.4,0.9-6.7,1.3-10.1c0.4-3.2-0.7-6.2-1.2-9.3c-0.5-2.7-0.2-5.5-0.2-8.3c0-1.1,0.9-1.6,1.7-1.9
			c0.3-0.1,0.8,0.3,1.2,0.5c0.1,0.1,0.2,0.4,0.2,0.7c0,3.2-0.1,6.3-0.1,9.5c0,2.7-0.1,5.4-0.1,8.1c0,1.2,0,2.4,0,3.6
			c0.1,3.5,0,6.9,0.3,10.4c0.3,3.3-1.3,5.4-3.6,7.4c-2.1,1.9-3.9,4-5.8,5.9c-3,2.9-6,5.8-9,8.6c-0.8,0.8-1.8,0.5-2.7,0.3
			c0.2-0.2,0.3-0.3,0.5-0.5c0.2,0,0.3,0,0.5,0c0.4-0.1,0.9,0,1.3-0.3c0.7-0.5,1.4-1.1,2-1.7c3.3-3.3,6.5-6.7,9.8-10
			c0.8-0.8,1.5-1.6,2.3-2.4c1.2-1.2,2.4-2.4,3.6-3.7c0.7-0.7,0.8-2.8,0.3-3.4c-0.5-0.6-1.7-0.4-2.9,0.4c-0.2,0.1-0.3,0.2-0.5,0.4
			c-4.5,4-9,7.9-13.6,11.9C998.8,517,997.4,517.9,996.1,519z"/>
		<path class="st6" d="M942.7,471.5c0.3-0.6,0.5-1.2,0.8-1.7c0.4-0.9,1-1.6,2-2c1-0.4,1.8-1.3,2.7-2c2.6-2,5.2-4,7.7-6.1
			c2.7-2.2,5.3-4.5,8-6.8c0.3-0.2,0.4-0.6,0.6-1c0.2,0,0.5,0,0.7,0c0.3,1.1,0,2.7,1.9,2.6c0,0.1,0,0.1,0,0.2
			c-2.1,1.7-4.2,3.4-6.3,5.1c-4.8,3.8-9.7,7.6-14.5,11.4c-0.2,0.1-0.3,0.3-0.4,0.4c-0.2,1.1-0.6,2.1-0.6,3.2
			c-0.2,2.6-0.1,5.2-0.3,7.8c-0.1,1-0.3,2-0.5,3.1c-0.6-0.2-0.8-0.4-1.1-0.5c0-0.7,0-1.4,0-2.2c0-0.2,0-0.3,0-0.5c0-0.2,0-0.3,0-0.5
			c0.7-0.7,0.7-1.4,0-2.2c0-0.7,0-1.4,0-2.2c0.6-0.3,0.6-0.6,0-1c0-1,0-1.9,0-2.9c-0.1-0.2-0.2-0.3-0.2-0.5
			c-0.2-0.4-0.3-0.8-0.5-1.2C942.7,472,942.7,471.8,942.7,471.5z"/>
		<path class="st7" d="M870.6,554.2c0-3.1,0-6.2,0-9.3c0-0.4,0.3-1,0.7-1.3c2.7-2.5,5.5-5,8.3-7.5c2.3-2.1,4.8-4.1,7-6.3
			c0.9-0.9,1.4-2.1,2.7-2.7c0.4-0.2,0.8-0.5,1.2-0.7c0.2-0.1,0.3-0.2,0.5-0.2c0.6-0.1,1.1-0.2,1.7-0.3c6,0,12,0,18,0
			c-0.5,0.2-1,0.4-1.5,0.4c-5.2,0-10.4,0-15.6,0c-0.5,0-1.1,0.1-1.6,0.2c-0.2,0-0.3,0-0.5,0c-1.3,0.6-1.5,1.3-0.4,2.1
			c0.8,0.6,1.8,0.7,2.8,1c0,0.2,0,0.5,0,0.7c-0.5,0-1,0-1.4,0c-0.1,0-0.2,0-0.2,0c-0.5-0.8-1.2-1-2.3-0.7c1.2,1.5,0,2.2-0.9,3
			c-4,3.5-8.6,6.4-12.4,10.3c-2.4,2.4-4.4,4.8-4.9,8.3C871.6,552.3,871.7,553.6,870.6,554.2z"/>
		<path class="st8" d="M890.9,526.2c-0.2,0.1-0.3,0.2-0.5,0.2c-2.1-0.6-3.4-2.4-4.9-3.8c-0.1-0.1-0.3-0.2-0.5-0.4
			c-2.5-2.3-4.9-4.5-7.4-6.8c-2.4-2.2-4.8-4.5-7.2-6.8c0-0.3,0-0.6,0-1c0.2-0.6,0.3-1.1,0.5-1.7c0-0.2,0-0.3,0-0.5
			c1.8-1.4,1.9-1.4,3.7,0.4c2.6,2.6,5.3,5.1,7.9,7.8c1.4,1.5,2.7,3.1,4,4.8c1,1.3,1.9,2.6,2.8,3.9c0.7,1,1.8,1.3,2.9,1.2
			c-0.2,0.2-0.4,0.4-0.6,0.5C890.7,524.5,890.6,525.2,890.9,526.2z"/>
		<path class="st9" d="M996.8,525.4c-0.1,0.4-0.3,0.8-0.4,1.2c-0.1,0.3-0.3,0.6-0.2,0.7c0.1,0.2,0.5,0.4,0.7,0.4
			c0.5,0,1.1-0.1,1.6-0.3c0.9-0.4,1.5-0.2,2.2,0.4c2.7,2.2,5.4,4.3,8.1,6.5c2.4,2,4.8,3.9,7.1,6c0.8,0.7,1.3,1.7,1.2,2.9
			c-0.8,0.2-1.6,0.3-2.4,0.5c-0.7-0.2-1.6-0.2-2.1-0.6c-0.9-0.6-1.7-1.6-2.6-2.3c-4.1-3.3-8.3-6.5-12.4-9.8c-1.3-1-2.5-1.2-4-0.7
			c-0.8,0-1.6,0-2.4,0c0-0.2,0-0.3,0-0.5c2.6-0.1,3-0.5,3.4-2.9c0-0.2,0.1-0.5,0.2-0.7c0.2-0.2,0.3-0.3,0.5-0.5
			C995.9,525.6,996.4,525.5,996.8,525.4z"/>
		<path class="st10" d="M997.6,451.9c0.7,0.2,1.5,0.1,2,0.5c4.9,4.1,9.7,8.2,14.5,12.3c0.5,0.4,1,0.8,1.5,1.2c1,0.6,1.2,1.4,0.8,2.5
			c-0.5,1.3-1,1.5-2.3,1.1c-1.6-0.6-3.3-0.9-4.7-2.2c-2.8-2.9-5.7-5.7-8.7-8.4c-1.7-1.6-3.6-2.9-5.4-4.3
			C996.5,453.9,997.9,453.6,997.6,451.9z"/>
		<path class="st6" d="M870.3,488.1c0-4.4,0-8.8,0-13.1c0-2.3,0.1-4.7,0.2-7c1.8-1.3,3.7-2.5,5.4-3.9c4.6-3.7,9.2-7.5,13.8-11.2
			c0.5,0.6,1,1.1,1.4,1.7c-0.6,0.9-1.3,1.8-1.9,2.6c0,0,0,0,0,0c-1.4,0.3-2.3,1.2-2.9,2.4l0,0c-2.6,2.2-5.3,4.3-7.9,6.5
			c-0.5,0.4-1.1,0.8-1.6,1.2c-3.1,2.2-4.6,5.2-4.7,9.1c-0.1,3.5-0.6,7-1,10.5C871.2,487.3,870.6,487.7,870.3,488.1z"/>
		<path class="st11" d="M1017.7,579.6c0,1,0,1.9,0,2.9c-1.9,1.8-3.7,3.7-5.6,5.5c-1.5,1.4-3,2.8-4.5,4.3c-2.7,2.7-5.4,5.5-8,8.3
			c-0.2,0.2-0.4,0.6-0.6,0.9c-0.2,0-0.3,0-0.5,0c0.7-1.1,1.5-2.2,2.2-3.3c0.4-0.6,0.9-1.1,1.3-1.6c-1.9,0.4-3.6,0.7-5.4,1.1
			c0-0.1,0-0.2,0-0.2c0.2-0.2,0.3-0.5,0.5-0.7c0.2-0.1,0.3-0.2,0.5-0.2c0.4-0.2,0.8-0.3,1.2-0.5c2.1-1.7,4.3-3.4,6.1-5.3
			c3.2-3.2,6.3-6.5,9.2-10C1015.2,579.3,1016.2,579,1017.7,579.6z"/>
		<path class="st12" d="M943.4,485.2c0.3,0.1,0.6,0.3,1.1,0.5c0.2-1.1,0.5-2.1,0.5-3.1c0.1-2.6,0.1-5.2,0.3-7.8
			c0.1-1.1,0.4-2.2,0.6-3.2c0-0.2,0.2-0.3,0.4-0.4c4.8-3.8,9.7-7.6,14.5-11.4c2.1-1.7,4.2-3.4,6.3-5.1c0.2,0,0.5,0,0.7,0
			c0,0.1,0,0.2,0,0.2c-0.8,0.8-1.6,1.6-2.4,2.4c-0.1,0.1-0.2,0.2-0.2,0.2c-0.6,0.5-1.1,1-1.7,1.4c-0.1,0.1-0.2,0.2-0.2,0.2
			c-0.3,0.2-0.6,0.5-1,0.7c0,0,0,0,0,0c-0.5,0.3-1,0.5-1.4,0.8c-1.9,1.5-3.8,3-5.7,4.5c-0.8,0.6-1.5,1.4-2.2,2.1c0,0,0,0,0,0
			c-0.3,0.2-0.6,0.5-1,0.7c-0.1,0.1-0.2,0.2-0.2,0.2c-0.4,0.3-0.8,0.6-1.2,1c-0.4,0.4-0.8,0.8-1.2,1.2c-0.2,0.2-0.5,0.3-0.7,0.5
			c0,0,0,0,0,0c-1.4,1.1-2.7,2.3-1.9,4.3c0,0.2,0,0.5,0,0.7c-0.3,3.3-0.6,6.7-0.8,10c-0.1,2.2-0.2,4.4-0.2,6.7
			c0,1.6,0.1,3.3,0.2,4.9c0.1,1.3,0.3,2.6,0.5,3.8c0,0.2,0,0.3,0,0.5c-0.3,0.5-0.6,1-1,1.4c-0.6,0-1.1,0-1.7,0
			c-0.1-0.2-0.2-0.3-0.2-0.5c-0.1-0.2-0.2-0.5-0.2-0.7c0.1-4.2,0.2-8.4,0.2-12.7c0-0.3-0.3-0.7-0.4-1c0-0.2,0-0.5,0-0.7
			c0.1-0.3,0.2-0.6,0.2-1C943.4,486.3,943.4,485.7,943.4,485.2z"/>
		<path class="st13" d="M998,601.4c-0.4,0.1-0.8,0.2-1.2,0.2c-10.1,0-20.3,0-30.4,0c0.2-1.2,1.1-1.6,2.1-1.9
			c0.4-0.1,0.8-0.3,1.2-0.5c0.2,0,0.3,0,0.5,0c0.5,0.1,1,0.2,1.5,0.2c3.8,0,7.6,0,11.4,0c1.6,0,3.2-0.3,4.8-0.4c0.2,0,0.5,0,0.7,0
			c0.2-0.1,0.5-0.1,0.7-0.2c0.5,0,1,0,1.4,0c0.4,0.6,0.8,0.6,1.2,0c0.4,0,0.8,0,1.2,0c0.7,0.1,1.3,0.2,2,0.2
			C997.4,598.8,997.9,599.2,998,601.4z"/>
		<path class="st14" d="M1014.8,543.7c0.8-0.2,1.6-0.3,2.4-0.5c0.2,0.3,0.5,0.6,0.7,1c-0.3-0.1-0.5-0.2-0.8-0.2
			c-1.4-0.1-2.6,0.9-2.5,2.1c0.2,1.6,0.5,3.2,0.7,4.8c0.3,2.1,0.6,4.3,0.9,6.4c0.1,0.9,0.4,1.9,0.6,3.1c0.5-0.7,0.8-1.1,1-1.5
			c0,5.5,0,11.1,0,16.6c0,0.5-0.1,1.1-0.2,1.6c-0.2,0-0.6,0-0.7,0.1c-1.4,1.2-2.7,2.5-4.1,3.7c0.2-0.4,0.3-0.9,0.7-1.2
			c1.1-0.9,1.4-2.1,1.5-3.4c0.1-2.8,0.2-5.6,0.2-8.4c0-3.1-0.1-6.3-0.2-9.4c-0.1-2.6-0.5-5.1-0.6-7.7
			C1014.3,548.3,1013.2,545.9,1014.8,543.7z"/>
		<path class="st7" d="M870.3,488.1c0.3-0.4,0.8-0.8,0.9-1.2c0.4-3.5,0.9-7,1-10.5c0.1-3.9,1.5-6.9,4.7-9.1c0.5-0.4,1.1-0.8,1.6-1.2
			c0,0.1,0,0.2,0,0.2c-0.2,0.3-0.5,0.6-0.7,1c-0.2,0.2-0.5,0.3-0.7,0.5c-1.1,1-2.4,1.9-2.6,3.6c-1.1,2.6-1.3,5.4-1.4,8.2
			c-0.1,4.3-0.1,8.6,0,12.9c0,1.6,0.1,3.2,0.3,4.8c0.2,2,0.3,3.9-0.3,5.8c-0.1,0.1-0.2,0.2-0.2,0.2c-0.5,0.6-1,1.1-1.4,1.7
			c-0.2-0.3-0.6-0.5-0.7-0.8c-0.2-0.6-0.2-1.3-0.3-2C870.3,497.4,870.3,492.7,870.3,488.1z"/>
		<path class="st5" d="M870.6,554.2c1.2-0.6,1-1.9,1.1-2.8c0.5-3.5,2.5-5.9,4.9-8.3c3.8-3.9,8.3-6.8,12.4-10.3
			c0.9-0.8,2.1-1.5,0.9-3c1.1-0.3,1.8-0.1,2.3,0.7c-0.4,0.5-0.8,1-1.2,1.4c-0.8,0.8-1.6,1.6-2.4,2.4c-0.4,0.3-0.8,0.6-1.2,1
			c0,0,0,0,0,0c-0.3,0.2-0.6,0.3-0.9,0.6c-1.6,1.4-3.2,2.8-4.8,4.1c-2.5,2.1-5.4,3.9-7.2,6.7c-0.8,1.3-1.7,2.8-1.9,4.3
			c-0.4,3-0.2,6.1-0.3,9.2c-0.1,1.7-0.2,3.3-0.3,5c-0.1,2.7-0.1,5.3-0.1,8c0,2,0,4,0,6c-0.2,0.3-0.5,0.6-0.7,1c-0.2,0-0.3,0-0.5,0
			c0-7.1,0-14.2,0-21.3c0-1-0.2-1.9-0.2-2.9C870.4,555.4,870.5,554.8,870.6,554.2z"/>
		<path class="st15" d="M996.1,519c1.3-1,2.7-2,3.9-3.1c4.5-3.9,9-7.9,13.6-11.9c0.1-0.1,0.3-0.3,0.5-0.4c1.1-0.8,2.4-1,2.9-0.4
			c0.5,0.6,0.4,2.7-0.3,3.4c-1.2,1.3-2.4,2.4-3.6,3.7c-0.8,0.8-1.5,1.6-2.3,2.4c-3.2,3.3-6.5,6.7-9.8,10c-0.6,0.6-1.3,1.2-2,1.7
			c-0.3,0.2-0.8,0.2-1.3,0.3c0.2-0.4,0.4-0.8,0.7-1.1c3.4-2.7,6.5-5.7,9.4-9c2-2.2,4.2-4.2,6.2-6.3c0.7-0.7,1.4-1.5,1.7-2.4
			c0.2-0.6-0.1-1.4-0.2-2.1c-0.6,0.1-1.2,0.2-1.7,0.4c-0.3,0.1-0.6,0.5-0.9,0.8c-2.5,2.7-5,5.4-7.6,8c-2.8,2.8-5.8,5.5-9.4,7.4
			c-0.8,0.4-1.4,1-2.1,1.6c-0.2,0-0.5,0-0.7,0c0-0.1,0-0.2,0-0.2c0.1-0.2,0.2-0.3,0.2-0.5C994.5,520.6,995.3,519.8,996.1,519z"/>
		<path class="st16" d="M871,580.1c0.2-0.3,0.5-0.6,0.7-1c0.2-0.1,0.5-0.2,0.7-0.2c1.2,0,2.1,0.7,2.8,1.6c1.2,1.3,2.3,2.6,3.5,3.9
			c4.1,4.1,8.3,8.2,12.4,12.2c0.3,0.3,0.5,0.8,0.7,1.2c-0.9,0.1-1.4-0.5-2-1.1c-2.4-2.6-4.9-5.2-7.4-7.8c-2.3-2.3-4.7-4.4-7-6.7
			c-0.8-0.7-1.5-1.4-2.3-2.1c-0.2-0.2-0.7-0.2-0.9-0.1c-1.3,1.1-1.4,2.1-0.3,3.3c1.5,1.6,2.9,3.2,4.5,4.7c3,2.9,6.1,5.7,9.2,8.5
			c1.6,1.4,3.2,2.8,4.7,4.2c0.1,0.2,0.2,0.3,0.2,0.5c-1.8-0.3-3.3-1.2-4.6-2.5c-3.3-3.3-6.7-6.5-9.9-9.8c-1.7-1.7-3.3-3.6-5-5.5
			c-0.8-0.9-0.6-2-0.3-3.1C870.9,580.4,871,580.2,871,580.1z"/>
		<path class="st17" d="M990.9,598.8c-0.5,0-1,0-1.4,0c-0.2,0.1-0.5,0.1-0.7,0.2c-0.2,0-0.5,0-0.7,0c-1.8-0.1-3.5-0.3-5.3-0.3
			c-1.1,0-2.3,0.3-3.4,0.3c-2.5,0.1-5,0-7.5,0c-0.5,0-1,0.2-1.5,0.2c-0.2,0-0.3,0-0.5,0c-1,0-2-0.1-2.9,0c-0.5,0-1.1,0.2-1.6,0.2
			c0.1,0.5,0.2,1.1,0.3,1.6c0,0.2,0.2,0.4,0.2,0.5c-0.3-0.1-0.6-0.1-1-0.2c-0.2-0.4-0.3-0.8-0.6-1.1c-0.9-1.2-0.7-1.6,0.7-1.9
			c0.8-0.1,1.6-0.2,2.5-0.3c0.6-0.1,1.1-0.2,1.7-0.2c0.5,0,1,0,1.4,0c0.3,0,0.6,0,1,0c0.2,0,0.5,0,0.7,0c0.4,0,0.8,0,1.2,0
			c0.4,0,0.8,0,1.2,0c0.5,0,1,0,1.4,0c0.7,0,1.4,0,2.2,0c0.3,0,0.6,0,1,0c1.1,0,2.2,0,3.4,0c2.1,0.1,4.2,0.2,6.3,0.2
			c0.7,0,1.4-0.3,2.1-0.4c0.2,0,0.3,0,0.5,0c0.5-0.1,1-0.2,1.4-0.2c1.1,0,2.2,0,3.4,0c0.2,0,0.3,0,0.5,0c0,0.1,0,0.2,0,0.2
			c-1.1,0.4-2.2,0.8-3.4,1.2c-0.4,0-0.8,0-1.2,0C991.7,598.8,991.3,598.8,990.9,598.8z"/>
		<path class="st18" d="M923,601.2c0,0.1,0,0.2,0,0.2c-0.5,0.1-0.9,0.2-1.4,0.2c-3.7,0-7.3,0-11,0c-1.7,0-3.4-0.1-5.1-0.2
			c0.3-0.2,0.5-0.6,0.8-0.7c1.1-0.3,2.2-0.5,3.4-0.7c1.7-0.3,3.4-0.5,5.1-0.7c0.7,0,1.4,0,2.2,0c0.4,0,0.9,0.1,1.3,0
			c0.9-0.2,1.7-0.5,2.5-0.7c0.2,0,0.3,0,0.5,0C923.2,598.7,923.4,599.1,923,601.2z"/>
		<path class="st8" d="M1017.9,558.8c-0.3,0.4-0.5,0.8-1,1.5c-0.2-1.2-0.5-2.1-0.6-3.1c-0.3-2.1-0.6-4.3-0.9-6.4
			c-0.2-1.6-0.5-3.2-0.7-4.8c-0.1-1.2,1.1-2.2,2.5-2.1c0.3,0,0.5,0.1,0.8,0.2c0,1.3,0,2.7,0,4
			C1017.9,551.7,1017.9,555.2,1017.9,558.8z"/>
		<path class="st5" d="M889.7,452.8c-4.6,3.7-9.1,7.5-13.8,11.2c-1.7,1.4-3.6,2.6-5.4,3.9c0.3-0.5,0.4-1.2,0.8-1.6
			c4.5-4.5,9.7-8,14.7-11.9c0.7-0.6,1.4-1.3,2.2-1.8c0.4-0.3,1-0.4,1.5-0.7c0,0.2,0,0.3,0,0.5C889.7,452.5,889.7,452.7,889.7,452.8z
			"/>
		<path class="st14" d="M999,601.4c0.2-0.3,0.4-0.6,0.6-0.9c2.7-2.8,5.3-5.6,8-8.3c1.4-1.5,3-2.8,4.5-4.3c1.9-1.8,3.7-3.7,5.6-5.5
			c-0.1,0.6,0,1.4-0.3,1.8c-1.3,1.5-2.7,3-4.2,4.4c-2.6,2.7-5.3,5.4-8,8c-1.5,1.4-3.1,2.8-4.7,4.1
			C1000.1,601.2,999.5,601.2,999,601.4z"/>
		<path class="st19" d="M967.8,454.7c-0.2,0-0.5,0-0.7,0c0-0.1,0-0.2,0-0.2c-0.1-0.3-0.1-0.6-0.2-0.8c-0.4-0.6-0.8-1.2-1.2-1.8
			c0.4-0.1,0.9-0.2,1.3-0.2c9.6,0,19.1,0,28.7,0c0.6,1.2-0.1,2.4-1.5,2.4c-4.4-0.1-8.8-0.2-13.3-0.2c-2.4,0-4.7,0-7.1,0
			c0.3-0.1,0.7-0.4,1-0.4c2-0.1,4-0.3,6-0.3c2.3-0.1,4.7-0.1,7,0c1.9,0.1,3.9,0.3,5.8,0.5c1,0.1,1.6-0.4,1.5-1.5c-9.5,0-19,0-28.6,0
			c0.3,1.3,1.1,1.5,2.1,1.6c1.3,0.1,2.7,0.2,4,0.2c-1.4,0.2-2.9,0.3-4.3,0.5C968.2,454.4,968,454.6,967.8,454.7z"/>
		<path class="st3" d="M870.6,508.7c2.4,2.3,4.8,4.5,7.2,6.8c2.4,2.3,4.9,4.5,7.4,6.8c0.1,0.1,0.3,0.2,0.5,0.4
			c1.5,1.4,2.8,3.2,4.9,3.8c-0.4,0.2-0.8,0.5-1.2,0.7c-1.4-1.2-2.9-2.5-4.3-3.7c-2.4-2.1-4.8-4.1-7.1-6.2c-2.4-2.2-4.6-4.5-6.8-6.8
			C870.6,510,870.7,509.2,870.6,508.7z"/>
		<path class="st11" d="M914.9,599.3c-1.7,0.2-3.4,0.5-5.1,0.7c-1.1,0.2-2.3,0.4-3.4,0.7c-0.3,0.1-0.6,0.5-0.8,0.7
			c-1.8,0-3.7,0-5.5,0c-0.4-0.3-0.8-0.8-1.3-1c-2.2-0.8-4.4-1.4-6.6-2.1c0-0.1,0-0.2,0-0.2c0.2,0,0.5,0,0.7,0
			c1.1,0.2,2.2,0.5,3.4,0.6c2.7,0.3,5.4,0.7,8.1,0.8c2.4,0.1,4.7-0.3,7.1-0.4C912.6,599,913.8,599.2,914.9,599.3z"/>
		<path class="st15" d="M965.9,521.9c0.2,0,0.3,0,0.5,0c0.2,0,0.3,0,0.5,0c0.2,0,0.5,0,0.7,0c0.4,0,0.8,0,1.2,0
			c1.5,0.1,3,0.2,4.6,0.2c0.2,0,0.3,0,0.5,0c0.9-0.1,1.8-0.2,2.6-0.2c2.5,0,5,0,7.4,0c0.9,0,1.8,0,2.6,0c0.2,0,0.3,0,0.5,0
			c0.3,0,0.6,0,1,0c0.2,0,0.3,0,0.5,0c0.3,0,0.6,0,1,0c1.1,0,2.2,0,3.4,0c-0.2,0.2-0.4,0.4-0.7,0.4c-1,0.1-2,0.3-3,0.3
			c-3,0-6.1,0-9.1,0c-3.9,0-7.8,0.2-11.7,0.2c-1.9,0-2.1,0.3-2.1,2.2c-0.6,0-1.2,0-1.9,0c-0.9,0-1.6-0.1-1.9-1.2
			c0.5-0.2,0.9-0.3,1.3-0.6C964.5,522.8,965.2,522.3,965.9,521.9z"/>
		<path class="st9" d="M946.5,501.5c-0.2-1.3-0.4-2.5-0.5-3.8c-0.1-1.6-0.2-3.2-0.2-4.9c0-2.2,0-4.4,0.2-6.7c0.2-3.4,0.5-6.7,0.8-10
			c0.2,0.4,0.5,0.8,0.5,1.2c-0.1,7.7-0.1,15.4-0.2,23C947,500.7,946.7,501.1,946.5,501.5z"/>
		<path class="st17" d="M1012.9,580.8c1.3-1.2,2.7-2.5,4.1-3.7c0.2-0.1,0.5-0.1,0.7-0.1c0,0.9,0,1.8,0,2.6c-1.5-0.6-2.5-0.3-3.6,1
			c-2.9,3.4-6,6.8-9.2,10c-1.9,1.9-4.1,3.5-6.1,5.3c-0.3,0.3-0.8,0.4-1.2,0.5c0.3-0.4,0.6-0.8,1-1.2c2.5-2.4,5.1-4.9,7.6-7.3
			c0,0,0-0.1,0-0.1c0.2-0.3,0.5-0.6,0.7-1c0.2-0.2,0.5-0.5,0.7-0.7c0.5-0.5,1-1,1.4-1.4c0.6-0.6,1.1-1.1,1.7-1.7
			C1011.5,582.2,1012.2,581.5,1012.9,580.8z"/>
		<path class="st20" d="M968.3,454.3c1.4-0.2,2.9-0.3,4.3-0.5c0.4,0,0.8,0,1.2,0c2.4,0,4.7,0,7.1,0c4.4,0.1,8.8,0.2,13.3,0.2
			c1.4,0,2.1-1.2,1.5-2.4c0.6,0.1,1.3,0.1,1.9,0.2c0.3,1.7-1.1,2.1-2.2,2.7c-2.9,0-5.8,0-8.6,0c-1,0-2.1,0-3.1,0c-3.3,0-6.5,0-9.8,0
			c-1.9,0-3.7,0.1-5.6,0.2C968.3,454.6,968.3,454.5,968.3,454.3z"/>
		<path class="st18" d="M892.1,598.3c2.2,0.7,4.4,1.3,6.6,2.1c0.5,0.2,0.9,0.7,1.3,1c-2.5,0.1-5.1,0.2-7.6,0.2c-0.5,0-1-0.1-1.5-0.2
			c-0.1-0.2-0.2-0.5-0.2-0.7c0-0.2,0-0.3,0-0.5c0.1-0.3,0.2-0.6,0.2-1C891.3,598.9,891.7,598.6,892.1,598.3z"/>
		<path class="st11" d="M966.2,525c0-1.9,0.3-2.1,2.1-2.2c3.9-0.1,7.8-0.2,11.7-0.2c3,0,6.1,0,9.1,0c1,0,2-0.1,3-0.3
			c0.2,0,0.4-0.3,0.7-0.4c0.1,0,0.2,0,0.2,0c0.2,0,0.3,0,0.5,0c0,0.1,0,0.2,0,0.2c-0.8,0.3-1.6,0.9-2.4,0.9c-3.9,0.1-7.9,0-11.8,0.1
			c-3.6,0-7.2,0.1-10.8,0.2c-0.1,0-0.2,0-0.2,0c-1.2,0.1-1.5,0.4-1.3,1.7C966.7,525,966.4,525,966.2,525z"/>
		<path class="st19" d="M889.7,452.4c0-0.2,0-0.3,0-0.5c0.5-0.1,1-0.2,1.5-0.2c10,0,19.9,0,29.9,0c0.5,0,1,0.1,1.5,0.2
			c-0.1,0-0.2,0-0.3,0c-10.3,0-20.6,0-30.9,0c0,0.1,0,0.3,0,0.4c0.9,0.9,1.9,1.4,3.2,1.4c0.9,0,1.9,0.1,2.8,0.1
			c-0.5,0.2-1,0.5-1.4,0.7c-0.8,0.1-1.6,0.2-2.4,0.2c-0.4-0.1-0.8-0.1-1.2-0.2l0,0C891.5,453.8,890.6,453.1,889.7,452.4z"/>
		<path class="st21" d="M993.2,598.8c1.1-0.4,2.2-0.8,3.4-1.2c1.8-0.3,3.5-0.7,5.4-1.1c-0.4,0.5-0.9,1-1.3,1.6
			c-0.8,1.1-1.5,2.2-2.2,3.3c-0.2,0-0.3,0-0.5,0c-0.1-2.2-0.6-2.6-2.8-2.5C994.6,599,993.9,598.8,993.2,598.8z"/>
		<path class="st9" d="M953,467.5c0.7-0.7,1.4-1.5,2.2-2.1c1.9-1.5,3.8-3,5.7-4.5c0.4-0.3,0.9-0.6,1.4-0.8c-2.1,1.8-4.2,3.7-6.4,5.5
			C955.1,466.3,954,466.8,953,467.5z"/>
		<path class="st21" d="M965.7,601.6c-0.1-0.2-0.2-0.4-0.2-0.5c-0.1-0.5-0.2-1.1-0.3-1.6c0.5-0.1,1.1-0.2,1.6-0.2c1,0,2,0,2.9,0
			c-0.4,0.2-0.8,0.4-1.2,0.5c-1.1,0.2-1.9,0.6-2.1,1.9C966.2,601.6,965.9,601.6,965.7,601.6z"/>
		<path class="st9" d="M946.8,475.4c-0.8-2.1,0.5-3.2,1.9-4.3c0,0.2,0,0.4-0.1,0.5c-0.9,1-1.5,2.1-1.5,3.6
			C947.1,475.2,946.9,475.3,946.8,475.4z"/>
		<path class="st20" d="M965.7,451.9c0.4,0.6,0.8,1.2,1.2,1.8c0.1,0.2,0.2,0.5,0.2,0.8c-1.9,0-1.6-1.5-1.9-2.6
			C965.4,451.9,965.5,451.9,965.7,451.9z"/>
		<path class="st4" d="M973.4,522.1c-1.5-0.1-3-0.2-4.6-0.2c1.5-0.1,3-0.2,4.6-0.2C973.4,521.8,973.4,521.9,973.4,522.1z"/>
		<path class="st9" d="M965.5,457.4c0.8-0.8,1.6-1.6,2.4-2.4c0.2,0,0.3,0,0.5,0C967.4,455.8,966.4,456.6,965.5,457.4z"/>
		<path class="st10" d="M983.7,454.5c1,0,2.1,0,3.1,0C985.7,454.5,984.7,454.5,983.7,454.5z"/>
		<path class="st2" d="M986.5,521.8c-0.9,0-1.8,0-2.6,0C984.8,521.1,985.7,521.1,986.5,521.8z"/>
		<path class="st4" d="M976.5,521.8c-0.9,0.1-1.8,0.2-2.6,0.2c0-0.2,0-0.3,0-0.5C974.7,521.7,975.6,521.8,976.5,521.8z"/>
		<path class="st9" d="M945.6,503.4c0.3-0.5,0.6-1,1-1.4c0.1,0.5,0.2,1,0.2,1.4c-0.1,0-0.2,0-0.2,0c-0.3,0.1-0.6,0.2-1,0.2
			C945.6,503.6,945.6,503.5,945.6,503.4z"/>
		<path class="st15" d="M996.8,525.4c-0.5,0.1-1,0.2-1.4,0.2c0-0.2,0-0.3,0-0.5c0.6-0.2,1.1-0.3,1.7-0.5c0.1,0,0.2,0,0.2,0
			c-0.2,0.2-0.3,0.3-0.5,0.5C996.8,525.3,996.8,525.4,996.8,525.4z"/>
		<path class="st9" d="M963.5,459.1c0.6-0.5,1.1-1,1.7-1.4C964.7,458.1,964.1,458.6,963.5,459.1z"/>
		<path class="st3" d="M871,506c-0.2,0.6-0.3,1.1-0.5,1.7C870.7,507.2,870.9,506.6,871,506z"/>
		<path class="st9" d="M950.6,469.4c0.4-0.3,0.8-0.6,1.2-1C951.4,468.7,951,469.1,950.6,469.4z"/>
		<path class="st9" d="M962.3,460c0.3-0.2,0.6-0.5,1-0.7C963,459.5,962.7,459.8,962.3,460z"/>
		<path class="st9" d="M952,468.2c0.3-0.2,0.6-0.5,1-0.7C952.7,467.7,952.4,467.9,952,468.2z"/>
		<path class="st2" d="M989.4,521.8c-0.3,0-0.6,0-1,0C988.8,521.3,989.1,521.3,989.4,521.8z"/>
		<path class="st2" d="M988,521.8c-0.3,0-0.6,0-1,0C987.3,521.3,987.7,521.3,988,521.8z"/>
		<path class="st6" d="M968.3,455c-0.2,0-0.3,0-0.5,0c0-0.1,0-0.2,0-0.2c0.2-0.1,0.3-0.3,0.5-0.4c0,0.2,0,0.3,0,0.5
			C968.3,454.8,968.3,454.9,968.3,455z"/>
		<path class="st2" d="M973.8,521.6c0,0.2,0,0.3,0,0.5c-0.2,0-0.3,0-0.5,0c0-0.2,0-0.3,0-0.5C973.5,521.6,973.7,521.6,973.8,521.6z"
			/>
		<path class="st2" d="M967.6,521.9c-0.2,0-0.5,0-0.7,0C967.1,521.9,967.4,521.9,967.6,521.9z"/>
		<path class="st2" d="M993.5,521.9c-0.2,0-0.3,0-0.5,0c0.2-0.2,0.5-0.3,0.7-0.5C993.6,521.5,993.6,521.7,993.5,521.9z"/>
		<path class="st9" d="M948.7,471.1c0.2-0.2,0.5-0.3,0.7-0.5C949.2,470.7,948.9,470.9,948.7,471.1z"/>
		<path class="st11" d="M890.7,600.7c0.1,0.2,0.2,0.5,0.2,0.7c-0.1,0-0.2,0-0.2,0c-0.1-0.2-0.2-0.3-0.2-0.5
			C890.5,600.8,890.6,600.8,890.7,600.7z"/>
		<path class="st9" d="M871,580.1c-0.1,0.2-0.2,0.3-0.2,0.5c-0.1-0.2-0.2-0.3-0.2-0.5C870.7,580.1,870.9,580.1,871,580.1z"/>
		<path class="st4" d="M945.6,503.6c0.3-0.1,0.6-0.2,1-0.2c0.2,0.2,0.3,0.5,0.6,0.7c3.5,2,6.4,4.6,8.6,8.1c1.6,2.6,3.5,5,5.4,7.3
			c1.2,1.4,2.7,2.7,4.8,2.4c-0.7,0.4-1.4,0.9-2.2,1.3c-0.4,0.2-0.9,0.4-1.3,0.6c0.2,1.1,1,1.2,1.9,1.2c0.6,0,1.2,0,1.9,0
			c0.2,0,0.5,0,0.7,0c0.2,0.1,0.3,0.2,0.5,0.2c-0.2,0.1-0.5,0.2-0.7,0.3c-0.7,0.2-1.4,0.5-2.2,0.7c-0.7-0.2-1.5-0.3-2.2-0.6
			c-2-0.8-3.5-2.2-5-3.7c-3-3.2-6.4-6.1-9.6-9.2c-1.2-1.1-2.3-2.3-3.5-3.4c-1.2-1-1.5-0.9-2.6,0.2c-2.6,2.6-5.2,5.3-7.7,8
			c-0.5,0.5-0.7,1.1-1.2,1.6c-1.4,1.3-2.8,2.6-4.2,3.8c-1.2,1-2.5,2-3.7,2.9c0.2-0.4,0.4-0.8,0.7-1.1c0.5-0.5,1.1-0.9,1.6-1.4
			c1.7-1.6,3.3-3.3,5-4.9c1.6-1.6,3.2-3.3,4.8-5c0.2-0.2,0.3-0.5,0.4-0.7c0.9-1,1.8-1.9,2.6-2.9c0.5-0.3,1.1-0.6,1.6-1
			c1.5-1.3,2.1-1.3,3.5,0c0.9,0.9,1.6,1.9,2.5,2.7c2.9,2.7,5.8,5.4,8.8,8.1c0.4,0.4,1,0.6,1.7,1.1c-0.7-2.4-1.3-4.5-1.9-6.5
			c-0.1-0.2-0.2-0.4-0.4-0.6c-2.3-2.6-4.6-5.2-7.1-7.8c-0.9-1-2.2-1.4-3.6-0.6c-0.3,0.2-0.7,0.1-1.1,0.1c0-0.4,0-0.8,0-1.2
			C944.4,503.8,945,503.7,945.6,503.6z"/>
		<path class="st22" d="M920.9,454.8c0.8,0.7,1.6,1.5,2.4,2.2c0.4,0.4,0.7,0.9,1.2,1.1c3.2,1.3,5.5,3.9,8.2,5.9
			c2.6,2,5.4,3.8,8.2,5.5c0.8,0.5,1.6,0.9,1.6,2c-0.4-0.2-0.7-0.5-1.1-0.7c-0.6-0.2-1.3-0.4-1.7-0.5c0.1,1.4,0.2,2.6,0.2,3.8
			c0,1.1-0.4,2.3-0.4,3.4c0.4,5.8,1.6,11.5,1.1,17.3c-0.1,1.5-0.2,3-0.3,4.5c-0.1,2.2-0.9,4-2.6,5.4c-0.4,0.3-0.6,1-0.9,1.5
			c-0.1,0.1-0.2,0.2-0.2,0.2c-0.2,0.1-0.5,0.2-0.7,0.4c-1.5,1.3-2.9,2.7-4.3,4.1c-0.2,0.2-0.2,0.7-0.2,1c-0.2,0.2-0.3,0.3-0.5,0.5
			c-0.4,0.2-0.8,0.5-1.2,0.7c-1.3,1.3-2.6,2.6-3.8,3.8c-0.4,0.2-0.8,0.3-1.1,0.6c-1,0.8-1.9,1.7-2.8,2.6c-1.2,1-2.4,1.8-4,1.9
			c-2.9,0.1-5.8,0.3-8.7,0.5c-0.4,0-0.7,0.4-1,0.7c-0.2,0-0.5,0-0.7,0c-0.2-0.1-0.5-0.2-0.7-0.2c-0.4-0.2-0.8-0.4-1.2-0.5
			c-1.6-0.1-3.2,0-4.8,0c0.5-0.2,0.9-0.6,1.4-0.7c5.2-0.4,10-2.1,14.7-3.9c3.3-1.2,6.4-2.8,9-5.2c4.3-3.8,7.7-8.4,10.8-13.2
			c1.4-2.2,3-4.4,2.4-7.3c-0.1-0.3,0.1-0.6,0.1-0.9c0.1-4.1-0.5-6.4-3.8-8.4c-2.8-1.6-5.7-0.4-6.4,2.7c-0.3,1.4-0.3,2.9-0.2,4.3
			c0,1.9-0.4,3.6-1.5,5.1c-1.3,1.8-2.5,3.7-3.9,5.5c-2.2,2.8-4.8,5.2-8,6.9c-5.2,2.6-10.7,4-16.3,4.8c-1.6,0.3-3.3,0.7-4.8,1.3
			c-2.5,1-3.5,3.6-2.4,5.7c0.8,1.5,2.1,2.2,3.7,2.5c0.6,0.1,1.2,0.5,1.8,0.7c-1.1,0.1-2.2,0.1-3.3,0.2c-1.4,0.1-2.5-0.1-3.5-1.3
			c-1.7-2.3-3.7-4.4-5.6-6.6c-0.6-0.7-1.3-1.5-1.9-2.2c-0.2-0.3-0.3-0.6-0.5-0.8c1.4-0.2,2.8-0.2,4-0.6c3.2-1,5.8-2.9,7.2-5.9
			c0.9-2,0.9-4.3,1.1-6.5c0.2-3,0.2-5.9,1.5-8.7c1.5-3.3,4-5.5,7-7.3c2.4-1.5,5.1-2.5,7.9-2.6c2.4,0,4.8,0.2,7.1,0.9
			c3.7,1.1,6.9,0.5,9.9-1.8c1.5-1.1,3.2-2,4.1-3.9c0.6-1.2,0.7-2.4,0.6-3.7c-0.1-1.1,0-2.2-0.1-3.3c0-0.3,0-0.7-0.1-0.9
			c-0.9-1.4-1.6-3-2.7-4.2c-1.4-1.5-3.2-2.5-4.9-3.8c-1.2-0.9-2.4-1.8-3.4-2.9c-1-1.1-2.3-0.9-3.6-1c-1.8-0.2-3.7-0.2-5.5-0.3
			c-0.3,0-0.5-0.1-0.8-0.2c0.5-0.1,1-0.2,1.5-0.2c0.9-0.1,1.7-0.2,2.6-0.2C917.5,454.8,919.2,454.8,920.9,454.8z"/>
		<path class="st23" d="M897.2,522.6c-0.6-0.3-1.2-0.6-1.8-0.7c-1.6-0.3-2.9-1.1-3.7-2.5c-1.1-2.1-0.1-4.6,2.4-5.7
			c1.5-0.6,3.2-1.1,4.8-1.3c5.7-0.9,11.2-2.3,16.3-4.8c3.3-1.6,5.8-4,8-6.9c1.4-1.8,2.6-3.6,3.9-5.5c1-1.5,1.5-3.2,1.5-5.1
			c0-1.4-0.1-2.9,0.2-4.3c0.7-3.1,3.7-4.3,6.4-2.7c3.3,1.9,3.9,4.3,3.8,8.4c0,0.3-0.2,0.7-0.1,0.9c0.7,2.9-1,5.1-2.4,7.3
			c-3.1,4.8-6.5,9.4-10.8,13.2c-2.6,2.3-5.7,3.9-9,5.2c-4.8,1.8-9.6,3.5-14.7,3.9c-0.5,0-1,0.4-1.4,0.7
			C899.4,522.6,898.3,522.6,897.2,522.6z"/>
		<path class="st2" d="M909.4,458.6c2.7-0.2,5.3,0.5,7.8,1.5c1.6,0.6,3.3,0.9,4.9,1.5c0.9,0.4,1.8,1.1,2.5,1.8
			c1,1.2,1.8,2.5,2.7,3.8c0.2,0.3,0.3,0.6,0.4,0.9c0.3,1.2,0.5,2.4,0.8,3.6c0.2,1,0,1.8-0.7,2.6c-2.8,2.8-6.1,3.4-9.8,2.4
			c-2.3-0.6-4.6-1.4-6.9-2c-2-0.5-4,0.2-5.8,0.8c-3.5,1.2-6.6,3.1-9.3,5.5c-0.8,0.7-1.3,1.7-1.6,2.7c-1.1,2.9-2.3,5.9-3.1,8.9
			c-0.5,1.9-0.4,4-0.7,5.9c-0.2,1-0.8,2-1.2,2.9c-0.2,0.6-0.6,1.1-0.7,1.7c-0.7,2.7-2.6,3.7-5.1,2.5c-0.1,0-0.2-0.2-0.3-0.1
			c-1.9,0.3-2.6-1-3.2-2.4c-0.1-0.2-0.2-0.4-0.4-0.6c-2.4-1.9-3-4.7-4-7.3c-0.4-1.2-0.1-2.7,0-4c0.3-4,1.7-7.6,3.3-11.2
			c0.7-1.5,1.3-3,1.9-4.5c1.4-3.3,3.4-6.2,5.8-8.7c3.3-3.5,7.6-5.8,12.3-6.9c3.5-0.8,7-1.1,10.6-1.7
			C909.4,458.4,909.4,458.5,909.4,458.6z M877.2,491.7c0.2,1.2,0.6,3.3,1,5.4c0.3,1.5,0.3,3.1,2.2,3.7c0.2,0.1,0.4,0.5,0.5,0.8
			c0.3,0.8,0.9,1,1.7,0.8c2.5-0.6,4.5-2,5.3-4.5c0.6-1.9,1.1-3.8,1.3-5.8c0.7-5.4,2.3-10.4,5.5-14.8c3.3-4.5,8.1-6.1,13.5-5.8
			c2.7,0.2,5.3,1.3,8,2c3,0.9,6,1.3,8.8-0.7c1.4-1,1.5-1.5,0.9-3.1c-0.1-0.2-0.2-0.4-0.1-0.6c0.4-1.9-0.9-2.9-2.2-3.9
			c-0.7-0.5-1.3-1.1-1.9-1.6c-1.8-1.6-3.7-2.9-6.4-2.6c-1.5,0.2-3.1,0-4.6,0c-4,0-7.8,1-11.5,2.5c-4.6,1.8-8.7,4.5-12.4,7.8
			c-2.7,2.4-5,5.1-6.7,8.2C878,482.9,877.3,486.8,877.2,491.7z"/>
		<path class="st22" d="M892.4,454.5c0.4,0.1,0.8,0.1,1.2,0.2c0.8,0.2,1.6,0.3,2.4,0.5c-0.3,0.1-0.6,0.4-0.8,0.4
			c-3.1-0.1-5.1,2-7.2,3.8c-3.2,2.7-6.2,5.5-9.1,8.4c-1.8,1.7-3.1,3.8-3.4,6.4c-0.2,2-0.5,4-0.5,6c-0.1,7.2-0.2,14.3-0.3,21.5
			c0,0.6-0.3,1.2-0.7,1.7c-0.1,0.1-0.8-0.2-1.2-0.3c0.1-0.1,0.2-0.2,0.2-0.2c0.3-0.6,0.8-1.2,0.9-1.8c0.2-1.6,0.3-3.2,0.3-4.7
			c0-3.6,0-7.2,0-10.7c0-1.8,0.1-3.6,0.1-5.3c0-1.9,0.1-3.9,0.1-5.8c0-1.1,0-2.1,0-3.2c0.2-1.7,1.5-2.6,2.6-3.6
			c0.2-0.2,0.5-0.3,0.7-0.5c0.2-0.3,0.5-0.6,0.7-1c0.3-0.1,0.6-0.1,0.9-0.3c2.1-1.8,4.3-3.6,6.4-5.4c0.3-0.2,0.4-0.6,0.6-1
			c0,0,0,0,0,0c1-0.8,1.9-1.6,2.9-2.4c0,0,0,0,0,0C890.3,456.3,891.3,455.4,892.4,454.5z"/>
		<path class="st17" d="M907.2,523.3c0.2,0,0.5,0,0.7,0c0.6,0,1.1,0,1.7,0c0,0.2,0,0.5,0,0.7c-2.9,0.2-5.8,0.5-8.8,0.6
			c-2,0.1-3.9-0.2-5.9-0.4c-1.7-0.2-2.2,0.2-2.3,1.6c-0.6,0.1-1.1,0.2-1.7,0.3c-0.4-1-0.2-1.7,0.9-2.1c0.2-0.1,0.4-0.4,0.6-0.5
			c0.2,0,0.3,0,0.5,0c0.2-0.1,0.3-0.2,0.5-0.2c0.4,0.1,0.8,0.2,1.2,0.2c0.5,0,1,0,1.5,0c1.6,0,3.3,0,4.9,0c0.2,0,0.5,0,0.7,0
			C903.6,524,905.4,523.9,907.2,523.3z"/>
		<path class="st22" d="M911.1,455.2c-0.7,0-1.5,0-2.2,0c-1.8,0.1-3.6,0.2-5.4,0.2c-0.4,0-0.8-0.3-1.2-0.5c0.1-0.2,0.2-0.3,0.2-0.5
			c1,0,2.1,0,3.1,0c0.8,0,1.6,0,2.4,0c1,0,1.9,0,2.9,0C910.9,454.8,911,455,911.1,455.2z"/>
		<path class="st22" d="M901.5,455c-1.4,0.9-2.9,0.5-4.3,0.2c0.2-0.2,0.5-0.5,0.7-0.7c1.1,0,2.2,0,3.3,0
			C901.3,454.7,901.4,454.8,901.5,455z"/>
		<path class="st8" d="M901,523.5c-1.6,0-3.3,0-4.9,0c-0.5,0-1,0-1.5,0c0.3-0.2,0.7-0.4,1-0.5c1.7,0,3.4,0,5.1,0.1
			C900.7,523.2,900.9,523.4,901,523.5z"/>
		<path class="st8" d="M907.2,523.3c-1.8,0.6-3.7,0.7-5.5,0.2c1.6-0.2,3.2-0.3,4.8-0.5C906.7,523.1,907,523.2,907.2,523.3z"/>
		<path class="st5" d="M911.1,455.2c-0.1-0.2-0.2-0.5-0.2-0.7c1.7,0.1,3.4,0.2,5,0.2c-0.9,0.1-1.7,0.2-2.6,0.2
			c-0.5,0.1-1,0.2-1.5,0.2C911.5,455.2,911.3,455.2,911.1,455.2z"/>
		<path class="st5" d="M897.9,454.5c-0.2,0.2-0.5,0.5-0.7,0.7c-0.4,0-0.8,0-1.2,0c-0.8-0.2-1.6-0.3-2.4-0.5c0.8-0.1,1.6-0.2,2.4-0.2
			C896.6,454.5,897.2,454.5,897.9,454.5z"/>
		<path class="st5" d="M901.5,455c-0.1-0.2-0.2-0.3-0.2-0.5c0.4,0,0.8,0,1.2,0c-0.1,0.2-0.2,0.3-0.2,0.5
			C902,455,901.7,455,901.5,455z"/>
		<path class="st8" d="M893.3,523.3c-0.2,0.1-0.3,0.2-0.5,0.2C893,523.4,893.2,523.4,893.3,523.3z"/>
		<path class="st0" d="M924.7,525.7c1.2-1,2.5-1.9,3.7-2.9c1.4-1.2,2.9-2.5,4.2-3.8c0.5-0.4,0.8-1.1,1.2-1.6c2.6-2.7,5.1-5.3,7.7-8
			c1.1-1.1,1.4-1.2,2.6-0.2c1.2,1.1,2.3,2.3,3.5,3.4c3.2,3.1,6.5,6,9.6,9.2c1.5,1.6,3,2.9,5,3.7c0.7,0.3,1.5,0.4,2.2,0.6
			c-0.6,0.3-1.2,0.8-1.9,0.9c-1.1,0.2-1.9,0.5-2.7,1.3c-1.2,1.3-2.6,2.4-3.9,3.5c-0.6,0.6-1.3,1.1-1.8,1.7c-2.8,2.9-5.4,6-8.2,8.8
			c-1.6,1.6-2.8,1.5-4.6,0.2c-1.4-1-2.7-2.2-4.2-3.2c-1-0.7-2.2-1.1-3.2-1.6c-0.1,0.1-0.2,0.2-0.2,0.4c0.1,0.3,0.1,0.6,0.3,0.9
			c0.8,1.2,1.5,2.5,2.4,3.6c1.9,2.2,3.7,4.4,6.4,5.7c0.5,0.2,0.9,1.1,1.1,1.7c0.3,1.5,0.2,3.1,0.7,4.5c0.8,2.4,0.9,4.7,0.3,7.1
			c-0.1,0.4-0.2,0.9-0.2,1.3c-0.1,2.8-0.3,5.6-0.2,8.4c0,1.7,0.4,3.5,0.7,5.2c0.2,1,0.5,2,0.7,3c-0.2,0.1-0.3,0.2-0.5,0.2
			c-1.2-0.5-1.2-1.5-1.2-2.5c-0.1-5.7-0.1-11.3-0.3-17c-0.1-3.1-0.4-6.3-0.7-9.4c-0.1-0.6-0.6-1.2-1-1.9c-0.3,0.7-0.9,1.3-0.9,2
			c-0.1,5.1-0.3,10.3-0.2,15.4c0,2.6,0.4,5.2,0.4,7.9c0,1.9-0.4,3.8-0.6,5.7c0,0.1,0,0.2,0,0.2c-0.7,0.6-1.4,1.3-2.2,1.9
			c-0.2,0.2-0.5,0.5-0.7,0.7c-0.3,0.2-0.6,0.5-1,0.7c-0.4,0.4-0.8,0.8-1.2,1.2c-0.2,0.2-0.5,0.3-0.7,0.5c-0.3,0.3-0.6,0.6-1,1
			c-0.4,0.3-0.8,0.6-1.2,1c-0.2,0.2-0.5,0.5-0.7,0.7c-0.6,0.6-1.3,1.1-1.9,1.7c-0.6,0.6-1.3,1.3-1.9,1.9c-1,1-2.1,1.9-3.1,2.9
			c-0.2,0.2-0.3,0.3-0.5,0.5c-0.6,0.6-1.3,1.3-1.9,1.9c-0.5,0.4-1,0.8-1.4,1.2c-2.8,0.1-5.5,0.4-8.3,0.4c-5.7,0-11.3-0.3-17-0.4
			c-1.1,0-2.1,0.1-3.2,0.2c-0.2,0-0.5,0-0.7,0c-0.1-0.1-0.2-0.2-0.2-0.2c-0.2-0.4-0.4-0.9-0.7-1.2c-4.1-4.1-8.3-8.1-12.4-12.2
			c-1.2-1.2-2.4-2.6-3.5-3.9c-0.8-0.9-1.6-1.6-2.8-1.6c0.1-3.3,0.2-6.5,0.2-9.8c0-1.9,0-3.7,0.1-5.6c0-1.4,0.1-2.8,0.1-4.2
			c0-1.5,0-3,0.1-4.5c0-0.8,0.2-1.5,0.2-2.3c0-2.8,0.8-5.1,3-7c3.3-2.9,6.5-5.8,9.8-8.8c0.5-0.5,0.9-1,1.4-1.6l0,0
			c0.4-0.3,0.8-0.6,1.2-1c0.8-0.8,1.6-1.6,2.4-2.4c0.5-0.5,1-1,1.4-1.4c0.5,0,1,0,1.4,0c1.7,0,3.4,0,5.1-0.1c2.5-0.2,5-0.5,7.5-0.6
			c2.3-0.1,4.7-0.1,7,0c1.3,0,2.6,0.2,3.8,0.6c1.8,0.6,3.5,0.1,4.2-1.4c0.5-1.1-0.6-1.2-0.9-1.8c0.6,0,1.3,0,1.9,0
			C923.6,527.2,924.4,526.7,924.7,525.7L924.7,525.7z M898.9,556.3c0.2,0.1,0.4,0.2,0.6,0.3c-0.1,0.5-0.1,1-0.3,1.4
			c-0.6,1.8-1.3,3.5-1.8,5.3c-0.6,2,1.2,5,3.2,5.4c0.2,0,0.5,0.1,0.7,0c2.6-0.2,4.3-1.5,5.1-4c0.9-2.7,1.7-5.5,2.6-8.2
			c0.6-1.9,0.9-3.8,0-5.7c-0.2-0.3,0.2-1.3,0.5-1.4c1.7-0.5,3.5-1.1,5.3-1.1c1.8,0,3.6,0.6,5.4,0.9c2.8,0.4,5.6,0.8,8.4-0.6
			c2.5-1.3,4.7-5,2.6-8.1c-1.6-2.3-3.5-4.3-6.1-5.6c-1.7-0.9-3.5-1.6-5.3-2.4c-4.1-1.7-8.4-0.2-12.5-0.7c-0.3,0-0.6,0.1-0.9,0.2
			c-0.8,0.2-1.5,0.5-2.3,0.5c-5,0.3-9.7,1.9-14.1,4.2c-3.9,2-7.2,4.7-10.1,7.9c-3.7,4-6,8.7-6,14.3c0,2,0.2,4-0.1,5.9
			c-0.5,3.2-0.1,6.4-0.1,9.6c0,0.6,0.3,1.3,0.7,1.7c1.5,1.4,3.1,2.7,4.8,3.9c1.5,1.2,3.8,1.1,5.3,0c2.2-1.6,3.2-4,4.2-6.4
			c1.9-4.8,3.9-9.5,7.1-13.6C896.7,558.8,897.8,557.6,898.9,556.3z M904.9,597.3c0.6,0,1.2,0,1.8,0c6.2,0.4,11.6-1.8,16.3-5.5
			c3.4-2.7,6.7-5.7,9.8-8.7c2.2-2.1,4.2-4.6,5.3-7.6c1.2-3.4,1-6.6-1-9.6c-1.9-2.8-5.6-2.6-7.2,0.4c-0.4,0.8-0.5,1.7-0.9,2.6
			c-0.7,1.8-1.2,3.9-2.3,5.4c-1.5,2.1-3.5,4-5.4,5.8c-3.7,3.7-8,6.2-13,7.5c-3.1,0.8-6.2,1.7-9.2,2.7c-1.7,0.6-2.7,1.9-2.8,3.8
			c0,0.9,0,2,1.1,2.5c0.9,0.4,1.8,0.5,2.8,0.6C901.7,597.4,903.3,597.3,904.9,597.3z"/>
		<path class="st14" d="M945.3,579.6c0.2-0.1,0.3-0.2,0.5-0.2c0.2,0,0.3,0,0.5,0c1-0.1,1.9-0.5,1.9-1.7c0-2.3,0.1-4.6,0-6.8
			c-0.5-6.1-0.9-12.1-0.6-18.2c0.1-1.4,0.1-3.2,0.8-4.3c1.7-2.5,3.8-4.8,5.9-7c3.1-3.2,6.5-6.1,9.8-9.1c0.8-0.7,1.6-1.3,2.7-1.3
			c1,0,2-0.2,3-0.2c3.7-0.2,7.3-0.6,11-0.6c2.8,0,5.6,0.3,8.5,0.4c0.7,0,1.4-0.1,2.1-0.2c0.8,0,1.6,0,2.4,0c0.4,0.2,0.9,0.4,1.3,0.6
			c0.4,0.1,1,0.1,1.3,0.3c2.1,1.6,4.2,3.2,6.2,5c1.4,1.3,3.2,2.5,3.3,4.7c0,1.6-0.2,3.3-0.8,4.8c-1.6,3.9-4.9,5.5-8.9,5.6
			c-1.2,0-2.3,0.3-3.4,0.3c-1.3,0-2.6,0.1-3.8-0.2c-1.3-0.3-2.6-0.3-3.8,0.3c-2.8,1.3-5.2,3.2-7.5,5.3c-0.7,0.7-1.5,1.3-1.9,2.1
			c-1.5,2.9-2.9,5.9-4.2,9c-1.2,2.9-2.9,5.3-6.1,5.9c-1.3,0.3-2.6,0.2-3.9,0.2c-3,0-5.6,0.9-7.6,3.2c-0.5,0.6-1.1,1.1-1.7,1.7
			c-1.2,1.1-1.3,1.4-0.2,2.7c1.8,2.1,3.7,4.2,5.7,6.1c2.7,2.7,5.5,5.3,8.2,8c0.8,0.8,1.5,1.7,2.8,1.6c0.2,0,0.4,0.3,0.5,0.4
			c-0.6,0.1-1.1,0.2-1.7,0.2c-2.1-1.6-4.2-3.2-6.2-4.9c-3.5-3-6.6-6.4-9.5-9.9c-1-1.1-2.2-2.1-3.4-2.9
			C947.5,579.8,946.3,579.8,945.3,579.6z M1000.9,541c-0.1-2.2-1.8-3.8-4.3-5c-1.8-0.8-3.9-1.3-5-3.1c-0.1-0.2-0.4-0.3-0.6-0.3
			c-2.5-0.4-4.9-0.8-7.4-1.1c-0.7-0.1-1.5,0.2-2.3,0.2c-3.1-0.1-6.2,0.4-9.2,1.1c-0.6,0.1-1.2,0.3-1.7,0.5c-4.2,1.9-8.1,4.3-11.8,7
			c-2,1.5-4,3-5.3,5.3c-2.2,3.9-3.5,8.2-4.7,12.5c-0.3,1.2,0.1,2.1,0.5,3.2c0.4,1,0.5,2.2,0.9,3.3c0.1,0.5,0.4,1,0.8,1.3
			c0.3,0.3,0.9,0.3,1.4,0.4c0.9,0.2,1.6,0.6,1.5,1.6c0,1,0.6,1.3,1.5,1.1c0.8-0.1,1.6-0.1,2.4-0.2c1.2,0,2.4,0,3.6-0.1
			c0.2,0,0.6-0.6,0.6-0.9c0.2-3.1,1.4-5.9,2.6-8.8c1.1-2.5,2.4-4.7,4.7-6.1c0.6-0.4,1.2-0.8,1.6-1.4c1.3-1.9,2.9-3.1,5.3-2.9
			c0.3,0,0.6-0.1,0.9-0.2c0.9-0.3,1.7-0.7,2.6-0.9c2.1-0.5,4.3-1.1,6.4-1.3c1.9-0.2,3.9-0.1,5.8,0c0.9,0,1.8,0.5,2.7,0.7
			C997.8,547.6,1000.9,545.1,1000.9,541z"/>
		<path class="st11" d="M921.4,597.8c0.5-0.4,1-0.8,1.4-1.2c0.7-0.4,1.6-0.7,2.2-1.2c2.3-1.9,4.6-3.8,6.8-5.8
			c2.6-2.3,5.1-4.7,7.6-7.1c0.6-0.6,0.9-1.6,1.4-2.4c0-0.1,0-0.2,0-0.2c0.2-0.2,0.5-0.3,0.7-0.5c0.8,0,1.6,0,2.4,0
			c0.6,1.3,0.3,2.8-0.7,4c-3.9,4.8-8.6,8.7-13.5,12.4c-1.9,1.4-3.6,3.1-5.5,4.6c-0.4,0.3-0.8,0.5-1.2,0.8c0.4-2.1,0.1-2.4-1.7-2.6
			C921.4,598.3,921.4,598.1,921.4,597.8z"/>
		<path class="st15" d="M943.9,579.4c-0.8,0-1.6,0-2.4,0C942.3,578.4,943.1,578.4,943.9,579.4z"/>
		<path class="st24" d="M897.4,453.8c-0.9,0-1.9-0.1-2.8-0.1c-1.3,0.1-2.4-0.4-3.2-1.4c0-0.1,0-0.3,0-0.4c10.3,0,20.6,0,30.9,0
			c0,0.1,0,0.3,0,0.4c-0.6,0.3-1.2,0.8-1.8,0.9c-1.2,0.2-2.5,0.2-3.7,0.3c-0.6,0-1.3,0-1.9,0c-1.3-0.1-2.5-0.2-3.8-0.2
			c-3.6,0-7.2,0-10.8,0c-0.7,0-1.3,0.3-2,0.4C898,453.8,897.7,453.8,897.4,453.8z"/>
		<path class="st3" d="M936.7,506.3c0.3-0.5,0.5-1.1,0.9-1.5c1.7-1.4,2.5-3.2,2.6-5.4c0.1-1.5,0.2-3,0.3-4.5
			c0.5-5.8-0.7-11.6-1.1-17.3c-0.1-1.1,0.3-2.3,0.4-3.4c0-1.2-0.1-2.3-0.2-3.8c0.4,0.1,1.1,0.3,1.7,0.5c0.4,0.2,0.7,0.5,1.1,0.7
			c0.1,0,0.2,0,0.2,0c0,0.2,0,0.5,0,0.7c-0.4,0.2-0.8,0.5-1.2,0.7c-1.5,1-1.1,2.8-1.5,4.2c-0.1,0.4,0.5,0.9,0.8,1.4
			c0.1,0.1,0.1,0.2,0.1,0.3c0.1,1.9,0.3,3.7,0.4,5.6c0,0.5,0,1,0,1.4c0.3,3.6,0.9,7.1,0.1,10.8c-0.4,2.1,0.2,4.3-1.2,6.2
			C939.1,504,937.9,505.2,936.7,506.3z"/>
		<path class="st20" d="M914.9,453.6c0.6,0,1.3,0,1.9,0c0.3,0.2,0.6,0.4,0.9,0.4c1.5,0,3.1,0,4.6,0c-0.5,0.2-1,0.5-1.4,0.7
			c-1.7,0-3.4,0-5,0c-1.7-0.1-3.4-0.2-5-0.2c-1,0-1.9,0-2.9,0c-0.8,0-1.6,0-2.4,0c-1,0-2.1,0-3.1,0c-0.4,0-0.8,0-1.2,0
			c-1.1,0-2.2,0-3.3,0c-0.6,0-1.3,0-1.9,0c0.5-0.2,1-0.5,1.4-0.7c0.3,0,0.6,0,0.9,0c0.3,0,0.5,0.1,0.8,0.1c4.4,0,8.9,0.1,13.3,0.1
			C913.3,454,914.1,453.7,914.9,453.6z"/>
		<path class="st19" d="M922.3,454c-1.5,0-3.1,0-4.6,0c-0.3,0-0.6-0.3-0.9-0.4c1.2-0.1,2.5-0.1,3.7-0.3c0.6-0.1,1.2-0.6,1.8-0.9
			c0.1,0,0.1,0,0.2,0c0.1,0.2,0.2,0.5,0.2,0.7C922.6,453.4,922.5,453.7,922.3,454z"/>
		<path class="st20" d="M922.8,453.1c-0.1-0.2-0.2-0.5-0.2-0.7C922.6,452.6,922.7,452.8,922.8,453.1z"/>
		<path class="st11" d="M997.3,524.7c-0.1,0-0.2,0-0.2,0c0.6-0.7,1.2-1.4,1.7-2.1c0.3-0.4,0.6-0.8,0.9-1.2c-0.1-0.1-0.2-0.2-0.2-0.3
			c-1.7,0.7-3.3,1.7-5.2,0.9c0.7-0.5,1.3-1.2,2.1-1.6c3.6-1.9,6.5-4.5,9.4-7.4c2.6-2.6,5-5.3,7.6-8c0.3-0.3,0.5-0.7,0.9-0.8
			c0.5-0.2,1.1-0.3,1.7-0.4c0.1,0.7,0.4,1.5,0.2,2.1c-0.4,0.9-1,1.7-1.7,2.4c-2,2.1-4.2,4.1-6.2,6.3c-2.9,3.2-6,6.3-9.4,9
			c-0.3,0.3-0.5,0.7-0.7,1.1C997.6,524.7,997.5,524.7,997.3,524.7z"/>
		<path class="st4" d="M940.3,502.9c1.4-1.9,0.8-4.2,1.2-6.2c0.7-3.6,0.2-7.2-0.1-10.8c0-0.5,0-1,0-1.4c-0.1-1.9-0.2-3.7-0.4-5.6
			c0-0.1-0.1-0.2-0.1-0.3c-0.3-0.5-0.9-1.1-0.8-1.4c0.4-1.4,0-3.2,1.5-4.2c0.4-0.3,0.8-0.5,1.2-0.7c0.2,0.4,0.3,0.8,0.5,1.2
			c0.1,0.2,0.2,0.3,0.2,0.5c0,1,0,1.9,0,2.9c0,0.3,0,0.6,0,1c0,0.7,0,1.4,0,2.2c0,0.7,0,1.4,0,2.2c0,0.2,0,0.3,0,0.5
			c0,0.2,0,0.3,0,0.5c0,0.7,0,1.4,0,2.2c0,0.6,0,1.1,0,1.7c-0.1,0.3-0.2,0.6-0.2,1c0,0.2,0,0.5,0,0.7c-0.1,0.5-0.2,1.1-0.2,1.6
			c0,1.3,0.4,2.6,0.1,3.8c-0.6,2.3,0,4.6-0.1,6.9c0,0.4,0.3,0.9,0.4,1.4c0.1,0.2,0.2,0.5,0.2,0.7c-0.2,0.2-0.3,0.3-0.5,0.5
			c-0.6-0.2-1.1-0.5-1.7-0.7C941.1,502.8,940.7,502.8,940.3,502.9z"/>
		<path class="st12" d="M943.4,482.1c0-0.7,0-1.4,0-2.2C944.1,480.6,944.1,481.4,943.4,482.1z"/>
		<path class="st5" d="M943.4,477.8c0-0.3,0-0.6,0-1C944,477.1,944,477.4,943.4,477.8z"/>
		<path class="st5" d="M943.4,473.9c-0.1-0.2-0.2-0.3-0.2-0.5C943.3,473.6,943.3,473.8,943.4,473.9z"/>
		<path class="st22" d="M943.4,483c0-0.2,0-0.3,0-0.5C943.4,482.7,943.4,482.9,943.4,483z"/>
		<path class="st18" d="M892.6,525.9c0.1-1.4,0.7-1.8,2.3-1.6c2,0.2,3.9,0.4,5.9,0.4c2.9-0.1,5.8-0.4,8.8-0.6
			c0.8-0.1,1.6-0.2,2.4-0.2h0.1h0.1c0.1,0,0.2,0,0.2,0c0.4,0,0.8,0,1.2,0c0.4-0.1,0.8-0.2,1.2-0.2c0.6,0,1.1,0,1.7,0
			c0.5-0.2,1-0.3,1.4-0.5c0.8-0.1,1.6-0.2,2.4-0.2c0.6,0.7,1.9,0.6,1.9,1.9c0,0.1,0,0.2,0,0.2c-0.2,0.2-0.3,0.3-0.5,0.5
			c-0.1,0.2-0.2,0.3-0.2,0.5c-0.6,0.2-1.3,0.5-1.9,0.7c-0.1,0-0.2,0-0.2,0c-0.3-0.1-0.5-0.4-0.8-0.4c-2.3-0.2-4.6-0.3-6.9-0.4
			c-0.4,0.1-0.7,0.1-1.1,0.2C904.6,525.9,898.6,525.9,892.6,525.9z"/>
		<path class="st25" d="M910.6,525.9c0.4-0.1,0.7-0.1,1.1-0.2c0.6,0.1,1.1,0.3,1.7,0.4c1.9,0.1,3.8-0.3,5.6,0.7c0,0.2,0,0.5,0,0.7
			c-0.4,0.1-0.8,0.2-1.2,0.2c-0.2,0-0.5,0-0.7,0c-0.4,0-0.8,0-1.2,0c-1.8,0.1-3.5,0.2-5.3,0.2c-0.2,0-0.5,0-0.7,0
			c-0.2,0.1-0.3,0.1-0.5,0.2c-0.3,0-0.6,0-1,0c-0.3,0-0.6,0-1,0c-0.8,0-1.6,0-2.4,0c-3.4-0.1-6.9-0.2-10.3-0.2c-0.2,0-0.5,0-0.7,0
			c-0.6-0.1-1.1-0.2-1.7-0.3c-0.2-0.2-0.5-0.5-0.7-0.7c0.1-0.2,0.2-0.3,0.2-0.5c0.5-0.1,1.1-0.2,1.6-0.2c5.2,0,10.4,0,15.6,0
			C909.6,526.4,910.1,526.1,910.6,525.9z"/>
		<path class="st20" d="M894,528.1c0.2,0,0.5,0,0.7,0c0.3,0.2,0.7,0.5,1,0.5c2.8,0.1,5.7,0.2,8.5,0.2c0.3,0,0.5-0.3,0.8-0.4
			c0.8,0,1.6,0,2.4,0c0.3,0,0.6,0,1,0c0.3,0,0.6,0,1,0c0.2-0.1,0.3-0.1,0.5-0.2c0.2,0,0.5,0,0.7,0c1.6,0.1,3.2,0.1,4.8,0.1
			c0.1,0,0.3-0.2,0.4-0.4c0.4,0,0.8,0,1.2,0c0.2,0,0.5,0,0.7,0c0.4-0.1,0.8-0.2,1.2-0.2c0.2-0.1,0.4-0.2,0.5-0.3c0.2,0,0.4,0,0.7,0
			c-0.4,1.6-1.5,2.3-3.1,1.8c-0.5-0.1-0.9-0.3-1.4-0.3c-4.6,0.1-9.2,0.3-13.9,0.4c-2.7,0.1-5.3,0.3-8,0.5c-0.9-0.3-2-0.5-2.8-1
			c-1.1-0.8-1-1.5,0.4-2.1c0.1,0.2,0.2,0.3,0.2,0.5c0.2,0.2,0.5,0.5,0.7,0.7C892.9,527.9,893.5,528,894,528.1z"/>
		<path class="st10" d="M893.8,529.8c2.7-0.2,5.3-0.4,8-0.5c4.6-0.2,9.2-0.3,13.9-0.4c0.5,0,0.9,0.2,1.4,0.3
			c1.6,0.5,2.7-0.2,3.1-1.8c0.2-0.1,0.3-0.1,0.5-0.2c0.3,0.6,1.4,0.7,0.9,1.8c-0.7,1.5-2.4,2-4.2,1.4c-1.2-0.4-2.5-0.5-3.8-0.6
			c-2.3-0.1-4.7-0.1-7,0c-2.5,0.1-5,0.4-7.5,0.6c-1.7,0.1-3.4,0.1-5.1,0.1C893.8,530.2,893.8,530,893.8,529.8z"/>
		<path class="st9" d="M892.4,530.5c-0.5,0.5-1,1-1.4,1.4c0.4-0.5,0.8-1,1.2-1.4C892.2,530.5,892.3,530.5,892.4,530.5z"/>
		<path class="st19" d="M891.6,527.1c-0.1-0.2-0.2-0.3-0.2-0.5c0.2,0,0.3,0,0.5,0C891.8,526.8,891.7,527,891.6,527.1z"/>
		<path class="st0" d="M969,597.8c-0.2-0.1-0.4-0.4-0.5-0.4c-1.3,0.1-2-0.8-2.8-1.6c-2.7-2.7-5.5-5.3-8.2-8c-2-2-3.8-4-5.7-6.1
			c-1.1-1.3-1-1.6,0.2-2.7c0.6-0.5,1.2-1.1,1.7-1.7c2-2.3,4.6-3.1,7.6-3.2c1.3,0,2.7,0.1,3.9-0.2c3.2-0.7,4.9-3,6.1-5.9
			c1.3-3,2.7-6,4.2-9c0.4-0.8,1.2-1.4,1.9-2.1c2.2-2.1,4.7-4,7.5-5.3c1.3-0.6,2.5-0.6,3.8-0.3c1.2,0.2,2.5,0.2,3.8,0.2
			c1.2,0,2.3-0.2,3.4-0.3c4.1-0.1,7.3-1.7,8.9-5.6c0.6-1.5,0.8-3.2,0.8-4.8c0-2.2-1.9-3.4-3.3-4.7c-1.9-1.8-4.1-3.4-6.2-5
			c-0.3-0.3-0.9-0.2-1.3-0.3c-0.4-0.1-0.9-0.4-1.3-0.6c1.5-0.5,2.7-0.3,4,0.7c4.1,3.3,8.3,6.5,12.4,9.8c0.9,0.7,1.6,1.6,2.6,2.3
			c0.6,0.4,1.4,0.4,2.1,0.6c-1.6,2.3-0.5,4.7-0.4,7c0.1,2.6,0.5,5.1,0.6,7.7c0.2,3.1,0.2,6.3,0.2,9.4c0,2.8-0.1,5.6-0.2,8.4
			c-0.1,1.3-0.4,2.5-1.5,3.4c-0.3,0.3-0.4,0.8-0.7,1.2c-0.7,0.7-1.4,1.4-2.2,2.2c-0.6,0.6-1.1,1.1-1.7,1.7c-0.5,0.5-1,1-1.4,1.4
			c-0.2,0.2-0.5,0.5-0.7,0.7c-0.2,0.3-0.5,0.6-0.7,1c-1.9,1.7-3.8,3.3-5.6,5.1c-0.8,0.7-1.4,1.6-2.1,2.4c-0.3,0.4-0.6,0.8-1,1.2
			c-0.2,0.1-0.3,0.2-0.5,0.2c-0.3,0.2-0.6,0.5-1,0.7c-1.1,0-2.2,0-3.4,0c-0.5,0.1-1,0.2-1.4,0.2c-0.2,0-0.3,0-0.5,0
			c-0.9,0-1.8,0-2.7-0.1c-1.6-0.1-3.2-0.1-4.8-0.1c-0.3,0-0.6,0.3-0.9,0.4c-1.1,0-2.2,0-3.4,0c-0.3-0.6-0.6-0.6-1,0
			c-0.7,0-1.4,0-2.2,0c-0.5,0-1,0-1.4,0c-0.4,0-0.8,0-1.2,0c-0.4-0.6-0.8-0.6-1.2,0c-0.2,0-0.5,0-0.7,0c-0.3-0.6-0.6-0.6-1,0
			C970,597.8,969.5,597.8,969,597.8z M1001.7,564.4c0.3,3.3,0,5.7-1.1,7.7c-0.9,1.7-2,3.3-3.3,4.8c-3.2,3.7-7.3,6-12.2,6.3
			c-2.5,0.2-5,0.2-7.5,0c-3.6-0.2-7.2-0.9-10.1-3.2c-1.9-1.5-4.1-2.5-6.5-2.8c-1.7-0.3-3.5,0-4.6,1.4c-1.2,1.5-2.1,3.3-0.9,5.2
			c0.8,1.3,1.7,2.5,2.8,3.5c1.8,1.6,3.8,3,5.6,4.6c2.1,1.9,4.6,2.5,7.2,2.9c5.1,0.8,10.2,1.3,15.3,0.8c3.7-0.4,7.4-1.1,10.7-2.9
			c5.9-3.2,10.5-7.9,13.9-13.6c1.1-1.9,2.1-4.1,2.4-6.3c0.4-3,0.2-6.1,0.1-9.2c-0.1-2.4-1.2-4.5-3.1-6c-2.7-2.2-6.5-1.4-7.7,1.8
			C1002,561.2,1001.9,563.3,1001.7,564.4z M1014.3,559.3c0-1.6,0.1-3.3,0-4.9c0-0.9-0.2-1.9-0.5-2.8c-0.6-2.1-0.9-4.3-0.5-6.5
			c0.1-0.3-0.1-0.7-0.3-0.9c-0.8-0.8-1.7-1.5-2.6-2.3c-0.7-0.5-1.4-1-2-1.5c0,1.3,0.1,2.5,0,3.7c-0.3,4.1-3.4,6.1-6.4,7.9
			c-2.9,1.6-6.1,2.5-9.5,2.4c-1.8-0.1-3.7,0.2-5.4,0.8c-3.7,1.1-6.5,3.5-8.5,6.8c-1.5,2.4-2.4,5.1-3.6,7.7c-0.7,1.5-1.4,3.1-2.4,4.4
			c-0.6,0.8-1.8,1.2-2.8,1.8c-0.1,0.1-0.4,0-0.5,0c-1-0.9-2.1-0.4-3.2-0.3c-0.8,0.1-1.6,0-2.4,0c-1,0-1.9,0-2.9,0c0,0.1,0,0.3,0,0.4
			c0.9,0.3,1.7,0.5,2.6,0.8c0.9,0.3,1.7,0.6,2.5,1c1.9,1,3.7,2.2,5.7,2.9c3.4,1.3,7.1,1.5,10.7,1.5c6.1,0.1,11.1-2.3,14.9-7.1
			c1.6-2,2.8-4.2,3.1-6.8c0.2-2,0.3-4,0.3-6.1c0-1.7,0.5-3.2,1.5-4.6c1.8-2.6,5.3-3.5,8-1.9C1011.6,556.5,1012.8,557.9,1014.3,559.3
			z M989.2,596.7c0,0.1,0,0.1,0,0.2c2.2-0.2,4.3-0.3,6.5-0.6c1.3-0.2,2-1.4,2.6-2.4C995.2,594.9,992.2,595.8,989.2,596.7z
			 M966.4,595.1c0.5,1,0.9,1.7,2,1.7c2.3,0,4.7,0.1,7,0.2c0.2,0,0.5-0.1,0.9-0.2C973,596.3,969.8,595.7,966.4,595.1z M953.5,582.1
			c0.1-0.8,0.3-1.4,0.4-2.2C952.4,580.5,952.3,581.2,953.5,582.1z M1012.8,579.1c1.3-0.7,1.4-1.1,0.9-1.9
			C1013.3,577.8,1013.1,578.4,1012.8,579.1z"/>
		<path class="st10" d="M946.3,579.4c-0.2,0-0.3,0-0.5,0c-0.2-1-0.5-2-0.7-3c-0.3-1.7-0.7-3.4-0.7-5.2c-0.1-2.8,0.1-5.6,0.2-8.4
			c0-0.4,0.1-0.9,0.2-1.3c0.7-2.4,0.6-4.7-0.3-7.1c-0.5-1.4-0.4-3-0.7-4.5c-0.1-0.6-0.5-1.4-1.1-1.7c-2.7-1.3-4.5-3.5-6.4-5.7
			c-0.9-1.1-1.7-2.4-2.4-3.6c-0.2-0.2-0.2-0.6-0.3-0.9c0.1-0.1,0.2-0.2,0.2-0.4c1.1,0.5,2.2,1,3.2,1.6c1.4,1,2.8,2.2,4.2,3.2
			c1.8,1.3,3.1,1.3,4.6-0.2c2.8-2.8,5.5-5.9,8.2-8.8c0.6-0.6,1.2-1.1,1.8-1.7c1.3-1.2,2.7-2.3,3.9-3.5c0.8-0.9,1.6-1.1,2.7-1.3
			c0.7-0.1,1.3-0.6,1.9-0.9c0.7-0.2,1.4-0.5,2.2-0.7c-0.4,0.6-0.8,1.2-1.2,1.9c-0.4,0.7-0.2,1.2,0.7,1.2c1.8,0.1,3.6,0.2,5.4,0.2
			c0.3,0,0.6-0.3,0.9-0.4c0-0.1,0-0.1,0-0.2c0.3,0,0.6,0,0.9,0c0.5,0.1,1,0.3,1.4,0.4c1.6,0,3.3,0,4.9,0c3.8,0,7.6-0.1,11.4,0.2
			c3,0.2,3.1-0.4,3.4-2.5c0.2,0,0.3,0,0.5,0c-0.1,0.2-0.1,0.5-0.2,0.7c-0.4,2.4-0.8,2.8-3.4,2.9c-2.1-0.1-4.1-0.4-6.2-0.4
			c-3,0-6.1,0.1-9.1,0.2c-1.9,0.1-3.9,0.3-5.8,0.4c-1.5,0.1-3.1,0.5-4.6,0.3c-1-0.1-1.3,0.3-1.8,0.8c-1.5,1.5-3.1,3-4.7,4.4
			c-1.6,1.4-3.3,2.7-4.7,4.2c-2.1,2.2-3.9,4.6-5.9,6.8c-1,1.1-1.4,2.2-1.6,3.7c-0.6,4.2-0.4,8.3-0.3,12.5c0.1,2.8,0.3,5.6,0.4,8.5
			c0.1,1.3,0.1,2.6,0,3.9C946.8,576.5,947.4,578,946.3,579.4z M962.8,529.5c-0.3-0.7-0.5-1.1-0.7-1.6c-0.4,0.2-0.9,0.4-1.2,0.7
			c-1.2,1-2.3,2.1-3.4,3.1c-1,0.9-2.3,1.6-3.2,2.6c-1.9,2.1-3.5,4.3-5.4,6.4c-1.4,1.6-2.5,3.7-5.2,3.8c-0.5,0-0.9,1.4-1.3,2.2
			c0.5,0.2,0.9,0.5,1.4,0.7c0.2,0.1,0.6,0.1,0.8,0.3c0.9,0.6,1.5,0.2,2-0.5c1.1-1.5,2.3-3,3.5-4.6c3.3-4.3,7.7-7.6,11.4-11.4
			C962.1,530.8,962.4,530.1,962.8,529.5z"/>
		<path class="st0" d="M946.3,579.4c1.1-1.3,0.5-2.9,0.7-4.4c0.1-1.3,0.1-2.6,0-3.9c-0.1-2.8-0.3-5.6-0.4-8.5
			c-0.2-4.2-0.4-8.3,0.3-12.5c0.2-1.4,0.6-2.6,1.6-3.7c2-2.2,3.8-4.6,5.9-6.8c1.4-1.5,3.2-2.8,4.7-4.2c1.6-1.4,3.2-2.9,4.7-4.4
			c0.6-0.6,0.9-0.9,1.8-0.8c1.5,0.1,3.1-0.2,4.6-0.3c1.9-0.1,3.9-0.3,5.8-0.4c3-0.1,6.1-0.2,9.1-0.2c2.1,0,4.1,0.3,6.2,0.4
			c0,0.2,0,0.3,0,0.5c-0.7,0.1-1.4,0.2-2.1,0.2c-2.8-0.1-5.6-0.4-8.5-0.4c-3.7,0.1-7.3,0.4-11,0.6c-1,0.1-2,0.2-3,0.2
			c-1.1,0-1.9,0.5-2.7,1.3c-3.2,3.1-6.6,6-9.8,9.1c-2.2,2.2-4.2,4.5-5.9,7c-0.8,1.1-0.8,2.8-0.8,4.3c-0.2,6.1,0.1,12.2,0.6,18.2
			c0.2,2.3,0.1,4.5,0,6.8C948.2,578.9,947.3,579.2,946.3,579.4z"/>
		<path class="st0" d="M994.9,526.2c-0.2,0-0.3,0-0.5,0c0-0.2,0-0.4,0-0.7c0.3-0.1,0.6-0.2,1-0.3c0,0.2,0,0.3,0,0.5
			C995.2,525.8,995.1,526,994.9,526.2z"/>
		<path class="st5" d="M886.4,459.5c-0.2,0.3-0.4,0.7-0.6,1c-2.1,1.8-4.2,3.6-6.4,5.4c-0.2,0.2-0.6,0.2-0.9,0.3c0-0.1,0-0.2,0-0.2
			C881.1,463.9,883.7,461.7,886.4,459.5z"/>
		<path class="st5" d="M892.4,454.5c-1,0.9-2.1,1.8-3.1,2.6c0.6-0.9,1.3-1.8,1.9-2.6C891.6,454.5,892,454.5,892.4,454.5
			C892.4,454.5,892.4,454.5,892.4,454.5z"/>
		<path class="st20" d="M892.4,454.5c-0.4,0-0.8,0-1.2,0c-0.5-0.6-1-1.1-1.4-1.7c0-0.2,0-0.3,0-0.5
			C890.6,453.1,891.5,453.8,892.4,454.5z"/>
		<path class="st5" d="M889.3,457.2c-1,0.8-1.9,1.6-2.9,2.4C887,458.3,887.9,457.5,889.3,457.2z"/>
		<path class="st14" d="M996.1,597.3c0.3-0.2,0.6-0.5,1-0.7c-0.2,0.2-0.3,0.5-0.5,0.7C996.4,597.3,996.3,597.3,996.1,597.3z"/>
		<path class="st8" d="M943.2,503.4c0.2-0.2,0.3-0.3,0.5-0.5c0.1,0.2,0.2,0.3,0.2,0.5c0,0.2,0,0.3,0,0.5c0,0.4,0,0.8,0,1.2
			c0.4,0,0.8,0,1.1-0.1c1.4-0.7,2.7-0.3,3.6,0.6c2.4,2.5,4.7,5.2,7.1,7.8c0.2,0.2,0.3,0.4,0.4,0.6c0.6,2,1.2,4.1,1.9,6.5
			c-0.7-0.5-1.2-0.7-1.7-1.1c-2.9-2.7-5.9-5.3-8.8-8.1c-0.9-0.8-1.6-1.9-2.5-2.7c-1.4-1.4-2.1-1.3-3.5,0c-0.5,0.4-1.1,0.7-1.6,1
			c0.9-0.9,1.7-1.9,2.6-2.8c0.6-0.6,1-1.1,0.5-2C943,504.4,943.1,503.9,943.2,503.4z M956,518.1c-0.1-2.5-1.1-4.4-2.2-6
			c-1.6-2.2-3.7-4.1-5.7-6.1c-1.3-1.3-2.7-1.2-3.7,0.1c-0.2,0.2-0.2,0.9,0,1.1c2.7,2.7,5.5,5.4,8.2,8.1
			C953.6,516.3,954.7,517.1,956,518.1z"/>
		<path class="st22" d="M943.4,502.2c-0.2-0.5-0.5-0.9-0.4-1.4c0.2-2.3-0.5-4.6,0.1-6.9c0.3-1.2-0.1-2.5-0.1-3.8
			c0-0.5,0.1-1.1,0.2-1.6c0.2,0.3,0.4,0.7,0.4,1C943.6,493.8,943.5,498,943.4,502.2z"/>
		<path class="st22" d="M943.9,503.9c0-0.2,0-0.3,0-0.5c0.6,0,1.1,0,1.7,0c0,0.1,0,0.2,0,0.2C945,503.7,944.4,503.8,943.9,503.9z"/>
		<path class="st22" d="M943.2,487.8c0.1-0.3,0.2-0.6,0.2-1C943.3,487.2,943.2,487.5,943.2,487.8z"/>
		<path class="st21" d="M970.2,599.3c0.5-0.1,1-0.2,1.5-0.2c2.5,0,5,0,7.5,0c1.1,0,2.3-0.3,3.4-0.3c1.8,0,3.5,0.2,5.3,0.3
			c-1.6,0.2-3.2,0.4-4.8,0.4c-3.8,0.1-7.6,0-11.4,0C971.2,599.5,970.7,599.3,970.2,599.3z"/>
		<path class="st21" d="M990.9,598.8c0.4,0,0.8,0,1.2,0C991.7,599.4,991.3,599.4,990.9,598.8z"/>
		<path class="st21" d="M988.7,599c0.2-0.1,0.5-0.1,0.7-0.2C989.2,598.9,988.9,598.9,988.7,599z"/>
		<path class="st9" d="M874.4,471.3c0,1.1,0,2.1,0,3.2c0,1.9-0.1,3.9-0.1,5.8c0,1.8-0.1,3.6-0.1,5.3c0,3.6,0,7.2,0,10.7
			c0,1.6-0.1,3.2-0.3,4.7c-0.1,0.6-0.6,1.2-0.9,1.8c0.7-1.9,0.5-3.8,0.3-5.8c-0.2-1.6-0.3-3.2-0.3-4.8c0-4.3-0.1-8.6,0-12.9
			C873,476.7,873.3,473.9,874.4,471.3z"/>
		<path class="st9" d="M877.8,467.2c-0.2,0.2-0.5,0.3-0.7,0.5C877.3,467.5,877.5,467.4,877.8,467.2z"/>
		<path class="st9" d="M887.3,535.3c-0.5,0.5-0.9,1.1-1.4,1.6c-3.2,2.9-6.5,5.9-9.8,8.8c-2.2,1.9-3,4.2-3,7c0,0.8-0.2,1.5-0.2,2.3
			c0,1.5,0,3-0.1,4.5c0,1.4-0.1,2.8-0.1,4.2c0,1.9,0,3.7-0.1,5.6c-0.1,3.3-0.2,6.5-0.2,9.8c-0.2,0.1-0.5,0.2-0.7,0.2c0-2,0-4,0-6
			c0-2.7,0.1-5.3,0.1-8c0.1-1.7,0.2-3.3,0.3-5c0.1-3.1,0-6.2,0.3-9.2c0.2-1.5,1-3,1.9-4.3c1.8-2.8,4.7-4.6,7.2-6.7
			c1.6-1.4,3.2-2.8,4.8-4.1C886.7,535.6,887,535.5,887.3,535.3z"/>
		<path class="st9" d="M888.5,534.3c-0.4,0.3-0.8,0.6-1.2,1C887.7,535,888.1,534.6,888.5,534.3z"/>
		<path class="st21" d="M995.4,525.2c-0.3,0.1-0.6,0.2-1,0.3c-0.1,0-0.2,0-0.2,0c0-0.2,0-0.3,0-0.5c0.2-0.3,0.4-0.6,0.6-0.9
			c-0.3-0.2-0.7-0.6-1-0.6c-0.7-0.1-1.3,0.1-2,0.1c-3.4,0.2-6.7,0.3-10.1,0.5c-0.8,0-1.7-0.1-1.9,1c-0.2,0-0.5,0-0.7,0
			c-1.2-0.4-2.4-0.6-3.6,0.2c-0.3,0-0.6,0-1,0.1c-1.2,0-2.4,0-3.6,0.1c-0.8,0-1.6,0-2.3,0c-0.2,0-0.5,0-0.7,0c-0.2,0-0.3,0-0.5,0
			c-0.2-0.1-0.3-0.2-0.5-0.2c-0.2-1.2,0-1.6,1.3-1.7c0.1,0,0.2,0,0.2,0c3.6-0.1,7.2-0.2,10.8-0.2c3.9,0,7.9,0,11.8-0.1
			c0.8,0,1.6-0.6,2.4-0.9c0.2,0,0.5,0,0.7,0c1.9,0.7,3.5-0.2,5.2-0.9c0.1,0.1,0.2,0.2,0.2,0.3c-0.3,0.4-0.6,0.8-0.9,1.2
			c-0.6,0.7-1.1,1.4-1.7,2.1C996.5,524.9,996,525,995.4,525.2z"/>
		<path class="st15" d="M891.9,597.8c0.1,0.1,0.2,0.2,0.2,0.2c0,0.1,0,0.2,0,0.2c-0.4,0.3-0.8,0.6-1.2,1c-0.5,0.2-1,0.4-0.2,1
			c0,0.2,0,0.3,0,0.5c-0.1,0.1-0.2,0.2-0.2,0.2c-1.6-1.4-3.2-2.7-4.7-4.2c-3.1-2.8-6.2-5.6-9.2-8.5c-1.6-1.5-3.1-3.1-4.5-4.7
			c-1.2-1.3-1.1-2.3,0.3-3.3c0.2-0.1,0.7-0.1,0.9,0.1c0.8,0.6,1.6,1.4,2.3,2.1c2.3,2.2,4.7,4.4,7,6.7c2.5,2.5,5,5.1,7.4,7.8
			C890.5,597.3,891,597.9,891.9,597.8z"/>
		<path class="st14" d="M982.5,597.8c0.3-0.2,0.6-0.4,0.9-0.4c1.6,0,3.2,0.1,4.8,0.1c0.9,0,1.8,0.1,2.7,0.1
			c-0.7,0.2-1.4,0.4-2.1,0.4C986.6,598,984.6,597.9,982.5,597.8z"/>
		<path class="st14" d="M974.6,597.8c0.5,0,1,0,1.4,0C975.5,597.8,975,597.8,974.6,597.8z"/>
		<path class="st14" d="M991.3,597.6c0.5-0.1,1-0.2,1.4-0.2C992.3,597.4,991.8,597.5,991.3,597.6z"/>
		<path class="st14" d="M972.2,597.8c0.4-0.6,0.8-0.6,1.2,0C973,597.8,972.6,597.8,972.2,597.8z"/>
		<path class="st14" d="M970.5,597.8c0.3-0.6,0.6-0.6,1,0C971.1,597.8,970.8,597.8,970.5,597.8z"/>
		<path class="st14" d="M978.2,597.8c0.3-0.6,0.6-0.6,1,0C978.8,597.8,978.5,597.8,978.2,597.8z"/>
		<path class="st15" d="M921.4,597.8c0,0.2,0,0.5,0,0.7c-0.2,0-0.3,0-0.5,0c-1.1,0.1-2.3,0.2-3.4,0.3c-0.1,0-0.3,0.2-0.4,0.4
			c-0.7,0-1.4,0-2.2,0c-1.1-0.1-2.3-0.2-3.4-0.2c-2.4,0.1-4.7,0.4-7.1,0.4c-2.7-0.1-5.4-0.5-8.1-0.8c-1.1-0.1-2.3-0.4-3.4-0.6
			c1.1-0.1,2.1-0.2,3.2-0.2c5.7,0.1,11.3,0.3,17,0.4C915.8,598.2,918.6,598,921.4,597.8z"/>
		<path class="st11" d="M917,599.2c0.1-0.1,0.3-0.4,0.4-0.4c1.1-0.1,2.3-0.2,3.4-0.3c-0.8,0.2-1.7,0.5-2.5,0.7
			C917.9,599.3,917.5,599.2,917,599.2z"/>
		<path class="st24" d="M973.8,453.8c-0.4,0-0.8,0-1.2,0c-1.3-0.1-2.7-0.2-4-0.2c-1,0-1.8-0.3-2.1-1.6c9.6,0,19.1,0,28.6,0
			c0.1,1.2-0.5,1.6-1.5,1.5c-1.9-0.1-3.9-0.4-5.8-0.5c-2.3-0.1-4.7,0-7,0c-2,0-4,0.2-6,0.3C974.5,453.4,974.2,453.7,973.8,453.8z"/>
		<path class="st14" d="M998.5,595.2c0.7-0.8,1.3-1.6,2.1-2.4c1.8-1.7,3.7-3.4,5.6-5.1c0,0,0,0.1,0,0.1
			C1003.6,590.3,1001.1,592.7,998.5,595.2z"/>
		<path class="st14" d="M1009.1,584.6c0.6-0.6,1.1-1.1,1.7-1.7C1010.2,583.5,1009.6,584.1,1009.1,584.6z"/>
		<path class="st14" d="M1006.9,586.8c0.2-0.2,0.5-0.5,0.7-0.7C1007.4,586.3,1007.1,586.6,1006.9,586.8z"/>
		<path class="st11" d="M890.7,600.2c-0.7-0.5-0.3-0.8,0.2-1C890.8,599.6,890.8,599.9,890.7,600.2z"/>
		<path class="st15" d="M942.9,504.8c0.5,0.8,0.1,1.4-0.5,2c-0.9,0.9-1.7,1.9-2.6,2.8c-0.9,1-1.8,1.9-2.6,2.9
			c-0.3,0.2-0.6,0.3-0.9,0.6c-1.6,1.5-3.3,3-4.8,4.6c-2.6,2.6-5.1,5.2-7.7,7.7c-0.4,0.4-0.9,0.5-1.4,0.8c-0.2-0.1-0.5-0.2-0.7-0.2
			c0.1-0.2,0.2-0.3,0.2-0.5c0.2-0.2,0.3-0.3,0.5-0.5c0-0.1,0-0.2,0-0.2c0.9-0.7,1.9-1.4,2.8-2.2c3.2-3.1,6.3-6.3,9.7-9.2
			C937.7,510.7,940.5,508,942.9,504.8z"/>
		<path class="st8" d="M922.3,526.2c0.5-0.3,1-0.4,1.4-0.8c2.6-2.6,5.1-5.2,7.7-7.7c1.6-1.6,3.2-3.1,4.8-4.6
			c0.3-0.2,0.6-0.4,0.9-0.6c-0.1,0.2-0.2,0.5-0.4,0.7c-1.6,1.7-3.1,3.4-4.8,5c-1.6,1.7-3.3,3.3-5,4.9c-0.5,0.5-1.1,0.9-1.6,1.4
			c-0.3,0.3-0.5,0.7-0.7,1.1c0,0,0,0,0,0c-0.4,0.2-0.8,0.5-1.2,0.6C923.1,526.4,922.7,526.2,922.3,526.2z"/>
		<path class="st20" d="M967.4,525.2c0.2,0,0.3,0,0.5,0c0,0.1,0,0.3,0,0.4c-0.3,0.2-0.6,0.3-0.9,0.5c0,0.2,0,0.5,0,0.7
			c0,0.2,0,0.3,0,0.5c-0.4,0.8,0.3,0.8,0.7,0.9c1,0,1.9,0,2.9,0c0.6,0,1.3,0,1.9,0c-0.3,0.2-0.6,0.4-0.9,0.4c-1.8,0-3.6-0.1-5.4-0.2
			c-0.8,0-1.1-0.5-0.7-1.2c0.4-0.6,0.8-1.3,1.2-1.9C966.9,525.4,967.1,525.3,967.4,525.2z"/>
		<path class="st17" d="M920.4,522.8c-0.8,0.1-1.6,0.2-2.4,0.2c-0.3-0.1-0.6-0.2-1-0.2c1-0.2,2.2-0.2,2.9-0.7c2-1.5,3.8-3.3,5.7-5
			c1.3-1.3,2.6-2.6,3.8-3.8c0.4-0.2,0.8-0.5,1.2-0.7c0.2-0.2,0.3-0.3,0.5-0.5c0.3-0.3,0.7-0.6,0.9-0.9c1.4-1.5,2.9-3.1,4.3-4.6
			c0.1-0.1,0.2-0.2,0.2-0.2c1.2-1.1,2.4-2.2,3.6-3.4c0.4-0.1,0.8-0.2,1.2-0.2c-0.2,0.2-0.3,0.4-0.5,0.6c-1,1-2.1,1.9-3,2.9
			c-2.6,2.9-5.1,5.9-7.7,8.8c-1.1,1.2-2.2,2.3-3.4,3.3C924.8,519.9,923.1,522.1,920.4,522.8z"/>
		<path class="st3" d="M925.7,517.1c-1.9,1.7-3.7,3.5-5.7,5c-0.7,0.6-2,0.5-2.9,0.7c-0.2,0-0.3,0-0.5,0c-0.8,0.1-1.6,0.2-2.4,0.2
			c-0.2,0-0.3,0-0.5,0c-0.6-0.4-1-0.2-1.2,0.5c-0.1,0-0.2,0-0.2,0c-0.1,0-0.2,0-0.2,0c-0.8-0.1-1.6-0.2-2.4-0.2c-0.6,0-1.1,0-1.7,0
			c0.3-0.2,0.7-0.7,1-0.7c2.9-0.2,5.8-0.4,8.7-0.5c1.6-0.1,2.9-0.9,4-1.9c1-0.8,1.9-1.7,2.8-2.6
			C924.9,517.4,925.3,517.2,925.7,517.1z"/>
		<path class="st3" d="M936.5,506.5c-1.4,1.5-2.9,3.1-4.3,4.6c-0.3,0.3-0.6,0.6-0.9,0.9c0.1-0.3,0-0.8,0.2-1
			c1.4-1.4,2.9-2.8,4.3-4.1C935.9,506.7,936.2,506.6,936.5,506.5z"/>
		<path class="st3" d="M930.7,512.5c-0.4,0.2-0.8,0.5-1.2,0.7C929.9,513,930.3,512.7,930.7,512.5z"/>
		<path class="st16" d="M877.2,491.7c0.1-4.9,0.8-8.8,2.7-12.3c1.7-3.1,4-5.8,6.7-8.2c3.7-3.3,7.8-5.9,12.4-7.8
			c3.7-1.5,7.5-2.5,11.5-2.5c1.5,0,3.1,0.2,4.6,0c2.7-0.3,4.6,1,6.4,2.6c0.6,0.6,1.2,1.1,1.9,1.6c1.3,1,2.5,2,2.2,3.9
			c0,0.2,0.1,0.4,0.1,0.6c0.6,1.6,0.5,2-0.9,3.1c-2.8,2-5.8,1.6-8.8,0.7c-2.6-0.7-5.3-1.9-8-2c-5.3-0.3-10.2,1.2-13.5,5.8
			c-3.2,4.4-4.8,9.4-5.5,14.8c-0.2,2-0.7,3.9-1.3,5.8c-0.9,2.5-2.8,3.9-5.3,4.5c-0.8,0.2-1.3,0-1.7-0.8c-0.1-0.3-0.3-0.7-0.5-0.8
			c-1.9-0.6-2-2.2-2.2-3.7C877.8,495,877.4,492.9,877.2,491.7z"/>
		<path class="st11" d="M909.6,523.3c0.8,0.1,1.6,0.2,2.4,0.2c0,0.1,0,0.2,0,0.2c-0.8,0.1-1.6,0.2-2.4,0.2
			C909.6,523.8,909.6,523.5,909.6,523.3z"/>
		<path class="st5" d="M905.5,454.5c0.8,0,1.6,0,2.4,0C907.1,454.5,906.3,454.5,905.5,454.5z"/>
		<path class="st2" d="M898.9,556.3c-1.1,1.3-2.3,2.5-3.3,3.8c-3.2,4.1-5.2,8.9-7.1,13.6c-1,2.4-2,4.8-4.2,6.4
			c-1.5,1.1-3.8,1.2-5.3,0c-1.6-1.3-3.2-2.5-4.8-3.9c-0.4-0.4-0.7-1.1-0.7-1.7c0-3.2-0.4-6.4,0.1-9.6c0.3-1.9,0.1-4,0.1-5.9
			c0-5.6,2.2-10.3,6-14.3c3-3.2,6.3-5.9,10.1-7.9c4.4-2.3,9.1-3.9,14.1-4.2c0.8,0,1.6-0.3,2.3-0.5c0.3-0.1,0.6-0.2,0.9-0.2
			c4.2,0.4,8.4-1,12.5,0.7c1.8,0.7,3.6,1.5,5.3,2.4c2.5,1.3,4.5,3.2,6.1,5.6c2.1,3-0.1,6.8-2.6,8.1c-2.8,1.4-5.6,1.1-8.4,0.6
			c-1.8-0.3-3.6-0.9-5.4-0.9c-1.8,0-3.6,0.6-5.3,1.1c-0.3,0.1-0.7,1.1-0.5,1.4c0.9,1.9,0.7,3.8,0,5.7c-0.9,2.7-1.7,5.5-2.6,8.2
			c-0.8,2.5-2.5,3.8-5.1,4c-0.2,0-0.5,0-0.7,0c-2-0.4-3.8-3.5-3.2-5.4c0.6-1.8,1.2-3.5,1.8-5.3c0.1-0.5,0.2-0.9,0.3-1.4
			C899.3,556.5,899.1,556.4,898.9,556.3z"/>
		<path class="st23" d="M904.9,597.3c-1.6,0-3.2,0.1-4.8,0c-0.9-0.1-1.9-0.2-2.8-0.6c-1-0.4-1.1-1.5-1.1-2.5
			c0.1-1.9,1.1-3.2,2.8-3.8c3-1,6.1-1.8,9.2-2.7c5-1.4,9.3-3.9,13-7.5c1.9-1.9,3.9-3.7,5.4-5.8c1.1-1.6,1.6-3.6,2.3-5.4
			c0.3-0.8,0.5-1.8,0.9-2.6c1.6-3,5.4-3.3,7.2-0.4c2,3,2.2,6.2,1,9.6c-1.1,3-3.1,5.4-5.3,7.6c-3.2,3-6.4,6-9.8,8.7
			c-4.7,3.7-10.1,5.9-16.3,5.5C906.1,597.3,905.5,597.3,904.9,597.3z"/>
		<path class="st15" d="M940.8,580.1c-0.5,0.8-0.8,1.8-1.4,2.4c-2.5,2.4-5,4.8-7.6,7.1c-2.2,2-4.5,3.9-6.8,5.8
			c-0.6,0.5-1.5,0.8-2.2,1.2c0.6-0.6,1.3-1.3,1.9-1.9c0.2-0.2,0.3-0.3,0.5-0.5c1-1,2.1-1.9,3.1-2.9c0.6-0.6,1.3-1.3,1.9-1.9
			c0.6-0.6,1.3-1.1,1.9-1.7c0.2-0.2,0.5-0.5,0.7-0.7c0.4-0.3,0.8-0.6,1.2-1c0.3-0.3,0.6-0.6,1-1c0.2-0.2,0.5-0.3,0.7-0.5
			c0.4-0.4,0.8-0.8,1.2-1.2c0.3-0.2,0.6-0.5,1-0.7c0.2-0.2,0.5-0.5,0.7-0.7C939.3,581.4,940.1,580.7,940.8,580.1z"/>
		<path class="st4" d="M922.3,526.2c0.4,0.1,0.8,0.2,1.2,0.2c0.4-0.1,0.8-0.4,1.2-0.6c-0.3,1-1.1,1.5-2.2,1.4c-0.6,0-1.3,0-1.9,0
			c-0.2,0.1-0.3,0.1-0.5,0.2c-0.2,0-0.4,0-0.7,0c0-0.1,0-0.1,0-0.2c0.1-0.2,0.1-0.4,0.2-0.5c0.6-0.2,1.3-0.5,1.9-0.7
			C921.8,526,922.1,526.1,922.3,526.2z"/>
		<path class="st4" d="M930.2,589.4c-0.6,0.6-1.3,1.3-1.9,1.9C929,590.7,929.6,590.1,930.2,589.4z"/>
		<path class="st4" d="M936.9,583.4c-0.4,0.4-0.8,0.8-1.2,1.2C936.1,584.2,936.5,583.8,936.9,583.4z"/>
		<path class="st4" d="M935,585.1c-0.3,0.3-0.6,0.6-1,1C934.4,585.8,934.7,585.4,935,585.1z"/>
		<path class="st4" d="M938.6,582c-0.2,0.2-0.5,0.5-0.7,0.7C938.1,582.5,938.4,582.2,938.6,582z"/>
		<path class="st4" d="M932.9,587c-0.2,0.2-0.5,0.5-0.7,0.7C932.4,587.5,932.6,587.3,932.9,587z"/>
		<path class="st4" d="M925.2,594.2c-0.2,0.2-0.3,0.3-0.5,0.5C924.9,594.5,925,594.4,925.2,594.2z"/>
		<path class="st26" d="M1000.9,541c0,4.1-3.1,6.6-6.5,5.9c-0.9-0.2-1.8-0.6-2.7-0.7c-1.9-0.1-3.9-0.2-5.8,0
			c-2.2,0.3-4.3,0.8-6.4,1.3c-0.9,0.2-1.7,0.6-2.6,0.9c-0.3,0.1-0.6,0.3-0.9,0.2c-2.4-0.2-4,1-5.3,2.9c-0.4,0.6-1,1.1-1.6,1.4
			c-2.4,1.4-3.7,3.6-4.7,6.1c-1.2,2.8-2.4,5.7-2.6,8.8c0,0.3-0.4,0.9-0.6,0.9c-1.2,0.1-2.4,0.1-3.6,0.1c-0.8,0-1.6,0-2.4,0.2
			c-0.9,0.2-1.5-0.1-1.5-1.1c0-1.1-0.6-1.5-1.5-1.6c-0.5-0.1-1-0.1-1.4-0.4c-0.4-0.3-0.6-0.8-0.8-1.3c-0.3-1.1-0.4-2.2-0.9-3.3
			c-0.4-1.1-0.8-2-0.5-3.2c1.1-4.3,2.4-8.6,4.7-12.5c1.3-2.3,3.3-3.8,5.3-5.3c3.7-2.8,7.6-5.1,11.8-7c0.5-0.2,1.1-0.4,1.7-0.5
			c3-0.7,6.1-1.2,9.2-1.1c0.8,0,1.5-0.3,2.3-0.2c2.5,0.3,4.9,0.7,7.4,1.1c0.2,0,0.5,0.2,0.6,0.3c1.2,1.9,3.3,2.3,5,3.1
			C999.1,537.1,1000.8,538.7,1000.9,541z"/>
		<path class="st19" d="M914.9,453.6c-0.8,0.1-1.6,0.4-2.4,0.4c-4.4,0-8.9,0-13.3-0.1c-0.3,0-0.5-0.1-0.8-0.1c0.7-0.2,1.3-0.4,2-0.4
			c3.6,0,7.2,0,10.8,0C912.4,453.3,913.6,453.5,914.9,453.6z"/>
		<path class="st11" d="M920.4,522.8c2.7-0.7,4.4-2.9,6.4-4.6c1.2-1,2.4-2.1,3.4-3.3c2.6-2.9,5.1-5.9,7.7-8.8c0.9-1,2-1.9,3-2.9
			c0.2-0.2,0.4-0.4,0.5-0.6c0.6,0.2,1.1,0.5,1.7,0.7c-0.1,0.5-0.2,1-0.2,1.4c-2.4,3.2-5.2,5.9-8.2,8.5c-3.3,2.9-6.4,6.2-9.7,9.2
			c-0.9,0.8-1.8,1.5-2.8,2.2C922.3,523.5,921,523.5,920.4,522.8z"/>
		<path class="st7" d="M919,526.9c-1.8-1-3.7-0.6-5.6-0.7c-0.6,0-1.1-0.2-1.7-0.4c2.3,0.1,4.6,0.3,6.9,0.4c0.3,0,0.5,0.3,0.8,0.4
			c0,0.1,0,0.2,0,0.3C919.3,526.9,919.1,526.9,919,526.9z"/>
		<path class="st17" d="M914.2,523.1c0.8-0.1,1.6-0.2,2.4-0.2c0,0.2,0,0.5,0,0.7c-0.6,0-1.1,0-1.7,0
			C914.7,523.4,914.4,523.2,914.2,523.1z"/>
		<path class="st17" d="M912.5,523.5c0.2-0.7,0.6-0.8,1.2-0.5c0,0.2,0,0.5,0,0.7c-0.4,0-0.8,0-1.2,0
			C912.5,523.7,912.5,523.6,912.5,523.5z"/>
		<path class="st11" d="M916.6,523.5c0-0.2,0-0.5,0-0.7c0.2,0,0.3,0,0.5,0c0.3,0.1,0.6,0.2,1,0.2
			C917.5,523.2,917.1,523.4,916.6,523.5z"/>
		<path class="st11" d="M913.7,523.8c0-0.2,0-0.5,0-0.7c0.2,0,0.3,0,0.5,0c0.2,0.2,0.5,0.3,0.7,0.5
			C914.5,523.6,914.1,523.7,913.7,523.8z"/>
		<path class="st11" d="M922.3,525c-0.2,0.2-0.3,0.3-0.5,0.5C922,525.3,922.2,525.1,922.3,525z"/>
		<path class="st20" d="M919.4,526.9c0-0.1,0-0.2,0-0.3c0.1,0,0.2,0,0.2,0c-0.1,0.2-0.1,0.4-0.2,0.5
			C919.5,527.1,919.5,527,919.4,526.9z"/>
		<path class="st17" d="M912,523.8c0-0.1,0-0.2,0-0.2c0.1,0,0.2,0,0.2,0c0,0.1,0,0.2,0,0.2h-0.1H912z"/>
		<path class="st11" d="M912.3,523.8c0-0.1,0-0.2,0-0.2c0.1,0,0.2,0,0.2,0c0,0.1,0,0.2,0,0.2C912.4,523.8,912.3,523.8,912.3,523.8z"
			/>
		<path class="st19" d="M905.1,528.3c-0.3,0.1-0.5,0.4-0.8,0.4c-2.8,0-5.7-0.1-8.5-0.2c-0.3,0-0.7-0.3-1-0.5
			C898.2,528.2,901.6,528.3,905.1,528.3z"/>
		<path class="st19" d="M915.9,527.9c-0.1,0.1-0.3,0.4-0.4,0.4c-1.6,0-3.2-0.1-4.8-0.1C912.3,528,914.1,527.9,915.9,527.9z"/>
		<path class="st19" d="M894,528.1c-0.6-0.1-1.1-0.2-1.7-0.3C892.9,527.9,893.5,528,894,528.1z"/>
		<path class="st19" d="M908.4,528.3c-0.3,0-0.6,0-1,0C907.8,528.3,908.1,528.3,908.4,528.3z"/>
		<path class="st19" d="M917.8,527.8c-0.2,0-0.5,0-0.7,0C917.3,527.8,917.5,527.8,917.8,527.8z"/>
		<path class="st19" d="M919.4,526.9c0,0.1,0,0.2,0,0.3c0,0.1,0,0.1,0,0.2c-0.2,0.1-0.4,0.2-0.5,0.3c0-0.2,0-0.5,0-0.7
			C919.1,526.9,919.3,526.9,919.4,526.9z"/>
		<path class="st19" d="M909.9,528.1c-0.2,0.1-0.3,0.1-0.5,0.2C909.5,528.2,909.7,528.2,909.9,528.1z"/>
		<path class="st27" d="M1001.7,564.4c0.2-1.1,0.3-3.2,1-5.1c1.3-3.2,5-4,7.7-1.8c1.9,1.5,3,3.5,3.1,6c0.1,3.1,0.3,6.2-0.1,9.2
			c-0.3,2.2-1.2,4.4-2.4,6.3c-3.4,5.8-8,10.4-13.9,13.6c-3.3,1.8-6.9,2.5-10.7,2.9c-5.2,0.5-10.3,0-15.3-0.8c-2.6-0.4-5.1-1-7.2-2.9
			c-1.8-1.6-3.8-3-5.6-4.6c-1.1-1-2-2.2-2.8-3.5c-1.2-1.9-0.2-3.7,0.9-5.2c1.1-1.4,2.9-1.6,4.6-1.4c2.4,0.4,4.5,1.3,6.5,2.8
			c3,2.3,6.5,3,10.1,3.2c2.5,0.2,5,0.2,7.5,0c5-0.3,9-2.5,12.2-6.3c1.3-1.5,2.4-3.1,3.3-4.8C1001.8,570,1002.1,567.7,1001.7,564.4z"
			/>
		<path class="st22" d="M1014.3,559.3c-1.5-1.3-2.7-2.7-4.2-3.6c-2.7-1.6-6.1-0.7-8,1.9c-1,1.4-1.5,2.9-1.5,4.6c0,2,0,4.1-0.3,6.1
			c-0.3,2.6-1.5,4.8-3.1,6.8c-3.8,4.8-8.7,7.1-14.9,7.1c-3.6,0-7.3-0.2-10.7-1.5c-2-0.8-3.8-2-5.7-2.9c-0.8-0.4-1.7-0.7-2.5-1
			c-0.8-0.3-1.7-0.5-2.6-0.8c0-0.1,0-0.3,0-0.4c1,0,1.9,0,2.9,0c0.8,0,1.6,0,2.4,0c1.1-0.1,2.2-0.6,3.2,0.3c0.1,0.1,0.3,0.1,0.5,0
			c0.9-0.6,2.1-1,2.8-1.8c1-1.3,1.7-2.9,2.4-4.4c1.2-2.5,2.1-5.3,3.6-7.7c2-3.2,4.8-5.6,8.5-6.8c1.7-0.5,3.6-0.9,5.4-0.8
			c3.4,0.1,6.6-0.7,9.5-2.4c3.1-1.8,6.2-3.7,6.4-7.9c0.1-1.2,0-2.3,0-3.7c0.7,0.5,1.4,1,2,1.5c0.9,0.7,1.8,1.5,2.6,2.3
			c0.2,0.2,0.3,0.6,0.3,0.9c-0.5,2.2-0.2,4.3,0.5,6.5c0.3,0.9,0.4,1.9,0.5,2.8C1014.3,556,1014.3,557.6,1014.3,559.3z"/>
		<path class="st22" d="M989.2,596.7c3-0.9,6.1-1.9,9.1-2.8c-0.6,1.1-1.3,2.2-2.6,2.4c-2.1,0.3-4.3,0.4-6.5,0.6
			C989.2,596.9,989.2,596.8,989.2,596.7z"/>
		<path class="st22" d="M966.4,595.1c3.4,0.6,6.6,1.1,10,1.7c-0.5,0.1-0.7,0.2-0.9,0.2c-2.3-0.1-4.7-0.2-7-0.2
			C967.3,596.9,966.9,596.2,966.4,595.1z"/>
		<path class="st22" d="M953.5,582.1c-1.1-1-1-1.6,0.4-2.2C953.7,580.7,953.6,581.3,953.5,582.1z"/>
		<path class="st22" d="M1012.8,579.1c0.3-0.6,0.6-1.2,0.9-1.9C1014.2,577.9,1014.1,578.3,1012.8,579.1z"/>
		<path class="st7" d="M962.8,529.5c-0.4,0.6-0.7,1.3-1.2,1.8c-3.8,3.9-8.1,7.1-11.4,11.4c-1.2,1.5-2.3,3-3.5,4.6
			c-0.6,0.7-1.1,1.1-2,0.5c-0.2-0.2-0.5-0.2-0.8-0.3c-0.5-0.2-1-0.5-1.4-0.7c0.4-0.8,0.8-2.2,1.3-2.2c2.6-0.1,3.7-2.2,5.2-3.8
			c1.9-2.1,3.5-4.3,5.4-6.4c0.9-1,2.2-1.7,3.2-2.6c1.2-1,2.3-2.1,3.4-3.1c0.3-0.3,0.8-0.4,1.2-0.7
			C962.4,528.4,962.5,528.8,962.8,529.5z"/>
		<path class="st25" d="M966.9,527.4c0-0.2,0-0.3,0-0.5c0-0.2,0-0.5,0-0.7c0.3-0.2,0.6-0.3,0.9-0.5c0.3-0.1,0.5-0.3,0.8-0.4
			c0.8,0,1.6,0,2.3,0c0.2,0.2,0.4,0.6,0.6,0.6c1,0,2-0.1,3-0.2c0.6,0,1.1,0,1.7,0c0.2,0,0.3,0,0.5,0c0.7,0,1.3,0.1,2,0
			c0.7-0.1,1.4-0.3,2.1-0.4c0.1,0,0.1,0,0.2,0c0.1,0,0.2,0,0.3,0c0.9,0.1,1.9,0.1,2.8,0.2c0.7,0,1.5,0,2.2,0c0.1,0,0.3,0,0.4,0
			c0.1,0,0.2,0,0.3,0c1.9-0.1,3.8-0.1,5.7-0.2c0.3,0.1,0.5,0.3,0.8,0.4c0,0.2,0,0.5,0,0.7c0,0,0,0,0,0c-0.2,0.1-0.5,0.2-0.7,0.2
			c-0.6,0-1.3,0-1.9,0c-0.4,0.1-0.8,0.1-1.2,0.2c-0.4,0.1-0.8,0.1-1.2,0.2c-1.5,0.1-3,0.2-4.6,0.3c-0.2,0-0.5,0-0.7,0
			c-0.8,0.1-1.6,0.2-2.4,0.2c-0.6,0.1-1.1,0.1-1.7,0.2c-0.6,0-1.3,0-1.9,0c-0.8,0.1-1.6,0.1-2.4,0.2c-0.5,0-1,0-1.4,0
			c-0.3,0-0.6,0-0.9,0c-0.7-0.2-1.4-0.6-1.9,0.2c-1,0-1.9,0-2.9,0C967.4,528,967.1,527.7,966.9,527.4z"/>
		<path class="st20" d="M993.5,525.7c-0.3-0.1-0.5-0.3-0.8-0.4c0.3,0,0.7,0,1,0c0.2,0.1,0.3,0.2,0.5,0.2c0.1,0,0.2,0,0.2,0
			c0,0.2,0,0.4,0,0.7c-0.3,2.1-0.4,2.7-3.4,2.5c-3.8-0.3-7.6-0.1-11.4-0.2c-1.6,0-3.3,0-4.9,0c0-0.2,0-0.3,0-0.5
			c0.8-0.1,1.6-0.1,2.4-0.2c0.6,0,1.3,0,1.9,0c0.6-0.1,1.1-0.1,1.7-0.2c0.8,0.3,1.7,0.6,2.4-0.2c0.2,0,0.5,0,0.7,0
			c1.5-0.1,3-0.2,4.6-0.3c0.4-0.1,0.8-0.1,1.2-0.2c0.4-0.1,0.8-0.1,1.2-0.2c0.6,0,1.3,0,1.9,0c0.2-0.1,0.5-0.2,0.7-0.2c0,0,0,0,0,0
			C993.5,526.2,993.5,525.9,993.5,525.7z"/>
		<path class="st19" d="M974.8,528.1c0,0.2,0,0.3,0,0.5c-0.5-0.1-1-0.3-1.4-0.4C973.8,528.1,974.3,528.1,974.8,528.1z"/>
		<path class="st19" d="M970.5,528.3c0.6-0.8,1.3-0.4,1.9-0.2c0,0.1,0,0.1,0,0.2C971.8,528.3,971.1,528.3,970.5,528.3z"/>
		<path class="st15" d="M956,518.1c-1.3-1.1-2.4-1.9-3.4-2.8c-2.8-2.7-5.5-5.4-8.2-8.1c-0.2-0.2-0.2-0.8,0-1.1
			c1-1.3,2.4-1.4,3.7-0.1c2,2,4.1,3.8,5.7,6.1C954.9,513.7,955.9,515.7,956,518.1z"/>
		<path class="st18" d="M993.7,525.2c-0.3,0-0.7,0-1,0c-1.9,0.1-3.8,0.1-5.7,0.2c-0.1,0-0.2,0-0.3,0c-0.1,0-0.3,0-0.4,0
			c-0.7,0-1.5,0-2.2,0c-0.9-0.1-1.9-0.1-2.8-0.2c-0.1,0-0.2,0-0.3,0c-0.1,0-0.1,0-0.2,0c-0.3-0.1-0.7-0.2-1-0.3
			c0.2-1.1,1.1-0.9,1.9-1c3.4-0.2,6.7-0.3,10.1-0.5c0.7,0,1.3-0.2,2-0.1c0.4,0,0.7,0.4,1,0.6c-0.2,0.3-0.4,0.6-0.6,0.9
			C994,525.1,993.9,525.1,993.7,525.2z"/>
		<path class="st20" d="M979.8,525c0.3,0.1,0.7,0.2,1,0.3c-0.7,0.1-1.4,0.3-2.1,0.4c-0.7,0.1-1.3,0-2,0c-0.2,0-0.3,0-0.5,0
			c-0.6,0-1.1,0-1.7,0c0-0.2,0-0.3,0-0.5c0.3,0,0.6,0,1-0.1c1.2-0.1,2.4-0.1,3.6-0.2C979.4,525,979.6,525,979.8,525z"/>
		<path class="st19" d="M974.5,525.2c0,0.2,0,0.3,0,0.5c-1,0.1-2,0.2-3,0.2c-0.2,0-0.4-0.4-0.6-0.6
			C972.1,525.3,973.3,525.2,974.5,525.2z"/>
		<path class="st4" d="M979.1,525c-1.2,0.1-2.4,0.1-3.6,0.2C976.7,524.4,977.9,524.6,979.1,525z"/>
		<path class="st19" d="M968.6,525.3c-0.3,0.1-0.5,0.3-0.8,0.4c0-0.1,0-0.3,0-0.4C968.1,525.3,968.4,525.3,968.6,525.3z"/>
		<path class="st3" d="M993.7,525.2c0.2-0.1,0.3-0.2,0.5-0.2c0,0.2,0,0.3,0,0.5C994,525.4,993.9,525.3,993.7,525.2z"/>
		<path class="st19" d="M966.9,527.4c0.2,0.3,0.5,0.6,0.7,0.9C967.2,528.2,966.5,528.2,966.9,527.4z"/>
		<path class="st19" d="M966.9,526.2c0,0.2,0,0.5,0,0.7C966.9,526.6,966.9,526.4,966.9,526.2z"/>
		<path class="st19" d="M988.5,527.1c-1.5,0.1-3,0.2-4.6,0.3C985.4,527.3,986.9,527.2,988.5,527.1z"/>
		<path class="st19" d="M983.2,527.4c-0.7,0.8-1.6,0.5-2.4,0.2C981.6,527.5,982.4,527.4,983.2,527.4z"/>
		<path class="st19" d="M979.1,527.8c-0.6,0-1.3,0-1.9,0C977.8,527.8,978.5,527.8,979.1,527.8z"/>
		<path class="st19" d="M990.9,526.7c-0.4,0.1-0.8,0.1-1.2,0.2C990.1,526.8,990.5,526.7,990.9,526.7z"/>
		<path class="st20" d="M984.1,525.5c0.7,0,1.5,0,2.2,0C985.6,525.5,984.9,525.5,984.1,525.5z"/>
		<path class="st19" d="M993.5,526.4c-0.2,0.1-0.5,0.2-0.7,0.2C993,526.6,993.2,526.5,993.5,526.4z"/>
		<path class="st19" d="M993.5,525.7c0,0.2,0,0.5,0,0.7C993.5,526.2,993.5,525.9,993.5,525.7z"/>
		<path class="st19" d="M976.2,525.7c0.2,0,0.3,0,0.5,0C976.6,525.7,976.4,525.7,976.2,525.7z"/>
		<path class="st20" d="M986.7,525.5c0.1,0,0.2,0,0.3,0C986.9,525.5,986.8,525.5,986.7,525.5z"/>
		<path class="st20" d="M981,525.3c0.1,0,0.2,0,0.3,0C981.2,525.3,981.1,525.3,981,525.3z"/>
	</g>
</g>
</svg>
