<?xml version="1.0" encoding="utf-8"?>
<!-- Generator: Adobe Illustrator 24.0.0, SVG Export Plug-In . SVG Version: 6.00 Build 0)  -->
<svg version="1.1" xmlns="http://www.w3.org/2000/svg" xmlns:xlink="http://www.w3.org/1999/xlink" x="0px" y="0px"
	 viewBox="0 0 859 711" style="enable-background:new 0 0 859 711;" xml:space="preserve">
<style type="text/css">
	.st0{fill:#687075;}
	.st1{fill:#C0C6CB;}
	.st2{fill:#B5BEC1;}
	.st3{fill:#DFE1E2;}
	.st4{fill:#697176;}
	.st5{fill:#A7AFB0;}
	.st6{fill:#676F74;}
	.st7{fill:#7E888E;}
	.st8{fill:#828C92;}
	.st9{fill:#8E9596;}
	.st10{fill:#949B9C;}
	.st11{fill:#C1C7CE;}
	.st12{fill:#B4BECA;}
	.st13{fill:#B0BCC8;}
	.st14{fill:#B2BAC1;}
	.st15{fill:#AFBBC7;}
	.st16{fill:#97A3AF;}
	.st17{fill:#A1AAB0;}
	.st18{fill:#929DA7;}
	.st19{fill:#D5D9DE;}
	.st20{fill:#6B7378;}
	.st21{fill:#A6ACB2;}
	.st22{fill:#848D95;}
	.st23{fill:#747D88;}
	.st24{fill:#949AA1;}
	.st25{fill:#848D93;}
	.st26{fill:#767D82;}
	.st27{fill:#9FA7AC;}
	.st28{fill:#AAB2B5;}
	.st29{fill:#B1B9BD;}
	.st30{fill:#D0D3D3;}
	.st31{fill:#7E888D;}
	.st32{fill:#C1C6C9;}
	.st33{fill:#96A4B1;}
	.st34{fill:#D0D5DA;}
	.st35{fill:#AEBAC7;}
	.st36{fill:#93A0AD;}
	.st37{fill:#CCD3D9;}
	.st38{fill:#B2BBC5;}
	.st39{fill:#C0C8CF;}
	.st40{fill:#ADBAC6;}
	.st41{fill:#B3BECA;}
	.st42{fill:#AFB6BE;}
	.st43{fill:#AEBBC7;}
	.st44{fill:#A8B1BB;}
	.st45{fill:#9BAAB7;}
	.st46{fill:#9BA9B5;}
	.st47{fill:#9AA9B5;}
	.st48{fill:#C7CED4;}
	.st49{fill:#A3ADB5;}
	.st50{fill:#909BA4;}
	.st51{fill:#D2D7DB;}
	.st52{fill:#B5BEC7;}
	.st53{fill:#A7AFBA;}
	.st54{fill:#E1E4E8;}
	.st55{fill:#D0D4DA;}
	.st56{fill:#A4AFBA;}
	.st57{fill:#CAD2DA;}
	.st58{fill:#B2BDC8;}
	.st59{fill:#97A5B3;}
	.st60{fill:#99A9B5;}
	.st61{fill:#BAC2C6;}
	.st62{fill:#A1AFBE;}
	.st63{fill:#AEBAC6;}
	.st64{fill:#ADB6BE;}
	.st65{fill:#909CA7;}
	.st66{fill:#B9C1C7;}
	.st67{fill:#C1C6CC;}
	.st68{fill:#B8C2CB;}
	.st69{fill:#A4B1BE;}
	.st70{fill:#B4BBBE;}
	.st71{fill:#5D6873;}
	.st72{fill:#6D7883;}
	.st73{fill:#C2C6D1;}
	.st74{fill:#99A1A8;}
	.st75{fill:#A8AEB5;}
	.st76{fill:#AAAEB6;}
	.st77{fill:#BCC0C8;}
	.st78{fill:#959CA3;}
	.st79{fill:#7F8891;}
	.st80{fill:#959CA2;}
	.st81{fill:#8C949C;}
	.st82{fill:#9098A0;}
	.st83{fill:#7A838D;}
	.st84{fill:#979EA4;}
	.st85{fill:#E8E9EA;}
	.st86{fill:#BCBEBE;}
	.st87{fill:#CBD0D5;}
	.st88{fill:#A3AEB8;}
	.st89{fill:#C8CFD4;}
	.st90{fill:#9AA5AE;}
	.st91{fill:#9AAAB7;}
	.st92{fill:#DADEE2;}
	.st93{fill:#B7C0CA;}
	.st94{fill:#B2BECA;}
	.st95{fill:#CFD4D9;}
	.st96{fill:#C8CDD0;}
	.st97{fill:#CBCFD2;}
	.st98{fill:#A3AEB9;}
	.st99{fill:#97A6B2;}
	.st100{fill:#97A7B4;}
	.st101{fill:#D2D8DC;}
	.st102{fill:#C9CFD4;}
	.st103{fill:#95A2AD;}
	.st104{fill:#D3D8DD;}
	.st105{fill:#D2D8DD;}
	.st106{fill:#C6CDD4;}
	.st107{fill:#B6C1CA;}
	.st108{fill:#CDD4D9;}
	.st109{fill:#B9C3CC;}
	.st110{fill:#BBC4CE;}
	.st111{fill:#C4CCD2;}
	.st112{fill:#949FA7;}
	.st113{fill:#D2D7DA;}
	.st114{fill:#AFB8C1;}
	.st115{fill:#9BAAB5;}
	.st116{fill:#9AA9B6;}
	.st117{fill:#A8B1B7;}
	.st118{fill:#8E99A3;}
	.st119{fill:#C6CED5;}
	.st120{fill:#9DA7AF;}
	.st121{fill:#919FAB;}
	.st122{fill:#B0B9BD;}
	.st123{fill:#D3D9DD;}
	.st124{fill:#AFB9C2;}
	.st125{fill:#B6C0CA;}
	.st126{fill:#9CAAB6;}
	.st127{fill:#CBD1D7;}
	.st128{fill:#A9B2B7;}
	.st129{fill:#B5BFC8;}
	.st130{fill:#C8CDD1;}
	.st131{fill:#96A4B2;}
	.st132{fill:#A0AEBB;}
	.st133{fill:#AAB6C2;}
	.st134{fill:#C0C6CC;}
	.st135{fill:#B8BEC4;}
	.st136{fill:#9BA6B0;}
	.st137{fill:#ABB7C4;}
	.st138{fill:#97A3AE;}
	.st139{fill:#B9C0C7;}
	.st140{fill:#A4B0BD;}
	.st141{fill:#CED5DA;}
	.st142{fill:#C3CAD0;}
	.st143{fill:#B2B8BF;}
	.st144{fill:#9FADBA;}
	.st145{fill:#8794A1;}
	.st146{fill:#B2BCC6;}
	.st147{fill:#9EA9B3;}
	.st148{fill:#9EACBB;}
	.st149{fill:#96A4B0;}
	.st150{fill:#C5CCD3;}
	.st151{fill:#A5AFB8;}
	.st152{fill:#C0C9D0;}
	.st153{fill:#9FADBC;}
	.st154{fill:#9DA7B0;}
	.st155{fill:#CDD4DA;}
	.st156{fill:#D5DADE;}
	.st157{fill:#D3D9DE;}
	.st158{fill:#B1BDC9;}
	.st159{fill:#A3B0BE;}
	.st160{fill:#BCC3C8;}
	.st161{fill:#D8DCE1;}
	.st162{fill:#B8C2CC;}
	.st163{fill:#AFBBC8;}
	.st164{fill:#AFBCC8;}
	.st165{fill:#B8C2CA;}
	.st166{fill:#D2D7DC;}
	.st167{fill:#D4DADE;}
	.st168{fill:#E1E4E9;}
	.st169{fill:#D3D7DD;}
	.st170{fill:#A9B2BC;}
	.st171{fill:#CACFD6;}
	.st172{fill:#C9CED5;}
	.st173{fill:#A1ABB8;}
	.st174{fill:#8E9BA8;}
	.st175{fill:#B3BBC2;}
	.st176{fill:#9FA9B2;}
	.st177{fill:#E5E8EB;}
	.st178{fill:#C6CFD7;}
	.st179{fill:#BBC6CF;}
	.st180{fill:#98A5B1;}
	.st181{fill:#A0ABB6;}
	.st182{fill:#C0C7CC;}
	.st183{fill:#8C97A0;}
	.st184{fill:#BEC2C9;}
	.st185{fill:#C2C8CF;}
	.st186{fill:#B5BEC8;}
	.st187{fill:#98A7B5;}
	.st188{fill:#CCD2D8;}
	.st189{fill:#DBDFE3;}
	.st190{fill:#B6C0CC;}
	.st191{fill:#C4CDD4;}
	.st192{fill:#BCC6CE;}
	.st193{fill:#B7C1CA;}
	.st194{fill:#AEB8C2;}
	.st195{fill:#BAC3CD;}
	.st196{fill:#9CABB8;}
	.st197{fill:#B2BEC8;}
	.st198{fill:#D4D9DD;}
	.st199{fill:#92A1AF;}
	.st200{fill:#CAD0D5;}
	.st201{fill:#E5E8EC;}
	.st202{fill:#EEF0F3;}
	.st203{fill:#E4E6E9;}
	.st204{fill:#E6E9EC;}
	.st205{fill:#C4CDD6;}
	.st206{fill:#E6E8EC;}
	.st207{fill:#E8EBED;}
	.st208{fill:#D6DBDF;}
	.st209{fill:#DCE0E4;}
	.st210{fill:#D8DDE1;}
	.st211{fill:#B7C2CD;}
	.st212{fill:#AFB9C3;}
	.st213{fill:#B2BDC9;}
	.st214{fill:#B4C0C8;}
	.st215{fill:#9BA8B5;}
	.st216{fill:#CED5DB;}
	.st217{fill:#95A4B2;}
	.st218{fill:#B4BEC8;}
	.st219{fill:#BEC4CA;}
	.st220{fill:#B1BCC8;}
	.st221{fill:#D4D9DE;}
	.st222{fill:#A1AFBB;}
	.st223{fill:#D1D7DC;}
	.st224{fill:#D5DADF;}
	.st225{fill:#D3D8DC;}
	.st226{fill:#CCD4DA;}
	.st227{fill:#B4BFCB;}
	.st228{fill:#C5CDD3;}
	.st229{fill:#CAD2D9;}
	.st230{fill:#AFB3BA;}
	.st231{fill:#BEC7CE;}
	.st232{fill:#D4DADF;}
	.st233{fill:#B6C0C9;}
	.st234{fill:#9FABB7;}
	.st235{fill:#B0BBC7;}
	.st236{fill:#C1C9D0;}
	.st237{fill:#E7E9ED;}
	.st238{fill:#E3E6EA;}
	.st239{fill:#E4E6EA;}
	.st240{fill:#EDEEF2;}
	.st241{fill:#E3E7EA;}
	.st242{fill:#EFF0F3;}
	.st243{fill:#E0E3E8;}
	.st244{fill:#BEC8D2;}
	.st245{fill:#CCD1D5;}
	.st246{fill:#C5CACF;}
	.st247{fill:#D7DDE2;}
	.st248{fill:#EAECF0;}
	.st249{fill:#EFF1F5;}
	.st250{fill:#E0E4E8;}
	.st251{fill:#BCC7D0;}
	.st252{fill:#C1CBD4;}
	.st253{fill:#D8DDE3;}
	.st254{fill:#C6CDD6;}
	.st255{fill:#CACED2;}
	.st256{fill:#BDC3C9;}
	.st257{fill:#EBECF0;}
	.st258{fill:#E9EBED;}
	.st259{fill:#F1F2F6;}
	.st260{fill:#F0F2F5;}
	.st261{fill:#C5CED5;}
	.st262{fill:#EAEDF0;}
	.st263{fill:#BEC9D2;}
	.st264{fill:#A2AFBD;}
	.st265{fill:#E2E5E9;}
	.st266{fill:#DFE3E6;}
	.st267{fill:#E9EBEF;}
	.st268{fill:#E8EAED;}
	.st269{fill:#D2D9E0;}
	.st270{fill:#DCE1E5;}
	.st271{fill:#B8C4CE;}
	.st272{fill:#EDEFF2;}
	.st273{fill:#B9C5CF;}
</style>
<g id="Layer_1">
	<g>
		<path class="st0" d="M12.2,431.2c18.1-10.9,26.9-7,8,7.3c49.6,8.8,42,5.5,44,3.5c2.3-2.3-3.1,36.6-7,36C37.3,475,4,472.1,0,455.8
			c0-0.7,0-1.4,0-2C2.6,445.7-1.8,432.5,12.2,431.2z"/>
		<path class="st1" d="M673.1,292c7.2-0.3,116.9-71.7,124-72c9.9,16.1,11.4,235.9,16,255c1.3,5.4-150,121-150,121
			c-7-58-5.6-164.1-6-164c-2.5,0.8-20.9-96.7-8-126C648.4,298.4,669.4,298.3,673.1,292z"/>
		<path class="st2" d="M499.1,596c-4.9-1.2-53,49-89,62c-11,4-83-21.1-120.2-31.9c2.1,0-265.9-71.1-263.8-71.1c53-33,53-33,53-33
			c-7.7-21.5-16-97-16-97s584.5,166.6,584,166c-0.4-0.4,116.7-106,148-112c26-5,53.9,8.2,53,11c-4,12-162,134-182,141
			C653.1,634,503.1,597,499.1,596z"/>
		<path class="st3" d="M84.1,239c51.2,15.2,332.1,62.8,336,79l99-59l136,38c-12.2,12.3,10.8,299-3,295
			c-31.4-8.5-532.6-146.5-564-155C82.1,385.4,71.6,234.8,84.1,239z"/>
		<path class="st4" d="M50.7,514.7c-18.1-6.6-54-3.8-50.7-32.6c10-5,22.1,6.7,33.8,8.5c15.1,5,28.2,5.4,21.6,24
			C53.8,516,52.2,515.7,50.7,514.7z"/>
		<path class="st5" d="M28.4,591.9c6.9-3.1,3.2-8,2.1-12.4c118.5,22,237.3,64.9,355.8,94.6c33,19,94-55.4,117.9-59.9
			c30.3,1.4,59.1,17.2,88.5,23.8c77.6,24.7,71.9,13.1,68.8,49.5c-1,4.3-3,5.1-8.1,5.1c-60.3-6.6-112.7-32.9-170.7-44.6
			c-66,34.6-59.5,61.3-111.3,42.3c-74.3-21.2-145.6-39.9-219.5-60.1C116.6,618.8,27.5,599.9,28.4,591.9z"/>
		<path class="st6" d="M673.9,90.6C869.3,130,926,107.4,768.3,207.3c-35.1,21.6-116.5,73.3-126.2,68.6
			c-81.3-23-110.3-27.3-117.3-35.2c5.8-11.5-0.3-31.8,12.9-29.9c67.4,13.4,101,30.3,118,24.4c60.5-32.7,120.3-66.3,175-107.2
			C811.7,122.1,631.8,96.7,673.9,90.6z"/>
		<path class="st7" d="M509.2,615.9c-60.6,24.3-86.6,81.4-126.6,60.4C-13.1,562.5,20,587.7,22.5,555.3
			C512.7,669,359.2,688.8,509.1,588c0,0,0,0,2.6,2.2C518.6,596.1,511.4,607.5,509.2,615.9z"/>
		<path class="st6" d="M509.2,615.9c-4.2-16.6-0.5-28.1-0.1-27.9c0.7,0.4,21.7,4.4,34.5,8.3c54.3,14.4,112.4,39.5,125.7,28.9
			c61.5-46.5,115.4-96.5,178.2-139.3c23.9,23.6-35.1,59.3-47.7,72.7c-39.9,32.9-74.3,67.5-115.9,97.6c-19.2,14-35.7,0-53-3.9
			C589.6,640.1,550.5,627.6,509.2,615.9z"/>
		<path class="st0" d="M482.9,644.5c190.3,53.2,169,62.4,219.4,17.5c83.1-70.4,135.7-124.5,148-123.4c17.7,8-37.3,46-41.2,51.6
			c-67.1,55.8-131,117.5-145.5,120c-39.5-1.1-79.7-23-119.2-31.7c-20.7-7.9-67-21.2-66.2-20.6C483.9,662.7,477.4,651.9,482.9,644.5z
			"/>
		<path class="st7" d="M482.9,644.5c0.8,5.3-1.8,10.5-0.1,15.7c-47,17.5-60.1,60.4-103.1,41.6C-22.7,589.9,23.2,612.2,21.1,591
			C525.2,726,358.5,707.4,482.9,644.5z"/>
		<path class="st8" d="M673.9,90.6c-1.6,0.2-3.2,0.5-5.8,0.9c3.1,2.2,5.4,3.9,7.8,5.6c-2.4,9.2-9.4,12.8-17.8,14.8
			c-4.6-2.9,4.1-6.9,1-9.7C638.7,89,616.4,80.4,594,69C538.2,43.6,485.1,7.7,471.4,15.8C226.3,143.2,258,119.9,260.2,137.2
			c-29,7.8-26-8.4-47.6-10.1C287.8,89.3,375.4,52.6,448.4,7.9c12-0.6,26.5-13.5,38.7-4.2C549.5,35.4,608.6,67.1,673.9,90.6z"/>
		<path class="st9" d="M848,539C651.4,707.4,675.8,699.1,639,689c31.9,5,15.3-5.8,22.3-26.4c25.7-6.3,44.5-26.3,63.6-43.1
			c40.7-34.3,81.1-69.2,121.5-104.8C846.7,522.9,844.1,531.1,848,539z"/>
		<path class="st10" d="M641.1,273.3c74.6-26.8,143.5-81.1,210.9-125.7c-1.6,28.7,10.2,20.8-11.9,34.9
			C786.9,216.9,641.8,322.5,633,289C639.7,285.8,637.1,277.9,641.1,273.3z"/>
		<path class="st11" d="M50.7,514.7c10.3-4.5,6.6,13.8,19.2,12.9c6.5-25.5,0.2-67.4,2.3-97.8c0.6-193.3-7.1-116.8-17.4-146.5
			c-4-11.5,16.7-5.7,22.3-1.2c4,8.6-0.4,22.7,1.1,29.6c1.1-3.5-3.3-24.7,3.9-21.5c5.4,288.3,3.8,235.6-7.6,246.3
			c-7.4-0.4-17.1,1.8-21.8-7.8C53.8,525.4,55.4,519.2,50.7,514.7z"/>
		<path class="st12" d="M830.1,231.1c0,79.5,0,159,0,238.5c-0.6,0.2-1.1,0.4-1.7,0.6c-9.5-98.6-8.5-231.2,0.2-239.8
			C829.1,230.6,829.6,230.8,830.1,231.1z"/>
		<path class="st13" d="M833.9,206.4c-0.9,8.3,2.6,17.2-3.8,24.6c0,0-0.5-0.5-0.5-0.5c-33.8,10.9-27.3-9-12.5-10.6
			C835.9,218.4,823.6,210.7,833.9,206.4z"/>
		<path class="st14" d="M52.8,528.8c6.5,5.5,14.6,4.8,22.2,6c8.3,7.6-27.4,9.5-26.1,2.2C49,533.7,49.9,530.8,52.8,528.8z"/>
		<path class="st15" d="M830.1,469.5c5.5,2.1,3.6,6.7,3.6,10.6C800.4,488.8,793.9,476.8,830.1,469.5z"/>
		<path class="st16" d="M833.9,206.4c-3.2,3-11,8.9-16.7,3.7c6.7-6.5,13.8-12.3,22.4-16.1C837.7,198.2,835.8,202.3,833.9,206.4z"/>
		<path class="st17" d="M49,537.1c9.1,2.3,2.1,26.7-4.7,15.6C46.9,548.2,48.5,543.8,49,537.1z"/>
		<path class="st18" d="M829.7,478.1c1.3,0.7,2.6,1.4,3.9,2.1C837.4,490.5,825.6,490.1,829.7,478.1z"/>
		<path class="st19" d="M52.5,516.8c3.6,3.9,3.4,7.9,0.1,11.9C52.6,524.7,52.5,520.7,52.5,516.8z"/>
		<path class="st6" d="M14.3,109c-10.8-4.6-11.7-35.4-3.1-34c55.9,14.7,104.7,29.3,158.6,42.4c19.5,7.6-23.3,22-30,25.3
			C98,135.1,54,123.7,14.3,109z"/>
		<path class="st5" d="M14.3,109c117.5,29.8,144.4,31.7,96.5,47c-44-13.7-100-20.3-100.6-32.8C18.2,120.4,13.1,113.8,14.3,109z"/>
		<path class="st8" d="M413.8,13.6l-0.1,0.1"/>
		<path class="st8" d="M371.2,21.6l-0.2,0.1c11.7-3.9,47.2-8.2,55.1-8.7"/>
		<path class="st8" d="M447.1,16c-25.8,7.5-73.7,11.2-99.7,15.9c-72.4,42.3-258.3,161.2-236,121.9c5.2-2.1,27.1-8.5,18.3-14.2
			c22.4,1.4,38.3-14.3,55-27.1c51.8-28.9,104-56.4,153.9-86.3c1.2-0.2,92.2-16.1,93.4-16.2"/>
		<path class="st20" d="M338.7,26.2c-6.6,17.4-56.4-1.2-66.2-0.9c-31.9-3.7-61.4-16.8-93.1-12.4C91.4,47.2,35.2,68.3,20.8,80.4
			c-4.7,1.1-3.5,3.1-6.7-2.4c-1.6,7.5-7.2,8.2-8.3,13.5c-2.1-11.1-2-15.4,5-18.8c33-15.1,63-27.1,94.8-40.4
			C133,22,157.1,9,185.4,1.5C237.4,5.8,287.1,24.7,338.7,26.2z"/>
		<path class="st6" d="M111.5,153.8c0.1,0.6,0.1,1.3,0.1,1.9C97,178.4-15.7,148.7,8.1,123C40.9,138.7,76.8,142.6,111.5,153.8z"/>
		<path class="st4" d="M105.1,461c-29-3-21.6,15.1-12,23C110.1,498,110.1,464,105.1,461z"/>
		<path class="st21" d="M28.2,421.3c9.1-75.2,3.4-155.9,1.9-232.6c0.3-0.3,0.6-0.6,1-0.9c15.8,1.1,7.2,121.3,8.2,129.7
			C38.4,386.7,45.4,422.8,28.2,421.3z"/>
		<path class="st22" d="M28.2,421.3c2.8-3.3,18.6-4.6,20.5-7.5c4-4-3.2-31.3,6.9-28.4c7.2,92.8-4.3,31.5-20.4,43.4
			c0.2,3.8-11.1,14-10.9,4.6c-0.3-3.8,10.3-6,1.8-8.1C26.9,423.9,27.6,422.6,28.2,421.3z"/>
		<path class="st23" d="M19.7,147.9c9.9,3.1,25.8,1.2,33.1,9.8C48,164.8,21.4,159.1,19.7,147.9z"/>
		<path class="st24" d="M24.2,155.7c0.7,0,1.4,0,2.1,0c2.3,6.5,10.3,8.8,14.6,13.9c-1.5,2.8-5.7,1.5-6.9,4.7
			c7.1,10.9,4.5,9.9-4,14.3C23.9,178.4,27.9,166.4,24.2,155.7z"/>
		<path class="st25" d="M413.7,13.6c11.3-3.6,23-4.5,34.7-5.8c8.9,7.6-8.2,5.9-14.5,9.5"/>
		<path class="st26" d="M2.3,447.6c-1.3-5.6-0.9-18.6,9.9-16.4C3.6,433.5,4.7,441.7,2.3,447.6z"/>
		<path class="st5" d="M56.9,514.7c-0.8-0.1-1.6-0.2-2.4-0.3c5.2-24.4-30.8-17.8-44.3-30.2c-0.1-5.3-0.2-10.7-0.3-16
			c13.1,1.8,37,8.6,49.3,5.8"/>
		<path class="st27" d="M52.8,445.6c-0.7,0-1.4,0-2.1,0.1c-3,2.2-6.8-0.2-9.9,1.7c-7.7-2.3-15.6-3.9-22.8-7.7
			C21.3,433.7,53.5,439.8,52.8,445.6z"/>
		<path class="st28" d="M24.2,437.5c-2.1,0.7-4.1,1.5-6.2,2.2c-10.9-1.4-0.5-7.3,6.3-6.4c0.1,0.7,0.1,1.5,0.2,2.2
			C25.1,436.3,25,437,24.2,437.5z"/>
		<path class="st29" d="M40.8,447.4c2.9-3,6.5-1.3,9.9-1.7C48.2,448.3,45.5,448,40.8,447.4z"/>
		<path class="st30" d="M657.4,111.4c7.2-3.4,13.2-8.3,18.5-14.2c53.4,10.5,109.3,15.5,161.8,30.8
			c-228.5,149.7-175,109.1-272.9,91.6c-9.4-4.1-44.8-5.3-28.6-15.8C578.3,176.4,613.5,136.5,657.4,111.4z"/>
		<path class="st31" d="M657.4,111.4c-139.3,113.1-124.8,94.5-121.7,101c-9.3,5,0.1,20.5-10.2,28.4c-13.9,18.3-41.5,28.8-61,42
			c-38.1,26.5-38.9,19.9-70.3,12.4C9.6,194.3,45.4,215.6,38.6,198.3c-3.2-3.7-3.2-5.2-7.7-10.6c11.6-7.7,4.3-5.5-1.2-12.3
			c15.8-4.1,30.5-7.4,47.5-13.6c0.7,0.1,1.5,0.1,2.2,0.2c1.9,2,3.8,1.4,5.6-0.1c9.7,1.3,17.9-3.6,26.6-6.3
			c0.1,15.1,96.3-39.9,101.3-28.4c19.7-5,43.8-5.8,48.3-1.2c21.6,21.9,17.3,22.6,27.2,31c23,19.9,45.6,37,70.1,54.8
			c80.3,55.9,66.6,56.4,95.4,35.9c44.1-29.5,85.9-57.2,126.6-91.2C589.8,145.7,687.8,71.8,657.4,111.4z"/>
		<path class="st5" d="M523.4,242.9c0.7-0.7,1.4-1.4,2-2.1c38.2,10.5,115.7,33.2,115.6,32.5c0-0.3-6.9,11.7-1.9,19.7
			c2.1,3.4-116.9-31.4-120-34C519.5,254.5,524,247.8,523.4,242.9z"/>
		<path class="st3" d="M657.5,101c-92.4,69.1-218.1,170.7-230.8,161.4c-61.6-41.9-120.7-82.7-173.4-133.6
			C321.6,85,405,47.2,480.6,10.7C555.3,46.6,664.1,97.2,657.5,101z"/>
		<path class="st32" d="M440.1,17.7c-91.3,42.9-226.7,123.6-279.8,121.8C420.4-8.5,295.4,41.9,440.1,18"/>
		<path class="st32" d="M371.6,26.1"/>
		<path class="st33" d="M766.6,242.6c-7.6,34.4-35.2,35.6-40.3,24.6c6.2-6.2,16.4-5.2,26.6-8.3c-3.9-0.6-6.6,0.4-8.4-1.9
			C751.9,252.3,759.3,247.5,766.6,242.6z"/>
		<path class="st34" d="M625.1,305.5c42.5,4.7,25,24.7-1.7,11.5C620.8,312.7,618,308.3,625.1,305.5z"/>
		<path class="st35" d="M649.1,317.9c0-2,0-4,0-6c6.3-4,32.4-17.3,26.1,2.3C670.9,318.8,647.6,324.8,649.1,317.9z"/>
		<path class="st36" d="M673.6,313.8c7.2-13.8-12.2-5.2-20.4-4.1c8.6-8.6,19.6-13.3,30.4-18.3C685.4,294.1,679.5,320.4,673.6,313.8z
			"/>
		<path class="st37" d="M807.5,224.6c-0.1,2.7-0.1,5.4-0.2,8.1c-9.8,4.5-14.9,3.5-20.3-4.1c6.1-4,12.2-8,18.3-12
			c1.2,1,2.8,1.7,2.7,3.6C807.1,221.5,808.2,223.2,807.5,224.6z"/>
		<path class="st38" d="M787.1,228.6c6,5,13.2,4.2,20.3,4.1c5.1,5.1,13.4-2.7,20.3,2c-0.4,3.5,1.4,7.4-1.9,10.3
			c-10-8.7-28.6,0.2-40.6-10.1c-2.1,0-4.1-0.1-6.2-0.1C781.6,232.7,784.3,230.6,787.1,228.6z"/>
		<path class="st13" d="M807.4,220.6c-0.7-1.3-1.3-2.7-2-4c3.9-2.1,7.9-4.3,11.8-6.4c3.6,1.2,15.9-3.9,13.2,6
			C823.3,220.4,815.5,221.3,807.4,220.6z"/>
		<path class="st39" d="M703.5,281.1c2.2-2.9,5.3-4.5,8.7-5.4c12.3-0.2,31.1,3.1,16.7,16.2C720.3,281.6,710.6,287.3,703.5,281.1z"/>
		<path class="st34" d="M730.3,277.3c-6.3,2.3-12.6,4.7-18.1-1.6c4.1-3.5,11-7.8,18.1-4.4l0,0C731.9,273.3,732.1,275.3,730.3,277.3z
			"/>
		<path class="st40" d="M744.5,257.1c28.3-4.5,0.9,11.7-10.4,5.8C737.6,261,741.1,259,744.5,257.1z"/>
		<path class="st41" d="M699.7,283.3c1.3-0.7,2.6-1.4,3.9-2.2c4.3,4,10.1,8.8,17.9,9.6C748.3,296.6,696.7,306.7,699.7,283.3z"/>
		<path class="st42" d="M625.1,305.5c-6.4,3.7,4.2,12.3-3.3,14.8c-3.7-3.4-1.9-10.3-1.1-16.3C622.4,303.8,623.9,304,625.1,305.5z"/>
		<path class="st43" d="M730.3,271.3c-3.4,0-6.9-0.1-10.3-0.1c2.1-1.3,4.2-2.6,6.3-3.9C728.2,268,729.6,269.3,730.3,271.3z"/>
		<path class="st34" d="M620.7,304c0,3.3,0.1,6.6,0.1,9.9c-0.6,0.9-1.3,0.9-2,0c0-3.4,0-6.8,0-10.2
			C619.4,303.6,620.1,303.7,620.7,304z"/>
		<path class="st44" d="M752.6,293.6c0,71.3,0.1,143.2,0,215c-11.5-4.6-1.9-96.3-4.9-100.7C750.1,376.2,742.3,290,752.6,293.6z"/>
		<path class="st45" d="M829.8,482.1c2.6,0.1,0.2,5.3,4.1,4c4,8.8-21,7.7-26.5,8.2C802.4,485.9,825,487,829.8,482.1z"/>
		<path class="st46" d="M752.7,532.8c1.9,0.9,3.3,2.2,3.9,4.2c-4,5.2-20.1,8.2-26.9,4.1C726,533.4,748.1,529.4,752.7,532.8z"/>
		<path class="st47" d="M758.7,555.1c-9.5,1-18.6,4.9-28.4,4.1c-1.1-1.3-1.2-2.8-0.4-4.3c7.3-2.9,17.9-7,26.9-3.9
			C758.4,551.9,758.7,553.5,758.7,555.1z"/>
		<path class="st48" d="M807.4,494.4c-5.7,6.1-20.7,3.7-26.3-4.1c0.4-0.4,0.8-0.7,1.3-1.1C791.1,489.1,799.9,488.2,807.4,494.4
			L807.4,494.4z"/>
		<path class="st49" d="M752.7,532.8c-0.7,0-1.5,0-2.2,0c-4.1-8.1-4.3-16.2,0.1-24.3c0.7,0,1.3,0,2,0
			C752.7,516.6,752.7,524.7,752.7,532.8z"/>
		<path class="st50" d="M756.8,551c-1.6,2.8-11.1-7.8-0.2-14.1C756.7,541.6,756.8,546.3,756.8,551z"/>
		<path class="st51" d="M58.8,287.5c5.9-0.7,12.5-4,16.2,4.1c-7.4,39.8,1,88.2-2,130.5c2.1,29.5-4.6,100.2,2,100.6
			c-1,9.7-2.2,10-16.2,4.1C66.2,449.9,63,366.1,58.8,287.5z"/>
		<path class="st52" d="M81.2,289.5c-4.9,9,0,18.9-4.1,28.1c0-10.7,0-21.5,0-32.2c4.8-1.3,9.6-1,14.4-0.3c7.1,78-2,163.2,4.2,240.8
			c1.3,4.4-6.1,6.5-10.5,2.8c0-0.7,0-1.4-0.1-2.1C77.8,449.5,88.6,367.2,81.2,289.5z"/>
		<path class="st53" d="M91.3,285.5c-9.5,8.8-36.7-20.5-34.5,2c5.2,34.8,6,135.1-2.1,129.7c0-10.8,0-21.6-0.1-32.3
			c-6.8-20.8-0.9-48.7-2.9-71.6c-0.2-56.5-1.4-39.3,21.1-41.8c2.3-1.3,2.7-10.9,8.3-5.3c3,4.5,26.4,1.5,20.9,2.8c0.2,0-1,68-1,68
			c1,37,1.6,88.9,0,105c-0.4,4.3-2.9-1.8-4-2C94,439.4,96.1,282,91.3,285.5z"/>
		<path class="st54" d="M75,522.7c-12.8,23-0.4-79-3.9-81.9c2.1-166-7.1-148.6,3.9-149.2C75,368.6,75,445.7,75,522.7z"/>
		<path class="st55" d="M81.2,289.5c11.4,74.2,0.2,159.6,4,237.2c-6,1.4-3.6-4.2-4-15C81.1,436,81.2,364.4,81.2,289.5z"/>
		<path class="st19" d="M55.1,417c0-43.2,1.7-86.2,1.7-129.5c1,0-0.5-0.1,4,0c2.4,78.9,4.6,160.8,0,239.2c-0.7,0-1.4,0-2.1,0
			C54.9,492,54.2,453.3,55.1,417z"/>
		<path class="st56" d="M85.2,528.8c3.4,0,6.7,0,10.1,0c10.3,2.9-15,10.7-20.2,8.2C73.7,531.6,82.1,531.2,85.2,528.8z"/>
		<path class="st57" d="M825.7,240.9c-2,152.6,5.4,227-2.2,223.1c-7.1-51.2-0.3-108-2.6-160.8C823.4,287.7,814.5,230.4,825.7,240.9z
			"/>
		<path class="st58" d="M823.6,463.8c5.4-17,0.5-39.4,2.1-58.7c5.3,18.5,0.4,42.4,1.9,63.1c-4.9,7.2-12.9,5.1-19.7,6.4
			C801.1,468.9,815.7,460.6,823.6,463.8z"/>
		<path class="st59" d="M827.6,234.6c-5.2-0.1-16.9,6.7-20.1-1.8C812.9,233,835.9,221.5,827.6,234.6z"/>
		<path class="st60" d="M807.4,474c6.7-1.9,13.5-3.9,20.2-5.8c9.3,7.6-13.9,8.1-20.2,7.9C807,475.4,807,474.7,807.4,474z"/>
		<path class="st61" d="M75,559.3c-2.1,7.3-8.1,2.6-12.2,4c-4.3-3.5-12.5-0.1-14.2-8.1c0,0,0,0,0,0C58.1,552.3,67.1,552.7,75,559.3z
			"/>
		<path class="st62" d="M807.4,220.6c7.2-2.5,14.8-3.2,22.3-4c0.7-1,1.4-1,2,0c-3.4,7.3-17.3,5.7-24.3,8.1
			C807.2,223.3,805.2,222,807.4,220.6z"/>
		<path class="st63" d="M831.8,216.5c-0.7,0-1.3,0-2,0c0.5-4.5-1.6-6.5-6.1-6.1c2.2-2.9,5.3-1.7,8.1-2.1
			C831.8,211.1,831.8,213.8,831.8,216.5z"/>
		<path class="st64" d="M75,559.3c-8.8-1.4-17.6-2.7-26.4-4.1c2.6-2.9,0.8-7.5,4-10.2c4.7,3.7,11.7,8.1,19.2,3.6
			c1-2.2-0.1-5.7,1-9.7c0.7,0,1.4,0,2.1,0C80.3,534.9,84.5,552.9,75,559.3z"/>
		<path class="st65" d="M77.1,539c-0.7,0-1.3,0-2,0c0-0.7,0-1.3,0-2c9.2-2.5,27-11.2,30.4-2.1C109,544.2,82.9,542.1,77.1,539z"/>
		<path class="st66" d="M52.8,547c0-1.7-0.1-4.1,0-8.1c7.3,2.5,15.7,0.9,22.3,6.1c0,1.4,0,2.7,0,4.1C67.2,553.2,60,549.8,52.8,547z"
			/>
		<path class="st67" d="M75.1,545c-7.8-0.8-15.7-1-22.3-6.1c6.7-2.8,13.4,1.5,20.2,0C73.7,541,74.4,543,75.1,545z"/>
		<path class="st48" d="M785,482.1c0-1.3,0.1-2.7,0.1-4c6.3-2,15.2,0.5,22.3,0c0,1.4,0,2.7,0.1,4.1c1.6,1.6,2.7,4.9,0,8.1l0,0
			C801.8,488.3,790.7,487.3,785,482.1z"/>
		<path class="st68" d="M807.4,478.1c-6.5,0-15.5,2.3-20.3-6c0-0.7,0.1-1.5,0.1-2.2c7.1-2.8,13.7-1.2,20.2,2.1
			C807.4,473.1,807.4,471.3,807.4,478.1z"/>
		<path class="st69" d="M807.4,484.2c0-0.7,0-1.3,0.1-2c7.4-1.4,14.8-2.7,22.3-4.1c0,1.3,0.1,2.7,0.1,4
			C823.8,486.6,815.2,488.2,807.4,484.2z"/>
		<path class="st30" d="M20.8,80.4c-4.5-3.2-1.4-5.1,2-5.9C75.6,50.6,130.4,27.7,185.7,7.6c48.5,5.1,94.1,18.4,142.7,24.5
			c-43.8,34.6-104.4,58.3-154,89.2C122.8,109.5,72.1,93.8,20.8,80.4z"/>
		<path class="st70" d="M168.1,135c0.9,1.6,12.4,1.9,14,2c-4.5,2.5-26.6,10.1-32.2,8.6C152.7,142.4,164.5,136.8,168.1,135z"/>
		<path class="st25" d="M359.4,28.1"/>
		<path class="st25" d="M346.9,30"/>
		<path class="st71" d="M77.2,161.8c-5.8,9.5-15.8,6.5-24.3,8C43.4,158.7,70.3,160.7,77.2,161.8z"/>
		<path class="st72" d="M73,161.8c-6.1,0.5-12,3-18.2,2c-0.4-1.9-1.9-1.1-2-6.1C59.5,159.3,67.5,154,73,161.8z"/>
		<path class="st73" d="M40.4,230.8c5.6,26.4,8.1,198.1-3.8,182.2C42.1,224.9,30.6,230.5,40.4,230.8z"/>
		<path class="st74" d="M54.7,271.4c-0.4,188.9,1.1,143.3-22.3,147.7c1.4-1.3,2.7-2.6,4.1-3.9c3-1.3,6.4-0.8,10.8-4.4
			c4.2-61.3-6.1-146.2,5.9-140.4C53.7,270.8,54.2,271.1,54.7,271.4z"/>
		<path class="st75" d="M42.6,415.2c-2-0.6-4.1,2.4-6.1,0c0-0.7,0.1-1.5,0.1-2.2c11.6-13.3-1.7-76.3,6-83.1
			C48.7,355.4,46.5,406.8,42.6,415.2z"/>
		<path class="st76" d="M47.1,223c-2.7,0-7.9-6.3-10.6-6.3c0-0.7,0-1.5,0-2.2c3.9-3.2-4.3-16.3-0.4-19.5
			C43.7,195.6,52.3,217.6,47.1,223z"/>
		<path class="st77" d="M40.6,202.4c-1.4,4,3.4,10.1-4,12.1c0.8-4.8-1.9-10,2.1-14.3C39.3,200.9,39.9,201.6,40.6,202.4z"/>
		<path class="st78" d="M34.4,192.3c2.8,1,4.1,3.1,4.2,6C34.5,198.1,34.5,195.2,34.4,192.3z"/>
		<path class="st79" d="M24.2,437.5c0.1-0.7,0.2-1.3,0.3-2c8.7-0.6,20.3-1.8,30.2,2c1.6,2.7,1.5,5.4,0.1,8.1c0,0,0.1,0.1,0.1,0.1
			C46.3,442.7,33.6,442.2,24.2,437.5z"/>
		<path class="st78" d="M52.7,437.5c-7.4-0.6-15.1,1.8-22.2-2c0.8-7.9,14.3-5.6,20.2-2C51.4,434.8,52,436.2,52.7,437.5z"/>
		<path class="st80" d="M32.5,427.4c6.1-5.8,12.2-1.5,18.3,0C45.3,433.1,40.5,433.1,32.5,427.4z"/>
		<path class="st81" d="M32.5,427.4c6.1,2.6,12.2,3.6,18.3,0c3.2,2.1,0.5,4.1-0.1,6.1c-6.2,0.3-12.3,0-18.2-2.1
			C32.5,430.1,32.5,428.8,32.5,427.4z"/>
		<path class="st82" d="M28.4,161.8c-2.4-1.4-2-3.8-2.1-6c8.9,0.5,17.8,1.4,26.4,4c0,0,0,0,0,0C50.5,170.7,35.3,166.2,28.4,161.8z"
			/>
		<path class="st83" d="M28.4,161.8c6.7-0.1,18.7,6.3,24.3-2c1.9,0.1,6.8,0,2,4c-3.2,1.2-3.7,3.3-1.9,6c-0.7,0-1.4,0-2.2,0.1
			C47.8,174.3,27.3,167.2,28.4,161.8z"/>
		<path class="st84" d="M40.6,169.9c3.4,0,6.7,0,10.1,0c3.9,8.1-12.6,7.4-18.3,4.1C31.6,165.6,38.2,171.9,40.6,169.9z"/>
		<path class="st85" d="M64.3,185.9c199.3-58.7,146.8-61.2,208.6-14.9c69.7,57.9,109.8,77.5,133.8,102.4
			C292.6,242.6,178.2,215.7,64.3,185.9z"/>
		<path class="st86" d="M43.1,220c0-3.4,1.5-10.2,1.5-13.6C535.2,316.1,377,324.1,523.4,242.9c12,11-44.7,33.5-48.2,39.8
			c-21.4,14.1-44.1,32.7-70.4,26.7C284.7,276.4,160.1,256.9,43.1,220z"/>
		<path class="st87" d="M277.9,488.4c0.3-0.4,0.1-110.4,2.1-164.4c8.6-2.5,18.3,0.2,26.2,3c5.6,9.2-16.1,19.8-18.8,11.5
			c-0.2-0.5,0.8,254.5,0.8,254.5l-10,5C278.1,562,277.3,488.9,277.9,488.4z"/>
		<path class="st88" d="M172.5,459.8c0,29.7,0,59.5,0,89.2C160.7,554.4,162.6,445.2,172.5,459.8L172.5,459.8z"/>
		<path class="st89" d="M336.1,615c7,7-3,7-3,7s-17,10-59.2-2C267.8,610.2,334.8,611.1,336.1,615z"/>
		<path class="st90" d="M168.4,547c10.6,2.7,8.1,16.4,8.1,24.4C170.9,576.8,159.1,546,168.4,547z"/>
		<path class="st91" d="M172.4,567.3c0.1,2.7,1.5,4,4.1,4.1c-9.4,5.7-20.2,4.6-30.4,6C141.1,568.7,166,567.7,172.4,567.3z"/>
		<path class="st92" d="M459.1,559c-5,2,1.6-158.3-1.6-158.9c2.6-19-11.4-141.1,25.6-80.1c15.3,25.2-6.9,65.2-9.7,95.4
			c2.7,69.5-5.7,116.5,4.2,140.4C475.1,564,463.9,559.3,459.1,559z"/>
		<path class="st93" d="M499.1,547c2.3,9.8-9,17.4-15.1,6.2c1.7-16.3-4.6-54.7,6.6-51.6c7.8,13.7-3.1,30.1,3.1,45.1
			c2.8-75.3-2.8-153,2.2-227.4c9-0.3,4,18.2,5.3,26.6C499.3,414.3,504.6,480.1,499.1,547z"/>
		<path class="st94" d="M499.1,547c-2.3-129.1,5.1-228.7-4.1-227.1c-5.1,11.8-9.3,9.6-18.2-2.1l0,0c-2.7-4,32.3-16.9,25.3,6.7
			c-0.9,75.9,1.8,147.7-1,222.4C500.4,547,499.7,547,499.1,547z"/>
		<path class="st93" d="M501.1,547c1.9-78-3.7-162.8,1.9-237.3c0,80.4,0,160.9,0,241.3C501.4,550.2,501.1,548.7,501.1,547z"/>
		<path class="st95" d="M626.9,593.7c-2.3-78.6-0.9-159.4-0.7-238.7c12.8-2.3,2.3,122.8,5.5,123.4
			C629.4,525.8,637.5,594.5,626.9,593.7z"/>
		<path class="st96" d="M458.5,348.3c0,63.6,0,127.1-0.1,190.7c-2.2-0.1-4.6,0.3-6-2c6.6-1.7,4-7.1,4-10.9
			c0.2-59.3,0.1-118.5,0.1-177.8C457.2,347.4,457.8,347.4,458.5,348.3z"/>
		<path class="st97" d="M626.9,401c0,61.5,0,123,0,184.5c-0.7-0.1-1.4-0.1-2.1-0.2c0-61.5,0.1-122.9,0.1-184.4
			C625.6,400.1,626.2,400.2,626.9,401z"/>
		<path class="st98" d="M419.9,528.8c-0.5,28.4,0.6,56.8-2,85.1C409.3,618.5,410.1,506.4,419.9,528.8z"/>
		<path class="st37" d="M464.6,559.2c4-1.4,10.2,3.4,12.2-4.1c-5.5-22.6-5.2-97.2,1.8-95.6c6.1,32.5,4.9,79.5,0.3,101.8
			C474.1,560.5,468.9,563.1,464.6,559.2z"/>
		<path class="st99" d="M415.9,614c0.7,0,1.3,0,2,0c1.5,2.5,5.3,2.8,6,6.1c-1.9,1.8-0.1,4.7-1.9,6.5c-9.4-3.6-20.4,0.4-30.8,1.7
			C385.2,616.3,407.5,615,415.9,614z"/>
		<path class="st100" d="M424.1,636.2c2.6,4-0.5,4.8-3.4,4.7C366.4,656.2,395.5,629.5,424.1,636.2z"/>
		<path class="st101" d="M622.9,611.9c0-2,0.1-3.9,0.1-5.9C677.6,609.5,637.6,629.8,622.9,611.9z"/>
		<path class="st102" d="M391.5,644.4c0.7,0.7,1.4,1.4,2,2c-5.7,4.1-12.2,1.1-18.2,2c-5.1-2.1-12.1-0.8-14.2-8.1
			c0.4-0.4,0.8-0.8,1.3-1.1C372.5,638.3,382.2,640.2,391.5,644.4z"/>
		<path class="st103" d="M499.1,557.1c11.5,1.6,11.2,24.5,2.1,24.3c-0.2-27.8-7.1-8-16.7-19.9C488.4,557,494.5,559.7,499.1,557.1z"
			/>
		<path class="st104" d="M454.6,567.2c-1.5-10.3,16.8-1,24.1-1.9C485.3,577.5,459.2,573.8,454.6,567.2z"/>
		<path class="st105" d="M456.4,577.5c-2.4-1.5-1.9-3.8-1.9-6.1c8.3-2.2,16.1,0.9,24,2.6C485.2,584.3,461.4,583.8,456.4,577.5z"/>
		<path class="st106" d="M647.2,611.9c-8.3-1.2-17-0.6-24.3-5.9c0-2.7,0-5.4-0.1-8.2c6-5.1,8.5,8.2,13.7,7.4
			C642.6,604.3,658.2,600.6,647.2,611.9z"/>
		<path class="st107" d="M628.9,599.8c-1.5-2.4-3.8-2-6-2c-2.6-7.5,35.4-4.5,26.3,6C643.2,604.2,635.4,604.8,628.9,599.8z"/>
		<path class="st108" d="M478.8,585.6c-6.3,5.5-35.5-2.9-24.3-6.1C462.5,581.7,471.9,578.4,478.8,585.6z"/>
		<path class="st109" d="M622.9,611.9c7,6.3,16.3,3.5,24.2,6.1c1.1,1.3,1.3,2.6,0.2,4c-9.5-1.3-19-2.6-28.5-3.9
			C619,617.4,623.1,615,622.9,611.9z"/>
		<path class="st91" d="M501.1,577.5c0,1.3,0,2.6,0,4c-7.3,2.8-14.8,2.1-22.4,2.1c-1.2-1.4-1.2-2.7,0-4.1l0.1,0
			C486,576.1,493.3,573.6,501.1,577.5z"/>
		<path class="st110" d="M478.8,579.5c0,1.7,0.1,1.7,0,6.1c-7.7-3.8-16.9-1.4-24.3-6.1c0.7-0.7,1.3-1.3,2-2
			C463.8,578.9,471.2,580.1,478.8,579.5z"/>
		<path class="st94" d="M499.1,557.1c-4.1,3.6-9.1,4.1-14.2,4.1c-3.7,3.4-7.4-3.3,0-6.1c4.1-0.3,10.2,3.8,14.2-2
			C499.1,554.5,499.1,555.8,499.1,557.1z"/>
		<path class="st111" d="M478.7,575.5c-7.8-2.9-16.1-2.9-24.2-4c0-1.4,0.1-2.8,0.1-4.2c7.9,1.9,15.7,4.4,24,4.1c0,0,0.8,0.6,0.8,0.6
			C479.2,572.5,481.1,572.3,478.7,575.5z"/>
		<path class="st112" d="M424.1,636.2c-3.8,5-9.7-6.9-2.1-10.1c0.1-2.2-0.4-4.6,2-6C424,625.5,424,630.8,424.1,636.2z"/>
		<path class="st45" d="M480.8,561.2c1.4,0,2.7,0,4.1,0c2.1,3,5.3,1.7,8.1,2c-3.1,6.2-9,5.4-14.3,2.1c0-1.3,0.1-2.7,0.1-4
			c0,0,0,0,0,0C479.5,560.3,480.1,560.2,480.8,561.2z"/>
		<path class="st113" d="M365.1,512.7c5.9-54.4,0.2-114.5,2.1-170.5c5.3-1.1,11.3-3.8,11.4,5.6c-10.8,15.6-1.7,59-4.6,72.7
			c-2.2,98.9,4.7,183.7-3.3,195.9C363.7,575.3,376.2,523,365.1,512.7z"/>
		<path class="st114" d="M330.7,322c-0.1,60.1,0.7,209.5,0.4,270c-9.7-1.3-6.1,6.5-8-1c-2.4-45.6,7.4-220-0.2-263.2
			C321.9,321,326,321.1,330.7,322z"/>
		<path class="st115" d="M328.6,591.6c2.1-0.3,4.6,0.7,6.1,4.1C311.1,615.9,282.9,592.3,328.6,591.6z"/>
		<path class="st116" d="M306.3,622.1c-0.6-0.1-1.2-0.1-1.8-0.2c-10.6-8.4,36.3-15,28.3-4C323.9,619.3,315.1,620.7,306.3,622.1z"/>
		<path class="st117" d="M369.2,614c-1.4,4.4,2.2,23.4-8,26.3c0,0,0,0,0,0C363.6,632.3,360.6,612.9,369.2,614z"/>
		<path class="st118" d="M332.8,617.9c0-1.3-0.1-2.7-0.1-4c-3.6-4.7-5.1-12.8,2-18.2C333.1,602.3,339.9,617.4,332.8,617.9z"/>
		<path class="st119" d="M121.8,559.2c-2.4-1.4-2-3.8-2-5.9c7.1-19.3,0.5-43.8,3.9-65.2l0,0.1c9.9,3.5,2.9,27.9,5.1,37.3
			c-6.1,39,31.9,12.9,17.4,47.9l-0.1,0c-7.2,3.7-7,0.4-10.4-4.9c-4.7-1.4-9.8-0.1-13.8-5.1C121.7,561.9,121.7,560.5,121.8,559.2
			c5-1.8,9.8,1,16.7,0C131.5,560,126.7,557.1,121.8,559.2z"/>
		<path class="st120" d="M101.4,463.7c-0.3,0.3,1.7,32.3,1.7,32.3s-5.8,24,2.4,38.9c-2.8-1.1-4.6-4.4-8.2-4.1c0-0.7,0-1.3,0-2
			c-6.6-26.4-2.8-77.2,2.3-87.3C106.2,442.2,105,458.4,101.4,463.7z"/>
		<path class="st121" d="M75.1,559.1c4.8-16.2,29.1-1.5,30.4-22.2C115.8,561.6,91.8,560.3,75.1,559.1z"/>
		<path class="st122" d="M123.6,488c-1.6,30.1,4.4,63.5-3.9,65.2c1.9-19.6,4.6-43.4,0.1-62.8C120.5,488.6,122,488.3,123.6,488z"/>
		<path class="st123" d="M121.7,563.2c44.3,5.1,4.4,16.4-1.9,4C119.8,565.6,120.1,564.1,121.7,563.2z"/>
		<path class="st124" d="M673.5,334.1c1.7,85.5-0.3,171.7,0,257.6c-4.7,5.6-7.3-2-7-9.1c0.2-50.3,0-98.5,0.1-148.3
			C669.2,358.4,659.4,323.6,673.5,334.1z"/>
		<path class="st125" d="M701.9,549c1.7-5.3-4.1-12.5,4.1-16.2c5,37.3,23.8,7.1,24.4,26.4c1.8,1.5,3.5,5-2.1,4
			C721,555.4,697.3,563.2,701.9,549z"/>
		<path class="st126" d="M647.3,621.9c-0.1-1.3-0.1-2.6-0.2-4c7.7-5.9,19.7-4.4,30.5-6.1c2.3,1.5,1.9,3.9,2,6.1
			C670.2,618.9,658,621.6,647.3,621.9z"/>
		<path class="st127" d="M702,555.2c6.9,2.4,22.6-2,26.3,8C721.8,560.6,702.6,563.1,702,555.2z"/>
		<path class="st18" d="M677.7,611.9c-1.4,13-15.7-19.4-4.1-20.2C678.7,597.6,677.6,604.9,677.7,611.9z"/>
		<path class="st128" d="M702,555.2c0,0.6-0.1,1.3-0.1,1.9c-2.7,0-4-1.4-4.1-4.1c1.4-1.4,2.7-2.7,4.1-4.1
			C705.2,551,702.5,553.1,702,555.2z"/>
		<path class="st13" d="M474.7,295.6c8.1-5.6,19.8-11.4,31.3-12.6c0.4,0.2,0.8,0.4,1.3,0.6c-1.1,6.7,1.8,13.9-2,20.4
			C499.6,288.5,481.7,309.7,474.7,295.6z"/>
		<path class="st129" d="M624.8,334.2c-9.7-11.6,19.2-5.9,24.5-1.6C654.5,345.7,631,340.7,624.8,334.2z"/>
		<path class="st130" d="M624.8,334.2c2.3,0,4.7-0.4,6.1,2c-1.9,6,0.1,12.8-4,18.2c0,15.5,0,31.1,0,46.6c-0.7,0-1.3,0-2,0
			C624.9,378.8,624.8,356.5,624.8,334.2z"/>
		<path class="st131" d="M503,309.7c-0.6,0.7-1.3,1.4-1.9,2.1c-7.3,1.9-14.4,5.3-22.3,4.1c-5.7-8.7,18.1-11.1,24.4-10.7
			c0.8,0.9,0.8,1.8,0,2.7C503.2,308.5,503.1,309.1,503,309.7z"/>
		<path class="st132" d="M503.2,307.9c0-0.7-0.1-1.5-0.1-2.2c-4.5-9.4-21.9,5.1-24.4-6.1c10.8-1.6,29.2-13.2,26.6,4.3
			C504.6,305.3,503.9,306.6,503.2,307.9z"/>
		<path class="st133" d="M498.9,279.3c3-5.3,7.9-4,12.5-3.7c-0.8,2.9-1.7,5.9-4.1,8C505.7,280.9,499.6,285.3,498.9,279.3z"/>
		<path class="st134" d="M624.9,328c-0.7,0.7-1.4,1.4-2.2,2.2c-5-4.5-3.7-10.6-3.9-16.3c0.7,0,1.3,0,2,0
			C619.7,318.7,626.8,321.1,624.9,328z"/>
		<path class="st135" d="M787.1,465.9c-0.7,0-1.3,0-2,0c0-77,0-154.1,0-231.1c0.7,0,1.5,0,2.2,0.1
			C792.3,309.3,792.7,391.5,787.1,465.9z"/>
		<path class="st59" d="M752.6,293.6c-0.7,0-1.3,0-2,0c-4.1,3.7-23.7,10.6-22.3,2c0-0.7,0-1.3,0-2c-0.3-0.3-0.5-0.7-0.8-1
			c0.3-0.3,0.5-0.6,0.8-1c7-0.9,15-7.8,24.3-4.7c1.2,1.5,1.2,3.1,0,4.6C752.7,292.2,752.7,292.9,752.6,293.6z"/>
		<path class="st136" d="M752.7,291.6c0-1.4,0-2.8-0.1-4.2c-0.8-5-3.4-14.4,2-20.1c0.7,0,1.4,0,2.1,0
			C755.7,275.4,759.7,284.4,752.7,291.6z"/>
		<path class="st21" d="M42.6,415.2c1-60.2-2-119.6,0-180.4c4.8,0.5,10-1.6,14.4,1.9c-9.5,5.3,0,2.3-4.2,34.5
			c-1.4,0.7-2.7,1.4-4.1,2.1c-1.6-4.7-2.2-11.8-1.6-18.9c-0.7,32.6,4.1,152.8-2.5,160.8C44,415.2,43.3,415.2,42.6,415.2z"/>
		<path class="st105" d="M363,334.2c-3.9-7.2-1-15-1.8-22.5c11.1,1.7,22,4,32.4,8.3C396.2,339.1,365.4,316.7,363,334.2z"/>
		<path class="st94" d="M391.1,330c0.7-2,1.8-8,2.4-10.1c3.7,2.4,8,1.7,12.1,2.1c1.1,3.1-2.4,3.2-3.4,4.8c5.6-1.5,11.3-1.9,17.1-1.5
			c3.5,2.4,2.1,5.5,1.2,8.5C409.6,343.6,383.3,352.1,391.1,330z"/>
		<path class="st137" d="M144,257.3c8.6,3,17.5,4.8,26.5,6C181.7,273.1,136.1,287.2,144,257.3z"/>
		<path class="st138" d="M79.1,265.2c-0.7,0-1.3,0-2,0c-2.3-6.9,13.4-9,17.7-9.4c-4.4-11.4,8.5-9.9,16.9-7.4c-0.1,0.5-0.3,1-0.4,1.4
			c-6.2,6.2,0.7,18.7-8.7,24C92.8,261,89.6,270.8,79.1,265.2z"/>
		<path class="st139" d="M52.7,244.9c-8.5-0.9-6.6-10,1.9-8.1c7.2,1.3,13.7,1.7,22.4,4C81,253,59.5,249.8,52.7,244.9z"/>
		<path class="st140" d="M148.1,273.3c6.6,0.2,26.7-1.8,22.4-10c2.8,0.2,5.9-0.9,8.1,1.9c-4.9,3.7,1.5,16.8-8.4,16.5
			c-5.1-8.7-16.7,3-24.7-4.5C145,275,145,273.1,148.1,273.3z"/>
		<path class="st141" d="M458.6,305.9c6-6.5,27.5-9.4,20.1,5.9l0,0C473.7,316.3,455.2,313.8,458.6,305.9z"/>
		<path class="st142" d="M144,257.3c0,0.6,0,1.2,0,1.8c-6.3,5.3-40.4,0.8-32.4-9.8c0,0,0-0.9,0-0.9
			C122.5,250.8,133.5,253.1,144,257.3z"/>
		<path class="st143" d="M273.8,291.7c-0.6-0.7-1.3-1.5-1.9-2.2c10.6,1.2,20.9,3.4,30.7,7.8c-9.4,14.7-25.7,12.4-25.8,12.8
			C277.1,306,277.1,306,273.8,291.7z"/>
		<path class="st144" d="M334.8,305.8c0,2.7-0.1,5.3-0.1,8c-8.4-4.3-21.5,6.2-29.4-3.7c0.2-6.9,13.1-3,17.2-8.5
			C327.5,300.5,330.4,305.6,334.8,305.8z"/>
		<path class="st15" d="M322.6,301.7c5.9,6.1-10.4,6.2-16.2,6.1c-2.6-2.8-4.3-6-4.2-10c0,0,0.3-0.5,0.3-0.5
			C309.2,298.8,315.9,300.2,322.6,301.7z"/>
		<path class="st145" d="M103.5,246.9c-25.4,14.9-38.8-1.1-14.2-4C94.4,242.8,98.9,245.1,103.5,246.9z"/>
		<path class="st146" d="M458.6,305.9c5.3,6.9,12.9,5.9,20.1,5.9c0,1.4,0.1,2.7,0.1,4.1c-3.9,0.8-8.5,1.3-14.2,0
			c-3.6-2.4-8.1,1-10.2-6.1C455.2,307.8,456.5,306.4,458.6,305.9z"/>
		<path class="st147" d="M89.3,242.9c-3.8,1.9-7.5,3.7-12.4,6.2c5.6,2.7,12.1,1.7,18.5,1.9c-2.8,9.1-30.5,4.8-20.3-4.1
			c0.7-2,1.3-4,2-6C81.4,240.1,85.2,242.2,89.3,242.9z"/>
		<path class="st148" d="M417.9,326c-7.6,1.3-15,4.8-23.7,3.4c2.5-5.5,8.7-3.6,11.4-7.2C407.1,323.3,418.9,321.9,417.9,326z"/>
		<path class="st149" d="M498.9,279.3c1.3,4.3,8.2-2.9,8.1,4c-6.8,4.3-14.7,4.6-22.2,6.2C489.3,285.8,493.5,281.8,498.9,279.3z"/>
		<path class="st150" d="M478.8,303.7c-3.8-2.5-8.1-2-12.3-2.1c2.8-2,5.5-4,8.3-6c2.7,0.4,4.4,1.7,4.1,6.1
			C479,301.9,479.7,302.6,478.8,303.7z"/>
		<path class="st151" d="M417.9,326c0-0.6,0-1.3,0-1.9c3.4,0,6.8,0,10.2,0.1c-5.2,2.4-4,9.1-8.1,12.2c-0.1-0.3-1-0.6-0.1-2.2
			C419.7,331.3,420.9,328.1,417.9,326z"/>
		<path class="st75" d="M42.6,234.8c0,7.4,0,14.9,0,22.3c-4.1-7.3-1.2-15.1-1.7-22.6C41.4,234.6,42,234.7,42.6,234.8z"/>
		<path class="st75" d="M69,238.8c-4.8-0.6-10,1.7-14.4-1.9C58.6,237,63.9,235.6,69,238.8z"/>
		<path class="st43" d="M754.6,267.3c1.5,11.2-14.6,15.3-24.3,12.2c-0.1-2.4-0.1-3.6,0-8.1C738.4,269.9,746.5,268.6,754.6,267.3z"/>
		<path class="st152" d="M622.8,319.9c0.7-1.3,1.4-2.7,2-4c8.1,0.7,15.8,6.3,24.3,2c0,0.7,0,1.4,0,2
			C654.4,330.9,626.6,324.5,622.8,319.9z"/>
		<path class="st153" d="M649.2,322c0-0.7,0-1.4,0-2.1c7.5-2.3,17.7-3.8,26.4-6.1C676.5,323.7,656.4,326.9,649.2,322z"/>
		<path class="st154" d="M673.5,317.9c0.7-1.4,1.4-2.7,2-4.1c0.7,0,1.3,0,2,0c0.1,5.8,1,11.8-3.9,16.4
			C668.5,329.1,672.6,322.4,673.5,317.9z"/>
		<path class="st155" d="M787.1,465.9c0-73.7,0.1-147.4,0.1-221c17.5,23.9-9.8,238.1,13.7,220.3c7.3-73.7-5-153.2,4.5-226.4
			c0.7,0,1.3,0,2,0c15.2,3.6,12.4,24.1,8.5,36.6c-8-2-3.1-14.4-4.6-21.7c6.3,65.6,2.6,131.2-0.1,196.8c1.4-16.8-2.3-49.7,5.2-47
			c9.2,82.7-6.9,57.3-8.9,68.4c-6.9,0.9-13.5-0.9-20.2-2.1C787.2,468.6,787.1,467.3,787.1,465.9z"/>
		<path class="st156" d="M805.4,238.8c0,2,0,4.1,0,6.1c-5.7,4.2-6.3,0.1-18.2,0c0-3.3,0.1-6.7,0.1-10
			C793.3,236.2,799.4,237.5,805.4,238.8z"/>
		<path class="st12" d="M815.6,244.9c-1.2-4-9.8,1.9-8.2-6.1c4.2,2.1,16.3-5.1,18.3,2.1C819.2,239.1,821.9,246.3,815.6,244.9z"/>
		<path class="st157" d="M718.2,291.6c-7.3,0.3-12.5-2.2-13.9-10c7.4,0.2,26.7-1,24.1,10.1c0,0,0,0,0,0
			C725,293,721.6,293.1,718.2,291.6z"/>
		<path class="st158" d="M752.7,285.5c0,0.6,0,1.3-0.1,1.9c-7.6,0.4-14.3,5.5-22.3,4.2c1.8-2.7,1.8-5.4,0-8.2
			C735.7,280.2,758.2,273.2,752.7,285.5z"/>
		<path class="st159" d="M752.7,285.5c0.4-11-14.5,0.4-22.3-2.1c0-1.3,0-2.7,0-4c7.4-1.4,14.8-2.7,22.2-4.1
			C754.1,278.7,756.6,282,752.7,285.5z"/>
		<path class="st160" d="M706,532.8c0-79.1,0-158.2,0-237.2c2.7-1,5.4-3.7,8.1,0C707.5,374.6,721.9,547.6,706,532.8L706,532.8z"/>
		<path class="st161" d="M710,532.8c1.8-253.7-5.6-236.1,8.1-237.2c2.9,1.5,17.5,3.6,8.1,9.9c-23.3-7.1-6.5,100.6-11.2,111.2
			c3.5,115.9-10.2,104.4,13.6,113.6C735.4,536.9,710.9,541.7,710,532.8z"/>
		<path class="st162" d="M722.2,297.6c-1.7-0.1-3.2-0.4-4.1-2c3.4,0,6.8,0,10.2,0c0.1,0.6,0.1,1.3,0.1,1.9
			C726.4,299.1,724.3,299,722.2,297.6z"/>
		<path class="st162" d="M718.2,291.6c3.4,0,6.8,0.1,10.2,0.1c0,0.6,0,1.3-0.1,1.9C724.9,293.1,721,294.9,718.2,291.6z"/>
		<path class="st41" d="M730.3,297.7c6.8-1.4,13.5-2.7,20.3-4.1c-0.1,79.3,0.2,159.4-0.1,239.2c-6.4,3-13.5,2.4-20.2,4.1
			c-2.1-2.5-0.1-7,5-8.3c1.6-6.6,5.3-5.9,9.7-3c0.3-72.3,3.4-148.5-1.1-220.5C740.5,304.2,728.5,304.9,730.3,297.7z"/>
		<path class="st163" d="M807.4,484.2c7.5,0.6,14.9-0.5,22.3-2c-2,10-13.8,4.8-22.3,8.1C807.4,488.2,807.4,486.2,807.4,484.2z"/>
		<path class="st107" d="M805.3,490.2c0.7,0,1.4,0,2.1,0.1c0,1.4,0,2.7,0,4.1c-8.8-1.4-17.5-2.7-26.3-4.1c0.7-1.4,1.4-2.8,2.1-4.2
			C789,485.7,798.2,486.6,805.3,490.2z"/>
		<path class="st164" d="M754.6,539c-2.7,9.1-15.2,9.6-23.5,9c-1.6-1.3-3.5-3.8-0.7-7.1C738.6,542.7,746.3,536.7,754.6,539z"/>
		<path class="st165" d="M730.3,540.9c0,0.7,0,1.4,0,2.1c-8.8,1-17.1-0.4-24.3-6.1c0-1.4,0-2.7,0-4.1c1.3,0,2.7,0,4,0
			c4.5,2.7,11.5,3.9,18.3,2l0,0c0.7-0.9,1.3-0.9,2,0C730.3,535.6,730.3,537.8,730.3,540.9z"/>
		<path class="st35" d="M730.3,555.1c-11.2-7.2,28.4-14.2,22.3-4C745.4,553.6,738,555.3,730.3,555.1z"/>
		<path class="st69" d="M752.7,551.1c-0.7-6.5-18.9-1.2-24.1-0.1c0.3,0.5-4.2-4.6,1.7-4.1c7.4-1.3,14.9-2.7,22.3-4
			c1.4,2.5,2.5,5.1,2.1,8.1C754,551.1,753.3,551.1,752.7,551.1z"/>
		<path class="st166" d="M787.1,472.1c6.1,2,12.2,4,18.3,6c-1.9,7.9-12.9-0.2-20.3,0C784,475.5,781.9,472.5,787.1,472.1z"/>
		<path class="st167" d="M791.2,488.3c-2.9,0.3-5.6-0.6-8-2.1c0-1.6,0.3-3.1,1.9-4c5.3,3.5,18.8-1.7,20.3,8.1c-1.3,0-2.7,0-4,0.1
			C798.3,487.8,794.3,490.6,791.2,488.3z"/>
		<path class="st168" d="M60.9,526.7c0.7-79.2-1.1-160.8,0-239.2c9,78.6,3.3,159.9,2,239.2C62.2,526.7,61.5,526.7,60.9,526.7z"/>
		<path class="st19" d="M62.9,526.8c1.5-17.1-3-38,2-54.8C63.4,489.1,68.1,510.1,62.9,526.8z"/>
		<path class="st169" d="M93.3,526.7c-6.2-74.6-0.2-160.8-2-239.2c8.1,4,2.5,9.2,3.9,17.7C93.4,381,99.4,452.9,93.3,526.7z"/>
		<path class="st170" d="M97.4,461.9c0,22.3,0,44.6-0.1,66.9c-0.2,0,0.3,0-2,0c-1.7-80-1.9-162.9,0-243.3
			C100.6,341.2,96.4,403.9,97.4,461.9z"/>
		<path class="st171" d="M95.3,285.5c0,67.6,0,135.2,0,202.7c-0.7,0.9-1.3,0.9-2,0c-1.8-66,3.6-135.5-2-200.7c0-0.7,0-1.4,0-2
			C92.7,285.5,94,285.5,95.3,285.5z"/>
		<path class="st172" d="M93.3,488.2c0.7,0,1.3,0,2,0c0,12.8,0,25.6,0,38.5C90,520.3,95,499.4,93.3,488.2z"/>
		<path class="st171" d="M91.3,289.5c0,8.1,0,16.3,0,24.4C88.1,305.8,88.1,297.6,91.3,289.5z"/>
		<path class="st173" d="M79.1,265.2c40.9-8.1,13.3,16.5,0,8.1C80.9,270.6,81,267.9,79.1,265.2z"/>
		<path class="st174" d="M79.2,273.4c7.2,1,13.5-2.8,20.3-4.1c9,8.9-15.6,12.8-22.3,10.2C74.7,276.3,79.1,275.6,79.2,273.4z"/>
		<path class="st175" d="M77.1,263.2c-0.3,2.8,1,6.5-2,10.2c-5.7-7.5-16.2-4.3-24.3-10.1c0.7-2,1.3-4.1,2-6.1
			c0.4-0.2,0.9-0.4,1.3-0.6C60.9,260.7,82.2,253.9,77.1,263.2z"/>
		<path class="st138" d="M77.1,279.4c7.8,0.5,15.2-1.2,22.4-4.1c1.8,0.8,2.9,2,2,4.1c-0.2,0,0.3,0-2,0
			C92,278.4,84.5,284.9,77.1,279.4z"/>
		<path class="st176" d="M101.3,439.6c0.1,0.7,0.1,1.3,0.1,2c-5.2,6,1.1,14.3-4,20.3c0-7.4,0-14.8,0-22.2
			C98.7,439.6,100,439.6,101.3,439.6z"/>
		<path class="st11" d="M62.9,273.3c-2.7-0.6-5.5-1.3-8.2-1.9c4-4.5,7.2-5.3,12.7,1.6C66,274.6,64.5,274.5,62.9,273.3z"/>
		<path class="st175" d="M62.9,273.3c1.4,0,2.7,0,4.1,0c1.8-1.6,4.9-2.3,8.1,0.1C71,276.4,66.9,276.4,62.9,273.3z"/>
		<path class="st177" d="M823.6,463.8c-1.3,0.1-2.7,0.1-4,0.2c-3.7-71.6-1.5-148.4,0.1-221.1c0,0,0,0,0,0c6.7,1.7,3.8,7.1,3.8,10.9
			C823.7,323.8,823.6,393.8,823.6,463.8z"/>
		<path class="st178" d="M819.7,242.9c1.9,72.9,0.3,147.4-0.1,221.1c-0.7,0.6-1.3,1.3-2,1.9c-2.5-72.9-5.9-147.7,0-221
			C818.3,244.2,819,243.6,819.7,242.9z"/>
		<path class="st179" d="M817.6,244.9c0,73.7,0,147.3,0,221c-0.7,0-1.3,0-2,0c0-21,0-41.9-0.1-62.9c-3.7-40.3-3.6-86.8,0-127.7
			c0-10.1,0-20.3,0.1-30.4C816.2,244.9,816.9,244.9,817.6,244.9z"/>
		<path class="st180" d="M79.1,549.1c-5-8.2,16.7-9.2,22.4-8.1C106.5,550.7,85.8,553.1,79.1,549.1z"/>
		<path class="st181" d="M101.4,540.9c-7.4,1.3-14.9,2.7-22.3,4c-0.7-2-1.3-4-2-6C84.9,540.9,100.9,533.7,101.4,540.9z"/>
		<path class="st182" d="M52.8,547c7.6-1.2,14.7,2.8,22.3,2C68.9,555.6,59.4,554.8,52.8,547z"/>
		<path class="st181" d="M79.1,549.1c7.6,1.2,14.8-2,22.3-2c-1,6.8-15.7,6.3-22.3,6C79.1,551.7,79.1,550.4,79.1,549.1z"/>
		<path class="st183" d="M101.4,549.1c-0.2-3.7-2.7-7.3,4-12.1C106,539.8,105.8,559.2,101.4,549.1z"/>
		<path class="st75" d="M42.6,263.1c0,10.2,0,20.4,0,30.5C39.4,283.5,39.4,273.3,42.6,263.1z"/>
		<path class="st75" d="M42.6,295.6c0,3.4,0,6.8,0,10.3C39.7,302.4,39.7,299,42.6,295.6z"/>
		<path class="st184" d="M46.6,315.9c-0.1-13.7-1.7-29,0.1-44.6l0,0c0.7-0.9,1.3-1,2,0c3.2,38.4,5.5,151.3-2.1,144
			C45.3,382.8,44.6,349,46.6,315.9z"/>
		<path class="st75" d="M46.6,315.9c0,33.1-0.1,66.3-0.1,99.4c-0.6,0-1.3-0.1-1.9-0.1C46.3,383.3,41.3,347.4,46.6,315.9z"/>
		<path class="st185" d="M75.1,273.3c-6.4,2.4-12.9-5.9-20.3-2.1c-0.2,0,0.3,0.1-2,0c-1.5-2.4-2.5-5-2.1-8
			C57.2,265.5,75.9,261,75.1,273.3z"/>
		<path class="st2" d="M172.5,459.8c-0.7,0-1.4,0-2,0c-5.7-53.1-5.6-178.7,1.9-174.4C172.4,343.6,172.4,401.7,172.5,459.8z"/>
		<path class="st186" d="M318.5,311.8c3.3-0.3,15.2-5.5,13.2,3.3c-14.8,8.3-33,17.5-51.8,8.9c-10.1-15.6,20.9,2.8,26.5-10.9
			C310.4,312.1,314.7,314.1,318.5,311.8z"/>
		<path class="st187" d="M172.3,285.4c-1.5,0.9-1.9,2.3-2,4c-5.6,4.7-31.6,12.1-23.9-2.8c7.4-3.9,16.7-6.2,26.1-5.2
			C172.5,282.8,172.4,284.1,172.3,285.4z"/>
		<path class="st188" d="M280,317.8c-0.7,0.7-1.5,1.4-2.2,2.2c-7.8-7.4-2.5-17.6-4-28.3C276.5,300.2,277.8,308.5,280,317.8z"/>
		<path class="st189" d="M304.1,596c-0.6,1.9-16-3-20.1-4.4c1.4-201.6-4.1-263.3,1.1-263.6c5.6-0.4,9.2,2.2,19.2,4.1
			c5.1,13.2,1.3,248.5-1.2,261.9"/>
		<path class="st190" d="M328.6,591.6c-7.1,6-16.5,2.7-24.3,6.1c-0.2-0.2-1-0.9-0.1-2.1l0,0c9.4-18.8,19.4-0.7,17.3-25
			c-1.2-78.8,2.4-155.1-1.3-232.7c-2-1.7-14.3,5.2-15.9-7.9c0-0.6,0-1.3-0.1-1.9c11-5.6,28.3-6.1,24.4,11.1
			C328.7,424.5,328.7,506.5,328.6,591.6z"/>
		<path class="st191" d="M314.5,585.6c1,7.9-8.4,5.1-10.3,10c0-17.6,0-35.1,0-52.7c-7.7-24.7-0.8-56.6-3-83.5
			c1.7-34.9-3.7-75,3-86.8c0-13,0-28.6,0-42.6c14.2,17.9,4.3,57.1,7.1,76.1c2.1,70.4-4.4,174.3,3.3,173.2
			C316.1,581.5,316.1,583.6,314.5,585.6z"/>
		<path class="st192" d="M304.3,595.7c0,1,0.1-0.4,0,4.1c-0.2,8.3-21.7,2.2-26.3-1.9c1.1-2.2,4.3-3.1,4-6.2
			C288.5,592.1,295.6,598.8,304.3,595.7z"/>
		<path class="st193" d="M148.1,287.5c-7.1,13.4,22.1-1,20.8,8.2c2.1,87.7-1,167-0.5,251.4c-0.9,4.5-25.9,14.1-19.9,1.2
			c23.1-7.3,11.3-39.2,14.9-59.8c-0.2-61.1,0.3-120.1-0.1-181.3c2.8-7.9-33.1-9.4-40.3-15.4c-13-6,1.6-13.2,10.8-7.8
			c8,2.9,8.2-5,15.2-5.5C158.8,277.6,154.2,285.3,148.1,287.5z"/>
		<path class="st194" d="M168.4,459.9c-1.7-185.2,7-164.7-14.2-166.3c5-3,10.5-3.9,16.1-4.2c0,56.8,0.1,113.6,0.1,170.5
			C169.7,459.8,169.1,459.8,168.4,459.9z"/>
		<path class="st195" d="M304.1,617.9c0.1,1.4,0.2,2.7,0.3,4.1c-8.5-3.7-18.7,0.5-26.5-6c0-0.7,0.1-1.4,0.1-2.1
			C284.4,610.9,297.7,613,304.1,617.9z"/>
		<path class="st63" d="M146,573.3c0.2-5.4,2.5-10.7,0-16.1c6.5-3.4,13.3-4.2,20.4-2.2c10.4-4.7,1.9,6.8,6,12.2
			C164.4,572.8,154.7,571,146,573.3z"/>
		<path class="st196" d="M166.4,555.1c-6.6,2.6-13.5,2.1-20.4,2.2c-2.3-1.4-0.1-2.8,0-4.1c0.6-0.7,1.3-0.7,2-0.1
			c5.4-1.3,10.7-2.5,16.3-1.9C165,552.4,165.7,553.7,166.4,555.1z"/>
		<path class="st197" d="M133.9,575.4c2.3-3.2,6.6-1.7,12.1-2.1c0,1.4,0.1,2.7,0.1,4.1C142,576.7,138,576.1,133.9,575.4z"/>
		<path class="st198" d="M278.1,597.8c8.8,0.6,17.2,4.4,26.2,4C314.9,613.9,277.4,612.4,278.1,597.8z"/>
		<path class="st111" d="M280,603.8c8,1.7,15.9,4.3,24.3,4.1c1.1,1.3,1.2,2.7,0.5,4.2c-7,4-17.3-3.8-24.7,1.8c-0.7,0-1.3,0-2,0
			C277.6,610.3,278.1,606.9,280,603.8z"/>
		<path class="st2" d="M419.9,528.8c-11.1-16.1-2.1-73.6-4.9-85.8c2.4-41.2-5.5-100.6,4.7-104.9
			C419.8,401.7,419.9,465.2,419.9,528.8z"/>
		<path class="st199" d="M419.8,338.1c-17.9,21-54.6,5.1,0.2-4C419.8,335.1,420.4,333.9,419.8,338.1z"/>
		<path class="st200" d="M456.5,313.8c2.8,0.3,6-0.9,8.1,2c-11.5-0.4-4.1,25-6.1,32.5c-0.2,0,0.3,0-2,0
			C456.5,336.8,456.5,325.3,456.5,313.8z"/>
		<path class="st201" d="M460.5,437c1.9-78.5-4.4-110.7,3.4-114.4c9.9,71.3,3.3,151,2.6,225.1C455.9,584.2,461.9,438.1,460.5,437z"
			/>
		<path class="st202" d="M478.7,459.7c-5.2,29.3-0.3,64.4-2,95.4c-1.3,0-2.7,0-4,0c-1.9-75.9-1.9-154.9,0-231.1
			c13.8,4.2,4.2,57.2,6.9,65.2C477.6,413.5,483.1,436.5,478.7,459.7z"/>
		<path class="st203" d="M472.7,324c0,77,0,154.1,0,231.1C468.8,480.7,468.9,398.7,472.7,324z"/>
		<path class="st37" d="M478.7,449.8c-5.3-42-0.3-88.4-2-131.9C487.2,341.1,481.8,446.5,478.7,449.8z"/>
		<path class="st200" d="M466.6,315.9c3.4,0,6.7,0,10.1,0c0,0.7,0.1,1.3,0.1,2C473.3,317.5,469.5,319.3,466.6,315.9z"/>
		<path class="st204" d="M490.9,324c0.8-1.9,2-3.3,4-4c2.9,70.9,6.9,243.7-4,233.1c-2.1-15.9-0.3-33.3,0-50.7
			C488.5,445.3,488.5,382.3,490.9,324z"/>
		<path class="st205" d="M490.9,324c2.3,59.5,3.7,119,0,178.4c-1.3,0-2.7,0-4,0c-7.5-28.4-0.7-63.6-2.9-94
			C486.6,374.1,477.3,334,490.9,324z"/>
		<path class="st206" d="M486.9,328c-1.9,74.3,3.7,151.4-2.1,225.1c-4.9-58.5-9.3-245.4,1.9-229.1
			C486.9,325.4,486.9,326.7,486.9,328z"/>
		<path class="st207" d="M482.9,449.7c5.5,32.7,0.2,71,2,105.4c0,0-0.1-0.1-0.1-0.1c-5.5-2.2-3.5-3.4-3.9-10.1
			C482.4,512.9,477.4,480.8,482.9,449.7z"/>
		<path class="st205" d="M490.9,524.7c0,9.5,0,18.9,0,28.4C487.7,543.7,487.7,534.2,490.9,524.7z"/>
		<path class="st200" d="M486.8,324.1c-1.3,0-2.6-0.1-3.9-0.1c-6.1,75,5.5,160.8-4.1,231.2c-0.1-77.6-0.1-157,0-235.3
			C481.1,321.9,485,321.1,486.8,324.1z"/>
		<path class="st189" d="M628.9,589.6c0-50.7,0-101.4,0-152.1c10.9,2.6,2.2,74.3,4.9,79.4C631.8,539.6,638.8,591.2,628.9,589.6z"/>
		<path class="st208" d="M626.9,354.4c1.8-6-4-13.6,4-18.2c5.3,1.6,10.6,2.5,16.1,2.1c6.8,5.5-6.1,17.1-14.2,9.6
			c-2.5,1-1.3,3.7-4,6.6C628.2,354.4,627.6,354.4,626.9,354.4z"/>
		<path class="st209" d="M628.9,354.4c0.6-3.4-1.4-7.3,2.1-10.1c5.7,29.6,4,85.5-0.1,93.2c-0.7,0-1.3,0-2,0
			C628.9,409.8,628.9,382.1,628.9,354.4z"/>
		<path class="st210" d="M628.9,589.6c0.7,0,1.3,0,2,0c2.9-1.6,3.6-6.7,6.1-10.5c15.3,13.7,14.3,23.2-8.1,14.6
			C628.9,592.4,628.9,591,628.9,589.6z"/>
		<path class="st211" d="M391.8,346c8.6,2.1,15.9-3.4,24.1-3.8c1.9,60.3,1.8,123.9,0,184.5c0,29.1,0,58.1,0,87.2
			c-6.3,6.3-15.1,3.4-22.3,6.1c-2.7-2.9-3.7-8.8,0.8-12.6c13.3-2,3.5-141.5,6.5-142c-2.3-19.5,8.8-101-2.8-82.5
			C393.3,379.6,389.3,351.7,391.8,346z"/>
		<path class="st212" d="M415.9,526.8c0-61.5,0-123,0-184.5c0.7-0.7,1.3-1.4,2-2.1c0,62.2,0,124.4,0,186.7
			C417.2,526.8,416.6,526.8,415.9,526.8z"/>
		<path class="st93" d="M478.8,555.2c1.8-0.1,3.1,0,6,1.9c-1.3,1.4-2.7,2.7-4,4.1c-0.7,0-1.3,0.1-2,0.1
			C478.8,559.3,478.8,557.2,478.8,555.2z"/>
		<path class="st213" d="M392.1,627.9c5.6-4.3,31.1-10.7,27.8-1.8C418,633.5,383.4,637.6,392.1,627.9z"/>
		<path class="st156" d="M392.1,627.9c-0.2,0.8-0.3,1.5-0.5,2.3c-8.8,5-25.7,2.2-26.3-10.1c9.4-3,18,0.1,26.4,3.9
			C391.8,625.3,391.9,626.6,392.1,627.9z"/>
		<path class="st214" d="M391.6,624c-9.1,0.7-17.5-3.4-26.4-3.9c1.4-1.4,2.7-2.8,4.1-4.2c7-0.1,16.8-0.7,24.3,4.2
			C392.9,621.4,392.3,622.7,391.6,624z"/>
		<path class="st215" d="M399.7,630.2c6.7,1.2,14.6-2.6,22.2-4.1C421.3,633.2,401.6,639.6,399.7,630.2z"/>
		<path class="st94" d="M405.8,632.2c4.7-0.7,9.5-1.4,14.2-2.1c0,2,0,4,0,6.1c-8.7,1.9-17.3,4-26.3,4.1
			C384.7,631.2,399.3,633.6,405.8,632.2z"/>
		<path class="st125" d="M361.1,640.3c1.4-1.4,2.8-2.8,4.1-4.2c8.6-2,19.7,0.5,28.3,4.2c-0.7,1.3-1.4,2.7-2.1,4
			C381.1,645.3,371.4,640.4,361.1,640.3z"/>
		<path class="st13" d="M673.4,608c0,2,0.1,4,0.1,5.9c-8.1,1.3-15.9,4.7-24.3,2.1c0-1.3-0.1-2.7-0.1-4
			C656.7,607.6,664.7,606,673.4,608z"/>
		<path class="st69" d="M673.4,608c-7.2,1.9-17.2,4.2-26.2,3.9c5.3-7.3,17.1-8.8,26.4-8.1C673.5,605.2,673.4,606.6,673.4,608z"/>
		<path class="st13" d="M478.7,575.5c0-0.7,0-1.4,0.1-2.1c7.8-3.6,15.9-4.7,24.2-2c0.1,2.2,0.4,4.6-1.9,6c-7.5,0-14.7,3.2-22.3,2.1
			C478.8,578.2,478.8,576.8,478.7,575.5z"/>
		<path class="st13" d="M478.7,565.4c4.7-0.9,10,1.7,14.3-2.1c3,2.2,10.4-6.6,10,4c-6.3,4.6-16.1,5.5-24.4,4.1
			C478.7,569.3,478.7,567.4,478.7,565.4z"/>
		<path class="st69" d="M478.9,571.4c8.1-1.4,16.1-2.7,24.2-4.1c0,1.4,0,2.8,0,4.2c-8,1.8-16.1,2.4-24.2,2
			C478.8,572.7,478.8,572,478.9,571.4z"/>
		<path class="st13" d="M673.6,603.8c-7.4,4.9-16.6,2.7-24.4,6c0-1.7,0.1-2.1,0.1-8c6.5-3.4,13.2-5,20.4-2.2
			C671.2,598.5,677.7,599,673.6,603.8z"/>
		<path class="st166" d="M628.9,599.8c6.4,0,12.5,1.5,18.3,4C639.4,612.8,617.6,603.3,628.9,599.8z"/>
		<path class="st216" d="M635,595.7c4.4-1.4,12.1,3.8,12.1-6.1c-5.4-78.2-5.3-164.5,0-243.2c0-2.1,0-4.1,0.1-6.2
			c2.3,3,12.9,1.9,10.4,8.7c-8.4,89.7,7.1,226.9-8.4,248.8C644.4,597,639.3,599.5,635,595.7z"/>
		<path class="st100" d="M669.5,599.6c-6.7,1.3-13.4,2.9-20.4,2.2c0-1.4,0-2.7,0-4.1c0,0,0,0,0,0c4.2-2.3,13.8-5.6,20.2-2.1
			C669.5,596.9,669.5,598.3,669.5,599.6z"/>
		<path class="st37" d="M484.9,557.1c-9.8-5-1.4-56.3-4.1-62.8c1.9-57.3-3.7-114.9,2.1-170.3c1.9,76.2-3.7,155.6,1.9,231
			C484.8,555.7,484.8,556.4,484.9,557.1z"/>
		<path class="st217" d="M322.6,326c-5.9,1.9-14.2,1.6-20.4,1c-2-5.7,32.9-15.1,30.5-9.2c-1.6,0.9-1.7,2.6-1.9,4.2
			C328,323.3,325.3,324.7,322.6,326z"/>
		<path class="st218" d="M393.6,340.2c-0.6,1.9-1.2,3.9-1.8,5.8c-7,6.8-15.3-3.2-24.5-3.8c-9.5-14.1,19.7-3.1,26.3-4.1
			C393.5,338.8,393.5,339.5,393.6,340.2z"/>
		<path class="st219" d="M367.3,336.1c-0.7,0.7-1.4,1.4-2.1,2.1c-0.7-1.3-1.5-2.7-2.2-4c0.7-3.5-1.2-7.5,2.2-10.4
			C367.7,326.2,368.4,331.1,367.3,336.1z"/>
		<path class="st220" d="M332.6,317.8c-0.6-0.7-1.3-1.3-1.9-2c-0.1-2.2,0.3-4.6-2.1-6.1c5.7-4.1,3,4.4,6.1,4.1
			C334.8,315.6,334.4,317.1,332.6,317.8z"/>
		<path class="st92" d="M379.4,346.3c1.2,1.6,6.2,1.1,12.1,0.1c0,7.3,3.6,16.7,0.8,25.8c-3.7,1.8-3.4-1.4-3.9-1.9
			c-0.1,75.3,0.4,153.3-0.2,228.5c-0.9-0.6-0.2-5.7,3.9-5c4.8,8.8-0.6,17.4-0.7,26.1c-7.1,0.4-13.7-1-20.1-4
			C373,337.3,365.5,346.1,379.4,346.3z"/>
		<path class="st158" d="M304.3,612c0-1.4,0-2.7,0-4.1c1.3-2,1.3-4,0-6c0-0.7,0-1.4,0.1-2.1c9.8,5.1,18.8-2.1,28.3-1.9
			c0,2.2,0.4,4.5-1.9,6c-6.1,7.8-17.2,4.4-26.1,10.6C304.5,614.1,303.6,613.9,304.3,612z"/>
		<path class="st221" d="M304.3,612c0,0.7,0.1,1.3,0.1,2c0.2,0.2,1,1,0,2.2c-0.1,0.6-0.2,1.2-0.3,1.8c-8-1.3-16-2.7-24.1-4
			C279.5,602.7,296.1,612.1,304.3,612z"/>
		<path class="st13" d="M304.4,616.1c0-0.7,0-1.4,0-2.2c2.2-4.9,33.7-12.6,26.2,0C322,615.8,313.3,617.6,304.4,616.1z"/>
		<path class="st222" d="M330.6,613.9c0.5-11.2-16.1-1.9-24.3-2c3-7.1,17.1-4.1,24.3-8.1c1.8,3.1,2.4,6.5,2,10.1
			C332,613.9,331.3,613.9,330.6,613.9z"/>
		<path class="st223" d="M393.4,640.1c-9.7,1-18.9-1.7-28.1-4c0-2,0-3.9,0-5.9c9.1-1.1,17.7,0.8,26.2,4
			C392.1,636.2,392.7,638.2,393.4,640.1z"/>
		<path class="st39" d="M391.5,634.2c-8.7-1.3-17.5-2.7-26.2-4c0.6-1.4,1.2-2.7,1.8-4.1c7.8,3.2,16,4.6,24.4,4.1
			c0,0.7,0,1.4,0.1,2.1C391.9,632.4,392.9,633.5,391.5,634.2z"/>
		<path class="st224" d="M125.7,488.1c2.1-28.9-10.1-89.1,2.5-87c11.2,100.8-12,135.5,16.2,148.2
			C114.3,564.6,129.2,503.5,125.7,488.1z"/>
		<path class="st225" d="M121.8,559.2C149.9,550.6,149.6,570.1,121.8,559.2C121.8,559.2,121.8,559.2,121.8,559.2z"/>
		<path class="st226" d="M137.9,551.1c2.2-0.1,4.6,0.4,6.1-2.1c-0.1-0.3-0.9-0.5-0.3-2.2c1.9-1.1,4.1,0.8,4.3,4.2c0,0.6,0,1.2,0,1.9
			C145.2,552.9,141.6,554,137.9,551.1z"/>
		<path class="st131" d="M671.4,328c0.7,0.8,1.5,1.5,2.2,2.3c-0.1,1.3-0.1,2.6-0.2,3.8c-5.6-0.2-30.7,15.1-23.2-3.2
			C657.3,329.7,663.7,324.3,671.4,328z"/>
		<path class="st227" d="M649.3,338.2c8,1.1,23.5-7.7,20.2,7.3c-0.5,82.8,0.4,166.8,0,250.1c-2,0-4,0.1-6,0.1
			c-3.8,2.5-8.4-0.6-12.2,2c-0.7,0-1.4,0-2,0c-2.2-10.3,14.6-4.3,15.2-13.9c0.2-44.2,0.2-90.6,0.2-135.3c-0.8-34,1.5-69.3-0.9-102
			c-4.4-1.6-16.7,0.3-16.6-8.3C647.8,338.2,648.5,338.2,649.3,338.2z"/>
		<path class="st223" d="M730.3,547c-7.7,2.2-24.1,2.7-24.2-10c8,2.3,16.6,2.5,24.3,6.1C730.3,544.3,730.3,545.7,730.3,547z"/>
		<path class="st123" d="M728.2,549.1c0.5,1.6,0.5,6.4-4,6c-4.6-2.8-17.3,1.7-18.2-8C713.8,544.2,720.9,547.8,728.2,549.1z"/>
		<path class="st228" d="M728.2,549.1c-7.4-0.7-14.8-1.3-22.2-2c0.6-1.4,1.3-2.7,1.9-4.1c6.8,1.3,13.6,2.7,20.4,4
			C728.3,547.7,728.3,548.4,728.2,549.1z"/>
		<path class="st228" d="M712.1,553.1c4.1,0.6,8.6-1.6,12.2,2C720.2,554.5,715.7,556.7,712.1,553.1z"/>
		<path class="st157" d="M622.9,320c8.8,0.7,17.2,4.4,26.2,4.1c2.5,2.6,2.1,5.3,0.1,8c0,0,0,0,0,0c-8.4,0.5-16.7,0.1-24.3-4
			C623.5,325.5,622.5,322.9,622.9,320z"/>
		<path class="st213" d="M478.8,303.7c0-0.7,0-1.4,0-2.1c7.9,2.9,26.6-10,24.3,4.1c-8.1,2-16.3,4-24.4,6
			C478.7,309.1,478.8,306.4,478.8,303.7z"/>
		<path class="st229" d="M730.3,534.8c-0.7,0-1.3,0-2,0c0-1.4,0-2.7,0-4.1c-5.3-73.1-5.4-153.7,0-227c0.4-4.5-4.7-3.4-6.1-6.1
			c1.6,0.1,2.2-0.4,8.1,0c10.9,35.7,2.8,79.8,5.1,118C733.3,463.8,740.3,522,730.3,534.8z"/>
		<path class="st75" d="M75,246.9c-0.7,1.4-1.3,2.7-2,4.1c-7.2,3.7-14.2,5.3-20.3-2c0-1.3,0-2.7,0-4C60.3,244.1,67.4,248.2,75,246.9
			z"/>
		<path class="st139" d="M52.7,249c6.4,5.3,29.1-3.6,24.4,10.1c-0.7,0-1.4,0-2,0c-7.1-4.3-14.6-4.5-22.3-2.1c0,0-0.1,0.1-0.1,0.1
			C49.9,254.4,49.9,251.7,52.7,249z"/>
		<path class="st230" d="M48.7,271.3c-0.2,0,0.3,0-2,0c0-5.8-1.8-14,0.4-22.1c0.5,0,1.1,0,1.6,0C48.7,256.5,48.7,263.9,48.7,271.3z"
			/>
		<path class="st75" d="M46.6,291.6c0,5.4,0,10.8,0,16.2C43.6,302.4,43.5,297,46.6,291.6z"/>
		<path class="st75" d="M46.7,271.3c0,4.7,0,9.5,0,14.2C43.5,280.7,43.4,276,46.7,271.3z"/>
		<path class="st75" d="M46.7,253c0,4.1,0,8.1,0,12.2C43.6,261.1,43.6,257.1,46.7,253z"/>
		<path class="st231" d="M365.2,326.1c0-0.8-0.1-1.5-0.1-2.3c9-1.8,17.4,4.3,26.4,2.2c0,1.4,0,2.7,0,4.1
			C381.8,335.3,373.3,332.5,365.2,326.1z"/>
		<path class="st232" d="M365.2,326.1c8.7,2,17.2,4.9,26.3,4c1.4,2.5,2.3,5,2,7.9c-9.2,5.4-17.5-0.6-26.2-1.9
			C365.2,333.1,364.9,329.7,365.2,326.1z"/>
		<path class="st157" d="M146,265.3c3.5,15-18.4,11.6-26.9,6.3C112.8,255.3,137.8,261.2,146,265.3z"/>
		<path class="st233" d="M146,265.3c-7.3-1.2-35.9-0.6-30.5-8.1c9.7-2.7,18.8,4.1,28.4,1.9C144.7,261.1,145.3,263.2,146,265.3z"/>
		<path class="st152" d="M119.7,271.3c7-0.7,24,7.7,26.4-4.1c2.4,1.5,2,3.8,2,6.1c-1.6,0.9-2,2.4-2,4.1
			C148.7,282.9,112.9,280.6,119.7,271.3z"/>
		<path class="st234" d="M77.1,259.1c0-2,0-4-0.1-6.1c6.1-1,12.6,2,18.3-2c17.4,4.9-13.5,8.5-18.3,12.1
			C77.1,261.8,77.1,260.5,77.1,259.1z"/>
		<path class="st235" d="M146.1,279.4c0-0.7,0-1.4,0-2c8.6,3,32.7-10.3,24.3,4.1c-7,3.7-14.9,4-22.3,6
			C152.2,282.6,156.5,278.7,146.1,279.4z"/>
		<path class="st188" d="M302.2,297.8c3.6,2.4,4.7,5.8,4.2,10c0,0,0,0,0,0c-5.9,6.5-19.2,3.6-26.3-2.1
			C270.8,289.4,292.4,300.2,302.2,297.8z"/>
		<path class="st236" d="M280,305.7c8.2-0.4,15.7,7,24.3,2.1c1.4,2.2,1.3,4.3,0.1,6.5c-9.2,1-18.3,1.2-26.4-4.4
			C278.2,309,278.7,308.4,280,305.7z"/>
		<path class="st220" d="M304.3,313.8c0-2,0-4,0-6c0.7,0,1.3,0,2,0c2,7.4,8.1,2.6,12.2,4.1c-3.6,3.7-8.2,1.3-12.3,2.1
			C305.6,314.5,304.9,314.5,304.3,313.8z"/>
		<path class="st220" d="M649.2,332.1c0-2.5-0.2-5.4,0-10.1c8.4,0.5,16.6-0.8,24.4-4.1c4.9,4.5-1,6.8-2.1,10.1
			C663.8,328.3,657.1,333.4,649.2,332.1z"/>
		<path class="st237" d="M789.2,244.9c1.5-2.4,3.8-2,6.1-2c7.8,18.5,9.8,264.4-5.2,218.2C790.6,388.7,790.8,317.7,789.2,244.9z"/>
		<path class="st189" d="M789.2,267.2c8.1,64.2-4.8,134.9,4.8,199.3c7.3-74.1,2.9-148.9,1.2-223.6c18.8,11.5-1.8,229.2,10.1,225
			c-11.3,4-16.2,1.1-16.2-9.8C789.2,394.5,789.2,330.9,789.2,267.2z"/>
		<path class="st202" d="M805.4,247c0,73,0,146,0,218.9c-11.7,8.1-2-146.4-5-145.4C802.6,301.6,795.2,241.2,805.4,247z"/>
		<path class="st238" d="M815.5,275.4c0,42.6,0,85.1,0,127.7c-5.3,18.4,0.2,41.2-4.1,61.5c-0.4-72.6,2.2-145.1-0.5-217.7
			C815.8,256,810.8,266.3,815.5,275.4z"/>
		<path class="st239" d="M805.4,247c-10.4,13.8-0.9,72.2-4,82.4c2.1,44.2-4.9,138.1,4,136.6c0,0.7,0,1.4,0,2
			c-13,2-3.2-62.6-6.1-67.4c0-52.6,0-102.9,0-155.7c2,0,4.1,0,6.1,0C805.4,245.6,805.4,246.3,805.4,247z"/>
		<path class="st209" d="M728.3,303.7c0,0.7,0,1.4,0,2c-11.4,71.7,4.7,152.6-6,225c-14.5-4.4-3.8-92.6-7-98.5
			c1.9-52.8-3.8-111.6,2.9-128.6C721.5,303.7,724.9,303.7,728.3,303.7z"/>
		<path class="st240" d="M718.1,303.7c0,73.7,0,147.3,0,221c-10.1,20.4-3.1-66.6-5-69.2C715.8,411.7,707.1,295.3,718.1,303.7z"/>
		<path class="st241" d="M716.1,303.7c-6.5,69.9,1.2,149.3-2.5,218.4c-1,2.7-1.5,5.7,4.5,2.6c0,1.4,0,2.7,0,4.1
			c-12.7,13.5-3.4-86.4-6.1-89.3C714.3,402.6,707.1,296.2,716.1,303.7z"/>
		<path class="st237" d="M726.3,305.8c0.7,0,1.3,0,2,0c0,75,0,150,0,225c-0.2,0,0.3,0-2,0C722.5,457.7,722.5,379.1,726.3,305.8z"/>
		<path class="st242" d="M726.3,305.8c0,75,0,150,0,225c-0.2,0,0.3,0-2,0c-1.9-73.9-1.8-150.9,0-225.1
			C724.9,305.7,725.6,305.7,726.3,305.8z"/>
		<path class="st237" d="M724.3,305.7c0,75,0,150,0,225.1c-0.7,0-1.4,0-2,0C724.1,456.7,718.6,379,724.3,305.7z"/>
		<path class="st229" d="M728.3,534.9c-3.4,3.1-6.8,3-10.1,0C721.5,534.9,724.9,534.9,728.3,534.9z"/>
		<path class="st243" d="M732.4,530.8c0-75,0-150.1,0-225.1c7.9-8.4,7.2,11.7,8.8,17.3c-0.7,70,4.7,138.5-4.7,207.8
			C735.1,530.8,733.7,530.8,732.4,530.8z"/>
		<path class="st244" d="M736.4,530.8c0.4-69.2,7.6-238.3-4.1-225.1c-2.4-1.5-1.9-3.8-2-6.1c3.9,1.5,7.6,4.2,12.1,2
			c5.4,73.3,5.4,155.5,0,229.2c-2.7-1.2-1.1-4.7-3.4-6.6C738.2,525,739.7,532.1,736.4,530.8z"/>
		<path class="st244" d="M742.5,301.6c13.3-15,3.1,124.3,6.1,126.1c-2.5,25.1,6.2,113-6.1,103.1
			C746.4,456.4,746.4,376.2,742.5,301.6z"/>
		<path class="st48" d="M791.2,488.3c3.4,0.4,7.3-1.4,10.2,2C797.9,489.8,794.1,491.6,791.2,488.3z"/>
		<path class="st245" d="M121.7,445.5c0-47,0-94.2,1.7-141.7c10.5-2.7,5.4,99.3,2.5,97.2c0,22.3-0.1,44.7-0.1,67
			C120.5,461.2,127.1,452.3,121.7,445.5z"/>
		<path class="st246" d="M52.8,257c6.5-6.7,18-5.7,22.3,2.1C67.2,263.6,59.9,261,52.8,257z"/>
		<path class="st247" d="M819.7,399c0-41.9,0-83.8,0-125.7C823.4,312.5,823.3,359.3,819.7,399z"/>
		<path class="st157" d="M304.3,313.8c0.6,0,1.2,0.1,1.9,0.1c0.7,13.2-18,7.6-26.2,3.9c-1.4-2.5-2.3-5-2-7.9
			C286.7,311.5,295.8,310.9,304.3,313.8z"/>
		<path class="st220" d="M328.7,315.9"/>
		<path class="st220" d="M316.5,320"/>
		<path class="st248" d="M304.3,372.7c-1.6,42.4,4.5,244.7-7.5,214.8C301.3,542.8,291.7,235.3,304.3,372.7z"/>
		<path class="st249" d="M288.6,590.1c-0.1-256.7-6.3-244.5,0.6-254.6c8.1,45.2,0.4,99.2,3,146.8C290.3,520,296.4,579,288.6,590.1z"
			/>
		<path class="st250" d="M318.6,334.2c13.3-13.4,2.8,128.6,6,130.9c-2.5,31,6.2,129.5-6,124.5C313.4,506.5,312.8,417.6,318.6,334.2z
			"/>
		<path class="st168" d="M314.4,579.4c-3.3,2.2-0.5,6.7-5.9,11.2c0-86.2,0-170.3,0-254.3c1.9,0,3.9,0,5.8,0
			C318.5,415.1,318.2,500.3,314.4,579.4z"/>
		<path class="st251" d="M314.4,579.4c0-81-0.1-162.1-0.1-243.1c1.4-0.7,2.9-1.4,4.3-2.1c0,9.4-0.1,18.9-0.1,28.3
			c-2,50.7-1.9,105.1,0,156.1c0,23.6,0.1,47.3,0.1,70.9c-1.4-1.3-2.7-2.6-4.1-4C314.5,583.5,314.4,581.5,314.4,579.4z"/>
		<path class="st252" d="M148,551.1c-1.6-0.9-1.9-2.4-2-4.1c-3.6-4.7-3.2-9.7-1.5-14.8c5.1-1.3,4.4,0.2,6.5,6.7
			c0.6-75.3,0.1-152.2,0.2-227.6c-8,13.8-10.5-9.3-5.3-15.7c4.3,4.1,8.7,7,14.3,2.1c10,79.9-3.3,167.4,4,247.3
			C159.1,547.5,152.4,546.3,148,551.1z"/>
		<path class="st253" d="M164.3,545c-6-0.5-6.8-5.9-6-10.6c4.2-78,0.9-158,2-236.7c1.3,0,2.6,0,3.9,0
			C166.3,379,168.2,462.9,164.3,545z"/>
		<path class="st221" d="M146.1,530.8c0,5.4,0,10.8,0,16.2c-0.7,0-1.3,0-2,0c-13.6-213.8-16.9-237.1-20.3-243.3
			c2.2,4.1-4.4-10.5,4.1-12.2c5.5,3.9,12.7,0.2,18.2,4.1c0,6.7,0,13.5,0.1,20.2C151.5,384.6,151.4,461.8,146.1,530.8z"/>
		<path class="st105" d="M119.7,275.4c8.7,1.7,17.8,0.9,26.3,4C149.6,294.5,111.6,284.8,119.7,275.4z"/>
		<path class="st254" d="M166.3,378.8c-5.3-24.4-0.4-54.9-2-81.1C169.9,321.9,164.6,352.6,166.3,378.8z"/>
		<path class="st255" d="M127.8,291.5c-11.3,14,1.6,54.2-6.1,64.9c0-22.3-0.1-44.6-0.1-66.8C123.9,289.6,126.3,289.2,127.8,291.5z"
			/>
		<path class="st256" d="M119.7,275.4c-0.4,2.9,0.6,5.5,2.1,8c-0.7,0.7-1.5,1.5-2.2,2.2c-6.7-7.3-3-16.3-3.8-24.5
			c4,0.7,8.5-1.6,12,2C119.3,262.2,119.3,267.3,119.7,275.4z"/>
		<path class="st257" d="M633,589.6c-0.7,0-1.4,0-2,0c0-77.9,0-156.7,0-235.2c9.5,4.7,3,15.3,4.9,25.2
			C633.6,451.2,640.5,519.8,633,589.6z"/>
		<path class="st209" d="M641.1,591.6c-12.9-36.2-3.2-82.2-6.1-122.1c2.9-46.6-6.9-114.9,6.1-123.2
			C646.5,425.4,646.4,512.2,641.1,591.6z"/>
		<path class="st258" d="M641.1,591.6c0-81.8,0-163.6,0-245.3c2,0,4,0,6.1,0c0,44.6,0,89.2,0,133.8c-7.3-36.3-2.6-87.8-1.7-127.5
			c-6.6,77.4,4.7,160.7-2.4,239C642.4,591.6,641.8,591.6,641.1,591.6z"/>
		<path class="st259" d="M633,589.6c-1.9-77.5,3.6-158.5-2-235.2c0-3.4,0-6.7,0.1-10.1c7.7,0.6,4.2,11.1,4.9,20.1
			c-0.9,76.7,1.8,149.6-1,225.2C634.7,589.6,635.3,589.6,633,589.6z"/>
		<path class="st257" d="M635,589.6c0-81.1,0-162.2,0-243.3C638.9,424.7,638.8,510.8,635,589.6z"/>
		<path class="st260" d="M643.1,591.6c0-80.4,0-160.7,0-241.1c0.7,0,1.4,0,2,0c1.8,42.2-3.6,88,2,129.6c0,36.5,0,73,0,109.4
			C645.8,590.3,644.5,590.9,643.1,591.6z"/>
		<path class="st261" d="M391.5,372.7c0-8.1,0-16.2,0-24.4c19.6,70.3,6.6,255.8,1.9,271.6c-0.7,0-1.4,0-2.1,0
			c0-8.7,0.1-17.5,0.1-26.2c-7.9-32.7-0.6-72.4-3-107.1C390.2,443.8,384.7,384,391.5,372.7z"/>
		<path class="st237" d="M395.6,607.9c0.3-398.1,10.7-265.9,6.2-18.3C402.6,594.4,401.5,625.9,395.6,607.9z"/>
		<path class="st262" d="M409.9,350.4c5.7,83.5,0.1,171.6,1.9,256.6c-0.3,8.3-7.8,3-6-3.1C411.5,520.9,400.2,431.2,409.9,350.4z"/>
		<path class="st263" d="M409.9,350.4c-7.8,82.5,3.2,170.9-4.1,253.5C408.1,459.6,400.5,347.8,409.9,350.4z"/>
		<path class="st263" d="M401.7,589.6c0-77,0-154.1,0-231.1C405.5,433.1,405.4,514.8,401.7,589.6z"/>
		<path class="st264" d="M391.7,634.2c-0.1-0.6-0.1-1.3-0.1-1.9c2.7-0.7,5.4-1.4,8.1-2.1c1.5,2.4,3.9,1.9,6.1,2
			C401.5,636,396.4,633.6,391.7,634.2z"/>
		<path class="st265" d="M657.1,591.5c-2,0.8-3.9,3.4-5.9,0.1c2.6-79.9,3.1-160.6,0.3-240.8c4.3-9.8,10.6,2.9,8.6,13.3
			C657.5,441.3,665.6,517,657.1,591.5z"/>
		<path class="st251" d="M657.1,591.5c0.1-81-0.1-163.8,0.2-245.3c1.3-0.7,2.7-1.3,4-2c5.4,78.8-5.4,166.2,6,245.2
			C664.6,593.2,660.6,591.1,657.1,591.5z"/>
		<path class="st124" d="M651.2,597.7c3.6-3.6,8.1-1.4,12.2-2C659.8,599.3,655.3,597.1,651.2,597.7z"/>
		<path class="st202" d="M391.5,372.7c0,73.7,0,147.3,0,221c-4.8,5.6,0.5,13.2-4.9,21.2c0-87.8,0-173.4,0-260.3
			C392.3,360.4,386.8,368,391.5,372.7z"/>
		<path class="st259" d="M379.4,482.9c-2.5,41.6,4.9,89.8-2.7,128c-7.2-78.5,2.2-168.5-3.4-250.5C383.8,319,378.1,482,379.4,482.9z"
			/>
		<path class="st266" d="M125.8,303.7c2.7-7.6,11.3-7.6,18.3,0c-8.7,36.3,0.6,79.8-1.8,118.9c1.2,66.7-5.6,112.9,1.8,122.4
			c0,1,0.1-0.4,0,4.1c-23.1,1.1-9.6-52.3-13-64.1c0-58.6,0-116,0-174.5c0,0.1,0.1-0.7,0.1-0.7c-3.7,27.8,4.6,63.3-3.3,91.3
			c-0.7,0-1.3,0-2,0C125.8,368.6,125.8,336.2,125.8,303.7z"/>
		<path class="st267" d="M131.9,301.7c5.7,78.9,0.1,163,2,243.3c-13.8,4.1-2.7-122-6.1-123.8C129.5,338.9,123.6,297.4,131.9,301.7
			c-3.3,77.5,0.6,157.7-1.4,235.8C132.6,459.9,128.7,379.5,131.9,301.7z"/>
		<path class="st268" d="M667.3,589.4c-10.5,0.2-4.5-11.5-4.9-19.8c1.5-89.8-7.4-237.4,5-225.3C667.4,426,667.4,507.7,667.3,589.4z"
			/>
		<path class="st269" d="M667.4,344.3c-5.7,1.3-4.4,7-3.9,10.9c-2,73.9,3.4,151.1-2.1,224.3c0-17.6-0.1-35.2-0.1-52.8
			c-1.8-55.6-1.7-114.3,0-170.2c0-4.1,0-8.1,0-12.2C663.4,341.8,665.4,341.4,667.4,344.3z"/>
		<path class="st270" d="M742.6,301.7c10.1,10,1.1,64.5,4,72.7c-2.1,59.2,4.9,154.2-4,156.3C742.6,454.4,742.6,378.1,742.6,301.7z"
			/>
		<path class="st271" d="M318.5,518.6c-3.9-49.3-3.7-106.4,0-156.1C318.5,414.6,318.5,466.6,318.5,518.6z"/>
		<path class="st168" d="M150.1,301.7c11.1,30,0.5,75.7,4.1,110.6c-2.2,42.7,5,128.8-4.1,132.8C146.5,464.8,146.4,382.4,150.1,301.7
			z"/>
		<path class="st226" d="M150.1,301.7c0,81.1,0,162.2,0,243.4c-5.1-3.7,0.8-10.5-4-14.2c0-71.7,0-143.3,0-215
			C150.7,312.1,145.5,305.5,150.1,301.7z"/>
		<path class="st272" d="M144,545c-15,7.5,0.8-129.9-3.9-130.4c1.1-37.7-9.4-119.2,3.9-110.8C144,384.2,144,464.6,144,545z"/>
		<path class="st273" d="M661.3,356.5c0,56.7,0,113.5,0,170.2C657.6,472.5,657.7,411,661.3,356.5z"/>
		<path class="st249" d="M131.9,301.7c0,79.5,0,159.1,0,239.4C128,463.9,128.1,379.2,131.9,301.7
			C131.9,301.7,131.9,301.7,131.9,301.7z"/>
		<path class="st7" d="M519.3,254.9c8-0.2,5.6,5.9,6.2,10.2c-6.3,1.2-13.4,1.2-14.4,10c0,0,0.3,0.5,0.3,0.5
			c-30.1,12-54.4,42-87.3,51c-61.8-7.6-119.6-28.6-180.9-42.8c-228.2-58.7-202-42.9-202.8-53c0.1-5.1-4.7-8.8-3.8-14.1
			C543.1,330.7,365.5,328.4,519.3,254.9z"/>
		<path class="st6" d="M646.1,292c9,5,193.2-116.6,207.9-122.2c10.2,0.7-2.7,17.6-7.5,19.3C787.9,237.4,663.1,309,654.1,311.2
			c-12.9,3.1-143-31.2-143.3-35.9c-0.5-8.3,8.3-16.3,8.3-16.3C538.1,265.5,633.1,289,646.1,292z"/>
	</g>
	<path class="st87" d="M281.2,498.2"/>
	<path class="st0" d="M54.7,452.6"/>
</g>
<g id="Layer_2">
	<g>
		<g>
			<path d="M115.4,155.3c-2.2,17.8-3.8,35.7-4.8,53.6c2,0,4,0,6,0c-1.2-17.4-0.3-34.9,2.9-52c-0.5,0.6-0.9,1.2-1.4,1.8
				c-0.4,0.2,0.4-0.1,0.4-0.1c0.2-0.1,0.4-0.1,0.6-0.2c0.2,0,0.8-0.1,0,0c0.2,0,0.4,0,0.6,0c0.2,0,0.4,0,0.5,0c-0.8,0-0.3-0.1,0,0
				c0.1,0,0.6,0.3,0.2,0c-0.5-0.2,0.1,0,0.1,0.1c0.4,0.3-0.4-0.3-0.1-0.1c0.1,0.1,0.2,0.2,0.3,0.3c-0.5-0.4-0.2-0.3,0,0
				c0.1,0.1,0.1,0.3,0.2,0.4c0.2,0.3-0.2-0.6,0-0.1c0,0.2,0.1,0.3,0.1,0.5c0,0.2,0.1,0.3,0.1,0.5c-0.2-0.8,0-0.2,0,0.1
				c0,0.4,0,0.7,0,1.1c0,0.7,0.1-0.4,0,0c0,0.2-0.1,0.4-0.1,0.6c-0.1,0.4-0.2,0.9-0.4,1.3c-0.1,0.2-0.2,0.5,0,0.1
				c-0.1,0.2-0.2,0.4-0.3,0.6c-0.2,0.4-0.5,0.9-0.8,1.3c-0.3,0.4,0.1-0.1-0.1,0.2c-0.2,0.2-0.3,0.4-0.5,0.5c-0.3,0.4-0.7,0.7-1.1,1
				c0.4-0.3-0.4,0.3-0.4,0.3c-0.3,0.2-0.5,0.3-0.8,0.5c-2.6,1.6-1.4,5.4,1.5,5.6c0.5,0,1,0.1,1.4,0.1c-0.5-0.1-0.2,0,0.1,0
				c0.3,0.1,0.5,0.1,0.8,0.2c0.4,0.1,0.8,0.2,1.3,0.4c0.2,0.1,0.4,0.1,0.6,0.2c0.3,0.1-0.2-0.1-0.2-0.1c0.1,0.1,0.3,0.1,0.4,0.2
				c0.8,0.4,1.5,0.8,2.1,1.3c0.1,0.1-0.4-0.4,0,0c0.1,0.1,0.3,0.3,0.4,0.4c0.3,0.3,0.6,0.6,0.9,0.9c0.1,0.1,0.2,0.3,0.4,0.4
				c0.4,0.4-0.3-0.4,0,0c0.2,0.4,0.5,0.7,0.7,1.1c0.2,0.3,0.4,0.7,0.6,1c0.1,0.2,0.2,0.4,0.3,0.5c0.3,0.6-0.1-0.4,0.1,0.1
				c0.3,0.8,0.6,1.6,0.8,2.5c0.1,0.4,0.2,0.8,0.3,1.2c0,0.2,0.1,0.4,0.1,0.6c0.1,0.7,0-0.4,0,0.2c0.2,1.9,0.2,3.7,0,5.5
				c0,0.3-0.1,0.5-0.1,0.8c0,0.3,0-0.2,0-0.2c0,0.1,0,0.2-0.1,0.3c-0.1,0.5-0.2,1-0.3,1.5c-0.2,0.9-0.4,1.9-0.7,2.8
				c-0.1,0.4-0.3,0.9-0.4,1.3c-0.1,0.2-0.2,0.4-0.2,0.7c-0.1,0.2-0.3,0.8-0.1,0.2c-0.4,0.9-0.8,1.7-1.3,2.6c-0.5,0.8-1,1.6-1.5,2.4
				c-0.1,0.2-0.3,0.4-0.4,0.6c0.3-0.4,0.1-0.1-0.1,0.1c-0.3,0.4-0.6,0.7-1,1.1c-0.4,0.4-0.7,0.8-1.1,1.1c-0.2,0.2-0.4,0.4-0.6,0.5
				c-0.1,0.1-0.7,0.6-0.4,0.3c0.3-0.2-0.3,0.2-0.4,0.3c-0.2,0.2-0.4,0.3-0.7,0.4c-0.4,0.3-0.9,0.6-1.4,0.8c-0.2,0.1-0.5,0.2-0.7,0.4
				c-0.1,0.1-0.8,0.4-0.5,0.2c0.3-0.1-0.4,0.1-0.5,0.2c-0.3,0.1-0.5,0.2-0.8,0.3c-0.5,0.2-1,0.3-1.6,0.4c-0.3,0.1-0.5,0.1-0.8,0.2
				c-0.1,0-0.2,0-0.4,0.1c-0.5,0.1,0.7-0.1,0,0c-1.6,0.2-3,1.3-3,3c0,1.5,1.4,3.2,3,3c9.8-1.1,16.8-8.1,20.1-17.1
				c2.9-7.7,3.1-17.7-2-24.5c-3.2-4.2-7.9-6.4-13.1-6.7c0.5,1.9,1,3.7,1.5,5.6c4-2.4,6.8-6.4,7.3-11c0.4-3.8-1.3-8-5.2-9.1
				c-2.1-0.6-4.9-0.2-6.8,0.9c-1.7,1-1.7,3.4-2,5.1c-0.3,1.8-0.6,3.5-0.8,5.3c-1,7-1.7,14.1-2,21.2c-0.3,7.9-0.2,15.9,0.3,23.8
				c0.3,3.8,5.8,3.9,6,0c1-17.9,2.6-35.8,4.8-53.6c0.2-1.6-1.5-3-3-3C116.6,152.3,115.5,153.7,115.4,155.3L115.4,155.3z"/>
		</g>
	</g>
	<g>
		<g>
			<path d="M143,216.7c5-19,10-37.9,15-56.9c-1.9,0-3.9,0-5.8,0c4.2,15.9,5.3,32.4,7.3,48.7c0.6,4.8,1.2,9.7,2,14.5
				c0.3,1.6,2.3,2.5,3.7,2.1c1.7-0.5,2.4-2.1,2.1-3.7c-2.6-16.6-3.6-33.3-6.4-49.9c-0.8-4.5-1.7-8.9-2.8-13.3c-0.8-2.9-5-2.9-5.8,0
				c-5,19-10,37.9-15,56.9C136.2,218.9,142,220.5,143,216.7L143,216.7z"/>
		</g>
	</g>
	<g>
		<g>
			<path d="M146.6,186.6c2.3,0.1,4.6,0.3,6.8,0.6c0.1,0,0.9,0.1,0.5,0.1c-0.2,0-0.2,0,0.1,0c0.2,0,0.4,0.1,0.5,0.1
				c0.5,0.1,1.1,0.2,1.6,0.2c1.1,0.2,2.3,0.4,3.4,0.6c1.5,0.3,3.3-0.4,3.7-2.1c0.3-1.5-0.5-3.4-2.1-3.7c-4.8-1-9.7-1.6-14.6-1.8
				c-1.6-0.1-3.1,1.4-3,3C143.6,185.3,144.9,186.5,146.6,186.6L146.6,186.6z"/>
		</g>
	</g>
	<g>
		<g>
			<path d="M182.9,226.9c2.3-20.3,4.6-40.6,7-60.9c-2,0.3-3.9,0.5-5.9,0.8c4.8,17,9.7,33.9,14.5,50.9c1.4,4.9,2.8,9.7,4.1,14.6
				c0.4,1.4,1.8,2.4,3.3,2.1c1.6-0.2,2.5-1.4,2.6-2.9c1.9-20.6,3.9-41.2,5.8-61.8c0.2-1.6-1.5-3-3-3c-1.7,0-2.8,1.4-3,3
				c-1.9,20.6-3.9,41.2-5.8,61.8c2-0.3,3.9-0.5,5.9-0.8c-4.8-17-9.7-33.9-14.5-50.9c-1.4-4.9-2.8-9.7-4.1-14.6
				c-0.4-1.4-1.8-2.4-3.3-2.1c-1.6,0.2-2.4,1.4-2.6,2.9c-2.3,20.3-4.6,40.6-7,60.9c-0.2,1.6,1.5,3,3,3
				C181.6,229.9,182.7,228.5,182.9,226.9L182.9,226.9z"/>
		</g>
	</g>
	<g>
		<g>
			<path d="M228.4,174.1c-1.2,16.6-3.5,33.1-6.8,49.4c-0.9,4.7-2,9.3-3.1,14c-0.9,3.8,4.9,5.4,5.8,1.6c4-16.6,6.9-33.5,8.8-50.4
				c0.5-4.8,1-9.6,1.3-14.5c0.1-1.6-1.5-3-3-3C229.6,171.1,228.5,172.4,228.4,174.1L228.4,174.1z"/>
		</g>
	</g>
	<g>
		<g>
			<path d="M264.8,249.2c7.7-15,13.1-31.1,18.9-46.9c1.7-4.6,3.3-9.2,5.1-13.7c-2-0.3-3.9-0.5-5.9-0.8c0.3,20.8,0.6,41.7,0.9,62.5
				c0.1,3.9,6.1,3.9,6,0c-0.3-20.8-0.6-41.7-0.9-62.5c0-1.5-1.1-2.8-2.6-2.9c-1.6-0.2-2.7,0.7-3.3,2.1c-6,15.6-11,31.5-17.6,46.8
				c-1.8,4.2-3.7,8.3-5.8,12.4c-0.7,1.4-0.4,3.3,1.1,4.1C262,251.1,264,250.6,264.8,249.2L264.8,249.2z"/>
		</g>
	</g>
	<g>
		<g>
			<path d="M262.5,248.7c1.9,0,1.9-3,0-3C260.5,245.7,260.5,248.7,262.5,248.7L262.5,248.7z"/>
		</g>
	</g>
	<g>
		<g>
			<path d="M271.9,215c5.8,0.7,11.6,1.5,17.3,2.2c0.8,0.1,1.5-0.8,1.5-1.5c0-0.9-0.7-1.4-1.5-1.5c-5.8-0.7-11.6-1.5-17.3-2.2
				c-0.8-0.1-1.5,0.8-1.5,1.5C270.4,214.4,271.1,214.9,271.9,215L271.9,215z"/>
		</g>
	</g>
	<g>
		<g>
			<path d="M318.3,193.9c-3.2,1.1-6.1,2.7-8,5.5c-1.5,2.2-2,5.1-1.7,7.7c0.5,6,3.3,11.5,5.3,17.2c0.5,1.5,1,3,1.4,4.6
				c0.2,0.7,0.4,1.4,0.5,2.1c0.1,0.3,0.1,0.6,0.2,1c0,0.2,0.1,0.4,0.1,0.6c-0.1-0.4,0-0.1,0,0.2c0.1,1.6-0.1,3.2,0.1,4.7
				c0.1,0.6,0,0.3,0,0.1c0,0.2,0,0.4,0.1,0.6c0,0.4,0.1,0.8,0.1,1.2c0,0.8,0,1.6-0.1,2.4c0,0.2,0,0.4-0.1,0.6c0-0.1,0.1-0.4,0-0.1
				c-0.1,0.4-0.1,0.8-0.2,1.2c-0.2,0.8-0.4,1.5-0.6,2.3c-0.1,0.3-0.2,0.6-0.3,0.9c-0.2,0.6-0.1,0.2,0,0.1c-0.1,0.2-0.2,0.3-0.2,0.5
				c-0.3,0.7-0.7,1.3-1,2c-0.3,0.6-0.7,1.2-1.1,1.7c-0.1,0.1-0.2,0.3-0.3,0.4c-0.3,0.4,0.3-0.3,0,0c-0.2,0.3-0.5,0.6-0.7,0.9
				c-0.4,0.4-0.8,0.9-1.2,1.3c-0.2,0.2-0.5,0.4-0.7,0.6c-0.1,0.1-0.2,0.2-0.4,0.3c-0.4,0.4,0.3-0.2,0,0c-0.5,0.4-1,0.7-1.5,1
				c-0.3,0.1-0.5,0.3-0.8,0.4c-0.4,0.2,0.6-0.2,0.2-0.1c-0.1,0-0.3,0.1-0.4,0.2c-0.3,0.1-0.5,0.1-0.8,0.2c-0.1,0-0.2,0-0.3,0.1
				c-0.5,0.2,0.7,0,0.1,0c-0.2,0-0.4,0-0.6,0c-0.3,0.1,0.8,0.1,0,0c-0.1,0-0.2-0.1-0.3-0.1c-0.2,0,0.6,0.3,0.2,0.1
				c-0.1-0.1-0.3-0.2-0.5-0.3c0.3,0.1,0.5,0.4,0.3,0.2c-0.1-0.1-0.2-0.2-0.3-0.3c-0.3-0.1,0.3,0.5,0.2,0.2c0-0.1-0.2-0.2-0.2-0.4
				c-0.4-0.6,0.1,0.4-0.1-0.2c-0.1-0.3-0.2-0.6-0.2-0.9c-0.1-0.3-0.1-1-0.1-0.3c0-0.4-0.1-0.9-0.1-1.3c-0.1-3.9-6.1-3.9-6,0
				c0,2.7,0.6,5.7,2.8,7.6c2,1.7,4.7,2,7.1,1.3c5.5-1.6,9.8-6.8,12.1-11.9c1.4-3.2,2.3-6.7,2.3-10.2c0-0.8-0.1-1.6-0.1-2.3
				c0-0.4-0.1-0.7-0.1-1.1c0-0.8,0-0.1,0-0.1c0.1-0.4,0.1-0.9,0.1-1.3c0-1.6-0.2-3.3-0.4-4.9c-1.1-6.4-4.2-12.2-6.1-18.3
				c-0.2-0.8-0.5-1.5-0.6-2.3c-0.1-0.4-0.2-0.8-0.2-1.1c0-0.2-0.2-1.2-0.1-0.8c0,0.4,0-0.1,0-0.2c0-0.2,0-0.4,0-0.6
				c0-0.4,0-0.8,0-1.1c0-0.2,0.1-1.1,0-0.7c-0.1,0.4,0.1-0.5,0.1-0.7c0.1-0.3,0.2-0.6,0.3-0.9c0.1-0.4-0.3,0.5,0,0.1
				c0.1-0.2,0.2-0.3,0.2-0.5c0.1-0.2,0.6-0.9,0.4-0.6c-0.3,0.3,0.1-0.1,0.1-0.1c0.1-0.1,0.3-0.3,0.4-0.4c0.1-0.1,0.2-0.2,0.4-0.3
				c0.5-0.5-0.5,0.3,0.2-0.1c0.3-0.2,0.7-0.4,1-0.6c1-0.6,1.2-0.6,2.2-1c1.5-0.5,2.5-2.1,2.1-3.7
				C321.5,194.5,319.8,193.4,318.3,193.9L318.3,193.9z"/>
		</g>
	</g>
	<g>
		<g>
			<path d="M242.2,173.8c-4.2,3.6-8,8-10.2,13.1c-1.9,4.3-2.7,9-2.3,13.7c0.8,9.5,5.2,18.2,8.8,26.9c1.9,4.5,3.9,9.8,4.9,14.8
				c0.3,1.6,2.2,2.5,3.7,2.1c1.6-0.5,2.4-2.1,2.1-3.7c-1.9-9-6.3-17.5-9.6-25.8c-1.6-4-3-8.1-3.7-12.3c0-0.3-0.1-0.5-0.1-0.8
				c-0.1-0.6,0.1,0.7,0-0.3c-0.1-0.5-0.1-1-0.1-1.6c-0.1-1-0.1-2.1,0-3.1c0-0.5,0.1-0.9,0.1-1.4c0-0.1,0.1-0.8,0-0.3
				c0-0.2,0.1-0.4,0.1-0.6c0.2-1.1,0.5-2.2,0.8-3.3c1.6-5.1,5.5-9.6,9.7-13.2c1.2-1.1,1.1-3.2,0-4.2
				C245.3,172.6,243.5,172.8,242.2,173.8L242.2,173.8z"/>
		</g>
	</g>
</g>
</svg>
