<?xml version="1.0" encoding="UTF-8" standalone="no"?>
<svg
   xmlns:dc="http://purl.org/dc/elements/1.1/"
   xmlns:cc="http://creativecommons.org/ns#"
   xmlns:rdf="http://www.w3.org/1999/02/22-rdf-syntax-ns#"
   xmlns:svg="http://www.w3.org/2000/svg"
   xmlns="http://www.w3.org/2000/svg"
   xmlns:sodipodi="http://sodipodi.sourceforge.net/DTD/sodipodi-0.dtd"
   xmlns:inkscape="http://www.inkscape.org/namespaces/inkscape"
   version="1.1"
   x="0px"
   y="0px"
   viewBox="0 0 1031.6371 851.83044"
   xml:space="preserve"
   id="svg3882"
   sodipodi:docname="bankasgh.svg"
   width="1031.6371"
   height="851.83044"
   inkscape:version="1.0.1 (3bc2e813f5, 2020-09-07)"><metadata
   id="metadata3888"><rdf:RDF><cc:Work
       rdf:about=""><dc:format>image/svg+xml</dc:format><dc:type
         rdf:resource="http://purl.org/dc/dcmitype/StillImage" /><dc:title></dc:title></cc:Work></rdf:RDF></metadata><defs
   id="defs3886"><filter
     style="color-interpolation-filters:sRGB"
     inkscape:label="Drop Shadow"
     id="filter3900"><feFlood
       flood-opacity="1"
       flood-color="rgb(255,255,255)"
       result="flood"
       id="feFlood3890" /><feComposite
       in="flood"
       in2="SourceGraphic"
       operator="in"
       result="composite1"
       id="feComposite3892" /><feGaussianBlur
       in="composite1"
       stdDeviation="29.9401"
       result="blur"
       id="feGaussianBlur3894" /><feOffset
       dx="0"
       dy="0.299401"
       result="offset"
       id="feOffset3896" /><feComposite
       in="SourceGraphic"
       in2="offset"
       operator="over"
       result="composite2"
       id="feComposite3898" /></filter><filter
     style="color-interpolation-filters:sRGB"
     inkscape:label="Drop Shadow"
     id="filter3912"><feFlood
       flood-opacity="1"
       flood-color="rgb(255,255,255)"
       result="flood"
       id="feFlood3902" /><feComposite
       in="flood"
       in2="SourceGraphic"
       operator="in"
       result="composite1"
       id="feComposite3904" /><feGaussianBlur
       in="composite1"
       stdDeviation="29.9401"
       result="blur"
       id="feGaussianBlur3906" /><feOffset
       dx="0"
       dy="0.299401"
       result="offset"
       id="feOffset3908" /><feComposite
       in="SourceGraphic"
       in2="offset"
       operator="over"
       result="composite2"
       id="feComposite3910" /></filter></defs><sodipodi:namedview
   pagecolor="#ffffff"
   bordercolor="#666666"
   borderopacity="1"
   objecttolerance="10"
   gridtolerance="10"
   guidetolerance="10"
   inkscape:pageopacity="0"
   inkscape:pageshadow="2"
   inkscape:window-width="1920"
   inkscape:window-height="1027"
   id="namedview3884"
   showgrid="false"
   inkscape:zoom="1.1779504"
   inkscape:cx="454.98391"
   inkscape:cy="282.13379"
   inkscape:window-x="-8"
   inkscape:window-y="-8"
   inkscape:window-maximized="1"
   inkscape:current-layer="svg3882" />
<style
   type="text/css"
   id="style3020">
	.st0{fill:#687075;}
	.st1{fill:#C0C6CB;}
	.st2{fill:#B5BEC1;}
	.st3{fill:#DFE1E2;}
	.st4{fill:#697176;}
	.st5{fill:#A7AFB0;}
	.st6{fill:#676F74;}
	.st7{fill:#7E888E;}
	.st8{fill:#828C92;}
	.st9{fill:#8E9596;}
	.st10{fill:#949B9C;}
	.st11{fill:#C1C7CE;}
	.st12{fill:#B4BECA;}
	.st13{fill:#B0BCC8;}
	.st14{fill:#B2BAC1;}
	.st15{fill:#AFBBC7;}
	.st16{fill:#97A3AF;}
	.st17{fill:#A1AAB0;}
	.st18{fill:#929DA7;}
	.st19{fill:#D5D9DE;}
	.st20{fill:#6B7378;}
	.st21{fill:#A6ACB2;}
	.st22{fill:#848D95;}
	.st23{fill:#747D88;}
	.st24{fill:#949AA1;}
	.st25{fill:#848D93;}
	.st26{fill:#767D82;}
	.st27{fill:#9FA7AC;}
	.st28{fill:#AAB2B5;}
	.st29{fill:#B1B9BD;}
	.st30{fill:#D0D3D3;}
	.st31{fill:#7E888D;}
	.st32{fill:#C1C6C9;}
	.st33{fill:#96A4B1;}
	.st34{fill:#D0D5DA;}
	.st35{fill:#AEBAC7;}
	.st36{fill:#93A0AD;}
	.st37{fill:#CCD3D9;}
	.st38{fill:#B2BBC5;}
	.st39{fill:#C0C8CF;}
	.st40{fill:#ADBAC6;}
	.st41{fill:#B3BECA;}
	.st42{fill:#AFB6BE;}
	.st43{fill:#AEBBC7;}
	.st44{fill:#A8B1BB;}
	.st45{fill:#9BAAB7;}
	.st46{fill:#9BA9B5;}
	.st47{fill:#9AA9B5;}
	.st48{fill:#C7CED4;}
	.st49{fill:#A3ADB5;}
	.st50{fill:#909BA4;}
	.st51{fill:#D2D7DB;}
	.st52{fill:#B5BEC7;}
	.st53{fill:#A7AFBA;}
	.st54{fill:#E1E4E8;}
	.st55{fill:#D0D4DA;}
	.st56{fill:#A4AFBA;}
	.st57{fill:#CAD2DA;}
	.st58{fill:#B2BDC8;}
	.st59{fill:#97A5B3;}
	.st60{fill:#99A9B5;}
	.st61{fill:#BAC2C6;}
	.st62{fill:#A1AFBE;}
	.st63{fill:#AEBAC6;}
	.st64{fill:#ADB6BE;}
	.st65{fill:#909CA7;}
	.st66{fill:#B9C1C7;}
	.st67{fill:#C1C6CC;}
	.st68{fill:#B8C2CB;}
	.st69{fill:#A4B1BE;}
	.st70{fill:#B4BBBE;}
	.st71{fill:#5D6873;}
	.st72{fill:#6D7883;}
	.st73{fill:#C2C6D1;}
	.st74{fill:#99A1A8;}
	.st75{fill:#A8AEB5;}
	.st76{fill:#AAAEB6;}
	.st77{fill:#BCC0C8;}
	.st78{fill:#959CA3;}
	.st79{fill:#7F8891;}
	.st80{fill:#959CA2;}
	.st81{fill:#8C949C;}
	.st82{fill:#9098A0;}
	.st83{fill:#7A838D;}
	.st84{fill:#979EA4;}
	.st85{fill:#E8E9EA;}
	.st86{fill:#BCBEBE;}
	.st87{fill:#CBD0D5;}
	.st88{fill:#A3AEB8;}
	.st89{fill:#C8CFD4;}
	.st90{fill:#9AA5AE;}
	.st91{fill:#9AAAB7;}
	.st92{fill:#DADEE2;}
	.st93{fill:#B7C0CA;}
	.st94{fill:#B2BECA;}
	.st95{fill:#CFD4D9;}
	.st96{fill:#C8CDD0;}
	.st97{fill:#CBCFD2;}
	.st98{fill:#A3AEB9;}
	.st99{fill:#97A6B2;}
	.st100{fill:#97A7B4;}
	.st101{fill:#D2D8DC;}
	.st102{fill:#C9CFD4;}
	.st103{fill:#95A2AD;}
	.st104{fill:#D3D8DD;}
	.st105{fill:#D2D8DD;}
	.st106{fill:#C6CDD4;}
	.st107{fill:#B6C1CA;}
	.st108{fill:#CDD4D9;}
	.st109{fill:#B9C3CC;}
	.st110{fill:#BBC4CE;}
	.st111{fill:#C4CCD2;}
	.st112{fill:#949FA7;}
	.st113{fill:#D2D7DA;}
	.st114{fill:#AFB8C1;}
	.st115{fill:#9BAAB5;}
	.st116{fill:#9AA9B6;}
	.st117{fill:#A8B1B7;}
	.st118{fill:#8E99A3;}
	.st119{fill:#C6CED5;}
	.st120{fill:#9DA7AF;}
	.st121{fill:#919FAB;}
	.st122{fill:#B0B9BD;}
	.st123{fill:#D3D9DD;}
	.st124{fill:#AFB9C2;}
	.st125{fill:#B6C0CA;}
	.st126{fill:#9CAAB6;}
	.st127{fill:#CBD1D7;}
	.st128{fill:#A9B2B7;}
	.st129{fill:#B5BFC8;}
	.st130{fill:#C8CDD1;}
	.st131{fill:#96A4B2;}
	.st132{fill:#A0AEBB;}
	.st133{fill:#AAB6C2;}
	.st134{fill:#C0C6CC;}
	.st135{fill:#B8BEC4;}
	.st136{fill:#9BA6B0;}
	.st137{fill:#ABB7C4;}
	.st138{fill:#97A3AE;}
	.st139{fill:#B9C0C7;}
	.st140{fill:#A4B0BD;}
	.st141{fill:#CED5DA;}
	.st142{fill:#C3CAD0;}
	.st143{fill:#B2B8BF;}
	.st144{fill:#9FADBA;}
	.st145{fill:#8794A1;}
	.st146{fill:#B2BCC6;}
	.st147{fill:#9EA9B3;}
	.st148{fill:#9EACBB;}
	.st149{fill:#96A4B0;}
	.st150{fill:#C5CCD3;}
	.st151{fill:#A5AFB8;}
	.st152{fill:#C0C9D0;}
	.st153{fill:#9FADBC;}
	.st154{fill:#9DA7B0;}
	.st155{fill:#CDD4DA;}
	.st156{fill:#D5DADE;}
	.st157{fill:#D3D9DE;}
	.st158{fill:#B1BDC9;}
	.st159{fill:#A3B0BE;}
	.st160{fill:#BCC3C8;}
	.st161{fill:#D8DCE1;}
	.st162{fill:#B8C2CC;}
	.st163{fill:#AFBBC8;}
	.st164{fill:#AFBCC8;}
	.st165{fill:#B8C2CA;}
	.st166{fill:#D2D7DC;}
	.st167{fill:#D4DADE;}
	.st168{fill:#E1E4E9;}
	.st169{fill:#D3D7DD;}
	.st170{fill:#A9B2BC;}
	.st171{fill:#CACFD6;}
	.st172{fill:#C9CED5;}
	.st173{fill:#A1ABB8;}
	.st174{fill:#8E9BA8;}
	.st175{fill:#B3BBC2;}
	.st176{fill:#9FA9B2;}
	.st177{fill:#E5E8EB;}
	.st178{fill:#C6CFD7;}
	.st179{fill:#BBC6CF;}
	.st180{fill:#98A5B1;}
	.st181{fill:#A0ABB6;}
	.st182{fill:#C0C7CC;}
	.st183{fill:#8C97A0;}
	.st184{fill:#BEC2C9;}
	.st185{fill:#C2C8CF;}
	.st186{fill:#B5BEC8;}
	.st187{fill:#98A7B5;}
	.st188{fill:#CCD2D8;}
	.st189{fill:#DBDFE3;}
	.st190{fill:#B6C0CC;}
	.st191{fill:#C4CDD4;}
	.st192{fill:#BCC6CE;}
	.st193{fill:#B7C1CA;}
	.st194{fill:#AEB8C2;}
	.st195{fill:#BAC3CD;}
	.st196{fill:#9CABB8;}
	.st197{fill:#B2BEC8;}
	.st198{fill:#D4D9DD;}
	.st199{fill:#92A1AF;}
	.st200{fill:#CAD0D5;}
	.st201{fill:#E5E8EC;}
	.st202{fill:#EEF0F3;}
	.st203{fill:#E4E6E9;}
	.st204{fill:#E6E9EC;}
	.st205{fill:#C4CDD6;}
	.st206{fill:#E6E8EC;}
	.st207{fill:#E8EBED;}
	.st208{fill:#D6DBDF;}
	.st209{fill:#DCE0E4;}
	.st210{fill:#D8DDE1;}
	.st211{fill:#B7C2CD;}
	.st212{fill:#AFB9C3;}
	.st213{fill:#B2BDC9;}
	.st214{fill:#B4C0C8;}
	.st215{fill:#9BA8B5;}
	.st216{fill:#CED5DB;}
	.st217{fill:#95A4B2;}
	.st218{fill:#B4BEC8;}
	.st219{fill:#BEC4CA;}
	.st220{fill:#B1BCC8;}
	.st221{fill:#D4D9DE;}
	.st222{fill:#A1AFBB;}
	.st223{fill:#D1D7DC;}
	.st224{fill:#D5DADF;}
	.st225{fill:#D3D8DC;}
	.st226{fill:#CCD4DA;}
	.st227{fill:#B4BFCB;}
	.st228{fill:#C5CDD3;}
	.st229{fill:#CAD2D9;}
	.st230{fill:#AFB3BA;}
	.st231{fill:#BEC7CE;}
	.st232{fill:#D4DADF;}
	.st233{fill:#B6C0C9;}
	.st234{fill:#9FABB7;}
	.st235{fill:#B0BBC7;}
	.st236{fill:#C1C9D0;}
	.st237{fill:#E7E9ED;}
	.st238{fill:#E3E6EA;}
	.st239{fill:#E4E6EA;}
	.st240{fill:#EDEEF2;}
	.st241{fill:#E3E7EA;}
	.st242{fill:#EFF0F3;}
	.st243{fill:#E0E3E8;}
	.st244{fill:#BEC8D2;}
	.st245{fill:#CCD1D5;}
	.st246{fill:#C5CACF;}
	.st247{fill:#D7DDE2;}
	.st248{fill:#EAECF0;}
	.st249{fill:#EFF1F5;}
	.st250{fill:#E0E4E8;}
	.st251{fill:#BCC7D0;}
	.st252{fill:#C1CBD4;}
	.st253{fill:#D8DDE3;}
	.st254{fill:#C6CDD6;}
	.st255{fill:#CACED2;}
	.st256{fill:#BDC3C9;}
	.st257{fill:#EBECF0;}
	.st258{fill:#E9EBED;}
	.st259{fill:#F1F2F6;}
	.st260{fill:#F0F2F5;}
	.st261{fill:#C5CED5;}
	.st262{fill:#EAEDF0;}
	.st263{fill:#BEC9D2;}
	.st264{fill:#A2AFBD;}
	.st265{fill:#E2E5E9;}
	.st266{fill:#DFE3E6;}
	.st267{fill:#E9EBEF;}
	.st268{fill:#E8EAED;}
	.st269{fill:#D2D9E0;}
	.st270{fill:#DCE1E5;}
	.st271{fill:#B8C4CE;}
	.st272{fill:#EDEFF2;}
	.st273{fill:#B9C5CF;}
</style>
<g
   id="Layer_1"
   transform="translate(86.182563,70.644517)"
   style="filter:url(#filter3912)">
	<g
   id="g3814">
		<path
   class="st0"
   d="m 12.2,431.2 c 18.1,-10.9 26.9,-7 8,7.3 49.6,8.8 42,5.5 44,3.5 2.3,-2.3 -3.1,36.6 -7,36 C 37.3,475 4,472.1 0,455.8 c 0,-0.7 0,-1.4 0,-2 2.6,-8.1 -1.8,-21.3 12.2,-22.6 z"
   id="path3022" />
		<path
   class="st1"
   d="m 673.1,292 c 7.2,-0.3 116.9,-71.7 124,-72 9.9,16.1 11.4,235.9 16,255 1.3,5.4 -150,121 -150,121 -7,-58 -5.6,-164.1 -6,-164 -2.5,0.8 -20.9,-96.7 -8,-126 -0.7,-7.6 20.3,-7.7 24,-14 z"
   id="path3024" />
		<path
   class="st2"
   d="m 499.1,596 c -4.9,-1.2 -53,49 -89,62 -11,4 -83,-21.1 -120.2,-31.9 C 292,626.1 24,555 26.1,555 c 53,-33 53,-33 53,-33 -7.7,-21.5 -16,-97 -16,-97 0,0 584.5,166.6 584,166 -0.4,-0.4 116.7,-106 148,-112 26,-5 53.9,8.2 53,11 -4,12 -162,134 -182,141 -13,3 -163,-34 -167,-35 z"
   id="path3026" />
		<path
   class="st3"
   d="m 84.1,239 c 51.2,15.2 332.1,62.8 336,79 l 99,-59 136,38 c -12.2,12.3 10.8,299 -3,295 -31.4,-8.5 -532.6,-146.5 -564,-155 -6,-51.6 -16.5,-202.2 -4,-198 z"
   id="path3028" />
		<path
   class="st4"
   d="m 50.7,514.7 c -18.1,-6.6 -54,-3.8 -50.7,-32.6 10,-5 22.1,6.7 33.8,8.5 15.1,5 28.2,5.4 21.6,24 -1.6,1.4 -3.2,1.1 -4.7,0.1 z"
   id="path3030" />
		<path
   class="st5"
   d="m 28.4,591.9 c 6.9,-3.1 3.2,-8 2.1,-12.4 118.5,22 237.3,64.9 355.8,94.6 33,19 94,-55.4 117.9,-59.9 30.3,1.4 59.1,17.2 88.5,23.8 77.6,24.7 71.9,13.1 68.8,49.5 -1,4.3 -3,5.1 -8.1,5.1 C 593.1,686 540.7,659.7 482.7,648 416.7,682.6 423.2,709.3 371.4,690.3 297.1,669.1 225.8,650.4 151.9,630.2 116.6,618.8 27.5,599.9 28.4,591.9 Z"
   id="path3032" />
		<path
   class="st6"
   d="m 673.9,90.6 c 195.4,39.4 252.1,16.8 94.4,116.7 -35.1,21.6 -116.5,73.3 -126.2,68.6 -81.3,-23 -110.3,-27.3 -117.3,-35.2 5.8,-11.5 -0.3,-31.8 12.9,-29.9 67.4,13.4 101,30.3 118,24.4 C 716.2,202.5 776,168.9 830.7,128 811.7,122.1 631.8,96.7 673.9,90.6 Z"
   id="path3034" />
		<path
   class="st7"
   d="M 509.2,615.9 C 448.6,640.2 422.6,697.3 382.6,676.3 -13.1,562.5 20,587.7 22.5,555.3 512.7,669 359.2,688.8 509.1,588 c 0,0 0,0 2.6,2.2 6.9,5.9 -0.3,17.3 -2.5,25.7 z"
   id="path3036" />
		<path
   class="st6"
   d="m 509.2,615.9 c -4.2,-16.6 -0.5,-28.1 -0.1,-27.9 0.7,0.4 21.7,4.4 34.5,8.3 54.3,14.4 112.4,39.5 125.7,28.9 61.5,-46.5 115.4,-96.5 178.2,-139.3 23.9,23.6 -35.1,59.3 -47.7,72.7 -39.9,32.9 -74.3,67.5 -115.9,97.6 -19.2,14 -35.7,0 -53,-3.9 -41.3,-12.2 -80.4,-24.7 -121.7,-36.4 z"
   id="path3038" />
		<path
   class="st0"
   d="m 482.9,644.5 c 190.3,53.2 169,62.4 219.4,17.5 83.1,-70.4 135.7,-124.5 148,-123.4 17.7,8 -37.3,46 -41.2,51.6 -67.1,55.8 -131,117.5 -145.5,120 -39.5,-1.1 -79.7,-23 -119.2,-31.7 -20.7,-7.9 -67,-21.2 -66.2,-20.6 5.7,4.8 -0.8,-6 4.7,-13.4 z"
   id="path3040" />
		<path
   class="st7"
   d="m 482.9,644.5 c 0.8,5.3 -1.8,10.5 -0.1,15.7 -47,17.5 -60.1,60.4 -103.1,41.6 C -22.7,589.9 23.2,612.2 21.1,591 525.2,726 358.5,707.4 482.9,644.5 Z"
   id="path3042" />
		<path
   class="st8"
   d="m 673.9,90.6 c -1.6,0.2 -3.2,0.5 -5.8,0.9 3.1,2.2 5.4,3.9 7.8,5.6 -2.4,9.2 -9.4,12.8 -17.8,14.8 -4.6,-2.9 4.1,-6.9 1,-9.7 C 638.7,89 616.4,80.4 594,69 538.2,43.6 485.1,7.7 471.4,15.8 226.3,143.2 258,119.9 260.2,137.2 c -29,7.8 -26,-8.4 -47.6,-10.1 75.2,-37.8 162.8,-74.5 235.8,-119.2 12,-0.6 26.5,-13.5 38.7,-4.2 62.4,31.7 121.5,63.4 186.8,86.9 z"
   id="path3044" />
		<path
   class="st9"
   d="M 848,539 C 651.4,707.4 675.8,699.1 639,689 c 31.9,5 15.3,-5.8 22.3,-26.4 25.7,-6.3 44.5,-26.3 63.6,-43.1 40.7,-34.3 81.1,-69.2 121.5,-104.8 0.3,8.2 -2.3,16.4 1.6,24.3 z"
   id="path3046" />
		<path
   class="st10"
   d="m 641.1,273.3 c 74.6,-26.8 143.5,-81.1 210.9,-125.7 -1.6,28.7 10.2,20.8 -11.9,34.9 -53.2,34.4 -198.3,140 -207.1,106.5 6.7,-3.2 4.1,-11.1 8.1,-15.7 z"
   id="path3048" />
		<path
   class="st11"
   d="m 50.7,514.7 c 10.3,-4.5 6.6,13.8 19.2,12.9 6.5,-25.5 0.2,-67.4 2.3,-97.8 C 72.8,236.5 65.1,313 54.8,283.3 c -4,-11.5 16.7,-5.7 22.3,-1.2 4,8.6 -0.4,22.7 1.1,29.6 1.1,-3.5 -3.3,-24.7 3.9,-21.5 5.4,288.3 3.8,235.6 -7.6,246.3 -7.4,-0.4 -17.1,1.8 -21.8,-7.8 1.1,-3.3 2.7,-9.5 -2,-14 z"
   id="path3050" />
		<path
   class="st12"
   d="m 830.1,231.1 c 0,79.5 0,159 0,238.5 -0.6,0.2 -1.1,0.4 -1.7,0.6 -9.5,-98.6 -8.5,-231.2 0.2,-239.8 0.5,0.2 1,0.4 1.5,0.7 z"
   id="path3052" />
		<path
   class="st13"
   d="m 833.9,206.4 c -0.9,8.3 2.6,17.2 -3.8,24.6 0,0 -0.5,-0.5 -0.5,-0.5 -33.8,10.9 -27.3,-9 -12.5,-10.6 18.8,-1.5 6.5,-9.2 16.8,-13.5 z"
   id="path3054" />
		<path
   class="st14"
   d="m 52.8,528.8 c 6.5,5.5 14.6,4.8 22.2,6 8.3,7.6 -27.4,9.5 -26.1,2.2 0.1,-3.3 1,-6.2 3.9,-8.2 z"
   id="path3056" />
		<path
   class="st15"
   d="m 830.1,469.5 c 5.5,2.1 3.6,6.7 3.6,10.6 -33.3,8.7 -39.8,-3.3 -3.6,-10.6 z"
   id="path3058" />
		<path
   class="st16"
   d="m 833.9,206.4 c -3.2,3 -11,8.9 -16.7,3.7 6.7,-6.5 13.8,-12.3 22.4,-16.1 -1.9,4.2 -3.8,8.3 -5.7,12.4 z"
   id="path3060" />
		<path
   class="st17"
   d="m 49,537.1 c 9.1,2.3 2.1,26.7 -4.7,15.6 2.6,-4.5 4.2,-8.9 4.7,-15.6 z"
   id="path3062" />
		<path
   class="st18"
   d="m 829.7,478.1 c 1.3,0.7 2.6,1.4 3.9,2.1 3.8,10.3 -8,9.9 -3.9,-2.1 z"
   id="path3064" />
		<path
   class="st19"
   d="m 52.5,516.8 c 3.6,3.9 3.4,7.9 0.1,11.9 0,-4 -0.1,-8 -0.1,-11.9 z"
   id="path3066" />
		<path
   class="st6"
   d="M 14.3,109 C 3.5,104.4 2.6,73.6 11.2,75 c 55.9,14.7 104.7,29.3 158.6,42.4 19.5,7.6 -23.3,22 -30,25.3 C 98,135.1 54,123.7 14.3,109 Z"
   id="path3068" />
		<path
   class="st5"
   d="m 14.3,109 c 117.5,29.8 144.4,31.7 96.5,47 -44,-13.7 -100,-20.3 -100.6,-32.8 8,-2.8 2.9,-9.4 4.1,-14.2 z"
   id="path3070" />
		<path
   class="st8"
   d="m 413.8,13.6 -0.1,0.1"
   id="path3072" />
		<path
   class="st8"
   d="m 371.2,21.6 -0.2,0.1 c 11.7,-3.9 47.2,-8.2 55.1,-8.7"
   id="path3074" />
		<path
   class="st8"
   d="m 447.1,16 c -25.8,7.5 -73.7,11.2 -99.7,15.9 -72.4,42.3 -258.3,161.2 -236,121.9 5.2,-2.1 27.1,-8.5 18.3,-14.2 22.4,1.4 38.3,-14.3 55,-27.1 C 236.5,83.6 288.7,56.1 338.6,26.2 339.8,26 430.8,10.1 432,10"
   id="path3076" />
		<path
   class="st20"
   d="M 338.7,26.2 C 332.1,43.6 282.3,25 272.5,25.3 240.6,21.6 211.1,8.5 179.4,12.9 91.4,47.2 35.2,68.3 20.8,80.4 16.1,81.5 17.3,83.5 14.1,78 12.5,85.5 6.9,86.2 5.8,91.5 3.7,80.4 3.8,76.1 10.8,72.7 43.8,57.6 73.8,45.6 105.6,32.3 133,22 157.1,9 185.4,1.5 c 52,4.3 101.7,23.2 153.3,24.7 z"
   id="path3078" />
		<path
   class="st6"
   d="m 111.5,153.8 c 0.1,0.6 0.1,1.3 0.1,1.9 C 97,178.4 -15.7,148.7 8.1,123 c 32.8,15.7 68.7,19.6 103.4,30.8 z"
   id="path3080" />
		<path
   class="st4"
   d="m 105.1,461 c -29,-3 -21.6,15.1 -12,23 17,14 17,-20 12,-23 z"
   id="path3082" />
		<path
   class="st21"
   d="m 28.2,421.3 c 9.1,-75.2 3.4,-155.9 1.9,-232.6 0.3,-0.3 0.6,-0.6 1,-0.9 15.8,1.1 7.2,121.3 8.2,129.7 -0.9,69.2 6.1,105.3 -11.1,103.8 z"
   id="path3084" />
		<path
   class="st22"
   d="m 28.2,421.3 c 2.8,-3.3 18.6,-4.6 20.5,-7.5 4,-4 -3.2,-31.3 6.9,-28.4 7.2,92.8 -4.3,31.5 -20.4,43.4 0.2,3.8 -11.1,14 -10.9,4.6 -0.3,-3.8 10.3,-6 1.8,-8.1 0.8,-1.4 1.5,-2.7 2.1,-4 z"
   id="path3086" />
		<path
   class="st23"
   d="m 19.7,147.9 c 9.9,3.1 25.8,1.2 33.1,9.8 -4.8,7.1 -31.4,1.4 -33.1,-9.8 z"
   id="path3088" />
		<path
   class="st24"
   d="m 24.2,155.7 c 0.7,0 1.4,0 2.1,0 2.3,6.5 10.3,8.8 14.6,13.9 -1.5,2.8 -5.7,1.5 -6.9,4.7 7.1,10.9 4.5,9.9 -4,14.3 -6.1,-10.2 -2.1,-22.2 -5.8,-32.9 z"
   id="path3090" />
		<path
   class="st25"
   d="m 413.7,13.6 c 11.3,-3.6 23,-4.5 34.7,-5.8 8.9,7.6 -8.2,5.9 -14.5,9.5"
   id="path3092" />
		<path
   class="st26"
   d="M 2.3,447.6 C 1,442 1.4,429 12.2,431.2 3.6,433.5 4.7,441.7 2.3,447.6 Z"
   id="path3094" />
		<path
   class="st5"
   d="m 56.9,514.7 c -0.8,-0.1 -1.6,-0.2 -2.4,-0.3 5.2,-24.4 -30.8,-17.8 -44.3,-30.2 -0.1,-5.3 -0.2,-10.7 -0.3,-16 13.1,1.8 37,8.6 49.3,5.8"
   id="path3096" />
		<path
   class="st27"
   d="m 52.8,445.6 c -0.7,0 -1.4,0 -2.1,0.1 -3,2.2 -6.8,-0.2 -9.9,1.7 -7.7,-2.3 -15.6,-3.9 -22.8,-7.7 3.3,-6 35.5,0.1 34.8,5.9 z"
   id="path3098" />
		<path
   class="st28"
   d="m 24.2,437.5 c -2.1,0.7 -4.1,1.5 -6.2,2.2 -10.9,-1.4 -0.5,-7.3 6.3,-6.4 0.1,0.7 0.1,1.5 0.2,2.2 0.6,0.8 0.5,1.5 -0.3,2 z"
   id="path3100" />
		<path
   class="st29"
   d="m 40.8,447.4 c 2.9,-3 6.5,-1.3 9.9,-1.7 -2.5,2.6 -5.2,2.3 -9.9,1.7 z"
   id="path3102" />
		<path
   class="st30"
   d="m 657.4,111.4 c 7.2,-3.4 13.2,-8.3 18.5,-14.2 53.4,10.5 109.3,15.5 161.8,30.8 -228.5,149.7 -175,109.1 -272.9,91.6 -9.4,-4.1 -44.8,-5.3 -28.6,-15.8 42.1,-27.4 77.3,-67.3 121.2,-92.4 z"
   id="path3104" />
		<path
   class="st31"
   d="m 657.4,111.4 c -139.3,113.1 -124.8,94.5 -121.7,101 -9.3,5 0.1,20.5 -10.2,28.4 -13.9,18.3 -41.5,28.8 -61,42 -38.1,26.5 -38.9,19.9 -70.3,12.4 C 9.6,194.3 45.4,215.6 38.6,198.3 c -3.2,-3.7 -3.2,-5.2 -7.7,-10.6 11.6,-7.7 4.3,-5.5 -1.2,-12.3 15.8,-4.1 30.5,-7.4 47.5,-13.6 0.7,0.1 1.5,0.1 2.2,0.2 1.9,2 3.8,1.4 5.6,-0.1 9.7,1.3 17.9,-3.6 26.6,-6.3 0.1,15.1 96.3,-39.9 101.3,-28.4 19.7,-5 43.8,-5.8 48.3,-1.2 21.6,21.9 17.3,22.6 27.2,31 23,19.9 45.6,37 70.1,54.8 80.3,55.9 66.6,56.4 95.4,35.9 44.1,-29.5 85.9,-57.2 126.6,-91.2 9.3,-10.8 107.3,-84.7 76.9,-45.1 z"
   id="path3106" />
		<path
   class="st5"
   d="m 523.4,242.9 c 0.7,-0.7 1.4,-1.4 2,-2.1 38.2,10.5 115.7,33.2 115.6,32.5 0,-0.3 -6.9,11.7 -1.9,19.7 2.1,3.4 -116.9,-31.4 -120,-34 0.4,-4.5 4.9,-11.2 4.3,-16.1 z"
   id="path3108" />
		<path
   class="st3"
   d="M 657.5,101 C 565.1,170.1 439.4,271.7 426.7,262.4 365.1,220.5 306,179.7 253.3,128.8 321.6,85 405,47.2 480.6,10.7 555.3,46.6 664.1,97.2 657.5,101 Z"
   id="path3110" />
		<path
   class="st32"
   d="M 440.1,17.7 C 348.8,60.6 213.4,141.3 160.3,139.5 420.4,-8.5 295.4,41.9 440.1,18"
   id="path3112" />
		<path
   class="st32"
   d="M 371.6,26.1"
   id="path3114" />
		<path
   class="st33"
   d="m 766.6,242.6 c -7.6,34.4 -35.2,35.6 -40.3,24.6 6.2,-6.2 16.4,-5.2 26.6,-8.3 -3.9,-0.6 -6.6,0.4 -8.4,-1.9 7.4,-4.7 14.8,-9.5 22.1,-14.4 z"
   id="path3116" />
		<path
   class="st34"
   d="m 625.1,305.5 c 42.5,4.7 25,24.7 -1.7,11.5 -2.6,-4.3 -5.4,-8.7 1.7,-11.5 z"
   id="path3118" />
		<path
   class="st35"
   d="m 649.1,317.9 c 0,-2 0,-4 0,-6 6.3,-4 32.4,-17.3 26.1,2.3 -4.3,4.6 -27.6,10.6 -26.1,3.7 z"
   id="path3120" />
		<path
   class="st36"
   d="m 673.6,313.8 c 7.2,-13.8 -12.2,-5.2 -20.4,-4.1 8.6,-8.6 19.6,-13.3 30.4,-18.3 1.8,2.7 -4.1,29 -10,22.4 z"
   id="path3122" />
		<path
   class="st37"
   d="m 807.5,224.6 c -0.1,2.7 -0.1,5.4 -0.2,8.1 -9.8,4.5 -14.9,3.5 -20.3,-4.1 6.1,-4 12.2,-8 18.3,-12 1.2,1 2.8,1.7 2.7,3.6 -0.9,1.3 0.2,3 -0.5,4.4 z"
   id="path3124" />
		<path
   class="st38"
   d="m 787.1,228.6 c 6,5 13.2,4.2 20.3,4.1 5.1,5.1 13.4,-2.7 20.3,2 -0.4,3.5 1.4,7.4 -1.9,10.3 -10,-8.7 -28.6,0.2 -40.6,-10.1 -2.1,0 -4.1,-0.1 -6.2,-0.1 2.6,-2.1 5.3,-4.2 8.1,-6.2 z"
   id="path3126" />
		<path
   class="st13"
   d="m 807.4,220.6 c -0.7,-1.3 -1.3,-2.7 -2,-4 3.9,-2.1 7.9,-4.3 11.8,-6.4 3.6,1.2 15.9,-3.9 13.2,6 -7.1,4.2 -14.9,5.1 -23,4.4 z"
   id="path3128" />
		<path
   class="st39"
   d="m 703.5,281.1 c 2.2,-2.9 5.3,-4.5 8.7,-5.4 12.3,-0.2 31.1,3.1 16.7,16.2 -8.6,-10.3 -18.3,-4.6 -25.4,-10.8 z"
   id="path3130" />
		<path
   class="st34"
   d="m 730.3,277.3 c -6.3,2.3 -12.6,4.7 -18.1,-1.6 4.1,-3.5 11,-7.8 18.1,-4.4 v 0 c 1.6,2 1.8,4 0,6 z"
   id="path3132" />
		<path
   class="st40"
   d="m 744.5,257.1 c 28.3,-4.5 0.9,11.7 -10.4,5.8 3.5,-1.9 7,-3.9 10.4,-5.8 z"
   id="path3134" />
		<path
   class="st41"
   d="m 699.7,283.3 c 1.3,-0.7 2.6,-1.4 3.9,-2.2 4.3,4 10.1,8.8 17.9,9.6 26.8,5.9 -24.8,16 -21.8,-7.4 z"
   id="path3136" />
		<path
   class="st42"
   d="m 625.1,305.5 c -6.4,3.7 4.2,12.3 -3.3,14.8 -3.7,-3.4 -1.9,-10.3 -1.1,-16.3 1.7,-0.2 3.2,0 4.4,1.5 z"
   id="path3138" />
		<path
   class="st43"
   d="m 730.3,271.3 c -3.4,0 -6.9,-0.1 -10.3,-0.1 2.1,-1.3 4.2,-2.6 6.3,-3.9 1.9,0.7 3.3,2 4,4 z"
   id="path3140" />
		<path
   class="st34"
   d="m 620.7,304 c 0,3.3 0.1,6.6 0.1,9.9 -0.6,0.9 -1.3,0.9 -2,0 0,-3.4 0,-6.8 0,-10.2 0.6,-0.1 1.3,0 1.9,0.3 z"
   id="path3142" />
		<path
   class="st44"
   d="m 752.6,293.6 c 0,71.3 0.1,143.2 0,215 -11.5,-4.6 -1.9,-96.3 -4.9,-100.7 2.4,-31.7 -5.4,-117.9 4.9,-114.3 z"
   id="path3144" />
		<path
   class="st45"
   d="m 829.8,482.1 c 2.6,0.1 0.2,5.3 4.1,4 4,8.8 -21,7.7 -26.5,8.2 -5,-8.4 17.6,-7.3 22.4,-12.2 z"
   id="path3146" />
		<path
   class="st46"
   d="m 752.7,532.8 c 1.9,0.9 3.3,2.2 3.9,4.2 -4,5.2 -20.1,8.2 -26.9,4.1 -3.7,-7.7 18.4,-11.7 23,-8.3 z"
   id="path3148" />
		<path
   class="st47"
   d="m 758.7,555.1 c -9.5,1 -18.6,4.9 -28.4,4.1 -1.1,-1.3 -1.2,-2.8 -0.4,-4.3 7.3,-2.9 17.9,-7 26.9,-3.9 1.6,0.9 1.9,2.5 1.9,4.1 z"
   id="path3150" />
		<path
   class="st48"
   d="m 807.4,494.4 c -5.7,6.1 -20.7,3.7 -26.3,-4.1 0.4,-0.4 0.8,-0.7 1.3,-1.1 8.7,-0.1 17.5,-1 25,5.2 z"
   id="path3152" />
		<path
   class="st49"
   d="m 752.7,532.8 c -0.7,0 -1.5,0 -2.2,0 -4.1,-8.1 -4.3,-16.2 0.1,-24.3 0.7,0 1.3,0 2,0 0.1,8.1 0.1,16.2 0.1,24.3 z"
   id="path3154" />
		<path
   class="st50"
   d="m 756.8,551 c -1.6,2.8 -11.1,-7.8 -0.2,-14.1 0.1,4.7 0.2,9.4 0.2,14.1 z"
   id="path3156" />
		<path
   class="st51"
   d="m 58.8,287.5 c 5.9,-0.7 12.5,-4 16.2,4.1 -7.4,39.8 1,88.2 -2,130.5 2.1,29.5 -4.6,100.2 2,100.6 -1,9.7 -2.2,10 -16.2,4.1 7.4,-76.9 4.2,-160.7 0,-239.3 z"
   id="path3158" />
		<path
   class="st52"
   d="m 81.2,289.5 c -4.9,9 0,18.9 -4.1,28.1 0,-10.7 0,-21.5 0,-32.2 4.8,-1.3 9.6,-1 14.4,-0.3 7.1,78 -2,163.2 4.2,240.8 1.3,4.4 -6.1,6.5 -10.5,2.8 0,-0.7 0,-1.4 -0.1,-2.1 -7.3,-77.1 3.5,-159.4 -3.9,-237.1 z"
   id="path3160" />
		<path
   class="st53"
   d="m 91.3,285.5 c -9.5,8.8 -36.7,-20.5 -34.5,2 5.2,34.8 6,135.1 -2.1,129.7 0,-10.8 0,-21.6 -0.1,-32.3 -6.8,-20.8 -0.9,-48.7 -2.9,-71.6 -0.2,-56.5 -1.4,-39.3 21.1,-41.8 2.3,-1.3 2.7,-10.9 8.3,-5.3 3,4.5 26.4,1.5 20.9,2.8 0.2,0 -1,68 -1,68 1,37 1.6,88.9 0,105 -0.4,4.3 -2.9,-1.8 -4,-2 -3,-0.6 -0.9,-158 -5.7,-154.5 z"
   id="path3162" />
		<path
   class="st54"
   d="m 75,522.7 c -12.8,23 -0.4,-79 -3.9,-81.9 2.1,-166 -7.1,-148.6 3.9,-149.2 0,77 0,154.1 0,231.1 z"
   id="path3164" />
		<path
   class="st55"
   d="m 81.2,289.5 c 11.4,74.2 0.2,159.6 4,237.2 -6,1.4 -3.6,-4.2 -4,-15 -0.1,-75.7 0,-147.3 0,-222.2 z"
   id="path3166" />
		<path
   class="st19"
   d="m 55.1,417 c 0,-43.2 1.7,-86.2 1.7,-129.5 1,0 -0.5,-0.1 4,0 2.4,78.9 4.6,160.8 0,239.2 -0.7,0 -1.4,0 -2.1,0 C 54.9,492 54.2,453.3 55.1,417 Z"
   id="path3168" />
		<path
   class="st56"
   d="m 85.2,528.8 c 3.4,0 6.7,0 10.1,0 10.3,2.9 -15,10.7 -20.2,8.2 -1.4,-5.4 7,-5.8 10.1,-8.2 z"
   id="path3170" />
		<path
   class="st57"
   d="m 825.7,240.9 c -2,152.6 5.4,227 -2.2,223.1 -7.1,-51.2 -0.3,-108 -2.6,-160.8 2.5,-15.5 -6.4,-72.8 4.8,-62.3 z"
   id="path3172" />
		<path
   class="st58"
   d="m 823.6,463.8 c 5.4,-17 0.5,-39.4 2.1,-58.7 5.3,18.5 0.4,42.4 1.9,63.1 -4.9,7.2 -12.9,5.1 -19.7,6.4 -6.8,-5.7 7.8,-14 15.7,-10.8 z"
   id="path3174" />
		<path
   class="st59"
   d="m 827.6,234.6 c -5.2,-0.1 -16.9,6.7 -20.1,-1.8 5.4,0.2 28.4,-11.3 20.1,1.8 z"
   id="path3176" />
		<path
   class="st60"
   d="m 807.4,474 c 6.7,-1.9 13.5,-3.9 20.2,-5.8 9.3,7.6 -13.9,8.1 -20.2,7.9 -0.4,-0.7 -0.4,-1.4 0,-2.1 z"
   id="path3178" />
		<path
   class="st61"
   d="m 75,559.3 c -2.1,7.3 -8.1,2.6 -12.2,4 -4.3,-3.5 -12.5,-0.1 -14.2,-8.1 0,0 0,0 0,0 9.5,-2.9 18.5,-2.5 26.4,4.1 z"
   id="path3180" />
		<path
   class="st62"
   d="m 807.4,220.6 c 7.2,-2.5 14.8,-3.2 22.3,-4 0.7,-1 1.4,-1 2,0 -3.4,7.3 -17.3,5.7 -24.3,8.1 -0.2,-1.4 -2.2,-2.7 0,-4.1 z"
   id="path3182" />
		<path
   class="st63"
   d="m 831.8,216.5 c -0.7,0 -1.3,0 -2,0 0.5,-4.5 -1.6,-6.5 -6.1,-6.1 2.2,-2.9 5.3,-1.7 8.1,-2.1 0,2.8 0,5.5 0,8.2 z"
   id="path3184" />
		<path
   class="st64"
   d="m 75,559.3 c -8.8,-1.4 -17.6,-2.7 -26.4,-4.1 2.6,-2.9 0.8,-7.5 4,-10.2 4.7,3.7 11.7,8.1 19.2,3.6 1,-2.2 -0.1,-5.7 1,-9.7 0.7,0 1.4,0 2.1,0 5.4,-4 9.6,14 0.1,20.4 z"
   id="path3186" />
		<path
   class="st65"
   d="m 77.1,539 c -0.7,0 -1.3,0 -2,0 0,-0.7 0,-1.3 0,-2 9.2,-2.5 27,-11.2 30.4,-2.1 3.5,9.3 -22.6,7.2 -28.4,4.1 z"
   id="path3188" />
		<path
   class="st66"
   d="m 52.8,547 c 0,-1.7 -0.1,-4.1 0,-8.1 7.3,2.5 15.7,0.9 22.3,6.1 0,1.4 0,2.7 0,4.1 -7.9,4.1 -15.1,0.7 -22.3,-2.1 z"
   id="path3190" />
		<path
   class="st67"
   d="m 75.1,545 c -7.8,-0.8 -15.7,-1 -22.3,-6.1 6.7,-2.8 13.4,1.5 20.2,0 0.7,2.1 1.4,4.1 2.1,6.1 z"
   id="path3192" />
		<path
   class="st48"
   d="m 785,482.1 c 0,-1.3 0.1,-2.7 0.1,-4 6.3,-2 15.2,0.5 22.3,0 0,1.4 0,2.7 0.1,4.1 1.6,1.6 2.7,4.9 0,8.1 v 0 c -5.7,-2 -16.8,-3 -22.5,-8.2 z"
   id="path3194" />
		<path
   class="st68"
   d="m 807.4,478.1 c -6.5,0 -15.5,2.3 -20.3,-6 0,-0.7 0.1,-1.5 0.1,-2.2 7.1,-2.8 13.7,-1.2 20.2,2.1 0,1.1 0,-0.7 0,6.1 z"
   id="path3196" />
		<path
   class="st69"
   d="m 807.4,484.2 c 0,-0.7 0,-1.3 0.1,-2 7.4,-1.4 14.8,-2.7 22.3,-4.1 0,1.3 0.1,2.7 0.1,4 -6.1,4.5 -14.7,6.1 -22.5,2.1 z"
   id="path3198" />
		<path
   class="st30"
   d="m 20.8,80.4 c -4.5,-3.2 -1.4,-5.1 2,-5.9 C 75.6,50.6 130.4,27.7 185.7,7.6 234.2,12.7 279.8,26 328.4,32.1 284.6,66.7 224,90.4 174.4,121.3 122.8,109.5 72.1,93.8 20.8,80.4 Z"
   id="path3200" />
		<path
   class="st70"
   d="m 168.1,135 c 0.9,1.6 12.4,1.9 14,2 -4.5,2.5 -26.6,10.1 -32.2,8.6 2.8,-3.2 14.6,-8.8 18.2,-10.6 z"
   id="path3202" />
		<path
   class="st25"
   d="M 359.4,28.1"
   id="path3204" />
		<path
   class="st25"
   d="M 346.9,30"
   id="path3206" />
		<path
   class="st71"
   d="m 77.2,161.8 c -5.8,9.5 -15.8,6.5 -24.3,8 -9.5,-11.1 17.4,-9.1 24.3,-8 z"
   id="path3208" />
		<path
   class="st72"
   d="m 73,161.8 c -6.1,0.5 -12,3 -18.2,2 -0.4,-1.9 -1.9,-1.1 -2,-6.1 6.7,1.6 14.7,-3.7 20.2,4.1 z"
   id="path3210" />
		<path
   class="st73"
   d="M 40.4,230.8 C 46,257.2 48.5,428.9 36.6,413 42.1,224.9 30.6,230.5 40.4,230.8 Z"
   id="path3212" />
		<path
   class="st74"
   d="m 54.7,271.4 c -0.4,188.9 1.1,143.3 -22.3,147.7 1.4,-1.3 2.7,-2.6 4.1,-3.9 3,-1.3 6.4,-0.8 10.8,-4.4 4.2,-61.3 -6.1,-146.2 5.9,-140.4 0.5,0.4 1,0.7 1.5,1 z"
   id="path3214" />
		<path
   class="st75"
   d="m 42.6,415.2 c -2,-0.6 -4.1,2.4 -6.1,0 0,-0.7 0.1,-1.5 0.1,-2.2 11.6,-13.3 -1.7,-76.3 6,-83.1 6.1,25.5 3.9,76.9 0,85.3 z"
   id="path3216" />
		<path
   class="st76"
   d="m 47.1,223 c -2.7,0 -7.9,-6.3 -10.6,-6.3 0,-0.7 0,-1.5 0,-2.2 3.9,-3.2 -4.3,-16.3 -0.4,-19.5 7.6,0.6 16.2,22.6 11,28 z"
   id="path3218" />
		<path
   class="st77"
   d="m 40.6,202.4 c -1.4,4 3.4,10.1 -4,12.1 0.8,-4.8 -1.9,-10 2.1,-14.3 0.6,0.7 1.2,1.4 1.9,2.2 z"
   id="path3220" />
		<path
   class="st78"
   d="m 34.4,192.3 c 2.8,1 4.1,3.1 4.2,6 -4.1,-0.2 -4.1,-3.1 -4.2,-6 z"
   id="path3222" />
		<path
   class="st79"
   d="m 24.2,437.5 c 0.1,-0.7 0.2,-1.3 0.3,-2 8.7,-0.6 20.3,-1.8 30.2,2 1.6,2.7 1.5,5.4 0.1,8.1 0,0 0.1,0.1 0.1,0.1 -8.6,-3 -21.3,-3.5 -30.7,-8.2 z"
   id="path3224" />
		<path
   class="st78"
   d="m 52.7,437.5 c -7.4,-0.6 -15.1,1.8 -22.2,-2 0.8,-7.9 14.3,-5.6 20.2,-2 0.7,1.3 1.3,2.7 2,4 z"
   id="path3226" />
		<path
   class="st80"
   d="m 32.5,427.4 c 6.1,-5.8 12.2,-1.5 18.3,0 -5.5,5.7 -10.3,5.7 -18.3,0 z"
   id="path3228" />
		<path
   class="st81"
   d="m 32.5,427.4 c 6.1,2.6 12.2,3.6 18.3,0 3.2,2.1 0.5,4.1 -0.1,6.1 -6.2,0.3 -12.3,0 -18.2,-2.1 0,-1.3 0,-2.6 0,-4 z"
   id="path3230" />
		<path
   class="st82"
   d="m 28.4,161.8 c -2.4,-1.4 -2,-3.8 -2.1,-6 8.9,0.5 17.8,1.4 26.4,4 0,0 0,0 0,0 -2.2,10.9 -17.4,6.4 -24.3,2 z"
   id="path3232" />
		<path
   class="st83"
   d="m 28.4,161.8 c 6.7,-0.1 18.7,6.3 24.3,-2 1.9,0.1 6.8,0 2,4 -3.2,1.2 -3.7,3.3 -1.9,6 -0.7,0 -1.4,0 -2.2,0.1 -2.8,4.4 -23.3,-2.7 -22.2,-8.1 z"
   id="path3234" />
		<path
   class="st84"
   d="m 40.6,169.9 c 3.4,0 6.7,0 10.1,0 3.9,8.1 -12.6,7.4 -18.3,4.1 -0.8,-8.4 5.8,-2.1 8.2,-4.1 z"
   id="path3236" />
		<path
   class="st85"
   d="M 64.3,185.9 C 263.6,127.2 211.1,124.7 272.9,171 342.6,228.9 382.7,248.5 406.7,273.4 292.6,242.6 178.2,215.7 64.3,185.9 Z"
   id="path3238" />
		<path
   class="st86"
   d="m 43.1,220 c 0,-3.4 1.5,-10.2 1.5,-13.6 490.6,109.7 332.4,117.7 478.8,36.5 12,11 -44.7,33.5 -48.2,39.8 -21.4,14.1 -44.1,32.7 -70.4,26.7 C 284.7,276.4 160.1,256.9 43.1,220 Z"
   id="path3240" />
		<path
   class="st87"
   d="M 277.9,488.4 C 278.2,488 278,378 280,324 c 8.6,-2.5 18.3,0.2 26.2,3 5.6,9.2 -16.1,19.8 -18.8,11.5 -0.2,-0.5 0.8,254.5 0.8,254.5 l -10,5 c -0.1,-36 -0.9,-109.1 -0.3,-109.6 z"
   id="path3242" />
		<path
   class="st88"
   d="m 172.5,459.8 c 0,29.7 0,59.5 0,89.2 -11.8,5.4 -9.9,-103.8 0,-89.2 z"
   id="path3244" />
		<path
   class="st89"
   d="m 336.1,615 c 7,7 -3,7 -3,7 0,0 -17,10 -59.2,-2 -6.1,-9.8 60.9,-8.9 62.2,-5 z"
   id="path3246" />
		<path
   class="st90"
   d="m 168.4,547 c 10.6,2.7 8.1,16.4 8.1,24.4 -5.6,5.4 -17.4,-25.4 -8.1,-24.4 z"
   id="path3248" />
		<path
   class="st91"
   d="m 172.4,567.3 c 0.1,2.7 1.5,4 4.1,4.1 -9.4,5.7 -20.2,4.6 -30.4,6 -5,-8.7 19.9,-9.7 26.3,-10.1 z"
   id="path3250" />
		<path
   class="st92"
   d="m 459.1,559 c -5,2 1.6,-158.3 -1.6,-158.9 2.6,-19 -11.4,-141.1 25.6,-80.1 15.3,25.2 -6.9,65.2 -9.7,95.4 2.7,69.5 -5.7,116.5 4.2,140.4 -2.5,8.2 -13.7,3.5 -18.5,3.2 z"
   id="path3252" />
		<path
   class="st93"
   d="m 499.1,547 c 2.3,9.8 -9,17.4 -15.1,6.2 1.7,-16.3 -4.6,-54.7 6.6,-51.6 7.8,13.7 -3.1,30.1 3.1,45.1 2.8,-75.3 -2.8,-153 2.2,-227.4 9,-0.3 4,18.2 5.3,26.6 -1.9,68.4 3.4,134.2 -2.1,201.1 z"
   id="path3254" />
		<path
   class="st94"
   d="m 499.1,547 c -2.3,-129.1 5.1,-228.7 -4.1,-227.1 -5.1,11.8 -9.3,9.6 -18.2,-2.1 v 0 c -2.7,-4 32.3,-16.9 25.3,6.7 -0.9,75.9 1.8,147.7 -1,222.4 -0.7,0.1 -1.4,0.1 -2,0.1 z"
   id="path3256" />
		<path
   class="st93"
   d="m 501.1,547 c 1.9,-78 -3.7,-162.8 1.9,-237.3 0,80.4 0,160.9 0,241.3 -1.6,-0.8 -1.9,-2.3 -1.9,-4 z"
   id="path3258" />
		<path
   class="st95"
   d="M 626.9,593.7 C 624.6,515.1 626,434.3 626.2,355 c 12.8,-2.3 2.3,122.8 5.5,123.4 -2.3,47.4 5.8,116.1 -4.8,115.3 z"
   id="path3260" />
		<path
   class="st96"
   d="m 458.5,348.3 c 0,63.6 0,127.1 -0.1,190.7 -2.2,-0.1 -4.6,0.3 -6,-2 6.6,-1.7 4,-7.1 4,-10.9 0.2,-59.3 0.1,-118.5 0.1,-177.8 0.7,-0.9 1.3,-0.9 2,0 z"
   id="path3262" />
		<path
   class="st97"
   d="m 626.9,401 c 0,61.5 0,123 0,184.5 -0.7,-0.1 -1.4,-0.1 -2.1,-0.2 0,-61.5 0.1,-122.9 0.1,-184.4 0.7,-0.8 1.3,-0.7 2,0.1 z"
   id="path3264" />
		<path
   class="st98"
   d="m 419.9,528.8 c -0.5,28.4 0.6,56.8 -2,85.1 -8.6,4.6 -7.8,-107.5 2,-85.1 z"
   id="path3266" />
		<path
   class="st37"
   d="m 464.6,559.2 c 4,-1.4 10.2,3.4 12.2,-4.1 -5.5,-22.6 -5.2,-97.2 1.8,-95.6 6.1,32.5 4.9,79.5 0.3,101.8 -4.8,-0.8 -10,1.8 -14.3,-2.1 z"
   id="path3268" />
		<path
   class="st99"
   d="m 415.9,614 c 0.7,0 1.3,0 2,0 1.5,2.5 5.3,2.8 6,6.1 -1.9,1.8 -0.1,4.7 -1.9,6.5 -9.4,-3.6 -20.4,0.4 -30.8,1.7 -6,-12 16.3,-13.3 24.7,-14.3 z"
   id="path3270" />
		<path
   class="st100"
   d="m 424.1,636.2 c 2.6,4 -0.5,4.8 -3.4,4.7 -54.3,15.3 -25.2,-11.4 3.4,-4.7 z"
   id="path3272" />
		<path
   class="st101"
   d="m 622.9,611.9 c 0,-2 0.1,-3.9 0.1,-5.9 54.6,3.5 14.6,23.8 -0.1,5.9 z"
   id="path3274" />
		<path
   class="st102"
   d="m 391.5,644.4 c 0.7,0.7 1.4,1.4 2,2 -5.7,4.1 -12.2,1.1 -18.2,2 -5.1,-2.1 -12.1,-0.8 -14.2,-8.1 0.4,-0.4 0.8,-0.8 1.3,-1.1 10.1,-0.9 19.8,1 29.1,5.2 z"
   id="path3276" />
		<path
   class="st103"
   d="m 499.1,557.1 c 11.5,1.6 11.2,24.5 2.1,24.3 -0.2,-27.8 -7.1,-8 -16.7,-19.9 3.9,-4.5 10,-1.8 14.6,-4.4 z"
   id="path3278" />
		<path
   class="st104"
   d="m 454.6,567.2 c -1.5,-10.3 16.8,-1 24.1,-1.9 6.6,12.2 -19.5,8.5 -24.1,1.9 z"
   id="path3280" />
		<path
   class="st105"
   d="m 456.4,577.5 c -2.4,-1.5 -1.9,-3.8 -1.9,-6.1 8.3,-2.2 16.1,0.9 24,2.6 6.7,10.3 -17.1,9.8 -22.1,3.5 z"
   id="path3282" />
		<path
   class="st106"
   d="m 647.2,611.9 c -8.3,-1.2 -17,-0.6 -24.3,-5.9 0,-2.7 0,-5.4 -0.1,-8.2 6,-5.1 8.5,8.2 13.7,7.4 6.1,-0.9 21.7,-4.6 10.7,6.7 z"
   id="path3284" />
		<path
   class="st107"
   d="m 628.9,599.8 c -1.5,-2.4 -3.8,-2 -6,-2 -2.6,-7.5 35.4,-4.5 26.3,6 -6,0.4 -13.8,1 -20.3,-4 z"
   id="path3286" />
		<path
   class="st108"
   d="m 478.8,585.6 c -6.3,5.5 -35.5,-2.9 -24.3,-6.1 8,2.2 17.4,-1.1 24.3,6.1 z"
   id="path3288" />
		<path
   class="st109"
   d="m 622.9,611.9 c 7,6.3 16.3,3.5 24.2,6.1 1.1,1.3 1.3,2.6 0.2,4 -9.5,-1.3 -19,-2.6 -28.5,-3.9 0.2,-0.7 4.3,-3.1 4.1,-6.2 z"
   id="path3290" />
		<path
   class="st91"
   d="m 501.1,577.5 c 0,1.3 0,2.6 0,4 -7.3,2.8 -14.8,2.1 -22.4,2.1 -1.2,-1.4 -1.2,-2.7 0,-4.1 h 0.1 c 7.2,-3.4 14.5,-5.9 22.3,-2 z"
   id="path3292" />
		<path
   class="st110"
   d="m 478.8,579.5 c 0,1.7 0.1,1.7 0,6.1 -7.7,-3.8 -16.9,-1.4 -24.3,-6.1 0.7,-0.7 1.3,-1.3 2,-2 7.3,1.4 14.7,2.6 22.3,2 z"
   id="path3294" />
		<path
   class="st94"
   d="m 499.1,557.1 c -4.1,3.6 -9.1,4.1 -14.2,4.1 -3.7,3.4 -7.4,-3.3 0,-6.1 4.1,-0.3 10.2,3.8 14.2,-2 0,1.4 0,2.7 0,4 z"
   id="path3296" />
		<path
   class="st111"
   d="m 478.7,575.5 c -7.8,-2.9 -16.1,-2.9 -24.2,-4 0,-1.4 0.1,-2.8 0.1,-4.2 7.9,1.9 15.7,4.4 24,4.1 0,0 0.8,0.6 0.8,0.6 -0.2,0.5 1.7,0.3 -0.7,3.5 z"
   id="path3298" />
		<path
   class="st112"
   d="m 424.1,636.2 c -3.8,5 -9.7,-6.9 -2.1,-10.1 0.1,-2.2 -0.4,-4.6 2,-6 0,5.4 0,10.7 0.1,16.1 z"
   id="path3300" />
		<path
   class="st45"
   d="m 480.8,561.2 c 1.4,0 2.7,0 4.1,0 2.1,3 5.3,1.7 8.1,2 -3.1,6.2 -9,5.4 -14.3,2.1 0,-1.3 0.1,-2.7 0.1,-4 0,0 0,0 0,0 0.7,-1 1.3,-1.1 2,-0.1 z"
   id="path3302" />
		<path
   class="st113"
   d="m 365.1,512.7 c 5.9,-54.4 0.2,-114.5 2.1,-170.5 5.3,-1.1 11.3,-3.8 11.4,5.6 -10.8,15.6 -1.7,59 -4.6,72.7 -2.2,98.9 4.7,183.7 -3.3,195.9 -7,-41.1 5.5,-93.4 -5.6,-103.7 z"
   id="path3304" />
		<path
   class="st114"
   d="m 330.7,322 c -0.1,60.1 0.7,209.5 0.4,270 -9.7,-1.3 -6.1,6.5 -8,-1 -2.4,-45.6 7.4,-220 -0.2,-263.2 -1,-6.8 3.1,-6.7 7.8,-5.8 z"
   id="path3306" />
		<path
   class="st115"
   d="m 328.6,591.6 c 2.1,-0.3 4.6,0.7 6.1,4.1 -23.6,20.2 -51.8,-3.4 -6.1,-4.1 z"
   id="path3308" />
		<path
   class="st116"
   d="m 306.3,622.1 c -0.6,-0.1 -1.2,-0.1 -1.8,-0.2 -10.6,-8.4 36.3,-15 28.3,-4 -8.9,1.4 -17.7,2.8 -26.5,4.2 z"
   id="path3310" />
		<path
   class="st117"
   d="m 369.2,614 c -1.4,4.4 2.2,23.4 -8,26.3 0,0 0,0 0,0 2.4,-8 -0.6,-27.4 8,-26.3 z"
   id="path3312" />
		<path
   class="st118"
   d="m 332.8,617.9 c 0,-1.3 -0.1,-2.7 -0.1,-4 -3.6,-4.7 -5.1,-12.8 2,-18.2 -1.6,6.6 5.2,21.7 -1.9,22.2 z"
   id="path3314" />
		<path
   class="st119"
   d="m 121.8,559.2 c -2.4,-1.4 -2,-3.8 -2,-5.9 7.1,-19.3 0.5,-43.8 3.9,-65.2 v 0.1 c 9.9,3.5 2.9,27.9 5.1,37.3 -6.1,39 31.9,12.9 17.4,47.9 h -0.1 c -7.2,3.7 -7,0.4 -10.4,-4.9 -4.7,-1.4 -9.8,-0.1 -13.8,-5.1 -0.2,-1.5 -0.2,-2.9 -0.1,-4.2 5,-1.8 9.8,1 16.7,0 -7,0.8 -11.8,-2.1 -16.7,0 z"
   id="path3316" />
		<path
   class="st120"
   d="m 101.4,463.7 c -0.3,0.3 1.7,32.3 1.7,32.3 0,0 -5.8,24 2.4,38.9 -2.8,-1.1 -4.6,-4.4 -8.2,-4.1 0,-0.7 0,-1.3 0,-2 -6.6,-26.4 -2.8,-77.2 2.3,-87.3 6.6,0.7 5.4,16.9 1.8,22.2 z"
   id="path3318" />
		<path
   class="st121"
   d="m 75.1,559.1 c 4.8,-16.2 29.1,-1.5 30.4,-22.2 10.3,24.7 -13.7,23.4 -30.4,22.2 z"
   id="path3320" />
		<path
   class="st122"
   d="m 123.6,488 c -1.6,30.1 4.4,63.5 -3.9,65.2 1.9,-19.6 4.6,-43.4 0.1,-62.8 0.7,-1.8 2.2,-2.1 3.8,-2.4 z"
   id="path3322" />
		<path
   class="st123"
   d="m 121.7,563.2 c 44.3,5.1 4.4,16.4 -1.9,4 0,-1.6 0.3,-3.1 1.9,-4 z"
   id="path3324" />
		<path
   class="st124"
   d="m 673.5,334.1 c 1.7,85.5 -0.3,171.7 0,257.6 -4.7,5.6 -7.3,-2 -7,-9.1 0.2,-50.3 0,-98.5 0.1,-148.3 2.6,-75.9 -7.2,-110.7 6.9,-100.2 z"
   id="path3326" />
		<path
   class="st125"
   d="m 701.9,549 c 1.7,-5.3 -4.1,-12.5 4.1,-16.2 5,37.3 23.8,7.1 24.4,26.4 1.8,1.5 3.5,5 -2.1,4 -7.3,-7.8 -31,0 -26.4,-14.2 z"
   id="path3328" />
		<path
   class="st126"
   d="m 647.3,621.9 c -0.1,-1.3 -0.1,-2.6 -0.2,-4 7.7,-5.9 19.7,-4.4 30.5,-6.1 2.3,1.5 1.9,3.9 2,6.1 -9.4,1 -21.6,3.7 -32.3,4 z"
   id="path3330" />
		<path
   class="st127"
   d="m 702,555.2 c 6.9,2.4 22.6,-2 26.3,8 -6.5,-2.6 -25.7,-0.1 -26.3,-8 z"
   id="path3332" />
		<path
   class="st18"
   d="m 677.7,611.9 c -1.4,13 -15.7,-19.4 -4.1,-20.2 5.1,5.9 4,13.2 4.1,20.2 z"
   id="path3334" />
		<path
   class="st128"
   d="m 702,555.2 c 0,0.6 -0.1,1.3 -0.1,1.9 -2.7,0 -4,-1.4 -4.1,-4.1 1.4,-1.4 2.7,-2.7 4.1,-4.1 3.3,2.1 0.6,4.2 0.1,6.3 z"
   id="path3336" />
		<path
   class="st13"
   d="m 474.7,295.6 c 8.1,-5.6 19.8,-11.4 31.3,-12.6 0.4,0.2 0.8,0.4 1.3,0.6 -1.1,6.7 1.8,13.9 -2,20.4 -5.7,-15.5 -23.6,5.7 -30.6,-8.4 z"
   id="path3338" />
		<path
   class="st129"
   d="m 624.8,334.2 c -9.7,-11.6 19.2,-5.9 24.5,-1.6 5.2,13.1 -18.3,8.1 -24.5,1.6 z"
   id="path3340" />
		<path
   class="st130"
   d="m 624.8,334.2 c 2.3,0 4.7,-0.4 6.1,2 -1.9,6 0.1,12.8 -4,18.2 0,15.5 0,31.1 0,46.6 -0.7,0 -1.3,0 -2,0 0,-22.2 -0.1,-44.5 -0.1,-66.8 z"
   id="path3342" />
		<path
   class="st131"
   d="m 503,309.7 c -0.6,0.7 -1.3,1.4 -1.9,2.1 -7.3,1.9 -14.4,5.3 -22.3,4.1 -5.7,-8.7 18.1,-11.1 24.4,-10.7 0.8,0.9 0.8,1.8 0,2.7 0,0.6 -0.1,1.2 -0.2,1.8 z"
   id="path3344" />
		<path
   class="st132"
   d="m 503.2,307.9 c 0,-0.7 -0.1,-1.5 -0.1,-2.2 -4.5,-9.4 -21.9,5.1 -24.4,-6.1 10.8,-1.6 29.2,-13.2 26.6,4.3 -0.7,1.4 -1.4,2.7 -2.1,4 z"
   id="path3346" />
		<path
   class="st133"
   d="m 498.9,279.3 c 3,-5.3 7.9,-4 12.5,-3.7 -0.8,2.9 -1.7,5.9 -4.1,8 -1.6,-2.7 -7.7,1.7 -8.4,-4.3 z"
   id="path3348" />
		<path
   class="st134"
   d="m 624.9,328 c -0.7,0.7 -1.4,1.4 -2.2,2.2 -5,-4.5 -3.7,-10.6 -3.9,-16.3 0.7,0 1.3,0 2,0 -1.1,4.8 6,7.2 4.1,14.1 z"
   id="path3350" />
		<path
   class="st135"
   d="m 787.1,465.9 c -0.7,0 -1.3,0 -2,0 0,-77 0,-154.1 0,-231.1 0.7,0 1.5,0 2.2,0.1 5,74.4 5.4,156.6 -0.2,231 z"
   id="path3352" />
		<path
   class="st59"
   d="m 752.6,293.6 c -0.7,0 -1.3,0 -2,0 -4.1,3.7 -23.7,10.6 -22.3,2 0,-0.7 0,-1.3 0,-2 -0.3,-0.3 -0.5,-0.7 -0.8,-1 0.3,-0.3 0.5,-0.6 0.8,-1 7,-0.9 15,-7.8 24.3,-4.7 1.2,1.5 1.2,3.1 0,4.6 0.1,0.7 0.1,1.4 0,2.1 z"
   id="path3354" />
		<path
   class="st136"
   d="m 752.7,291.6 c 0,-1.4 0,-2.8 -0.1,-4.2 -0.8,-5 -3.4,-14.4 2,-20.1 0.7,0 1.4,0 2.1,0 -1,8.1 3,17.1 -4,24.3 z"
   id="path3356" />
		<path
   class="st21"
   d="m 42.6,415.2 c 1,-60.2 -2,-119.6 0,-180.4 4.8,0.5 10,-1.6 14.4,1.9 -9.5,5.3 0,2.3 -4.2,34.5 -1.4,0.7 -2.7,1.4 -4.1,2.1 -1.6,-4.7 -2.2,-11.8 -1.6,-18.9 -0.7,32.6 4.1,152.8 -2.5,160.8 -0.6,0 -1.3,0 -2,0 z"
   id="path3358" />
		<path
   class="st105"
   d="m 363,334.2 c -3.9,-7.2 -1,-15 -1.8,-22.5 11.1,1.7 22,4 32.4,8.3 2.6,19.1 -28.2,-3.3 -30.6,14.2 z"
   id="path3360" />
		<path
   class="st94"
   d="m 391.1,330 c 0.7,-2 1.8,-8 2.4,-10.1 3.7,2.4 8,1.7 12.1,2.1 1.1,3.1 -2.4,3.2 -3.4,4.8 5.6,-1.5 11.3,-1.9 17.1,-1.5 3.5,2.4 2.1,5.5 1.2,8.5 -10.9,9.8 -37.2,18.3 -29.4,-3.8 z"
   id="path3362" />
		<path
   class="st137"
   d="m 144,257.3 c 8.6,3 17.5,4.8 26.5,6 11.2,9.8 -34.4,23.9 -26.5,-6 z"
   id="path3364" />
		<path
   class="st138"
   d="m 79.1,265.2 c -0.7,0 -1.3,0 -2,0 -2.3,-6.9 13.4,-9 17.7,-9.4 -4.4,-11.4 8.5,-9.9 16.9,-7.4 -0.1,0.5 -0.3,1 -0.4,1.4 -6.2,6.2 0.7,18.7 -8.7,24 -9.8,-12.8 -13,-3 -23.5,-8.6 z"
   id="path3366" />
		<path
   class="st139"
   d="m 52.7,244.9 c -8.5,-0.9 -6.6,-10 1.9,-8.1 7.2,1.3 13.7,1.7 22.4,4 4,12.2 -17.5,9 -24.3,4.1 z"
   id="path3368" />
		<path
   class="st140"
   d="m 148.1,273.3 c 6.6,0.2 26.7,-1.8 22.4,-10 2.8,0.2 5.9,-0.9 8.1,1.9 -4.9,3.7 1.5,16.8 -8.4,16.5 -5.1,-8.7 -16.7,3 -24.7,-4.5 -0.5,-2.2 -0.5,-4.1 2.6,-3.9 z"
   id="path3370" />
		<path
   class="st141"
   d="m 458.6,305.9 c 6,-6.5 27.5,-9.4 20.1,5.9 v 0 c -5,4.5 -23.5,2 -20.1,-5.9 z"
   id="path3372" />
		<path
   class="st142"
   d="m 144,257.3 c 0,0.6 0,1.2 0,1.8 -6.3,5.3 -40.4,0.8 -32.4,-9.8 0,0 0,-0.9 0,-0.9 10.9,2.4 21.9,4.7 32.4,8.9 z"
   id="path3374" />
		<path
   class="st143"
   d="m 273.8,291.7 c -0.6,-0.7 -1.3,-1.5 -1.9,-2.2 10.6,1.2 20.9,3.4 30.7,7.8 -9.4,14.7 -25.7,12.4 -25.8,12.8 0.3,-4.1 0.3,-4.1 -3,-18.4 z"
   id="path3376" />
		<path
   class="st144"
   d="m 334.8,305.8 c 0,2.7 -0.1,5.3 -0.1,8 -8.4,-4.3 -21.5,6.2 -29.4,-3.7 0.2,-6.9 13.1,-3 17.2,-8.5 5,-1.1 7.9,4 12.3,4.2 z"
   id="path3378" />
		<path
   class="st15"
   d="m 322.6,301.7 c 5.9,6.1 -10.4,6.2 -16.2,6.1 -2.6,-2.8 -4.3,-6 -4.2,-10 0,0 0.3,-0.5 0.3,-0.5 6.7,1.5 13.4,2.9 20.1,4.4 z"
   id="path3380" />
		<path
   class="st145"
   d="m 103.5,246.9 c -25.4,14.9 -38.8,-1.1 -14.2,-4 5.1,-0.1 9.6,2.2 14.2,4 z"
   id="path3382" />
		<path
   class="st146"
   d="m 458.6,305.9 c 5.3,6.9 12.9,5.9 20.1,5.9 0,1.4 0.1,2.7 0.1,4.1 -3.9,0.8 -8.5,1.3 -14.2,0 -3.6,-2.4 -8.1,1 -10.2,-6.1 0.8,-2 2.1,-3.4 4.2,-3.9 z"
   id="path3384" />
		<path
   class="st147"
   d="m 89.3,242.9 c -3.8,1.9 -7.5,3.7 -12.4,6.2 5.6,2.7 12.1,1.7 18.5,1.9 -2.8,9.1 -30.5,4.8 -20.3,-4.1 0.7,-2 1.3,-4 2,-6 4.3,-0.8 8.1,1.3 12.2,2 z"
   id="path3386" />
		<path
   class="st148"
   d="m 417.9,326 c -7.6,1.3 -15,4.8 -23.7,3.4 2.5,-5.5 8.7,-3.6 11.4,-7.2 1.5,1.1 13.3,-0.3 12.3,3.8 z"
   id="path3388" />
		<path
   class="st149"
   d="m 498.9,279.3 c 1.3,4.3 8.2,-2.9 8.1,4 -6.8,4.3 -14.7,4.6 -22.2,6.2 4.5,-3.7 8.7,-7.7 14.1,-10.2 z"
   id="path3390" />
		<path
   class="st150"
   d="m 478.8,303.7 c -3.8,-2.5 -8.1,-2 -12.3,-2.1 2.8,-2 5.5,-4 8.3,-6 2.7,0.4 4.4,1.7 4.1,6.1 0.1,0.2 0.8,0.9 -0.1,2 z"
   id="path3392" />
		<path
   class="st151"
   d="m 417.9,326 c 0,-0.6 0,-1.3 0,-1.9 3.4,0 6.8,0 10.2,0.1 -5.2,2.4 -4,9.1 -8.1,12.2 -0.1,-0.3 -1,-0.6 -0.1,-2.2 -0.2,-2.9 1,-6.1 -2,-8.2 z"
   id="path3394" />
		<path
   class="st75"
   d="m 42.6,234.8 c 0,7.4 0,14.9 0,22.3 -4.1,-7.3 -1.2,-15.1 -1.7,-22.6 0.5,0.1 1.1,0.2 1.7,0.3 z"
   id="path3396" />
		<path
   class="st75"
   d="m 69,238.8 c -4.8,-0.6 -10,1.7 -14.4,-1.9 4,0.1 9.3,-1.3 14.4,1.9 z"
   id="path3398" />
		<path
   class="st43"
   d="m 754.6,267.3 c 1.5,11.2 -14.6,15.3 -24.3,12.2 -0.1,-2.4 -0.1,-3.6 0,-8.1 8.1,-1.5 16.2,-2.8 24.3,-4.1 z"
   id="path3400" />
		<path
   class="st152"
   d="m 622.8,319.9 c 0.7,-1.3 1.4,-2.7 2,-4 8.1,0.7 15.8,6.3 24.3,2 0,0.7 0,1.4 0,2 5.3,11 -22.5,4.6 -26.3,0 z"
   id="path3402" />
		<path
   class="st153"
   d="m 649.2,322 c 0,-0.7 0,-1.4 0,-2.1 7.5,-2.3 17.7,-3.8 26.4,-6.1 0.9,9.9 -19.2,13.1 -26.4,8.2 z"
   id="path3404" />
		<path
   class="st154"
   d="m 673.5,317.9 c 0.7,-1.4 1.4,-2.7 2,-4.1 0.7,0 1.3,0 2,0 0.1,5.8 1,11.8 -3.9,16.4 -5.1,-1.1 -1,-7.8 -0.1,-12.3 z"
   id="path3406" />
		<path
   class="st155"
   d="m 787.1,465.9 c 0,-73.7 0.1,-147.4 0.1,-221 17.5,23.9 -9.8,238.1 13.7,220.3 7.3,-73.7 -5,-153.2 4.5,-226.4 0.7,0 1.3,0 2,0 15.2,3.6 12.4,24.1 8.5,36.6 -8,-2 -3.1,-14.4 -4.6,-21.7 6.3,65.6 2.6,131.2 -0.1,196.8 1.4,-16.8 -2.3,-49.7 5.2,-47 9.2,82.7 -6.9,57.3 -8.9,68.4 -6.9,0.9 -13.5,-0.9 -20.2,-2.1 -0.1,-1.2 -0.2,-2.5 -0.2,-3.9 z"
   id="path3408" />
		<path
   class="st156"
   d="m 805.4,238.8 c 0,2 0,4.1 0,6.1 -5.7,4.2 -6.3,0.1 -18.2,0 0,-3.3 0.1,-6.7 0.1,-10 6,1.3 12.1,2.6 18.1,3.9 z"
   id="path3410" />
		<path
   class="st12"
   d="m 815.6,244.9 c -1.2,-4 -9.8,1.9 -8.2,-6.1 4.2,2.1 16.3,-5.1 18.3,2.1 -6.5,-1.8 -3.8,5.4 -10.1,4 z"
   id="path3412" />
		<path
   class="st157"
   d="m 718.2,291.6 c -7.3,0.3 -12.5,-2.2 -13.9,-10 7.4,0.2 26.7,-1 24.1,10.1 0,0 0,0 0,0 -3.4,1.3 -6.8,1.4 -10.2,-0.1 z"
   id="path3414" />
		<path
   class="st158"
   d="m 752.7,285.5 c 0,0.6 0,1.3 -0.1,1.9 -7.6,0.4 -14.3,5.5 -22.3,4.2 1.8,-2.7 1.8,-5.4 0,-8.2 5.4,-3.2 27.9,-10.2 22.4,2.1 z"
   id="path3416" />
		<path
   class="st159"
   d="m 752.7,285.5 c 0.4,-11 -14.5,0.4 -22.3,-2.1 0,-1.3 0,-2.7 0,-4 7.4,-1.4 14.8,-2.7 22.2,-4.1 1.5,3.4 4,6.7 0.1,10.2 z"
   id="path3418" />
		<path
   class="st160"
   d="m 706,532.8 c 0,-79.1 0,-158.2 0,-237.2 2.7,-1 5.4,-3.7 8.1,0 -6.6,79 7.8,252 -8.1,237.2 z"
   id="path3420" />
		<path
   class="st161"
   d="m 710,532.8 c 1.8,-253.7 -5.6,-236.1 8.1,-237.2 2.9,1.5 17.5,3.6 8.1,9.9 -23.3,-7.1 -6.5,100.6 -11.2,111.2 3.5,115.9 -10.2,104.4 13.6,113.6 6.8,6.6 -17.7,11.4 -18.6,2.5 z"
   id="path3422" />
		<path
   class="st162"
   d="m 722.2,297.6 c -1.7,-0.1 -3.2,-0.4 -4.1,-2 3.4,0 6.8,0 10.2,0 0.1,0.6 0.1,1.3 0.1,1.9 -2,1.6 -4.1,1.5 -6.2,0.1 z"
   id="path3424" />
		<path
   class="st162"
   d="m 718.2,291.6 c 3.4,0 6.8,0.1 10.2,0.1 0,0.6 0,1.3 -0.1,1.9 -3.4,-0.5 -7.3,1.3 -10.1,-2 z"
   id="path3426" />
		<path
   class="st41"
   d="m 730.3,297.7 c 6.8,-1.4 13.5,-2.7 20.3,-4.1 -0.1,79.3 0.2,159.4 -0.1,239.2 -6.4,3 -13.5,2.4 -20.2,4.1 -2.1,-2.5 -0.1,-7 5,-8.3 1.6,-6.6 5.3,-5.9 9.7,-3 0.3,-72.3 3.4,-148.5 -1.1,-220.5 -3.4,-0.9 -15.4,-0.2 -13.6,-7.4 z"
   id="path3428" />
		<path
   class="st163"
   d="m 807.4,484.2 c 7.5,0.6 14.9,-0.5 22.3,-2 -2,10 -13.8,4.8 -22.3,8.1 0,-2.1 0,-4.1 0,-6.1 z"
   id="path3430" />
		<path
   class="st107"
   d="m 805.3,490.2 c 0.7,0 1.4,0 2.1,0.1 0,1.4 0,2.7 0,4.1 -8.8,-1.4 -17.5,-2.7 -26.3,-4.1 0.7,-1.4 1.4,-2.8 2.1,-4.2 5.8,-0.4 15,0.5 22.1,4.1 z"
   id="path3432" />
		<path
   class="st164"
   d="m 754.6,539 c -2.7,9.1 -15.2,9.6 -23.5,9 -1.6,-1.3 -3.5,-3.8 -0.7,-7.1 8.2,1.8 15.9,-4.2 24.2,-1.9 z"
   id="path3434" />
		<path
   class="st165"
   d="m 730.3,540.9 c 0,0.7 0,1.4 0,2.1 -8.8,1 -17.1,-0.4 -24.3,-6.1 0,-1.4 0,-2.7 0,-4.1 1.3,0 2.7,0 4,0 4.5,2.7 11.5,3.9 18.3,2 v 0 c 0.7,-0.9 1.3,-0.9 2,0 0,0.8 0,3 0,6.1 z"
   id="path3436" />
		<path
   class="st35"
   d="m 730.3,555.1 c -11.2,-7.2 28.4,-14.2 22.3,-4 -7.2,2.5 -14.6,4.2 -22.3,4 z"
   id="path3438" />
		<path
   class="st69"
   d="m 752.7,551.1 c -0.7,-6.5 -18.9,-1.2 -24.1,-0.1 0.3,0.5 -4.2,-4.6 1.7,-4.1 7.4,-1.3 14.9,-2.7 22.3,-4 1.4,2.5 2.5,5.1 2.1,8.1 -0.7,0.1 -1.4,0.1 -2,0.1 z"
   id="path3440" />
		<path
   class="st166"
   d="m 787.1,472.1 c 6.1,2 12.2,4 18.3,6 -1.9,7.9 -12.9,-0.2 -20.3,0 -1.1,-2.6 -3.2,-5.6 2,-6 z"
   id="path3442" />
		<path
   class="st167"
   d="m 791.2,488.3 c -2.9,0.3 -5.6,-0.6 -8,-2.1 0,-1.6 0.3,-3.1 1.9,-4 5.3,3.5 18.8,-1.7 20.3,8.1 -1.3,0 -2.7,0 -4,0.1 -3.1,-2.6 -7.1,0.2 -10.2,-2.1 z"
   id="path3444" />
		<path
   class="st168"
   d="m 60.9,526.7 c 0.7,-79.2 -1.1,-160.8 0,-239.2 9,78.6 3.3,159.9 2,239.2 -0.7,0 -1.4,0 -2,0 z"
   id="path3446" />
		<path
   class="st19"
   d="m 62.9,526.8 c 1.5,-17.1 -3,-38 2,-54.8 -1.5,17.1 3.2,38.1 -2,54.8 z"
   id="path3448" />
		<path
   class="st169"
   d="m 93.3,526.7 c -6.2,-74.6 -0.2,-160.8 -2,-239.2 8.1,4 2.5,9.2 3.9,17.7 -1.8,75.8 4.2,147.7 -1.9,221.5 z"
   id="path3450" />
		<path
   class="st170"
   d="m 97.4,461.9 c 0,22.3 0,44.6 -0.1,66.9 -0.2,0 0.3,0 -2,0 -1.7,-80 -1.9,-162.9 0,-243.3 5.3,55.7 1.1,118.4 2.1,176.4 z"
   id="path3452" />
		<path
   class="st171"
   d="m 95.3,285.5 c 0,67.6 0,135.2 0,202.7 -0.7,0.9 -1.3,0.9 -2,0 -1.8,-66 3.6,-135.5 -2,-200.7 0,-0.7 0,-1.4 0,-2 1.4,0 2.7,0 4,0 z"
   id="path3454" />
		<path
   class="st172"
   d="m 93.3,488.2 c 0.7,0 1.3,0 2,0 0,12.8 0,25.6 0,38.5 -5.3,-6.4 -0.3,-27.3 -2,-38.5 z"
   id="path3456" />
		<path
   class="st171"
   d="m 91.3,289.5 c 0,8.1 0,16.3 0,24.4 -3.2,-8.1 -3.2,-16.3 0,-24.4 z"
   id="path3458" />
		<path
   class="st173"
   d="m 79.1,265.2 c 40.9,-8.1 13.3,16.5 0,8.1 1.8,-2.7 1.9,-5.4 0,-8.1 z"
   id="path3460" />
		<path
   class="st174"
   d="m 79.2,273.4 c 7.2,1 13.5,-2.8 20.3,-4.1 9,8.9 -15.6,12.8 -22.3,10.2 -2.5,-3.2 1.9,-3.9 2,-6.1 z"
   id="path3462" />
		<path
   class="st175"
   d="m 77.1,263.2 c -0.3,2.8 1,6.5 -2,10.2 -5.7,-7.5 -16.2,-4.3 -24.3,-10.1 0.7,-2 1.3,-4.1 2,-6.1 0.4,-0.2 0.9,-0.4 1.3,-0.6 6.8,4.1 28.1,-2.7 23,6.6 z"
   id="path3464" />
		<path
   class="st138"
   d="m 77.1,279.4 c 7.8,0.5 15.2,-1.2 22.4,-4.1 1.8,0.8 2.9,2 2,4.1 -0.2,0 0.3,0 -2,0 -7.5,-1 -15,5.5 -22.4,0 z"
   id="path3466" />
		<path
   class="st176"
   d="m 101.3,439.6 c 0.1,0.7 0.1,1.3 0.1,2 -5.2,6 1.1,14.3 -4,20.3 0,-7.4 0,-14.8 0,-22.2 1.3,-0.1 2.6,-0.1 3.9,-0.1 z"
   id="path3468" />
		<path
   class="st11"
   d="m 62.9,273.3 c -2.7,-0.6 -5.5,-1.3 -8.2,-1.9 4,-4.5 7.2,-5.3 12.7,1.6 -1.4,1.6 -2.9,1.5 -4.5,0.3 z"
   id="path3470" />
		<path
   class="st175"
   d="m 62.9,273.3 c 1.4,0 2.7,0 4.1,0 1.8,-1.6 4.9,-2.3 8.1,0.1 -4.1,3 -8.2,3 -12.2,-0.1 z"
   id="path3472" />
		<path
   class="st177"
   d="m 823.6,463.8 c -1.3,0.1 -2.7,0.1 -4,0.2 -3.7,-71.6 -1.5,-148.4 0.1,-221.1 0,0 0,0 0,0 6.7,1.7 3.8,7.1 3.8,10.9 0.2,70 0.1,140 0.1,210 z"
   id="path3474" />
		<path
   class="st178"
   d="m 819.7,242.9 c 1.9,72.9 0.3,147.4 -0.1,221.1 -0.7,0.6 -1.3,1.3 -2,1.9 -2.5,-72.9 -5.9,-147.7 0,-221 0.7,-0.7 1.4,-1.3 2.1,-2 z"
   id="path3476" />
		<path
   class="st179"
   d="m 817.6,244.9 c 0,73.7 0,147.3 0,221 -0.7,0 -1.3,0 -2,0 0,-21 0,-41.9 -0.1,-62.9 -3.7,-40.3 -3.6,-86.8 0,-127.7 0,-10.1 0,-20.3 0.1,-30.4 0.6,0 1.3,0 2,0 z"
   id="path3478" />
		<path
   class="st180"
   d="m 79.1,549.1 c -5,-8.2 16.7,-9.2 22.4,-8.1 5,9.7 -15.7,12.1 -22.4,8.1 z"
   id="path3480" />
		<path
   class="st181"
   d="m 101.4,540.9 c -7.4,1.3 -14.9,2.7 -22.3,4 -0.7,-2 -1.3,-4 -2,-6 7.8,2 23.8,-5.2 24.3,2 z"
   id="path3482" />
		<path
   class="st182"
   d="m 52.8,547 c 7.6,-1.2 14.7,2.8 22.3,2 -6.2,6.6 -15.7,5.8 -22.3,-2 z"
   id="path3484" />
		<path
   class="st181"
   d="m 79.1,549.1 c 7.6,1.2 14.8,-2 22.3,-2 -1,6.8 -15.7,6.3 -22.3,6 0,-1.4 0,-2.7 0,-4 z"
   id="path3486" />
		<path
   class="st183"
   d="m 101.4,549.1 c -0.2,-3.7 -2.7,-7.3 4,-12.1 0.6,2.8 0.4,22.2 -4,12.1 z"
   id="path3488" />
		<path
   class="st75"
   d="m 42.6,263.1 c 0,10.2 0,20.4 0,30.5 -3.2,-10.1 -3.2,-20.3 0,-30.5 z"
   id="path3490" />
		<path
   class="st75"
   d="m 42.6,295.6 c 0,3.4 0,6.8 0,10.3 -2.9,-3.5 -2.9,-6.9 0,-10.3 z"
   id="path3492" />
		<path
   class="st184"
   d="m 46.6,315.9 c -0.1,-13.7 -1.7,-29 0.1,-44.6 v 0 c 0.7,-0.9 1.3,-1 2,0 3.2,38.4 5.5,151.3 -2.1,144 -1.3,-32.5 -2,-66.3 0,-99.4 z"
   id="path3494" />
		<path
   class="st75"
   d="m 46.6,315.9 c 0,33.1 -0.1,66.3 -0.1,99.4 -0.6,0 -1.3,-0.1 -1.9,-0.1 1.7,-31.9 -3.3,-67.8 2,-99.3 z"
   id="path3496" />
		<path
   class="st185"
   d="m 75.1,273.3 c -6.4,2.4 -12.9,-5.9 -20.3,-2.1 -0.2,0 0.3,0.1 -2,0 -1.5,-2.4 -2.5,-5 -2.1,-8 6.5,2.3 25.2,-2.2 24.4,10.1 z"
   id="path3498" />
		<path
   class="st2"
   d="m 172.5,459.8 c -0.7,0 -1.4,0 -2,0 -5.7,-53.1 -5.6,-178.7 1.9,-174.4 0,58.2 0,116.3 0.1,174.4 z"
   id="path3500" />
		<path
   class="st186"
   d="m 318.5,311.8 c 3.3,-0.3 15.2,-5.5 13.2,3.3 -14.8,8.3 -33,17.5 -51.8,8.9 -10.1,-15.6 20.9,2.8 26.5,-10.9 4,-1 8.3,1 12.1,-1.3 z"
   id="path3502" />
		<path
   class="st187"
   d="m 172.3,285.4 c -1.5,0.9 -1.9,2.3 -2,4 -5.6,4.7 -31.6,12.1 -23.9,-2.8 7.4,-3.9 16.7,-6.2 26.1,-5.2 0,1.4 -0.1,2.7 -0.2,4 z"
   id="path3504" />
		<path
   class="st188"
   d="m 280,317.8 c -0.7,0.7 -1.5,1.4 -2.2,2.2 -7.8,-7.4 -2.5,-17.6 -4,-28.3 2.7,8.5 4,16.8 6.2,26.1 z"
   id="path3506" />
		<path
   class="st189"
   d="m 304.1,596 c -0.6,1.9 -16,-3 -20.1,-4.4 1.4,-201.6 -4.1,-263.3 1.1,-263.6 5.6,-0.4 9.2,2.2 19.2,4.1 5.1,13.2 1.3,248.5 -1.2,261.9"
   id="path3508" />
		<path
   class="st190"
   d="m 328.6,591.6 c -7.1,6 -16.5,2.7 -24.3,6.1 -0.2,-0.2 -1,-0.9 -0.1,-2.1 v 0 c 9.4,-18.8 19.4,-0.7 17.3,-25 -1.2,-78.8 2.4,-155.1 -1.3,-232.7 -2,-1.7 -14.3,5.2 -15.9,-7.9 0,-0.6 0,-1.3 -0.1,-1.9 11,-5.6 28.3,-6.1 24.4,11.1 0.1,85.3 0.1,167.3 0,252.4 z"
   id="path3510" />
		<path
   class="st191"
   d="m 314.5,585.6 c 1,7.9 -8.4,5.1 -10.3,10 0,-17.6 0,-35.1 0,-52.7 -7.7,-24.7 -0.8,-56.6 -3,-83.5 1.7,-34.9 -3.7,-75 3,-86.8 0,-13 0,-28.6 0,-42.6 14.2,17.9 4.3,57.1 7.1,76.1 2.1,70.4 -4.4,174.3 3.3,173.2 1.5,2.2 1.5,4.3 -0.1,6.3 z"
   id="path3512" />
		<path
   class="st192"
   d="m 304.3,595.7 c 0,1 0.1,-0.4 0,4.1 -0.2,8.3 -21.7,2.2 -26.3,-1.9 1.1,-2.2 4.3,-3.1 4,-6.2 6.5,0.4 13.6,7.1 22.3,4 z"
   id="path3514" />
		<path
   class="st193"
   d="m 148.1,287.5 c -7.1,13.4 22.1,-1 20.8,8.2 2.1,87.7 -1,167 -0.5,251.4 -0.9,4.5 -25.9,14.1 -19.9,1.2 23.1,-7.3 11.3,-39.2 14.9,-59.8 -0.2,-61.1 0.3,-120.1 -0.1,-181.3 2.8,-7.9 -33.1,-9.4 -40.3,-15.4 -13,-6 1.6,-13.2 10.8,-7.8 8,2.9 8.2,-5 15.2,-5.5 9.8,-0.9 5.2,6.8 -0.9,9 z"
   id="path3516" />
		<path
   class="st194"
   d="m 168.4,459.9 c -1.7,-185.2 7,-164.7 -14.2,-166.3 5,-3 10.5,-3.9 16.1,-4.2 0,56.8 0.1,113.6 0.1,170.5 -0.7,-0.1 -1.3,-0.1 -2,0 z"
   id="path3518" />
		<path
   class="st195"
   d="m 304.1,617.9 c 0.1,1.4 0.2,2.7 0.3,4.1 -8.5,-3.7 -18.7,0.5 -26.5,-6 0,-0.7 0.1,-1.4 0.1,-2.1 6.4,-3 19.7,-0.9 26.1,4 z"
   id="path3520" />
		<path
   class="st63"
   d="m 146,573.3 c 0.2,-5.4 2.5,-10.7 0,-16.1 6.5,-3.4 13.3,-4.2 20.4,-2.2 10.4,-4.7 1.9,6.8 6,12.2 -8,5.6 -17.7,3.8 -26.4,6.1 z"
   id="path3522" />
		<path
   class="st196"
   d="m 166.4,555.1 c -6.6,2.6 -13.5,2.1 -20.4,2.2 -2.3,-1.4 -0.1,-2.8 0,-4.1 0.6,-0.7 1.3,-0.7 2,-0.1 5.4,-1.3 10.7,-2.5 16.3,-1.9 0.7,1.2 1.4,2.5 2.1,3.9 z"
   id="path3524" />
		<path
   class="st197"
   d="m 133.9,575.4 c 2.3,-3.2 6.6,-1.7 12.1,-2.1 0,1.4 0.1,2.7 0.1,4.1 -4.1,-0.7 -8.1,-1.3 -12.2,-2 z"
   id="path3526" />
		<path
   class="st198"
   d="m 278.1,597.8 c 8.8,0.6 17.2,4.4 26.2,4 10.6,12.1 -26.9,10.6 -26.2,-4 z"
   id="path3528" />
		<path
   class="st111"
   d="m 280,603.8 c 8,1.7 15.9,4.3 24.3,4.1 1.1,1.3 1.2,2.7 0.5,4.2 -7,4 -17.3,-3.8 -24.7,1.8 -0.7,0 -1.3,0 -2,0 -0.5,-3.6 0,-7 1.9,-10.1 z"
   id="path3530" />
		<path
   class="st2"
   d="m 419.9,528.8 c -11.1,-16.1 -2.1,-73.6 -4.9,-85.8 2.4,-41.2 -5.5,-100.6 4.7,-104.9 0.1,63.6 0.2,127.1 0.2,190.7 z"
   id="path3532" />
		<path
   class="st199"
   d="m 419.8,338.1 c -17.9,21 -54.6,5.1 0.2,-4 -0.2,1 0.4,-0.2 -0.2,4 z"
   id="path3534" />
		<path
   class="st200"
   d="m 456.5,313.8 c 2.8,0.3 6,-0.9 8.1,2 -11.5,-0.4 -4.1,25 -6.1,32.5 -0.2,0 0.3,0 -2,0 0,-11.5 0,-23 0,-34.5 z"
   id="path3536" />
		<path
   class="st201"
   d="m 460.5,437 c 1.9,-78.5 -4.4,-110.7 3.4,-114.4 9.9,71.3 3.3,151 2.6,225.1 -10.6,36.5 -4.6,-109.6 -6,-110.7 z"
   id="path3538" />
		<path
   class="st202"
   d="m 478.7,459.7 c -5.2,29.3 -0.3,64.4 -2,95.4 -1.3,0 -2.7,0 -4,0 -1.9,-75.9 -1.9,-154.9 0,-231.1 13.8,4.2 4.2,57.2 6.9,65.2 -2,24.3 3.5,47.3 -0.9,70.5 z"
   id="path3540" />
		<path
   class="st203"
   d="m 472.7,324 c 0,77 0,154.1 0,231.1 -3.9,-74.4 -3.8,-156.4 0,-231.1 z"
   id="path3542" />
		<path
   class="st37"
   d="m 478.7,449.8 c -5.3,-42 -0.3,-88.4 -2,-131.9 10.5,23.2 5.1,128.6 2,131.9 z"
   id="path3544" />
		<path
   class="st200"
   d="m 466.6,315.9 c 3.4,0 6.7,0 10.1,0 0,0.7 0.1,1.3 0.1,2 -3.5,-0.4 -7.3,1.4 -10.2,-2 z"
   id="path3546" />
		<path
   class="st204"
   d="m 490.9,324 c 0.8,-1.9 2,-3.3 4,-4 2.9,70.9 6.9,243.7 -4,233.1 -2.1,-15.9 -0.3,-33.3 0,-50.7 -2.4,-57.1 -2.4,-120.1 0,-178.4 z"
   id="path3548" />
		<path
   class="st205"
   d="m 490.9,324 c 2.3,59.5 3.7,119 0,178.4 -1.3,0 -2.7,0 -4,0 -7.5,-28.4 -0.7,-63.6 -2.9,-94 2.6,-34.3 -6.7,-74.4 6.9,-84.4 z"
   id="path3550" />
		<path
   class="st206"
   d="m 486.9,328 c -1.9,74.3 3.7,151.4 -2.1,225.1 -4.9,-58.5 -9.3,-245.4 1.9,-229.1 0.2,1.4 0.2,2.7 0.2,4 z"
   id="path3552" />
		<path
   class="st207"
   d="m 482.9,449.7 c 5.5,32.7 0.2,71 2,105.4 0,0 -0.1,-0.1 -0.1,-0.1 -5.5,-2.2 -3.5,-3.4 -3.9,-10.1 1.5,-32 -3.5,-64.1 2,-95.2 z"
   id="path3554" />
		<path
   class="st205"
   d="m 490.9,524.7 c 0,9.5 0,18.9 0,28.4 -3.2,-9.4 -3.2,-18.9 0,-28.4 z"
   id="path3556" />
		<path
   class="st200"
   d="m 486.8,324.1 c -1.3,0 -2.6,-0.1 -3.9,-0.1 -6.1,75 5.5,160.8 -4.1,231.2 -0.1,-77.6 -0.1,-157 0,-235.3 2.3,2 6.2,1.2 8,4.2 z"
   id="path3558" />
		<path
   class="st189"
   d="m 628.9,589.6 c 0,-50.7 0,-101.4 0,-152.1 10.9,2.6 2.2,74.3 4.9,79.4 -2,22.7 5,74.3 -4.9,72.7 z"
   id="path3560" />
		<path
   class="st208"
   d="m 626.9,354.4 c 1.8,-6 -4,-13.6 4,-18.2 5.3,1.6 10.6,2.5 16.1,2.1 6.8,5.5 -6.1,17.1 -14.2,9.6 -2.5,1 -1.3,3.7 -4,6.6 -0.6,-0.1 -1.2,-0.1 -1.9,-0.1 z"
   id="path3562" />
		<path
   class="st209"
   d="m 628.9,354.4 c 0.6,-3.4 -1.4,-7.3 2.1,-10.1 5.7,29.6 4,85.5 -0.1,93.2 -0.7,0 -1.3,0 -2,0 0,-27.7 0,-55.4 0,-83.1 z"
   id="path3564" />
		<path
   class="st210"
   d="m 628.9,589.6 c 0.7,0 1.3,0 2,0 2.9,-1.6 3.6,-6.7 6.1,-10.5 15.3,13.7 14.3,23.2 -8.1,14.6 0,-1.3 0,-2.7 0,-4.1 z"
   id="path3566" />
		<path
   class="st211"
   d="m 391.8,346 c 8.6,2.1 15.9,-3.4 24.1,-3.8 1.9,60.3 1.8,123.9 0,184.5 0,29.1 0,58.1 0,87.2 -6.3,6.3 -15.1,3.4 -22.3,6.1 -2.7,-2.9 -3.7,-8.8 0.8,-12.6 13.3,-2 3.5,-141.5 6.5,-142 -2.3,-19.5 8.8,-101 -2.8,-82.5 -4.8,-3.3 -8.8,-31.2 -6.3,-36.9 z"
   id="path3568" />
		<path
   class="st212"
   d="m 415.9,526.8 c 0,-61.5 0,-123 0,-184.5 0.7,-0.7 1.3,-1.4 2,-2.1 0,62.2 0,124.4 0,186.7 -0.7,-0.1 -1.3,-0.1 -2,-0.1 z"
   id="path3570" />
		<path
   class="st93"
   d="m 478.8,555.2 c 1.8,-0.1 3.1,0 6,1.9 -1.3,1.4 -2.7,2.7 -4,4.1 -0.7,0 -1.3,0.1 -2,0.1 0,-2 0,-4.1 0,-6.1 z"
   id="path3572" />
		<path
   class="st213"
   d="m 392.1,627.9 c 5.6,-4.3 31.1,-10.7 27.8,-1.8 -1.9,7.4 -36.5,11.5 -27.8,1.8 z"
   id="path3574" />
		<path
   class="st156"
   d="m 392.1,627.9 c -0.2,0.8 -0.3,1.5 -0.5,2.3 -8.8,5 -25.7,2.2 -26.3,-10.1 9.4,-3 18,0.1 26.4,3.9 0.1,1.3 0.2,2.6 0.4,3.9 z"
   id="path3576" />
		<path
   class="st214"
   d="m 391.6,624 c -9.1,0.7 -17.5,-3.4 -26.4,-3.9 1.4,-1.4 2.7,-2.8 4.1,-4.2 7,-0.1 16.8,-0.7 24.3,4.2 -0.7,1.3 -1.3,2.6 -2,3.9 z"
   id="path3578" />
		<path
   class="st215"
   d="m 399.7,630.2 c 6.7,1.2 14.6,-2.6 22.2,-4.1 -0.6,7.1 -20.3,13.5 -22.2,4.1 z"
   id="path3580" />
		<path
   class="st94"
   d="m 405.8,632.2 c 4.7,-0.7 9.5,-1.4 14.2,-2.1 0,2 0,4 0,6.1 -8.7,1.9 -17.3,4 -26.3,4.1 -9,-9.1 5.6,-6.7 12.1,-8.1 z"
   id="path3582" />
		<path
   class="st125"
   d="m 361.1,640.3 c 1.4,-1.4 2.8,-2.8 4.1,-4.2 8.6,-2 19.7,0.5 28.3,4.2 -0.7,1.3 -1.4,2.7 -2.1,4 -10.3,1 -20,-3.9 -30.3,-4 z"
   id="path3584" />
		<path
   class="st13"
   d="m 673.4,608 c 0,2 0.1,4 0.1,5.9 -8.1,1.3 -15.9,4.7 -24.3,2.1 0,-1.3 -0.1,-2.7 -0.1,-4 7.6,-4.4 15.6,-6 24.3,-4 z"
   id="path3586" />
		<path
   class="st69"
   d="m 673.4,608 c -7.2,1.9 -17.2,4.2 -26.2,3.9 5.3,-7.3 17.1,-8.8 26.4,-8.1 -0.1,1.4 -0.2,2.8 -0.2,4.2 z"
   id="path3588" />
		<path
   class="st13"
   d="m 478.7,575.5 c 0,-0.7 0,-1.4 0.1,-2.1 7.8,-3.6 15.9,-4.7 24.2,-2 0.1,2.2 0.4,4.6 -1.9,6 -7.5,0 -14.7,3.2 -22.3,2.1 0,-1.3 0,-2.7 -0.1,-4 z"
   id="path3590" />
		<path
   class="st13"
   d="m 478.7,565.4 c 4.7,-0.9 10,1.7 14.3,-2.1 3,2.2 10.4,-6.6 10,4 -6.3,4.6 -16.1,5.5 -24.4,4.1 0.1,-2.1 0.1,-4 0.1,-6 z"
   id="path3592" />
		<path
   class="st69"
   d="m 478.9,571.4 c 8.1,-1.4 16.1,-2.7 24.2,-4.1 0,1.4 0,2.8 0,4.2 -8,1.8 -16.1,2.4 -24.2,2 -0.1,-0.8 -0.1,-1.5 0,-2.1 z"
   id="path3594" />
		<path
   class="st13"
   d="m 673.6,603.8 c -7.4,4.9 -16.6,2.7 -24.4,6 0,-1.7 0.1,-2.1 0.1,-8 6.5,-3.4 13.2,-5 20.4,-2.2 1.5,-1.1 8,-0.6 3.9,4.2 z"
   id="path3596" />
		<path
   class="st166"
   d="m 628.9,599.8 c 6.4,0 12.5,1.5 18.3,4 -7.8,9 -29.6,-0.5 -18.3,-4 z"
   id="path3598" />
		<path
   class="st216"
   d="m 635,595.7 c 4.4,-1.4 12.1,3.8 12.1,-6.1 -5.4,-78.2 -5.3,-164.5 0,-243.2 0,-2.1 0,-4.1 0.1,-6.2 2.3,3 12.9,1.9 10.4,8.7 -8.4,89.7 7.1,226.9 -8.4,248.8 -4.8,-0.7 -9.9,1.8 -14.2,-2 z"
   id="path3600" />
		<path
   class="st100"
   d="m 669.5,599.6 c -6.7,1.3 -13.4,2.9 -20.4,2.2 0,-1.4 0,-2.7 0,-4.1 0,0 0,0 0,0 4.2,-2.3 13.8,-5.6 20.2,-2.1 0.2,1.3 0.2,2.7 0.2,4 z"
   id="path3602" />
		<path
   class="st37"
   d="m 484.9,557.1 c -9.8,-5 -1.4,-56.3 -4.1,-62.8 1.9,-57.3 -3.7,-114.9 2.1,-170.3 1.9,76.2 -3.7,155.6 1.9,231 0,0.7 0,1.4 0.1,2.1 z"
   id="path3604" />
		<path
   class="st217"
   d="m 322.6,326 c -5.9,1.9 -14.2,1.6 -20.4,1 -2,-5.7 32.9,-15.1 30.5,-9.2 -1.6,0.9 -1.7,2.6 -1.9,4.2 -2.8,1.3 -5.5,2.7 -8.2,4 z"
   id="path3606" />
		<path
   class="st218"
   d="m 393.6,340.2 c -0.6,1.9 -1.2,3.9 -1.8,5.8 -7,6.8 -15.3,-3.2 -24.5,-3.8 -9.5,-14.1 19.7,-3.1 26.3,-4.1 -0.1,0.7 -0.1,1.4 0,2.1 z"
   id="path3608" />
		<path
   class="st219"
   d="m 367.3,336.1 c -0.7,0.7 -1.4,1.4 -2.1,2.1 -0.7,-1.3 -1.5,-2.7 -2.2,-4 0.7,-3.5 -1.2,-7.5 2.2,-10.4 2.5,2.4 3.2,7.3 2.1,12.3 z"
   id="path3610" />
		<path
   class="st220"
   d="m 332.6,317.8 c -0.6,-0.7 -1.3,-1.3 -1.9,-2 -0.1,-2.2 0.3,-4.6 -2.1,-6.1 5.7,-4.1 3,4.4 6.1,4.1 0.1,1.8 -0.3,3.3 -2.1,4 z"
   id="path3612" />
		<path
   class="st92"
   d="m 379.4,346.3 c 1.2,1.6 6.2,1.1 12.1,0.1 0,7.3 3.6,16.7 0.8,25.8 -3.7,1.8 -3.4,-1.4 -3.9,-1.9 -0.1,75.3 0.4,153.3 -0.2,228.5 -0.9,-0.6 -0.2,-5.7 3.9,-5 4.8,8.8 -0.6,17.4 -0.7,26.1 -7.1,0.4 -13.7,-1 -20.1,-4 1.7,-278.6 -5.8,-269.8 8.1,-269.6 z"
   id="path3614" />
		<path
   class="st158"
   d="m 304.3,612 c 0,-1.4 0,-2.7 0,-4.1 1.3,-2 1.3,-4 0,-6 0,-0.7 0,-1.4 0.1,-2.1 9.8,5.1 18.8,-2.1 28.3,-1.9 0,2.2 0.4,4.5 -1.9,6 -6.1,7.8 -17.2,4.4 -26.1,10.6 -0.2,-0.4 -1.1,-0.6 -0.4,-2.5 z"
   id="path3616" />
		<path
   class="st221"
   d="m 304.3,612 c 0,0.7 0.1,1.3 0.1,2 0.2,0.2 1,1 0,2.2 -0.1,0.6 -0.2,1.2 -0.3,1.8 -8,-1.3 -16,-2.7 -24.1,-4 -0.5,-11.3 16.1,-1.9 24.3,-2 z"
   id="path3618" />
		<path
   class="st13"
   d="m 304.4,616.1 c 0,-0.7 0,-1.4 0,-2.2 2.2,-4.9 33.7,-12.6 26.2,0 -8.6,1.9 -17.3,3.7 -26.2,2.2 z"
   id="path3620" />
		<path
   class="st222"
   d="m 330.6,613.9 c 0.5,-11.2 -16.1,-1.9 -24.3,-2 3,-7.1 17.1,-4.1 24.3,-8.1 1.8,3.1 2.4,6.5 2,10.1 -0.6,0 -1.3,0 -2,0 z"
   id="path3622" />
		<path
   class="st223"
   d="m 393.4,640.1 c -9.7,1 -18.9,-1.7 -28.1,-4 0,-2 0,-3.9 0,-5.9 9.1,-1.1 17.7,0.8 26.2,4 0.6,2 1.2,4 1.9,5.9 z"
   id="path3624" />
		<path
   class="st39"
   d="m 391.5,634.2 c -8.7,-1.3 -17.5,-2.7 -26.2,-4 0.6,-1.4 1.2,-2.7 1.8,-4.1 7.8,3.2 16,4.6 24.4,4.1 0,0.7 0,1.4 0.1,2.1 0.3,0.1 1.3,1.2 -0.1,1.9 z"
   id="path3626" />
		<path
   class="st224"
   d="m 125.7,488.1 c 2.1,-28.9 -10.1,-89.1 2.5,-87 11.2,100.8 -12,135.5 16.2,148.2 -30.1,15.3 -15.2,-45.8 -18.7,-61.2 z"
   id="path3628" />
		<path
   class="st225"
   d="m 121.8,559.2 c 28.1,-8.6 27.8,10.9 0,0 0,0 0,0 0,0 z"
   id="path3630" />
		<path
   class="st226"
   d="m 137.9,551.1 c 2.2,-0.1 4.6,0.4 6.1,-2.1 -0.1,-0.3 -0.9,-0.5 -0.3,-2.2 1.9,-1.1 4.1,0.8 4.3,4.2 0,0.6 0,1.2 0,1.9 -2.8,0 -6.4,1.1 -10.1,-1.8 z"
   id="path3632" />
		<path
   class="st131"
   d="m 671.4,328 c 0.7,0.8 1.5,1.5 2.2,2.3 -0.1,1.3 -0.1,2.6 -0.2,3.8 -5.6,-0.2 -30.7,15.1 -23.2,-3.2 7.1,-1.2 13.5,-6.6 21.2,-2.9 z"
   id="path3634" />
		<path
   class="st227"
   d="m 649.3,338.2 c 8,1.1 23.5,-7.7 20.2,7.3 -0.5,82.8 0.4,166.8 0,250.1 -2,0 -4,0.1 -6,0.1 -3.8,2.5 -8.4,-0.6 -12.2,2 -0.7,0 -1.4,0 -2,0 -2.2,-10.3 14.6,-4.3 15.2,-13.9 0.2,-44.2 0.2,-90.6 0.2,-135.3 -0.8,-34 1.5,-69.3 -0.9,-102 -4.4,-1.6 -16.7,0.3 -16.6,-8.3 0.6,0 1.3,0 2.1,0 z"
   id="path3636" />
		<path
   class="st223"
   d="m 730.3,547 c -7.7,2.2 -24.1,2.7 -24.2,-10 8,2.3 16.6,2.5 24.3,6.1 -0.1,1.2 -0.1,2.6 -0.1,3.9 z"
   id="path3638" />
		<path
   class="st123"
   d="m 728.2,549.1 c 0.5,1.6 0.5,6.4 -4,6 -4.6,-2.8 -17.3,1.7 -18.2,-8 7.8,-2.9 14.9,0.7 22.2,2 z"
   id="path3640" />
		<path
   class="st228"
   d="m 728.2,549.1 c -7.4,-0.7 -14.8,-1.3 -22.2,-2 0.6,-1.4 1.3,-2.7 1.9,-4.1 6.8,1.3 13.6,2.7 20.4,4 0,0.7 0,1.4 -0.1,2.1 z"
   id="path3642" />
		<path
   class="st228"
   d="m 712.1,553.1 c 4.1,0.6 8.6,-1.6 12.2,2 -4.1,-0.6 -8.6,1.6 -12.2,-2 z"
   id="path3644" />
		<path
   class="st157"
   d="m 622.9,320 c 8.8,0.7 17.2,4.4 26.2,4.1 2.5,2.6 2.1,5.3 0.1,8 0,0 0,0 0,0 -8.4,0.5 -16.7,0.1 -24.3,-4 -1.4,-2.6 -2.4,-5.2 -2,-8.1 z"
   id="path3646" />
		<path
   class="st213"
   d="m 478.8,303.7 c 0,-0.7 0,-1.4 0,-2.1 7.9,2.9 26.6,-10 24.3,4.1 -8.1,2 -16.3,4 -24.4,6 0,-2.6 0.1,-5.3 0.1,-8 z"
   id="path3648" />
		<path
   class="st229"
   d="m 730.3,534.8 c -0.7,0 -1.3,0 -2,0 0,-1.4 0,-2.7 0,-4.1 -5.3,-73.1 -5.4,-153.7 0,-227 0.4,-4.5 -4.7,-3.4 -6.1,-6.1 1.6,0.1 2.2,-0.4 8.1,0 10.9,35.7 2.8,79.8 5.1,118 -2.1,48.2 4.9,106.4 -5.1,119.2 z"
   id="path3650" />
		<path
   class="st75"
   d="m 75,246.9 c -0.7,1.4 -1.3,2.7 -2,4.1 -7.2,3.7 -14.2,5.3 -20.3,-2 0,-1.3 0,-2.7 0,-4 7.6,-0.9 14.7,3.2 22.3,1.9 z"
   id="path3652" />
		<path
   class="st139"
   d="m 52.7,249 c 6.4,5.3 29.1,-3.6 24.4,10.1 -0.7,0 -1.4,0 -2,0 -7.1,-4.3 -14.6,-4.5 -22.3,-2.1 0,0 -0.1,0.1 -0.1,0.1 -2.8,-2.7 -2.8,-5.4 0,-8.1 z"
   id="path3654" />
		<path
   class="st230"
   d="m 48.7,271.3 c -0.2,0 0.3,0 -2,0 0,-5.8 -1.8,-14 0.4,-22.1 0.5,0 1.1,0 1.6,0 0,7.3 0,14.7 0,22.1 z"
   id="path3656" />
		<path
   class="st75"
   d="m 46.6,291.6 c 0,5.4 0,10.8 0,16.2 -3,-5.4 -3.1,-10.8 0,-16.2 z"
   id="path3658" />
		<path
   class="st75"
   d="m 46.7,271.3 c 0,4.7 0,9.5 0,14.2 -3.2,-4.8 -3.3,-9.5 0,-14.2 z"
   id="path3660" />
		<path
   class="st75"
   d="m 46.7,253 c 0,4.1 0,8.1 0,12.2 -3.1,-4.1 -3.1,-8.1 0,-12.2 z"
   id="path3662" />
		<path
   class="st231"
   d="m 365.2,326.1 c 0,-0.8 -0.1,-1.5 -0.1,-2.3 9,-1.8 17.4,4.3 26.4,2.2 0,1.4 0,2.7 0,4.1 -9.7,5.2 -18.2,2.4 -26.3,-4 z"
   id="path3664" />
		<path
   class="st232"
   d="m 365.2,326.1 c 8.7,2 17.2,4.9 26.3,4 1.4,2.5 2.3,5 2,7.9 -9.2,5.4 -17.5,-0.6 -26.2,-1.9 -2.1,-3 -2.4,-6.4 -2.1,-10 z"
   id="path3666" />
		<path
   class="st157"
   d="m 146,265.3 c 3.5,15 -18.4,11.6 -26.9,6.3 -6.3,-16.3 18.7,-10.4 26.9,-6.3 z"
   id="path3668" />
		<path
   class="st233"
   d="m 146,265.3 c -7.3,-1.2 -35.9,-0.6 -30.5,-8.1 9.7,-2.7 18.8,4.1 28.4,1.9 0.8,2 1.4,4.1 2.1,6.2 z"
   id="path3670" />
		<path
   class="st152"
   d="m 119.7,271.3 c 7,-0.7 24,7.7 26.4,-4.1 2.4,1.5 2,3.8 2,6.1 -1.6,0.9 -2,2.4 -2,4.1 2.6,5.5 -33.2,3.2 -26.4,-6.1 z"
   id="path3672" />
		<path
   class="st234"
   d="m 77.1,259.1 c 0,-2 0,-4 -0.1,-6.1 6.1,-1 12.6,2 18.3,-2 17.4,4.9 -13.5,8.5 -18.3,12.1 0.1,-1.3 0.1,-2.6 0.1,-4 z"
   id="path3674" />
		<path
   class="st235"
   d="m 146.1,279.4 c 0,-0.7 0,-1.4 0,-2 8.6,3 32.7,-10.3 24.3,4.1 -7,3.7 -14.9,4 -22.3,6 4.1,-4.9 8.4,-8.8 -2,-8.1 z"
   id="path3676" />
		<path
   class="st188"
   d="m 302.2,297.8 c 3.6,2.4 4.7,5.8 4.2,10 0,0 0,0 0,0 -5.9,6.5 -19.2,3.6 -26.3,-2.1 -9.3,-16.3 12.3,-5.5 22.1,-7.9 z"
   id="path3678" />
		<path
   class="st236"
   d="m 280,305.7 c 8.2,-0.4 15.7,7 24.3,2.1 1.4,2.2 1.3,4.3 0.1,6.5 -9.2,1 -18.3,1.2 -26.4,-4.4 0.2,-0.9 0.7,-1.5 2,-4.2 z"
   id="path3680" />
		<path
   class="st220"
   d="m 304.3,313.8 c 0,-2 0,-4 0,-6 0.7,0 1.3,0 2,0 2,7.4 8.1,2.6 12.2,4.1 -3.6,3.7 -8.2,1.3 -12.3,2.1 -0.6,0.5 -1.3,0.5 -1.9,-0.2 z"
   id="path3682" />
		<path
   class="st220"
   d="m 649.2,332.1 c 0,-2.5 -0.2,-5.4 0,-10.1 8.4,0.5 16.6,-0.8 24.4,-4.1 4.9,4.5 -1,6.8 -2.1,10.1 -7.7,0.3 -14.4,5.4 -22.3,4.1 z"
   id="path3684" />
		<path
   class="st237"
   d="m 789.2,244.9 c 1.5,-2.4 3.8,-2 6.1,-2 7.8,18.5 9.8,264.4 -5.2,218.2 0.5,-72.4 0.7,-143.4 -0.9,-216.2 z"
   id="path3686" />
		<path
   class="st189"
   d="m 789.2,267.2 c 8.1,64.2 -4.8,134.9 4.8,199.3 7.3,-74.1 2.9,-148.9 1.2,-223.6 18.8,11.5 -1.8,229.2 10.1,225 -11.3,4 -16.2,1.1 -16.2,-9.8 0.1,-63.6 0.1,-127.2 0.1,-190.9 z"
   id="path3688" />
		<path
   class="st202"
   d="m 805.4,247 c 0,73 0,146 0,218.9 -11.7,8.1 -2,-146.4 -5,-145.4 2.2,-18.9 -5.2,-79.3 5,-73.5 z"
   id="path3690" />
		<path
   class="st238"
   d="m 815.5,275.4 c 0,42.6 0,85.1 0,127.7 -5.3,18.4 0.2,41.2 -4.1,61.5 -0.4,-72.6 2.2,-145.1 -0.5,-217.7 4.9,9.1 -0.1,19.4 4.6,28.5 z"
   id="path3692" />
		<path
   class="st239"
   d="m 805.4,247 c -10.4,13.8 -0.9,72.2 -4,82.4 2.1,44.2 -4.9,138.1 4,136.6 0,0.7 0,1.4 0,2 -13,2 -3.2,-62.6 -6.1,-67.4 0,-52.6 0,-102.9 0,-155.7 2,0 4.1,0 6.1,0 0,0.7 0,1.4 0,2.1 z"
   id="path3694" />
		<path
   class="st209"
   d="m 728.3,303.7 c 0,0.7 0,1.4 0,2 -11.4,71.7 4.7,152.6 -6,225 -14.5,-4.4 -3.8,-92.6 -7,-98.5 1.9,-52.8 -3.8,-111.6 2.9,-128.6 3.3,0.1 6.7,0.1 10.1,0.1 z"
   id="path3696" />
		<path
   class="st240"
   d="m 718.1,303.7 c 0,73.7 0,147.3 0,221 -10.1,20.4 -3.1,-66.6 -5,-69.2 2.7,-43.8 -6,-160.2 5,-151.8 z"
   id="path3698" />
		<path
   class="st241"
   d="m 716.1,303.7 c -6.5,69.9 1.2,149.3 -2.5,218.4 -1,2.7 -1.5,5.7 4.5,2.6 0,1.4 0,2.7 0,4.1 -12.7,13.5 -3.4,-86.4 -6.1,-89.3 2.3,-36.9 -4.9,-143.3 4.1,-135.8 z"
   id="path3700" />
		<path
   class="st237"
   d="m 726.3,305.8 c 0.7,0 1.3,0 2,0 0,75 0,150 0,225 -0.2,0 0.3,0 -2,0 -3.8,-73.1 -3.8,-151.7 0,-225 z"
   id="path3702" />
		<path
   class="st242"
   d="m 726.3,305.8 c 0,75 0,150 0,225 -0.2,0 0.3,0 -2,0 -1.9,-73.9 -1.8,-150.9 0,-225.1 0.6,0 1.3,0 2,0.1 z"
   id="path3704" />
		<path
   class="st237"
   d="m 724.3,305.7 c 0,75 0,150 0,225.1 -0.7,0 -1.4,0 -2,0 1.8,-74.1 -3.7,-151.8 2,-225.1 z"
   id="path3706" />
		<path
   class="st229"
   d="m 728.3,534.9 c -3.4,3.1 -6.8,3 -10.1,0 3.3,0 6.7,0 10.1,0 z"
   id="path3708" />
		<path
   class="st243"
   d="m 732.4,530.8 c 0,-75 0,-150.1 0,-225.1 7.9,-8.4 7.2,11.7 8.8,17.3 -0.7,70 4.7,138.5 -4.7,207.8 -1.4,0 -2.8,0 -4.1,0 z"
   id="path3710" />
		<path
   class="st244"
   d="m 736.4,530.8 c 0.4,-69.2 7.6,-238.3 -4.1,-225.1 -2.4,-1.5 -1.9,-3.8 -2,-6.1 3.9,1.5 7.6,4.2 12.1,2 5.4,73.3 5.4,155.5 0,229.2 -2.7,-1.2 -1.1,-4.7 -3.4,-6.6 -0.8,0.8 0.7,7.9 -2.6,6.6 z"
   id="path3712" />
		<path
   class="st244"
   d="m 742.5,301.6 c 13.3,-15 3.1,124.3 6.1,126.1 -2.5,25.1 6.2,113 -6.1,103.1 3.9,-74.4 3.9,-154.6 0,-229.2 z"
   id="path3714" />
		<path
   class="st48"
   d="m 791.2,488.3 c 3.4,0.4 7.3,-1.4 10.2,2 -3.5,-0.5 -7.3,1.3 -10.2,-2 z"
   id="path3716" />
		<path
   class="st245"
   d="m 121.7,445.5 c 0,-47 0,-94.2 1.7,-141.7 10.5,-2.7 5.4,99.3 2.5,97.2 0,22.3 -0.1,44.7 -0.1,67 -5.3,-6.8 1.3,-15.7 -4.1,-22.5 z"
   id="path3718" />
		<path
   class="st246"
   d="m 52.8,257 c 6.5,-6.7 18,-5.7 22.3,2.1 -7.9,4.5 -15.2,1.9 -22.3,-2.1 z"
   id="path3720" />
		<path
   class="st247"
   d="m 819.7,399 c 0,-41.9 0,-83.8 0,-125.7 3.7,39.2 3.6,86 0,125.7 z"
   id="path3722" />
		<path
   class="st157"
   d="m 304.3,313.8 c 0.6,0 1.2,0.1 1.9,0.1 0.7,13.2 -18,7.6 -26.2,3.9 -1.4,-2.5 -2.3,-5 -2,-7.9 8.7,1.6 17.8,1 26.3,3.9 z"
   id="path3724" />
		<path
   class="st220"
   d="M 328.7,315.9"
   id="path3726" />
		<path
   class="st220"
   d="M 316.5,320"
   id="path3728" />
		<path
   class="st248"
   d="m 304.3,372.7 c -1.6,42.4 4.5,244.7 -7.5,214.8 4.5,-44.7 -5.1,-352.2 7.5,-214.8 z"
   id="path3730" />
		<path
   class="st249"
   d="m 288.6,590.1 c -0.1,-256.7 -6.3,-244.5 0.6,-254.6 8.1,45.2 0.4,99.2 3,146.8 -1.9,37.7 4.2,96.7 -3.6,107.8 z"
   id="path3732" />
		<path
   class="st250"
   d="m 318.6,334.2 c 13.3,-13.4 2.8,128.6 6,130.9 -2.5,31 6.2,129.5 -6,124.5 -5.2,-83.1 -5.8,-172 0,-255.4 z"
   id="path3734" />
		<path
   class="st168"
   d="m 314.4,579.4 c -3.3,2.2 -0.5,6.7 -5.9,11.2 0,-86.2 0,-170.3 0,-254.3 1.9,0 3.9,0 5.8,0 4.2,78.8 3.9,164 0.1,243.1 z"
   id="path3736" />
		<path
   class="st251"
   d="m 314.4,579.4 c 0,-81 -0.1,-162.1 -0.1,-243.1 1.4,-0.7 2.9,-1.4 4.3,-2.1 0,9.4 -0.1,18.9 -0.1,28.3 -2,50.7 -1.9,105.1 0,156.1 0,23.6 0.1,47.3 0.1,70.9 -1.4,-1.3 -2.7,-2.6 -4.1,-4 0,-2 -0.1,-4 -0.1,-6.1 z"
   id="path3738" />
		<path
   class="st252"
   d="m 148,551.1 c -1.6,-0.9 -1.9,-2.4 -2,-4.1 -3.6,-4.7 -3.2,-9.7 -1.5,-14.8 5.1,-1.3 4.4,0.2 6.5,6.7 0.6,-75.3 0.1,-152.2 0.2,-227.6 -8,13.8 -10.5,-9.3 -5.3,-15.7 4.3,4.1 8.7,7 14.3,2.1 10,79.9 -3.3,167.4 4,247.3 -5.1,2.5 -11.8,1.3 -16.2,6.1 z"
   id="path3740" />
		<path
   class="st253"
   d="m 164.3,545 c -6,-0.5 -6.8,-5.9 -6,-10.6 4.2,-78 0.9,-158 2,-236.7 1.3,0 2.6,0 3.9,0 2.1,81.3 4,165.2 0.1,247.3 z"
   id="path3742" />
		<path
   class="st221"
   d="m 146.1,530.8 c 0,5.4 0,10.8 0,16.2 -0.7,0 -1.3,0 -2,0 -13.6,-213.8 -16.9,-237.1 -20.3,-243.3 2.2,4.1 -4.4,-10.5 4.1,-12.2 5.5,3.9 12.7,0.2 18.2,4.1 0,6.7 0,13.5 0.1,20.2 5.3,68.8 5.2,146 -0.1,215 z"
   id="path3744" />
		<path
   class="st105"
   d="m 119.7,275.4 c 8.7,1.7 17.8,0.9 26.3,4 3.6,15.1 -34.4,5.4 -26.3,-4 z"
   id="path3746" />
		<path
   class="st254"
   d="m 166.3,378.8 c -5.3,-24.4 -0.4,-54.9 -2,-81.1 5.6,24.2 0.3,54.9 2,81.1 z"
   id="path3748" />
		<path
   class="st255"
   d="m 127.8,291.5 c -11.3,14 1.6,54.2 -6.1,64.9 0,-22.3 -0.1,-44.6 -0.1,-66.8 2.3,0 4.7,-0.4 6.2,1.9 z"
   id="path3750" />
		<path
   class="st256"
   d="m 119.7,275.4 c -0.4,2.9 0.6,5.5 2.1,8 -0.7,0.7 -1.5,1.5 -2.2,2.2 -6.7,-7.3 -3,-16.3 -3.8,-24.5 4,0.7 8.5,-1.6 12,2 -8.5,-0.9 -8.5,4.2 -8.1,12.3 z"
   id="path3752" />
		<path
   class="st257"
   d="m 633,589.6 c -0.7,0 -1.4,0 -2,0 0,-77.9 0,-156.7 0,-235.2 9.5,4.7 3,15.3 4.9,25.2 -2.3,71.6 4.6,140.2 -2.9,210 z"
   id="path3754" />
		<path
   class="st209"
   d="m 641.1,591.6 c -12.9,-36.2 -3.2,-82.2 -6.1,-122.1 2.9,-46.6 -6.9,-114.9 6.1,-123.2 5.4,79.1 5.3,165.9 0,245.3 z"
   id="path3756" />
		<path
   class="st258"
   d="m 641.1,591.6 c 0,-81.8 0,-163.6 0,-245.3 2,0 4,0 6.1,0 0,44.6 0,89.2 0,133.8 -7.3,-36.3 -2.6,-87.8 -1.7,-127.5 -6.6,77.4 4.7,160.7 -2.4,239 -0.7,0 -1.3,0 -2,0 z"
   id="path3758" />
		<path
   class="st259"
   d="m 633,589.6 c -1.9,-77.5 3.6,-158.5 -2,-235.2 0,-3.4 0,-6.7 0.1,-10.1 7.7,0.6 4.2,11.1 4.9,20.1 -0.9,76.7 1.8,149.6 -1,225.2 -0.3,0 0.3,0 -2,0 z"
   id="path3760" />
		<path
   class="st257"
   d="m 635,589.6 c 0,-81.1 0,-162.2 0,-243.3 3.9,78.4 3.8,164.5 0,243.3 z"
   id="path3762" />
		<path
   class="st260"
   d="m 643.1,591.6 c 0,-80.4 0,-160.7 0,-241.1 0.7,0 1.4,0 2,0 1.8,42.2 -3.6,88 2,129.6 0,36.5 0,73 0,109.4 -1.3,0.8 -2.6,1.4 -4,2.1 z"
   id="path3764" />
		<path
   class="st261"
   d="m 391.5,372.7 c 0,-8.1 0,-16.2 0,-24.4 19.6,70.3 6.6,255.8 1.9,271.6 -0.7,0 -1.4,0 -2.1,0 0,-8.7 0.1,-17.5 0.1,-26.2 -7.9,-32.7 -0.6,-72.4 -3,-107.1 1.8,-42.8 -3.7,-102.6 3.1,-113.9 z"
   id="path3766" />
		<path
   class="st237"
   d="m 395.6,607.9 c 0.3,-398.1 10.7,-265.9 6.2,-18.3 0.8,4.8 -0.3,36.3 -6.2,18.3 z"
   id="path3768" />
		<path
   class="st262"
   d="m 409.9,350.4 c 5.7,83.5 0.1,171.6 1.9,256.6 -0.3,8.3 -7.8,3 -6,-3.1 5.7,-83 -5.6,-172.7 4.1,-253.5 z"
   id="path3770" />
		<path
   class="st263"
   d="m 409.9,350.4 c -7.8,82.5 3.2,170.9 -4.1,253.5 2.3,-144.3 -5.3,-256.1 4.1,-253.5 z"
   id="path3772" />
		<path
   class="st263"
   d="m 401.7,589.6 c 0,-77 0,-154.1 0,-231.1 3.8,74.6 3.7,156.3 0,231.1 z"
   id="path3774" />
		<path
   class="st264"
   d="m 391.7,634.2 c -0.1,-0.6 -0.1,-1.3 -0.1,-1.9 2.7,-0.7 5.4,-1.4 8.1,-2.1 1.5,2.4 3.9,1.9 6.1,2 -4.3,3.8 -9.4,1.4 -14.1,2 z"
   id="path3776" />
		<path
   class="st265"
   d="m 657.1,591.5 c -2,0.8 -3.9,3.4 -5.9,0.1 2.6,-79.9 3.1,-160.6 0.3,-240.8 4.3,-9.8 10.6,2.9 8.6,13.3 -2.6,77.2 5.5,152.9 -3,227.4 z"
   id="path3778" />
		<path
   class="st251"
   d="m 657.1,591.5 c 0.1,-81 -0.1,-163.8 0.2,-245.3 1.3,-0.7 2.7,-1.3 4,-2 5.4,78.8 -5.4,166.2 6,245.2 -2.7,3.8 -6.7,1.7 -10.2,2.1 z"
   id="path3780" />
		<path
   class="st124"
   d="m 651.2,597.7 c 3.6,-3.6 8.1,-1.4 12.2,-2 -3.6,3.6 -8.1,1.4 -12.2,2 z"
   id="path3782" />
		<path
   class="st202"
   d="m 391.5,372.7 c 0,73.7 0,147.3 0,221 -4.8,5.6 0.5,13.2 -4.9,21.2 0,-87.8 0,-173.4 0,-260.3 5.7,5.8 0.2,13.4 4.9,18.1 z"
   id="path3784" />
		<path
   class="st259"
   d="m 379.4,482.9 c -2.5,41.6 4.9,89.8 -2.7,128 -7.2,-78.5 2.2,-168.5 -3.4,-250.5 10.5,-41.4 4.8,121.6 6.1,122.5 z"
   id="path3786" />
		<path
   class="st266"
   d="m 125.8,303.7 c 2.7,-7.6 11.3,-7.6 18.3,0 -8.7,36.3 0.6,79.8 -1.8,118.9 1.2,66.7 -5.6,112.9 1.8,122.4 0,1 0.1,-0.4 0,4.1 -23.1,1.1 -9.6,-52.3 -13,-64.1 0,-58.6 0,-116 0,-174.5 0,0.1 0.1,-0.7 0.1,-0.7 -3.7,27.8 4.6,63.3 -3.3,91.3 -0.7,0 -1.3,0 -2,0 -0.1,-32.5 -0.1,-64.9 -0.1,-97.4 z"
   id="path3788" />
		<path
   class="st267"
   d="m 131.9,301.7 c 5.7,78.9 0.1,163 2,243.3 -13.8,4.1 -2.7,-122 -6.1,-123.8 1.7,-82.3 -4.2,-123.8 4.1,-119.5 -3.3,77.5 0.6,157.7 -1.4,235.8 2.1,-77.6 -1.8,-158 1.4,-235.8 z"
   id="path3790" />
		<path
   class="st268"
   d="m 667.3,589.4 c -10.5,0.2 -4.5,-11.5 -4.9,-19.8 1.5,-89.8 -7.4,-237.4 5,-225.3 0,81.7 0,163.4 -0.1,245.1 z"
   id="path3792" />
		<path
   class="st269"
   d="m 667.4,344.3 c -5.7,1.3 -4.4,7 -3.9,10.9 -2,73.9 3.4,151.1 -2.1,224.3 0,-17.6 -0.1,-35.2 -0.1,-52.8 -1.8,-55.6 -1.7,-114.3 0,-170.2 0,-4.1 0,-8.1 0,-12.2 2.1,-2.5 4.1,-2.9 6.1,0 z"
   id="path3794" />
		<path
   class="st270"
   d="m 742.6,301.7 c 10.1,10 1.1,64.5 4,72.7 -2.1,59.2 4.9,154.2 -4,156.3 0,-76.3 0,-152.6 0,-229 z"
   id="path3796" />
		<path
   class="st271"
   d="m 318.5,518.6 c -3.9,-49.3 -3.7,-106.4 0,-156.1 0,52.1 0,104.1 0,156.1 z"
   id="path3798" />
		<path
   class="st168"
   d="m 150.1,301.7 c 11.1,30 0.5,75.7 4.1,110.6 -2.2,42.7 5,128.8 -4.1,132.8 -3.6,-80.3 -3.7,-162.7 0,-243.4 z"
   id="path3800" />
		<path
   class="st226"
   d="m 150.1,301.7 c 0,81.1 0,162.2 0,243.4 -5.1,-3.7 0.8,-10.5 -4,-14.2 0,-71.7 0,-143.3 0,-215 4.6,-3.8 -0.6,-10.4 4,-14.2 z"
   id="path3802" />
		<path
   class="st272"
   d="m 144,545 c -15,7.5 0.8,-129.9 -3.9,-130.4 1.1,-37.7 -9.4,-119.2 3.9,-110.8 0,80.4 0,160.8 0,241.2 z"
   id="path3804" />
		<path
   class="st273"
   d="m 661.3,356.5 c 0,56.7 0,113.5 0,170.2 -3.7,-54.2 -3.6,-115.7 0,-170.2 z"
   id="path3806" />
		<path
   class="st249"
   d="m 131.9,301.7 c 0,79.5 0,159.1 0,239.4 -3.9,-77.2 -3.8,-161.9 0,-239.4 0,0 0,0 0,0 z"
   id="path3808" />
		<path
   class="st7"
   d="m 519.3,254.9 c 8,-0.2 5.6,5.9 6.2,10.2 -6.3,1.2 -13.4,1.2 -14.4,10 0,0 0.3,0.5 0.3,0.5 -30.1,12 -54.4,42 -87.3,51 C 362.3,319 304.5,298 243.2,283.8 15,225.1 41.2,240.9 40.4,230.8 c 0.1,-5.1 -4.7,-8.8 -3.8,-14.1 506.5,114 328.9,111.7 482.7,38.2 z"
   id="path3810" />
		<path
   class="st6"
   d="m 646.1,292 c 9,5 193.2,-116.6 207.9,-122.2 10.2,0.7 -2.7,17.6 -7.5,19.3 -58.6,48.3 -183.4,119.9 -192.4,122.1 -12.9,3.1 -143,-31.2 -143.3,-35.9 -0.5,-8.3 8.3,-16.3 8.3,-16.3 19,6.5 114,30 127,33 z"
   id="path3812" />
	</g>
	<path
   class="st87"
   d="M 281.2,498.2"
   id="path3816" />
	<path
   class="st0"
   d="M 54.7,452.6"
   id="path3818" />
</g>
<g
   id="Layer_2"
   transform="translate(86.182563,70.644517)"
   style="filter:url(#filter3912)">
	<g
   id="g3825">
		<g
   id="g3823">
			<path
   d="m 115.4,155.3 c -2.2,17.8 -3.8,35.7 -4.8,53.6 2,0 4,0 6,0 -1.2,-17.4 -0.3,-34.9 2.9,-52 -0.5,0.6 -0.9,1.2 -1.4,1.8 -0.4,0.2 0.4,-0.1 0.4,-0.1 0.2,-0.1 0.4,-0.1 0.6,-0.2 0.2,0 0.8,-0.1 0,0 0.2,0 0.4,0 0.6,0 0.2,0 0.4,0 0.5,0 -0.8,0 -0.3,-0.1 0,0 0.1,0 0.6,0.3 0.2,0 -0.5,-0.2 0.1,0 0.1,0.1 0.4,0.3 -0.4,-0.3 -0.1,-0.1 0.1,0.1 0.2,0.2 0.3,0.3 -0.5,-0.4 -0.2,-0.3 0,0 0.1,0.1 0.1,0.3 0.2,0.4 0.2,0.3 -0.2,-0.6 0,-0.1 0,0.2 0.1,0.3 0.1,0.5 0,0.2 0.1,0.3 0.1,0.5 -0.2,-0.8 0,-0.2 0,0.1 0,0.4 0,0.7 0,1.1 0,0.7 0.1,-0.4 0,0 0,0.2 -0.1,0.4 -0.1,0.6 -0.1,0.4 -0.2,0.9 -0.4,1.3 -0.1,0.2 -0.2,0.5 0,0.1 -0.1,0.2 -0.2,0.4 -0.3,0.6 -0.2,0.4 -0.5,0.9 -0.8,1.3 -0.3,0.4 0.1,-0.1 -0.1,0.2 -0.2,0.2 -0.3,0.4 -0.5,0.5 -0.3,0.4 -0.7,0.7 -1.1,1 0.4,-0.3 -0.4,0.3 -0.4,0.3 -0.3,0.2 -0.5,0.3 -0.8,0.5 -2.6,1.6 -1.4,5.4 1.5,5.6 0.5,0 1,0.1 1.4,0.1 -0.5,-0.1 -0.2,0 0.1,0 0.3,0.1 0.5,0.1 0.8,0.2 0.4,0.1 0.8,0.2 1.3,0.4 0.2,0.1 0.4,0.1 0.6,0.2 0.3,0.1 -0.2,-0.1 -0.2,-0.1 0.1,0.1 0.3,0.1 0.4,0.2 0.8,0.4 1.5,0.8 2.1,1.3 0.1,0.1 -0.4,-0.4 0,0 0.1,0.1 0.3,0.3 0.4,0.4 0.3,0.3 0.6,0.6 0.9,0.9 0.1,0.1 0.2,0.3 0.4,0.4 0.4,0.4 -0.3,-0.4 0,0 0.2,0.4 0.5,0.7 0.7,1.1 0.2,0.3 0.4,0.7 0.6,1 0.1,0.2 0.2,0.4 0.3,0.5 0.3,0.6 -0.1,-0.4 0.1,0.1 0.3,0.8 0.6,1.6 0.8,2.5 0.1,0.4 0.2,0.8 0.3,1.2 0,0.2 0.1,0.4 0.1,0.6 0.1,0.7 0,-0.4 0,0.2 0.2,1.9 0.2,3.7 0,5.5 0,0.3 -0.1,0.5 -0.1,0.8 0,0.3 0,-0.2 0,-0.2 0,0.1 0,0.2 -0.1,0.3 -0.1,0.5 -0.2,1 -0.3,1.5 -0.2,0.9 -0.4,1.9 -0.7,2.8 -0.1,0.4 -0.3,0.9 -0.4,1.3 -0.1,0.2 -0.2,0.4 -0.2,0.7 -0.1,0.2 -0.3,0.8 -0.1,0.2 -0.4,0.9 -0.8,1.7 -1.3,2.6 -0.5,0.8 -1,1.6 -1.5,2.4 -0.1,0.2 -0.3,0.4 -0.4,0.6 0.3,-0.4 0.1,-0.1 -0.1,0.1 -0.3,0.4 -0.6,0.7 -1,1.1 -0.4,0.4 -0.7,0.8 -1.1,1.1 -0.2,0.2 -0.4,0.4 -0.6,0.5 -0.1,0.1 -0.7,0.6 -0.4,0.3 0.3,-0.2 -0.3,0.2 -0.4,0.3 -0.2,0.2 -0.4,0.3 -0.7,0.4 -0.4,0.3 -0.9,0.6 -1.4,0.8 -0.2,0.1 -0.5,0.2 -0.7,0.4 -0.1,0.1 -0.8,0.4 -0.5,0.2 0.3,-0.1 -0.4,0.1 -0.5,0.2 -0.3,0.1 -0.5,0.2 -0.8,0.3 -0.5,0.2 -1,0.3 -1.6,0.4 -0.3,0.1 -0.5,0.1 -0.8,0.2 -0.1,0 -0.2,0 -0.4,0.1 -0.5,0.1 0.7,-0.1 0,0 -1.6,0.2 -3,1.3 -3,3 0,1.5 1.4,3.2 3,3 9.8,-1.1 16.8,-8.1 20.1,-17.1 2.9,-7.7 3.1,-17.7 -2,-24.5 -3.2,-4.2 -7.9,-6.4 -13.1,-6.7 0.5,1.9 1,3.7 1.5,5.6 4,-2.4 6.8,-6.4 7.3,-11 0.4,-3.8 -1.3,-8 -5.2,-9.1 -2.1,-0.6 -4.9,-0.2 -6.8,0.9 -1.7,1 -1.7,3.4 -2,5.1 -0.3,1.8 -0.6,3.5 -0.8,5.3 -1,7 -1.7,14.1 -2,21.2 -0.3,7.9 -0.2,15.9 0.3,23.8 0.3,3.8 5.8,3.9 6,0 1,-17.9 2.6,-35.8 4.8,-53.6 0.2,-1.6 -1.5,-3 -3,-3 -1.6,0.1 -2.7,1.5 -2.8,3.1 z"
   id="path3821" />
		</g>
	</g>
	<g
   id="g3831">
		<g
   id="g3829">
			<path
   d="m 143,216.7 c 5,-19 10,-37.9 15,-56.9 -1.9,0 -3.9,0 -5.8,0 4.2,15.9 5.3,32.4 7.3,48.7 0.6,4.8 1.2,9.7 2,14.5 0.3,1.6 2.3,2.5 3.7,2.1 1.7,-0.5 2.4,-2.1 2.1,-3.7 -2.6,-16.6 -3.6,-33.3 -6.4,-49.9 -0.8,-4.5 -1.7,-8.9 -2.8,-13.3 -0.8,-2.9 -5,-2.9 -5.8,0 -5,19 -10,37.9 -15,56.9 -1.1,3.8 4.7,5.4 5.7,1.6 z"
   id="path3827" />
		</g>
	</g>
	<g
   id="g3837">
		<g
   id="g3835">
			<path
   d="m 146.6,186.6 c 2.3,0.1 4.6,0.3 6.8,0.6 0.1,0 0.9,0.1 0.5,0.1 -0.2,0 -0.2,0 0.1,0 0.2,0 0.4,0.1 0.5,0.1 0.5,0.1 1.1,0.2 1.6,0.2 1.1,0.2 2.3,0.4 3.4,0.6 1.5,0.3 3.3,-0.4 3.7,-2.1 0.3,-1.5 -0.5,-3.4 -2.1,-3.7 -4.8,-1 -9.7,-1.6 -14.6,-1.8 -1.6,-0.1 -3.1,1.4 -3,3 0.1,1.7 1.4,2.9 3.1,3 z"
   id="path3833" />
		</g>
	</g>
	<g
   id="g3843">
		<g
   id="g3841">
			<path
   d="m 182.9,226.9 c 2.3,-20.3 4.6,-40.6 7,-60.9 -2,0.3 -3.9,0.5 -5.9,0.8 4.8,17 9.7,33.9 14.5,50.9 1.4,4.9 2.8,9.7 4.1,14.6 0.4,1.4 1.8,2.4 3.3,2.1 1.6,-0.2 2.5,-1.4 2.6,-2.9 1.9,-20.6 3.9,-41.2 5.8,-61.8 0.2,-1.6 -1.5,-3 -3,-3 -1.7,0 -2.8,1.4 -3,3 -1.9,20.6 -3.9,41.2 -5.8,61.8 2,-0.3 3.9,-0.5 5.9,-0.8 -4.8,-17 -9.7,-33.9 -14.5,-50.9 -1.4,-4.9 -2.8,-9.7 -4.1,-14.6 -0.4,-1.4 -1.8,-2.4 -3.3,-2.1 -1.6,0.2 -2.4,1.4 -2.6,2.9 -2.3,20.3 -4.6,40.6 -7,60.9 -0.2,1.6 1.5,3 3,3 1.7,0 2.8,-1.4 3,-3 z"
   id="path3839" />
		</g>
	</g>
	<g
   id="g3849">
		<g
   id="g3847">
			<path
   d="m 228.4,174.1 c -1.2,16.6 -3.5,33.1 -6.8,49.4 -0.9,4.7 -2,9.3 -3.1,14 -0.9,3.8 4.9,5.4 5.8,1.6 4,-16.6 6.9,-33.5 8.8,-50.4 0.5,-4.8 1,-9.6 1.3,-14.5 0.1,-1.6 -1.5,-3 -3,-3 -1.8,-0.1 -2.9,1.2 -3,2.9 z"
   id="path3845" />
		</g>
	</g>
	<g
   id="g3855">
		<g
   id="g3853">
			<path
   d="m 264.8,249.2 c 7.7,-15 13.1,-31.1 18.9,-46.9 1.7,-4.6 3.3,-9.2 5.1,-13.7 -2,-0.3 -3.9,-0.5 -5.9,-0.8 0.3,20.8 0.6,41.7 0.9,62.5 0.1,3.9 6.1,3.9 6,0 -0.3,-20.8 -0.6,-41.7 -0.9,-62.5 0,-1.5 -1.1,-2.8 -2.6,-2.9 -1.6,-0.2 -2.7,0.7 -3.3,2.1 -6,15.6 -11,31.5 -17.6,46.8 -1.8,4.2 -3.7,8.3 -5.8,12.4 -0.7,1.4 -0.4,3.3 1.1,4.1 1.3,0.8 3.3,0.3 4.1,-1.1 z"
   id="path3851" />
		</g>
	</g>
	<g
   id="g3861">
		<g
   id="g3859">
			<path
   d="m 262.5,248.7 c 1.9,0 1.9,-3 0,-3 -2,0 -2,3 0,3 z"
   id="path3857" />
		</g>
	</g>
	<g
   id="g3867">
		<g
   id="g3865">
			<path
   d="m 271.9,215 c 5.8,0.7 11.6,1.5 17.3,2.2 0.8,0.1 1.5,-0.8 1.5,-1.5 0,-0.9 -0.7,-1.4 -1.5,-1.5 -5.8,-0.7 -11.6,-1.5 -17.3,-2.2 -0.8,-0.1 -1.5,0.8 -1.5,1.5 0,0.9 0.7,1.4 1.5,1.5 z"
   id="path3863" />
		</g>
	</g>
	<g
   id="g3873">
		<g
   id="g3871">
			<path
   d="m 318.3,193.9 c -3.2,1.1 -6.1,2.7 -8,5.5 -1.5,2.2 -2,5.1 -1.7,7.7 0.5,6 3.3,11.5 5.3,17.2 0.5,1.5 1,3 1.4,4.6 0.2,0.7 0.4,1.4 0.5,2.1 0.1,0.3 0.1,0.6 0.2,1 0,0.2 0.1,0.4 0.1,0.6 -0.1,-0.4 0,-0.1 0,0.2 0.1,1.6 -0.1,3.2 0.1,4.7 0.1,0.6 0,0.3 0,0.1 0,0.2 0,0.4 0.1,0.6 0,0.4 0.1,0.8 0.1,1.2 0,0.8 0,1.6 -0.1,2.4 0,0.2 0,0.4 -0.1,0.6 0,-0.1 0.1,-0.4 0,-0.1 -0.1,0.4 -0.1,0.8 -0.2,1.2 -0.2,0.8 -0.4,1.5 -0.6,2.3 -0.1,0.3 -0.2,0.6 -0.3,0.9 -0.2,0.6 -0.1,0.2 0,0.1 -0.1,0.2 -0.2,0.3 -0.2,0.5 -0.3,0.7 -0.7,1.3 -1,2 -0.3,0.6 -0.7,1.2 -1.1,1.7 -0.1,0.1 -0.2,0.3 -0.3,0.4 -0.3,0.4 0.3,-0.3 0,0 -0.2,0.3 -0.5,0.6 -0.7,0.9 -0.4,0.4 -0.8,0.9 -1.2,1.3 -0.2,0.2 -0.5,0.4 -0.7,0.6 -0.1,0.1 -0.2,0.2 -0.4,0.3 -0.4,0.4 0.3,-0.2 0,0 -0.5,0.4 -1,0.7 -1.5,1 -0.3,0.1 -0.5,0.3 -0.8,0.4 -0.4,0.2 0.6,-0.2 0.2,-0.1 -0.1,0 -0.3,0.1 -0.4,0.2 -0.3,0.1 -0.5,0.1 -0.8,0.2 -0.1,0 -0.2,0 -0.3,0.1 -0.5,0.2 0.7,0 0.1,0 -0.2,0 -0.4,0 -0.6,0 -0.3,0.1 0.8,0.1 0,0 -0.1,0 -0.2,-0.1 -0.3,-0.1 -0.2,0 0.6,0.3 0.2,0.1 -0.1,-0.1 -0.3,-0.2 -0.5,-0.3 0.3,0.1 0.5,0.4 0.3,0.2 -0.1,-0.1 -0.2,-0.2 -0.3,-0.3 -0.3,-0.1 0.3,0.5 0.2,0.2 0,-0.1 -0.2,-0.2 -0.2,-0.4 -0.4,-0.6 0.1,0.4 -0.1,-0.2 -0.1,-0.3 -0.2,-0.6 -0.2,-0.9 -0.1,-0.3 -0.1,-1 -0.1,-0.3 0,-0.4 -0.1,-0.9 -0.1,-1.3 -0.1,-3.9 -6.1,-3.9 -6,0 0,2.7 0.6,5.7 2.8,7.6 2,1.7 4.7,2 7.1,1.3 5.5,-1.6 9.8,-6.8 12.1,-11.9 1.4,-3.2 2.3,-6.7 2.3,-10.2 0,-0.8 -0.1,-1.6 -0.1,-2.3 0,-0.4 -0.1,-0.7 -0.1,-1.1 0,-0.8 0,-0.1 0,-0.1 0.1,-0.4 0.1,-0.9 0.1,-1.3 0,-1.6 -0.2,-3.3 -0.4,-4.9 -1.1,-6.4 -4.2,-12.2 -6.1,-18.3 -0.2,-0.8 -0.5,-1.5 -0.6,-2.3 -0.1,-0.4 -0.2,-0.8 -0.2,-1.1 0,-0.2 -0.2,-1.2 -0.1,-0.8 0,0.4 0,-0.1 0,-0.2 0,-0.2 0,-0.4 0,-0.6 0,-0.4 0,-0.8 0,-1.1 0,-0.2 0.1,-1.1 0,-0.7 -0.1,0.4 0.1,-0.5 0.1,-0.7 0.1,-0.3 0.2,-0.6 0.3,-0.9 0.1,-0.4 -0.3,0.5 0,0.1 0.1,-0.2 0.2,-0.3 0.2,-0.5 0.1,-0.2 0.6,-0.9 0.4,-0.6 -0.3,0.3 0.1,-0.1 0.1,-0.1 0.1,-0.1 0.3,-0.3 0.4,-0.4 0.1,-0.1 0.2,-0.2 0.4,-0.3 0.5,-0.5 -0.5,0.3 0.2,-0.1 0.3,-0.2 0.7,-0.4 1,-0.6 1,-0.6 1.2,-0.6 2.2,-1 1.5,-0.5 2.5,-2.1 2.1,-3.7 -1,-1.7 -2.7,-2.8 -4.2,-2.3 z"
   id="path3869" />
		</g>
	</g>
	<g
   id="g3879">
		<g
   id="g3877">
			<path
   d="m 242.2,173.8 c -4.2,3.6 -8,8 -10.2,13.1 -1.9,4.3 -2.7,9 -2.3,13.7 0.8,9.5 5.2,18.2 8.8,26.9 1.9,4.5 3.9,9.8 4.9,14.8 0.3,1.6 2.2,2.5 3.7,2.1 1.6,-0.5 2.4,-2.1 2.1,-3.7 -1.9,-9 -6.3,-17.5 -9.6,-25.8 -1.6,-4 -3,-8.1 -3.7,-12.3 0,-0.3 -0.1,-0.5 -0.1,-0.8 -0.1,-0.6 0.1,0.7 0,-0.3 -0.1,-0.5 -0.1,-1 -0.1,-1.6 -0.1,-1 -0.1,-2.1 0,-3.1 0,-0.5 0.1,-0.9 0.1,-1.4 0,-0.1 0.1,-0.8 0,-0.3 0,-0.2 0.1,-0.4 0.1,-0.6 0.2,-1.1 0.5,-2.2 0.8,-3.3 1.6,-5.1 5.5,-9.6 9.7,-13.2 1.2,-1.1 1.1,-3.2 0,-4.2 -1.1,-1.2 -2.9,-1 -4.2,0 z"
   id="path3875" />
		</g>
	</g>
</g>
</svg>
