<?xml version="1.0" encoding="UTF-8" standalone="no"?>
<svg
   xmlns:dc="http://purl.org/dc/elements/1.1/"
   xmlns:cc="http://creativecommons.org/ns#"
   xmlns:rdf="http://www.w3.org/1999/02/22-rdf-syntax-ns#"
   xmlns:svg="http://www.w3.org/2000/svg"
   xmlns="http://www.w3.org/2000/svg"
   xmlns:sodipodi="http://sodipodi.sourceforge.net/DTD/sodipodi-0.dtd"
   xmlns:inkscape="http://www.inkscape.org/namespaces/inkscape"
   version="1.1"
   x="0px"
   y="0px"
   viewBox="0 0 819.18214 867.03687"
   xml:space="preserve"
   id="svg1058"
   sodipodi:docname="kortosglow11111.svg"
   width="819.18213"
   height="867.03687"
   inkscape:version="1.0.1 (3bc2e813f5, 2020-09-07)"><metadata
   id="metadata1064"><rdf:RDF><cc:Work
       rdf:about=""><dc:format>image/svg+xml</dc:format><dc:type
         rdf:resource="http://purl.org/dc/dcmitype/StillImage" /><dc:title></dc:title></cc:Work></rdf:RDF></metadata><defs
   id="defs1062">
	
	
	
<filter
   style="color-interpolation-filters:sRGB"
   inkscape:label="Drop Shadow"
   id="filter1155"><feFlood
     flood-opacity="1"
     flood-color="rgb(255,255,255)"
     result="flood"
     id="feFlood1145" /><feComposite
     in="flood"
     in2="SourceGraphic"
     operator="in"
     result="composite1"
     id="feComposite1147" /><feGaussianBlur
     in="composite1"
     stdDeviation="19.7605"
     result="blur"
     id="feGaussianBlur1149" /><feOffset
     dx="0"
     dy="0.299401"
     result="offset"
     id="feOffset1151" /><feComposite
     in="SourceGraphic"
     in2="offset"
     operator="over"
     result="composite2"
     id="feComposite1153" /></filter>
		
	
		
	
		
	</defs><sodipodi:namedview
   pagecolor="#ffffff"
   bordercolor="#666666"
   borderopacity="1"
   objecttolerance="10"
   gridtolerance="10"
   guidetolerance="10"
   inkscape:pageopacity="0"
   inkscape:pageshadow="2"
   inkscape:window-width="1920"
   inkscape:window-height="1027"
   id="namedview1060"
   showgrid="false"
   inkscape:zoom="1.159201"
   inkscape:cx="183.30645"
   inkscape:cy="264.64927"
   inkscape:window-x="-8"
   inkscape:window-y="-8"
   inkscape:window-maximized="1"
   inkscape:current-layer="svg1058" />
<style
   type="text/css"
   id="style962">
	.st0{display:none;}
	.st1{display:inline;}
	.st2{fill:#82BA46;}
	.st3{fill:#FDFDFD;}
	.st4{fill:#030303;}
	.st5{fill:#FEFEFE;}
	.st6{fill:#FE1C1C;}
	.st7{fill:#FFFFFF;}
	.st8{fill:#070707;}
</style>
<g
   id="Layer_1"
   class="st0"
   transform="translate(62.60333,72.218401)">
	<g
   class="st1"
   id="g968">
		<rect
   x="-1090.6"
   y="-103.9"
   class="st2"
   width="1919"
   height="1079"
   id="rect964" />
		<path
   d="m 827.9,-103.4 v 1078 h -1918 v -1078 h 1918 m 1,-1 h -1920 v 1080 h 1920 z"
   id="path966" />
	</g>
</g>
<g
   id="g1009"
   style="filter:url(#filter1155)"
   transform="translate(62.60333,72.218401)">
			<path
   class="st3"
   d="M 18.5,148 371.9,2.3 c 15.2,-6.3 32.7,1 38.9,16.2 L 624,535.6 c 6.3,15.2 -1,32.7 -16.2,38.9 L 254.4,720.3 c -15.2,6.3 -32.7,-1 -38.9,-16.2 L 2.3,187 C -4,171.7 3.2,154.3 18.5,148 Z m 309,9.4 c 0,0.1 0.1,0.2 0.1,0.3 6,-3 18.7,-4.6 3.5,-12.9 32.3,-5.1 26.7,-35.5 10,-44.6 -31,-4.1 -27,-4.1 -42.7,-23 5.6,34.1 -9.1,28.2 -19.5,45.3 -11.1,27.8 13.9,41.4 35.9,26.6 0.5,9.9 -2.1,15.9 12.7,8.3 z m 55.6,134.7 c 0,0.1 0.1,0.2 0.1,0.3 1.9,-0.6 7.1,-2.7 10.7,-6.2 -1.3,-1.1 -2,-2.7 -7.4,-6.9 30.1,-4.2 29.3,-33 9.3,-43.7 -30.7,-6.3 -26.4,-4.9 -42,-23.7 6.2,33.3 -9.8,29.1 -19.2,45.2 -11.7,28.3 13.9,41.2 35.8,26.8 1.9,5 -5,17.8 12.7,8.2 z m 26.1,84.9 c -0.1,0.6 -0.1,0.5 -0.2,1.1 -33,-3.8 -32.2,30.4 -15.6,41.4 30.5,6.6 28.2,2.5 44.8,23.9 -5.6,-32.1 6.5,-26.7 19.5,-45.5 10,-29.9 -16.5,-40.8 -37.6,-24.1 12.4,-27 -41.2,-4.6 -10.9,3.2 z m 55.2,133.9 c -0.1,0.5 -0.1,0.4 -0.2,1 -30.5,-4.1 -33.7,27.9 -16.7,40.2 29.6,9.2 28.1,1.2 45.7,25.2 -3.2,-29.6 1.7,-25.6 19.2,-44.4 11.6,-29.8 -15.3,-42.5 -37,-25.7 6,-20.9 -10.1,-13.1 -22,-4 2.5,2.9 5.5,5.5 11,7.7 z M 276.1,250.4 c 0.1,-0.7 0.1,-0.6 0.2,-1.3 26.8,1.5 29.3,-27.6 13.6,-38.3 -29,-9.5 -27.3,-2 -43.1,-24.1 5.4,31.8 -9.8,27.5 -18.7,43.5 -9.6,27.5 15.3,38.3 35.2,23.3 -10.5,23.8 36.9,4.2 12.8,-3.1 z m 75.6,221.1 c -0.2,0.8 -0.1,0.7 -0.3,1.6 -27,-1.1 -29.1,27.7 -12.3,38.7 27.6,8.6 26.6,2.5 42.4,23.8 -6,-31.9 9.4,-27 18.3,-43.5 9.7,-26.9 -15.5,-38.5 -35.1,-23.2 10.4,-24.1 -36.8,-4.5 -13,2.6 z m -191.2,-262 c 0.2,-0.5 0.1,-0.4 0.3,-0.9 29.5,8.9 38.4,-23.3 20.1,-38.8 -32,-9.2 -28.1,-1.7 -46.2,-25.2 6.6,33.2 -10.3,28.6 -19.4,45.6 -11.1,28.6 16.9,41.7 37.5,23.4 -5.6,21.3 9.4,13.9 21.8,4.7 -3.2,-3.7 -8.1,-6 -14.1,-8.8 z m 55.2,134 c 0.2,-0.6 0.2,-0.4 0.3,-1 29.5,9 38.3,-23.5 19.9,-38.9 -29.9,-8.7 -29.3,-1.5 -45.8,-25.3 5.9,35.3 -12.1,28.8 -20.3,47.5 -8.7,29.1 18.8,38.2 38,22.1 -6.4,21.6 11.3,12.8 21.9,4.1 -2.3,-3.2 -8.3,-6 -14,-8.5 z m 32.5,101.6 c -0.2,0.6 -0.2,0.4 -0.3,1 -30,-8.8 -38.7,24.2 -20.1,37.9 30.8,11.4 28.3,1.5 46.1,26 -6.6,-33.6 11.6,-29.2 20.4,-46.9 10.4,-28.6 -19.1,-39 -38.2,-22.4 -0.8,-2.1 3.9,-14.6 -2,-14.3 -17.4,5.6 -30.2,9.1 -5.9,18.7 z m 55.5,134.7 c -0.2,0.6 -0.2,0.4 -0.3,1 -30,-8.9 -38.5,24.3 -20,37.8 30.8,11.4 28.3,1.6 46.1,25.9 -6.6,-33.6 11.6,-29.2 20.4,-46.9 10.4,-28.6 -19.1,-38.9 -38.2,-22.4 -0.9,-2.4 4.8,-16.5 -3.6,-13.7 -15.9,5.9 -28,8.5 -4.4,18.3 z M 96.7,275.1 c 21.7,0.2 22.6,-24.4 8.8,-32.3 -21,-6 -22.7,-3 -34.2,-19.2 4.1,26.8 -8.3,22 -15.5,36.2 -7.4,21.2 12.6,30.6 28.4,19.2 0.4,3.2 0.9,6.4 1.3,9.6 6.1,-3 25.3,-3.8 11.2,-13.5 z m 434.4,171.8 c -21.1,-0.4 -22.5,25.2 -8.4,32.6 25.2,5.9 21.6,3.8 34.2,19 -4,-25.7 6.2,-21.1 15.1,-35.5 8.2,-21.9 -12.1,-31.9 -28.7,-19.6 8,-18.5 -27.7,-5.2 -12.2,3.5 z M 82.4,180.6 c -15.6,-28.5 -35.5,-3.4 -25,18.5 15.3,20 33.4,2 25,-18.5 z M 545.9,542 c 16.8,28 35.1,1.4 24.5,-19.7 -16.7,-19.8 -33.2,0.2 -24.5,19.7 z M 47.1,196.8 l -1,0.4 c -5,-20.4 -18.6,-22.6 -8.2,-1.1 8.3,24.7 21.2,24.7 9.2,0.7 z m 541.7,326.1 c -0.1,0.1 -0.4,0.1 -0.5,0.2 -6.2,-23 -20,-21 -6.6,2.2 8,24 19.4,17.5 7.1,-2.4 z"
   id="path971" />
			<path
   class="st4"
   d="m 327.5,157.4 c -9.3,3.7 -13.6,8.2 -12.6,-8.4 -26.1,16.9 -47.1,-3.7 -34.9,-28.5 19.5,-20.4 21.9,-17.3 18.5,-43.4 20,29.1 27,16.3 46.7,25.2 17.7,18.9 9.8,38.5 -14,42.4 7.6,4.5 11.9,8.3 -3.5,12.9 -0.1,0 -0.1,-0.1 -0.2,-0.2 z"
   id="path973" />
			<path
   class="st4"
   d="m 383.1,292.1 c -9.4,2.8 -13.1,10 -12.7,-8.3 -26,16.4 -47.7,-3.2 -34.8,-28.7 18.4,-19.5 22.4,-17.5 18.2,-43.3 21,28.5 21.1,14.9 45.6,25.8 19.2,15.9 11.7,38.3 -12.9,41.6 2,1.6 2.7,1.9 7.4,6.9 -1.9,1 -2.1,3.2 -10.7,6.2 0,0 -0.1,-0.1 -0.1,-0.2 z"
   id="path975" />
			<path
   class="st4"
   d="m 409.2,377 c -29.6,-6.4 22.5,-31.7 10.8,-3.2 26,-19.4 47.9,-0.4 36.6,26.3 -17.4,18.4 -23.2,17.4 -18.5,43.3 -21,-28.9 -23,-15.5 -46.5,-25 -18.2,-16.6 -10,-44.3 17.1,-40.4 0.2,-0.3 0.4,-0.7 0.5,-1 z"
   id="path977" />
			<path
   class="st4"
   d="m 464.4,510.9 c -3.1,-1.4 -7.8,-3.1 -11.1,-7.5 8.3,-6 28.8,-19.7 22,4 27.2,-19.9 48.5,2 35.8,27.7 -21.6,18.7 -19.7,19.6 -17.9,42.3 -21,-29.3 -24,-15.3 -46.6,-25.8 -18.3,-15.7 -8.5,-43.8 17.3,-39.5 0.1,-0.6 0.3,-0.9 0.5,-1.2 z"
   id="path979" />
			<path
   class="st4"
   d="m 276.1,250.4 c 22.8,5.2 -22,28.9 -12.8,2.9 -24.2,17.4 -45,-0.5 -34.3,-25.1 17.4,-19.3 21.4,-16.3 17.8,-41.6 18.7,28.2 27.2,14.5 44.7,25.3 16,14.1 8,38.9 -15.1,37.2 -0.1,0.4 -0.2,0.8 -0.3,1.3 z"
   id="path981" />
			<path
   class="st4"
   d="m 351.9,471.6 c -22.7,-5 21.9,-28.8 12.9,-2.7 24,-17.4 45,0.8 34.2,25.1 -18.5,20.5 -20.9,16.6 -17.4,41.6 -19.9,-27.9 -24.4,-14.2 -44.1,-25 -17.3,-14.3 -9.1,-38.9 14.1,-37.5 0,-0.6 0.2,-1.1 0.3,-1.5 z"
   id="path983" />
			<path
   class="st4"
   d="m 160.4,209.5 c 4,2.2 9.9,4.1 14.1,9.2 -9.6,6.8 -27.6,19 -21.8,-4.7 -24.5,20.6 -48.9,0.9 -36.6,-25.3 17.5,-19.4 23,-18.3 18.6,-43.8 20.8,30.1 29.2,15.9 47.9,26.5 18.2,19.7 2.9,46.1 -21.8,37.6 -0.1,0 -0.2,0.3 -0.4,0.5 z"
   id="path985" />
			<path
   class="st4"
   d="m 215.7,343.5 c 4.6,2.7 9.2,2.9 14.1,8.7 -9.4,7.2 -28.4,19.4 -21.9,-4.1 -25.3,19.9 -48.5,-0.3 -36.3,-25.9 18.5,-19.9 21.7,-18.2 18.5,-43.7 18.9,29.5 29.8,16.5 47.5,26.4 18.3,19.8 3.2,46.2 -21.7,37.7 0,0.3 -0.1,0.6 -0.2,0.9 z"
   id="path987" />
			<path
   class="st4"
   d="m 248.2,445.1 c -17.4,-7.3 -18.6,-10.4 1.2,-17.1 10.9,-5.2 7,3.2 6.7,12.7 23.2,-18.9 48.9,-2.2 37.3,24.4 -17.7,21.1 -24.2,18.4 -19.4,44.9 -20.8,-30.4 -29.5,-14.6 -47.8,-27.3 -18.3,-17.1 -4.2,-45.1 21.6,-36.6 0.1,-0.3 0.2,-0.7 0.4,-1 z"
   id="path989" />
			<path
   class="st4"
   d="m 303.7,579.8 c -17.5,-7.3 -18.5,-10.4 1.3,-17.1 10.7,-5.2 7.1,3.2 6.6,12.6 23.2,-18.8 48.9,-2.2 37.2,24.4 -17.6,21.1 -24.2,18.3 -19.4,44.9 -20.9,-30.5 -29.6,-14.5 -47.8,-27.2 -18.3,-17.1 -4.2,-45.1 21.6,-36.6 0.3,-0.3 0.4,-0.6 0.5,-1 z"
   id="path991" />
			<path
   class="st4"
   d="m 96.7,275.1 c 13.1,9.5 -2.5,9.8 -11.3,13.7 -0.4,-3.2 -0.9,-6.4 -1.3,-9.6 -20.7,13.9 -37.3,-4 -26.4,-23 16.3,-15.3 14.7,-14.4 13.6,-32.5 15.4,21.5 16.7,11.7 35.9,20.3 13.8,10.4 8.2,31.6 -10.5,31.1 z"
   id="path993" />
			<path
   class="st4"
   d="m 531.1,446.9 c -15.6,-8.3 19.8,-22.4 12.1,-3.6 20.2,-14 37.4,1.4 27.7,21.6 -15.7,16.3 -16,13.7 -14,33.4 -15.5,-21.2 -19.7,-12.6 -36,-20 -13.4,-9.5 -9.1,-32.1 10.2,-31.4 z"
   id="path995" />
			<path
   class="st4"
   d="m 82.4,180.6 c 8.8,23.8 -11.8,36.1 -25.1,18.6 -12.4,-33 16.3,-40.3 25.1,-18.6 z m -6.8,2.1 c -0.1,0.1 -0.2,0 -0.4,0.1 -7.8,-15.6 -18.3,-2.7 -10.2,12.7 9.8,11.1 14.9,-2.7 10.6,-12.8 z"
   id="path997" />
			<path
   class="st4"
   d="m 545.9,542 c -9.9,-26.6 14,-36.7 25.5,-17.8 10.4,34 -17.8,36.8 -25.5,17.8 z m 7.1,-3.2 c 10.2,16.1 16.4,-0.1 10.5,-12.8 -9.5,-11.3 -14.7,3.3 -10.5,12.8 z"
   id="path999" />
			<path
   class="st4"
   d="m 47.2,197 c 14.5,38 -9.9,6 -13.3,-9.7 1.4,-15.9 10.2,2.9 12.2,10.3 0.3,-0.3 0.7,-0.5 1.1,-0.6 z"
   id="path1001" />
			<path
   class="st4"
   d="m 588.9,523.2 c 14.8,29.7 -5,15.9 -9.9,-3.7 -10.1,-21.9 7.1,-11.2 9.3,3.8 0.2,0.1 0.4,0 0.6,-0.1 z"
   id="path1003" />
			
			<path
   class="st3"
   d="m 553,538.8 c -4.6,-8.7 2.3,-25.5 11.2,-11.3 4.1,12 -0.5,27.1 -11.2,11.3 z"
   id="path1007" />
		</g><g
   id="g1033"
   style="filter:url(#filter1155)"
   transform="translate(62.60333,72.218401)">
			<path
   class="st5"
   d="m 177,645.8 c 0.1,0 -58.9,-522.9 -62.4,-554.4 -1.8,-40.7 33.1,-33.8 75.2,-40 119.8,-11.1 345.8,-44.6 348.3,-33.9 22.1,15.5 13.7,26.9 16.1,27.8 5.8,51.8 56.2,499.6 61.5,547 5.3,48.1 -40.9,35.5 -135.5,49.3 -282.3,29.3 -293,46 -303.2,4.2 z m 183.8,-359 c -6.7,12.3 -5.3,32 -14,45.7 -28.1,29.2 18.4,35.6 18.9,68.2 0.6,2 3.6,5.6 6,1.4 7.3,-74.1 48.9,-38.8 7.4,-77.5 -9.8,-13.8 -8.1,-37.7 -18.3,-37.8 z M 429,71.4 c -7,10.8 -5.6,28.6 -13.2,41.3 -25.2,26.4 17.3,31.8 17,59.9 0.5,2.1 2.1,5.9 5.5,3.6 7.3,-67.7 43.7,-37.1 7.3,-70.2 C 436.5,94 438.3,71.9 429,71.4 Z m -211.1,78 c 9.8,11.9 23.8,22.7 26.7,40.4 7.6,25.7 4.3,-28.2 29.5,-47.5 -9.1,-9.4 -24.6,-22.5 -26.2,-40.6 -8.3,-35.9 -13.3,35.5 -30,47.7 z m 294.5,386.9 c -9.9,-12.4 -25.5,-24.8 -27.3,-43.3 -7.7,-16.4 -2.1,27.8 -28.7,50.8 10.9,9.5 24,22.5 26.3,40.2 8.3,35.5 12.6,-34.4 29.7,-47.7 z m -187.9,20 c -9,-11.8 -24.1,-23.3 -26.8,-40.3 -7.2,-25.2 -2.9,26.3 -29.3,47.5 11.1,9.8 24.3,22.6 26.6,40.6 8.2,35.2 12.6,-34.5 29.5,-47.8 z M 583.6,494 c -14.3,-12.8 -15.9,-22 -22.4,-33.9 -6.7,36.4 -24.9,37.4 -15.6,43.1 6,3.4 11.1,10.7 13.5,18 9,40.6 12.6,-17.2 24.5,-27.2 z M 146.9,191.6 c 9.7,8.5 16.8,21.9 22.6,34.1 5.6,-35.4 25,-37.6 15.4,-43.1 -5.2,-2.9 -10.1,-9.2 -12.4,-15.3 -11.3,-45.8 -11.9,13.6 -25.6,24.3 z m 429.8,393 c 1.1,3.6 -0.1,5.9 -5.9,5 -7.3,-2.2 -21,12.9 -7.7,10.2 4.2,-7.4 14.8,0.8 20.9,-4.2 1,-3.5 -0.9,-28.4 -8.8,-22.4 -2.3,1.7 -1.3,7.5 -8.4,4.7 -15.9,-9.1 2.7,-23.9 17.8,-7.4 2.8,-0.3 5.4,-4 0.8,-7 -29.1,-26.6 -47.9,25.6 -8.7,21.1 z m -423,-483.5 c -1,-3.7 -0.1,-5.7 6.1,-4.9 4.3,1.1 20.5,-7.9 9.4,-11.2 -5.2,6.4 -16.4,2.3 -22.2,4.6 1.6,44.3 7.2,12.1 19.2,19.6 11.1,16.9 -11.2,15.8 -20.6,6.7 -3.1,0.2 -5.1,3.2 -0.8,6.4 28.9,26.9 48.2,-25.3 8.9,-21.2 z"
   id="path1013" />
			<path
   class="st6"
   d="m 360.8,286.8 c 11.5,2.6 11.2,32.7 19.5,39.8 37.4,31.7 0.4,6.3 -11,77.4 -51.4,-99.1 -35.7,-7.6 -8.5,-117.2 z"
   id="path1015" />
			<path
   class="st6"
   d="m 429,71.4 c 11.2,4.1 9.5,31 19.5,38.5 32.2,18.4 -15.4,28.4 -8.9,61.7 0,1.8 -0.7,6.5 -4.5,5 C 395.3,88 399.5,174.6 429,71.4 Z"
   id="path1017" />
			<path
   class="st6"
   d="m 217.9,149.4 c 11.6,-15.3 18.6,-33.3 20.7,-53.4 8,-17.9 10.6,33 35.4,46.3 -19,23.4 -21.7,28.3 -23.4,53.3 -4.3,7.1 -12.7,-31.9 -32.7,-46.2 z"
   id="path1019" />
			<path
   class="st6"
   d="m 512.4,536.3 c -13.3,18.3 -17.9,33.8 -21.1,55.4 -8.6,11.8 -8,-29.6 -34.4,-49.1 18.2,-21.6 21.8,-27.7 23.2,-52.5 5.1,-4.1 5.3,5 7,10.9 4.4,15.5 15.7,22.5 25.3,35.3 z"
   id="path1021" />
			<path
   class="st6"
   d="m 324.5,556.3 c -13.6,18.4 -17.8,33.9 -21.2,55.5 -8.8,11 -7.6,-29.8 -34.5,-49.4 30.5,-34.6 16.1,-31.4 25.2,-53.2 11.9,27.8 14.9,29.9 30.5,47.1 z"
   id="path1023" />
			<path
   class="st6"
   d="m 583.6,494 c -34.5,68.8 -2.5,40.2 -41.1,6.6 15.6,-24.5 12.3,-16.9 18.5,-40.6 5.7,12.1 11.6,24.6 22.6,34 z"
   id="path1025" />
			<path
   class="st6"
   d="m 146.9,191.6 c 34.7,-69.7 2.7,-38.7 41,-6.6 -14.4,23 -13,16.8 -18.4,40.6 -7.8,-15.7 -9.8,-21.4 -22.6,-34 z"
   id="path1027" />
			<path
   class="st6"
   d="m 576.7,584.6 c -42.6,2.5 -15.5,-48.6 10.5,-19.6 1.8,1.8 0.5,7.5 -4.8,4.2 -11.6,-15.6 -34,2.2 -13,9.3 14.4,-13.6 12.9,-0.2 14.9,15.6 -1.9,8.4 -13.9,-3.3 -22.9,7.1 -10.3,-2.3 4,-14.1 13.8,-11.4 1.8,-0.8 2.4,-2.1 1.5,-5.2 z"
   id="path1029" />
			<path
   class="st6"
   d="m 153.7,101.1 c 38.8,-3.6 20.1,45.1 -7.2,22.7 -5.7,-3.2 -5.6,-11.5 2.9,-6.2 17,17.4 30.1,-11.5 9.4,-9.6 -10.6,17.3 -15,-15.1 -10.5,-19.6 7.6,-0.2 13.5,3.1 20.8,-3.5 16.5,8.5 -19.9,9.5 -15.4,16.2 z"
   id="path1031" />
		</g><g
   id="g1053"
   style="filter:url(#filter1155)"
   transform="translate(62.60333,72.218401)">
			<path
   class="st7"
   d="M 188.4,590.1 267,36.3 C 269.3,20 284.4,8.7 300.7,11 l 378.6,53.7 c 16.3,2.3 27.6,17.4 25.3,33.7 L 626,652.1 c -2.3,16.3 -17.4,27.6 -33.7,25.3 L 213.7,623.7 C 197.4,621.5 186,606.4 188.4,590.1 Z M 458.1,129.6 c -47.8,-15.5 -36,56.1 8.6,32.5 0.6,0.7 0.6,0.7 1.2,1.4 -2.6,9.4 -13.4,10.6 -17.9,19.3 11.1,4.2 27.9,10.2 40.8,5.2 -3.7,-8.2 -19.9,-12.7 -16,-25.4 42.3,40.5 60.6,-29.4 22.1,-31.3 16.7,-43 -47.9,-46.1 -38.8,-1.7 z m -11.7,232.8 c 45.2,39.5 59.3,-30.7 22.4,-31.7 16.8,-42.5 -47.6,-46.5 -38.8,-1.7 -49.1,-13.6 -35.3,53.8 8.7,33 0.5,0.5 0.5,0.6 0.9,1.1 -2.5,9.3 -13.2,10.3 -17.7,18.8 10.8,4.7 30.2,10 40.8,5.4 -3.3,-8.1 -19.8,-12.9 -16.3,-24.9 z m -22.1,164.1 c -0.6,-0.7 -0.6,-0.7 -1.2,-1.4 2.6,-9.4 13.5,-10.6 17.9,-19.3 -11.1,-4.3 -27.9,-10.1 -40.9,-5.3 3.7,8.2 19.9,12.7 16,25.4 -42.3,-40.5 -60.6,29.4 -22.1,31.3 -16.7,42.9 47.7,46.2 38.8,1.9 48.2,15 35.9,-55.2 -8.5,-32.6 z m -137,-396.1 c -34.6,-10.7 -24.8,39.9 6.2,23.7 0.5,0.6 0.5,0.6 1,1.2 -2,5.9 -8.4,6.9 -12.9,13.3 8.1,3.5 18.7,6.3 29.3,4.9 0.3,-0.8 0.3,-0.9 0.5,-1.7 -4,-4 -11.4,-8.1 -12.5,-16.2 35.4,24.2 42,-20.5 17.3,-24 7.2,-31.6 -30.7,-33.9 -28.9,-1.2 z m 287.6,426.1 c -10.4,35.1 36.2,29.3 28.5,1.6 34.6,10.5 26.7,-39.7 -7.6,-23.7 2.5,-7.1 8.5,-7.8 13.4,-14.3 -7.2,-4.4 -20.1,-6.4 -30.3,-5.1 4.3,7 13.3,9.5 12.8,17.6 -37.8,-23.8 -40,24.9 -16.8,23.9 z M 312.1,54.7 c 16.1,2.6 3.2,9.5 -3.8,14.6 3.7,3.5 6.2,3.1 12.7,3.8 2.5,6.1 1.1,16.9 -8.7,12.9 -14.1,-11.9 -23.8,-8.8 -7.3,3.5 33.2,16.1 22.1,-25.4 17.3,-38.1 -8.8,-7.4 -21.8,0.7 -13.8,10.3 2.2,1.1 4.4,-1.3 3.6,-7 z M 579,633.8 c -15.4,-2.6 -4.6,-8.3 3.8,-14.3 -3.6,-4.4 -6.1,-3 -12.9,-4.4 -0.8,-4.3 -3.4,-12.5 5.2,-13.6 4.3,-1.9 22.7,18 18.2,3.5 -1.4,-1.3 -3.5,-3.2 -6.9,-5.7 -32.4,-17.6 -24,25.4 -17.4,37.9 9.7,8.1 23.2,-1.8 12.5,-11.1 -0.5,1.5 -3.4,2.5 -2.5,7.7 z"
   id="path1037" />
			<path
   class="st8"
   d="m 458.1,129.6 c -8.2,-46.1 56,-39.3 38.8,1.9 43.6,7.6 13.3,70.1 -22.1,31.3 -4.2,11.5 10.5,15.7 16,25.4 -71.3,1.4 -26.8,-11.4 -22.9,-24.6 -0.6,-0.7 -0.6,-0.7 -1.2,-1.4 -49.5,22.4 -51.9,-49.5 -8.6,-32.6 z"
   id="path1039" />
			<path
   class="st8"
   d="m 446.4,362.4 c -3.9,11.1 11.2,15.4 16.2,24.9 -71.6,1 -26.5,-11.5 -23.1,-24.2 -0.5,-0.5 -0.5,-0.6 -0.9,-1.1 -49.9,19.8 -52.6,-48.7 -8.7,-33 -7.9,-46.7 56.2,-39 38.8,1.7 42.5,7.3 14.8,69.3 -22.3,31.7 z"
   id="path1041" />
			<path
   class="st8"
   d="m 424.3,526.5 c 50.5,-21.1 51.2,49.6 8.5,32.6 8.2,46.1 -56,39.3 -38.8,-1.9 -43.5,-7.5 -13.4,-70.1 22.1,-31.3 4.2,-11.5 -10.5,-15.7 -16,-25.4 71.5,-1.4 26.7,11.5 23,24.6 0.5,0.7 0.5,0.6 1.2,1.4 z"
   id="path1043" />
			<path
   class="st8"
   d="m 287.3,130.4 c -1.9,-32.3 36.1,-30.8 29.1,1.3 31.2,10.2 9,46 -17.3,24 0.9,6.5 6.1,10.8 12.5,16.2 -0.3,0.8 -0.3,0.9 -0.5,1.7 -8.4,1 -20,-0.5 -29.3,-4.9 2.3,-4.8 9.9,-6.3 12.9,-13.3 -0.5,-0.6 -0.5,-0.6 -1,-1.2 -33.5,15.3 -39.2,-35.1 -6.4,-23.8 z"
   id="path1045" />
			<path
   class="st8"
   d="m 574.9,556.5 c -29.6,-5.3 -12.3,-46.3 17,-24 0.5,-8.1 -8.5,-10.6 -12.8,-17.6 48.1,2.5 26,4 16.9,19.4 39.6,-14.9 37.7,36 7.6,23.7 7.3,28.8 -39.1,32.7 -28.7,-1.5 z"
   id="path1047" />
			<path
   class="st8"
   d="m 312.1,54.7 c 2.2,4.9 -6.1,13 -5.7,0.5 1.7,-14.4 25.2,-4.2 17.7,10.4 14,26.2 -9,36.1 -26.4,18.2 -4.2,-15.2 11.8,3.9 18.4,3.3 15.4,-8.4 2.3,-13.8 -7.9,-17.6 4.3,-3.6 21.2,-12.3 3.9,-14.8 z"
   id="path1049" />
			<path
   class="st8"
   d="m 579,633.8 c -0.1,-2.3 -0.7,-3.8 2.5,-7.5 10.1,8.6 -2,19.1 -12.5,11.1 -19.7,-45.6 9,-50.7 25.3,-30.8 0.4,11.7 -13.6,-5.6 -19.3,-4.9 -7.4,0.6 -8.4,10 -3.9,14.3 4.6,0.5 7.5,-1.1 11.6,3.7 -4.3,3.8 -21.2,11.7 -3.7,14.1 z"
   id="path1051" />
		</g>
</svg>
