<?xml version="1.0" encoding="UTF-8" standalone="no"?>
<svg
   xmlns:dc="http://purl.org/dc/elements/1.1/"
   xmlns:cc="http://creativecommons.org/ns#"
   xmlns:rdf="http://www.w3.org/1999/02/22-rdf-syntax-ns#"
   xmlns:svg="http://www.w3.org/2000/svg"
   xmlns="http://www.w3.org/2000/svg"
   xmlns:sodipodi="http://sodipodi.sourceforge.net/DTD/sodipodi-0.dtd"
   xmlns:inkscape="http://www.inkscape.org/namespaces/inkscape"
   version="1.1"
   id="Layer_1"
   x="0px"
   y="0px"
   viewBox="0 0 1349.2951 1155.8214"
   xml:space="preserve"
   sodipodi:docname="kortos11111111.svg"
   inkscape:version="1.0.1 (3bc2e813f5, 2020-09-07)"
   width="1349.2952"
   height="1155.8214"><metadata
   id="metadata62"><rdf:RDF><cc:Work
       rdf:about=""><dc:format>image/svg+xml</dc:format><dc:type
         rdf:resource="http://purl.org/dc/dcmitype/StillImage" /><dc:title /></cc:Work></rdf:RDF></metadata><defs
   id="defs60"><filter
     style="color-interpolation-filters:sRGB"
     inkscape:label="Drop Shadow"
     id="filter170"
     width="1.2"
     height="1.2"
     x="-0.11"><feFlood
       flood-opacity="0"
       flood-color="rgb(0,0,0)"
       result="flood"
       id="feFlood160" /><feComposite
       in="flood"
       in2="SourceGraphic"
       operator="in"
       result="composite1"
       id="feComposite162" /><feGaussianBlur
       in="composite1"
       stdDeviation="19.7605"
       result="blur"
       id="feGaussianBlur164" /><feOffset
       dx="-7.78443"
       dy="0.299401"
       result="offset"
       id="feOffset166" /><feComposite
       in="SourceGraphic"
       in2="offset"
       operator="over"
       result="fbSourceGraphic"
       id="feComposite168" /><feColorMatrix
       result="fbSourceGraphicAlpha"
       in="fbSourceGraphic"
       values="0 0 0 -1 0 0 0 0 -1 0 0 0 0 -1 0 0 0 0 1 0"
       id="feColorMatrix172" /><feFlood
       id="feFlood174"
       flood-opacity="0.498039"
       flood-color="rgb(0,0,0)"
       result="flood"
       in="fbSourceGraphic" /><feComposite
       in2="fbSourceGraphic"
       id="feComposite176"
       in="flood"
       operator="in"
       result="composite1" /><feGaussianBlur
       id="feGaussianBlur178"
       in="composite1"
       stdDeviation="19.7605"
       result="blur" /><feOffset
       id="feOffset180"
       dx="-7.78443"
       dy="0.299401"
       result="offset" /><feComposite
       in2="offset"
       id="feComposite182"
       in="fbSourceGraphic"
       operator="over"
       result="composite2" /></filter></defs><sodipodi:namedview
   pagecolor="#ffffff"
   bordercolor="#666666"
   borderopacity="1"
   objecttolerance="10"
   gridtolerance="10"
   guidetolerance="10"
   inkscape:pageopacity="0"
   inkscape:pageshadow="2"
   inkscape:window-width="1920"
   inkscape:window-height="1027"
   id="namedview58"
   showgrid="false"
   inkscape:zoom="0.41956137"
   inkscape:cx="1024.8031"
   inkscape:cy="633.45765"
   inkscape:window-x="-8"
   inkscape:window-y="-8"
   inkscape:window-maximized="1"
   inkscape:current-layer="Layer_1"
   fit-margin-top="0"
   fit-margin-left="0"
   fit-margin-right="0"
   fit-margin-bottom="0"
   inkscape:document-rotation="0" />
<style
   type="text/css"
   id="style37">
	.st0{fill:#FEFEFE;}
	.st1{fill:#FE2020;}
</style>

<g
   id="g359"
   transform="rotate(-20,886.79426,-99.450196)"
   style="filter:url(#filter170)"><path
     class="st0"
     d="M 539.6,809.5 H 39 C 17.5,809.5 0,792 0,770.5 V 39 C 0,17.5 17.5,0 39,0 h 500.6 c 21.5,0 39,17.5 39,39 v 731.5 c 0,21.5 -17.5,39 -39,39 z M 175.9,88.9 c -1.8,-2.7 -3.1,-4.8 -4.5,-6.8 C 165,72.7 153,68.8 144.7,73.5 136.1,78.4 125.9,94 129.9,108 c 3.3,11.6 10.6,20.2 18,28.9 8.4,9.9 16.4,20.1 19.2,33.2 0.2,0.8 0.4,1.8 0.9,2.3 1.1,1 2.6,2.5 3.8,2.4 1,-0.1 2.2,-2 2.7,-3.4 0.7,-1.9 0.5,-4.2 1.4,-6 8.4,-17.2 19.3,-32.5 34.6,-44.6 5.1,-4.1 9.7,-9.3 13.4,-14.7 6.4,-9.3 3.4,-25.6 -5.1,-32.6 -9.3,-7.7 -21,-7.2 -30.6,1.7 -4.3,3.8 -7.8,8.5 -12.3,13.7 z M 399,90.3 c -1.9,-2.9 -3.3,-5.1 -4.8,-7.2 -8.1,-11.6 -24.1,-15 -34.1,-1.7 -10.6,14.1 -10.9,28.3 0.8,44.2 11.2,15.2 25.9,28.1 30.1,47.7 0.3,1.2 2.7,2 4.1,2.9 0.8,-1.3 1.9,-2.4 2.4,-3.8 0.7,-1.9 0.6,-4.2 1.5,-6 8.4,-17.3 19.4,-32.5 34.7,-44.5 5.1,-4.1 9.6,-9.3 13.3,-14.8 7.3,-10.6 1.8,-32 -11.9,-36.3 -9.7,-3 -19.5,-0.4 -27.3,8.7 -2.9,3.3 -5.5,6.8 -8.8,10.8 z m -115.4,81.3 c -1.8,-2.7 -3.1,-4.8 -4.5,-6.9 -6.4,-9.4 -18.5,-13.3 -26.7,-8.6 -8.6,5 -18.7,20.5 -14.8,34.5 3.3,11.6 10.7,20.1 18,28.9 8.4,9.9 16.4,20.1 19.2,33.2 0.2,0.8 0.4,1.8 1,2.3 1.1,1 2.6,2.5 3.8,2.4 1,-0.1 2.2,-2.1 2.7,-3.4 0.7,-1.9 0.5,-4.2 1.4,-6 8.4,-17.3 19.3,-32.5 34.6,-44.6 5.1,-4.1 9.7,-9.3 13.4,-14.7 6.4,-9.3 3.4,-25.6 -5.2,-32.6 -9.3,-7.6 -21,-7.2 -30.6,1.7 -4.3,4 -7.8,8.7 -12.3,13.8 z m -110.2,99 c -1.8,-2.7 -3.1,-4.8 -4.5,-6.9 -6.4,-9.4 -18.5,-13.3 -26.7,-8.6 -8.6,5 -18.7,20.5 -14.8,34.5 3.3,11.6 10.7,20.1 18,28.9 8.4,9.9 16.4,20.1 19.2,33.2 0.2,0.8 0.4,1.8 1,2.3 1.1,1 2.6,2.5 3.8,2.4 1,-0.1 2.2,-2.1 2.7,-3.4 0.7,-1.9 0.5,-4.2 1.4,-6 8.4,-17.3 19.3,-32.5 34.6,-44.6 5.1,-4.1 9.7,-9.3 13.4,-14.7 6.4,-9.3 3.4,-25.6 -5.2,-32.6 -9.3,-7.6 -21,-7.2 -30.6,1.7 -4.3,4 -7.8,8.7 -12.3,13.8 z M 399.6,270 c -0.9,-0.5 -1.4,-0.6 -1.6,-0.9 -1.2,-1.7 -2.4,-3.4 -3.5,-5.2 -6.4,-9.5 -18.2,-13.5 -26.6,-9 -10.8,5.8 -17.8,21.8 -15.2,33.8 2.3,10.7 8.8,18.8 15.6,26.7 9.4,11 18.7,22 22,36.6 0.4,1.8 2.8,3.1 4.2,4.6 1,-1.7 2.2,-3.4 3,-5.2 0.5,-1.1 0.3,-2.6 0.9,-3.6 7.5,-13.5 14.4,-27.3 26.4,-37.7 7.8,-6.8 15.4,-14.1 21.8,-22.2 7.9,-10 2.8,-33 -12.9,-37.2 -9,-2.4 -18.7,0.5 -26.1,9.3 -2.8,3.4 -5.4,6.8 -8,10 z M 180.8,538.7 c 1.9,2.8 3.3,4.8 4.7,6.9 8,11.8 22.3,14.1 31.7,5.1 11.6,-11.2 14.1,-28.1 5.3,-41.7 -5.5,-8.3 -12.1,-15.9 -18.3,-23.8 -6.3,-8.1 -11.9,-16.6 -14.3,-26.8 -0.5,-2.1 -2.7,-3.7 -4.2,-5.5 -1.1,1.9 -2.3,3.8 -3.3,5.8 -0.6,1.3 -0.8,2.8 -1.4,4.1 -8.6,17.4 -19.7,32.8 -35.2,44.9 -4.8,3.8 -8.9,8.8 -12.5,13.8 -7.4,10.1 -3.3,33.6 14.2,37.5 10.4,2.3 18.3,-2.1 24.8,-9.6 2.7,-3.3 5.3,-6.7 8.5,-10.7 z m 225.4,0 c 1.9,2.8 3.3,4.8 4.6,6.8 8,11.8 22.3,14.1 31.7,5.2 11.6,-11.2 14.2,-28.1 5.3,-41.7 -5.4,-8.3 -12.1,-15.9 -18.3,-23.8 -6.3,-8.1 -11.9,-16.6 -14.4,-26.8 -0.5,-2.1 -2.7,-3.7 -4.1,-5.6 -1.1,1.9 -2.3,3.8 -3.3,5.7 -0.6,1.3 -0.7,2.8 -1.4,4.1 -8.6,17.4 -19.7,32.8 -35.2,44.9 -4.8,3.8 -8.9,8.8 -12.5,13.8 -7.5,10.3 -3,33.4 13.5,37.4 10.7,2.6 18.7,-1.8 25.4,-9.4 2.9,-3.2 5.5,-6.6 8.7,-10.6 z M 296,637.6 c 2,3.1 3.4,5.2 4.8,7.2 7.6,11.1 21.1,14 30.2,5.8 9.4,-8.6 15.4,-19.5 10.5,-32.4 -3.3,-8.6 -8.3,-16.8 -14,-24 -9.3,-11.8 -19.5,-22.9 -22.8,-38.2 -0.1,-0.6 -0.3,-1.3 -0.8,-1.7 -1,-0.9 -2.5,-2.4 -3.3,-2.1 -1.3,0.5 -2.4,2 -3,3.3 -0.8,1.9 -0.5,4.2 -1.4,6 -8.4,17.2 -19.3,32.5 -34.6,44.6 -5.1,4.1 -9.8,9.2 -13.4,14.7 -8,12.2 -1.7,31.2 11.6,36.3 9.8,3.8 19.8,0.6 27.7,-8.9 2.7,-3.3 5.3,-6.5 8.5,-10.6 z m -115.2,81.6 c 1.9,2.8 3.3,4.8 4.7,6.9 8,11.8 22.3,14.1 31.7,5.1 11.7,-11.2 14.1,-28.1 5.3,-41.7 -5.5,-8.3 -12.1,-15.9 -18.3,-23.8 -6.3,-8.1 -11.9,-16.6 -14.3,-26.8 -0.5,-2.1 -2.7,-3.7 -4.2,-5.5 -1.1,1.9 -2.3,3.8 -3.3,5.8 -0.6,1.3 -0.8,2.8 -1.4,4.1 -8.6,17.5 -19.7,32.8 -35.2,44.9 -4.8,3.8 -8.9,8.8 -12.5,13.8 -7.6,10.4 -2.7,33 13,37.2 9,2.4 18.6,-0.6 26,-9.4 2.7,-3.3 5.3,-6.7 8.5,-10.6 z m 222.9,1.2 c 2,2.9 3.4,5 4.9,7.2 7.5,10.8 20.3,13.4 29.8,6 12.8,-9.9 16.1,-28.6 7.1,-42.8 -4.3,-6.8 -9.7,-13 -14.8,-19.4 -7.9,-9.8 -15.4,-19.7 -18.3,-32.4 -0.4,-1.7 -2.8,-3 -4.3,-4.5 -1,1.6 -2.1,3.2 -2.8,4.9 -0.7,1.5 -0.6,3.3 -1.3,4.7 -8.5,17.2 -19.4,32.5 -34.6,44.6 -5.1,4.1 -9.6,9.3 -13.4,14.7 -7.4,10.5 -2.1,32.4 12.3,36.6 9.6,2.8 19.4,-0.1 27.1,-9.4 2.6,-3.1 5.1,-6.3 8.3,-10.2 z m 116.7,-51.2 c 2.1,2.5 3.5,4.3 5,6 8.2,9.3 18.4,8.8 25.8,-1.2 7.4,-10 7.3,-20.8 -0.6,-31.8 C 542,630.3 530.4,620.3 527,605 c -0.2,-1 -2,-1.9 -3.2,-2.2 -0.5,-0.1 -1.7,1.5 -2.1,2.6 -4.1,12.8 -11.3,23.5 -21.2,32.6 -5.3,4.9 -10.9,9.8 -15.4,15.5 -6,7.5 -4.1,21.1 2.9,26.8 7.8,6.3 18.1,4.9 25.6,-3.4 2.1,-2.3 4.1,-4.7 6.8,-7.7 z M 59.4,140.7 c -1.9,-2.4 -3.4,-4.4 -5,-6.2 -8,-9.2 -18,-8.8 -25.4,0.8 -7.5,9.7 -7.9,19.8 -0.6,30.7 8.5,12.7 21.1,22.8 24.6,38.7 0.2,0.8 1.9,1.9 2.8,1.9 0.8,-0.1 2,-1.4 2.3,-2.4 4.7,-15.5 14.4,-27.4 26.5,-37.7 3.8,-3.2 7.4,-6.8 10.3,-10.8 5.7,-7.9 3.7,-20.9 -3.7,-26.6 -7.4,-5.7 -17.3,-4.4 -24.7,3.4 -2.3,2.4 -4.5,5.1 -7.1,8.2 z m 418.5,588.4 c 0.2,2.2 0.2,4.1 0.5,5.9 1.7,13 9.5,20 21.5,19.4 10.7,-0.5 18.8,-9.6 19.3,-21.6 0.4,-8.9 -2.4,-16.9 -7.3,-24.1 -5.9,-8.7 -16.7,-9.7 -24.2,-2.4 -6.6,6.4 -9.1,14.4 -9.8,22.8 z M 101.9,80.3 c -0.2,-2.3 -0.2,-4.1 -0.5,-6 C 99.7,61.5 92.3,54.7 80.6,55 69.7,55.3 61.5,63.8 60.7,75.8 c -0.6,9 2.2,17.2 7.1,24.6 5.9,8.9 17.1,10.1 24.7,2.5 6.3,-6.2 8.8,-14.2 9.4,-22.6 z m 428.8,648.1 c -0.5,0 -1,0 -1.5,0 0,6 0.1,12.1 0,18.1 -0.1,3.6 0.4,7.1 4.8,7.3 4.4,0.2 5.4,-3.1 5.5,-6.8 0.6,-12.3 1.2,-24.5 1.8,-36.8 0.2,-3.7 -0.6,-7.1 -4.9,-7.3 -4.6,-0.2 -5.6,3.4 -5.6,7.3 -0.1,6.2 -0.1,12.2 -0.1,18.2 z M 49.1,81.1 h 1.6 c 0,-6.3 -0.1,-12.5 0,-18.8 0.1,-3.5 -0.9,-7 -4.7,-6.5 -2.1,0.3 -5.2,3.7 -5.4,5.9 -1.1,12.7 -1.7,25.4 -1.8,38.1 0,2.3 2.7,6.1 4.7,6.5 4.1,0.9 5.6,-2.7 5.6,-6.5 0,-6.2 0,-12.5 0,-18.7 z"
     id="path321" /><path
     class="st1"
     d="m 175.9,88.9 c 4.5,-5.1 8,-9.8 12.3,-13.8 9.6,-8.9 21.3,-9.3 30.6,-1.7 8.5,7.1 11.5,23.3 5.1,32.6 -3.7,5.4 -8.2,10.6 -13.4,14.7 -15.3,12.1 -26.2,27.3 -34.6,44.6 -0.9,1.8 -0.6,4.1 -1.4,6 -0.5,1.4 -1.7,3.3 -2.7,3.4 -1.2,0.1 -2.6,-1.4 -3.8,-2.4 -0.6,-0.5 -0.8,-1.5 -0.9,-2.3 -2.8,-13.1 -10.8,-23.3 -19.2,-33.2 -7.4,-8.7 -14.8,-17.3 -18,-28.9 -4,-14 6.2,-29.6 14.8,-34.5 8.2,-4.7 20.2,-0.8 26.7,8.6 1.4,2.1 2.7,4.2 4.5,6.9 z"
     id="path323" /><path
     class="st1"
     d="m 399,90.3 c 3.3,-4.1 5.9,-7.5 8.7,-10.8 7.7,-9.2 17.6,-11.8 27.3,-8.7 13.8,4.3 19.3,25.7 11.9,36.3 -3.7,5.4 -8.2,10.7 -13.3,14.8 -15.3,12 -26.2,27.3 -34.7,44.5 -0.9,1.8 -0.8,4 -1.5,6 -0.5,1.4 -1.6,2.6 -2.4,3.8 -1.4,-1 -3.8,-1.7 -4.1,-2.9 -4.2,-19.6 -18.9,-32.5 -30.1,-47.7 -11.7,-15.8 -11.5,-30.1 -0.8,-44.2 10.1,-13.4 26.1,-9.9 34.1,1.7 1.6,2.2 3,4.4 4.9,7.2 z"
     id="path325" /><path
     class="st1"
     d="m 283.6,171.6 c 4.5,-5.1 8,-9.8 12.2,-13.7 9.6,-8.9 21.3,-9.4 30.6,-1.7 8.6,7.1 11.5,23.3 5.2,32.6 -3.7,5.4 -8.2,10.7 -13.4,14.7 -15.3,12.1 -26.2,27.3 -34.6,44.6 -0.9,1.8 -0.7,4.1 -1.4,6 -0.5,1.4 -1.6,3.3 -2.7,3.4 -1.2,0.1 -2.6,-1.4 -3.8,-2.4 -0.6,-0.5 -0.8,-1.5 -1,-2.3 -2.8,-13.1 -10.8,-23.3 -19.2,-33.2 -7.4,-8.7 -14.8,-17.3 -18,-28.9 -4,-14 6.1,-29.6 14.8,-34.5 8.2,-4.7 20.2,-0.8 26.7,8.6 1.5,2 2.8,4.1 4.6,6.8 z"
     id="path327" /><path
     class="st1"
     d="m 173.4,270.6 c 4.5,-5.1 8,-9.8 12.2,-13.7 9.6,-8.9 21.3,-9.4 30.6,-1.7 8.6,7.1 11.5,23.3 5.2,32.6 -3.7,5.4 -8.2,10.7 -13.4,14.7 -15.3,12.1 -26.2,27.3 -34.6,44.6 -0.9,1.8 -0.7,4.1 -1.4,6 -0.5,1.4 -1.6,3.3 -2.7,3.4 -1.2,0.1 -2.6,-1.4 -3.8,-2.4 -0.6,-0.5 -0.8,-1.5 -1,-2.3 -2.8,-13.1 -10.8,-23.3 -19.2,-33.2 -7.4,-8.7 -14.8,-17.3 -18,-28.9 -4,-14 6.1,-29.6 14.8,-34.5 8.2,-4.7 20.2,-0.8 26.7,8.6 1.5,2 2.8,4.1 4.6,6.8 z"
     id="path329" /><path
     class="st1"
     d="m 399.6,270 c 2.6,-3.3 5.3,-6.7 8,-10 7.4,-8.8 17.1,-11.7 26.1,-9.3 15.7,4.2 20.8,27.2 12.9,37.2 -6.4,8.1 -14,15.4 -21.8,22.2 -12,10.4 -18.9,24.2 -26.4,37.7 -0.6,1 -0.3,2.5 -0.9,3.6 -0.8,1.8 -2,3.5 -3,5.2 -1.5,-1.5 -3.8,-2.9 -4.2,-4.6 -3.4,-14.7 -12.7,-25.6 -22,-36.6 -6.8,-8 -13.2,-16.1 -15.6,-26.7 -2.6,-12 4.4,-27.9 15.2,-33.8 8.3,-4.5 20.2,-0.5 26.6,9 1.2,1.7 2.3,3.5 3.5,5.2 0.2,0.4 0.6,0.4 1.6,0.9 z"
     id="path331" /><path
     class="st1"
     d="m 180.8,538.7 c -3.2,3.9 -5.8,7.4 -8.6,10.6 -6.6,7.5 -14.4,12 -24.8,9.6 -17.5,-3.9 -21.6,-27.4 -14.2,-37.5 3.7,-5 7.7,-10.1 12.5,-13.8 15.5,-12.1 26.7,-27.4 35.2,-44.9 0.6,-1.3 0.8,-2.8 1.4,-4.1 1,-2 2.2,-3.8 3.3,-5.8 1.4,1.8 3.7,3.5 4.2,5.5 2.5,10.2 8,18.7 14.3,26.8 6.1,7.9 12.8,15.4 18.3,23.8 8.9,13.6 6.4,30.5 -5.3,41.7 -9.3,9 -23.7,6.7 -31.7,-5.1 -1.3,-2 -2.7,-4 -4.6,-6.8 z"
     id="path333" /><path
     class="st1"
     d="m 406.2,538.7 c -3.2,3.9 -5.8,7.4 -8.6,10.6 -6.8,7.7 -14.7,12 -25.4,9.4 -16.6,-4 -21,-27.1 -13.5,-37.4 3.7,-5 7.7,-10.1 12.5,-13.8 15.5,-12.1 26.6,-27.4 35.2,-44.9 0.6,-1.3 0.7,-2.8 1.4,-4.1 1,-2 2.2,-3.8 3.3,-5.7 1.4,1.8 3.6,3.5 4.1,5.6 2.5,10.2 8,18.7 14.4,26.8 6.1,7.9 12.8,15.4 18.3,23.8 8.9,13.6 6.3,30.6 -5.3,41.7 -9.4,9 -23.7,6.6 -31.7,-5.2 -1.4,-2 -2.8,-4 -4.7,-6.8 z"
     id="path335" /><path
     class="st1"
     d="m 296,637.6 c -3.3,4.1 -5.8,7.3 -8.4,10.5 -7.9,9.5 -17.9,12.7 -27.7,8.9 -13.2,-5.2 -19.6,-24.2 -11.6,-36.3 3.6,-5.5 8.2,-10.6 13.4,-14.7 15.3,-12.1 26.1,-27.4 34.6,-44.6 0.9,-1.8 0.6,-4.1 1.4,-6 0.5,-1.3 1.7,-2.9 3,-3.3 0.7,-0.3 2.2,1.3 3.3,2.1 0.4,0.4 0.6,1.1 0.8,1.7 3.3,15.4 13.5,26.4 22.8,38.2 5.7,7.2 10.7,15.5 14,24 4.9,12.9 -1.1,23.8 -10.5,32.4 -9.1,8.3 -22.5,5.3 -30.2,-5.8 -1.5,-1.9 -2.8,-4 -4.9,-7.1 z"
     id="path337" /><path
     class="st1"
     d="m 180.8,719.2 c -3.2,3.9 -5.8,7.3 -8.6,10.6 -7.4,8.8 -17.1,11.8 -26,9.4 -15.6,-4.2 -20.5,-26.8 -13,-37.2 3.7,-5 7.7,-10.1 12.5,-13.8 15.5,-12.1 26.7,-27.4 35.2,-44.9 0.6,-1.3 0.8,-2.8 1.4,-4.1 1,-2 2.2,-3.9 3.3,-5.8 1.4,1.8 3.7,3.5 4.2,5.5 2.5,10.2 8,18.7 14.3,26.8 6.1,7.9 12.8,15.4 18.3,23.8 8.9,13.6 6.4,30.5 -5.3,41.7 -9.3,9 -23.7,6.7 -31.7,-5.1 -1.3,-2.1 -2.7,-4.1 -4.6,-6.9 z"
     id="path339" /><path
     class="st1"
     d="m 403.7,720.4 c -3.1,3.9 -5.7,7.1 -8.3,10.3 -7.7,9.3 -17.5,12.2 -27.1,9.4 -14.4,-4.3 -19.8,-26.1 -12.3,-36.6 3.8,-5.4 8.2,-10.7 13.4,-14.7 15.3,-12.1 26.2,-27.3 34.6,-44.6 0.7,-1.4 0.7,-3.3 1.3,-4.7 0.7,-1.7 1.9,-3.3 2.8,-4.9 1.5,1.5 3.9,2.8 4.3,4.5 2.9,12.7 10.4,22.6 18.3,32.4 5.1,6.3 10.4,12.5 14.8,19.4 9,14.3 5.7,32.9 -7.1,42.8 -9.5,7.4 -22.3,4.8 -29.8,-6 -1.5,-2.2 -3,-4.4 -4.9,-7.3 z"
     id="path341" /><path
     class="st1"
     d="m 520.4,669.2 c -2.6,3 -4.6,5.4 -6.7,7.7 -7.5,8.3 -17.8,9.7 -25.6,3.4 -7,-5.7 -8.9,-19.3 -2.9,-26.8 4.5,-5.7 10,-10.5 15.4,-15.5 9.8,-9.1 17.1,-19.8 21.2,-32.6 0.3,-1 1.6,-2.7 2.1,-2.6 1.2,0.3 3,1.2 3.2,2.2 3.4,15.3 15,25.2 23.6,37.2 8,11 8,21.9 0.6,31.8 -7.4,10 -17.6,10.5 -25.8,1.2 -1.6,-1.7 -3,-3.5 -5.1,-6 z"
     id="path343" /><path
     class="st1"
     d="m 59.4,140.7 c 2.6,-3 4.8,-5.8 7.1,-8.3 7.3,-7.8 17.3,-9.1 24.7,-3.4 7.4,5.7 9.5,18.7 3.7,26.6 -2.9,4 -6.5,7.6 -10.3,10.8 -12.2,10.3 -21.8,22.2 -26.5,37.7 -0.3,1 -1.5,2.3 -2.3,2.4 -0.9,0.1 -2.6,-1 -2.8,-1.9 -3.6,-15.9 -16.1,-26.1 -24.6,-38.7 -7.3,-10.9 -6.9,-21 0.6,-30.7 7.4,-9.6 17.4,-10 25.4,-0.8 1.6,1.9 3.1,3.8 5,6.3 z"
     id="path345" /><path
     class="st1"
     d="m 477.9,729.1 c 0.6,-8.5 3.2,-16.5 9.7,-22.8 7.5,-7.3 18.3,-6.3 24.2,2.4 4.9,7.2 7.7,15.2 7.3,24.1 -0.5,12 -8.6,21.1 -19.3,21.6 -12,0.6 -19.7,-6.4 -21.5,-19.4 -0.1,-1.8 -0.2,-3.7 -0.4,-5.9 z m 32,1.9 c -1.7,-4.8 -3.1,-9.8 -5.2,-14.5 -2.9,-6.2 -7.9,-6.4 -11.9,-0.9 -4.6,6.3 -5.1,13.4 -3.9,20.8 0.8,5 4,7 8.5,7.7 6.8,1 11.5,-4.3 12.5,-13.1 z"
     id="path347" /><path
     class="st1"
     d="m 101.9,80.3 c -0.6,8.4 -3.2,16.4 -9.5,22.7 -7.6,7.6 -18.6,6.5 -24.6,-2.4 -5,-7.4 -7.8,-15.6 -7.2,-24.7 0.8,-12 9.1,-20.6 19.9,-20.8 11.8,-0.3 19.1,6.5 20.9,19.3 0.3,1.7 0.3,3.6 0.5,5.9 z m -9.2,0.1 c -0.4,-0.2 -0.9,-0.3 -1.3,-0.5 0,-1 0.1,-2.1 0,-3.1 C 90.8,68.6 87.5,65 80.6,65.3 c -5.7,0.3 -10.2,5.3 -9.5,12.4 0.5,5.4 2.4,10.9 4.6,16 2.3,5.2 7.6,5.5 10.7,0.6 2.7,-4.2 4.2,-9.2 6.3,-13.9 z"
     id="path349" /><path
     class="st1"
     d="m 530.7,728.4 c 0,-6 0,-12.1 0,-18.1 0,-3.9 1,-7.5 5.6,-7.3 4.2,0.2 5,3.6 4.9,7.3 -0.6,12.3 -1.2,24.5 -1.8,36.8 -0.2,3.7 -1.2,7 -5.5,6.8 -4.4,-0.2 -4.8,-3.7 -4.8,-7.3 0.1,-6 0,-12.1 0,-18.1 0.6,-0.1 1.1,-0.1 1.6,-0.1 z"
     id="path351" /><path
     class="st1"
     d="m 49.1,81.1 c 0,6.3 0,12.5 0,18.8 0,3.7 -1.5,7.3 -5.6,6.5 -2,-0.4 -4.7,-4.3 -4.7,-6.5 0.1,-12.7 0.7,-25.5 1.8,-38.1 0.2,-2.2 3.3,-5.6 5.4,-5.9 3.8,-0.5 4.8,3 4.7,6.5 -0.1,6.3 0,12.5 0,18.8 -0.6,-0.1 -1.1,-0.1 -1.6,-0.1 z"
     id="path353" /><path
     class="st0"
     d="m 509.9,731 c -0.9,8.8 -5.7,14.1 -12.6,13.2 -4.5,-0.6 -7.7,-2.7 -8.5,-7.7 -1.2,-7.5 -0.7,-14.5 3.9,-20.8 4.1,-5.5 9,-5.3 11.9,0.9 2.2,4.5 3.6,9.5 5.3,14.4 z"
     id="path355" /><path
     class="st0"
     d="m 92.7,80.4 c -2,4.7 -3.5,9.7 -6.2,13.9 -3.1,4.9 -8.4,4.6 -10.7,-0.6 -2.2,-5 -4.1,-10.5 -4.6,-16 -0.7,-7.2 3.8,-12.2 9.5,-12.4 6.9,-0.3 10.2,3.2 10.8,11.5 0.1,1 0,2.1 0,3.1 0.3,0.2 0.7,0.4 1.2,0.5 z"
     id="path357" /></g><g
   id="g548"
   transform="rotate(-6,1632.1214,-3183.3183)"
   style="filter:url(#filter170)"><path
     class="st0"
     d="M 539.6,809.5 H 39 C 17.5,809.5 0,792 0,770.5 V 39 C 0,17.5 17.5,0 39,0 h 500.6 c 21.5,0 39,17.5 39,39 v 731.5 c 0,21.5 -17.5,39 -39,39 z M 172.4,166.7 c 0.6,0.6 0.6,0.6 1.2,1.2 -1.7,3.6 -2.9,7.7 -5.4,10.8 -3.2,4 -7.7,7 -11.3,10.7 -1.1,1.1 -2,3.2 -1.8,4.7 0.1,0.8 2.5,1.9 4,2 10.4,0.7 20.8,1.4 31.2,1.7 3.8,0.1 7.7,-0.8 11.4,-1.7 1.3,-0.3 2.4,-1.9 3.6,-2.8 -0.9,-1.1 -1.6,-2.4 -2.7,-3.1 -5.2,-3.8 -10.8,-7.2 -15.8,-11.2 -3.9,-3.1 -7,-7 -5,-13.3 1.4,0.8 2.4,1.4 3.3,2.1 8.4,6.6 18.1,9.6 28.6,8.8 3.8,-0.3 8.3,-2.1 11.1,-4.7 9.3,-8.7 10.3,-29.7 1.9,-39.4 -2.8,-3.3 -7.1,-5.7 -11.3,-7.2 -3.6,-1.3 -7.9,-0.8 -12.2,-1.2 0.3,-2.1 0.9,-4.2 0.9,-6.2 0.3,-8.8 0.9,-17.8 -6,-24.7 -6.7,-6.8 -21.8,-8.7 -31.1,-4.2 -9.5,4.6 -14.6,14 -13.4,25.3 0.5,4.6 1.4,9.2 2.2,14.4 -3.1,-0.3 -5.4,-0.5 -7.6,-0.9 -16.3,-2.6 -28.4,8.6 -27.2,25.3 1,14.1 18.4,25.5 33,21.2 6.2,-2.1 12.2,-5.1 18.4,-7.6 z m 228,1.2 c 0.6,0.6 0.6,0.6 1.2,1.2 -1.8,3.7 -3,7.8 -5.6,10.9 -3.3,4 -7.7,7 -11.4,10.7 -1.1,1.1 -1.9,3.3 -1.6,4.7 0.1,0.8 2.6,1.8 4,1.9 10.4,0.7 20.8,1.5 31.2,1.7 3.8,0.1 7.7,-0.9 11.4,-1.7 1.2,-0.3 2.2,-1.5 3.4,-2.4 -0.9,-1.2 -1.6,-2.8 -2.8,-3.7 -5.2,-3.8 -10.8,-7.2 -15.8,-11.3 -3.8,-3.1 -7,-7 -5.1,-12.5 0.7,-0.1 0.9,-0.3 1.1,-0.2 0.7,0.4 1.5,0.8 2.1,1.3 8.1,6.6 17.5,9.3 27.9,9.4 6.7,0.1 11.7,-2.9 15.1,-8.4 5.8,-9.4 5.6,-19.4 2.5,-29.6 -2.2,-7.4 -7.2,-12.2 -14.8,-13.7 -3.9,-0.8 -8,-0.7 -12.2,-1 0.4,-2.2 0.9,-4.3 1,-6.3 0.3,-8.8 0.8,-17.8 -6.1,-24.7 -6.8,-6.8 -21.9,-8.6 -31.2,-4 -9.5,4.6 -14.5,14 -13.3,25.3 0.5,4.6 1.4,9.2 2.2,14.4 -3.3,-0.4 -5.5,-0.6 -7.8,-1 -16,-2.6 -28,8.4 -27.1,24.8 0.8,14.2 18.1,26 32.5,21.8 6.7,-1.9 12.9,-5.1 19.2,-7.6 z M 201.8,381.6 c 0.5,-2.9 1,-4.9 1,-6.9 0.3,-8.8 0.9,-17.8 -6,-24.7 -6.7,-6.8 -21.8,-8.8 -31.1,-4.3 -9.5,4.6 -14.6,14 -13.5,25.2 0.5,4.6 1.4,9.2 2.2,14.5 -3.1,-0.3 -5.3,-0.5 -7.5,-0.8 -16.4,-2.6 -28.4,8.5 -27.3,25.2 1,14.1 18.4,25.6 32.9,21.3 6.3,-1.9 12.2,-4.9 18.3,-7.3 0.6,0.6 0.6,0.6 1.2,1.2 -1.5,3.5 -2.4,7.4 -4.7,10.2 -3.4,4.1 -7.9,7.3 -11.7,11.2 -1.1,1.1 -2,3.2 -1.9,4.7 0.1,0.8 2.5,1.9 3.9,2 10.6,0.8 21.2,1.4 31.8,1.8 3.4,0.1 6.9,-0.7 10.2,-1.6 1.6,-0.4 2.8,-1.9 4.2,-2.9 -1.2,-1.3 -2.3,-2.8 -3.7,-3.9 -5,-3.7 -10.4,-7 -15.2,-11 -3.7,-3 -6.6,-6.9 -4.6,-12.9 1.3,0.8 2.4,1.3 3.3,2 8.4,6.6 18.1,9.7 28.6,8.8 4,-0.3 8.6,-2.4 11.5,-5.2 8.2,-8 9.7,-24.5 3.7,-35.9 -5.1,-10 -14.1,-12.5 -25.6,-10.7 z m 207.7,41.9 c 1.4,0.9 2.3,1.4 3.1,2 8.1,6.6 17.5,9.3 27.9,9.4 6.7,0.1 11.7,-2.9 15.1,-8.4 5.8,-9.4 5.6,-19.4 2.5,-29.6 -2.3,-7.4 -7.2,-12.2 -14.8,-13.7 -3.9,-0.8 -8,-0.7 -12.2,-1 0.4,-2.2 0.9,-4.3 1,-6.3 0.3,-8.8 0.8,-17.8 -6.1,-24.7 -6.8,-6.8 -21.9,-8.6 -31.2,-4 -9.5,4.6 -14.4,14 -13.3,25.3 0.5,4.6 1.4,9.2 2.2,14.4 -3.3,-0.4 -5.5,-0.6 -7.8,-1 -16,-2.6 -28,8.4 -27.1,24.8 0.8,14.2 18.1,26 32.6,21.8 6.5,-1.9 12.7,-5 19.1,-7.6 0.6,0.6 0.6,0.6 1.2,1.2 -1.8,3.7 -3.1,7.8 -5.6,10.9 -3.3,4 -7.7,7 -11.4,10.6 -1.1,1 -2.3,3.4 -1.9,4.1 0.8,1.3 2.8,2.3 4.4,2.5 10.4,0.8 20.8,1.5 31.2,1.8 3.8,0.1 7.7,-0.9 11.4,-1.7 1.2,-0.3 2.2,-1.6 3.3,-2.4 -0.9,-1.2 -1.6,-2.8 -2.8,-3.7 -5.2,-3.8 -10.7,-7.2 -15.8,-11.3 -3.8,-3 -6.7,-6.9 -5,-13.4 z m -239,218.6 c -0.9,-0.1 -1.4,0.1 -1.7,-0.1 -0.7,-0.4 -1.4,-0.9 -2,-1.5 -8.2,-6.5 -17.7,-9.1 -28,-9 -5.9,0 -10.4,2.5 -13.8,7.3 -6.6,9.6 -6.5,20 -3.3,30.6 2.2,7.4 7.2,12.2 14.8,13.8 3.9,0.8 8,0.7 12.2,1 -0.3,2.2 -0.9,4.2 -1,6.2 -0.3,8.8 -0.8,17.8 6.1,24.7 6.8,6.8 21.8,8.7 31.2,4.1 9.5,-4.6 14.5,-14 13.4,-25.3 -0.5,-4.6 -1.4,-9.2 -2.2,-14.5 3.2,0.4 5.5,0.6 7.7,1 16.1,2.6 28.1,-8.3 27.2,-24.7 -0.8,-14.5 -18.2,-26.2 -33.1,-21.7 -6.3,1.9 -12.3,5 -18.5,7.4 -0.6,-0.6 -0.6,-0.6 -1.2,-1.2 1.8,-3.7 3,-7.8 5.4,-10.8 3.3,-4 7.7,-7 11.3,-10.7 1.1,-1.1 1.9,-3.2 1.7,-4.7 -0.1,-0.8 -2.6,-1.8 -4,-1.9 -10.4,-0.7 -20.8,-1.5 -31.2,-1.7 -3.8,-0.1 -7.7,0.9 -11.4,1.6 -1.2,0.3 -2.3,1.5 -3.4,2.3 0.9,1.3 1.5,2.8 2.7,3.7 5.2,3.8 10.7,7.2 15.8,11.2 3.8,3.2 6.7,7.1 5.3,12.9 z m 235.2,1.4 c 2.2,-5 3,-9.1 5.3,-12 3.4,-4.2 7.9,-7.3 11.7,-11.2 1.2,-1.2 2.4,-3.4 2,-4.6 -0.4,-1.1 -2.9,-2.1 -4.5,-2.2 -10.4,-0.8 -20.8,-1.5 -31.2,-1.8 -3.4,-0.1 -6.9,0.7 -10.2,1.5 -1.6,0.4 -2.9,1.8 -4.4,2.8 1.2,1.3 2.2,2.9 3.6,3.9 5,3.7 10.4,7 15.2,10.9 5.3,4.3 6,7.5 4.1,12.5 -14,-8.6 -20.6,-10.8 -30.6,-10.6 -6.2,0.1 -10.9,2.6 -14.2,7.7 -6,9 -6.3,18.8 -3.5,28.8 2.7,9.7 9.2,15.3 19.1,16.2 2.6,0.2 5.2,-0.2 8.2,-0.4 -0.4,2.5 -0.9,4.5 -1,6.6 -0.4,8.8 -0.9,17.7 5.9,24.8 6.6,6.9 21.7,8.9 31.1,4.4 9.5,-4.5 14.8,-14 13.6,-25.1 -0.5,-4.7 -1.4,-9.3 -2.2,-14.6 3.2,0.4 5.7,0.5 8.1,0.9 15.4,2.5 26.6,-8.1 27.1,-23.9 0.5,-13.7 -19.3,-27.5 -33.1,-22.7 -5.9,2 -11.8,4.7 -20.1,8.1 z M 65.8,188 c 8.4,2.2 16.2,4.7 24.2,6 2.9,0.5 7.3,-1.3 9.4,-3.6 7.3,-7.9 7.4,-17.4 3.7,-26.9 -3.3,-8.4 -10.5,-10.6 -18.9,-9.9 -0.3,0 -0.6,-0.5 -0.8,-0.7 1.6,-19.8 -3.1,-28 -17.3,-28.4 -3.7,-0.1 -7.4,0.6 -10.8,2.2 -14.5,6.9 -11.9,18.5 -8.9,30.3 -3.5,-0.5 -5.9,-0.7 -8.4,-1.1 -6.8,-1.2 -11.9,1.3 -15.2,7.2 -3.8,6.6 -6,13.5 -1.1,20.5 4.9,7 14.5,11 22.5,8.8 4.9,-1.3 9.5,-3.7 16,-6.2 -1.6,3.8 -2.3,6.9 -4.1,9 -2.6,3.2 -6.1,5.6 -9,8.6 -0.9,0.9 -1.8,2.7 -1.5,3.7 0.3,0.9 2.2,1.6 3.5,1.7 8.3,0.6 16.6,1.4 24.9,1.5 3.5,0 7.1,-1.4 11.7,-2.4 C 78.5,200 66.8,198.4 65.8,188 Z m 430.6,467.8 c -2.4,25.8 7.2,29.1 20.1,29.2 4.8,0 10.5,-2.9 14.2,-6.3 7.7,-7 5.3,-16.3 2.7,-26.1 3.5,0.5 6.1,0.7 8.7,1.1 6.8,1.1 11.8,-1.6 15.1,-7.5 3.7,-6.7 6.1,-13.8 0.7,-20.5 -5.7,-7 -13.1,-11.2 -22.6,-8.6 -4.8,1.3 -9.4,3.7 -15.4,6 1.1,-3.2 1.3,-5.9 2.7,-7.6 2.7,-3.4 6.2,-6.1 9.2,-9.3 1.1,-1.2 1.6,-3 2.4,-4.6 -1.5,-0.5 -2.9,-1.2 -4.4,-1.4 -7.9,-0.6 -15.8,-1.4 -23.7,-1.5 -3.6,-0.1 -7.1,1.2 -10.7,1.9 -0.2,1 -0.2,1.1 -0.5,2.2 3.8,2.7 7.8,5.2 11.5,8.1 3.9,3 8.3,5.8 7.2,12.2 -3.9,-2 -7.4,-4.3 -11.2,-5.6 -3.9,-1.3 -8.2,-2.4 -12.2,-2.1 -3.4,0.2 -7.5,1.6 -10,3.9 -6.4,5.9 -7.7,18.6 -3.2,27.6 3.9,7.8 10.8,9.8 19.4,8.9 z M 55.1,78.5 c -0.7,-6.1 1.4,-13.8 5.5,-16.1 2.3,-1.4 6.9,-1.6 8.9,-0.2 3.4,2.3 6.3,4.3 8.9,0.2 2.3,-3.7 -0.5,-6.7 -3.7,-8.7 -8.4,-5.5 -19.1,-3 -24.5,5.7 -5.6,9 -6.7,18.5 -3.6,28.8 5,16.8 21.1,22.6 35.5,12.4 8.5,-6 8.8,-13.8 0.6,-20.6 -8.8,-7.2 -18,-8.2 -27.6,-1.5 z M 524.6,731 c 0.9,0.7 0.8,0.7 1.8,1.4 -1.9,4.5 -3.3,9.2 -5.7,13.3 -2.6,4.4 -6.9,4.7 -10.7,1.4 -3.1,-2.6 -6.4,-3.9 -8.2,-0.2 -0.9,1.9 0.8,6.6 2.8,8.2 7.7,6.4 19.4,3.9 25,-4.9 5.7,-9 6.8,-18.5 3.8,-28.8 -5,-17.1 -21.4,-22.9 -35.9,-12.4 -7.9,5.8 -8.4,13.4 -0.9,19.8 8.7,7.6 18,9.2 28,2.2 z"
     id="path522" /><path
     class="st1"
     d="m 172,166.8 c -6,2.5 -11.9,5.4 -18.1,7.3 -14.6,4.4 -32,-7 -33,-21.2 -1.2,-16.7 10.8,-27.9 27.2,-25.3 2.2,0.4 4.5,0.5 7.6,0.9 -0.8,-5.2 -1.7,-9.8 -2.2,-14.4 -1.2,-11.2 3.9,-20.7 13.4,-25.3 9.3,-4.5 24.4,-2.6 31.1,4.2 6.9,7 6.3,15.9 6,24.7 -0.1,2 -0.6,4 -0.9,6.2 4.3,0.3 8.6,-0.2 12.2,1.2 4.1,1.5 8.4,3.9 11.3,7.2 8.4,9.7 7.3,30.7 -1.9,39.4 -2.8,2.6 -7.2,4.4 -11.1,4.7 -10.5,0.9 -20.2,-2.2 -28.6,-8.8 -0.9,-0.7 -2,-1.3 -3.3,-2.1 -2,6.3 1.2,10.2 5,13.3 5,4 10.6,7.4 15.8,11.2 1.1,0.8 1.8,2.1 2.7,3.1 -1.2,1 -2.2,2.5 -3.6,2.8 -3.7,0.9 -7.6,1.8 -11.4,1.7 -10.4,-0.3 -20.8,-1 -31.2,-1.7 -1.4,-0.1 -3.9,-1.2 -4,-2 -0.2,-1.5 0.7,-3.6 1.8,-4.7 3.7,-3.7 8.1,-6.7 11.3,-10.7 2.5,-3.1 3.7,-7.3 5.5,-10.9 -0.5,-0.2 -1,-0.5 -1.6,-0.8 z"
     id="path524"
     style="fill:#000000" /><path
     class="st1"
     d="m 399.6,168.2 c -6.1,2.5 -12,5.5 -18.2,7.3 -14.5,4.2 -31.7,-7.7 -32.5,-21.8 -0.9,-16.4 11.1,-27.4 27.1,-24.8 2.2,0.4 4.5,0.6 7.8,1 -0.8,-5.2 -1.7,-9.8 -2.2,-14.4 -1.2,-11.3 3.8,-20.7 13.3,-25.3 9.3,-4.6 24.3,-2.7 31.2,4 7,6.9 6.4,15.9 6.1,24.7 -0.1,2 -0.6,4.1 -1,6.3 4.2,0.3 8.3,0.2 12.2,1 7.6,1.6 12.6,6.4 14.8,13.7 3.1,10.2 3.3,20.2 -2.5,29.6 -3.4,5.6 -8.4,8.5 -15.1,8.4 -10.3,-0.1 -19.8,-2.7 -27.9,-9.4 -0.6,-0.5 -1.4,-0.9 -2.1,-1.3 -0.1,-0.1 -0.4,0.1 -1.1,0.2 -1.9,5.5 1.3,9.4 5.1,12.5 5,4.1 10.6,7.4 15.8,11.3 1.2,0.9 1.9,2.4 2.8,3.7 -1.1,0.8 -2.1,2.1 -3.4,2.4 -3.8,0.8 -7.6,1.8 -11.4,1.7 -10.4,-0.3 -20.8,-1 -31.2,-1.7 -1.5,-0.1 -3.9,-1 -4,-1.9 -0.2,-1.5 0.5,-3.6 1.6,-4.7 3.6,-3.7 8.1,-6.7 11.4,-10.7 2.6,-3.1 3.8,-7.3 5.6,-11 -0.8,-0.3 -1.5,-0.5 -2.2,-0.8 z"
     id="path526"
     style="fill:#000000" /><path
     class="st1"
     d="m 201.8,381.6 c 11.4,-1.8 20.5,0.6 25.7,10.7 6,11.4 4.4,27.9 -3.7,35.9 -2.9,2.8 -7.5,4.8 -11.5,5.2 -10.5,0.9 -20.2,-2.2 -28.6,-8.8 -0.9,-0.7 -2,-1.2 -3.3,-2 -2,6 0.9,9.8 4.6,12.9 4.8,4 10.2,7.2 15.2,11 1.4,1 2.5,2.6 3.7,3.9 -1.4,1 -2.7,2.5 -4.2,2.9 -3.3,0.9 -6.8,1.7 -10.2,1.6 -10.6,-0.3 -21.2,-1 -31.8,-1.8 -1.4,-0.1 -3.9,-1.2 -3.9,-2 -0.1,-1.5 0.7,-3.6 1.9,-4.7 3.8,-3.8 8.4,-7 11.7,-11.2 2.4,-2.9 3.3,-7 4.9,-10.5 -0.5,-0.2 -1,-0.5 -1.5,-0.7 -6,2.5 -11.9,5.4 -18.2,7.3 -14.5,4.3 -31.9,-7.1 -32.9,-21.3 -1.2,-16.7 10.9,-27.8 27.3,-25.2 2.2,0.3 4.5,0.5 7.5,0.8 -0.8,-5.2 -1.7,-9.8 -2.2,-14.5 -1.2,-11.2 4,-20.7 13.5,-25.2 9.4,-4.5 24.4,-2.6 31.1,4.3 6.8,7 6.3,15.9 6,24.7 -0.1,1.8 -0.6,3.8 -1.1,6.7 z"
     id="path528"
     style="fill:#000000" /><path
     class="st1"
     d="m 409.5,423.5 c -1.7,6.5 1.2,10.4 5,13.4 5,4 10.6,7.4 15.8,11.3 1.2,0.9 1.9,2.4 2.8,3.7 -1.1,0.8 -2.1,2.1 -3.3,2.4 -3.8,0.8 -7.6,1.8 -11.4,1.7 -10.4,-0.3 -20.8,-1 -31.2,-1.8 -1.6,-0.1 -3.6,-1.2 -4.4,-2.5 -0.5,-0.7 0.8,-3.1 1.9,-4.1 3.7,-3.6 8.1,-6.7 11.4,-10.6 2.6,-3.1 3.8,-7.3 5.7,-11 -0.5,-0.3 -1.1,-0.6 -1.6,-1 -6.2,2.5 -12.3,5.6 -18.7,7.4 -14.5,4.2 -31.7,-7.6 -32.6,-21.8 -1,-16.4 11.1,-27.4 27.1,-24.8 2.2,0.4 4.5,0.6 7.8,1 -0.8,-5.2 -1.7,-9.8 -2.2,-14.4 -1.2,-11.3 3.8,-20.7 13.3,-25.3 9.3,-4.6 24.3,-2.8 31.2,4 7,6.9 6.4,15.9 6.1,24.7 -0.1,2 -0.6,4.1 -1,6.3 4.2,0.3 8.3,0.2 12.2,1 7.6,1.6 12.6,6.4 14.8,13.7 3.1,10.2 3.3,20.2 -2.5,29.6 -3.4,5.6 -8.4,8.5 -15.1,8.4 -10.3,-0.1 -19.8,-2.7 -27.9,-9.4 -0.8,-0.5 -1.7,-1 -3.2,-1.9 z"
     id="path530"
     style="fill:#000000" /><path
     class="st1"
     d="m 170.5,642.1 c 1.4,-5.8 -1.5,-9.7 -5.3,-12.7 -5.1,-4 -10.6,-7.4 -15.8,-11.2 -1.2,-0.9 -1.8,-2.5 -2.7,-3.7 1.1,-0.8 2.2,-2 3.4,-2.3 3.8,-0.8 7.6,-1.7 11.4,-1.6 10.4,0.3 20.8,1 31.2,1.7 1.4,0.1 3.9,1.1 4,1.9 0.2,1.5 -0.6,3.6 -1.7,4.7 -3.7,3.7 -8.1,6.7 -11.3,10.7 -2.5,3.1 -3.7,7.3 -5.5,11 0.5,0.3 1.1,0.6 1.6,0.9 6,-2.5 11.9,-5.4 18.1,-7.3 14.9,-4.4 32.3,7.2 33.1,21.7 0.9,16.4 -11.1,27.3 -27.2,24.7 -2.2,-0.4 -4.5,-0.6 -7.7,-1 0.8,5.3 1.7,9.8 2.2,14.5 1.2,11.3 -3.9,20.7 -13.4,25.3 -9.3,4.5 -24.4,2.7 -31.2,-4.1 -6.9,-6.9 -6.4,-15.9 -6.1,-24.7 0.1,-2 0.6,-4 1,-6.2 -4.2,-0.3 -8.3,-0.2 -12.2,-1 -7.6,-1.6 -12.6,-6.4 -14.8,-13.8 -3.2,-10.6 -3.3,-21 3.3,-30.6 3.3,-4.8 7.9,-7.3 13.8,-7.3 10.3,-0.1 19.8,2.5 28,9 0.7,0.5 1.3,1 2,1.5 0.4,0 0.9,-0.1 1.8,-0.1 z"
     id="path532"
     style="fill:#000000" /><path
     class="st1"
     d="m 405.7,643.5 c 8.2,-3.3 14.2,-6.1 20.4,-8.2 13.9,-4.8 33.6,9 33.1,22.7 -0.5,15.8 -11.8,26.4 -27.1,23.9 -2.4,-0.4 -4.8,-0.6 -8.1,-0.9 0.8,5.4 1.8,10 2.2,14.6 1.2,11.1 -4.1,20.6 -13.6,25.1 -9.4,4.4 -24.5,2.5 -31.1,-4.4 -6.8,-7 -6.2,-16 -5.9,-24.8 0.1,-2 0.6,-4 1,-6.6 -3.1,0.2 -5.7,0.6 -8.2,0.4 -9.9,-0.8 -16.4,-6.4 -19.1,-16.2 -2.8,-10.1 -2.5,-19.8 3.5,-28.8 3.4,-5.1 8.1,-7.6 14.2,-7.7 10,-0.1 16.6,2.1 30.6,10.6 1.9,-5 1.1,-8.3 -4.1,-12.5 -4.8,-3.9 -10.2,-7.2 -15.2,-10.9 -1.4,-1 -2.4,-2.6 -3.6,-3.9 1.5,-1 2.8,-2.4 4.4,-2.8 3.3,-0.8 6.8,-1.6 10.2,-1.5 10.4,0.3 20.8,1 31.2,1.8 1.6,0.1 4.1,1.1 4.5,2.2 0.4,1.2 -0.8,3.5 -2,4.6 -3.8,3.8 -8.4,7 -11.7,11.2 -2.6,2.9 -3.4,7 -5.6,12.1 z"
     id="path534"
     style="fill:#000000" /><path
     class="st1"
     d="m 65.8,188 c 1,10.4 12.7,12 19.9,20.2 -4.6,1 -8.2,2.5 -11.7,2.4 -8.3,-0.1 -16.6,-0.8 -24.9,-1.5 -1.3,-0.1 -3.2,-0.8 -3.5,-1.7 -0.3,-1 0.6,-2.8 1.5,-3.7 2.9,-3 6.4,-5.4 9,-8.6 1.8,-2.2 2.4,-5.2 4.1,-9 -6.4,2.6 -11.1,4.9 -16,6.2 -8.1,2.2 -17.7,-1.8 -22.5,-8.8 -4.9,-7.1 -2.7,-13.9 1.1,-20.5 3.3,-5.9 8.4,-8.4 15.2,-7.2 2.4,0.4 4.8,0.7 8.4,1.1 -2.6,-10.3 -5,-20.6 4.3,-27.6 4,-3 9.9,-5 14.8,-4.9 14.6,0.2 19.4,8.4 17.9,28.4 0.3,0.2 0.6,0.7 0.8,0.7 8.4,-0.7 15.6,1.4 18.9,9.9 3.7,9.5 3.7,19 -3.7,26.9 -2.1,2.3 -6.5,4.1 -9.4,3.6 -8,-1.2 -15.8,-3.7 -24.2,-5.9 z"
     id="path536"
     style="fill:#000000" /><path
     class="st1"
     d="m 496.4,655.8 c -8.6,0.9 -15.5,-1.1 -19.3,-8.9 -4.4,-9 -3.2,-21.7 3.2,-27.6 2.5,-2.3 6.6,-3.6 10,-3.9 4,-0.2 8.3,0.8 12.2,2.1 3.8,1.3 7.3,3.6 11.2,5.6 1.1,-6.4 -3.3,-9.2 -7.2,-12.2 -3.7,-2.9 -7.7,-5.4 -11.5,-8.1 0.1,-0.7 0.2,-1.4 0.2,-2.1 3.6,-0.7 7.3,-2 10.9,-1.9 7.9,0.1 15.8,0.9 23.7,1.5 1.5,0.1 3,0.9 4.4,1.4 -0.8,1.5 -1.3,3.3 -2.4,4.6 -3,3.2 -6.5,5.9 -9.2,9.3 -1.4,1.7 -1.6,4.4 -2.7,7.6 6,-2.4 10.5,-4.7 15.4,-6 9.4,-2.6 16.9,1.6 22.6,8.6 5.4,6.7 3,13.8 -0.7,20.5 -3.3,5.9 -8.3,8.6 -15.1,7.5 -2.6,-0.4 -5.2,-0.7 -8.7,-1.1 2.5,9.7 5,19.1 -2.7,26.1 -3.7,3.4 -9.4,6.4 -14.2,6.3 -12.9,-0.3 -22.6,-3.5 -20.1,-29.3 z"
     id="path538"
     style="fill:#000000" /><path
     class="st1"
     d="m 55.1,78.5 c 9.6,-6.7 18.8,-5.6 27.5,1.5 8.2,6.8 7.9,14.5 -0.6,20.6 -14.4,10.2 -30.5,4.4 -35.5,-12.4 -3.1,-10.3 -2,-19.8 3.6,-28.8 5.4,-8.7 16.1,-11.2 24.5,-5.7 3.2,2.1 6,5 3.7,8.7 -2.5,4 -5.4,2.1 -8.9,-0.2 -2.1,-1.4 -6.6,-1.2 -8.9,0.2 -4.1,2.3 -6.2,9.9 -5.4,16.1 z m 23.4,11.9 c -5.8,-9 -12.9,-9.1 -20.4,-0.4 4.7,7.9 13.2,8.1 20.4,0.4 z"
     id="path540"
     style="fill:#000000" /><path
     class="st1"
     d="m 524.7,731 c -10.1,7.1 -19.4,5.5 -28.1,-2 -7.5,-6.4 -7,-14 0.9,-19.8 14.5,-10.5 30.8,-4.7 35.9,12.4 3,10.3 1.9,19.8 -3.8,28.8 -5.6,8.8 -17.2,11.3 -25,4.9 -2,-1.7 -3.8,-6.3 -2.8,-8.2 1.8,-3.8 5.1,-2.5 8.2,0.2 3.7,3.2 8.1,3 10.7,-1.4 2.4,-4.1 3.9,-8.9 5.7,-13.3 -0.6,-0.7 -1.1,-1.1 -1.7,-1.6 z M 522,719.5 c -5.5,-7.8 -13.1,-7.9 -20.6,-0.6 5.2,8.9 12.4,9.2 20.6,0.6 z"
     id="path542"
     style="fill:#000000" /><path
     class="st0"
     d="M 78.5,90.4 C 71.4,98.1 62.8,97.9 58.1,90 65.6,81.3 72.7,81.5 78.5,90.4 Z"
     id="path544" /><path
     class="st0"
     d="m 522,719.5 c -8.2,8.7 -15.4,8.4 -20.6,-0.6 7.5,-7.3 15.1,-7.3 20.6,0.6 z"
     id="path546"
     style="fill:none" /></g><g
   id="g55"
   transform="rotate(10,-161.43433,4129.1974)">
	<path
   class="st0"
   d="m 39,0 c 166.7,0 333.5,0 500.2,0 21.5,0 39,17.5 39,39 v 731.5 c 0,21.5 -17.5,39 -39,39 H 39 C 17.5,809.5 0,792 0,770.5 0,526.7 0,282.8 0,39 0,17.5 17.5,0 39,0 Z m 242.2,472 c -0.2,0 -0.3,0.1 -0.5,0.1 0,0.8 0,1.5 0,2.3 -0.1,4.8 1.6,7.1 5.6,7.5 2.4,0.2 5.5,-3.2 5.9,-6.5 0.5,-4 1.1,-8 1.5,-12.1 0.8,-7.6 3.9,-14.6 8.3,-20.5 6.7,-8.9 14.5,-17 22,-25.3 1,-1.1 2.4,-1.8 3.7,-2.5 3.8,-2 5,-7.7 2,-10.2 -2.7,-2.3 -5.8,-4.2 -8.2,-6.9 -3.7,-4.1 -7.3,-8.5 -10.2,-13.2 -2.3,-3.8 -3.6,-8.2 -5,-12.5 -1.2,-3.5 -2.1,-7 -2.8,-10.6 -1.3,-7 -2.6,-13.9 -3.5,-20.9 -0.4,-2.7 -0.7,-5.3 -3.5,-6 -5.2,-1.3 -7.6,-0.2 -9,3.9 -1.5,4.4 -2.7,8.9 -4.1,13.4 -1.6,4.9 -3.1,9.9 -5,14.7 -1.9,4.9 -3.9,9.9 -6.4,14.6 -5.1,9.4 -12,17.4 -19.5,25 -3,3 -3.4,6.2 -1.3,8.9 4.9,6.5 10.2,12.7 14.6,19.4 4.5,6.8 8.8,13.8 12.1,21.2 2.1,4.8 2.2,10.7 3.3,16.2 z m 17.6,119.4 c 0.3,-0.1 0.7,-0.2 1,-0.2 0.1,-5.5 -1.7,-8.3 -5.4,-8.5 -2.3,-0.1 -5.9,3.5 -6.3,6.5 -0.5,3.7 -0.7,7.5 -1.5,11.1 -1.1,4.9 -1.6,10.2 -4.2,14.3 -4.7,7.7 -10.4,14.8 -16.3,21.7 -4.5,5.3 -9.9,9.8 -14.9,14.7 -2.2,2.2 -2.2,5.1 0.1,6.9 6.9,5.4 13.5,11.1 17.6,19.1 1.1,2.1 2.1,4.3 2.9,6.6 2.2,7.1 4.6,14.2 6.3,21.4 1.3,5.8 1.5,11.9 2.8,17.7 0.4,1.8 2.5,4.1 4.3,4.6 2.1,0.6 5.3,1.3 6.8,-1.7 1.1,-2.1 1.8,-4.5 2.5,-6.8 3.1,-9.3 5.7,-18.7 9.4,-27.7 3,-7.2 6.8,-14.2 11.1,-20.7 3.1,-4.6 7.4,-8.4 11.5,-12.2 3.3,-3 3.6,-7 0.8,-10.4 -5.5,-6.7 -11.1,-13.5 -15.9,-20.7 -3.7,-5.7 -6.7,-11.9 -9,-18.3 -1.8,-5.6 -2.4,-11.6 -3.6,-17.4 z m -48.6,-435 c 0.7,1.6 0.9,2.8 1.6,3.6 2.3,2.9 4.8,5.7 7.1,8.6 11.9,15.1 21.4,31.3 21.9,51.3 0.1,2.8 1.6,5.2 4.3,4.8 1.7,-0.2 3.1,-2.7 4.4,-4.4 0.5,-0.6 0.1,-1.7 0.2,-2.6 0.6,-4.6 0.7,-9.3 2,-13.6 5.6,-18.9 18.6,-32.4 33,-44.8 4.4,-3.8 4.9,-5.6 0.2,-9.2 -9.3,-7.1 -16.8,-15.8 -20.1,-27 -3.3,-11.5 -5.3,-23.4 -7.5,-35.2 -0.6,-3.3 -1.8,-5.3 -4.9,-5.9 -3.5,-0.7 -4.9,1.9 -5.8,4.5 -1.5,4.4 -2.5,8.9 -3.8,13.3 -5.8,19.5 -13.9,37.7 -29.4,51.8 -1.5,1.2 -2.2,3.2 -3.2,4.8 z m 270.2,528.3 c 4.8,0.3 5.4,-2.6 6.2,-4.9 2.1,-6.3 3.7,-12.8 6.1,-19 3.5,-9.1 9,-16.9 15.9,-23.8 3.3,-3.4 3.4,-4.5 0.5,-7.7 -1.5,-1.6 -3.7,-4.4 -5,-6.2 -7.5,-10 -13.5,-20.5 -14.2,-33.5 -0.1,-1.4 -2,-2.8 -3.1,-4.1 -1.1,1.2 -2.8,2.3 -3.3,3.7 -0.7,2.3 -0.4,4.8 -0.9,7.2 -2.6,14.7 -12.4,24.7 -22.9,34.1 -3.9,3.5 -4.5,4.5 -0.4,7.7 6.9,5.4 11.9,12.1 14.2,20.5 2,7.3 3,14.8 4.6,22.1 0.3,1.5 1.7,3 2.3,3.9 z M 83.2,174.3 c -2,-2.1 -3.5,-4 -5.3,-5.4 -8.2,-6.2 -11.8,-14.9 -14,-24.5 -1.2,-5.5 -1.8,-11.1 -3.1,-16.6 -0.3,-1.5 -2.1,-3.5 -3.4,-3.6 -1.3,-0.1 -3.2,1.5 -4.2,2.8 -0.9,1.2 -1.2,3.1 -1.6,4.7 -3.8,15.4 -10.1,29.5 -21.8,40.7 -2.3,2.2 -2.5,4.5 -0.1,6.9 1.5,1.5 2.8,3.3 4.2,5 8.1,10.3 14.6,21.3 15.2,34.9 0.1,1.4 1.8,2.7 2.8,4.1 1.2,-1.1 2.7,-2 3.6,-3.3 0.6,-1 0.3,-2.5 0.6,-3.7 0.6,-3.4 1,-6.9 2.1,-10.1 4,-11.8 12.7,-20.2 21.7,-28.3 1,-0.9 1.9,-2.1 3.3,-3.6 z m 434.3,537.8 c -0.2,-0.3 -0.3,-0.7 -0.5,-1 -4.3,1.7 -9.1,2.7 -12.9,5.1 -8.5,5.4 -11.3,14.8 -6.7,23 2.2,3.9 5.7,7.2 9,10.3 1.9,1.7 2.9,2.7 2.1,5.6 -1.3,4.5 -2,9.5 1.5,13.6 6.8,8.2 19.4,6.6 23.9,-3 0.7,-1.5 0.8,-3.5 0.5,-5.2 -0.6,-2.6 -4,-4.1 -6.9,-3.3 -2.8,0.8 -3.6,2.7 -2.8,5.4 1,3.3 -1.3,3.9 -3.6,3.9 -3,0 -5.7,-1.2 -6.3,-4.5 -0.8,-3.7 1.9,-8.7 4.9,-10 2.3,-1 4.7,-2.1 6.7,-3.5 2,-1.4 2.7,-3.4 1.3,-5.7 -1.5,-2.4 -3.6,-3.2 -6.3,-2.1 -1.3,0.5 -2.5,1.3 -3.6,2.2 -2.7,2 -6.6,1.8 -9,-0.6 -2,-1.9 -3.8,-4.1 -5.2,-6.4 -2.2,-3.4 -1.5,-7 0.9,-10 3,-3.8 7,-6 11.9,-6.1 8.2,-0.1 13.5,4.8 18,10.8 1.6,2.1 3.3,3.5 5.8,1.8 2.3,-1.6 1.9,-3.8 0.4,-5.7 -5.7,-8.1 -12.6,-14.4 -23.1,-14.6 z M 62.4,96.7 c 8.2,-0.1 15,-3.9 19.4,-12 4.2,-7.7 1.3,-14.1 -3.5,-20.1 -1.7,-2.1 -3.7,-4 -5.9,-5.5 -2.1,-1.4 -2.9,-2.5 -2.1,-5.2 0.9,-2.7 1,-5.9 0.7,-8.7 -0.6,-5.5 -7.4,-10.5 -13.4,-10.5 -5.7,0 -12.4,5.1 -13.5,10.3 -0.2,1.2 -0.1,2.6 0.4,3.7 0.9,2.4 4.8,4.2 7.1,2.7 1.3,-0.8 2.5,-3.2 2.5,-4.8 -0.1,-3.1 0.8,-4.7 4,-4.3 2.8,0.3 5.3,1.4 5.9,4.6 0.7,4 -1.9,8.6 -5,9.9 -2.4,1 -4.8,2.3 -7,3.8 -1.9,1.3 -2.5,3.7 -0.8,5.3 1.3,1.3 3.7,2.4 5.4,2.2 2,-0.2 3.9,-1.8 5.6,-3.2 1.9,-1.6 3.9,-1.7 5.5,-0.2 2.7,2.5 5.3,5.2 7.5,8.1 2.4,3.3 1.5,6.9 -0.9,10 -2.9,3.7 -6.7,5.9 -11.5,6.1 C 54.5,89.2 49,84.3 44.5,78.1 43,76 41.2,74.6 38.7,76.3 c -2.3,1.6 -2,3.8 -0.5,5.7 5.8,8.2 12.7,14.3 24.2,14.7 z"
   id="path39"
   style="filter:url(#filter170)" />
	<path
   class="st1"
   d="m 281.2,472 c -1.1,-5.5 -1.2,-11.4 -3.4,-16.3 -3.2,-7.4 -7.6,-14.4 -12.1,-21.2 -4.5,-6.7 -9.7,-13 -14.6,-19.4 -2,-2.7 -1.7,-5.9 1.3,-8.9 7.5,-7.5 14.4,-15.6 19.5,-25 2.5,-4.7 4.5,-9.6 6.4,-14.6 1.9,-4.8 3.4,-9.8 5,-14.7 1.4,-4.4 2.6,-9 4.1,-13.4 1.4,-4.1 3.7,-5.2 9,-3.9 2.9,0.7 3.2,3.3 3.5,6 0.9,7 2.2,14 3.5,20.9 0.7,3.6 1.6,7.1 2.8,10.6 1.4,4.3 2.7,8.7 5,12.5 2.8,4.7 6.5,9.1 10.2,13.2 2.3,2.6 5.4,4.6 8.2,6.9 3,2.5 1.9,8.2 -2,10.2 -1.3,0.7 -2.7,1.5 -3.7,2.5 -7.4,8.3 -15.3,16.4 -22,25.3 -4.4,5.9 -7.5,12.9 -8.3,20.5 -0.4,4 -1,8.1 -1.5,12.1 -0.4,3.4 -3.6,6.8 -5.9,6.5 -4,-0.4 -5.7,-2.8 -5.6,-7.5 0,-0.8 0,-1.5 0,-2.3 0.3,0 0.4,0 0.6,0 z"
   id="path41" />
	<path
   class="st1"
   d="m 298.8,591.4 c 1.2,5.8 1.8,11.8 3.8,17.3 2.3,6.4 5.3,12.6 9,18.3 4.8,7.3 10.4,14 15.9,20.7 2.8,3.4 2.5,7.4 -0.8,10.4 -4.1,3.8 -8.4,7.6 -11.5,12.2 -4.3,6.5 -8.2,13.5 -11.1,20.7 -3.7,9 -6.3,18.5 -9.4,27.7 -0.8,2.3 -1.5,4.6 -2.5,6.8 -1.5,3 -4.7,2.3 -6.8,1.7 -1.8,-0.5 -3.9,-2.8 -4.3,-4.6 -1.3,-5.8 -1.4,-11.9 -2.8,-17.7 -1.7,-7.2 -4.1,-14.3 -6.3,-21.4 -0.7,-2.3 -1.8,-4.5 -2.9,-6.6 -4.1,-8 -10.7,-13.7 -17.6,-19.1 -2.3,-1.8 -2.4,-4.7 -0.1,-6.9 5,-4.9 10.4,-9.4 14.9,-14.7 5.9,-6.9 11.5,-14.1 16.3,-21.7 2.5,-4.1 3.1,-9.5 4.2,-14.3 0.8,-3.6 1,-7.4 1.5,-11.1 0.4,-3 4,-6.6 6.3,-6.5 3.7,0.2 5.5,3 5.4,8.5 -0.5,0.2 -0.8,0.3 -1.2,0.3 z"
   id="path43" />
	<path
   class="st1"
   d="m 250.2,156.4 c 1,-1.6 1.7,-3.6 3.1,-4.9 15.5,-14 23.6,-32.2 29.4,-51.8 1.3,-4.4 2.4,-8.9 3.8,-13.3 0.9,-2.6 2.3,-5.1 5.8,-4.5 3.1,0.6 4.3,2.6 4.9,5.9 2.2,11.8 4.2,23.7 7.5,35.2 3.2,11.2 10.7,19.9 20.1,27 4.7,3.6 4.2,5.4 -0.2,9.2 -14.4,12.4 -27.4,26 -33,44.8 -1.3,4.4 -1.4,9.1 -2,13.6 -0.1,0.9 0.2,2.1 -0.2,2.6 -1.3,1.7 -2.8,4.1 -4.4,4.4 -2.7,0.4 -4.2,-2 -4.3,-4.8 -0.5,-20 -10,-36.2 -21.9,-51.3 -2.3,-2.9 -4.8,-5.7 -7.1,-8.6 -0.6,-0.7 -0.8,-1.9 -1.5,-3.5 z"
   id="path45" />
	<path
   class="st1"
   d="m 520.4,684.7 c -0.6,-0.9 -2,-2.4 -2.3,-4.1 -1.7,-7.4 -2.6,-14.9 -4.6,-22.1 -2.3,-8.4 -7.3,-15.1 -14.2,-20.5 -4.1,-3.2 -3.4,-4.2 0.4,-7.7 10.5,-9.4 20.3,-19.4 22.9,-34.1 0.4,-2.4 0.2,-4.9 0.9,-7.2 0.5,-1.4 2.2,-2.5 3.3,-3.7 1.1,1.4 3,2.7 3.1,4.1 0.6,13 6.7,23.5 14.2,33.5 1.3,1.8 3.6,4.5 5,6.2 2.9,3.3 2.9,4.4 -0.5,7.7 -6.9,6.9 -12.4,14.7 -15.9,23.8 -2.4,6.2 -4,12.7 -6.1,19 -0.8,2.5 -1.4,5.4 -6.2,5.1 z"
   id="path47" />
	<path
   class="st1"
   d="m 83.2,174.3 c -1.4,1.5 -2.3,2.7 -3.3,3.6 -9,8.1 -17.7,16.4 -21.7,28.3 -1.1,3.2 -1.4,6.7 -2.1,10.1 -0.2,1.2 0.1,2.8 -0.6,3.7 -0.9,1.3 -2.4,2.2 -3.6,3.3 -1,-1.4 -2.7,-2.7 -2.8,-4.1 -0.7,-13.6 -7.1,-24.6 -15.2,-34.9 -1.3,-1.7 -2.6,-3.5 -4.2,-5 -2.5,-2.4 -2.3,-4.7 0.1,-6.9 11.7,-11.2 18,-25.3 21.8,-40.7 0.4,-1.6 0.6,-3.5 1.6,-4.7 1,-1.3 2.9,-3 4.2,-2.8 1.3,0.1 3.1,2.2 3.4,3.6 1.3,5.5 1.8,11.1 3.1,16.6 2.1,9.5 5.8,18.3 14,24.5 1.8,1.4 3.3,3.4 5.3,5.4 z"
   id="path49" />
	<path
   class="st1"
   d="m 517.5,712.1 c 10.5,0.3 17.4,6.5 23.3,14.3 1.5,1.9 1.9,4.1 -0.4,5.7 -2.5,1.7 -4.2,0.3 -5.8,-1.8 -4.5,-6 -9.8,-10.9 -18,-10.8 -4.9,0.1 -8.9,2.3 -11.9,6.1 -2.4,3.1 -3.1,6.6 -0.9,10 1.5,2.3 3.3,4.4 5.2,6.4 2.4,2.4 6.2,2.6 9,0.6 1.1,-0.8 2.3,-1.6 3.6,-2.2 2.6,-1.1 4.8,-0.2 6.3,2.1 1.4,2.3 0.7,4.4 -1.3,5.7 -2.1,1.4 -4.4,2.5 -6.7,3.5 -3,1.3 -5.7,6.2 -4.9,10 0.7,3.3 3.4,4.5 6.3,4.5 2.3,0 4.6,-0.6 3.6,-3.9 -0.8,-2.7 0,-4.6 2.8,-5.4 2.9,-0.8 6.4,0.7 6.9,3.3 0.3,1.6 0.2,3.7 -0.5,5.2 -4.5,9.6 -17.1,11.2 -23.9,3 -3.5,-4.1 -2.8,-9 -1.5,-13.6 0.8,-2.9 -0.2,-3.8 -2.1,-5.6 -3.4,-3 -6.8,-6.4 -9,-10.3 -4.6,-8.1 -1.8,-17.6 6.7,-23 3.8,-2.4 8.6,-3.5 12.9,-5.1 0,0.6 0.1,0.9 0.3,1.3 z"
   id="path51" />
	<path
   class="st1"
   d="M 62.4,96.7 C 50.9,96.3 44,90.2 38.1,82.3 c -1.4,-1.9 -1.8,-4.1 0.5,-5.7 2.5,-1.7 4.2,-0.3 5.8,1.8 4.6,6.2 10,11 18.3,10.8 4.8,-0.2 8.6,-2.4 11.5,-6.1 2.4,-3.1 3.2,-6.7 0.9,-10 C 73,70.1 70.3,67.5 67.6,65 66,63.5 64,63.6 62.1,65.2 c -1.6,1.4 -3.6,3 -5.6,3.2 -1.7,0.2 -4.1,-0.9 -5.4,-2.2 -1.7,-1.6 -1.1,-4 0.8,-5.3 2.2,-1.5 4.6,-2.7 7,-3.8 3.1,-1.3 5.7,-5.9 5,-9.9 -0.5,-3.2 -3.1,-4.3 -5.9,-4.6 -3.2,-0.4 -4.1,1.2 -4,4.3 0.1,1.6 -1.1,3.9 -2.5,4.8 C 49.2,53.1 45.3,51.4 44.4,49 44,47.9 43.8,46.4 44,45.3 45,40.1 51.8,35 57.5,35 c 6,0 12.8,5.1 13.4,10.5 0.3,2.9 0.2,6 -0.7,8.7 -0.9,2.7 0,3.8 2.1,5.2 2.2,1.5 4.2,3.4 5.9,5.5 4.9,6 7.7,12.5 3.5,20.1 -4.3,7.8 -11.2,11.6 -19.3,11.7 z"
   id="path53" />
</g></svg>
