<?xml version="1.0" encoding="UTF-8" standalone="no"?>
<svg
   xmlns:dc="http://purl.org/dc/elements/1.1/"
   xmlns:cc="http://creativecommons.org/ns#"
   xmlns:rdf="http://www.w3.org/1999/02/22-rdf-syntax-ns#"
   xmlns:svg="http://www.w3.org/2000/svg"
   xmlns="http://www.w3.org/2000/svg"
   xmlns:sodipodi="http://sodipodi.sourceforge.net/DTD/sodipodi-0.dtd"
   xmlns:inkscape="http://www.inkscape.org/namespaces/inkscape"
   version="1.1"
   id="Layer_1"
   inkscape:version="1.0.1 (3bc2e813f5, 2020-09-07)"
   sodipodi:docname="blackjack-balto-seselio.svg"
   x="0px"
   y="0px"
   viewBox="0 0 1349.5522 1152.8385"
   xml:space="preserve"
   width="1349.5522"
   height="1152.8385"><metadata
   id="metadata351"><rdf:RDF><cc:Work
       rdf:about=""><dc:format>image/svg+xml</dc:format><dc:type
         rdf:resource="http://purl.org/dc/dcmitype/StillImage" /><dc:title></dc:title></cc:Work></rdf:RDF></metadata><defs
   id="defs349"><filter
     style="color-interpolation-filters:sRGB"
     inkscape:label="Drop Shadow"
     id="filter375"><feFlood
       flood-opacity="1"
       flood-color="rgb(255,255,255)"
       result="flood"
       id="feFlood365" /><feComposite
       in="flood"
       in2="SourceGraphic"
       operator="in"
       result="composite1"
       id="feComposite367" /><feGaussianBlur
       in="composite1"
       stdDeviation="20"
       result="blur"
       id="feGaussianBlur369" /><feOffset
       dx="0"
       dy="0.299401"
       result="offset"
       id="feOffset371" /><feComposite
       in="SourceGraphic"
       in2="offset"
       operator="over"
       result="composite2"
       id="feComposite373" /></filter></defs>
<style
   type="text/css"
   id="style321">
	.st0{fill:#FEFEFE;}
	.st1{fill:#FE2020;}
</style>
<sodipodi:namedview
   bordercolor="#666666"
   borderopacity="1"
   fit-margin-bottom="0"
   fit-margin-left="0"
   fit-margin-right="0"
   fit-margin-top="0"
   gridtolerance="10"
   guidetolerance="10"
   id="namedview58"
   inkscape:current-layer="Layer_1"
   inkscape:cx="495.84724"
   inkscape:cy="632.45361"
   inkscape:document-rotation="0"
   inkscape:pageopacity="0"
   inkscape:pageshadow="2"
   inkscape:window-height="1027"
   inkscape:window-maximized="1"
   inkscape:window-width="1920"
   inkscape:window-x="-8"
   inkscape:window-y="-8"
   inkscape:zoom="0.40859556"
   objecttolerance="10"
   pagecolor="#ffffff"
   showgrid="false">
	</sodipodi:namedview>
<g
   id="g359"
   transform="rotate(-20,881.22866,-84.534661)"
   style="filter:url(#filter375)">
	<path
   id="path321"
   class="st0"
   d="M 539.6,809.5 H 39 C 17.5,809.5 0,792 0,770.5 V 39 C 0,17.5 17.5,0 39,0 h 500.6 c 21.5,0 39,17.5 39,39 v 731.5 c 0,21.5 -17.5,39 -39,39 z" />
	<path
   id="path323"
   class="st1"
   d="m 175.9,88.9 c 4.5,-5.1 8,-9.8 12.3,-13.8 9.6,-8.9 21.3,-9.3 30.6,-1.7 8.5,7.1 11.5,23.3 5.1,32.6 -3.7,5.4 -8.2,10.6 -13.4,14.7 -15.3,12.1 -26.2,27.3 -34.6,44.6 -0.9,1.8 -0.6,4.1 -1.4,6 -0.5,1.4 -1.7,3.3 -2.7,3.4 -1.2,0.1 -2.6,-1.4 -3.8,-2.4 -0.6,-0.5 -0.8,-1.5 -0.9,-2.3 -2.8,-13.1 -10.8,-23.3 -19.2,-33.2 -7.4,-8.7 -14.8,-17.3 -18,-28.9 -4,-14 6.2,-29.6 14.8,-34.5 8.2,-4.7 20.2,-0.8 26.7,8.6 1.4,2.1 2.7,4.2 4.5,6.9 z" />
	<path
   id="path329"
   class="st1"
   d="m 173.4,270.6 c 4.5,-5.1 8,-9.8 12.2,-13.7 9.6,-8.9 21.3,-9.4 30.6,-1.7 8.6,7.1 11.5,23.3 5.2,32.6 -3.7,5.4 -8.2,10.7 -13.4,14.7 -15.3,12.1 -26.2,27.3 -34.6,44.6 -0.9,1.8 -0.7,4.1 -1.4,6 -0.5,1.4 -1.6,3.3 -2.7,3.4 -1.2,0.1 -2.6,-1.4 -3.8,-2.4 -0.6,-0.5 -0.8,-1.5 -1,-2.3 -2.8,-13.1 -10.8,-23.3 -19.2,-33.2 -7.4,-8.7 -14.8,-17.3 -18,-28.9 -4,-14 6.1,-29.6 14.8,-34.5 8.2,-4.7 20.2,-0.8 26.7,8.6 1.5,2 2.8,4.1 4.6,6.8 z" />
	<path
   id="path333"
   class="st1"
   d="m 180.8,538.7 c -3.2,3.9 -5.8,7.4 -8.6,10.6 -6.6,7.5 -14.4,12 -24.8,9.6 -17.5,-3.9 -21.6,-27.4 -14.2,-37.5 3.7,-5 7.7,-10.1 12.5,-13.8 15.5,-12.1 26.7,-27.4 35.2,-44.9 0.6,-1.3 0.8,-2.8 1.4,-4.1 1,-2 2.2,-3.8 3.3,-5.8 1.4,1.8 3.7,3.5 4.2,5.5 2.5,10.2 8,18.7 14.3,26.8 6.1,7.9 12.8,15.4 18.3,23.8 8.9,13.6 6.4,30.5 -5.3,41.7 -9.3,9 -23.7,6.7 -31.7,-5.1 -1.3,-2 -2.7,-4 -4.6,-6.8 z" />
	<path
   id="path345"
   class="st1"
   d="m 59.4,140.7 c 2.6,-3 4.8,-5.8 7.1,-8.3 7.3,-7.8 17.3,-9.1 24.7,-3.4 7.4,5.7 9.5,18.7 3.7,26.6 -2.9,4 -6.5,7.6 -10.3,10.8 -12.2,10.3 -21.8,22.2 -26.5,37.7 -0.3,1 -1.5,2.3 -2.3,2.4 -0.9,0.1 -2.6,-1 -2.8,-1.9 -3.6,-15.9 -16.1,-26.1 -24.6,-38.7 -7.3,-10.9 -6.9,-21 0.6,-30.7 7.4,-9.6 17.4,-10 25.4,-0.8 1.6,1.9 3.1,3.8 5,6.3 z" />
	<path
   id="path349"
   class="st1"
   d="m 101.9,80.3 c -0.6,8.4 -3.2,16.4 -9.5,22.7 -7.6,7.6 -18.6,6.5 -24.6,-2.4 -5,-7.4 -7.8,-15.6 -7.2,-24.7 0.8,-12 9.1,-20.6 19.9,-20.8 11.8,-0.3 19.1,6.5 20.9,19.3 0.3,1.7 0.3,3.6 0.5,5.9 z m -9.2,0.1 c -0.4,-0.2 -0.9,-0.3 -1.3,-0.5 0,-1 0.1,-2.1 0,-3.1 C 90.8,68.6 87.5,65 80.6,65.3 c -5.7,0.3 -10.2,5.3 -9.5,12.4 0.5,5.4 2.4,10.9 4.6,16 2.3,5.2 7.6,5.5 10.7,0.6 2.7,-4.2 4.2,-9.2 6.3,-13.9 z" />
	<path
   id="path353"
   class="st1"
   d="m 49.1,81.1 c 0,6.3 0,12.5 0,18.8 0,3.7 -1.5,7.3 -5.6,6.5 -2,-0.4 -4.7,-4.3 -4.7,-6.5 0.1,-12.7 0.7,-25.5 1.8,-38.1 0.2,-2.2 3.3,-5.6 5.4,-5.9 3.8,-0.5 4.8,3 4.7,6.5 -0.1,6.3 0,12.5 0,18.8 -0.6,-0.1 -1.1,-0.1 -1.6,-0.1 z" />
</g>
<g
   id="g548"
   transform="rotate(-6,1619.8238,-3131.9477)"
   style="filter:url(#filter375)">
	<path
   id="path522"
   class="st0"
   d="M 539.6,809.5 H 39 C 17.5,809.5 0,792 0,770.5 V 39 C 0,17.5 17.5,0 39,0 h 500.6 c 21.5,0 39,17.5 39,39 v 731.5 c 0,21.5 -17.5,39 -39,39 z" />
	<path
   id="path524"
   d="m 172,166.8 c -6,2.5 -11.9,5.4 -18.1,7.3 -14.6,4.4 -32,-7 -33,-21.2 -1.2,-16.7 10.8,-27.9 27.2,-25.3 2.2,0.4 4.5,0.5 7.6,0.9 -0.8,-5.2 -1.7,-9.8 -2.2,-14.4 -1.2,-11.2 3.9,-20.7 13.4,-25.3 9.3,-4.5 24.4,-2.6 31.1,4.2 6.9,7 6.3,15.9 6,24.7 -0.1,2 -0.6,4 -0.9,6.2 4.3,0.3 8.6,-0.2 12.2,1.2 4.1,1.5 8.4,3.9 11.3,7.2 8.4,9.7 7.3,30.7 -1.9,39.4 -2.8,2.6 -7.2,4.4 -11.1,4.7 -10.5,0.9 -20.2,-2.2 -28.6,-8.8 -0.9,-0.7 -2,-1.3 -3.3,-2.1 -2,6.3 1.2,10.2 5,13.3 5,4 10.6,7.4 15.8,11.2 1.1,0.8 1.8,2.1 2.7,3.1 -1.2,1 -2.2,2.5 -3.6,2.8 -3.7,0.9 -7.6,1.8 -11.4,1.7 -10.4,-0.3 -20.8,-1 -31.2,-1.7 -1.4,-0.1 -3.9,-1.2 -4,-2 -0.2,-1.5 0.7,-3.6 1.8,-4.7 3.7,-3.7 8.1,-6.7 11.3,-10.7 2.5,-3.1 3.7,-7.3 5.5,-10.9 -0.5,-0.2 -1,-0.5 -1.6,-0.8 z" />
	<path
   id="path528"
   d="m 201.8,381.6 c 11.4,-1.8 20.5,0.6 25.7,10.7 6,11.4 4.4,27.9 -3.7,35.9 -2.9,2.8 -7.5,4.8 -11.5,5.2 -10.5,0.9 -20.2,-2.2 -28.6,-8.8 -0.9,-0.7 -2,-1.2 -3.3,-2 -2,6 0.9,9.8 4.6,12.9 4.8,4 10.2,7.2 15.2,11 1.4,1 2.5,2.6 3.7,3.9 -1.4,1 -2.7,2.5 -4.2,2.9 -3.3,0.9 -6.8,1.7 -10.2,1.6 -10.6,-0.3 -21.2,-1 -31.8,-1.8 -1.4,-0.1 -3.9,-1.2 -3.9,-2 -0.1,-1.5 0.7,-3.6 1.9,-4.7 3.8,-3.8 8.4,-7 11.7,-11.2 2.4,-2.9 3.3,-7 4.9,-10.5 -0.5,-0.2 -1,-0.5 -1.5,-0.7 -6,2.5 -11.9,5.4 -18.2,7.3 -14.5,4.3 -31.9,-7.1 -32.9,-21.3 -1.2,-16.7 10.9,-27.8 27.3,-25.2 2.2,0.3 4.5,0.5 7.5,0.8 -0.8,-5.2 -1.7,-9.8 -2.2,-14.5 -1.2,-11.2 4,-20.7 13.5,-25.2 9.4,-4.5 24.4,-2.6 31.1,4.3 6.8,7 6.3,15.9 6,24.7 -0.1,1.8 -0.6,3.8 -1.1,6.7 z" />
	<path
   id="path532"
   d="m 170.5,642.1 c 1.4,-5.8 -1.5,-9.7 -5.3,-12.7 -5.1,-4 -10.6,-7.4 -15.8,-11.2 -1.2,-0.9 -1.8,-2.5 -2.7,-3.7 1.1,-0.8 2.2,-2 3.4,-2.3 3.8,-0.8 7.6,-1.7 11.4,-1.6 10.4,0.3 20.8,1 31.2,1.7 1.4,0.1 3.9,1.1 4,1.9 0.2,1.5 -0.6,3.6 -1.7,4.7 -3.7,3.7 -8.1,6.7 -11.3,10.7 -2.5,3.1 -3.7,7.3 -5.5,11 0.5,0.3 1.1,0.6 1.6,0.9 6,-2.5 11.9,-5.4 18.1,-7.3 14.9,-4.4 32.3,7.2 33.1,21.7 0.9,16.4 -11.1,27.3 -27.2,24.7 -2.2,-0.4 -4.5,-0.6 -7.7,-1 0.8,5.3 1.7,9.8 2.2,14.5 1.2,11.3 -3.9,20.7 -13.4,25.3 -9.3,4.5 -24.4,2.7 -31.2,-4.1 -6.9,-6.9 -6.4,-15.9 -6.1,-24.7 0.1,-2 0.6,-4 1,-6.2 -4.2,-0.3 -8.3,-0.2 -12.2,-1 -7.6,-1.6 -12.6,-6.4 -14.8,-13.8 -3.2,-10.6 -3.3,-21 3.3,-30.6 3.3,-4.8 7.9,-7.3 13.8,-7.3 10.3,-0.1 19.8,2.5 28,9 0.7,0.5 1.3,1 2,1.5 0.4,0 0.9,-0.1 1.8,-0.1 z" />
	<path
   id="path536"
   d="m 65.8,188 c 1,10.4 12.7,12 19.9,20.2 -4.6,1 -8.2,2.5 -11.7,2.4 -8.3,-0.1 -16.6,-0.8 -24.9,-1.5 -1.3,-0.1 -3.2,-0.8 -3.5,-1.7 -0.3,-1 0.6,-2.8 1.5,-3.7 2.9,-3 6.4,-5.4 9,-8.6 1.8,-2.2 2.4,-5.2 4.1,-9 -6.4,2.6 -11.1,4.9 -16,6.2 -8.1,2.2 -17.7,-1.8 -22.5,-8.8 -4.9,-7.1 -2.7,-13.9 1.1,-20.5 3.3,-5.9 8.4,-8.4 15.2,-7.2 2.4,0.4 4.8,0.7 8.4,1.1 -2.6,-10.3 -5,-20.6 4.3,-27.6 4,-3 9.9,-5 14.8,-4.9 14.6,0.2 19.4,8.4 17.9,28.4 0.3,0.2 0.6,0.7 0.8,0.7 8.4,-0.7 15.6,1.4 18.9,9.9 3.7,9.5 3.7,19 -3.7,26.9 -2.1,2.3 -6.5,4.1 -9.4,3.6 -8,-1.2 -15.8,-3.7 -24.2,-5.9 z" />
	<path
   id="path540"
   d="m 55.1,78.5 c 9.6,-6.7 18.8,-5.6 27.5,1.5 8.2,6.8 7.9,14.5 -0.6,20.6 -14.4,10.2 -30.5,4.4 -35.5,-12.4 -3.1,-10.3 -2,-19.8 3.6,-28.8 5.4,-8.7 16.1,-11.2 24.5,-5.7 3.2,2.1 6,5 3.7,8.7 -2.5,4 -5.4,2.1 -8.9,-0.2 -2.1,-1.4 -6.6,-1.2 -8.9,0.2 -4.1,2.3 -6.2,9.9 -5.4,16.1 z m 23.4,11.9 c -5.8,-9 -12.9,-9.1 -20.4,-0.4 4.7,7.9 13.2,8.1 20.4,0.4 z" />
</g>
<g
   id="g55"
   transform="rotate(10,-158.41478,4097.6224)"
   style="filter:url(#filter375)">
	<path
   id="path39"
   class="st0"
   d="m 39,0 c 166.7,0 333.5,0 500.2,0 21.5,0 39,17.5 39,39 v 731.5 c 0,21.5 -17.5,39 -39,39 H 39 C 17.5,809.5 0,792 0,770.5 0,526.7 0,282.8 0,39 0,17.5 17.5,0 39,0 Z" />
	<path
   id="path41"
   class="st1"
   d="m 281.2,472 c -1.1,-9.3 -3.1,-17.9 -9,-27.1 -44.9,-61.1 -6.6,-19.9 11.9,-95.6 2.5,-5.3 1.6,-15.6 9.9,-15.1 6,1 5.4,2.8 6.3,9.4 6.6,64.1 38.8,55.7 29,70 -17.5,16 -36.3,32.5 -36.8,58.7 0,11.8 -13.2,13.6 -11.9,-0.3 0.3,0 0.4,0 0.6,0 z" />
	<path
   id="path43"
   class="st1"
   d="m 298.8,591.4 c 22.1,87.4 51.1,27.4 6.4,96.9 -8.3,14.9 -8.5,39.8 -18.1,39.3 -10.5,-0.9 -9.5,-38.5 -16,-46.4 -4.7,-16.1 -26.8,-23.4 -19.8,-30.3 45.4,-34.5 35.9,-91 48.6,-59.8 -0.4,0.2 -0.7,0.3 -1.1,0.3 z" />
	<path
   id="path45"
   class="st1"
   d="m 250.2,156.4 c 23.1,-32.1 26.9,-43.8 38.2,-73.5 14.1,-11.2 10.5,58.7 36.4,67 2.7,2.1 4.5,4.6 1.7,7.5 -26.9,23.7 -33,34.6 -38.4,64.6 -10.3,12.2 -6.4,-15.3 -37.9,-65.6 0,0 0,0 0,0 z" />
	<path
   id="path47"
   class="st1"
   d="m 520.4,684.7 c -6.7,-13.9 -4.6,-36.3 -21.1,-46.7 -9,-6.5 18.9,-15.5 27.5,-52.7 38.1,89.6 23.1,15.2 -0.2,94.3 -0.6,1.8 -1.3,5 -6.2,5.1 z" />
	<path
   id="path49"
   class="st1"
   d="M 83.2,174.3 C 74.1,183 65,198.3 56,216 c -1.5,3 -5.9,2.8 -7.1,-0.3 -31.2,-77 -24,-6 5.2,-88.8 0.4,-1 1.1,-1.9 2.1,-2.3 8.4,-3.3 8.9,34.2 27,49.7 0,0 0,0 0,0 z" />
	<path
   id="path51"
   class="st1"
   d="m 517.5,712.1 c 9,-1.9 34.7,18.8 19.7,20.5 -9.1,-10.3 -21.2,-19.8 -32.5,-7 -5.7,6 2.2,19.8 11.5,17.9 5.4,-5.8 19.5,-2.1 8.2,6 -10.2,2 -14.6,19.6 -0.1,16 -0.8,-12.1 15.1,-11.8 8.7,1.8 -20.4,18 -24.3,-2.6 -26.4,-18.1 -19.8,-16.2 -11.1,-33.4 10.6,-38.4 0,0.6 0.1,0.9 0.3,1.3 z" />
	<path
   id="path53"
   class="st1"
   d="M 62.4,96.7 C 52.4,98.5 26.7,78 41.8,76.1 52.1,89.1 70.5,97 76.5,77.2 66.3,49.6 58.5,77.7 50.2,64.5 c 0.6,-4 28.9,-20.9 4.6,-21 -1.9,3.2 0,10.3 -7.3,8.3 -14.7,-11.6 18.1,-24.9 23,-8.3 3.4,4.4 -3.8,11.3 1.9,15.9 19.7,13.3 10.4,36.6 -10,37.3 z" />
</g>
</svg>
