<?xml version="1.0" encoding="UTF-8" standalone="no"?>
<svg
   xmlns:dc="http://purl.org/dc/elements/1.1/"
   xmlns:cc="http://creativecommons.org/ns#"
   xmlns:rdf="http://www.w3.org/1999/02/22-rdf-syntax-ns#"
   xmlns:svg="http://www.w3.org/2000/svg"
   xmlns="http://www.w3.org/2000/svg"
   xmlns:sodipodi="http://sodipodi.sourceforge.net/DTD/sodipodi-0.dtd"
   xmlns:inkscape="http://www.inkscape.org/namespaces/inkscape"
   version="1.1"
   x="0px"
   y="0px"
   viewBox="0 0 979.14945 1004.593"
   xml:space="preserve"
   id="svg1955"
   sodipodi:docname="pacman2.svg"
   width="979.14948"
   height="1004.5928"
   inkscape:version="1.0.1 (3bc2e813f5, 2020-09-07)"><metadata
   id="metadata1961"><rdf:RDF><cc:Work
       rdf:about=""><dc:format>image/svg+xml</dc:format><dc:type
         rdf:resource="http://purl.org/dc/dcmitype/StillImage" /><dc:title></dc:title></cc:Work></rdf:RDF></metadata><defs
   id="defs1959"><filter
     style="color-interpolation-filters:sRGB"
     inkscape:label="Drop Shadow"
     id="filter2093"><feFlood
       flood-opacity="1"
       flood-color="rgb(255,255,255)"
       result="flood"
       id="feFlood2083" /><feComposite
       in="flood"
       in2="SourceGraphic"
       operator="in"
       result="composite1"
       id="feComposite2085" /><feGaussianBlur
       in="composite1"
       stdDeviation="29.9401"
       result="blur"
       id="feGaussianBlur2087" /><feOffset
       dx="0"
       dy="0.299401"
       result="offset"
       id="feOffset2089" /><feComposite
       in="SourceGraphic"
       in2="offset"
       operator="over"
       result="composite2"
       id="feComposite2091" /></filter></defs><sodipodi:namedview
   pagecolor="#ffffff"
   bordercolor="#666666"
   borderopacity="1"
   objecttolerance="10"
   gridtolerance="10"
   guidetolerance="10"
   inkscape:pageopacity="0"
   inkscape:pageshadow="2"
   inkscape:window-width="1920"
   inkscape:window-height="1027"
   id="namedview1957"
   showgrid="false"
   inkscape:zoom="1.000266"
   inkscape:cx="429.13539"
   inkscape:cy="145.93817"
   inkscape:window-x="-8"
   inkscape:window-y="-8"
   inkscape:window-maximized="1"
   inkscape:current-layer="svg1955" />
<style
   type="text/css"
   id="style1911">
	.st0{display:none;}
	.st1{display:inline;}
	.st2{fill:url(#SVGID_1_);}
	.st3{enable-background:new    ;}
	.st4{fill:#FEB701;}
	.st5{fill:#FED700;}
	.st6{fill:#FEE856;}
</style>
<g
   id="Layer_1"
   class="st0"
   transform="translate(81.617533,83.609938)">
	<g
   class="st1"
   id="g1936">
		<radialGradient
   id="SVGID_1_"
   cx="150.4214"
   cy="391.0213"
   r="313.5"
   fx="33.945"
   fy="262.61441"
   gradientUnits="userSpaceOnUse">
			<stop
   offset="7.777166e-02"
   style="stop-color:#FFFF94"
   id="stop1913" />
			<stop
   offset="0.1573"
   style="stop-color:#FFFF75"
   id="stop1915" />
			<stop
   offset="0.2824"
   style="stop-color:#FFFF4C"
   id="stop1917" />
			<stop
   offset="0.4044"
   style="stop-color:#FFFF2B"
   id="stop1919" />
			<stop
   offset="0.5207"
   style="stop-color:#FFFF13"
   id="stop1921" />
			<stop
   offset="0.6292"
   style="stop-color:#FFFF05"
   id="stop1923" />
			<stop
   offset="0.7218"
   style="stop-color:#FFFF00"
   id="stop1925" />
			<stop
   offset="0.821"
   style="stop-color:#FBFB01"
   id="stop1927" />
			<stop
   offset="0.9111"
   style="stop-color:#F0F005"
   id="stop1929" />
			<stop
   offset="0.9896"
   style="stop-color:#E0E00A"
   id="stop1931" />
		</radialGradient>
		<circle
   class="st2"
   cx="150.39999"
   cy="391"
   r="313.5"
   id="circle1934"
   style="fill:url(#SVGID_1_)" />
	</g>
</g>
<g
   id="Layer_2"
   transform="translate(81.617533,83.609938)"
   style="filter:url(#filter2093)">
	<g
   id="Untitled-2.psd_1_">
		<g
   id="Artboard_1_1_"
   class="st3">
			<g
   id="g1947">
				<path
   class="st4"
   d="m 491.9,833.5 c -24,1 -79,10 -154.8,-4 C 156.6,791.8 23.5,647.2 0.6,473.3 l 0.3,0.3 c -9,-146 49.4,-273.5 110,-338.4 0.6,-0.6 1.4,-1.1 2,-1.7 -0.4,1.9 -0.5,4 -1.1,5.8 -5.1,16 -9.3,32.2 -13.2,48.5 -5.9,25 -9.6,50.4 -10.6,75.8 -1.2,30.5 -3.4,60.9 -3.5,91.5 -0.1,31 1.8,92.4 8.4,122.4 6.3,28.7 45.9,114.2 63,138 12.3,17.2 137.7,10.8 155,23 14.3,10.1 46.3,48.1 62,56 17,8.5 77,26.6 94,35 21.6,10.7 -34,68.9 -12,79 7.8,3.6 31,18.2 37,25"
   id="path1939" />
				<path
   class="st5"
   d="m 65.9,358.5 c 0,167.6 28,307 426,475 l 0.2,0.1 c 138.8,-25.1 206,-72.3 277.2,-162.8 1.2,-1.5 13.4,-14.1 13.6,-16.3 -5.9,-0.7 -11.6,-12.9 -16,-16 -25.9,-18.1 -48.8,-26.6 -73,-47 -20.2,-17 -53.3,-23 -74.8,-38.2 -19.3,-13.7 -38.7,-27.2 -58.3,-40.4 -23.8,-16.1 -48.7,-30.6 -72.5,-46.9 -1.4,-1 -3.3,-1.6 -3.5,-3.7 -27.2,-12.7 -55.6,-22.4 -83.9,-35 3.2,-2.1 5.3,-3.6 7.5,-5 106.7,-67.6 224.7,-141.2 331.4,-208.8 -2.3,-8.5 -9.1,-16.3 -14,-23 -19.4,-26.6 -27.2,-35.5 -52,-57 21.8,-8.4 -28.1,-34.4 -36,-40 C 598.3,65.3 545.2,53.5 503,29.2 488.6,20.9 472,17.5 456.7,11.1 448.7,7.7 439.8,6.2 432.8,0.6 c -12,-1 -23.9,-0.3 -35.8,0.5 -75.2,4.8 -144.6,27.5 -208.1,68 -28.1,17.9 -54.1,38.6 -76.7,63.2 -0.4,0.4 -0.9,0.9 -1.3,1.3 0,0 0,0 0,0 -53,170.9 -44.4,223.1 -45,224.9"
   id="path1941" />
				<path
   class="st6"
   d="m 730.9,219.5 c -64,-86 -131.9,-145.5 -273,-206 -8,-3.4 -21,-9 -32,-13 18.2,-1.1 45.3,1.3 63.2,3.8 50,7.1 97.6,22.3 142.3,46 60.2,31.9 110.3,75.4 149.9,131.1 2.3,3.3 2.6,4.7 -1.2,7 -16.6,10.2 -33,20.7 -49.5,31.1"
   id="path1943" />
				<path
   class="st6"
   d="m 481.9,468.5 c -1.4,-1 -13.8,-11.9 -14,-14 18.1,5.9 54.4,21.5 72,28.6 90.3,36.5 180.5,73.1 270.9,109.5 5.9,2.4 6.2,4.6 3.5,9.9 -10.8,20.9 -22.8,41 -36.7,60.1 -0.9,1.2 -1.6,2.7 -3.2,3.2 C 768.3,665 486.3,471.6 481.9,468.5"
   id="path1945" />
			</g>
		</g>
	</g>
	<circle
   cx="399.39999"
   cy="223"
   r="45.5"
   id="circle1951" />
</g>
<g
   id="Layer_3"
   transform="translate(81.617533,83.609938)">
</g>
</svg>
