<?xml version="1.0" encoding="utf-8"?>
<!-- Generator: Adobe Illustrator 24.0.0, SVG Export Plug-In . SVG Version: 6.00 Build 0)  -->
<svg version="1.1" xmlns="http://www.w3.org/2000/svg" xmlns:xlink="http://www.w3.org/1999/xlink" x="0px" y="0px"
	 viewBox="0 0 815.9 837.3" style="enable-background:new 0 0 815.9 837.3;" xml:space="preserve">
<style type="text/css">
	.st0{display:none;}
	.st1{display:inline;}
	.st2{fill:url(#SVGID_1_);}
	.st3{enable-background:new    ;}
	.st4{fill:#FEB701;}
	.st5{fill:#FED700;}
	.st6{fill:#FEE856;}
</style>
<g id="Layer_1" class="st0">
	<g class="st1">
		<radialGradient id="SVGID_1_" cx="150.4214" cy="391.0213" r="313.5" fx="33.945" fy="262.6144" gradientUnits="userSpaceOnUse">
			<stop  offset="7.777166e-02" style="stop-color:#FFFF94"/>
			<stop  offset="0.1573" style="stop-color:#FFFF75"/>
			<stop  offset="0.2824" style="stop-color:#FFFF4C"/>
			<stop  offset="0.4044" style="stop-color:#FFFF2B"/>
			<stop  offset="0.5207" style="stop-color:#FFFF13"/>
			<stop  offset="0.6292" style="stop-color:#FFFF05"/>
			<stop  offset="0.7218" style="stop-color:#FFFF00"/>
			<stop  offset="0.821" style="stop-color:#FBFB01"/>
			<stop  offset="0.9111" style="stop-color:#F0F005"/>
			<stop  offset="0.9896" style="stop-color:#E0E00A"/>
		</radialGradient>
		<circle class="st2" cx="150.4" cy="391" r="313.5"/>
	</g>
</g>
<g id="Layer_2">
	<g id="Untitled-2.psd_1_">
		<g id="Artboard_1_1_" class="st3">
			<g>
				<path class="st4" d="M491.9,833.5c-24,1-79,10-154.8-4C156.6,791.8,23.5,647.2,0.6,473.3l0.3,0.3c-9-146,49.4-273.5,110-338.4
					c0.6-0.6,1.4-1.1,2-1.7c-0.4,1.9-0.5,4-1.1,5.8c-5.1,16-9.3,32.2-13.2,48.5c-5.9,25-9.6,50.4-10.6,75.8
					c-1.2,30.5-3.4,60.9-3.5,91.5c-0.1,31,1.8,92.4,8.4,122.4c6.3,28.7,45.9,114.2,63,138c12.3,17.2,137.7,10.8,155,23
					c14.3,10.1,46.3,48.1,62,56c17,8.5,77,26.6,94,35c21.6,10.7-34,68.9-12,79C462.7,812.1,485.9,826.7,491.9,833.5"/>
				<path class="st5" d="M65.9,358.5c0,167.6,28,307,426,475l0.2,0.1c138.8-25.1,206-72.3,277.2-162.8c1.2-1.5,13.4-14.1,13.6-16.3
					c-5.9-0.7-11.6-12.9-16-16c-25.9-18.1-48.8-26.6-73-47c-20.2-17-53.3-23-74.8-38.2c-19.3-13.7-38.7-27.2-58.3-40.4
					c-23.8-16.1-48.7-30.6-72.5-46.9c-1.4-1-3.3-1.6-3.5-3.7c-27.2-12.7-55.6-22.4-83.9-35c3.2-2.1,5.3-3.6,7.5-5
					c106.7-67.6,224.7-141.2,331.4-208.8c-2.3-8.5-9.1-16.3-14-23c-19.4-26.6-27.2-35.5-52-57c21.8-8.4-28.1-34.4-36-40
					C598.3,65.3,545.2,53.5,503,29.2c-14.4-8.3-31-11.7-46.3-18.1c-8-3.4-16.9-4.9-23.9-10.5c-12-1-23.9-0.3-35.8,0.5
					c-75.2,4.8-144.6,27.5-208.1,68c-28.1,17.9-54.1,38.6-76.7,63.2c-0.4,0.4-0.9,0.9-1.3,1.3c0,0,0,0,0,0
					C57.9,304.5,66.5,356.7,65.9,358.5"/>
				<path class="st6" d="M730.9,219.5c-64-86-131.9-145.5-273-206c-8-3.4-21-9-32-13c18.2-1.1,45.3,1.3,63.2,3.8
					c50,7.1,97.6,22.3,142.3,46c60.2,31.9,110.3,75.4,149.9,131.1c2.3,3.3,2.6,4.7-1.2,7c-16.6,10.2-33,20.7-49.5,31.1"/>
				<path class="st6" d="M481.9,468.5c-1.4-1-13.8-11.9-14-14c18.1,5.9,54.4,21.5,72,28.6c90.3,36.5,180.5,73.1,270.9,109.5
					c5.9,2.4,6.2,4.6,3.5,9.9c-10.8,20.9-22.8,41-36.7,60.1c-0.9,1.2-1.6,2.7-3.2,3.2C768.3,665,486.3,471.6,481.9,468.5"/>
			</g>
		</g>
	</g>
	<circle cx="399.4" cy="223" r="45.5"/>
</g>
<g id="Layer_3">
</g>
</svg>
