<?xml version="1.0" encoding="UTF-8" standalone="no"?>
<svg
   xmlns:dc="http://purl.org/dc/elements/1.1/"
   xmlns:cc="http://creativecommons.org/ns#"
   xmlns:rdf="http://www.w3.org/1999/02/22-rdf-syntax-ns#"
   xmlns:svg="http://www.w3.org/2000/svg"
   xmlns="http://www.w3.org/2000/svg"
   xmlns:sodipodi="http://sodipodi.sourceforge.net/DTD/sodipodi-0.dtd"
   xmlns:inkscape="http://www.inkscape.org/namespaces/inkscape"
   version="1.1"
   x="0px"
   y="0px"
   viewBox="0 0 2127.3936 2201.7813"
   xml:space="preserve"
   id="svg170"
   sodipodi:docname="ruletekopai2.svg"
   width="2127.3936"
   height="2201.7812"
   inkscape:version="1.0.1 (3bc2e813f5, 2020-09-07)"><metadata
   id="metadata176"><rdf:RDF><cc:Work
       rdf:about=""><dc:format>image/svg+xml</dc:format><dc:type
         rdf:resource="http://purl.org/dc/dcmitype/StillImage" /><dc:title></dc:title></cc:Work></rdf:RDF></metadata><defs
   id="defs174"><filter
     style="color-interpolation-filters:sRGB"
     inkscape:label="Drop Shadow"
     id="filter298"><feFlood
       flood-opacity="1"
       flood-color="rgb(255,255,255)"
       result="flood"
       id="feFlood288" /><feComposite
       in="flood"
       in2="SourceGraphic"
       operator="in"
       result="composite1"
       id="feComposite290" /><feGaussianBlur
       in="composite1"
       stdDeviation="19.7605"
       result="blur"
       id="feGaussianBlur292" /><feOffset
       dx="0"
       dy="0.299401"
       result="offset"
       id="feOffset294" /><feComposite
       in="SourceGraphic"
       in2="offset"
       operator="over"
       result="composite2"
       id="feComposite296" /></filter></defs><sodipodi:namedview
   pagecolor="#ffffff"
   bordercolor="#666666"
   borderopacity="1"
   objecttolerance="10"
   gridtolerance="10"
   guidetolerance="10"
   inkscape:pageopacity="0"
   inkscape:pageshadow="2"
   inkscape:window-width="1920"
   inkscape:window-height="1027"
   id="namedview172"
   showgrid="false"
   inkscape:zoom="0.45639079"
   inkscape:cx="653.80006"
   inkscape:cy="997.10708"
   inkscape:window-x="-8"
   inkscape:window-y="-8"
   inkscape:window-maximized="1"
   inkscape:current-layer="svg170" />
<style
   type="text/css"
   id="style2">
	.st0{fill:#413735;}
	.st1{fill:#110C0E;}
	.st2{fill:#D17D44;}
	.st3{fill:#443937;}
	.st4{fill:#403635;}
	.st5{fill:#537822;}
	.st6{fill:#95291D;}
	.st7{fill:#A92E20;}
	.st8{fill:#4A3F3C;}
	.st9{fill:#140D0C;}
	.st10{fill:#5E504C;}
	.st11{fill:#7AB330;}
	.st12{fill:#E33C28;}
	.st13{fill:#D7784F;}
	.st14{fill:#0C080B;}
	.st15{fill:#EEEEEE;}
</style>

<g
   id="g286"
   style="filter:url(#filter298)"
   transform="translate(177.28279,183.49333)"><g
     id="Layer_2_xA0_Image_1_">
	<g
   id="g6">
		<path
   class="st0"
   d="M 0,968.7 C 1.3,944.3 1.8,909.1 5.4,874.2 9.1,838.3 15,802.6 21.4,767.1 25.3,745.2 31.5,723.6 37.2,702 41.5,685.6 46.4,669.2 51.7,653.1 56.4,638.9 61.9,625 67.3,611 73,596.5 78.9,582.1 85,567.7 c 2.3,-5.4 5.2,-10.5 7.7,-15.9 2.3,-5.1 4.3,-10.3 6.6,-15.4 4.7,-10.2 9.1,-20.5 14.6,-30.3 6.6,-12 14.3,-23.3 21.2,-35.1 3.6,-6.2 6.4,-12.9 9.9,-19.2 1.8,-3.3 4.5,-6.2 6.5,-9.5 3.2,-5.2 6,-10.6 9.2,-15.8 1.9,-3.1 4.4,-5.9 6.6,-8.8 0.5,-0.6 1.1,-1.1 1.5,-1.8 3.2,-5.1 6.3,-10.2 9.7,-15.2 1.7,-2.5 3.8,-4.8 5.5,-7.3 1.8,-2.5 3.4,-5.2 5,-7.8 1.1,-1.7 1.8,-3.7 3,-5.3 7.2,-9.2 14.7,-18.1 21.8,-27.3 4.8,-6.2 9,-12.9 13.8,-19.1 3.4,-4.4 7.5,-8.3 11.3,-12.3 7.7,-8.3 15.6,-16.4 23.2,-24.8 3.9,-4.3 7.5,-9 11.2,-13.6 0.4,-0.5 0.6,-1.1 1.1,-1.5 7,-6.7 14,-13.3 20.9,-20 8.9,-8.5 17.6,-17.3 26.8,-25.4 16.2,-14.3 32.6,-28.5 49.2,-42.3 9.2,-7.7 18.8,-15 28.7,-21.8 22,-15.1 44.1,-30.1 66.6,-44.4 13.5,-8.6 27.6,-16.6 42,-23.7 C 533.3,91.8 558.1,79.4 583.6,69 611.9,57.4 640.8,46.9 670,37.8 718.8,22.6 769,13.1 819.9,7.7 882.5,1.1 945,1.8 1007.4,10.3 c 32,4.3 63.6,10.6 94.8,18.8 32.4,8.6 64.3,18.8 95.1,32.1 21.4,9.2 42.6,18.9 63.3,29.4 16.3,8.2 32.1,17.4 47.7,27 16.7,10.3 33.3,21 49.3,32.3 15.9,11.3 31.2,23.4 46.3,35.6 11.1,9 21.8,18.7 32.3,28.4 11,10.3 21.9,20.8 32.4,31.7 10.9,11.3 21.5,22.9 31.7,34.9 11.2,13.1 22.1,26.5 32.5,40.3 10.9,14.6 21.5,29.5 31.4,44.7 11.1,17.1 21.4,34.7 31.8,52.2 5.5,9.4 10.6,19 15.5,28.8 5.7,11.4 11.2,22.9 16.5,34.6 5.4,11.9 10.7,23.9 15.5,36.1 5.8,14.8 11.5,29.6 16.6,44.7 5.9,17.4 11.5,34.9 16.4,52.7 5.8,21.4 10.7,43 15.9,64.5 9.5,39.4 12.4,79.6 16.6,119.7 2.9,28.4 3.3,56.8 3.1,85.3 -0.1,17.1 -0.3,34.2 -2.1,51.2 -3.7,35 -7.4,70 -13.1,104.7 -4.6,28.3 -11.6,56.3 -18.4,84.2 -4.2,17.3 -9.5,34.3 -15,51.2 -5.2,16.3 -11,32.5 -16.9,48.6 -4.7,12.7 -9.9,25.2 -15.3,37.7 -5.2,12.2 -10.7,24.2 -16.3,36.2 -4.6,9.7 -9.4,19.3 -14.3,28.8 -5.7,10.9 -11.4,21.8 -17.4,32.6 -4.5,8.2 -9.2,16.3 -14.1,24.2 -10.9,17.4 -21.7,35 -33.2,52 -10,14.8 -20.7,29.3 -31.6,43.5 -10.4,13.6 -21.3,26.9 -32.3,39.9 -10.1,11.9 -20.6,23.4 -31.3,34.7 -10.6,11.2 -21.5,22.1 -32.6,32.8 -9.7,9.4 -19.8,18.5 -30,27.4 -10.7,9.3 -21.4,18.6 -32.6,27.3 -15.6,12.1 -31.4,24.1 -47.6,35.5 -15.6,10.9 -31.3,21.8 -47.7,31.3 -26.4,15.2 -53.1,29.9 -80.3,43.5 -20.4,10.2 -41.5,19 -62.7,27.3 -47.8,18.6 -96.9,32.7 -147.3,42.1 -50.6,9.5 -101.7,14.2 -153.2,14 -13.5,-0.1 -26.9,0 -40.4,-0.4 -7.9,-0.3 -15.9,-1.4 -23.8,-2.1 -5.9,-0.6 -11.8,-1.1 -17.7,-1.9 -15.3,-1.9 -30.6,-3.7 -45.9,-6 -10.4,-1.6 -20.7,-4.2 -31,-6.3 -12.8,-2.6 -25.7,-4.9 -38.5,-7.8 -6.6,-1.5 -12.9,-4.1 -19.3,-6.2 -2.5,-0.8 -5.1,-1.4 -7.6,-2.2 -2.5,-0.7 -5,-1.5 -7.5,-2.3 -3,-1 -5.9,-2 -8.9,-3.1 -7.8,-2.7 -15.6,-5.3 -23.4,-8.2 -12,-4.4 -24,-8.9 -36,-13.6 -4.5,-1.8 -8.7,-4.2 -13,-6.3 -1.8,-0.9 -3.6,-1.9 -5.5,-2.7 -13.5,-6.4 -27.1,-12.7 -40.5,-19.1 -6.7,-3.2 -13.5,-6.2 -19.9,-10.1 -11.8,-7.1 -23.4,-14.5 -34.8,-22.1 -16.4,-10.9 -32.7,-21.8 -48.6,-33.3 -11.4,-8.2 -21.9,-17.5 -33.1,-26 -17.3,-13.1 -33.2,-27.9 -48.3,-43.4 -10,-10.2 -20.4,-20.2 -30.1,-30.7 -11.8,-12.9 -23.2,-26 -34.2,-39.5 -10.4,-12.8 -20.5,-25.9 -30,-39.3 -11.4,-16.1 -22.3,-32.7 -33.1,-49.2 -5.5,-8.5 -10.6,-17.3 -15.5,-26.1 -5.6,-9.9 -10.9,-19.9 -16.1,-30.1 -5.5,-10.8 -10.9,-21.7 -16,-32.8 -5.7,-12.5 -11.3,-25 -16.5,-37.7 -5.5,-13.5 -10.9,-27.2 -15.7,-41 C 50.1,1268.7 44.5,1251.9 39.7,1235 34,1214.9 29.3,1194.5 23.8,1174.3 14.7,1140.5 11.7,1105.7 6.8,1071.2 2.3,1040.9 2.1,1010.1 0,968.7 Z"
   id="path4" />
	</g>
</g><g
     id="Layer_1_xA0_Image_1_">
	<g
   id="g167">
		<path
   class="st1"
   d="m 61.7,976.2 c -0.1,-39.1 0.5,-74.7 5,-110 4.3,-34.4 8,-69 15.7,-102.9 4.9,-21.6 9.4,-43.4 15.8,-64.6 5.2,-17.2 8.6,-34.9 15.4,-51.5 5.4,-13.2 8.6,-27.1 14.8,-39.9 6.7,-14.1 11.8,-28.8 17.8,-43.2 2.2,-5.4 4.7,-10.8 7.4,-16 2.6,-5 3.7,-10.9 6.9,-15.8 6.2,-9.5 8.7,-20.8 14.7,-30.2 7.3,-11.4 13.5,-23.4 20.8,-34.8 4.1,-6.3 6.9,-13.3 10.3,-20.1 1.5,-3 3.2,-5.8 5.8,-8.3 4.5,-4.2 6.6,-10.2 9.3,-15.7 1.7,-3.5 3.1,-7.2 6.9,-9.2 0.6,-0.3 1.3,-1.1 1.5,-1.8 1.9,-7 7.7,-11.5 10.8,-17.8 0.6,-1.2 1.3,-2.4 2.5,-3.3 3.2,-2.3 5.7,-5.2 6.9,-9.2 0.4,-1.5 1.2,-3 2.2,-4.1 8,-9 14.4,-19.2 21.9,-28.4 5,-6.1 10.6,-11.8 14.8,-18.9 2.8,-4.8 7.9,-8.6 11.6,-13.2 6.9,-8.6 14.7,-16.3 22.4,-24.2 4,-4.1 8.2,-8.4 11.4,-13.4 0.3,-0.5 0.6,-1.2 1,-1.6 10.6,-9 19.3,-19.9 29.6,-29.1 11.3,-10 22.1,-20.6 33.5,-30.6 15.9,-13.9 32.6,-27.1 49.4,-40 15.4,-11.7 31.2,-22.9 47.2,-33.6 15.4,-10.3 31.2,-20.1 47.3,-29.4 32.4,-18.6 65.7,-35.3 100.2,-49.5 24,-9.9 48.2,-19.1 73,-27 C 754.6,26.4 794.4,16.9 835,10.4 876.6,3.8 918.7,0.2 961,0 c 35.3,-0.2 70.4,2.2 105.4,6.8 45.3,5.9 89.7,15.9 133.2,29.6 19.5,6.2 38.8,13.2 57.7,21 22.1,9.1 43.7,19.2 65,30.1 15.7,8 30.8,17.2 46,26.1 17.2,10.2 34,21 50.1,32.7 15.7,11.5 31.3,23.1 46.3,35.6 11,9.2 21.6,18.8 32.3,28.4 11.2,10.1 22.1,20.5 32.4,31.6 10.8,11.6 21.6,23.2 32,35.2 11.2,12.9 21.8,26.3 32.2,39.9 11,14.5 21.4,29.5 31.4,44.7 11.3,17.2 21.7,34.8 32.1,52.6 5.4,9.3 9.6,19.2 15.1,28.4 6.6,11 10.7,23.2 16.6,34.5 6.3,11.9 10,24.9 15.9,36.9 6.9,14.1 10.4,29.4 16.2,43.8 7,17.1 10.7,35.2 16.4,52.6 6.9,21.3 10.6,43.3 15.9,65 6.4,25.9 9.1,52.3 12.6,78.6 1.5,11.5 1.8,23.1 3.3,34.6 4,31 3.9,62.1 3.6,93.2 -0.2,16.8 -0.4,33.6 -2.1,50.2 -4,40 -7.4,80.1 -15.2,119.5 -4.6,23.4 -9.3,46.9 -16.5,69.7 -5,15.9 -8.3,32.4 -14,48 -6.2,17 -10.9,34.6 -17.8,51.2 -5.2,12.4 -9,25.3 -15,37.2 -6.1,12 -10.1,24.9 -16.6,36.6 -5,9.2 -8.7,19 -13.8,28 -6.2,11 -11.3,22.6 -17.9,33.3 -4.9,8 -8.9,16.4 -13.9,24.3 -11,17.4 -21.7,34.9 -33.2,51.9 -9.9,14.7 -20.5,29 -31.3,43 -10.6,13.8 -21.6,27.4 -32.8,40.6 -9.8,11.5 -20,22.6 -30.3,33.6 -10.9,11.5 -22.1,22.8 -33.5,33.9 -8.8,8.5 -18,16.7 -27.2,24.8 -16.7,14.8 -34,28.8 -51.5,42.5 -8.9,7 -18.3,13.5 -27.6,20 -23.3,16.3 -47,31.8 -71.7,45.9 -13,7.4 -26.2,14.6 -39.5,21.4 -23.3,12 -47.1,22.9 -71.5,32.7 -18.1,7.3 -36.4,14.1 -55,20.2 -34.1,11.1 -68.8,20 -104,26.6 -52.5,9.9 -105.4,14.5 -158.8,14 -11.9,-0.1 -23.9,0.2 -35.6,-0.7 -13.3,-1 -26.8,-1.6 -40.1,-3.5 -16.6,-2.4 -33.4,-4.1 -50,-6.8 -8.6,-1.4 -17.1,-2.9 -25.6,-4.8 -5.6,-1.2 -11,-3.5 -17,-3.3 -2.8,0.1 -5.7,-1.4 -8.5,-2.4 -4.5,-1.5 -9,-2.8 -13.7,-3 -0.8,0 -1.7,0 -2.3,-0.4 -3.6,-2.8 -8.6,-2 -12.2,-3.8 -7.5,-3.8 -16.2,-3.3 -23.3,-7.8 -0.7,-0.4 -1.4,-0.7 -2.2,-0.8 -24.5,-5.7 -47,-17 -70.2,-26.1 -10.3,-4.1 -21.1,-8 -30.9,-14.1 -7.5,-4.7 -16.3,-7.8 -24.3,-12 -6.9,-3.7 -14.2,-6.9 -20.4,-11.8 -0.9,-0.7 -1.7,-1.6 -2.7,-1.8 -7.4,-1.6 -12.7,-6.9 -18.7,-10.7 -14.4,-9.3 -29.2,-18 -43,-28.3 -12.1,-9 -24.6,-17.6 -36.5,-26.9 -9.2,-7.2 -17.9,-15 -26.9,-22.5 -11.6,-9.7 -22.3,-20.3 -33.2,-30.9 -11.2,-10.9 -22.1,-22 -32.7,-33.4 -11,-11.9 -21.6,-24.1 -31.8,-36.7 -10.7,-13.2 -21,-26.6 -30.9,-40.4 -11.4,-15.8 -22.1,-32 -32.4,-48.5 -11.4,-18 -21.6,-36.7 -31.5,-55.6 -5.9,-11.2 -10.4,-23 -16.5,-34 -6.4,-11.7 -10,-24.6 -15.9,-36.4 -6.9,-13.8 -10.5,-28.7 -16.4,-42.7 -6.3,-14.9 -9.8,-30.6 -14.9,-45.8 -7.3,-21.7 -11.4,-44.1 -17.2,-66.1 -8.3,-31.7 -11.3,-64.3 -16,-96.6 -5.1,-32.8 -5.7,-66.2 -6.8,-96.2 z m 47.9,196.2 c 0.3,1.6 0.6,3.1 0.9,4.7 1.3,7.3 4,14.3 5.6,21.5 3.8,16.9 6.1,34.1 11.2,50.7 1.7,5.6 5.6,10 7.3,15.6 4.5,14.5 7.6,29.5 14.4,43.4 5.7,11.9 9.7,24.6 16.3,36.2 4.8,8.6 7.5,18.5 12.9,26.6 6.7,10 12,20.7 18.4,30.8 6.9,10.7 11.1,23 17.7,34.1 4.9,8.3 8.4,17.2 14.6,24.9 8,9.9 15,20.7 22,31.4 2.2,3.3 4.4,3.5 7.3,2.3 1.7,-0.7 3.2,-1.9 4.6,-3.2 4.2,-3.7 8.6,-7.3 12.7,-11.1 13.9,-12.6 28.2,-24.7 42.2,-37.1 17.7,-15.6 36,-30.7 53.7,-46.4 15.7,-14 31.4,-28.1 47.4,-41.8 2.8,-2.4 3.4,-4.9 0.4,-8.3 -3.8,-4.1 -8.6,-7.1 -11.5,-12.2 -4.9,-8.5 -10,-16.9 -14.2,-25.8 -1.8,-3.8 -3.5,-7.9 -6.2,-11 -8.7,-10.1 -13.6,-22.3 -19.1,-34.1 -6.7,-14.4 -12.4,-29.3 -19.9,-43.4 -2.2,-11.8 -5.3,-23.4 -9.1,-34.8 -0.2,-1.6 0.3,-3.4 -2,-3.9 -1,-4 -2.1,-8 -3.1,-12 0.2,-0.8 0,-1.4 -0.7,-1.9 -1,-5.2 -1.9,-10.6 -4.2,-15.3 -4.2,-8.5 -7.2,-17.5 -10,-26.6 -2.7,-8.8 -5,-17.7 -7.6,-26.6 -1.1,-3.7 -2.9,-5.9 -7.5,-4.5 -34.1,10.3 -68.3,20.1 -102.2,31 -26.7,8.6 -53.5,17.3 -80.2,26 -3.6,0.8 -7.3,1.4 -10.9,2.3 -1.9,0.5 -4.3,1.6 -3.9,3.9 1,4.9 -0.2,10.1 2.7,14.6 z M 911.5,44.9 c 0.9,6.6 1.9,13.3 2.6,19.9 3.2,28.2 6.9,56.3 11,84.3 0.2,2.8 0.4,5.6 0.6,8.4 0.5,6 4.1,8.9 10,8.4 12.9,-1.1 25.9,-1.8 38.8,-1.8 16.4,-0.1 32.8,0.2 49.2,1.5 15.2,1.2 30.5,2.7 45.5,5.3 14.9,2.6 29.9,4.3 43.8,11.1 10.7,5.2 22.6,7.2 34.1,9.9 7.8,1.9 16.1,1.6 23.8,4.7 2.4,1 3.1,-0.5 3.7,-2.2 1.6,-4.3 2.8,-8.6 3.2,-13.2 1.5,-3.7 3.5,-7.2 4.5,-11.1 6.2,-22.2 12.2,-44.4 19.3,-66.3 3.2,-10.1 5.5,-20.4 7.3,-30.8 1.8,-1.7 2,-4.2 2.8,-6.3 1.5,-4.2 0.3,-6.7 -4.3,-7.9 -5.7,-1.5 -11.8,-2.6 -16.9,-5.4 -12.1,-6.5 -26.4,-6.3 -38.4,-12.8 -0.8,-0.4 -1.8,-0.4 -2.7,-0.6 -12.7,-2.4 -25.4,-4.8 -38.2,-7.2 -17.6,-3.3 -35.2,-7.1 -52.9,-9.6 -19.2,-2.7 -38.7,-2.1 -58,-2.7 -21.4,-0.7 -42.9,-0.5 -64.3,0.1 -7.9,0.2 -16,-0.5 -23.7,2 -3.9,-0.1 -4.9,2 -4.3,5.4 0.5,3.1 1,6.1 1.5,9.2 0.7,2.6 -1.3,5.8 2,7.7 z m 633.1,1426 c 4.9,-2.3 8.9,-5.9 9,-11.3 0.1,-4.7 -3.8,-7.5 -8.3,-8.8 -6.5,-9.8 -15.7,-17.2 -23.6,-25.8 -11.7,-12.7 -23.8,-25 -36.1,-37.2 -4.1,-4 -7.6,-8.8 -12.6,-11.8 -2.4,-4.5 -6.7,-7.3 -10.1,-10.9 -1.5,-1.6 -2.4,-0.2 -3.3,1 -8.2,10.8 -16.9,21.1 -25.7,31.4 -10.6,12.3 -20.9,24.8 -32.5,36.1 -10.2,9.9 -20.9,19.2 -31,29.2 -15.4,15.1 -32,28.8 -49.4,41.5 -9.1,6.6 -18,13.6 -27.3,19.7 -13.9,9.2 -28.2,17.9 -42.5,26.5 -3.5,2.1 -4.2,4.3 -3,8 4,12.5 7.8,25 13.1,37 4.7,10.7 7.7,22.2 11.8,33.1 5,13.6 10.7,26.9 15,40.8 1.8,5.8 3.7,11.5 6.5,17 1.4,2.8 2.7,4 5.7,2.2 3.9,-2.4 7.9,-4.4 11.7,-6.8 19.3,-12.7 38.3,-25.7 57,-39.2 15.3,-11 30.3,-22.4 44.5,-34.9 6.5,-5.8 13,-11.7 19.8,-17.1 8.3,-6.6 16.8,-13 24.2,-20.6 7.7,-7.8 14.9,-16 22.3,-24 5.4,-5.8 11.9,-10.5 15.9,-17.6 9.1,-7.5 17.1,-16.3 25,-25 4.3,-4.7 8.1,-9.8 12.3,-14.6 4.5,-5.4 9.2,-10.9 11.6,-17.9 z M 300.3,796.2 c 0.8,-3.1 1.8,-6.2 2.1,-9.5 0.3,-3.4 -0.9,-5 -4.3,-5.9 -4.9,-1.3 -9.8,-0.8 -14.7,-0.5 -2.1,-0.7 -4.1,-1.7 -6.2,-2 -14.7,-2.3 -29.5,-4.4 -44.3,-6.6 -16.4,-2.5 -32.8,-5.2 -49.3,-7.4 -13.9,-1.9 -27.6,-4.4 -41.5,-6.1 -6.2,-0.8 -12.5,0.7 -18.5,-1.7 -2.8,-1.4 -5.7,-2.4 -8.8,-2.7 -3.4,-0.3 -5.4,0.8 -5.9,4.3 -0.8,5.4 -2.8,10.5 -4.1,15.8 -3.4,14.3 -4.3,29.1 -7.6,43.5 -5,21.5 -4.6,43.7 -6.6,65.5 -0.9,9.5 -1.1,19 -2.1,28.5 -1.6,14.6 -2.2,29.3 -2.1,43.9 0.1,11.9 -0.1,24 1.2,36 1.7,15.7 1.1,31.6 1.2,47.4 0,3 0,5.9 0.5,8.9 2.3,12.8 3.1,25.9 5.7,38.8 2.3,11.6 2.6,23.7 6.1,35.2 0.8,2.5 0.9,5.2 1.4,7.8 0.3,1.9 1.1,2.5 3.2,1.9 6.8,-2.1 13.8,-3.9 20.7,-5.8 8.2,-1.3 15.5,-5.3 23.5,-7.4 17.9,-4.6 35.6,-10.3 53.2,-15.9 18.8,-6 37.7,-11.7 56.5,-17.6 8,-2.5 16.3,-4.1 23.8,-7.9 7,-0.7 13.2,-3.6 19.4,-6.6 2.1,-1 2.1,-2.8 2.2,-4.7 0.5,-8.3 -0.4,-16.6 -2.8,-24.5 -5,-16.8 -8.1,-33.8 -8.8,-51.4 -0.3,-6.4 -0.1,-12.8 -0.9,-19.2 -1.5,-10.4 -0.9,-20.9 -1.2,-31.3 -0.2,-6.7 0.1,-13.6 0.3,-20.4 0.6,-18.9 -0.4,-37.9 1.3,-56.7 0.5,-5.4 0.5,-10.9 1.1,-16.3 1.2,-11.8 2.4,-23.5 4.4,-35.2 0.7,-4.8 1.3,-9.5 1.9,-14.2 z m 1441.5,-2.9 c 1.7,-0.3 3.4,-0.6 5.1,-0.8 4.7,-0.6 6,-2 5.1,-6.8 -0.6,-3.1 -0.7,-6.2 -0.9,-9.3 0.8,-4.5 -0.9,-8.7 -0.9,-13.1 0.7,-7.3 -1.7,-14.2 -2.7,-21.2 -1.7,-11.5 -2.6,-23.2 -5.1,-34.6 -2,-9.2 -2.9,-18.6 -5.2,-27.8 -3,-12.6 -5.2,-25.3 -8.1,-37.9 -2.3,-10 -5.7,-19.7 -8.7,-29.4 -5.3,-17.1 -9.6,-34.5 -15.8,-51.2 -5.9,-15.7 -10.9,-31.8 -18,-47 -2.6,-5.6 -4,-11.8 -7.5,-17.1 -3.9,-5.9 -6.6,-6.3 -11.4,-0.9 -7.3,1.7 -13.2,6.2 -19.6,9.8 -18.4,10.5 -37,20.8 -55.2,31.8 -10.2,6.1 -20.6,11.8 -31,17.4 -6.8,3.7 -7.5,6.4 -2.8,12.8 3.1,4.2 6.8,8.1 8,13.6 1.2,5.7 3.4,11 5.7,16.3 2.6,6 3.7,12.6 5.8,18.8 4.2,12.2 10.3,23.7 12.4,36.6 0.6,3.7 1,7.5 2.2,11 3.9,11 7.5,22.1 9.9,33.5 2.3,11.1 3.7,22.4 6.1,33.6 0.7,3.2 2.8,5.8 3,9.2 0.5,11.3 4,22.2 4.2,33.7 0.2,7.9 2.5,16 3.5,24 0.5,4.3 2.4,6.1 7.1,5.8 11,-0.8 22.1,-1.9 33.1,-2.9 12.1,-1.1 24.2,-1.9 36.4,-3.1 14.9,-1.6 30.1,-3.3 45.3,-4.8 z m -819.2,990.3 c 0.4,-1.2 0.9,-2.4 1,-3.6 1.3,-16.9 2.3,-33.8 3.5,-50.6 1.1,-15.7 2,-31.4 3,-47.1 0.6,-10.1 0.7,-20.2 1,-30.3 0.3,-2.9 0.6,-5.9 1,-8.8 1,-7.3 0.2,-7.9 -7.2,-9.1 -12.6,-2 -25.4,-1.8 -37.9,-1.4 -27.3,0.8 -53.2,-6.2 -79.6,-10.8 -8,-1.4 -15.3,-5.4 -23,-7.8 -12.7,-3.9 -26.1,-5.2 -38.5,-9.8 -24.5,-9.2 -49.1,-18.4 -72.7,-29.8 -1.8,-0.9 -3.8,-1.5 -5.7,-2.1 -1.9,-0.5 -3.4,0 -4.2,2 -2.7,6.8 -6.8,13 -9.6,19.7 -7.7,19 -17,37.2 -26,55.5 -7.2,14.7 -13.3,29.8 -21.2,44.2 -4.5,8.2 -8,17 -10.9,25.9 -2.8,5.3 -6.8,10 -8.2,16.1 -8.2,10.4 -4.9,14.1 4,18.3 2.2,1 4.8,1.1 7.3,1.6 8.8,5.2 18.4,8.4 28,11.7 21.1,7.4 42.6,13.4 64.4,18.7 34.8,8.4 69.9,15.7 105.6,18.5 22,1.7 43.9,7.3 66.2,3.7 0.6,0.8 1.3,0.8 1.9,0 0.6,0 1.2,0 1.8,0 0.7,0.7 1.3,0.8 1.9,-0.1 8.1,-0.2 16.3,-0.3 24.4,-0.5 2.9,1.7 5.8,2.4 8.5,-0.4 0.6,0 1.2,0 1.8,0 0.7,0.7 1.3,0.7 1.9,-0.1 0.6,0 1.2,-0.1 1.9,-0.1 3.4,0.6 6.7,1.3 10.2,0.9 2.3,-0.3 4.9,-0.8 4.9,-3.9 -0.1,-6.9 1.2,-13.7 0.5,-20.5 z M 276,754.7 c 0.6,0.8 1.2,0.9 1.9,0.2 2.2,0.6 4.3,1 6.6,0.8 0.6,0.9 1.2,0.8 1.9,0.1 0.9,0 1.9,0.1 2.8,0.1 4.6,1.1 9.3,2.3 13.9,3.4 2.6,0.6 4.2,-0.2 4.7,-2.9 0.9,-4.6 2.2,-9 2,-13.7 6.1,-15.7 8.3,-32.5 14.1,-48.4 5.7,-15.8 9.2,-32.3 15.1,-48.1 6.2,-16.3 12.6,-32.5 19.5,-48.6 3.8,-8.7 6.8,-17.9 11.2,-26.3 6.8,-12.9 14.6,-25.3 21.8,-38.1 2.7,-4.8 4.6,-9.9 7.4,-14.6 4.9,-8.5 10,-16.9 13.6,-26 3.2,-2.6 5.6,-6 7.4,-9.5 4.3,-8.6 7.3,-7.8 -3.6,-14.7 -0.1,-0.1 -0.2,-0.2 -0.4,-0.3 -17.5,-13.7 -35.7,-26.7 -53.8,-39.7 -16.3,-11.7 -32.7,-23.4 -48.6,-35.7 -8.1,-6.3 -16,-12.9 -25.2,-17.9 -2.8,-1.5 -4.7,-0.9 -6.4,1.5 -2.3,3.5 -4.2,7.4 -6.9,10.6 -8.2,9.6 -15.4,19.9 -22.8,30.1 -6.3,8.7 -11.5,18.2 -17.5,27.1 -7.7,11.4 -14,23.5 -19.8,36 -1,2.3 -2.3,4.4 -3.6,6.5 -6,9.5 -12.5,18.6 -17.7,28.6 -5.8,11.1 -10.4,22.7 -15.6,34 -6.3,13.7 -11.7,27.9 -18,41.6 -4,8.8 -6.2,18.4 -11.4,26.7 -8.7,14.1 -13.5,29.4 -13.8,46 -5.7,13.6 -10.5,27.5 -14.6,41.6 -1,3.6 -1.7,7.3 -1.2,11 -0.8,2.6 -1.9,5.2 -2.5,7.9 -1.3,5.6 0,7.4 5.7,8.7 2.4,0.5 4.6,-0.7 6.9,-0.3 3.7,1.4 7.5,2.4 11.4,2.5 0.5,0.7 1.1,0.9 1.9,0.4 12,1.8 24,3.6 36,5.3 22.6,3.3 45.3,6.7 67.9,10 9.9,1.5 19.8,2.8 29.7,4.1 z m 1310.5,369.6 c -3.8,6.8 -6.3,14.2 -8.9,21.4 -5.4,14.8 -9.3,30 -16.1,44.4 -5.4,11.5 -9.9,23.5 -15.9,34.9 -6.2,11.7 -11.7,23.8 -17.8,35.5 -9.3,17.8 -17.5,36 -30.4,51.9 -7.6,9.4 -12.8,20.6 -20.3,30.3 -2.2,2.8 -1.4,5.4 0.5,8.1 3.4,4.9 8.3,8.4 12.3,12.8 12.5,13.5 25.5,26.5 38.4,39.7 9.8,10.1 19.5,20.1 29.3,30.2 2.2,2.2 4.3,4.5 7,6.2 2,1.2 3.5,1.1 4.9,-0.7 10.8,-13.5 21,-27.5 30.2,-42.1 4.6,-7.4 8.2,-15.3 13.3,-22.5 9.7,-13.8 17.7,-28.7 25,-43.9 1,-2.1 1.9,-4.3 3.2,-6.2 7.9,-11.6 13.3,-24.6 19.9,-37 7.3,-13.9 12.8,-28.7 18.6,-43.3 4.2,-10.7 10.4,-20.7 13.6,-31.8 3.1,-10.8 6.9,-21.4 10.3,-32.1 1.6,-5 5.1,-9.4 4.6,-15 1.6,-1.5 1.7,-3.7 2.1,-5.6 1.7,-6.7 1.1,-7.6 -5.5,-9.8 -1.9,-0.7 -3.7,-1.7 -5.6,-2.4 -20.3,-7.5 -40.6,-15 -60.9,-22.5 -14.3,-5.3 -28.7,-10.6 -43,-15.9 -3,-1.1 -4.6,-0.7 -5.3,2.7 -1,4 -2.3,8.3 -3.5,12.7 z M 1476.6,277.1 c -4.5,3.2 -7.7,7.8 -11,12 -10.7,13.6 -21.5,27.1 -32.6,40.3 -4.8,5.7 -8.6,12.2 -14,17.5 -2.6,2.5 -2.5,5.8 0.9,8 1.5,1 2.4,2.4 3.6,3.6 4.7,4.6 8.2,10.2 12.9,14.8 6.4,6.1 12.1,12.9 18.4,19.2 5.7,5.7 9.7,12.9 14.5,19.4 11.4,15.2 22.1,30.9 32.6,46.8 9.3,13.9 16.9,28.7 25.2,43.2 6.7,11.7 13.7,23 18.7,35.6 1.1,2.7 3,3.1 5.7,1.9 11,-4.9 21.4,-10.9 31.8,-16.9 9.2,-5.3 18,-11.3 27.4,-16.3 18.4,-9.9 36.4,-20.6 54.6,-30.9 2.2,-1.3 2.8,-2.5 1.7,-4.9 -3.3,-7 -6.3,-14.1 -10.3,-20.9 -6.3,-10.9 -11.7,-22.4 -18.3,-33.2 -4.3,-7 -8.1,-14.4 -12.4,-21.4 -10.4,-17.1 -21.5,-33.6 -33.5,-49.5 -5.8,-7.7 -11.1,-15.8 -16.8,-23.6 -9.8,-13.3 -19.3,-26.7 -30.2,-39.2 -7.9,-9 -16.4,-17.6 -25.1,-25.9 -1.8,-1.7 -3.5,-3.6 -6.1,-4.1 -0.7,-1.2 -1.2,-2.5 -2,-3.6 -1.8,-2.5 -3.6,-5.5 -6.7,-6.2 -3,-0.7 -3.6,3 -5.3,4.6 -9.1,8.8 -16.4,19.2 -23.7,29.7 z m 265.2,536.2 c -9.7,0.6 -19.3,1.1 -29,2 -18.8,1.7 -37.6,3.5 -56.4,5.4 -10.1,1 -20.2,2.2 -30.3,3.3 -2.1,0.2 -4,0.5 -3.9,3.5 0.3,7.4 -0.2,14.8 0.5,22.1 1.2,12.1 0.1,24.2 1,36.4 0.9,11.3 -0.9,22.8 -1.5,34.2 -0.6,10 -0.8,20 -2,29.9 -2.9,24.6 -4.3,49.4 -10,73.6 -2.2,9.1 -3.6,18.4 -5.2,27.6 -1.9,11.1 -5.6,21.8 -7.4,32.9 -0.5,3.1 0.4,4.4 3,5.3 4.1,1.4 8.2,3 12.3,4.5 24.8,9 49.5,18.6 74.3,27.5 7.1,2.6 13.8,6.8 21.7,7 1.8,1.1 3.6,2.4 5.6,3.2 1.8,0.7 3.9,0.8 4.6,-1.6 1.5,-4.6 3.3,-9.2 4,-14 0.3,-0.6 0.6,-1.1 0.8,-1.7 5.1,-22.6 11.4,-45 15.6,-67.9 2.9,-16.1 5.6,-32.3 7.8,-48.6 3.4,-24.4 4.2,-49.1 7.5,-73.5 1.9,-14.1 -0.6,-28.4 1.9,-42.5 0.1,-0.6 -0.2,-1.2 -0.2,-1.9 0,-10 0.2,-20 0.1,-29.9 -0.1,-7.9 0.3,-15.9 -1.5,-23.8 0,-2.9 0.1,-5.9 0,-8.8 -0.2,-4.2 -2.3,-5.9 -6.4,-5.3 -2.4,0.3 -4.6,0.7 -6.9,1.1 z M 313.2,921.8 c 0.7,39.2 1.9,78.4 9.4,117.2 5.1,26.5 8.5,53.3 16.3,79.3 5.7,18.8 9.5,38.1 17.3,56.3 5.3,12.5 8.8,25.6 14.8,37.9 6,12.4 10.2,25.5 16.9,37.6 5.5,10.1 9.9,20.8 15.5,30.9 10.2,18.3 20.9,36.1 32.7,53.4 9.8,14.4 20,28.6 30.8,42.3 10.9,13.9 22.2,27.4 34.2,40.3 9.6,10.3 19.4,20.2 29.6,29.9 10.9,10.3 22.1,20.3 33.6,29.8 10,8.2 20.3,16 30.8,23.7 20.3,14.9 41.6,28.2 63.7,40.3 20.7,11.4 42,21.5 63.9,30.4 26.3,10.7 53.2,19.3 80.7,26.1 31.2,7.8 62.9,12.9 95,15.1 45.2,3.1 90.2,1.4 134.9,-5.6 8,-1.3 16.4,-0.7 24.1,-3.2 9.1,-3 18.4,-5.2 27.6,-7.5 28.9,-7.2 57.1,-16.5 84.6,-27.9 19.6,-8.1 38.9,-17.1 57.6,-27.2 23.4,-12.5 46,-26.4 67.9,-41.4 10.5,-7.2 20.9,-14.8 30.9,-22.7 11.6,-9.2 23,-18.8 34,-28.6 10.4,-9.4 20.6,-19.1 30.4,-29.1 10.9,-11.2 21.5,-22.6 31.7,-34.4 10.8,-12.5 21.3,-25.3 31.1,-38.6 11.3,-15.3 21.9,-31.1 32.5,-46.9 5.6,-8.3 10,-17.2 15.5,-25.6 6.4,-9.9 11.1,-20.9 17.2,-31.1 5.5,-9.2 9.1,-19.4 14.3,-28.9 6.4,-11.8 10.4,-24.7 16.1,-36.9 6.5,-13.8 10.4,-28.7 16,-43 6.5,-16.6 10.3,-34 15.6,-51 7.4,-23.9 10.9,-48.7 15.9,-73.2 4.4,-21.5 6.3,-43.4 7.9,-65.3 2.4,-33.7 4.7,-67.6 2.3,-101.3 -2.5,-34.6 -4.6,-69.3 -12.2,-103.3 -5.2,-23 -8.9,-46.3 -15.8,-68.9 -5.4,-17.5 -9.8,-35.2 -16.8,-52.1 -5.5,-13.4 -9.1,-27.5 -15.7,-40.6 -5.9,-11.7 -9.8,-24.3 -16.3,-35.8 -5.8,-10.1 -9.9,-21.1 -16.4,-31 -5.8,-8.9 -10.3,-18.5 -15.9,-27.5 -7.4,-11.9 -15.5,-23.4 -23.1,-35.2 -1.8,-2.9 -3.8,-5.8 -5.9,-8.5 -11.9,-15 -23.2,-30.5 -36.2,-44.6 -8.8,-9.5 -16.6,-20.1 -26.2,-28.7 -12.9,-11.5 -24.8,-24.1 -38.1,-35.2 -14.9,-12.3 -29,-25.5 -45.3,-36.2 -16.5,-10.8 -32.7,-21.9 -49.8,-31.8 -14.9,-8.6 -30.1,-16.5 -45.7,-23.8 -27,-12.7 -54.7,-23.2 -83.2,-31.8 -32,-9.6 -64.6,-16.2 -97.8,-20 -32.6,-3.7 -65.2,-4.8 -98,-3 -32.4,1.7 -64.4,6.3 -96.2,13.2 -29.6,6.5 -58.4,15.3 -86.6,26.1 -14.7,5.6 -29.2,11.9 -43.6,18.5 -29.5,13.4 -57.3,29.9 -84.5,47.5 -15.9,10.3 -31,21.6 -45.8,33.4 -17.3,13.8 -33.9,28.5 -49.8,44 -10.5,10.2 -20.8,20.7 -30.6,31.6 -11.4,12.6 -22.4,25.6 -32.9,38.9 -10.4,13.1 -20.5,26.4 -29.7,40.3 -11.7,17.5 -22.5,35.6 -33.4,53.6 -5.3,8.8 -8.9,18.6 -15.1,26.9 -7.4,9.8 -9.6,21.9 -15.3,32.5 -6.4,11.9 -10.3,25.1 -15.9,37.5 -6.7,14.9 -11.1,30.8 -16.7,46.2 -6.2,16.8 -10.1,34.5 -14.8,51.8 -8.2,30 -13.2,60.8 -17.5,91.6 -5.1,34 -6.9,68.6 -6.5,103.3 z m 332.2,642.6 c 0.1,-3.3 -2,-4 -3.5,-4.7 -13,-6.2 -24.6,-14.6 -36.5,-22.5 -18.8,-12.5 -38.3,-24.1 -55,-39.7 -4.5,-4.2 -9.3,-8.3 -14.2,-12.1 -8.8,-6.8 -16.9,-14.3 -24.7,-22 -9.6,-9.5 -18.2,-20.2 -28.2,-29.3 -9.7,-8.9 -18.1,-18.8 -25.4,-29.7 -0.9,-1.3 -1.8,-2.6 -2.9,-3.7 -7.5,-7 -12.8,-15.5 -18.1,-24.2 -2.9,-4.8 -4.7,-5.1 -8.9,-1.2 -3.2,3 -6.1,6.3 -9.4,9.1 -11.9,10.3 -24.1,20.3 -35.9,30.6 -12.1,10.6 -23.8,21.6 -36.1,32 -14.6,12.3 -28.6,25.4 -43.5,37.5 -10.3,8.3 -19.7,17.7 -30,26.1 -5.3,4.3 -5.5,7.5 -0.4,11.2 3.6,2.6 6,6.4 9.2,9.3 9.6,8.7 18,18.6 27.8,27.1 12.1,10.6 22.7,22.8 33.6,34.6 6.1,6.7 12.5,13 18.5,19.8 8.1,9.1 17,17.4 26.9,24.6 7.9,5.7 16.2,10.5 24.9,14.9 9,4.4 15.4,12.4 23.9,17.8 9,5.7 17.4,12.2 26.1,18.2 8.6,5.9 18.2,10.1 26.7,16.2 12,8.6 26.5,12.6 38.6,20.8 8.3,5.6 17.2,9.9 26.4,13.7 3.9,1.6 6.1,1.2 8.2,-2.9 5.4,-10.6 9.8,-21.6 15.6,-32 6.3,-11.2 10.7,-23.5 16.6,-35.1 6.5,-12.8 13.3,-25.4 19.5,-38.4 4.9,-10.3 9.6,-20.6 14.6,-30.9 4.4,-9.1 7.3,-18.9 13,-27.4 1.3,-2.3 1.8,-5.6 2.6,-7.7 z M 663.2,247.7 c -0.4,-0.9 -0.8,-1.6 -1.1,-2.4 -2,-5.7 -5.3,-10.6 -8.3,-15.7 -5,-8.6 -9.1,-17.7 -14.1,-26.3 -12,-20.8 -23,-42.2 -34.7,-63.2 -4.4,-7.9 -7.8,-16.3 -13.4,-23.6 -1.8,-2.4 -3.3,-2.4 -5.5,-1.2 -3.8,2.1 -7.8,4 -11.5,6.2 -14.3,8.4 -28.5,16.8 -42.7,25.3 -13,7.8 -26,15.4 -38.7,23.6 -15.9,10.4 -30.2,22.9 -45.1,34.7 -13.8,11 -26.3,23.5 -39.9,34.6 -7.6,6.3 -14.5,13.3 -21.7,20 -7.4,6.9 -15.2,13.5 -22.2,20.8 -7.7,7.9 -14.8,16.4 -22.1,24.7 -8.3,9.5 -16.6,19 -24.8,28.5 -3.7,4.2 -7.2,8.6 -11,12.7 -6.6,7.2 -8.8,8.3 0.8,13.3 0.1,0.1 0.2,0.2 0.4,0.3 10.5,8.6 21.6,16.3 32.6,24.2 11.6,8.4 23,17 34.5,25.5 16,11.8 32,23.6 48.2,35.3 4.3,3.1 8.2,6.6 13.1,8.9 2.2,1 3.3,0.8 4.6,-1.1 2.9,-4.3 5.7,-8.6 8.9,-12.6 6.3,-7.9 13.4,-15.2 19,-23.6 6.8,-10.2 14.7,-19.4 23.1,-28.1 13,-13.6 25.6,-27.8 39.8,-40.2 10.4,-9 20.2,-18.6 30.8,-27.3 10.3,-8.5 21,-16.5 31.9,-24.3 20.9,-14.9 42.4,-29.1 63.8,-43.3 2.3,-1.5 4.5,-3.2 5.3,-5.7 z M 967.6,1635 c -3.8,0 -7.5,0 -11.3,0 -2.6,0 -4.1,1.3 -4.3,4 -0.3,3.4 -0.8,6.8 -0.9,10.2 -0.4,17.3 -1.8,34.6 -2.8,51.9 -0.9,15.1 -1.1,30.3 -2.2,45.4 -0.4,5.8 -0.5,11.5 -1,17.3 -1.1,12.5 -1.8,24.9 -1.7,37.4 0,2.6 1.2,3.2 3.4,3.2 3.4,-0.1 6.9,-0.7 10.2,-0.8 22.3,-1 44.2,-4.9 66.2,-8.8 23,-4.1 45.5,-10.7 68.5,-14.8 10.6,-1.9 20.6,-6.4 30.7,-10 20.3,-7.2 40.4,-15 60.4,-23 20,-8 39.3,-17.7 58.6,-27.2 5.8,-2.8 10.7,-7 16.7,-9.3 6.1,-2.3 11.6,-6.1 16.9,-9.9 1.2,-0.8 3,-1.4 1.4,-3.6 -3.5,-4.6 -3.6,-10.6 -5.5,-15.9 -1.4,-4 -1.7,-8.5 -3.5,-12.5 -4.1,-9.1 -7.5,-18.4 -10.7,-27.9 -4.3,-13.1 -8.8,-26.2 -14,-38.9 -4.6,-11 -7.1,-22.7 -11.8,-33.6 -1.5,-3.6 -3.3,-4.5 -6.8,-2.7 -10.4,5.2 -21,10.1 -31.4,15.3 -11.2,5.5 -23.1,9.3 -34.8,13.5 -23.1,8.2 -45.6,17.9 -69.8,22.8 -18.8,3.9 -37.6,7.4 -56.4,10.7 -21.3,3.9 -42.5,6.7 -64.1,7.2 z M 907.7,165 c -1.4,-7.1 -1,-14.4 -2.1,-21.5 -4.4,-27.2 -6.1,-54.8 -11.6,-81.8 -1.9,-9.6 -3.6,-19.3 -4.2,-29.2 -0.3,-6.3 -2.9,-8.1 -8.8,-7.4 -16.3,2 -32.5,3.7 -48.7,6.5 -23.7,4 -47.1,9.4 -70.4,15.2 -24.7,6.2 -48.7,14.7 -72.8,23.1 -25,8.6 -49.3,18.8 -73.2,30 -7,3.3 -6.9,3.4 -3.6,10.2 9.4,19.2 19.8,37.9 30.8,56.2 5.2,8.7 9.2,18 14.3,26.8 7.1,12.2 13.6,24.9 20.6,37.3 4.7,8.3 4.6,8.6 13.4,4.7 0.1,-0.1 0.3,-0.1 0.4,-0.2 26.8,-13.8 55,-23.7 83.6,-32.8 22.2,-7 44.3,-14.3 67,-19.8 20,-4.8 40,-10.1 60.2,-14 2.1,-0.2 5.3,0.4 5.1,-3.3 z m 285.1,33.9 c -0.3,3.3 0.8,4.8 3.2,5.8 23.2,8.9 45,20.9 67.4,31.5 11.2,5.3 21.3,12.3 31.6,19 17.2,11.1 35.1,21.3 51.2,34.2 10.6,8.4 21.3,16.7 31.4,25.7 7.4,6.5 14.3,13.5 21.3,20.4 1.9,1.9 3.2,2.1 5.4,0.2 7.5,-6.1 12.2,-14.6 18.4,-21.7 10.3,-11.8 19.8,-24.4 29.7,-36.6 11.8,-14.6 23.4,-29.5 35.5,-44 2.7,-3.3 2.8,-6.7 -0.3,-9.6 -4.8,-4.4 -9,-9.9 -14.9,-12.8 -9.2,-4.6 -16.1,-12.2 -24,-18.3 -10.8,-8.3 -21.4,-17 -32.4,-25.2 -4.2,-3.1 -8.4,-6.4 -12.9,-9.2 -8.6,-5.4 -17.9,-9.7 -25.6,-16.3 -10.2,-8.7 -20.9,-16.8 -33.1,-22.6 -7.7,-3.7 -15.8,-7 -23.1,-11.3 -10.2,-6 -20.5,-11.7 -31.6,-16 -18.3,-7.3 -36.5,-14.7 -54.7,-22.1 -1.9,-0.8 -4,-1.4 -4.7,1 -0.6,2.2 -2.2,3.7 -2.7,5.9 -5.7,21.4 -11.6,42.7 -18.2,63.7 -4.8,15.3 -7.5,31.2 -13.5,46.1 -1.8,4.1 -2.5,8.6 -3.4,12.2 z"
   id="path9" />
		<path
   class="st2"
   d="m 313.2,921.8 c -0.4,-34.7 1.5,-69.3 6.2,-103.6 4.3,-30.8 9.3,-61.5 17.5,-91.6 4.7,-17.3 8.6,-34.9 14.8,-51.8 5.7,-15.4 10,-31.3 16.7,-46.2 5.6,-12.4 9.5,-25.5 15.9,-37.5 5.7,-10.6 7.9,-22.8 15.3,-32.5 6.3,-8.3 9.8,-18.1 15.1,-26.9 10.9,-18 21.7,-36.1 33.4,-53.6 9.2,-13.9 19.3,-27.2 29.7,-40.3 10.6,-13.3 21.6,-26.3 32.9,-38.9 9.8,-10.9 20.1,-21.4 30.6,-31.6 15.9,-15.5 32.5,-30.2 49.8,-44 14.8,-11.8 29.9,-23.1 45.8,-33.4 27.1,-17.6 54.9,-34 84.5,-47.5 14.4,-6.5 28.9,-12.8 43.6,-18.5 28.2,-10.8 57,-19.6 86.6,-26.1 31.7,-6.9 63.7,-11.5 96.2,-13.2 32.8,-1.7 65.4,-0.7 98,3 33.2,3.8 65.8,10.4 97.8,20 28.5,8.6 56.3,19 83.2,31.8 15.6,7.3 30.8,15.3 45.7,23.8 17.1,9.8 33.3,21 49.8,31.8 16.3,10.7 30.4,23.8 45.3,36.2 13.3,11.1 25.2,23.7 38.1,35.2 9.6,8.6 17.4,19.2 26.2,28.7 13.1,14.1 24.3,29.6 36.2,44.6 2.1,2.7 4.1,5.5 5.9,8.5 7.5,11.8 15.7,23.3 23.1,35.2 5.6,9 10.2,18.6 15.9,27.5 6.4,9.9 10.6,20.9 16.4,31 6.5,11.5 10.4,24.1 16.3,35.8 6.6,13.1 10.2,27.2 15.7,40.6 6.9,17 11.4,34.7 16.8,52.1 7,22.6 10.6,45.9 15.8,68.9 7.6,34 9.7,68.7 12.2,103.3 2.4,33.8 0,67.6 -2.3,101.3 -1.5,21.9 -3.5,43.8 -7.9,65.3 -5,24.5 -8.5,49.3 -15.9,73.2 -5.3,17 -9.1,34.5 -15.6,51 -5.6,14.2 -9.6,29.1 -16,43 -5.7,12.2 -9.7,25.1 -16.1,36.9 -5.2,9.5 -8.8,19.7 -14.3,28.9 -6.1,10.2 -10.8,21.2 -17.2,31.1 -5.4,8.4 -9.9,17.4 -15.5,25.6 -10.6,15.8 -21.2,31.6 -32.5,46.9 -9.8,13.3 -20.3,26.1 -31.1,38.6 -10.2,11.8 -20.8,23.2 -31.7,34.4 -9.8,10 -19.9,19.8 -30.4,29.1 -11,9.9 -22.4,19.4 -34,28.6 -10,7.9 -20.3,15.5 -30.9,22.7 -21.9,15 -44.4,28.9 -67.9,41.4 -18.8,10 -38,19.1 -57.6,27.2 -27.5,11.4 -55.6,20.8 -84.6,27.9 -9.2,2.3 -18.5,4.5 -27.6,7.5 -7.8,2.5 -16.1,2 -24.1,3.2 -44.7,7 -89.7,8.7 -134.9,5.6 -32.1,-2.2 -63.7,-7.3 -95,-15.1 -27.5,-6.9 -54.5,-15.4 -80.7,-26.1 -21.9,-8.9 -43.2,-19.1 -63.9,-30.4 -22.1,-12.1 -43.4,-25.4 -63.7,-40.3 -10.5,-7.6 -20.8,-15.4 -30.8,-23.7 -11.6,-9.5 -22.7,-19.5 -33.6,-29.8 -10.2,-9.7 -20.1,-19.6 -29.6,-29.9 -12,-12.9 -23.3,-26.4 -34.2,-40.3 -10.8,-13.7 -20.9,-27.9 -30.8,-42.3 -11.8,-17.3 -22.5,-35.1 -32.7,-53.4 -5.6,-10.1 -10,-20.8 -15.5,-30.9 -6.6,-12.1 -10.9,-25.2 -16.9,-37.6 -5.9,-12.3 -9.5,-25.4 -14.8,-37.9 -7.7,-18.2 -11.6,-37.5 -17.3,-56.3 -7.8,-26 -11.2,-52.8 -16.3,-79.3 -7.2,-38.6 -8.4,-77.7 -9.1,-116.9 z M 1550,871 c -1.4,-19.6 -1.1,-38.9 -3.3,-58.3 -4.1,-34.9 -7.5,-69.9 -16.7,-104 -5.3,-19.7 -9.2,-39.9 -16.9,-58.9 -5.3,-13 -8.9,-26.6 -14.9,-39.4 -5.9,-12.6 -10.2,-25.8 -17,-38 -5.4,-9.6 -9.8,-19.8 -15.3,-29.5 -10.2,-17.9 -20.8,-35.5 -32.7,-52.3 -9.7,-13.8 -19.9,-27.1 -30.6,-40.1 -11.2,-13.6 -23.1,-26.6 -35.4,-39.2 -9.1,-9.2 -18.6,-17.9 -28.3,-26.5 -15.7,-13.9 -32.2,-26.7 -49.3,-38.7 -15.1,-10.6 -30.7,-20.3 -46.9,-29.3 -25.8,-14.3 -52.5,-26.3 -80.3,-36.3 -26,-9.3 -52.5,-16.5 -79.7,-21.5 -39.3,-7.3 -78.8,-10.1 -118.7,-8.3 -30.1,1.3 -59.9,5.1 -89.3,11.7 -37.5,8.4 -73.9,20.3 -109,35.9 -27.7,12.3 -54.3,26.9 -79.7,43.5 -16.2,10.6 -31.9,21.9 -47,34 -11.1,8.9 -21.9,18.1 -32.3,27.8 -11,10.2 -21.6,20.7 -31.8,31.7 -11.1,11.9 -21.8,24 -32,36.7 -11,13.7 -21.7,27.8 -31.5,42.4 -11.4,17.1 -21.9,34.9 -32.5,52.5 -5.8,9.8 -10.1,20.4 -15.8,30.3 -5.7,9.9 -9.3,20.8 -14.4,31 -6.6,13.1 -10.5,27.4 -16.2,40.9 -6.5,15.7 -10.2,32.4 -15.5,48.6 -7.4,22.7 -11.6,46.4 -15.8,69.9 -8.2,45.2 -11.1,91 -9.8,137.1 1.1,38.5 3.7,76.8 12,114.5 4.7,21.5 8.6,43.1 15.9,64 5.8,16.6 9.2,34 16.3,50.3 5.3,12.3 9.6,25 15.4,37.1 10.3,21.7 20.9,43.3 33.7,63.7 4.5,7.1 8.7,14.4 13.4,21.4 10.4,15.7 21.5,30.9 33.3,45.7 9.9,12.4 20.4,24.3 31.3,35.9 10.6,11.3 21.6,22 33.1,32.4 10,9 20.3,17.5 30.8,25.9 20.4,16.1 41.9,30.4 64.5,43.3 15.4,8.8 31.1,16.8 47.2,24.1 31.3,14.1 63.7,25.1 97.2,33 29.7,6.9 59.7,11.1 90.1,12.8 28.5,1.6 57,0.6 85.4,-2.5 48.5,-5.2 95.3,-17.4 140.7,-35.2 21.8,-8.6 43.1,-18.6 63.6,-29.9 22.1,-12.3 43.5,-25.8 64,-40.6 16.4,-11.9 32.3,-24.6 47.4,-38.1 16.7,-15 32.7,-30.8 47.7,-47.5 11.7,-13 22.8,-26.5 33.4,-40.4 10.5,-13.7 20.7,-27.8 29.9,-42.4 11.1,-17.5 21.3,-35.6 31.6,-53.6 6.1,-10.7 10.4,-22.3 16.1,-33.3 6.2,-11.7 10,-24.5 15.5,-36.6 6.5,-14.2 10.5,-29.4 15.5,-44.1 6.4,-18.9 11.1,-38.4 15.9,-57.8 8.3,-34.2 11.5,-69.3 15.5,-104.2 1.9,-17.4 1.5,-34.7 2.2,-51.6 z"
   id="path11" />
		<path
   class="st3"
   d="m 645.4,1564.4 c -0.8,2.2 -1.4,5.4 -3.1,7.9 -5.8,8.5 -8.6,18.3 -13,27.4 -5,10.2 -9.7,20.6 -14.6,30.9 -6.1,13 -13,25.6 -19.5,38.4 -5.8,11.6 -10.2,23.8 -16.6,35.1 -5.8,10.4 -10.2,21.4 -15.6,32 -2.1,4.1 -4.3,4.5 -8.2,2.9 -9.2,-3.8 -18.1,-8 -26.4,-13.7 -12.1,-8.2 -26.7,-12.1 -38.6,-20.8 -8.5,-6.1 -18.1,-10.3 -26.7,-16.2 -8.7,-6 -17.1,-12.6 -26.1,-18.2 -8.5,-5.3 -15,-13.3 -23.9,-17.8 -8.7,-4.3 -17,-9.2 -24.9,-14.9 -9.9,-7.2 -18.8,-15.6 -26.9,-24.6 -6,-6.7 -12.4,-13.1 -18.5,-19.8 -10.8,-11.9 -21.4,-24.1 -33.6,-34.6 -9.8,-8.5 -18.2,-18.5 -27.8,-27.1 -3.2,-2.9 -5.5,-6.6 -9.2,-9.3 -5.1,-3.7 -4.9,-6.9 0.4,-11.2 10.3,-8.4 19.7,-17.8 30,-26.1 14.9,-12.1 28.9,-25.2 43.5,-37.5 12.3,-10.4 24,-21.4 36.1,-32 11.9,-10.3 24,-20.3 35.9,-30.6 3.3,-2.9 6.3,-6.1 9.4,-9.1 4.2,-4 6,-3.7 8.9,1.2 5.3,8.6 10.6,17.2 18.1,24.2 1.1,1 2,2.4 2.9,3.7 7.3,10.9 15.7,20.8 25.4,29.7 10,9.1 18.5,19.8 28.2,29.3 7.8,7.8 16,15.3 24.7,22 4.9,3.8 9.7,7.9 14.2,12.1 16.6,15.6 36.1,27.2 55,39.7 11.9,7.9 23.5,16.3 36.5,22.5 2,0.5 4.2,1.2 4,4.5 z M 429.6,1398 c -1.8,0.1 -3.4,0.8 -4.6,2 -8.4,7.9 -16.9,15.7 -25.9,23 -10.4,8.4 -20.4,17.3 -30.4,26.1 -11.7,10.3 -23.4,20.6 -35.1,30.9 -7.9,7 -15.9,14.1 -23.8,21.1 -4.9,4.3 -9.9,8.6 -14.8,12.9 -1.3,1.2 -2.7,2.4 -0.7,4.2 4,3.8 7.8,7.7 11.9,11.4 8.7,7.7 19,13.4 26.3,22.9 6.2,8 12.8,15.7 22.4,20 1.5,0.7 2.6,2.3 3.6,3.6 4.7,6.4 8,13.6 14.1,19.1 4.6,4.2 8.3,9.3 13.7,12.6 3,1.8 5.9,3.7 7.4,7 2.5,5.7 7.3,8.5 12.3,11.5 8.5,5.2 16.5,11.3 25.2,16.2 5.8,3.3 11.9,6.1 17,10.6 10.1,9 21.5,15.8 33.8,21.5 8,3.7 16.2,7.2 23.3,12.7 2.1,1.6 3.9,4 6.2,4.9 11.5,4.4 21.7,10.6 30.9,19 6.6,6.1 12.3,4.3 15.4,-4.1 1.2,-3.3 3.6,-5.8 5,-8.9 5.6,-12.5 12.6,-24.4 18.7,-36.7 6.2,-12.4 12,-25 18,-37.5 1.5,-3.2 2.4,-6.9 4.4,-9.8 8.2,-11.8 13.2,-25.1 19,-38 1.4,-3 0.7,-4.8 -2.2,-6.4 -14,-7.6 -26,-18.1 -39,-27.2 -11.4,-7.9 -23.1,-15.4 -32.6,-25.7 -5.2,-5.7 -10.7,-11.1 -17.7,-14.3 -5,-2.3 -8.6,-5.8 -11.8,-9.7 -2.7,-3.3 -6,-5.8 -9.1,-8.6 -8.1,-7.1 -18.6,-11.2 -25.3,-19.9 -1,-1.3 -2.4,-2.1 -3.9,-2.5 -4.2,-1.2 -6.9,-4.1 -9,-7.7 -5.4,-9.1 -10.4,-18.5 -16.4,-27.2 -2.8,-4.1 -7.4,-6.2 -10.4,-10.1 -3.6,-4.9 -7.1,-9.9 -10.4,-15 -1.4,-1.6 -2.6,-4 -5.5,-3.9 z"
   id="path13" />
		<path
   class="st4"
   d="m 663.2,247.7 c -0.8,2.6 -3,4.2 -5.1,5.6 -21.4,14.2 -42.9,28.4 -63.8,43.3 -10.9,7.8 -21.6,15.8 -31.9,24.3 -10.6,8.8 -20.4,18.3 -30.8,27.3 -14.3,12.4 -26.8,26.5 -39.8,40.2 -8.3,8.7 -16.3,17.9 -23.1,28.1 -5.6,8.4 -12.7,15.7 -19,23.6 -3.2,4 -6.1,8.3 -8.9,12.6 -1.3,1.9 -2.3,2.2 -4.6,1.1 -4.9,-2.3 -8.9,-5.8 -13.1,-8.9 C 407,433.2 391,421.4 374.9,409.6 363.4,401.1 352,392.5 340.4,384.1 c -11,-7.9 -22.1,-15.6 -32.6,-24.2 -0.1,-0.1 -0.2,-0.2 -0.4,-0.3 -9.6,-5 -7.4,-6.1 -0.8,-13.3 3.8,-4.1 7.3,-8.5 11,-12.7 8.3,-9.5 16.5,-19 24.8,-28.5 7.3,-8.3 14.4,-16.8 22.1,-24.7 7.1,-7.3 14.8,-13.9 22.2,-20.8 7.2,-6.7 14.1,-13.7 21.7,-20 13.6,-11.2 26.2,-23.7 39.9,-34.6 14.8,-11.8 29.1,-24.3 45.1,-34.7 12.6,-8.3 25.7,-15.9 38.7,-23.6 14.2,-8.5 28.4,-16.9 42.7,-25.3 3.8,-2.2 7.7,-4.1 11.5,-6.2 2.2,-1.2 3.6,-1.1 5.5,1.2 5.6,7.2 9,15.7 13.4,23.6 11.7,21 22.7,42.4 34.7,63.2 5,8.7 9.1,17.7 14.1,26.3 3,5.1 6.3,10 8.3,15.7 0.1,0.9 0.4,1.5 0.9,2.5 z M 579.3,139.8 c -1,-0.1 -2.3,0.8 -3.7,1.5 -5.1,2.6 -10.5,4.9 -15.3,8 -11,7 -23.7,11.3 -33.8,19.7 -9.1,7.6 -19.1,13.9 -28.7,20.7 -12.9,9.1 -25,19.4 -37.6,29 -14,10.6 -26.3,23.4 -38.5,36.2 -10.4,11 -21.1,21.7 -32.1,32.1 -6.2,5.9 -12.6,11.7 -19.3,17 -6.9,5.5 -12.7,11.8 -18.6,18.2 -4.4,4.7 -8.2,9.9 -12.7,14.4 -5.1,5.1 -10.6,9.7 -16.1,14.3 -2.3,2 -2.4,3.1 0.2,5 14.5,10.4 29.4,20.4 43.7,31.1 19.2,14.4 38.2,29 57.3,43.6 5.5,4.2 8.9,3.5 12.2,-2.8 2.3,-4.4 4.6,-8.9 8,-12.7 7.8,-8.6 15.9,-17 23.7,-25.7 11,-12.3 21.7,-24.7 34.4,-35.6 13.6,-11.7 25.8,-25 39.4,-36.8 5.3,-4.6 10.4,-9.3 15.8,-13.8 10,-8.2 20.6,-15.6 31.3,-22.9 8.3,-5.7 15.2,-12.9 23.5,-18.5 7.9,-5.4 16.4,-9.6 23.9,-15.6 2.5,-2 3.7,-3.9 2,-6.7 -5.2,-8.9 -9.5,-18.2 -15,-27 -7.2,-11.4 -13.3,-23.6 -19.8,-35.5 -6,-11 -12,-22.1 -18,-33.1 -1.3,-2.2 -2.7,-4.1 -6.2,-4.1 z"
   id="path15" />
		<path
   class="st3"
   d="m 967.6,1635 c 21.6,-0.5 42.8,-3.4 64,-7.1 18.9,-3.3 37.7,-6.9 56.4,-10.7 24.1,-5 46.7,-14.6 69.8,-22.8 11.7,-4.2 23.6,-8 34.8,-13.5 10.4,-5.2 21,-10.1 31.4,-15.3 3.5,-1.7 5.2,-0.8 6.8,2.7 4.8,10.9 7.3,22.6 11.8,33.6 5.3,12.7 9.7,25.8 14,38.9 3.1,9.5 6.6,18.8 10.7,27.9 1.8,4 2.1,8.5 3.5,12.5 1.9,5.3 2,11.2 5.5,15.9 1.6,2.1 -0.2,2.7 -1.4,3.6 -5.3,3.9 -10.8,7.6 -16.9,9.9 -6.1,2.3 -11,6.5 -16.7,9.3 -19.4,9.4 -38.6,19.1 -58.6,27.2 -20,8 -40.1,15.8 -60.4,23 -10.1,3.6 -20.1,8.1 -30.7,10 -23,4.1 -45.5,10.7 -68.5,14.8 -21.9,3.9 -43.9,7.8 -66.2,8.8 -3.4,0.1 -6.8,0.8 -10.2,0.8 -2.3,0.1 -3.4,-0.6 -3.4,-3.2 -0.1,-12.5 0.7,-25 1.7,-37.4 0.5,-5.8 0.6,-11.5 1,-17.3 1,-15.1 1.3,-30.3 2.2,-45.4 1,-17.3 2.4,-34.6 2.8,-51.9 0.1,-3.4 0.6,-6.8 0.9,-10.2 0.2,-2.6 1.7,-3.9 4.3,-4 3.9,-0.1 7.6,-0.1 11.4,-0.1 z m -3.6,153.3 c 0,0.1 0,0.2 0,0.3 8,-0.8 16.1,-1.3 24.1,-2.6 19.8,-3.1 38.9,-9.8 58.8,-12.6 14.4,-2.1 28.5,-6.3 42.6,-10.3 11.5,-3.3 22.4,-8.8 34.1,-11.4 18.5,-4.1 36,-10.9 53.4,-18.2 11.5,-4.9 22.6,-11 34.4,-14.7 15.3,-4.8 28.8,-13.3 43.2,-19.9 2.8,-1.3 3.8,-3.6 4,-6.8 0.3,-3.6 -1.7,-6.1 -3,-9 -4.3,-9.6 -5.6,-20.2 -9.3,-29.9 -4.3,-11.3 -9.8,-22.2 -12.1,-34.1 -1.9,-9.6 -6.8,-18 -10.1,-27 -0.9,-2.6 -2.9,-5.5 -6.3,-3.7 -3.1,1.6 -6.4,2.4 -9.6,3.5 -8.9,3 -17.1,7.4 -25.9,10.7 -12.4,4.6 -25,8.7 -37.5,13.2 -18.4,6.5 -37,12 -56,16.5 -14.1,3.4 -28.2,6.7 -42.3,9.9 -14.1,3.2 -28.1,7.3 -42.8,6.9 -10.5,-0.3 -20.9,1.2 -31.4,1.1 -4.1,0 -8.2,1.2 -9,6.4 -0.4,2.3 -1,4.6 -1,6.9 -0.5,18.6 -2,37.1 -2.7,55.6 -0.3,8.4 -2.4,16.5 -2.5,24.9 -0.1,5.2 -0.2,10.5 -0.9,15.8 -1.1,8 -1.1,16.2 -1.3,24.3 -0.1,2.8 1.7,4.2 4.5,4.3 1.5,-0.1 3.1,-0.1 4.6,-0.1 z"
   id="path17" />
		<path
   class="st5"
   d="m 907.7,165 c 0.2,3.7 -3,3.1 -5,3.5 -20.2,3.9 -40.2,9.1 -60.2,14 -22.6,5.5 -44.8,12.7 -67,19.8 -28.6,9.1 -56.9,19 -83.6,32.8 -0.1,0.1 -0.3,0.1 -0.4,0.2 -8.8,3.8 -8.7,3.6 -13.4,-4.7 -7,-12.4 -13.4,-25 -20.6,-37.3 -5.1,-8.8 -9.1,-18.1 -14.3,-26.8 -11,-18.4 -21.5,-37 -30.8,-56.2 -3.3,-6.8 -3.4,-6.9 3.6,-10.2 23.9,-11.3 48.2,-21.4 73.2,-30 24.1,-8.3 48.1,-16.8 72.8,-23.1 23.3,-5.9 46.7,-11.2 70.4,-15.2 16.2,-2.8 32.5,-4.5 48.7,-6.5 5.8,-0.7 8.4,1 8.8,7.4 0.5,9.9 2.2,19.6 4.2,29.2 5.5,27.1 7.2,54.6 11.6,81.8 1,6.9 0.6,14.2 2,21.3 z M 871.4,42.8 c -18.1,1.4 -34.8,6.2 -52,8 -7.7,0.8 -14.5,4.6 -22.1,5.9 -5.7,0.9 -11.4,1.5 -17,3 -12.7,3.2 -25,7.5 -37.3,12 -15.5,5.6 -31.6,9.3 -46.9,15.8 -4,1.7 -8.4,2.3 -12.5,3.9 -15.5,6.4 -30,15.3 -46.6,19.3 -5.5,1.3 -5.8,3 -2.8,8 7.9,13.4 15.2,27.1 23.4,40.4 6,9.7 10.7,20.1 16.5,29.9 4.1,6.8 7.4,14.1 11.2,21.2 2.7,5.1 6.7,7.6 10,5.4 10.3,-6.9 22.6,-8.6 33.8,-13.4 13.2,-5.7 27,-10.3 40.7,-15.1 13.2,-4.6 26.8,-7.8 39.7,-13.8 10.1,-4.6 21.3,-6.9 32.2,-9.9 7.3,-2 14.5,-4.7 22.1,-5.9 8.2,-1.3 16.5,-1.4 24.6,-2.6 2.5,-0.4 4.4,-0.5 3.5,-4.2 -4.9,-20.8 -5.6,-42.2 -8.6,-63.3 -1.9,-13.2 -2.6,-26.5 -6.2,-39.4 -1,-4.1 -2.5,-5.9 -5.7,-5.2 z"
   id="path19" />
		<path
   class="st6"
   d="m 348.2,1220.3 c 7.5,14.1 13.2,28.9 19.9,43.4 5.5,11.8 10.4,24 19.1,34.1 2.7,3.1 4.4,7.2 6.2,11 4.3,8.9 9.3,17.3 14.2,25.8 2.9,5 7.7,8 11.5,12.2 3.1,3.3 2.4,5.9 -0.4,8.3 -16,13.7 -31.6,27.8 -47.4,41.8 -17.7,15.7 -36,30.8 -53.7,46.4 -14.1,12.4 -28.4,24.5 -42.2,37.1 -4.1,3.7 -8.5,7.3 -12.7,11.1 -1.4,1.2 -2.9,2.4 -4.6,3.2 -2.9,1.3 -5.2,1.1 -7.3,-2.3 -7,-10.7 -14,-21.5 -22,-31.4 -6.2,-7.7 -9.7,-16.7 -14.6,-24.9 -6.6,-11 -10.8,-23.3 -17.7,-34.1 -6.4,-10.1 -11.7,-20.8 -18.4,-30.8 -5.4,-8.1 -8.1,-18 -12.9,-26.6 -6.6,-11.6 -10.6,-24.3 -16.3,-36.2 -6.7,-13.9 -9.8,-28.9 -14.4,-43.4 -1.7,-5.6 -5.6,-10 -7.3,-15.6 -5.1,-16.6 -7.4,-33.9 -11.2,-50.7 -1.6,-7.2 -4.4,-14.2 -5.6,-21.5 5.8,-0.7 11,3.1 16.9,1.9 2.7,7.2 2.6,15.1 5.2,22.5 6.2,17.9 10.1,36.6 16.3,54.5 3,8.6 6.2,16.9 10.3,25 6.1,12.3 11.1,25 15.4,38.1 3.1,9.4 6.2,18.8 11.6,27.3 7.5,11.8 14.9,23.8 18.3,37.7 0.7,2.9 2.7,5.5 5.1,7.1 7,4.9 10.1,11.9 12.1,19.8 1,4.1 2.9,7.5 6.5,10.5 8.9,7.3 15.6,16.3 18,28.1 1.1,5.3 2.9,10.5 4.5,15.7 2.1,6.7 4.7,7.7 9.9,3 5.5,-5.1 11.3,-9.9 16.9,-14.8 7.9,-6.8 15.7,-13.8 23.7,-20.5 13.3,-11.3 26.7,-22.5 40,-33.8 8.4,-7.1 16.6,-14.5 25.2,-21.5 9.7,-7.9 18.6,-16.6 29,-23.5 2.2,-1.4 2.7,-3.6 1.6,-5.8 -3.1,-5.9 -6,-12.1 -10.5,-17.1 -6.5,-7.1 -12.4,-14.9 -17.6,-23 -6.6,-10.2 -11.7,-21.3 -17.6,-31.9 -4.4,-7.9 -7.2,-16.7 -11.6,-24.4 -4.1,-7.2 -5.5,-14.7 -7.1,-22.4 1.2,-0.1 1.9,-0.7 2.7,-1.7 3.2,-4.2 7.3,-7.4 13,-7.7 z"
   id="path21" />
		<path
   class="st3"
   d="m 1192.8,198.9 c 1,-3.6 1.7,-8.1 3.4,-12.3 6,-14.9 8.7,-30.8 13.5,-46.1 6.7,-21.1 12.6,-42.4 18.2,-63.7 0.6,-2.1 2.1,-3.7 2.7,-5.9 0.7,-2.4 2.9,-1.8 4.7,-1 18.2,7.4 36.4,14.8 54.7,22.1 11,4.4 21.4,10 31.6,16 7.4,4.4 15.4,7.6 23.1,11.3 12.2,5.9 22.9,13.9 33.1,22.6 7.8,6.7 17.1,10.9 25.6,16.3 4.5,2.9 8.6,6.1 12.9,9.2 11,8.2 21.6,16.8 32.4,25.2 8,6.1 14.8,13.7 24,18.3 5.8,2.9 10.1,8.3 14.9,12.8 3.1,2.9 3.1,6.4 0.3,9.6 -12,14.5 -23.6,29.3 -35.5,44 -9.9,12.2 -19.4,24.7 -29.7,36.6 -6.2,7.1 -10.9,15.6 -18.4,21.7 -2.3,1.8 -3.5,1.7 -5.4,-0.2 -7,-6.9 -14,-13.9 -21.3,-20.4 -10.1,-8.9 -20.8,-17.2 -31.4,-25.7 -16.1,-12.9 -34,-23 -51.2,-34.2 -10.3,-6.7 -20.4,-13.7 -31.6,-19 -22.4,-10.6 -44.2,-22.5 -67.4,-31.5 -2.4,-0.9 -3.5,-2.4 -3.2,-5.7 z m 277.3,32.1 c 0.6,-1.8 -1.1,-2.5 -2.4,-3.7 -7.7,-6.6 -16.8,-11.3 -24,-18.5 -2.7,-2.8 -5.5,-5.3 -9,-7.3 -4.4,-2.6 -8.9,-5.1 -12.7,-8.7 -5.4,-4.9 -10.7,-10.3 -17,-13.9 -14.2,-8.1 -24.2,-21.4 -38.7,-29.1 -4.5,-2.3 -7.8,-6.5 -13.2,-7.7 -2.9,-0.6 -5.3,-2.7 -7.3,-5 -3.4,-3.9 -7.7,-6.8 -12.4,-9 -7.7,-3.5 -15.9,-5.2 -23.9,-7.8 -12.9,-4.2 -24.6,-11.4 -37.6,-15.5 -0.8,-0.3 -1.7,-0.9 -2.2,-1.6 -5.8,-6.8 -13.7,-10.8 -21.1,-15.4 -4.9,-3 -6.1,-2.4 -8.1,2.9 -4.8,12.7 -7.6,25.9 -12.1,38.7 -3.9,10.9 -7.2,22 -9.8,33.2 -2.1,9 -6.3,17.2 -8.6,26.1 -0.9,3.6 0.5,5.7 3.6,7.1 9.2,4.1 18,9.2 27.8,12 4.1,1.2 7.8,3.8 11,6.9 1.7,1.6 3.6,2.9 5.8,3.8 16.6,7.3 33.3,14.3 48,25.7 11.9,9.1 24.3,17.8 37.4,25.5 10.1,5.9 17.2,16.2 27.4,21.8 9.3,5.1 15.7,12.6 22.2,20.2 6.7,7.8 6.6,8.2 13.1,0.1 10.7,-13.3 21.4,-26.7 32.2,-40 10.2,-12.5 20.3,-25.2 30.6,-37.7 0.7,-0.7 1,-1.6 1,-3.1 z"
   id="path23" />
		<path
   class="st7"
   d="m 1708.9,1128.4 c -7.9,-0.2 -14.6,-4.4 -21.7,-7 -24.9,-8.9 -49.5,-18.4 -74.3,-27.5 -4.1,-1.5 -8.2,-3.1 -12.3,-4.5 -2.5,-0.9 -3.5,-2.2 -3,-5.3 1.8,-11.1 5.5,-21.8 7.4,-32.9 1.6,-9.2 3,-18.5 5.2,-27.6 5.8,-24.2 7.1,-49 10,-73.6 1.2,-9.9 1.4,-19.9 2,-29.9 0.7,-11.4 2.4,-22.9 1.5,-34.2 -0.9,-12.2 0.2,-24.3 -1,-36.4 -0.7,-7.3 -0.3,-14.7 -0.5,-22.1 -0.1,-3 1.8,-3.3 3.9,-3.5 10.1,-1.1 20.2,-2.3 30.3,-3.3 18.8,-1.9 37.6,-3.7 56.4,-5.4 9.6,-0.9 19.3,-1.3 29,-2 0,2.3 0,4.7 0.1,7 0.2,5.2 2,6.7 7.1,6 2,-0.2 4,-0.1 6.1,-0.1 1.8,7.8 1.4,15.8 1.5,23.8 0.1,10 0,20 -0.1,29.9 0,0.6 0.3,1.3 0.2,1.9 -2.5,14.1 0,28.4 -1.9,42.5 -3.3,24.4 -4.1,49.1 -7.5,73.5 -2.3,16.2 -4.9,32.5 -7.8,48.6 -4.2,22.9 -10.5,45.3 -15.6,67.9 -0.1,0.6 -0.5,1.1 -0.8,1.7 -1.8,0 -3.7,0.2 -5.5,-0.1 -7,-1.1 -8.5,3.6 -8.6,8.8 -0.1,1.3 -0.1,2.6 -0.1,3.8 z m 34,-275.2 c -0.7,-7.1 -1.6,-14.2 -1.9,-21.3 -0.2,-3.3 -1.4,-4 -4.3,-3.8 -8.7,0.7 -17.4,1.3 -26.1,2.1 -11.9,1.1 -23.8,2.4 -35.8,3.5 -10.9,1 -21.7,1.9 -32.6,3 -3.9,0.4 -5.3,2.3 -4.5,6.8 1.7,9.7 1.6,19.5 1.2,29.4 -0.5,11.7 -3.5,23.1 -3.6,34.8 -0.1,14.9 1.5,29.9 -0.7,44.8 -3,20.7 -4.3,41.6 -8.3,62.2 -3.3,17 -6.7,33.9 -9.9,50.9 -2.1,11.3 -1.3,13.5 9.5,17.2 12.7,4.3 25.3,8.7 37.9,13.2 13.1,4.7 26,9.8 39.1,14.5 6.9,2.4 7,2.2 8.7,-4.8 0.3,-1.4 0.7,-2.7 1,-4.1 2.9,-12.1 3.3,-24.7 6.5,-36.8 1.8,-6.6 4.8,-12.7 5.9,-19.5 1.6,-9.5 1.3,-19.3 3.6,-28.7 2.3,-9.4 3.7,-18.9 3.9,-28.7 0.2,-9.7 2.6,-19.4 3.2,-29.2 0.4,-6.2 2,-12.1 3,-18.2 0.9,-5.3 0.8,-10.9 3,-16 3.5,-8 2.4,-16.1 1.3,-24.3 -1.3,-8.8 -2.5,-17.6 -2.1,-26.5 0.4,-6.7 1.4,-13.5 2,-20.5 z"
   id="path25" />
		<path
   class="st7"
   d="m 1514.3,252.5 c 2.6,0.5 4.3,2.4 6.1,4.1 8.7,8.3 17.1,16.9 25.1,25.9 10.9,12.4 20.5,25.9 30.2,39.2 5.7,7.8 11,15.9 16.8,23.6 12,16 23.1,32.5 33.5,49.5 4.3,7.1 8.1,14.4 12.4,21.4 6.6,10.8 11.9,22.3 18.3,33.2 3.9,6.8 7,13.9 10.3,20.9 1.1,2.4 0.5,3.6 -1.7,4.9 -18.2,10.3 -36.2,21 -54.6,30.9 -9.3,5 -18.1,11 -27.4,16.3 -10.4,6 -20.8,12 -31.8,16.9 -2.7,1.2 -4.6,0.8 -5.7,-1.9 -4.9,-12.6 -12,-23.9 -18.7,-35.6 -8.3,-14.5 -16,-29.3 -25.2,-43.2 -10.5,-15.8 -21.2,-31.6 -32.6,-46.8 -4.9,-6.5 -8.9,-13.7 -14.5,-19.4 -6.3,-6.3 -12,-13.1 -18.4,-19.2 -4.8,-4.6 -8.2,-10.2 -12.9,-14.8 -1.2,-1.2 -2.1,-2.6 -3.6,-3.6 -3.4,-2.2 -3.5,-5.5 -0.9,-8 5.4,-5.3 9.2,-11.8 14,-17.5 11.1,-13.3 21.9,-26.7 32.6,-40.3 3.3,-4.2 6.5,-8.8 11,-12 4.1,1.7 7.3,5.7 12.4,4.8 -0.4,4.8 -4.1,7.4 -6.8,10.8 -8.6,10.4 -16.9,21.2 -25.4,31.7 -1.8,2.2 -3.4,4.4 -5.3,6.5 -4.8,5.3 -9.3,10.9 -13,17.1 -0.9,1.4 -2.1,3.2 -0.4,4.7 4.3,3.9 7.1,9.1 11.2,13.2 7.5,7.4 13.5,16.2 21.2,23.6 9.8,9.3 16,21.3 23.5,32.4 7,10.4 15.3,20 22.4,30.4 6.2,9 11.2,18.8 16.1,28.5 6.1,12.2 12.2,24.4 18.3,36.6 2.1,4.2 3.3,4.2 6.8,2.1 18.8,-11 37.8,-21.7 56.7,-32.6 9.2,-5.3 18.2,-10.9 27.6,-15.7 6.7,-3.4 7.4,-5.3 3.5,-11.8 -1.8,-3 -4.9,-4.8 -6.2,-8.2 -3.6,-9.2 -8.5,-17.7 -14.3,-25.7 -3.7,-5.1 -5.2,-11.4 -8.6,-16.6 -6.9,-10.6 -13.9,-21.1 -18.9,-32.8 -3.9,-8.9 -8.8,-17.5 -16.8,-23.3 -10.8,-7.9 -16,-19.8 -22.7,-30.4 -3.2,-5 -5.9,-10.2 -10.1,-14.3 -2.9,-2.8 -5.5,-5.9 -8.3,-8.8 -3.2,-3.3 -5.2,-7.5 -8.3,-10.7 -8.3,-8.6 -17.1,-16.9 -22.8,-27.6 2.1,-2.8 4,-5.6 5.9,-8.4 z"
   id="path27" />
		<path
   class="st6"
   d="m 1495.5,1528.3 c -3.9,7.1 -10.5,11.8 -15.9,17.6 -7.4,8 -14.7,16.2 -22.3,24 -7.4,7.6 -15.9,14 -24.2,20.6 -6.8,5.4 -13.2,11.3 -19.8,17.1 -14.2,12.5 -29.2,23.8 -44.5,34.9 -18.7,13.5 -37.8,26.5 -57,39.2 -3.8,2.5 -7.9,4.5 -11.7,6.8 -3,1.8 -4.3,0.7 -5.7,-2.2 -2.7,-5.5 -4.7,-11.2 -6.5,-17 -4.2,-13.9 -9.9,-27.2 -15,-40.8 -4.1,-11 -7.1,-22.4 -11.8,-33.1 -5.3,-12.1 -9.1,-24.5 -13.1,-37 -1.2,-3.7 -0.5,-5.9 3,-8 14.3,-8.6 28.5,-17.3 42.5,-26.5 9.4,-6.2 18.3,-13.1 27.3,-19.7 17.4,-12.7 34,-26.4 49.4,-41.5 10.1,-9.9 20.8,-19.3 31,-29.2 11.7,-11.3 22,-23.8 32.5,-36.1 8.8,-10.3 17.5,-20.6 25.7,-31.4 0.9,-1.2 1.7,-2.6 3.3,-1 3.4,3.6 7.6,6.4 10.1,10.9 -2,4.3 -6.7,6.3 -8.6,10.6 -7.2,7.1 -14,14.7 -20.5,22.4 -2.5,3 -4.8,6.1 -7.2,9.2 -7.7,9.8 -16.8,18.2 -25.9,26.7 -8.4,7.9 -16,16.5 -24.4,24.4 -16,15.1 -32.1,30 -49.4,43.6 -9.3,7.3 -19.2,13.9 -28.9,20.7 -5.6,3.9 -11.4,7.6 -17.6,10.5 -4.2,2 -7.4,6.2 -12,8 -4.5,1.7 -7.9,4.9 -11.4,7.9 -3.4,3 -3.3,5.9 -1.2,9.5 5.7,10 8.6,21.3 12.5,32 7.7,20.7 15.9,41.3 22.9,62.3 0.8,2.5 1.9,3.4 4.8,1.6 9.3,-5.5 17.3,-12.8 25.9,-19.3 15.5,-11.8 32.7,-21 49,-31.6 17.9,-11.7 34,-25.4 49.4,-40 6,-5.7 11.4,-12.1 17.2,-18 10.2,-10.5 20.7,-20.7 30.1,-32 3,-3.6 5.7,-7.4 10.3,-9.2 6.3,1.7 7.5,3.6 7.7,13.1 z"
   id="path29" />
		<path
   class="st6"
   d="m 134.8,663.6 c 0.2,-16.6 5,-31.9 13.8,-46 5.1,-8.3 7.4,-17.9 11.4,-26.7 6.3,-13.8 11.7,-27.9 18,-41.6 5.2,-11.3 9.8,-23 15.6,-34 5.2,-9.9 11.7,-19.1 17.7,-28.6 1.3,-2.1 2.6,-4.3 3.6,-6.5 5.8,-12.5 12.1,-24.6 19.8,-36 6,-8.9 11.2,-18.4 17.5,-27.1 7.4,-10.2 14.6,-20.5 22.8,-30.1 2.7,-3.2 4.6,-7.1 6.9,-10.6 1.6,-2.5 3.5,-3.1 6.4,-1.5 9.1,5 17,11.6 25.2,17.9 15.9,12.3 32.2,24 48.6,35.7 18.1,13 36.2,26 53.8,39.7 0.1,0.1 0.2,0.2 0.4,0.3 10.9,6.8 7.9,6.1 3.6,14.7 -1.8,3.5 -4.1,6.9 -7.4,9.5 -2.8,-4.8 -5.8,-9.4 -11.5,-11.2 -3.1,-2.3 -5.4,-5.6 -8.7,-7.9 -10.4,-7.4 -20.7,-14.9 -31,-22.5 -16,-11.9 -31.8,-24 -47.7,-36 -5.2,-3.9 -10.3,-7.9 -15.5,-11.8 -5.1,-3.9 -7.5,-3.6 -12.1,0.8 -5,4.7 -9.5,10.1 -13.3,15.6 -7.5,10.8 -15.4,21.5 -19.7,34.3 -2,5.9 -4.7,11.7 -8.7,16.5 -8.2,9.9 -13.7,21.5 -20.2,32.5 -5,8.3 -8.3,17.4 -12.4,26.2 -5.9,12.9 -12.3,25.6 -19.3,38.1 -6.4,11.5 -7.4,25.3 -15.8,36.2 -5.1,6.7 -5.4,16 -11,22.6 -0.8,1 -1.1,2.6 -1.4,4 -2.2,9.5 -2.5,19.7 -8.6,28.1 -1.3,-0.1 -2.3,0.4 -3.5,1.1 -5.3,3 -11.1,4.6 -17.3,4.3 z"
   id="path31" />
		<path
   class="st8"
   d="m 1708.2,1164.9 c 0.5,5.6 -3,10 -4.6,15 -3.4,10.7 -7.2,21.3 -10.3,32.1 -3.2,11.1 -9.3,21.1 -13.6,31.8 -5.8,14.6 -11.3,29.5 -18.6,43.3 -6.5,12.4 -12,25.4 -19.9,37 -1.3,1.9 -2.2,4.1 -3.2,6.2 -7.3,15.2 -15.2,30.1 -25,43.9 -5.1,7.2 -8.7,15.1 -13.3,22.5 -9.2,14.7 -19.4,28.6 -30.2,42.1 -1.4,1.8 -2.9,1.9 -4.9,0.7 -2.7,-1.7 -4.8,-3.9 -7,-6.2 -9.8,-10 -19.5,-20.1 -29.3,-30.2 -12.8,-13.2 -25.9,-26.2 -38.4,-39.7 -4,-4.3 -8.9,-7.8 -12.3,-12.8 -1.9,-2.8 -2.6,-5.4 -0.5,-8.1 7.5,-9.6 12.7,-20.9 20.3,-30.3 12.8,-15.9 21.1,-34 30.4,-51.9 6.1,-11.8 11.6,-23.9 17.8,-35.5 6,-11.3 10.4,-23.3 15.9,-34.9 6.8,-14.3 10.7,-29.6 16.1,-44.4 2.6,-7.2 5.2,-14.6 8.9,-21.4 4.8,-0.8 8.3,2.5 12.4,3.9 0,2.7 -0.1,5.2 -1.8,7.5 -1.9,2.6 -3.4,5.6 -4.6,8.6 -2.9,7.1 -5.7,14.2 -8.1,21.4 -3.1,9.5 -8.8,17.8 -12.3,27.2 -2.4,6.4 -3.4,13.4 -7.7,19 -3.1,4.1 -4.3,8.9 -5.9,13.6 -5,15.3 -11.5,29.8 -20,43.4 -3,4.7 -7.2,8.7 -9.6,13.7 -8.6,17.8 -20.1,33.7 -30.8,50.1 -2.5,3.9 -6,7.3 -7.1,12.1 -0.4,1.9 -0.7,3.7 0.9,5.2 4.4,4.2 8.6,8.6 13.2,12.5 10.6,9 20,19.3 29.8,29.1 8.9,8.9 17.8,17.9 26.6,26.9 4.8,4.9 7.8,4.2 10.7,-2 4.2,-9.3 10.4,-17.4 15.1,-26.4 2.1,-4 3.8,-8.4 6.7,-11.8 8.1,-9.4 14.5,-20 20.3,-30.7 10.5,-19.4 19.5,-39.7 29.2,-59.6 5.4,-11.1 9.1,-22.9 16.2,-33.5 8,-11.8 12.1,-25.9 18.9,-38.5 3.7,-6.9 5,-14.8 6.5,-22.4 2.3,-11.1 7.7,-21 11.3,-31.5 4.4,-0.3 8,1.6 11.8,3 z"
   id="path33" />
		<path
   class="st6"
   d="m 595.5,1719.6 c 3,-8.9 6.4,-17.7 10.9,-25.9 7.9,-14.3 14,-29.5 21.2,-44.2 9,-18.3 18.3,-36.5 26,-55.5 2.7,-6.7 6.8,-12.9 9.6,-19.7 0.8,-2 2.3,-2.5 4.2,-2 1.9,0.6 3.9,1.2 5.7,2.1 23.6,11.4 48.2,20.6 72.7,29.8 12.4,4.6 25.8,5.9 38.5,9.8 7.8,2.4 15,6.4 23,7.8 26.4,4.6 52.4,11.6 79.6,10.8 12.5,-0.4 25.3,-0.6 37.9,1.4 7.5,1.2 8.3,1.8 7.2,9.1 -0.4,2.9 -0.7,5.9 -1,8.8 -5.8,-0.6 -11.3,1 -16.7,2.7 -11.6,0.7 -23,-0.5 -34.5,-2.3 -12.3,-2 -24.6,-4.1 -37.1,-4.3 -5.2,-0.1 -10.5,-0.7 -15.7,-2.1 -12.5,-3.3 -25,-7.1 -37.7,-9.2 -8.7,-1.5 -17.6,-2.4 -26.1,-5 -23.2,-7.1 -45.5,-17.2 -69.2,-23 -6.1,-1.5 -11.8,-3.9 -17.6,-6.1 -3.7,-1.4 -6.8,-1.2 -8.4,3.6 -1.9,5.8 -4.4,11.4 -7,16.9 -1.8,3.8 -1.7,9 -5.2,11.4 -5,3.3 -6.1,8.2 -8,13.1 -2.3,6.2 -5,12.3 -8.2,18.3 -6.9,13.2 -12.2,27.3 -19.4,40.5 -3.2,5.8 -5.2,12.4 -8.9,18.1 -5.7,1.8 -11,2 -14.5,-4.1 0.1,-0.5 -0.8,-0.6 -1.3,-0.8 z"
   id="path35" />
		<path
   class="st7"
   d="m 400.8,481.2 c 5.7,1.9 8.7,6.4 11.5,11.2 -3.6,9.2 -8.7,17.5 -13.6,26 -2.7,4.7 -4.7,9.9 -7.4,14.6 -7.2,12.7 -15,25.1 -21.8,38.1 -4.4,8.4 -7.4,17.6 -11.2,26.3 -6.9,16 -13.3,32.2 -19.5,48.6 -6,15.8 -9.4,32.3 -15.1,48.1 -5.8,15.9 -8,32.7 -14.1,48.4 -2.6,0 -5.2,-0.2 -7.8,-0.7 -3.6,-0.7 -7.6,-0.9 -9.8,3.2 -1.8,3.4 -3.9,6.7 -3,10.8 -0.9,0 -1.9,-0.1 -2.8,-0.1 -0.6,-1 -1.2,-1 -1.9,-0.1 -2.3,0.2 -4.4,-0.2 -6.6,-0.8 -0.5,-1 -1.2,-1.1 -1.9,-0.2 -9.9,-1.3 -19.7,-2.6 -29.6,-4 -22.7,-3.3 -45.3,-6.7 -67.9,-10 -12,-1.8 -24,-3.6 -36,-5.3 -0.4,-1.1 -1,-1.5 -1.9,-0.4 -4,-0.1 -7.8,-1.1 -11.4,-2.5 0.1,-1.8 1.3,-2.6 2.7,-3.5 2.2,-1.4 3.2,-3.9 3.8,-6.2 0.6,-2 0.5,-4.2 -2.4,-4.6 -4.7,-0.7 -9.5,-1.3 -14.2,-1.9 -0.6,-3.8 0.1,-7.4 1.2,-11 4.1,-14.2 8.9,-28.1 14.6,-41.6 6.2,0.3 12,-1.2 17.3,-4.6 1.1,-0.7 2.2,-1.1 3.5,-1.1 1.2,0.9 1.1,2.2 0.8,3.4 -1.4,8 -4.6,15.3 -9.3,21.8 -6.8,9.5 -10.9,19.6 -9.4,31.5 0.3,2.3 1.1,3.9 3.5,4.3 8.6,1.3 17.2,2.6 25.9,3.8 12.6,1.8 25.3,3.5 37.9,5.4 11.1,1.6 22.1,3.4 33.2,4.9 15.3,2.1 30.6,3.8 45.8,6.1 8.1,1.2 10.2,0.1 11.7,-7.8 1.6,-7.9 2.8,-16 4.9,-23.8 1.8,-6.7 5.6,-12.9 7.1,-19.7 4.5,-20.2 13.2,-38.8 20.8,-57.9 4.2,-10.5 9.7,-20.6 12,-31.8 0.8,-4 1.4,-8 2.7,-11.8 5.9,-16.9 16.6,-31.5 24.1,-47.6 0.6,-1.4 1.5,-2.8 2.5,-3.9 3.6,-4 6.7,-8.4 8.4,-13.4 4.3,-12.4 11.7,-22.9 19,-33.6 1.6,-1.9 4.4,-3.4 3.7,-6.6 z"
   id="path37" />
		<path
   class="st7"
   d="m 914.4,1654.6 c 5.4,-1.7 10.9,-3.2 16.7,-2.7 -0.3,10.1 -0.3,20.2 -1,30.3 -1,15.7 -1.8,31.4 -3,47.1 -1.2,16.9 -2.2,33.8 -3.5,50.6 -0.1,1.2 -0.7,2.4 -1,3.6 -3.9,0.9 -7.7,2.2 -11.7,2.7 -2.9,0.4 -3.5,1.5 -4.3,4.2 -1.6,5.7 0.5,11 0.2,16.5 -0.6,0 -1.2,0.1 -1.9,0.1 -0.7,-1 -1.3,-0.9 -1.9,0.1 -0.6,0 -1.2,0 -1.8,0 -3.2,-3 -5.9,-2.9 -8.5,0.4 -8.1,0.2 -16.3,0.3 -24.4,0.5 -0.7,-1 -1.3,-1 -1.9,0.1 -0.6,0 -1.2,0 -1.8,0 -0.6,-1.1 -1.3,-1.1 -1.9,0 -22.3,3.6 -44.2,-2 -66.2,-3.7 -35.8,-2.8 -70.8,-10.1 -105.6,-18.5 -21.8,-5.3 -43.2,-11.3 -64.4,-18.7 -9.6,-3.3 -19.2,-6.5 -28,-11.7 -0.3,-3.9 1.2,-7.3 2.9,-10.7 1,-1.9 1.7,-4.2 -0.9,-5.2 -4.3,-1.7 -8.4,-4.1 -13.3,-4 1.4,-6 5.5,-10.7 8.2,-16.1 0.6,0.2 1.4,0.3 1.6,0.7 3.5,6.1 8.8,5.8 14.5,4.1 -0.8,2.8 -1.7,5.5 -3.3,8.2 -4.5,7.3 -3.9,8.8 3.8,12.3 1.1,0.5 2.3,0.9 3.5,1.2 9.7,2.4 19.4,4.7 28.8,8 12.5,4.4 24.8,9.5 37.6,13 21,5.8 42.2,10.8 64.3,11.2 8.3,0.1 16.9,1.4 24.8,3.9 8.8,2.8 17.5,4.3 26.6,4.4 6.4,0 12.8,0.1 19.3,0.1 13.8,0 27.3,4.4 41.3,2.9 11,-1.1 22.2,-0.8 33.2,-1.2 3.1,-0.1 6.3,-0.3 9.3,-1.1 2.9,-0.8 5.5,-1.7 6.2,-5.9 2.7,-16.3 0.9,-32.9 4.4,-49.1 1.7,-7.7 0.6,-15.6 1.2,-23.4 1.1,-14.9 2.4,-29.8 3.6,-44.7 0.5,-3.3 -0.2,-6.4 -1.7,-9.5 z"
   id="path39" />
		<path
   class="st3"
   d="m 1750.2,763.3 c 0,4.4 1.7,8.7 0.9,13.1 -0.9,0 -1.9,0 -2.8,0 -6.8,0.5 -9.1,3.6 -7,10 0.7,2.3 0.4,4.6 0.6,6.9 -15.2,1.6 -30.4,3.2 -45.6,4.7 -12.1,1.1 -24.2,1.9 -36.4,3.1 -11,1 -22,2.1 -33.1,2.9 -4.7,0.3 -6.5,-1.5 -7.1,-5.8 -1,-8 -3.3,-16.1 -3.5,-24 -0.2,-11.5 -3.7,-22.4 -4.2,-33.7 -0.1,-3.4 -2.3,-6 -3,-9.2 -2.4,-11.1 -3.8,-22.4 -6.1,-33.6 -2.4,-11.4 -6,-22.5 -9.9,-33.5 -1.2,-3.5 -1.6,-7.3 -2.2,-11 -2.1,-12.9 -8.2,-24.4 -12.4,-36.6 -2.1,-6.2 -3.2,-12.7 -5.8,-18.8 -2.3,-5.3 -4.5,-10.6 -5.7,-16.3 -1.1,-5.5 -4.8,-9.4 -8,-13.6 -4.7,-6.4 -4.1,-9.1 2.8,-12.8 10.4,-5.6 20.9,-11.3 31,-17.4 18.2,-10.9 36.7,-21.2 55.2,-31.8 6.3,-3.6 12.2,-8.2 19.6,-9.8 -0.2,1.8 0.7,3.2 1.4,4.8 1.2,2.8 3.4,5.2 3.3,8.5 -11.5,6 -22.6,12.8 -34.3,18.7 -9.3,4.7 -18,10.5 -26.9,15.9 -11,6.7 -22.3,13 -33.7,19.2 -4,2.2 -4.6,5.3 -3.4,9 1.5,4.5 3.6,8.6 6.8,12.4 7.6,9 11.1,20.4 15.4,31.3 3.1,8 5.1,16.4 7.4,24.6 3.2,11.3 6.7,22.6 9.4,34.1 2.3,9.4 2.6,19.1 4.5,28.5 2.5,12.1 6.1,24 10.4,35.8 4.8,13.3 3.8,27.6 5.7,41.5 0.9,6.6 1.4,7.7 7.8,6.6 1.1,-0.2 2.2,-0.1 3.3,-0.2 11.9,-1 23.9,-1.9 35.8,-3 12.2,-1.1 24.5,-2.3 36.7,-3.7 6.5,-0.7 13,-1.1 19.4,-2.6 2.3,-0.5 3.2,-1.9 2.3,-3.6 -2.5,-4.3 -1.3,-9.1 -2.5,-13.5 1.5,-0.1 2.9,0.2 4,1.1 2.9,2.6 6.3,2.7 9.9,1.8 z"
   id="path41" />
		<path
   class="st4"
   d="m 126.4,1125.3 c -6.9,1.9 -13.8,3.7 -20.7,5.8 -2.1,0.7 -2.9,0 -3.2,-1.9 -0.5,-2.6 -0.6,-5.3 -1.4,-7.8 -3.5,-11.5 -3.8,-23.5 -6.1,-35.2 -2.6,-12.9 -3.4,-25.9 -5.7,-38.8 -0.5,-3 -0.5,-5.9 -0.5,-8.9 0,-15.8 0.6,-31.7 -1.2,-47.4 -1.3,-12 -1.1,-24.1 -1.2,-36 -0.1,-14.6 0.5,-29.3 2.1,-43.9 1,-9.4 1.2,-19 2.1,-28.5 2,-21.9 1.5,-44 6.6,-65.5 3.4,-14.4 4.2,-29.1 7.6,-43.5 1.3,-5.3 3.2,-10.4 4.1,-15.8 0.5,-3.4 2.5,-4.6 5.9,-4.3 3.2,0.3 6,1.3 8.8,2.7 1,4.4 0.8,8.8 1,13.2 0.1,2.2 -1.6,4.5 -0.1,6.7 -1.3,4.3 -1.7,8.9 -1.8,13.3 -0.1,9.6 -2.5,18.4 -8.4,26.2 -2,2.6 -2.8,5.8 -3,9.2 -0.4,4.6 0.9,9 1.1,13.5 0.5,14.6 -2.2,28.9 -3.2,43.3 -0.4,5.9 -0.1,11.8 -1,17.7 -2.2,14 -5.6,27.9 -5.1,42.1 0.3,10.1 0.7,20.2 1.6,30.3 2,21.4 2.8,42.8 5.6,64.1 2.7,20.3 2.1,40.9 5.8,61 0.9,4.7 1.3,9.7 6.6,12 0.1,6 2.8,11 3.7,16.4 z"
   id="path43" />
		<path
   class="st7"
   d="m 348.2,1220.3 c -5.7,0.3 -9.8,3.5 -13.1,7.8 -0.7,0.9 -1.5,1.6 -2.7,1.7 -4.2,-10.6 -7.4,-21.5 -9.4,-32.7 -0.3,-1.7 0.2,-3.7 -0.5,-5.1 -5.8,-11 -9,-22.9 -12,-34.8 -1,-3.8 -1.4,-8.3 -3.8,-10.9 -6.2,-7 -7.2,-15.3 -8.1,-23.8 -0.6,-5.5 -3,-7.5 -8.4,-5.7 -5.2,1.7 -10.1,4.6 -15.4,5.5 -14.5,2.6 -27.9,8.7 -42,12.3 -17.6,4.5 -34.5,11.4 -52.2,15.7 -7.4,1.8 -13.8,6.2 -21.2,7.3 -11.3,1.7 -21.3,6.9 -32,10.1 0.3,-4.7 -0.1,-9.1 -4.2,-12.2 -1.2,-0.9 -1.5,-2.3 -1.4,-3.8 26.7,-8.7 53.5,-17.3 80.2,-26 33.9,-10.9 68.1,-20.6 102.2,-31 4.6,-1.4 6.4,0.7 7.5,4.5 2.6,8.9 4.9,17.8 7.6,26.6 2.8,9 5.7,18 10,26.6 2.3,4.8 3.2,10.1 4.2,15.3 -1.4,1.2 -0.6,1.6 0.7,1.9 1,4 2.1,8 3.1,12 0,1.6 -0.8,3.7 2,3.9 3.7,11.4 6.7,23 8.9,34.8 z"
   id="path45" />
		<path
   class="st4"
   d="m 298.5,810.3 c -1.9,11.7 -3.1,23.4 -4.4,35.2 -0.6,5.4 -0.6,10.9 -1.1,16.3 -1.7,18.9 -0.8,37.8 -1.3,56.7 -0.2,6.8 -0.5,13.7 -0.3,20.4 0.3,10.4 -0.2,20.9 1.2,31.3 0.9,6.3 0.7,12.8 0.9,19.2 0.7,17.6 3.8,34.6 8.8,51.4 2.4,7.9 3.2,16.2 2.8,24.5 -0.1,1.9 -0.1,3.7 -2.2,4.7 -6.2,3 -12.4,5.8 -19.4,6.6 -0.7,-5.7 2.1,-11.4 -0.1,-17.1 1.8,-16 -4.7,-30.4 -9,-45.1 -2.3,-7.8 -5.4,-15.2 -5,-23.4 0.8,-16.7 2.1,-33.3 2.7,-49.9 0.3,-9.5 -0.3,-19 -0.6,-28.5 -0.7,-18.9 0.4,-37.8 3.2,-56.6 1.6,-11 2.7,-22.3 2.2,-33.6 -0.2,-5 0.9,-9.9 1.9,-14.8 0.6,-0.1 1.4,0.1 1.8,-0.2 5.1,-3 9.8,-2.3 14.1,1.6 1.1,0.9 2.3,1.4 3.8,1.3 z"
   id="path47" />
		<path
   class="st6"
   d="m 912.3,22.7 c 7.7,-2.6 15.8,-1.8 23.7,-2 21.4,-0.6 42.9,-0.8 64.3,-0.1 19.3,0.6 38.8,0 58,2.7 17.7,2.5 35.3,6.3 52.9,9.6 12.7,2.4 25.4,4.8 38.2,7.2 0.9,0.2 1.9,0.2 2.7,0.6 12,6.6 26.3,6.3 38.4,12.8 5.1,2.8 11.2,3.9 16.9,5.4 4.6,1.2 5.8,3.7 4.3,7.9 -0.8,2.2 -1,4.6 -2.8,6.3 -4.3,-1.5 -8.9,-1.4 -13.4,-2 -1,-2.3 -2.4,-4 -5,-4.6 -3.2,-0.7 -6.4,-1.2 -9.6,-2 -15.1,-3.8 -30.7,-5.6 -45.1,-12 -10.5,-4.7 -21.5,-7.1 -33.1,-7 -8.2,0 -16.5,-0.9 -24.7,-1.9 -14.3,-1.9 -28.6,-4.5 -42.9,-6.6 -17.5,-2.5 -35,-3.5 -52.6,-4.2 -18.4,-0.7 -36.8,-1.1 -55.1,2.5 -0.9,-2.7 -2.7,-2.7 -5.2,-2.1 -6.9,1.5 -8.3,0.3 -9,-6.4 0.1,-1.5 -0.5,-2.8 -0.9,-4.1 z"
   id="path49" />
		<path
   class="st6"
   d="m 1177.9,181.2 c -0.5,4.5 -1.7,8.9 -3.2,13.2 -0.6,1.7 -1.3,3.1 -3.7,2.2 -7.6,-3.1 -16,-2.8 -23.8,-4.7 -11.5,-2.7 -23.4,-4.7 -34.1,-9.9 -13.9,-6.8 -29,-8.5 -43.8,-11.1 -15.1,-2.7 -30.3,-4.2 -45.5,-5.3 -16.4,-1.3 -32.8,-1.5 -49.2,-1.5 -13,0.1 -25.9,0.7 -38.8,1.8 -5.9,0.5 -9.4,-2.4 -10,-8.4 -0.2,-2.8 -0.4,-5.6 -0.6,-8.4 4.4,1.4 8.6,0.5 12.8,-0.8 5.8,-0.1 11.6,0 17.4,-0.2 23.3,-0.7 46.4,2.9 69.6,2.9 14.6,0 29.1,-0.1 43.5,4.3 15.1,4.7 31,6.9 46.4,10.4 16.2,3.6 32.7,6.3 48.8,10.7 5,0.5 9.2,4 14.2,4.8 z"
   id="path51" />
		<path
   class="st4"
   d="m 1672.2,509.4 c 0.1,-3.3 -2.1,-5.7 -3.3,-8.5 -0.7,-1.6 -1.6,-3 -1.4,-4.8 4.8,-5.3 7.5,-4.9 11.4,0.9 3.5,5.3 4.9,11.5 7.5,17.1 7.1,15.3 12.2,31.3 18,47 6.2,16.7 10.5,34.1 15.8,51.2 3,9.8 6.4,19.5 8.7,29.4 2.9,12.6 5.1,25.3 8.1,37.9 2.2,9.2 3.2,18.6 5.2,27.8 2.5,11.4 3.4,23.1 5.1,34.6 1,7.1 3.4,14 2.7,21.2 -3.6,1 -7,0.8 -10,-1.7 -1.1,-0.9 -2.5,-1.2 -4,-1.1 -0.2,-2.9 0,-5.9 -0.5,-8.9 -2.1,-11 -3.3,-22.1 -4.1,-33.3 -0.7,-9.3 -2.1,-18.5 -3.3,-27.8 -1.1,-8.9 -6.4,-16.1 -8.7,-24.4 -2.7,-9.9 -5.9,-19.8 -5.8,-30.2 0,-10.9 -2.1,-21.3 -5.3,-31.7 -4.2,-13.5 -10.1,-26.4 -15.1,-39.6 -4,-10.6 -5.4,-22 -9.8,-32.4 -2.3,-5.3 -5.5,-10.2 -6.9,-15.9 -0.5,-2.7 -2,-5 -4.3,-6.8 z"
   id="path53" />
		<path
   class="st8"
   d="m 298.5,810.3 c -1.5,0.1 -2.7,-0.4 -3.8,-1.4 -4.3,-3.9 -9,-4.6 -14.1,-1.6 -0.5,0.3 -1.2,0.1 -1.8,0.2 -0.2,-1.8 0.5,-3.4 0.8,-5.1 1.1,-6 -0.6,-8.2 -6.7,-9.1 -10.9,-1.7 -21.9,-2.7 -32.8,-3.9 -14.8,-1.6 -29.6,-3.6 -44.4,-5.4 -11.2,-1.4 -22.5,-3.1 -33.7,-4.3 -12.4,-1.3 -24.7,-5.1 -37.4,-3.3 -1.5,-2.2 0.2,-4.4 0.1,-6.7 -0.2,-4.4 0,-8.9 -1,-13.2 6,2.4 12.3,0.9 18.5,1.7 13.9,1.7 27.7,4.2 41.5,6.1 16.5,2.2 32.9,4.9 49.3,7.4 14.7,2.2 29.5,4.3 44.3,6.6 2.1,0.3 4.1,1.3 6.2,2 0,3.1 0.2,6.2 0,9.3 -0.2,3.2 1.2,4.7 4.1,5.8 4.2,1.5 8.6,0.7 12.8,1 -0.7,4.5 -1.3,9.2 -1.9,13.9 z"
   id="path55" />
		<path
   class="st8"
   d="m 283.4,1059.5 c 2.2,5.7 -0.6,11.4 0.1,17.1 -7.6,3.8 -15.9,5.4 -23.8,7.9 -18.8,5.9 -37.7,11.6 -56.5,17.6 -17.6,5.6 -35.3,11.4 -53.2,15.9 -8,2.1 -15.4,6.1 -23.5,7.4 -1,-5.4 -3.6,-10.4 -3.8,-16 4,-1.4 7.9,-2.8 11.9,-4.1 10.8,-3.4 21.5,-8.1 32.4,-10.4 14.4,-3 27.6,-9.7 42.1,-12.2 11,-1.9 20.9,-7.7 31.9,-10.3 14.3,-3.4 27.9,-9.9 42.4,-12.9 z"
   id="path57" />
		<path
   class="st7"
   d="m 1464.4,1386.6 c 2,-4.3 6.7,-6.3 8.6,-10.6 5,3 8.6,7.7 12.6,11.8 12.2,12.2 24.4,24.5 36.1,37.2 7.9,8.6 17.1,16 23.6,25.8 0,1.1 0.4,2.6 -0.1,3.1 -5.8,5.5 -3.6,11.2 -0.6,17 -2.4,7 -7.1,12.5 -11.7,17.8 -4.2,4.8 -8,9.9 -12.3,14.6 -7.9,8.7 -15.9,17.5 -25,25 -0.2,-9.5 -1.4,-11.4 -7.7,-12.8 0.5,-2.2 1.7,-4 3.4,-5.5 3.1,-2.9 6.4,-5.6 9.2,-8.7 10.8,-11.7 22.5,-22.5 33.5,-34 4.9,-5.1 4.9,-6.1 -0.4,-11.2 -7,-6.8 -14,-13.8 -20.8,-20.8 -4.2,-4.2 -7.7,-9.2 -12.3,-12.9 -7.4,-5.9 -12.6,-13.8 -19.7,-19.9 -5.9,-4.8 -9.5,-12 -16.4,-15.9 z"
   id="path59" />
		<path
   class="st4"
   d="m 1708.2,1164.9 c -3.7,-1.3 -7.3,-3.2 -11.5,-2.9 -2.1,-1.9 -4.6,-3.1 -7.3,-4.1 -9.2,-3.3 -18.5,-6.7 -27.8,-10 -14.7,-5.1 -29.4,-10.4 -44.3,-14.9 -6,-1.9 -11.8,-4.9 -18.4,-4.9 -4.1,-1.4 -7.6,-4.7 -12.4,-3.9 1.2,-4.4 2.4,-8.7 3.4,-13.1 0.7,-3.3 2.3,-3.8 5.3,-2.7 14.3,5.4 28.7,10.6 43,15.9 20.3,7.5 40.6,15 60.9,22.5 1.9,0.7 3.7,1.8 5.6,2.4 6.7,2.3 7.2,3.1 5.5,9.8 -0.4,2.2 -0.4,4.4 -2,5.9 z"
   id="path61" />
		<path
   class="st7"
   d="m 1177.9,181.2 c -5,-0.9 -9.1,-4.3 -14.3,-4.7 0.6,-2 3.2,-2.1 3.8,-4.5 5,-18.9 9.3,-37.9 15.7,-56.5 5,-14.5 8.4,-29.6 12.5,-44.5 4.5,0.6 9.1,0.5 13.4,2 -1.8,10.4 -4.1,20.7 -7.3,30.8 -7,21.9 -13.1,44.1 -19.3,66.3 -1.1,3.9 -3,7.5 -4.5,11.1 z"
   id="path63" />
		<path
   class="st7"
   d="m 937.9,148.4 c -4.2,1.2 -8.4,2.2 -12.8,0.8 -4.1,-28 -7.7,-56.2 -11,-84.3 -0.8,-6.6 -1.7,-13.3 -2.6,-19.9 -0.7,-2.5 2,-5.9 -1.9,-7.6 -0.5,-3.1 -1,-6.1 -1.5,-9.2 -0.6,-3.4 0.4,-5.5 4.3,-5.4 0.4,1.3 0.9,2.6 1.1,4 0.7,6.8 2.1,7.9 9,6.4 2.5,-0.5 4.2,-0.5 5.2,2.1 -1.3,1.7 -4.8,1.3 -4.3,4.7 0.8,5.5 1.3,11.1 2.2,16.6 1.4,8.7 3.3,17.3 4,26 1.1,13.2 3.5,26.2 5.2,39.3 0.9,8.9 2,17.7 3.1,26.5 z"
   id="path65" />
		<path
   class="st6"
   d="m 1489,281.9 c -5.1,0.9 -8.3,-3.2 -12.4,-4.8 7.2,-10.5 14.6,-20.9 23.7,-29.8 1.7,-1.7 2.3,-5.3 5.3,-4.6 3.1,0.7 4.9,3.7 6.7,6.2 0.8,1.1 1.3,2.4 2,3.6 -1.9,2.8 -3.8,5.7 -5.7,8.5 -1.7,0.2 -2.9,1.2 -3.6,2.6 -2.7,5.2 -7.3,8.8 -10.4,13.6 -1.3,2 -2.9,4.2 -5.6,4.7 z"
   id="path67" />
		<path
   class="st6"
   d="m 906.8,1807 c 0.3,-5.5 -1.7,-10.9 -0.2,-16.5 0.7,-2.7 1.4,-3.8 4.3,-4.2 3.9,-0.5 7.8,-1.8 11.7,-2.7 0.7,6.8 -0.6,13.6 -0.7,20.4 0,3.1 -2.6,3.6 -4.9,3.9 -3.4,0.4 -6.8,-0.2 -10.2,-0.9 z"
   id="path69" />
		<path
   class="st6"
   d="m 121.7,1151.6 c -0.1,1.5 0.2,2.8 1.4,3.8 4.1,3.2 4.5,7.6 4.2,12.2 0,0.3 -0.1,0.6 -0.1,0.9 -5.9,1.3 -11.8,2.5 -17.7,3.8 -2.9,-4.4 -1.7,-9.6 -2.6,-14.5 -0.4,-2.4 1.9,-3.4 3.9,-3.9 3.6,-0.9 7.3,-1.5 10.9,-2.3 z"
   id="path71" />
		<path
   class="st6"
   d="m 289.1,755.9 c -0.8,-4.1 1.3,-7.4 3,-10.8 2.2,-4.2 6.1,-3.9 9.8,-3.2 2.6,0.5 5.2,0.7 7.8,0.7 0.2,4.7 -1.1,9.2 -2,13.7 -0.5,2.7 -2.2,3.6 -4.7,2.9 -4.7,-1.1 -9.3,-2.2 -13.9,-3.3 z"
   id="path73" />
		<path
   class="st4"
   d="m 300.3,796.2 c -4.3,-0.3 -8.6,0.6 -12.8,-1 -2.9,-1 -4.3,-2.6 -4.1,-5.8 0.2,-3.1 0,-6.2 0,-9.3 4.9,-0.2 9.8,-0.8 14.7,0.5 3.3,0.9 4.5,2.5 4.3,5.9 -0.3,3.5 -1.3,6.6 -2.1,9.7 z"
   id="path75" />
		<path
   class="st6"
   d="m 587.2,1735.7 c 4.8,0 9,2.4 13.3,4 2.6,1 1.8,3.2 0.9,5.2 -1.7,3.4 -3.2,6.7 -2.9,10.7 -2.4,-0.5 -5.1,-0.6 -7.3,-1.6 -8.9,-4.3 -12.2,-8 -4,-18.3 z"
   id="path77" />
		<path
   class="st6"
   d="m 119,716.2 c 4.7,0.6 9.5,1.3 14.2,1.9 2.9,0.4 3,2.6 2.4,4.6 -0.7,2.4 -1.6,4.8 -3.8,6.2 -1.4,0.9 -2.6,1.7 -2.7,3.5 -2.3,-0.4 -4.5,0.8 -6.9,0.3 -5.7,-1.3 -7,-3 -5.7,-8.7 0.7,-2.5 1.7,-5.1 2.5,-7.8 z"
   id="path79" />
		<path
   class="st6"
   d="m 1755,826.3 c -2,0 -4.1,-0.1 -6.1,0.1 -5.2,0.6 -6.9,-0.8 -7.1,-6 -0.1,-2.3 0,-4.7 -0.1,-7 2.3,-0.4 4.5,-0.9 6.8,-1.2 4.1,-0.6 6.2,1.1 6.4,5.3 0.2,2.9 0.1,5.8 0.1,8.8 z"
   id="path81" />
		<path
   class="st6"
   d="m 1708.9,1128.4 c 0,-1.2 0,-2.5 0,-3.7 0.1,-5.2 1.6,-9.9 8.6,-8.8 1.8,0.3 3.7,0.1 5.5,0.1 -0.7,4.9 -2.6,9.4 -4,14.1 -0.8,2.4 -2.8,2.3 -4.6,1.6 -1.9,-0.9 -3.7,-2.2 -5.5,-3.3 z"
   id="path83" />
		<path
   class="st4"
   d="m 1741.8,793.3 c -0.1,-2.3 0.2,-4.6 -0.6,-6.9 -2,-6.3 0.3,-9.5 7,-10 0.9,-0.1 1.9,0 2.8,0 0.3,3.1 0.4,6.2 0.9,9.3 0.9,4.8 -0.4,6.2 -5.1,6.8 -1.6,0.2 -3.3,0.5 -5,0.8 z"
   id="path85" />
		<path
   class="st6"
   d="m 1544.6,1470.9 c -3,-5.8 -5.2,-11.4 0.6,-17 0.5,-0.5 0.1,-2.1 0.1,-3.1 4.5,1.3 8.3,4.1 8.3,8.8 -0.1,5.4 -4.1,9 -9,11.3 z"
   id="path87" />
		<path
   class="st7"
   d="m 109.6,1172.4 c 5.9,-1.3 11.8,-2.5 17.7,-3.8 0,3.5 0.1,6.9 0.1,10.4 -5.8,1.2 -11.1,-2.6 -16.9,-1.9 -0.3,-1.6 -0.6,-3.2 -0.9,-4.7 z"
   id="path89" />
		<path
   class="st6"
   d="m 892.7,1807.6 c 2.6,-3.3 5.3,-3.4 8.5,-0.4 -2.7,2.8 -5.6,2.1 -8.5,0.4 z"
   id="path91" />
		<path
   class="st6"
   d="m 909.6,37.3 c 4,1.7 1.2,5.1 1.9,7.6 -3.3,-1.9 -1.3,-5.1 -1.9,-7.6 z"
   id="path93" />
		<path
   class="st6"
   d="m 339.1,1185.5 c -2.8,-0.2 -1.9,-2.3 -2,-3.9 2.3,0.4 1.9,2.3 2,3.9 z"
   id="path95" />
		<path
   class="st6"
   d="m 276,754.7 c 0.7,-1 1.3,-0.8 1.9,0.2 -0.8,0.8 -1.4,0.6 -1.9,-0.2 z"
   id="path97" />
		<path
   class="st6"
   d="m 334,1169.6 c -1.3,-0.3 -2.1,-0.7 -0.7,-1.9 0.7,0.4 0.9,1.1 0.7,1.9 z"
   id="path99" />
		<path
   class="st6"
   d="m 140.6,735 c 0.9,-1.1 1.4,-0.7 1.9,0.4 -0.8,0.4 -1.4,0.3 -1.9,-0.4 z"
   id="path101" />
		<path
   class="st6"
   d="m 284.4,755.7 c 0.7,-1 1.3,-0.9 1.9,0.1 -0.7,0.7 -1.3,0.8 -1.9,-0.1 z"
   id="path103" />
		<path
   class="st6"
   d="m 903.1,1807.3 c 0.6,-1 1.2,-1.1 1.9,-0.1 -0.6,0.8 -1.3,0.8 -1.9,0.1 z"
   id="path105" />
		<path
   class="st6"
   d="m 862.6,1808.2 c 0.6,-1.1 1.3,-1.1 1.9,0 -0.6,0.7 -1.2,0.7 -1.9,0 z"
   id="path107" />
		<path
   class="st6"
   d="m 866.4,1808.1 c 0.6,-1 1.2,-1.1 1.9,-0.1 -0.6,0.9 -1.2,0.9 -1.9,0.1 z"
   id="path109" />
		<path
   class="st9"
   d="m 1550,871 c -0.7,16.9 -0.3,34.2 -2.3,51.3 -4.1,34.9 -7.2,70 -15.5,104.2 -4.7,19.4 -9.5,38.9 -15.9,57.8 -5,14.8 -9.1,29.9 -15.5,44.1 -5.5,12.1 -9.4,24.9 -15.5,36.6 -5.7,10.9 -10.1,22.6 -16.1,33.3 -10.2,18 -20.5,36.1 -31.6,53.6 -9.3,14.6 -19.4,28.7 -29.9,42.4 -10.6,13.9 -21.7,27.4 -33.4,40.4 -15,16.7 -31,32.5 -47.7,47.5 -15.1,13.5 -31,26.2 -47.4,38.1 -20.5,14.8 -41.9,28.4 -64,40.6 -20.5,11.4 -41.7,21.4 -63.6,29.9 -45.4,17.8 -92.1,30 -140.7,35.2 -28.4,3.1 -56.9,4.1 -85.4,2.5 -30.4,-1.7 -60.4,-5.8 -90.1,-12.8 -33.5,-7.8 -65.8,-18.8 -97.2,-33 -16.1,-7.3 -31.8,-15.3 -47.2,-24.1 -22.6,-12.9 -44.1,-27.2 -64.5,-43.3 -10.6,-8.3 -20.8,-16.9 -30.8,-25.9 -11.5,-10.3 -22.5,-21.1 -33.1,-32.4 -10.9,-11.6 -21.4,-23.5 -31.3,-35.9 -11.8,-14.8 -22.9,-29.9 -33.3,-45.7 -4.7,-7 -8.9,-14.3 -13.4,-21.4 -12.8,-20.4 -23.4,-41.9 -33.7,-63.7 -5.8,-12.2 -10,-24.9 -15.4,-37.1 -7.1,-16.3 -10.5,-33.7 -16.3,-50.3 -7.3,-20.9 -11.2,-42.5 -15.9,-64 -8.3,-37.8 -10.9,-76 -12,-114.5 -1.4,-46 1.6,-91.8 9.8,-137.1 4.3,-23.5 8.5,-47.1 15.8,-69.9 5.2,-16.2 8.9,-32.9 15.5,-48.6 5.6,-13.6 9.6,-27.8 16.2,-40.9 5.1,-10.2 8.7,-21.1 14.4,-31 5.7,-9.9 9.9,-20.5 15.8,-30.3 10.6,-17.7 21,-35.4 32.5,-52.5 9.8,-14.6 20.5,-28.7 31.5,-42.4 10.1,-12.6 20.9,-24.8 32,-36.7 10.2,-10.9 20.9,-21.5 31.8,-31.7 10.4,-9.6 21.2,-18.9 32.3,-27.8 15.1,-12.1 30.8,-23.5 47,-34 25.4,-16.6 52,-31.2 79.7,-43.5 35.1,-15.6 71.5,-27.6 109,-35.9 29.4,-6.6 59.1,-10.3 89.3,-11.7 39.9,-1.8 79.4,1 118.7,8.3 27.1,5.1 53.7,12.3 79.7,21.5 27.8,9.9 54.5,21.9 80.3,36.3 16.1,9 31.7,18.7 46.9,29.3 17.2,12 33.6,24.8 49.3,38.7 9.7,8.6 19.2,17.3 28.3,26.5 12.4,12.6 24.2,25.5 35.4,39.2 10.7,13 20.9,26.4 30.6,40.1 11.9,16.8 22.5,34.4 32.7,52.3 5.5,9.7 9.9,19.8 15.3,29.5 6.9,12.2 11.1,25.4 17,38 6,12.8 9.6,26.4 14.9,39.4 7.8,19.1 11.6,39.2 16.9,58.9 9.2,34.1 12.6,69.1 16.7,104 2.3,19.6 2,38.9 3.4,58.6 z m -18,-0.8 c -0.1,-13.8 0,-27.6 -1.3,-41.5 -3.5,-38 -6.7,-76 -17,-112.9 -5.2,-18.5 -8.7,-37.3 -15.7,-55.3 -5.8,-14.8 -9.7,-30.3 -16.7,-44.7 -5.6,-11.3 -9.2,-23.5 -15.7,-34.5 -5.9,-10.1 -10.4,-20.9 -16.3,-31 -9.8,-16.9 -19.9,-33.4 -31.1,-49.3 -10.3,-14.7 -21.3,-28.8 -32.9,-42.5 -10,-11.8 -20.5,-23.1 -31.4,-34 -10.1,-10 -20.4,-19.7 -31.3,-28.8 -10.8,-9 -21.7,-17.8 -33,-26.1 -15.2,-11.1 -30.9,-21.1 -47.1,-30.6 -22.2,-13 -45.3,-24 -69.2,-33.5 -39.8,-15.7 -80.9,-26.1 -123.4,-31.4 -36.5,-4.5 -73.1,-5.3 -109.7,-1.4 -41.8,4.4 -82.8,12.5 -122.5,27.2 -28.9,10.8 -57.3,22.6 -84.3,37.6 C 711,350 689.6,364 669,379.2 c -16.2,12 -31.6,24.9 -46.4,38.6 -10.9,10 -21.5,20.4 -31.6,31.2 -11.2,12.1 -22.1,24.6 -32.4,37.5 -10.9,13.8 -21.6,27.9 -31.3,42.6 -11.4,17.3 -21.8,35.3 -32.4,53.1 -6,10.1 -10.1,21.1 -15.8,31.4 -6.4,11.6 -10.3,24.4 -16,36.4 -6,12.7 -9.9,26.3 -14.6,39.5 -6.4,18.2 -11.5,37 -16.3,55.7 -7.3,28.2 -10.5,57.1 -15,85.9 -2.8,18.2 -3.5,36.8 -3.8,55.3 -0.6,34.2 -0.2,68.4 5.2,102.4 4.6,28.8 7.9,57.9 16.2,86 5.3,17.9 9,36.3 16.4,53.7 5.5,12.9 9.1,26.5 15.4,39.2 5.6,11.3 9.5,23.4 16.1,34.3 5.9,9.9 9.9,20.8 16.4,30.4 5.6,8.2 10.1,17.2 15.6,25.5 10.2,15.3 20.6,30.4 32.1,44.8 10.4,13.1 21.2,25.7 32.6,37.9 15,15.9 30.8,30.9 47.6,44.9 10.2,8.5 20.7,16.6 31.4,24.4 15.4,11.2 31.5,21.4 48.1,30.8 20.7,11.7 42.1,21.9 64.2,30.8 25.6,10.3 51.9,18.4 78.9,24.2 43.4,9.4 87.2,13.1 131.6,11 42.1,-1.9 83.4,-9.2 123.7,-21.3 38.9,-11.7 76.1,-27.5 111.4,-47.7 21.7,-12.4 42.8,-25.9 62.7,-40.9 16.7,-12.5 32.7,-26.1 47.9,-40.3 10.7,-10 21.1,-20.4 31,-31.2 11.2,-12.3 22.2,-24.9 32.4,-38.1 11.4,-14.6 21.9,-30 32.5,-45.1 5.4,-7.6 10.1,-15.8 14.7,-23.9 11.1,-19.2 21.2,-38.9 31.3,-58.6 6.1,-11.9 10.5,-24.7 15.7,-37.1 6.6,-15.7 11.6,-32 17.1,-48.1 6.3,-18.5 10.3,-37.7 14.8,-56.6 9,-37.5 11.9,-75.9 15.4,-114.2 1.1,-11.1 0.2,-22.3 0.2,-33.4 z"
   id="path111" />
		<path
   class="st10"
   d="m 429.6,1398 c 2.9,-0.1 4.1,2.3 5.3,4.1 3.3,5.1 6.8,10.1 10.4,15 2.9,3.9 7.6,6 10.4,10.1 6,8.8 11,18.1 16.4,27.2 2.1,3.6 4.8,6.6 9,7.7 1.5,0.4 2.9,1.2 3.9,2.5 6.8,8.7 17.3,12.8 25.3,19.9 3.1,2.8 6.4,5.3 9.1,8.6 3.2,3.9 6.8,7.4 11.8,9.7 7,3.2 12.4,8.6 17.7,14.3 9.5,10.3 21.2,17.8 32.6,25.7 13,9.1 25,19.6 39,27.2 2.9,1.6 3.5,3.3 2.2,6.4 -5.8,13 -10.8,26.3 -19,38 -2,2.9 -2.9,6.5 -4.4,9.8 -6,12.5 -11.8,25.1 -18,37.5 -6.1,12.3 -13,24.1 -18.7,36.7 -1.4,3.1 -3.7,5.6 -5,8.9 -3.2,8.4 -8.8,10.2 -15.4,4.1 -9.1,-8.4 -19.3,-14.6 -30.9,-19 -2.4,-0.9 -4.2,-3.2 -6.2,-4.9 -7.1,-5.5 -15.3,-9 -23.3,-12.7 -12.3,-5.7 -23.7,-12.5 -33.8,-21.5 -5.1,-4.5 -11.1,-7.3 -17,-10.6 -8.7,-4.9 -16.7,-11 -25.2,-16.2 -5,-3 -9.8,-5.9 -12.3,-11.5 -1.4,-3.3 -4.4,-5.2 -7.4,-7 -5.4,-3.3 -9.1,-8.4 -13.7,-12.6 -6.1,-5.5 -9.4,-12.7 -14.1,-19.1 -1,-1.4 -2.2,-3 -3.6,-3.6 -9.6,-4.3 -16.2,-12.1 -22.4,-20 -7.3,-9.5 -17.6,-15.2 -26.3,-22.9 -4.1,-3.6 -7.9,-7.6 -11.9,-11.4 -2,-1.9 -0.6,-3.1 0.7,-4.2 4.9,-4.3 9.9,-8.6 14.8,-12.9 8,-7 15.9,-14.1 23.8,-21.1 11.7,-10.3 23.4,-20.6 35.1,-30.9 10,-8.8 20,-17.7 30.4,-26.1 9,-7.3 17.5,-15.1 25.9,-23 1.4,-1.4 3,-2.1 4.8,-2.2 z"
   id="path113" />
		<path
   class="st10"
   d="m 579.3,139.8 c 3.5,0 4.9,1.9 6,4 6,11 12,22.1 18,33.1 6.5,11.9 12.6,24.1 19.8,35.5 5.5,8.8 9.8,18.1 15,27 1.7,2.8 0.5,4.8 -2,6.7 -7.5,5.9 -16.1,10.2 -23.9,15.6 -8.3,5.7 -15.2,12.9 -23.5,18.5 -10.7,7.3 -21.3,14.7 -31.3,22.9 -5.4,4.5 -10.6,9.2 -15.8,13.8 -13.6,11.8 -25.8,25.1 -39.4,36.8 -12.6,10.8 -23.3,23.3 -34.4,35.6 -7.8,8.7 -15.9,17.1 -23.7,25.7 -3.4,3.7 -5.7,8.2 -8,12.7 -3.3,6.3 -6.7,7 -12.2,2.8 -19,-14.6 -38,-29.2 -57.3,-43.6 -14.3,-10.7 -29.2,-20.7 -43.7,-31.1 -2.6,-1.8 -2.5,-3 -0.2,-5 5.5,-4.6 11,-9.2 16.1,-14.3 4.5,-4.5 8.3,-9.7 12.7,-14.4 5.9,-6.3 11.8,-12.7 18.6,-18.2 6.7,-5.3 13,-11.2 19.3,-17 11,-10.4 21.7,-21.1 32.1,-32.1 12.2,-12.8 24.5,-25.5 38.5,-36.2 12.6,-9.6 24.6,-19.8 37.6,-29 9.6,-6.8 19.6,-13.1 28.7,-20.7 10.1,-8.4 22.7,-12.7 33.8,-19.7 4.9,-3.1 10.2,-5.4 15.3,-8 1.6,-0.6 3,-1.5 3.9,-1.4 z"
   id="path115" />
		<path
   class="st10"
   d="m 964,1788.3 c -1.6,0 -3.1,0 -4.7,0 -2.8,0 -4.6,-1.4 -4.5,-4.3 0.3,-8.1 0.2,-16.3 1.3,-24.3 0.7,-5.3 0.8,-10.6 0.9,-15.8 0.2,-8.4 2.2,-16.5 2.5,-24.9 0.7,-18.5 2.2,-37 2.7,-55.6 0.1,-2.3 0.7,-4.6 1,-6.9 0.8,-5.2 4.9,-6.4 9,-6.4 10.5,0.1 20.9,-1.4 31.4,-1.1 14.7,0.4 28.7,-3.7 42.8,-6.9 14.1,-3.2 28.2,-6.5 42.3,-9.9 18.9,-4.6 37.6,-10 56,-16.5 12.5,-4.4 25.1,-8.6 37.5,-13.2 8.7,-3.2 17,-7.6 25.9,-10.7 3.2,-1.1 6.5,-1.8 9.6,-3.5 3.5,-1.8 5.4,1.1 6.3,3.7 3.3,9 8.2,17.4 10.1,27 2.3,12 7.9,22.8 12.1,34.1 3.7,9.8 5,20.3 9.3,29.9 1.3,2.9 3.3,5.4 3,9 -0.2,3.2 -1.3,5.5 -4,6.8 -14.4,6.6 -27.8,15.1 -43.2,19.9 -11.8,3.7 -22.9,9.8 -34.4,14.7 -17.3,7.3 -34.9,14.1 -53.4,18.2 -11.7,2.6 -22.6,8.1 -34.1,11.4 -14,4 -28.2,8.2 -42.6,10.3 -20,2.9 -39,9.5 -58.8,12.6 -8,1.3 -16.1,1.8 -24.1,2.6 0.1,0 0.1,-0.1 0.1,-0.2 z"
   id="path117" />
		<path
   class="st11"
   d="m 871.4,42.8 c 3.2,-0.7 4.7,1 5.8,5 3.6,12.9 4.4,26.2 6.2,39.4 3,21.1 3.7,42.5 8.6,63.3 0.9,3.7 -1.1,3.8 -3.5,4.2 -8.2,1.3 -16.4,1.3 -24.6,2.6 -7.6,1.2 -14.7,3.9 -22.1,5.9 -10.8,3 -22.1,5.3 -32.2,9.9 -12.9,5.9 -26.5,9.1 -39.7,13.8 -13.7,4.8 -27.5,9.4 -40.7,15.1 -11.1,4.8 -23.5,6.5 -33.8,13.4 -3.3,2.2 -7.2,-0.2 -10,-5.4 -3.8,-7 -7.1,-14.3 -11.2,-21.2 -5.9,-9.8 -10.6,-20.2 -16.5,-29.9 -8.2,-13.3 -15.5,-27 -23.4,-40.4 -3,-5 -2.7,-6.6 2.8,-8 16.5,-4.1 31,-12.9 46.6,-19.3 4.1,-1.7 8.5,-2.2 12.5,-3.9 15.2,-6.5 31.4,-10.2 46.9,-15.8 12.3,-4.5 24.6,-8.8 37.3,-12 5.6,-1.4 11.3,-2 17,-3 7.5,-1.2 14.4,-5 22.1,-5.9 17,-1.6 33.8,-6.4 51.9,-7.8 z"
   id="path119" />
		<path
   class="st12"
   d="m 127.3,1178.9 c 0,-3.5 -0.1,-6.9 -0.1,-10.4 0.1,-0.3 0.1,-0.6 0.1,-0.9 10.7,-3.2 20.7,-8.4 32,-10.1 7.3,-1.1 13.8,-5.5 21.2,-7.3 17.7,-4.3 34.6,-11.2 52.2,-15.7 14.2,-3.6 27.6,-9.7 42,-12.3 5.3,-1 10.2,-3.8 15.4,-5.5 5.4,-1.8 7.8,0.1 8.4,5.7 1,8.5 1.9,16.9 8.1,23.8 2.4,2.7 2.8,7.2 3.8,10.9 3,11.9 6.2,23.8 12,34.8 0.7,1.4 0.2,3.4 0.5,5.1 2,11.2 5.2,22.1 9.4,32.7 1.6,7.7 3,15.2 7.1,22.4 4.4,7.8 7.1,16.5 11.6,24.4 5.9,10.6 11,21.7 17.6,31.9 5.2,8.1 11.1,15.8 17.6,23 4.6,5 7.4,11.2 10.5,17.1 1.1,2.2 0.6,4.3 -1.6,5.8 -10.4,6.9 -19.4,15.7 -29,23.5 -8.6,7 -16.8,14.4 -25.2,21.5 -13.3,11.3 -26.7,22.5 -40,33.8 -8,6.8 -15.8,13.7 -23.7,20.5 -5.7,4.9 -11.4,9.7 -16.9,14.8 -5.1,4.7 -7.8,3.7 -9.9,-3 -1.6,-5.2 -3.5,-10.4 -4.5,-15.7 -2.4,-11.8 -9.1,-20.8 -18,-28.1 -3.6,-2.9 -5.4,-6.4 -6.5,-10.5 -2,-7.9 -5.1,-15 -12.1,-19.8 -2.4,-1.7 -4.4,-4.2 -5.1,-7.1 -3.4,-13.9 -10.8,-25.8 -18.3,-37.7 -5.4,-8.5 -8.5,-17.9 -11.6,-27.3 -4.3,-13 -9.3,-25.8 -15.4,-38.1 -4,-8.1 -7.3,-16.4 -10.3,-25 -6.2,-18 -10.1,-36.6 -16.3,-54.5 -2.4,-7.6 -2.2,-15.4 -5,-22.7 z"
   id="path121" />
		<path
   class="st10"
   d="m 1470.1,231 c 0.1,1.5 -0.3,2.5 -1,3.4 -10.3,12.5 -20.4,25.2 -30.6,37.7 -10.8,13.3 -21.5,26.6 -32.2,40 -6.5,8.1 -6.4,7.6 -13.1,-0.1 -6.5,-7.6 -13,-15.1 -22.2,-20.2 -10.2,-5.6 -17.3,-15.8 -27.4,-21.8 -13.1,-7.7 -25.5,-16.3 -37.4,-25.5 -14.8,-11.4 -31.4,-18.3 -48,-25.7 -2.2,-1 -4.1,-2.2 -5.8,-3.8 -3.2,-3 -6.9,-5.7 -11,-6.9 -9.8,-2.8 -18.6,-7.9 -27.8,-12 -3.1,-1.4 -4.5,-3.5 -3.6,-7.1 2.3,-8.9 6.5,-17.1 8.6,-26.1 2.6,-11.2 5.9,-22.3 9.8,-33.2 4.5,-12.8 7.3,-26 12.1,-38.7 2,-5.3 3.2,-6 8.1,-2.9 7.4,4.6 15.3,8.6 21.1,15.4 0.6,0.7 1.4,1.4 2.2,1.6 13,4.1 24.7,11.3 37.6,15.5 8,2.6 16.3,4.2 23.9,7.8 4.7,2.2 8.9,5.1 12.4,9 2,2.3 4.3,4.3 7.3,5 5.3,1.2 8.7,5.4 13.2,7.7 14.5,7.6 24.5,21 38.7,29.1 6.3,3.6 11.6,8.9 17,13.9 3.9,3.5 8.3,6.1 12.7,8.7 3.5,2 6.3,4.5 9,7.3 7.2,7.2 16.3,11.9 24,18.5 1.3,0.9 2.9,1.6 2.4,3.4 z"
   id="path123" />
		<path
   class="st12"
   d="m 1742.9,853.2 c -0.7,6.9 -1.6,13.7 -1.9,20.6 -0.4,8.9 0.9,17.7 2.1,26.5 1.2,8.2 2.3,16.3 -1.3,24.3 -2.2,5.1 -2.1,10.7 -3,16 -1.1,6 -2.7,11.9 -3,18.2 -0.6,9.8 -3,19.5 -3.2,29.2 -0.2,9.8 -1.6,19.2 -3.9,28.7 -2.3,9.4 -2.1,19.2 -3.6,28.7 -1.1,6.9 -4.1,13 -5.9,19.5 -3.2,12.1 -3.7,24.6 -6.5,36.8 -0.3,1.4 -0.7,2.7 -1,4.1 -1.7,7 -1.8,7.3 -8.7,4.8 -13.1,-4.6 -26,-9.8 -39.1,-14.5 -12.6,-4.5 -25.2,-8.9 -37.9,-13.2 -10.8,-3.7 -11.6,-5.8 -9.5,-17.2 3.2,-17 6.6,-33.9 9.9,-50.9 4,-20.6 5.3,-41.5 8.3,-62.2 2.2,-15 0.6,-29.9 0.7,-44.8 0.1,-11.8 3.1,-23.1 3.6,-34.8 0.4,-9.9 0.5,-19.7 -1.2,-29.4 -0.8,-4.4 0.5,-6.4 4.5,-6.8 10.8,-1.1 21.7,-2 32.6,-3 11.9,-1.1 23.8,-2.4 35.8,-3.5 8.7,-0.8 17.4,-1.4 26.1,-2.1 2.8,-0.2 4.1,0.5 4.3,3.8 0.3,7.1 1.2,14.2 1.8,21.2 z"
   id="path125" />
		<path
   class="st12"
   d="m 1489,281.9 c 2.7,-0.5 4.3,-2.7 5.6,-4.6 3.1,-4.8 7.8,-8.4 10.4,-13.6 0.7,-1.4 1.9,-2.5 3.6,-2.6 5.7,10.8 14.5,19 22.8,27.6 3.1,3.3 5.1,7.4 8.3,10.7 2.8,2.9 5.4,6 8.3,8.8 4.2,4.1 6.9,9.3 10.1,14.3 6.8,10.6 11.9,22.5 22.7,30.4 7.9,5.7 12.9,14.3 16.8,23.3 5,11.7 12.1,22.2 18.9,32.8 3.4,5.3 4.9,11.5 8.6,16.6 5.7,8 10.7,16.5 14.3,25.7 1.3,3.3 4.4,5.2 6.2,8.2 3.9,6.5 3.1,8.4 -3.5,11.8 -9.4,4.8 -18.4,10.5 -27.6,15.7 -18.9,10.8 -37.9,21.6 -56.7,32.6 -3.6,2.1 -4.7,2.1 -6.8,-2.1 -6.2,-12.2 -12.2,-24.4 -18.3,-36.6 -4.9,-9.7 -9.9,-19.5 -16.1,-28.5 -7.1,-10.4 -15.4,-20 -22.4,-30.4 -7.5,-11.1 -13.8,-23.1 -23.5,-32.4 -7.7,-7.3 -13.7,-16.1 -21.2,-23.6 -4.1,-4.1 -6.9,-9.3 -11.2,-13.2 -1.7,-1.5 -0.5,-3.3 0.4,-4.7 3.7,-6.2 8.2,-11.8 13,-17.1 1.9,-2.1 3.6,-4.3 5.3,-6.5 8.5,-10.5 16.8,-21.3 25.4,-31.7 2.5,-3.5 6.2,-6.1 6.6,-10.9 z"
   id="path127" />
		<path
   class="st12"
   d="m 1464.4,1386.6 c 6.9,3.9 10.5,11 16.3,16 7.1,6.1 12.3,14 19.7,19.9 4.6,3.7 8.1,8.7 12.3,12.9 6.9,7 13.8,13.9 20.8,20.8 5.3,5.2 5.3,6.1 0.4,11.2 -11,11.4 -22.7,22.3 -33.5,34 -2.8,3 -6.1,5.8 -9.2,8.7 -1.6,1.5 -2.9,3.3 -3.4,5.5 -4.6,1.8 -7.4,5.7 -10.3,9.2 -9.4,11.3 -19.9,21.5 -30.1,32 -5.8,5.9 -11.1,12.3 -17.2,18 -15.4,14.6 -31.5,28.2 -49.4,40 -16.2,10.7 -33.5,19.8 -49,31.6 -8.5,6.5 -16.5,13.8 -25.9,19.3 -2.9,1.7 -3.9,0.8 -4.8,-1.6 -7,-21 -15.2,-41.6 -22.9,-62.3 -4,-10.6 -6.9,-21.9 -12.5,-32 -2,-3.6 -2.2,-6.5 1.2,-9.5 3.6,-3.1 6.9,-6.2 11.4,-7.9 4.6,-1.8 7.8,-6 12,-8 6.3,-3 12,-6.6 17.6,-10.5 9.7,-6.8 19.6,-13.3 28.9,-20.7 17.3,-13.6 33.4,-28.5 49.4,-43.6 8.4,-7.9 16,-16.5 24.4,-24.4 9.1,-8.5 18.2,-16.9 25.9,-26.7 2.4,-3.1 4.7,-6.2 7.2,-9.2 6.7,-8 13.5,-15.6 20.7,-22.7 z"
   id="path129" />
		<path
   class="st12"
   d="m 400.8,481.2 c 0.6,3.2 -2.2,4.7 -3.6,6.8 -7.4,10.6 -14.7,21.2 -19,33.6 -1.7,5 -4.8,9.4 -8.4,13.4 -1,1.1 -1.9,2.5 -2.5,3.9 -7.5,16.2 -18.2,30.7 -24.1,47.6 -1.4,3.8 -1.9,7.9 -2.7,11.8 -2.3,11.2 -7.8,21.3 -12,31.8 -7.6,19 -16.4,37.7 -20.8,57.9 -1.5,6.7 -5.2,13 -7.1,19.7 -2.1,7.8 -3.3,15.8 -4.9,23.8 -1.5,7.9 -3.6,9 -11.7,7.8 -15.2,-2.3 -30.5,-4 -45.8,-6.1 -11.1,-1.5 -22.2,-3.3 -33.2,-4.9 -12.6,-1.8 -25.3,-3.6 -37.9,-5.4 -8.6,-1.2 -17.2,-2.5 -25.9,-3.8 -2.4,-0.4 -3.2,-2 -3.5,-4.3 -1.5,-11.9 2.7,-22 9.4,-31.5 4.6,-6.5 7.8,-13.8 9.3,-21.8 0.2,-1.2 0.4,-2.5 -0.8,-3.4 6.1,-8.4 6.4,-18.5 8.6,-28.1 0.3,-1.4 0.5,-2.9 1.4,-4 5.6,-6.7 5.8,-16 11,-22.6 8.3,-10.8 9.4,-24.7 15.8,-36.2 6.9,-12.5 13.3,-25.2 19.3,-38.1 4,-8.8 7.4,-17.9 12.4,-26.2 6.5,-10.9 12,-22.5 20.2,-32.5 4,-4.9 6.7,-10.7 8.7,-16.5 4.3,-12.8 12.2,-23.5 19.7,-34.3 3.8,-5.5 8.3,-10.9 13.3,-15.6 4.7,-4.4 7,-4.7 12.1,-0.8 5.2,3.9 10.3,7.9 15.5,11.8 15.9,12 31.7,24.1 47.7,36 10.2,7.6 20.6,15.1 31,22.5 3.1,2.2 5.4,5.4 8.5,7.7 z"
   id="path131" />
		<path
   class="st10"
   d="m 1598.9,1128.2 c 6.6,-0.1 12.4,3 18.4,4.9 14.9,4.6 29.6,9.8 44.3,14.9 9.3,3.2 18.5,6.6 27.8,10 2.6,1 5.2,2.1 7.3,4.1 -3.6,10.6 -9.1,20.5 -11.3,31.5 -1.6,7.6 -2.8,15.5 -6.5,22.4 -6.8,12.6 -11,26.7 -18.9,38.5 -7.2,10.6 -10.8,22.4 -16.2,33.5 -9.7,19.9 -18.7,40.1 -29.2,59.6 -5.8,10.7 -12.2,21.3 -20.3,30.7 -2.9,3.4 -4.6,7.8 -6.7,11.8 -4.7,9 -10.9,17.1 -15.1,26.4 -2.8,6.2 -5.9,6.9 -10.7,2 -8.8,-9 -17.7,-18 -26.6,-26.9 -9.8,-9.8 -19.2,-20.1 -29.8,-29.1 -4.6,-3.9 -8.8,-8.3 -13.2,-12.5 -1.6,-1.5 -1.3,-3.3 -0.9,-5.2 1.1,-4.8 4.5,-8.2 7.1,-12.1 10.7,-16.4 22.2,-32.3 30.8,-50.1 2.4,-5 6.7,-9 9.6,-13.7 8.5,-13.6 15,-28.1 20,-43.4 1.5,-4.7 2.7,-9.5 5.9,-13.6 4.2,-5.6 5.3,-12.6 7.7,-19 3.5,-9.3 9.2,-17.6 12.3,-27.2 2.4,-7.2 5.2,-14.3 8.1,-21.4 1.2,-3 2.7,-5.9 4.6,-8.6 1.4,-2.4 1.5,-4.9 1.5,-7.5 z"
   id="path133" />
		<path
   class="st12"
   d="m 914.4,1654.6 c 1.5,3 2.2,6.2 1.9,9.5 -1.2,14.9 -2.5,29.8 -3.6,44.7 -0.6,7.8 0.5,15.7 -1.2,23.4 -3.6,16.2 -1.7,32.8 -4.4,49.1 -0.7,4.1 -3.3,5.1 -6.2,5.9 -3,0.8 -6.2,0.9 -9.3,1.1 -11.1,0.4 -22.2,0 -33.2,1.2 -14,1.5 -27.5,-2.9 -41.3,-2.9 -6.4,0 -12.8,-0.1 -19.3,-0.1 -9.1,0 -17.8,-1.6 -26.6,-4.4 -7.9,-2.5 -16.5,-3.8 -24.8,-3.9 -22.1,-0.3 -43.3,-5.4 -64.3,-11.2 -12.7,-3.5 -25.1,-8.6 -37.6,-13 -9.4,-3.3 -19.2,-5.5 -28.8,-8 -1.2,-0.3 -2.4,-0.7 -3.5,-1.2 -7.7,-3.5 -8.3,-5 -3.8,-12.3 1.6,-2.6 2.4,-5.3 3.3,-8.2 3.6,-5.7 5.7,-12.2 8.9,-18.1 7.2,-13.2 12.5,-27.2 19.4,-40.5 3.1,-6 5.8,-12 8.2,-18.3 1.8,-4.9 3,-9.7 8,-13.1 3.5,-2.3 3.4,-7.5 5.2,-11.4 2.6,-5.5 5.1,-11.1 7,-16.9 1.6,-4.8 4.7,-5 8.4,-3.6 5.8,2.3 11.6,4.7 17.6,6.1 23.7,5.7 45.9,15.8 69.2,23 8.5,2.6 17.3,3.5 26.1,5 12.7,2.1 25.2,6 37.7,9.2 5.2,1.3 10.5,1.9 15.7,2.1 12.5,0.3 24.8,2.4 37.1,4.3 11.2,2.1 22.6,3.2 34.2,2.5 z"
   id="path135" />
		<path
   class="st10"
   d="m 1672.2,509.4 c 2.3,1.8 3.7,4.2 4.4,7 1.4,5.7 4.6,10.6 6.9,15.9 4.5,10.5 5.8,21.9 9.8,32.4 5,13.2 10.9,26.1 15.1,39.6 3.2,10.3 5.3,20.8 5.3,31.7 0,10.4 3.1,20.2 5.8,30.2 2.3,8.4 7.6,15.5 8.7,24.4 1.2,9.2 2.5,18.5 3.3,27.8 0.9,11.2 2.1,22.3 4.1,33.3 0.6,3 0.3,5.9 0.5,8.9 1.2,4.4 0,9.3 2.5,13.5 1,1.7 0,3 -2.3,3.6 -6.4,1.5 -12.9,1.9 -19.4,2.6 -12.2,1.4 -24.4,2.5 -36.7,3.7 -11.9,1.1 -23.9,2 -35.8,3 -1.1,0.1 -2.2,0 -3.3,0.2 -6.3,1.1 -6.9,0 -7.8,-6.6 -1.8,-13.8 -0.9,-28.2 -5.7,-41.5 -4.3,-11.7 -7.9,-23.6 -10.4,-35.8 -1.9,-9.4 -2.2,-19.2 -4.5,-28.5 -2.8,-11.4 -6.2,-22.7 -9.4,-34.1 -2.4,-8.2 -4.3,-16.7 -7.4,-24.6 -4.2,-10.8 -7.7,-22.2 -15.4,-31.3 -3.3,-3.9 -5.3,-7.9 -6.8,-12.4 -1.2,-3.8 -0.6,-6.8 3.4,-9 11.3,-6.2 22.6,-12.5 33.7,-19.2 8.9,-5.4 17.6,-11.2 26.9,-15.9 11.9,-6.1 23,-12.9 34.5,-18.9 z"
   id="path137" />
		<path
   class="st10"
   d="m 283.4,1059.5 c -14.5,3.1 -28.1,9.5 -42.5,12.9 -11,2.6 -20.9,8.4 -31.9,10.3 -14.5,2.6 -27.6,9.2 -42.1,12.2 -10.9,2.3 -21.6,7 -32.4,10.4 -4,1.3 -8,2.7 -11.9,4.1 -5.3,-2.3 -5.7,-7.3 -6.6,-12 -3.7,-20.2 -3.2,-40.8 -5.8,-61 -2.8,-21.3 -3.6,-42.8 -5.6,-64.1 -0.9,-10.1 -1.3,-20.2 -1.6,-30.3 -0.5,-14.2 2.9,-28.1 5.1,-42.1 0.9,-5.9 0.6,-11.8 1,-17.7 1,-14.4 3.6,-28.8 3.2,-43.3 -0.1,-4.5 -1.4,-8.9 -1.1,-13.5 0.3,-3.4 1,-6.6 3,-9.2 5.9,-7.8 8.3,-16.6 8.4,-26.2 0.1,-4.5 0.5,-9 1.8,-13.3 12.7,-1.9 24.9,1.9 37.4,3.3 11.3,1.2 22.5,2.9 33.7,4.3 14.8,1.8 29.6,3.8 44.4,5.4 11,1.2 21.9,2.2 32.8,3.9 6.1,1 7.8,3.1 6.7,9.1 -0.3,1.7 -1,3.3 -0.8,5.1 -1,4.9 -2.1,9.8 -1.9,14.8 0.4,11.3 -0.6,22.6 -2.2,33.6 -2.8,18.9 -3.9,37.7 -3.2,56.6 0.4,9.5 0.9,19 0.6,28.5 -0.6,16.7 -1.9,33.3 -2.7,49.9 -0.4,8.2 2.8,15.7 5,23.4 4.5,14.5 11,28.9 9.2,44.9 z"
   id="path139" />
		<path
   class="st12"
   d="m 937.9,148.4 c -1.1,-8.8 -2.2,-17.6 -3.3,-26.4 -1.7,-13.1 -4.1,-26.1 -5.2,-39.3 -0.7,-8.8 -2.6,-17.4 -4,-26 -0.9,-5.5 -1.4,-11.1 -2.2,-16.6 -0.5,-3.4 3,-3 4.3,-4.7 18.2,-3.5 36.7,-3.2 55.1,-2.5 17.6,0.7 35.1,1.8 52.6,4.2 14.3,2 28.6,4.7 42.9,6.6 8.2,1.1 16.5,2 24.7,1.9 11.7,-0.1 22.6,2.4 33.1,7 14.4,6.4 30,8.2 45.1,12 3.2,0.8 6.4,1.3 9.6,2 2.5,0.5 4,2.3 5,4.6 -4.1,14.8 -7.5,29.9 -12.5,44.5 -6.4,18.5 -10.7,37.6 -15.7,56.5 -0.6,2.3 -3.2,2.5 -3.8,4.5 -16.1,-4.4 -32.5,-7.1 -48.8,-10.7 -15.5,-3.5 -31.3,-5.7 -46.4,-10.4 -14.4,-4.5 -28.9,-4.4 -43.5,-4.3 -23.3,0 -46.4,-3.6 -69.6,-2.9 -5.9,0 -11.6,-0.1 -17.4,0 z"
   id="path141" />
		<path
   class="st13"
   d="m 1532,870.2 c 0,11.1 0.9,22.3 -0.2,33.4 -3.5,38.3 -6.4,76.7 -15.4,114.2 -4.5,18.9 -8.6,38.1 -14.8,56.6 -5.4,16.1 -10.5,32.4 -17.1,48.1 -5.2,12.4 -9.6,25.1 -15.7,37.1 -10.1,19.7 -20.2,39.4 -31.3,58.6 -4.6,8.1 -9.3,16.2 -14.7,23.9 -10.7,15.2 -21.2,30.5 -32.5,45.1 -10.2,13.2 -21.2,25.8 -32.4,38.1 -9.9,10.8 -20.3,21.2 -31,31.2 -15.3,14.3 -31.2,27.8 -47.9,40.3 -20,15 -41.1,28.4 -62.7,40.9 -35.3,20.2 -72.5,35.9 -111.4,47.7 -40.3,12.2 -81.5,19.4 -123.7,21.3 -44.4,2 -88.2,-1.7 -131.6,-11 -27,-5.8 -53.2,-13.9 -78.9,-24.2 -22.1,-8.9 -43.5,-19 -64.2,-30.8 -16.6,-9.4 -32.7,-19.5 -48.1,-30.8 -10.7,-7.8 -21.2,-15.9 -31.4,-24.4 -16.8,-14 -32.6,-29 -47.6,-44.9 -11.5,-12.1 -22.2,-24.8 -32.6,-37.9 -11.5,-14.4 -21.9,-29.5 -32.1,-44.8 -5.5,-8.3 -10,-17.3 -15.6,-25.5 -6.6,-9.6 -10.5,-20.6 -16.4,-30.4 -6.5,-10.9 -10.4,-23 -16.1,-34.3 -6.3,-12.6 -9.9,-26.3 -15.4,-39.2 -7.4,-17.3 -11,-35.7 -16.4,-53.7 -8.3,-28.1 -11.6,-57.2 -16.2,-86 -5.4,-34 -5.8,-68.2 -5.2,-102.4 0.3,-18.5 1,-37 3.8,-55.3 4.5,-28.7 7.7,-57.7 15,-85.9 4.8,-18.7 9.9,-37.5 16.3,-55.7 4.7,-13.2 8.6,-26.8 14.6,-39.5 5.7,-12 9.6,-24.8 16,-36.4 5.7,-10.3 9.8,-21.3 15.8,-31.4 10.6,-17.8 20.9,-35.8 32.4,-53.1 9.7,-14.7 20.3,-28.8 31.3,-42.6 10.3,-12.9 21.1,-25.4 32.4,-37.5 10.1,-10.8 20.7,-21.2 31.6,-31.2 14.8,-13.6 30.3,-26.6 46.4,-38.6 20.6,-15.2 42,-29.3 64.4,-41.7 27,-15 55.3,-26.8 84.3,-37.6 39.6,-14.8 80.7,-22.8 122.5,-27.2 36.6,-3.8 73.2,-3.1 109.7,1.4 42.5,5.3 83.6,15.7 123.4,31.4 23.9,9.4 47,20.5 69.2,33.5 16.2,9.5 32,19.5 47.1,30.6 11.3,8.3 22.3,17 33,26.1 10.9,9.1 21.2,18.8 31.3,28.8 11,10.9 21.4,22.2 31.4,34 11.6,13.7 22.5,27.8 32.9,42.5 11.2,15.9 21.4,32.5 31.1,49.3 5.9,10.2 10.4,21 16.3,31 6.5,11 10.1,23.2 15.7,34.5 7.1,14.4 11,29.9 16.7,44.7 7,18 10.6,36.9 15.7,55.3 10.3,37 13.5,74.9 17,112.9 1.3,13.9 1.2,27.7 1.3,41.5 z m -903.7,47.9 c -10.1,-0.1 -24.7,3.3 -38.4,9.8 -21.1,9.9 -36.6,26.3 -47.4,46.5 -10.7,20 -15.6,41.8 -12.9,64.9 3.1,26.3 12.8,48.9 33.5,66.3 16.4,13.8 35.3,21 56.4,21.2 36.9,0.3 65,-17.4 85.9,-46.4 10.9,-15.2 17,-33 19.1,-51.8 0.9,-8.2 1.5,-8.9 9.8,-11.1 18.8,-4.9 37.1,-11.4 55.4,-17.6 19,-6.4 37.8,-13.3 56.7,-19.8 29,-10 57.5,-21.1 86.3,-31.7 6,-2.2 11.9,-4.6 18,-6.7 1.8,-0.6 4.3,-2.3 5.8,0.5 1.4,2.6 2.6,5.3 3.5,8 5.4,16.3 9.6,32.9 15.7,49.1 6.4,17 10.7,34.8 17.6,51.8 5.3,13.2 9,26.9 14.1,40.1 6.8,17.6 12.6,35.6 20,53 4.3,10 6.6,20.8 12.4,30.3 1.6,2.6 2.2,5.5 -0.3,8.2 -8.7,9.5 -14.2,21.2 -18.3,32.9 -10.3,29.2 -10.4,58.3 4,86.9 8.7,17.1 20.5,30.6 37.4,39.3 31.7,16.4 66.1,9.5 93.2,-11.5 11.2,-8.7 19.7,-19.6 27.1,-31.3 8.9,-14.1 12.3,-30.3 15.2,-46.5 1.9,-10.5 0.6,-21 -1.7,-31.5 -4.2,-19.7 -11.7,-37.5 -25.7,-52.3 -1.4,-1.5 -2.8,-3 -4.4,-4.3 -13.3,-10.9 -28.5,-17.3 -45.5,-19.4 -3.7,-0.4 -5.6,-2.2 -6.3,-6.1 -4.2,-22.5 -8.5,-45.1 -14.2,-67.3 -6.2,-24 -10.4,-48.5 -17.6,-72.4 -5.2,-17.2 -8.5,-34.9 -14,-52 -4.2,-12.9 -7,-26.3 -10.4,-39.5 -1.9,-7.7 -1.9,-8 5.1,-10.9 24.1,-10.1 48.3,-19.8 72.3,-30 27.2,-11.6 54.3,-23.2 81.2,-35.3 22.7,-10.2 45.1,-20.9 67.6,-31.5 5.9,-2.8 6.7,-2.7 10.4,2.5 5,7.1 10.7,13.3 17.9,18.3 12,8.3 25.1,13.9 39.7,13.8 32.7,-0.1 54.5,-17.7 69.9,-44.9 3.9,-7 6.1,-14.8 7.6,-22.6 4.8,-26.3 1.9,-51.2 -12.4,-74.5 -8.7,-14.1 -20.6,-24.1 -35.5,-30.8 -9.3,-4.2 -19,-6.8 -29.1,-6.2 -30.1,1.8 -51.2,18 -65.5,43.5 -6.1,10.8 -8.5,22.9 -10,35 -0.4,3.2 -1.7,4.7 -4.6,5.6 -7.2,2.2 -14.4,4.4 -21.5,6.7 -29.4,9.7 -58.9,19.1 -88.1,29.3 -33,11.6 -65.8,24 -98.7,36 -9.2,3.4 -18.5,6.7 -27.7,10 -3,1.1 -4.3,0.2 -5.4,-3 -3.4,-9.8 -6,-19.9 -9.8,-29.7 -6.4,-16.2 -10.2,-33.4 -16.7,-49.7 -5.9,-14.6 -9.9,-29.9 -15.3,-44.7 -7.5,-20.7 -15.3,-41.3 -22.8,-62 -2.9,-8 -5.3,-16.3 -9.3,-23.9 -2,-3.9 -5.2,-8.3 -0.4,-12.8 9.1,-8.5 14.7,-19.7 19,-30.8 10.9,-28.4 11.2,-57 -3.3,-84.9 -5.4,-10.4 -11.7,-19.8 -20.3,-27.8 -8.2,-7.7 -17.3,-13.8 -27.7,-18.1 -35.1,-14.4 -66.9,-6.9 -96.1,15 -14.7,11 -24.8,26.3 -30.7,43.4 -9.7,27.9 -9.6,55.6 4.2,82.8 7.1,13.9 16.5,25.5 28.8,34.6 12.3,9.1 26.4,14.8 41.5,17.7 2.1,0.4 3.3,1.4 3.8,3.6 1.4,6 3,12 4.4,18.1 5.4,22.5 8.8,45.4 15.1,67.7 6.1,21.8 9.6,44.2 16.6,65.9 3.5,10.8 6,22.1 8.4,33.2 2.9,13.8 8.5,26.8 11.3,40.5 0.7,3.5 0.5,6 -3.3,7.5 -10.6,4.2 -21.1,8.6 -31.7,13 -29.7,12.4 -59.4,24.9 -89,37.4 -22,9.3 -43.7,19.4 -65.4,29.6 -9.8,4.6 -19.6,9.1 -29.4,13.5 -2,0.9 -3.9,2.2 -6.1,-0.7 -6.2,-8.4 -13.2,-16 -21.8,-22.2 -15.8,-11 -32.9,-16.8 -57.2,-16.8 z"
   id="path143" />
		<path
   class="st14"
   d="m 628.3,918.1 c 24.3,0 41.4,5.8 56.9,17.1 8.6,6.3 15.6,13.8 21.8,22.2 2.1,2.9 4,1.6 6.1,0.7 9.8,-4.4 19.7,-8.9 29.4,-13.5 21.6,-10.2 43.4,-20.3 65.4,-29.6 29.7,-12.5 59.3,-25 89,-37.4 10.5,-4.4 21.1,-8.8 31.7,-13 3.8,-1.5 4,-4 3.3,-7.5 -2.8,-13.8 -8.3,-26.8 -11.3,-40.5 -2.4,-11.2 -4.8,-22.4 -8.4,-33.2 -7,-21.6 -10.5,-44.1 -16.6,-65.9 -6.3,-22.3 -9.7,-45.2 -15.1,-67.7 -1.4,-6 -3,-12 -4.4,-18.1 -0.5,-2.2 -1.7,-3.2 -3.8,-3.6 -15.1,-2.9 -29.2,-8.6 -41.5,-17.7 -12.3,-9.1 -21.7,-20.7 -28.8,-34.6 -13.9,-27.2 -13.9,-54.9 -4.2,-82.8 5.9,-17.1 16,-32.4 30.7,-43.4 29.2,-21.9 61.1,-29.4 96.1,-15 10.4,4.3 19.5,10.4 27.7,18.1 8.6,8 15,17.5 20.3,27.8 14.4,27.8 14.1,56.4 3.3,84.9 -4.3,11.1 -9.8,22.3 -19,30.8 -4.8,4.4 -1.6,8.9 0.4,12.8 4,7.7 6.4,15.9 9.3,23.9 7.5,20.7 15.3,41.3 22.8,62 5.4,14.8 9.5,30.1 15.3,44.7 6.5,16.3 10.3,33.4 16.7,49.7 3.8,9.7 6.4,19.8 9.8,29.7 1.1,3.2 2.4,4 5.4,3 9.2,-3.4 18.5,-6.7 27.7,-10 32.9,-12 65.6,-24.4 98.7,-36 29.2,-10.2 58.7,-19.6 88.1,-29.3 7.1,-2.4 14.3,-4.6 21.5,-6.7 2.9,-0.9 4.2,-2.4 4.6,-5.6 1.5,-12.2 4,-24.3 10,-35 14.4,-25.5 35.4,-41.7 65.5,-43.5 10.1,-0.6 19.9,2 29.1,6.2 14.9,6.7 26.8,16.7 35.5,30.8 14.3,23.3 17.2,48.2 12.4,74.5 -1.4,7.9 -3.6,15.7 -7.6,22.6 -15.3,27.2 -37.2,44.8 -69.9,44.9 -14.6,0 -27.7,-5.5 -39.7,-13.8 -7.2,-5 -12.9,-11.2 -17.9,-18.3 -3.7,-5.2 -4.6,-5.3 -10.4,-2.5 -22.5,10.6 -44.9,21.3 -67.6,31.5 -26.9,12.1 -54.1,23.8 -81.2,35.3 -24,10.2 -48.2,19.9 -72.3,30 -7.1,3 -7.1,3.2 -5.1,10.9 3.3,13.2 6.2,26.6 10.4,39.5 5.5,17.1 8.8,34.8 14,52 7.2,23.8 11.4,48.3 17.6,72.4 5.8,22.3 10,44.8 14.2,67.3 0.7,3.9 2.6,5.6 6.3,6.1 17,2 32.3,8.5 45.5,19.4 1.6,1.3 3,2.8 4.4,4.3 14.1,14.7 21.5,32.6 25.7,52.3 2.3,10.6 3.5,21 1.7,31.5 -2.9,16.1 -6.3,32.4 -15.2,46.5 -7.4,11.7 -15.9,22.7 -27.1,31.3 -27.1,21 -61.5,27.9 -93.2,11.5 -16.9,-8.7 -28.7,-22.2 -37.4,-39.3 -14.4,-28.6 -14.3,-57.6 -4,-86.9 4.1,-11.7 9.6,-23.4 18.3,-32.9 2.5,-2.7 1.9,-5.6 0.3,-8.2 -5.7,-9.5 -8.1,-20.3 -12.4,-30.3 -7.4,-17.4 -13.2,-35.4 -20,-53 -5.1,-13.3 -8.8,-27 -14.1,-40.1 -6.8,-17 -11.1,-34.8 -17.6,-51.8 -6.1,-16.1 -10.3,-32.8 -15.7,-49.1 -0.9,-2.8 -2.1,-5.5 -3.5,-8 -1.5,-2.8 -4,-1.1 -5.8,-0.5 -6.1,2.1 -12,4.4 -18,6.7 -28.7,10.6 -57.3,21.7 -86.3,31.7 -18.9,6.6 -37.7,13.4 -56.7,19.8 -18.4,6.2 -36.7,12.7 -55.4,17.6 -8.3,2.2 -8.9,2.9 -9.8,11.1 -2.1,18.9 -8.2,36.7 -19.1,51.8 -20.9,29 -49,46.7 -85.9,46.4 -21.1,-0.2 -40,-7.4 -56.4,-21.2 -20.7,-17.4 -30.4,-40 -33.5,-66.3 -2.7,-23.1 2.1,-44.9 12.9,-64.9 10.8,-20.1 26.3,-36.5 47.4,-46.5 14,-6.7 28.6,-10.2 38.7,-10.1 z m 547.4,325.1 c 0.3,-7 -1.6,-13.4 -5.1,-19.3 -3.3,-5.6 -10.6,-6.2 -14.5,-1.1 -3.1,4 -4.4,8.6 -2.2,13.7 5.4,12.1 0.7,22.8 -5,33.2 -3.4,6.3 -7.4,12.3 -10.7,18.7 -2.4,4.7 -0.6,10.4 3.5,12.8 3.8,2.3 8.7,1.4 12,-2.8 2.7,-3.4 4.9,-7.3 7.3,-10.9 8.9,-13.5 13.9,-28.2 14.7,-44.3 z M 696.4,1026.3 c 0.4,-8 -2.8,-13 -7.8,-13.9 -6.4,-1.2 -12.6,2.1 -13.8,8.3 -1.2,6.1 -4.2,11.3 -6.8,16.7 -3.4,7.2 -7.5,14 -13.4,19.5 -2,1.9 -3.6,4.3 -4.5,7 -1.6,4.8 0.2,11.1 4,13.5 3.6,2.4 9.7,1.7 13.6,-1.5 4,-3.3 7.6,-6.8 10.5,-11.1 3.2,-4.6 5.6,-9.8 8.9,-14.3 5.6,-7.8 7.9,-16.6 9.3,-24.2 z M 964.2,539.5 c -0.1,-1.3 0,-2.1 -0.2,-2.8 -1.1,-4.5 -0.9,-9.6 -4.7,-13 -3.6,-3.2 -8.2,-3.3 -11.7,-1 -3.5,2.4 -5.2,7 -4.1,11.5 0.7,2.9 1.8,6.1 -0.2,8.6 -3.3,4.3 -7,8.3 -10.8,12.2 -5,5.1 -5.7,11.6 -1.4,16.3 3.7,4 9.7,3.5 15.1,-1.2 4.5,-3.9 7.7,-9 11.5,-13.6 4.3,-5.2 6,-11 6.5,-17 z m 451.4,206 c 0.3,-11.9 -3.9,-16.1 -11,-14 -4.4,1.3 -5.7,4.9 -6.2,9 -1.4,10.3 -5.1,19.7 -11.1,28.3 -1.9,2.8 -3.5,6 -4.7,9.2 -1.7,4.6 0.7,10.5 4.4,12.2 4.5,2 8.8,0.4 11.8,-4.6 1.6,-2.7 2.8,-5.6 4.6,-8.2 7.3,-10.5 11,-22.2 12.2,-31.9 z M 1042,860.8 c -0.1,-9.8 -4.7,-17.5 -12.1,-23.5 -4.9,-4 -11.1,-3.1 -14.8,1.2 -3.6,4.2 -3,11.1 1.2,15.3 0.6,0.6 1.1,1.1 1.8,1.5 3.1,2.4 4,5.3 2.8,9.1 -1,3.1 -2,6.3 -2.5,9.5 -0.7,4.9 1.7,8.3 6.4,10 4,1.5 7.6,0.7 9.9,-2.9 4.1,-6 7.5,-12.5 7.3,-20.2 z M 687.4,982.5 c -7.1,-0.1 -12.7,5.6 -12.7,12.9 0,6.6 4.3,11.8 10.1,11.9 7.2,0.1 12.9,-5.4 12.9,-12.6 0.1,-7 -4.3,-12.2 -10.3,-12.2 z m 312.8,-108.7 c 0.1,-6.3 -4.7,-11.4 -10.6,-11.4 -5.5,0 -10,4.8 -10,10.9 0,6.3 4.5,11.4 10.1,11.4 5.9,0 10.5,-4.7 10.5,-10.9 z M 940,495.6 c 0,5.4 4.8,10.2 10,10.2 5,-0.1 10.2,-5.4 10.1,-10.3 -0.1,-5.2 -5.1,-10.2 -10.1,-10.2 -5.3,0.1 -10.1,5 -10,10.3 z m 200.1,701.8 c 0,5.9 3.3,10.1 8.1,10.2 5.9,0.1 10.6,-4.8 10.7,-11.2 0.1,-5.8 -3.6,-9.9 -8.9,-9.9 -5.4,0 -9.8,4.9 -9.9,10.9 z m 272,-485.5 c 0.1,-5.8 -3.4,-9.9 -8.3,-9.9 -5.2,0 -9,3.9 -9.1,9.3 -0.2,6 3.6,10.5 8.9,10.5 4.7,0 8.4,-4.3 8.5,-9.9 z"
   id="path145" />
		<path
   class="st15"
   d="m 1175.7,1243.2 c -0.8,16.1 -5.8,30.8 -14.7,44.2 -2.4,3.7 -4.6,7.5 -7.3,10.9 -3.3,4.2 -8.2,5.2 -12,2.8 -4.1,-2.4 -5.9,-8.1 -3.5,-12.8 3.3,-6.4 7.3,-12.4 10.7,-18.7 5.7,-10.4 10.4,-21.1 5,-33.2 -2.3,-5 -0.9,-9.6 2.2,-13.7 3.9,-5.2 11.2,-4.5 14.5,1.1 3.6,6 5.4,12.4 5.1,19.4 z"
   id="path147" />
		<path
   class="st15"
   d="m 696.4,1026.3 c -1.4,7.6 -3.7,16.5 -9.4,24.3 -3.3,4.5 -5.7,9.7 -8.9,14.3 -2.9,4.3 -6.5,7.9 -10.5,11.1 -3.8,3.1 -10,3.8 -13.6,1.5 -3.7,-2.5 -5.6,-8.7 -4,-13.5 0.9,-2.7 2.5,-5.2 4.5,-7 6,-5.5 10,-12.3 13.4,-19.5 2.6,-5.4 5.5,-10.6 6.8,-16.7 1.3,-6.2 7.4,-9.5 13.8,-8.3 5.1,0.7 8.3,5.8 7.9,13.8 z"
   id="path149" />
		<path
   class="st15"
   d="m 964.2,539.5 c -0.5,6 -2.2,11.8 -6.6,17 -3.8,4.6 -6.9,9.6 -11.5,13.6 -5.4,4.7 -11.4,5.2 -15.1,1.2 -4.3,-4.7 -3.6,-11.2 1.4,-16.3 3.8,-3.9 7.5,-7.9 10.8,-12.2 2,-2.6 0.9,-5.7 0.2,-8.6 -1.1,-4.5 0.5,-9.1 4.1,-11.5 3.5,-2.4 8.1,-2.2 11.7,1 3.8,3.4 3.6,8.5 4.7,13 0.3,0.7 0.3,1.5 0.3,2.8 z"
   id="path151" />
		<path
   class="st15"
   d="m 1415.6,745.5 c -1.3,9.7 -4.9,21.4 -12.2,31.9 -1.8,2.6 -3,5.5 -4.6,8.2 -3,5 -7.3,6.6 -11.8,4.6 -3.8,-1.7 -6.2,-7.6 -4.4,-12.2 1.2,-3.2 2.7,-6.4 4.7,-9.2 6,-8.6 9.7,-18 11.1,-28.3 0.6,-4.1 1.8,-7.6 6.2,-9 7.1,-2.1 11.3,2.1 11,14 z"
   id="path153" />
		<path
   class="st15"
   d="m 1042,860.8 c 0.2,7.7 -3.2,14.2 -7.2,20.3 -2.3,3.6 -5.9,4.4 -9.9,2.9 -4.7,-1.7 -7.1,-5.1 -6.4,-10 0.4,-3.2 1.5,-6.4 2.5,-9.5 1.2,-3.8 0.3,-6.7 -2.8,-9.1 -0.6,-0.5 -1.2,-1 -1.8,-1.5 -4.2,-4.2 -4.8,-11.1 -1.2,-15.3 3.6,-4.3 9.8,-5.2 14.8,-1.2 7.3,5.9 11.9,13.6 12,23.4 z"
   id="path155" />
		<path
   class="st15"
   d="m 687.4,982.5 c 6,0.1 10.4,5.2 10.4,12.1 0,7.2 -5.7,12.8 -12.9,12.6 -5.8,-0.1 -10.2,-5.2 -10.1,-11.9 -0.1,-7.2 5.5,-12.9 12.6,-12.8 z"
   id="path157" />
		<path
   class="st15"
   d="m 1000.2,873.8 c -0.1,6.2 -4.7,11 -10.5,10.9 -5.6,-0.1 -10,-5.1 -10.1,-11.4 0,-6 4.4,-10.9 10,-10.9 5.9,-0.1 10.7,5.1 10.6,11.4 z"
   id="path159" />
		<path
   class="st15"
   d="m 940,495.6 c 0,-5.2 4.8,-10.2 9.9,-10.3 5,-0.1 10,4.9 10.1,10.2 0.1,4.9 -5.1,10.2 -10.1,10.3 -5.2,0 -9.9,-4.8 -9.9,-10.2 z"
   id="path161" />
		<path
   class="st15"
   d="m 1140.1,1197.4 c 0,-6 4.5,-10.9 9.9,-10.9 5.3,0 9,4.1 8.9,9.9 -0.1,6.4 -4.8,11.4 -10.7,11.2 -4.8,-0.1 -8.1,-4.3 -8.1,-10.2 z"
   id="path163" />
		<path
   class="st15"
   d="m 1412.1,711.9 c -0.1,5.6 -3.8,9.9 -8.5,9.9 -5.3,0 -9.1,-4.4 -8.9,-10.5 0.1,-5.4 3.9,-9.3 9.1,-9.3 4.9,-0.1 8.4,4.1 8.3,9.9 z"
   id="path165" />
	</g>
</g></g>
</svg>
