<?xml version="1.0" encoding="UTF-8" standalone="no"?>
<svg
   xmlns:dc="http://purl.org/dc/elements/1.1/"
   xmlns:cc="http://creativecommons.org/ns#"
   xmlns:rdf="http://www.w3.org/1999/02/22-rdf-syntax-ns#"
   xmlns:svg="http://www.w3.org/2000/svg"
   xmlns="http://www.w3.org/2000/svg"
   xmlns:sodipodi="http://sodipodi.sourceforge.net/DTD/sodipodi-0.dtd"
   xmlns:inkscape="http://www.inkscape.org/namespaces/inkscape"
   version="1.1"
   id="Layer_1"
   x="0px"
   y="0px"
   viewBox="0 0 1503.6806 1204.0747"
   xml:space="preserve"
   sodipodi:docname="tetris2glow.svg"
   width="1503.6805"
   height="1204.0747"
   inkscape:version="1.0.1 (3bc2e813f5, 2020-09-07)"><metadata
   id="metadata4258"><rdf:RDF><cc:Work
       rdf:about=""><dc:format>image/svg+xml</dc:format><dc:type
         rdf:resource="http://purl.org/dc/dcmitype/StillImage" /><dc:title></dc:title></cc:Work></rdf:RDF></metadata><defs
   id="defs4256"><filter
     style="color-interpolation-filters:sRGB"
     inkscape:label="Drop Shadow"
     id="filter4270"><feFlood
       flood-opacity="1"
       flood-color="rgb(255,255,255)"
       result="flood"
       id="feFlood4260" /><feComposite
       in="flood"
       in2="SourceGraphic"
       operator="in"
       result="composite1"
       id="feComposite4262" /><feGaussianBlur
       in="composite1"
       stdDeviation="29.9401"
       result="blur"
       id="feGaussianBlur4264" /><feOffset
       dx="0"
       dy="0.299401"
       result="offset"
       id="feOffset4266" /><feComposite
       in="SourceGraphic"
       in2="offset"
       operator="over"
       result="composite2"
       id="feComposite4268" /></filter><filter
     style="color-interpolation-filters:sRGB"
     inkscape:label="Drop Shadow"
     id="filter4282"><feFlood
       flood-opacity="1"
       flood-color="rgb(255,255,255)"
       result="flood"
       id="feFlood4272" /><feComposite
       in="flood"
       in2="SourceGraphic"
       operator="in"
       result="composite1"
       id="feComposite4274" /><feGaussianBlur
       in="composite1"
       stdDeviation="29.9401"
       result="blur"
       id="feGaussianBlur4276" /><feOffset
       dx="0"
       dy="0.299401"
       result="offset"
       id="feOffset4278" /><feComposite
       in="SourceGraphic"
       in2="offset"
       operator="over"
       result="composite2"
       id="feComposite4280" /></filter></defs><sodipodi:namedview
   pagecolor="#ffffff"
   bordercolor="#666666"
   borderopacity="1"
   objecttolerance="10"
   gridtolerance="10"
   guidetolerance="10"
   inkscape:pageopacity="0"
   inkscape:pageshadow="2"
   inkscape:window-width="1920"
   inkscape:window-height="1027"
   id="namedview4254"
   showgrid="false"
   inkscape:zoom="0.81163166"
   inkscape:cx="773.90999"
   inkscape:cy="528.03011"
   inkscape:window-x="-8"
   inkscape:window-y="-8"
   inkscape:window-maximized="1"
   inkscape:current-layer="Layer_1" />
<style
   type="text/css"
   id="style4087">
	.st0{fill:#40B409;}
	.st1{fill:#76F43A;}
	.st2{fill:#A2FE77;}
	.st3{fill:#00D307;}
	.st4{fill:#3BA00B;}
	.st5{fill:#096D05;}
	.st6{fill:#00D207;}
	.st7{fill:#66009B;}
	.st8{fill:#9011D3;}
	.st9{fill:#B754EA;}
	.st10{fill:#8100B7;}
	.st11{fill:#4E0077;}
	.st12{fill:#34004F;}
	.st13{fill:#8100B6;}
</style>
<g
   id="g4169"
   style="filter:url(#filter4270)"
   transform="translate(110.06001,96.10289)">
	<g
   id="g4105">
		<path
   class="st0"
   d="m 821.2,509.7 c -1.8,0.1 146.7,148.7 146.7,148.7 -94.4,0 -195.1,-0.3 -289.5,-0.3 -1.6,0 -8.2,-0.1 -9.8,-0.2 9.7,-9.8 19.8,-22.7 29.5,-32.5 37.8,-37.9 76.9,-75.9 114.7,-113.7 1.7,-1.7 2.8,-4.6 4.4,-6.4"
   id="path4089" />
		<path
   class="st1"
   d="m 967.9,357.6 c -0.3,1.8 -1.1,4.5 -2.3,5.6 -45.9,45.7 -91.5,91.5 -137.3,137.3 -2.2,2.1 -1.9,5.7 -4.6,7.2 -1.6,0.5 -2.5,3.7 -4.4,3.4 -2.6,-0.9 -7,-6.1 -8.8,-8 -45.4,-45.4 -90.9,-90.8 -136.3,-136.3 -2,-2 -5.1,-6.2 -5.5,-9.3"
   id="path4091" />
		<path
   class="st2"
   d="m 668.6,357.6 c 2.2,-0.9 59.3,-61.5 61.5,-61.5 95.9,0 202.4,0 298.3,0 h 1.5 c -16.2,16.2 -37.4,39.1 -53.7,55.2 -2.2,2.2 -4.6,4.3 -6.9,6.5"
   id="path4093" />
		<path
   class="st3"
   d="m 818.7,509.4 c -0.3,-0.9 -1,-1.4 -1.9,-1.6 -19.6,-19.7 -39.1,-39.5 -58.8,-59.1 -29.6,-29.5 -59.9,-61.5 -89.5,-91 V 658 C 713.8,612.7 772.9,555.6 818.1,510.3"
   id="path4095" />
		<path
   class="st0"
   d="M 898.5,623.9"
   id="path4097" />
		<path
   class="st4"
   d="M 818.2,510.2 967.8,357.6 c 0,0 -0.3,8 -0.3,10.7 0,94.4 0,188.7 0,283.1 0,3.2 0.2,7 0.2,7 -0.3,-0.1 0.3,0.1 0,0"
   id="path4099" />
		<path
   class="st5"
   d="m 1027,601.2 c 2,-2 2.9,-3.9 2.9,-6.8 -0.1,-96.8 0,-201.6 0,-298.4"
   id="path4101" />
		<path
   class="st5"
   d="m 1029.9,296.1 v 0 l -62,62 c 0.1,94.3 -0.7,198.2 -0.7,292.5 0,1.8 0.2,6.1 0.7,7.8 0,0 62.2,-59.7 62,-59.6"
   id="path4103" />
	</g>
	<g
   id="g4123">
		<path
   class="st0"
   d="m 821.6,213.7 c -1.8,0.1 146.7,148.7 146.7,148.7 -94.4,0 -195.1,-0.3 -289.5,-0.3 -1.6,0 -8.2,-0.1 -9.8,-0.2 9.7,-9.8 19.8,-22.7 29.5,-32.5 37.8,-37.9 76.9,-75.9 114.7,-113.7 1.7,-1.7 2.8,-4.6 4.4,-6.4"
   id="path4107" />
		<path
   class="st1"
   d="m 968.3,61.6 c -0.3,1.8 -1.1,4.5 -2.3,5.6 -45.9,45.7 -91.5,91.5 -137.3,137.3 -2.2,2.1 -1.9,5.7 -4.6,7.2 -1.6,0.5 -2.5,3.7 -4.4,3.4 -2.6,-0.9 -7,-6.1 -8.8,-8 C 765.5,161.7 720,116.3 674.6,70.8 c -2,-2 -5.1,-6.2 -5.5,-9.3"
   id="path4109" />
		<path
   class="st2"
   d="M 669,61.6 C 671.2,60.7 728.3,0 730.5,0 c 95.9,0 202.4,0 298.3,0 h 1.5 c -16.2,16.2 -37.4,39.1 -53.7,55.2 -2.2,2.2 -4.6,4.3 -6.9,6.5"
   id="path4111" />
		<path
   class="st3"
   d="m 819.2,213.3 c -0.3,-0.9 -1,-1.4 -1.9,-1.6 C 797.7,192 778.2,172.2 758.5,152.6 728.9,123.1 698.6,91.1 669,61.6 V 361.9 C 714.3,316.6 773.4,259.5 818.6,214.2"
   id="path4113" />
		<path
   class="st0"
   d="M 898.9,327.9"
   id="path4115" />
		<path
   class="st4"
   d="M 818.6,214.2 968.3,61.6 c 0,0 -0.3,8 -0.3,10.7 0,94.4 0,188.7 0,283.1 0,3.2 0.2,7 0.2,7 -0.3,-0.1 0.3,0.1 0,0"
   id="path4117" />
		<path
   class="st5"
   d="m 1027.5,305.2 c 2,-2 2.9,-3.9 2.9,-6.8 -0.1,-96.8 0,-201.6 0,-298.4"
   id="path4119" />
		<path
   class="st5"
   d="m 1030.3,0 v 0 l -62,62 c 0.1,94.3 -0.7,198.2 -0.7,292.5 0,1.8 0.2,6.1 0.7,7.8 0,0 62.2,-59.7 62,-59.6"
   id="path4121" />
	</g>
	<g
   id="g4141">
		<path
   class="st0"
   d="m 1119,812.3 c -1.8,0.1 146.7,148.7 146.7,148.7 -94.4,0 -195.1,-0.3 -289.5,-0.3 -1.6,0 -8.2,-0.1 -9.8,-0.2 9.7,-9.8 19.8,-22.7 29.5,-32.5 37.8,-37.9 76.9,-75.9 114.7,-113.7 1.7,-1.7 2.8,-4.6 4.4,-6.4"
   id="path4125" />
		<path
   class="st1"
   d="m 1265.7,660.2 c -0.3,1.8 -1.1,4.5 -2.3,5.6 -45.9,45.7 -91.5,91.5 -137.3,137.3 -2.2,2.1 -1.9,5.7 -4.6,7.2 -1.6,0.5 -2.5,3.7 -4.4,3.4 -2.6,-0.9 -7,-6.1 -8.8,-8 -45.4,-45.4 -90.9,-90.8 -136.3,-136.3 -2,-2 -5.1,-6.2 -5.5,-9.3"
   id="path4127" />
		<path
   class="st2"
   d="m 966.4,660.2 c 2.2,-0.9 59.3,-61.5 61.5,-61.5 95.9,0 202.4,0 298.3,0 h 1.5 c -16.2,16.2 -37.4,39.1 -53.7,55.2 -2.2,2.2 -4.6,4.3 -6.9,6.5"
   id="path4129" />
		<path
   class="st3"
   d="m 1116.5,812 c -0.3,-0.9 -1,-1.4 -1.9,-1.6 -19.6,-19.7 -39.1,-39.5 -58.8,-59.1 -29.6,-29.5 -59.9,-61.5 -89.5,-91 v 300.3 c 45.3,-45.3 104.4,-102.4 149.6,-147.7"
   id="path4131" />
		<path
   class="st0"
   d="M 1196.2,926.5"
   id="path4133" />
		<path
   class="st4"
   d="m 1116,812.8 149.6,-152.6 c 0,0 -0.3,8 -0.3,10.7 0,94.4 0,188.7 0,283.1 0,3.2 0.2,7 0.2,7 -0.3,-0.1 0.3,0.1 0,0"
   id="path4135" />
		<path
   class="st5"
   d="m 1324.8,903.8 c 2,-2 2.9,-3.9 2.9,-6.8 -0.1,-96.8 0,-201.6 0,-298.4"
   id="path4137" />
		<path
   class="st5"
   d="m 1327.7,598.7 v 0 l -62,62 c 0.1,94.3 -0.7,198.2 -0.7,292.5 0,1.8 0.2,6.1 0.7,7.8 0,0 62.2,-59.7 62,-59.6"
   id="path4139" />
	</g>
	<g
   id="g4159">
		<path
   class="st0"
   d="m 1119,512 c -1.8,0.1 146.7,148.7 146.7,148.7 -94.4,0 -195.1,-0.3 -289.5,-0.3 -1.6,0 -8.2,-0.1 -9.8,-0.2 9.7,-9.8 19.8,-22.7 29.5,-32.5 37.8,-37.9 76.9,-75.9 114.7,-113.7 1.7,-1.7 2.8,-4.6 4.4,-6.4"
   id="path4143" />
		<path
   class="st1"
   d="m 1265.7,359.9 c -0.3,1.8 -1.1,4.5 -2.3,5.6 -45.9,45.7 -91.5,91.5 -137.3,137.3 -2.2,2.1 -1.9,5.7 -4.6,7.2 -1.6,0.5 -2.5,3.7 -4.4,3.4 -2.6,-0.9 -7,-6.1 -8.8,-8 -45.4,-45.4 -90.9,-90.8 -136.3,-136.3 -2,-2 -5.1,-6.2 -5.5,-9.3"
   id="path4145" />
		<path
   class="st2"
   d="m 966.4,359.9 c 2.2,-0.9 59.3,-61.5 61.5,-61.5 95.9,0 202.4,0 298.3,0 h 1.5 c -16.2,16.2 -37.4,39.1 -53.7,55.2 -2.2,2.2 -4.6,4.3 -6.9,6.5"
   id="path4147" />
		<path
   class="st3"
   d="m 1116.5,511.7 c -0.3,-0.9 -1,-1.4 -1.9,-1.6 -19.6,-19.7 -39.1,-39.5 -58.8,-59.1 -29.6,-29.5 -59.9,-61.5 -89.5,-91 v 300.3 c 45.3,-45.3 104.4,-102.4 149.6,-147.7"
   id="path4149" />
		<path
   class="st0"
   d="M 1196.2,626.2"
   id="path4151" />
		<path
   class="st4"
   d="m 1116,512.5 149.6,-152.6 c 0,0 -0.3,8 -0.3,10.7 0,94.4 0,188.7 0,283.1 0,3.2 0.2,7 0.2,7 -0.3,-0.1 0.3,0.1 0,0"
   id="path4153" />
		<path
   class="st5"
   d="m 1324.8,603.5 c 2,-2 2.9,-3.9 2.9,-6.8 -0.1,-96.8 0,-201.6 0,-298.4"
   id="path4155" />
		<path
   class="st5"
   d="m 1327.7,298.4 v 0 l -62,62 c 0.1,94.3 -0.7,198.2 -0.7,292.5 0,1.8 0.2,6.1 0.7,7.8 0,0 62.2,-59.7 62,-59.6"
   id="path4157" />
	</g>
	<rect
   x="694"
   y="89"
   class="st6"
   width="246"
   height="246"
   id="rect4161" />
	<rect
   x="692"
   y="387"
   class="st6"
   width="246"
   height="246"
   id="rect4163" />
	<rect
   x="993"
   y="387"
   class="st6"
   width="246"
   height="246"
   id="rect4165" />
	<rect
   x="994"
   y="685"
   class="st6"
   width="246"
   height="246"
   id="rect4167" />
</g>
<g
   id="g4251"
   style="filter:url(#filter4282)"
   transform="translate(110.06001,96.10289)">
	<g
   id="g4187">
		<path
   class="st7"
   d="m 174.9,861.5 c -2.1,0.1 168.2,170.4 168.2,170.4 -108.2,0 -223.6,-0.3 -331.8,-0.3 -1.9,0 -9.4,-0.1 -11.2,-0.2 11.1,-11.2 22.7,-26.1 33.9,-37.2 43.4,-43.4 88.1,-87 131.5,-130.3 2,-2 3.2,-5.3 5.1,-7.3"
   id="path4171" />
		<path
   class="st8"
   d="m 343.1,687.2 c -0.3,2 -1.3,5.2 -2.6,6.5 C 287.9,746 235.6,798.5 183,850.9 c -2.5,2.5 -2.2,6.6 -5.3,8.3 -1.8,0.6 -2.9,4.3 -5.1,3.9 -3,-1 -8,-7 -10.1,-9.2 C 110.5,802 58.4,749.9 6.3,697.8 4,695.5 0.4,690.7 0,687.1"
   id="path4173" />
		<path
   class="st9"
   d="m 0,687.2 c 2.5,-1 68,-70.5 70.5,-70.5 109.9,0 232,-0.1 341.9,0 h 1.7 c -18.6,18.5 -42.9,44.8 -61.5,63.3 -2.6,2.6 -5.3,4.9 -7.9,7.4"
   id="path4175" />
		<path
   class="st10"
   d="m 172.1,861.1 c -0.4,-1 -1.1,-1.6 -2.1,-1.8 C 147.5,836.7 125.1,814.1 102.6,791.5 68.7,757.6 33.9,721 0,687.2 v 344.2 C 51.9,979.4 119.6,914 171.5,862.1"
   id="path4177" />
		<path
   class="st0"
   d="M 263.5,992.4"
   id="path4179" />
		<path
   class="st11"
   d="M 171.5,862.1 343,687.2 c 0,0 -0.3,9.2 -0.3,12.2 0,108.2 0,216.3 0,324.5 0,3.7 0.3,8.1 0.3,8.1 -0.4,-0.1 0.4,0.1 0,0"
   id="path4181" />
		<path
   class="st5"
   d="m 410.9,966.4 c 2.3,-2.3 3.3,-4.5 3.3,-7.8 -0.1,-110.9 0,-231.1 0,-342"
   id="path4183" />
		<path
   class="st12"
   d="m 414.2,616.6 v 0 l -71.1,71.1 c 0.1,108.1 -0.8,227.2 -0.8,335.2 0,2.1 0.3,6.9 0.8,9 0,0 71.2,-68.4 71.1,-68.3"
   id="path4185" />
	</g>
	<g
   id="g4205">
		<path
   class="st7"
   d="m 518.3,861.5 c -2.1,0.1 168.2,170.4 168.2,170.4 -108.2,0 -223.6,-0.3 -331.8,-0.3 -1.9,0 -9.4,-0.1 -11.2,-0.2 11.1,-11.2 22.7,-26.1 33.9,-37.2 43.4,-43.4 88.1,-87 131.5,-130.3 2,-2 3.2,-5.3 5.1,-7.3"
   id="path4189" />
		<path
   class="st8"
   d="m 686.4,687.2 c -0.3,2 -1.3,5.2 -2.6,6.5 -52.5,52.3 -104.9,104.8 -157.4,157.2 -2.5,2.5 -2.2,6.6 -5.3,8.3 -1.8,0.6 -2.9,4.3 -5.1,3.9 -3,-1 -8,-7 -10.1,-9.2 -52.1,-51.9 -104.2,-104 -156.2,-156.1 -2.3,-2.3 -5.9,-7.1 -6.3,-10.7"
   id="path4191" />
		<path
   class="st9"
   d="m 343.4,687.2 c 2.5,-1 68,-70.5 70.5,-70.5 109.9,0 232,-0.1 341.9,0 h 1.7 c -18.6,18.5 -42.9,44.8 -61.5,63.3 -2.6,2.6 -5.3,4.9 -7.9,7.4"
   id="path4193" />
		<path
   class="st10"
   d="m 515.5,861.1 c -0.4,-1 -1.1,-1.6 -2.1,-1.8 C 490.9,836.7 468.5,814.1 446,791.5 412.1,757.6 377.3,721 343.4,687.1 v 344.2 C 395.3,979.4 463,914 514.9,862.1"
   id="path4195" />
		<path
   class="st0"
   d="M 606.9,992.4"
   id="path4197" />
		<path
   class="st11"
   d="M 514.9,862.1 686.4,687.2 c 0,0 -0.3,9.2 -0.3,12.2 0,108.2 0,216.3 0,324.5 0,3.7 0.3,8.1 0.3,8.1 -0.4,-0.1 0.4,0.1 0,0"
   id="path4199" />
		<path
   class="st5"
   d="m 754.2,966.4 c 2.3,-2.3 3.3,-4.5 3.3,-7.8 -0.1,-110.9 0,-231.1 0,-342"
   id="path4201" />
		<path
   class="st12"
   d="m 757.5,616.6 v 0 l -71.1,71.1 c 0.1,108.1 -0.8,227.2 -0.8,335.2 0,2.1 0.3,6.9 0.8,9 0,0 71.2,-68.4 71.1,-68.3"
   id="path4203" />
	</g>
	<g
   id="g4223">
		<path
   class="st7"
   d="m 861.4,861.5 c -2.1,0.1 168.2,170.4 168.2,170.4 -108.2,0 -223.6,-0.3 -331.8,-0.3 -1.9,0 -9.4,-0.1 -11.2,-0.2 11.1,-11.2 22.7,-26.1 33.9,-37.2 43.4,-43.4 88.1,-87 131.5,-130.3 2,-2 3.2,-5.3 5.1,-7.3"
   id="path4207" />
		<path
   class="st8"
   d="m 1029.5,687.2 c -0.3,2 -1.3,5.2 -2.6,6.5 C 974.4,746 922,798.5 869.5,850.9 c -2.5,2.5 -2.2,6.6 -5.3,8.3 -1.8,0.6 -2.9,4.3 -5.1,3.9 -3,-1 -8,-7 -10.1,-9.2 -52.1,-51.9 -104.2,-104 -156.2,-156.1 -2.3,-2.3 -5.9,-7.1 -6.3,-10.7"
   id="path4209" />
		<path
   class="st9"
   d="m 686.5,687.2 c 2.5,-1 68,-70.5 70.5,-70.5 109.9,0 232,-0.1 341.9,0 h 1.7 c -18.6,18.5 -42.9,44.8 -61.5,63.3 -2.6,2.6 -5.3,4.9 -7.9,7.4"
   id="path4211" />
		<path
   class="st10"
   d="m 858.6,861.1 c -0.4,-1 -1.1,-1.6 -2.1,-1.8 C 834,836.7 811.6,814 789,791.5 755.1,757.6 720.3,721 686.4,687.1 v 344.2 C 738.4,979.4 806.1,914 858,862.1"
   id="path4213" />
		<path
   class="st0"
   d="M 950,992.4"
   id="path4215" />
		<path
   class="st11"
   d="m 858,862.1 171.5,-174.9 c 0,0 -0.3,9.2 -0.3,12.2 0,108.2 0,216.3 0,324.5 0,3.7 0.3,8.1 0.3,8.1 -0.4,-0.1 0.4,0.1 0,0"
   id="path4217" />
		<path
   class="st5"
   d="m 1097.3,966.4 c 2.3,-2.3 3.3,-4.5 3.3,-7.8 -0.1,-110.9 0,-231.1 0,-342"
   id="path4219" />
		<path
   class="st12"
   d="m 1100.6,616.6 v 0 l -71.1,71.1 c 0.1,108.1 -0.8,227.2 -0.8,335.2 0,2.1 0.3,6.9 0.8,9 0,0 71.2,-68.4 71.1,-68.3"
   id="path4221" />
	</g>
	<g
   id="g4241">
		<path
   class="st7"
   d="m 518.3,517.5 c -2.1,0.1 168.2,170.4 168.2,170.4 -108.2,0 -223.6,-0.3 -331.8,-0.3 -1.9,0 -9.4,-0.1 -11.2,-0.2 11.1,-11.2 22.7,-26.1 33.9,-37.2 43.4,-43.4 88.1,-87 131.5,-130.3 2,-2 3.2,-5.3 5.1,-7.3"
   id="path4225" />
		<path
   class="st8"
   d="m 686.4,343.2 c -0.3,2 -1.3,5.2 -2.6,6.5 C 631.3,402 578.9,454.6 526.4,507 c -2.5,2.5 -2.2,6.6 -5.3,8.3 -1.8,0.6 -2.9,4.3 -5.1,3.9 -3,-1 -8,-7 -10.1,-9.2 -52.1,-52 -104.2,-104.1 -156.2,-156.1 -2.3,-2.3 -5.9,-7.1 -6.3,-10.7"
   id="path4227" />
		<path
   class="st9"
   d="m 343.4,343.2 c 2.5,-1 68,-70.5 70.5,-70.5 109.9,0 232,-0.1 341.9,0 h 1.7 c -18.6,18.5 -42.9,44.8 -61.5,63.3 -2.6,2.6 -5.3,4.9 -7.9,7.4"
   id="path4229" />
		<path
   class="st10"
   d="m 515.5,517.1 c -0.4,-1 -1.1,-1.6 -2.1,-1.8 C 490.9,492.7 468.5,470.1 446,447.5 412.1,413.6 377.3,377 343.4,343.1 V 687.3 C 395.3,635.5 463,570 514.9,518.1"
   id="path4231" />
		<path
   class="st0"
   d="M 606.9,648.4"
   id="path4233" />
		<path
   class="st11"
   d="M 514.9,518.1 686.4,343.2 c 0,0 -0.3,9.2 -0.3,12.2 0,108.2 0,216.3 0,324.5 0,3.7 0.3,8.1 0.3,8.1 -0.4,-0.1 0.4,0.1 0,0"
   id="path4235" />
		<path
   class="st5"
   d="m 754.2,622.4 c 2.3,-2.3 3.3,-4.5 3.3,-7.8 -0.1,-110.9 0,-231.1 0,-342"
   id="path4237" />
		<path
   class="st12"
   d="m 757.5,272.6 v 0 l -71.1,71.1 c 0.1,108.1 -0.8,227.2 -0.8,335.2 0,2.1 0.3,6.9 0.8,9 0,0 71.2,-68.4 71.1,-68.3"
   id="path4239" />
	</g>
	<rect
   x="371.79999"
   y="377"
   class="st13"
   width="281"
   height="281"
   id="rect4243" />
	<rect
   x="371.79999"
   y="717.70001"
   class="st13"
   width="281"
   height="281"
   id="rect4245" />
	<rect
   x="720"
   y="717.70001"
   class="st13"
   width="281"
   height="281"
   id="rect4247" />
	<rect
   x="31"
   y="717.70001"
   class="st13"
   width="281"
   height="281"
   id="rect4249" />
</g>
</svg>
