<?xml version="1.0" encoding="utf-8"?>
<!-- Generator: Adobe Illustrator 24.0.0, SVG Export Plug-In . SVG Version: 6.00 Build 0)  -->
<svg version="1.1" id="Layer_2" xmlns="http://www.w3.org/2000/svg" xmlns:xlink="http://www.w3.org/1999/xlink" x="0px" y="0px"
	 viewBox="0 0 1920 1080" style="enable-background:new 0 0 1920 1080;" xml:space="preserve">
<style type="text/css">
	.st0{fill:#122708;}
	.st1{fill:#77A762;}
</style>
<path class="st0" d="M1022.1,540.8V675c0,3.5-3,6.2-6.4,5.8l-219.1-20.8c-3.5-0.3-6.4,2.4-6.4,5.9l0.5,56.5c0,4.5-4.8,7.4-8.7,5.2
	L580.8,615.4c-6.9-3.9-7-13.9,0-17.7l193.5-108.5c7.1-4,15.9,1.2,15.9,9.3l0,48.1c0,3.4,2.9,6.1,6.3,5.8l219.3-17.4
	C1019.2,534.7,1022.1,537.4,1022.1,540.8z"/>
<path class="st1" d="M1012.1,521.8V656c0,3.5-3,6.2-6.4,5.8l-219.1-20.8c-3.5-0.3-6.4,2.4-6.4,5.9l0.5,56.5c0,4.5-4.8,7.4-8.7,5.2
	L570.8,596.4c-6.9-3.9-7-13.9,0-17.7l193.5-108.5c7.1-4,15.9,1.2,15.9,9.3l0,48.1c0,3.4,2.9,6.1,6.3,5.8l219.3-17.4
	C1009.2,515.7,1012.1,518.4,1012.1,521.8z"/>
</svg>
