<!DOCTYPE svg PUBLIC "-//W3C//DTD SVG 20010904//EN" "http://www.w3.org/TR/2001/REC-SVG-20010904/DTD/svg10.dtd">
<svg version="1.0" xmlns="http://www.w3.org/2000/svg" width="1200px" height="675px" viewBox="0 0 12000 6750" preserveAspectRatio="xMidYMid meet">
<g id="layer101" fill="#080508" stroke="none">
<path d="M5505 6410 c-934 -124 -1737 -697 -2150 -1535 -144 -292 -219 -529 -268 -850 -17 -115 -21 -186 -21 -395 0 -209 4 -280 21 -395 66 -432 190 -757 443 -1161 44 -71 86 -133 93 -139 7 -5 46 -50 87 -100 41 -49 124 -139 185 -199 380 -375 851 -631 1372 -745 364 -80 807 -82 1173 -6 338 70 676 209 958 394 382 251 701 591 918 977 188 336 305 703 345 1084 27 247 9 607 -41 845 -27 133 -78 320 -101 372 -11 24 -19 46 -19 50 0 18 -86 211 -137 306 -29 56 -71 139 -93 185 -22 46 -57 100 -78 120 -20 21 -71 82 -112 137 -93 124 -333 367 -462 469 -334 263 -726 450 -1133 541 -204 46 -307 57 -580 60 -212 3 -286 1 -400 -15z"/>
<path d="M2140 2973 c21 -44 30 -53 30 -30 0 6 -12 26 -25 42 l-26 30 21 -42z"/>
</g>
<g id="layer102" fill="#483d3b" stroke="none">
<path d="M5700 6359 c-267 -15 -521 -67 -754 -153 -38 -14 -71 -26 -73 -26 -2 0 -1 -5 2 -11 4 -6 13 -8 21 -5 11 4 11 1 3 -12 -7 -13 8 -63 71 -221 44 -112 82 -206 84 -208 2 -3 21 4 43 15 149 75 462 143 730 158 l123 7 4 31 c3 17 8 92 11 166 3 74 8 162 11 195 l6 61 -59 2 c-32 1 -65 4 -73 6 -8 1 -76 -1 -150 -5z"/>
<path d="M7062 5821 c-56 -109 -102 -200 -102 -203 0 -6 83 -61 132 -88 92 -50 321 -258 469 -426 l45 -52 134 110 c74 60 135 115 135 123 0 8 21 34 47 58 l46 45 -76 86 c-138 155 -300 294 -516 440 -210 143 -189 149 -314 -93z m563 -731 c3 -5 -3 -10 -15 -10 -12 0 -18 5 -15 10 3 6 10 10 15 10 5 0 12 -4 15 -10z"/>
<path d="M5620 5815 c-137 -21 -261 -44 -273 -52 -6 -4 -61 -23 -122 -44 -776 -260 -1347 -989 -1445 -1844 -13 -116 -13 -374 0 -490 30 -256 110 -530 221 -756 222 -448 563 -787 1004 -1000 928 -448 2053 -133 2632 739 202 305 326 635 369 987 20 162 15 493 -10 630 -22 118 -65 305 -76 330 -5 11 -26 65 -46 120 -154 421 -468 813 -846 1059 -259 168 -552 278 -856 320 -136 19 -429 20 -552 1z m547 -250 c330 -47 657 -191 918 -405 153 -126 337 -338 438 -506 491 -817 332 -1906 -368 -2527 -456 -404 -1047 -567 -1628 -447 -701 145 -1277 704 -1463 1418 -48 187 -59 282 -58 522 0 238 8 308 60 512 72 287 219 563 427 803 295 340 703 566 1142 630 124 18 406 18 532 0z"/>
<path d="M5645 5504 c-193 -30 -371 -87 -545 -174 -612 -308 -1011 -939 -1037 -1640 -25 -697 300 -1328 879 -1704 313 -203 720 -307 1092 -276 832 67 1502 674 1675 1518 146 707 -130 1467 -690 1904 -209 164 -462 287 -704 343 -194 46 -484 58 -670 29z m331 -391 c69 -23 155 -110 178 -181 25 -76 22 -171 -7 -236 -30 -64 -74 -116 -122 -142 -35 -18 -36 -20 -31 -64 13 -101 26 -308 32 -522 l7 -228 162 0 c162 0 601 -16 663 -24 30 -5 34 -2 54 42 46 97 130 153 239 160 255 16 389 -314 200 -491 -62 -58 -110 -78 -188 -78 -104 0 -206 61 -246 148 l-11 25 -101 -6 c-116 -8 -596 -25 -702 -26 l-73 0 0 -84 c0 -110 -19 -469 -30 -576 -8 -81 -8 -86 13 -100 98 -67 148 -150 155 -254 8 -131 -54 -238 -171 -296 -76 -37 -165 -42 -249 -14 -73 24 -158 109 -182 182 -24 72 -22 169 5 231 19 45 94 128 142 156 15 9 16 20 7 105 -12 122 -30 449 -30 563 0 48 -3 87 -7 87 -402 14 -553 20 -646 26 l-114 7 -6 -29 c-15 -76 -118 -165 -214 -185 -226 -46 -409 173 -336 402 23 72 107 158 177 182 62 21 139 22 199 1 59 -20 138 -90 162 -144 l19 -42 65 6 c100 10 483 26 599 26 l102 0 0 108 c0 131 16 427 31 581 10 104 9 115 -7 124 -42 24 -96 83 -121 135 -37 75 -39 181 -5 257 36 80 115 152 192 176 45 13 145 9 196 -8z"/>
<path d="M5932 5028 c-21 -21 -13 -38 40 -87 42 -39 52 -54 53 -81 0 -36 22 -57 49 -47 25 10 21 86 -7 128 -21 31 -100 99 -116 99 -4 0 -12 -5 -19 -12z"/>
<path d="M6020 4745 c-10 -12 -10 -18 0 -30 20 -25 55 -15 55 15 0 30 -35 40 -55 15z"/>
<path d="M7222 3808 c-7 -7 -12 -14 -12 -17 0 -10 128 -141 138 -141 5 0 15 7 22 15 19 23 -8 74 -63 119 -47 38 -66 43 -85 24z"/>
<path d="M4676 3794 c-9 -8 -16 -19 -16 -24 0 -11 29 -40 40 -40 4 0 28 -21 53 -46 35 -35 50 -44 66 -39 48 15 13 85 -68 136 -52 34 -55 34 -75 13z"/>
<path d="M5947 3663 c-9 -9 -9 -48 1 -57 4 -4 7 -27 7 -49 0 -35 3 -42 22 -45 25 -4 53 31 53 68 0 53 -57 110 -83 83z"/>
<path d="M5832 3618 c-11 -11 -17 -58 -8 -58 2 0 11 -3 19 -6 14 -5 47 20 47 36 0 10 -29 40 -39 40 -4 0 -12 -5 -19 -12z"/>
<path d="M5952 2633 c-13 -26 -5 -41 34 -59 20 -9 34 -24 34 -34 0 -23 26 -44 45 -36 39 15 30 74 -18 110 -46 35 -83 43 -95 19z"/>
<path d="M6062 2451 c-8 -4 -12 -19 -10 -32 2 -18 9 -24 28 -24 19 0 26 6 28 24 3 20 -11 41 -28 41 -3 0 -11 -4 -18 -9z"/>
<path d="M3744 5358 c-164 -205 -272 -370 -333 -511 -24 -54 -63 -139 -87 -188 -24 -49 -45 -94 -47 -101 -3 -18 307 -129 311 -111 4 15 12 14 102 -20 30 -11 49 -22 43 -24 -21 -7 -15 -20 14 -27 16 -5 29 -3 33 5 4 6 18 12 30 13 19 1 28 17 59 97 69 177 186 382 323 567 25 33 29 45 20 54 -15 15 -16 28 -2 28 6 0 10 -7 10 -15 0 -8 5 -15 10 -15 6 0 10 3 10 8 0 4 -78 85 -173 180 -218 217 -200 214 -323 60z"/>
<path d="M8273 4223 c-192 -53 -202 -58 -197 -78 4 -17 0 -24 -17 -28 -20 -5 -21 -10 -15 -49 29 -180 36 -264 36 -438 0 -167 -6 -254 -22 -319 -2 -11 49 -22 244 -51 l246 -36 6 30 c25 123 35 379 21 555 -6 72 -5 95 6 101 10 7 10 31 -5 131 -24 175 -32 203 -66 222 -15 9 -30 17 -32 16 -1 0 -94 -26 -205 -56z"/>
<path d="M8030 4140 c0 -24 15 -27 24 -4 9 22 8 24 -9 24 -8 0 -15 -9 -15 -20z"/>
<path d="M8580 3815 c0 -30 5 -55 10 -55 6 0 10 25 10 55 0 30 -4 55 -10 55 -5 0 -10 -25 -10 -55z"/>
<path d="M3410 3374 c-136 -10 -220 -18 -261 -23 -11 -2 21 -228 47 -328 19 -73 31 -103 44 -106 11 -3 20 -19 24 -42 4 -21 23 -76 42 -121 39 -95 39 -94 19 -94 -8 0 -15 -2 -15 -5 0 -26 120 -288 142 -310 4 -4 465 235 487 251 12 10 -37 100 -70 131 -24 23 -44 54 -55 87 -9 28 -19 58 -22 66 -3 8 2 6 11 -5 24 -31 31 -11 13 42 -36 111 -75 285 -82 366 -7 84 -7 86 -37 96 -36 13 -70 12 -287 -5z"/>
<path d="M7732 2396 c-19 -42 -127 -188 -207 -279 -92 -106 -206 -216 -295 -288 -36 -28 -65 -57 -64 -63 1 -15 252 -370 265 -374 13 -5 184 124 282 212 144 130 465 511 467 552 0 9 -383 241 -430 262 -4 1 -11 -8 -18 -22z"/>
<path d="M4498 1655 c-43 -58 -87 -109 -97 -113 -11 -4 -43 -37 -71 -75 l-51 -67 114 -74 c200 -131 490 -266 687 -319 155 -43 239 -62 245 -55 2 2 24 96 49 209 44 201 44 204 25 225 -10 11 -19 25 -19 31 0 7 -10 15 -22 18 -128 36 -322 107 -400 145 -53 27 -98 46 -101 44 -8 -8 -131 68 -160 100 -23 23 -39 31 -75 34 l-47 3 -77 -106z"/>
</g>
<g id="layer103" fill="#9e2a1e" stroke="none">
<path d="M6037 6249 c-4 -63 -10 -168 -13 -235 l-7 -121 89 -7 c204 -16 480 -92 684 -188 l105 -49 15 22 c8 12 58 107 111 210 l96 187 -96 45 c-268 127 -584 211 -912 243 l-66 6 -6 -113z"/>
<path d="M4685 6097 c-242 -114 -459 -261 -677 -460 -49 -43 -88 -84 -88 -90 0 -7 82 -94 182 -194 l182 -183 101 98 c164 160 333 285 498 368 59 30 107 57 107 60 0 21 -176 454 -184 454 -6 -1 -61 -24 -121 -53z"/>
<path d="M5653 5819 c-832 -97 -1544 -711 -1792 -1547 -159 -536 -109 -1133 138 -1637 319 -650 913 -1089 1608 -1189 146 -21 426 -21 574 0 689 96 1286 536 1608 1185 116 234 194 506 222 779 15 142 6 451 -16 575 -22 124 -64 304 -79 340 -7 17 -26 66 -41 110 -37 104 -145 317 -216 425 -350 536 -914 889 -1534 960 -104 11 -368 11 -472 -1z m552 -260 c146 -24 239 -49 370 -100 333 -130 632 -362 851 -659 202 -275 336 -627 375 -985 14 -131 6 -376 -16 -520 -101 -647 -518 -1209 -1098 -1480 -299 -140 -641 -198 -968 -165 -879 89 -1585 795 -1705 1704 -19 145 -14 450 10 590 105 607 464 1123 981 1408 373 205 779 275 1200 207z"/>
<path d="M5730 5514 c-14 -2 -59 -9 -100 -15 -41 -5 -126 -24 -188 -40 -617 -162 -1119 -661 -1301 -1294 -312 -1084 337 -2201 1409 -2425 191 -40 477 -42 677 -5 480 89 912 376 1188 790 389 583 439 1320 131 1950 -103 209 -208 354 -378 522 -291 288 -650 462 -1058 512 -79 10 -323 13 -380 5z m282 -416 c162 -96 212 -299 110 -451 -25 -37 -95 -100 -122 -109 -8 -2 -8 -28 0 -93 13 -117 30 -439 30 -586 l0 -116 308 -6 c169 -4 363 -10 432 -13 l125 -7 12 34 c18 49 67 105 120 136 34 20 63 27 117 31 94 6 158 -20 221 -90 164 -183 40 -482 -200 -481 -103 0 -208 64 -248 150 -11 25 -12 25 -97 19 -109 -8 -577 -26 -697 -26 l-93 0 0 -102 c0 -133 -18 -471 -30 -568 -9 -71 -8 -76 13 -90 99 -67 148 -148 155 -255 8 -131 -55 -237 -173 -296 -157 -77 -343 -12 -421 147 -65 133 -17 306 107 386 41 26 47 35 44 57 -10 55 -25 295 -31 504 l-7 217 -26 0 c-68 1 -548 20 -637 26 l-101 7 -6 -29 c-8 -44 -62 -111 -114 -144 -150 -96 -341 -40 -425 123 -29 58 -36 168 -14 235 21 62 92 144 150 174 57 29 159 35 224 14 63 -21 144 -92 169 -147 l18 -41 60 6 c90 10 454 26 588 26 l117 0 0 113 c0 134 16 453 30 592 8 76 7 101 -2 104 -29 10 -100 88 -125 140 -24 47 -28 68 -27 136 0 66 5 89 26 130 35 67 90 122 152 152 44 21 62 24 137 21 70 -3 93 -9 131 -30z"/>
<path d="M7833 5155 l-192 -155 63 -95 c93 -138 230 -413 256 -515 20 -78 46 -159 52 -165 3 -4 115 23 248 59 133 36 244 66 246 66 3 0 2 10 -1 23 -19 65 -58 186 -70 212 -7 17 -27 66 -45 110 -69 173 -281 538 -347 598 -18 16 -28 9 -210 -138z"/>
<path d="M3227 4388 c-75 -261 -114 -598 -100 -850 l6 -118 31 0 c50 0 538 39 543 43 2 2 6 98 9 213 2 115 9 245 14 289 10 79 48 245 68 295 l10 26 -272 97 c-149 54 -274 97 -277 97 -3 0 -18 -42 -32 -92z"/>
<path d="M8044 3193 c-31 -186 -127 -465 -214 -628 l-48 -91 207 -121 c114 -67 214 -123 221 -125 39 -9 223 401 295 657 32 116 64 269 56 272 -8 3 -489 73 -501 73 -5 0 -12 -17 -16 -37z"/>
<path d="M3728 2412 c-131 -70 -238 -132 -238 -138 0 -9 83 -147 137 -226 48 -71 187 -234 287 -336 92 -95 255 -237 303 -266 11 -6 82 83 276 351 l37 51 -121 119 c-66 65 -154 159 -194 208 -73 89 -218 308 -230 346 -4 10 -9 19 -13 19 -4 -1 -114 -58 -244 -128z"/>
<path d="M7020 1693 c-36 -19 -85 -50 -110 -68 -84 -62 -278 -141 -465 -191 -83 -22 -119 -36 -118 -45 1 -8 16 -110 34 -226 29 -189 35 -213 52 -213 29 0 209 47 349 91 162 51 432 181 571 275 l45 30 -134 190 c-73 104 -139 190 -146 190 -7 1 -42 -14 -78 -33z"/>
</g>
<g id="layer104" fill="#677c2a" stroke="none">
<path d="M2140 2975 c0 -18 19 -40 26 -32 4 4 0 15 -9 24 -9 10 -17 13 -17 8z"/>
<path d="M5485 1379 c-26 -112 -95 -442 -93 -444 9 -8 172 -27 307 -36 160 -10 405 0 556 22 58 9 75 15 75 28 0 22 -68 432 -72 435 -2 2 -88 -1 -193 -7 -179 -10 -486 1 -552 19 -17 5 -23 1 -28 -17z"/>
</g>
<g id="layer105" fill="#5e504c" stroke="none">
<path d="M5645 6309 c-55 -5 -134 -16 -175 -23 -41 -8 -95 -18 -120 -21 -60 -9 -341 -82 -386 -101 -27 -11 -34 -19 -29 -32 3 -9 35 -92 72 -184 61 -156 67 -166 87 -159 11 5 48 20 81 34 123 52 527 127 682 127 l51 0 6 73 c3 39 7 123 10 185 l5 112 -92 -1 c-51 -1 -137 -6 -192 -10z"/>
<path d="M7145 5887 c-26 -51 -68 -127 -93 -170 -24 -43 -43 -80 -41 -81 4 -3 37 -25 237 -158 31 -20 125 -107 210 -193 108 -111 157 -154 165 -147 7 5 75 58 153 119 l141 109 -72 84 c-39 47 -106 112 -147 145 -42 33 -116 95 -165 138 -48 42 -124 100 -168 127 -44 27 -100 65 -125 84 l-46 35 -49 -92z"/>
<path d="M5660 5819 c-549 -68 -1056 -352 -1400 -785 -266 -335 -422 -709 -476 -1144 -13 -103 -12 -457 1 -545 54 -370 175 -689 371 -980 56 -84 202 -268 225 -285 4 -3 45 -41 91 -85 233 -225 552 -405 873 -493 173 -47 286 -63 482 -69 314 -10 555 31 826 138 273 109 488 251 703 464 143 143 160 162 246 282 229 320 370 698 409 1103 14 150 7 414 -16 550 -22 135 -64 320 -80 355 -7 17 -20 50 -28 75 -50 149 -164 369 -271 520 -165 235 -352 416 -590 572 -245 160 -498 260 -796 313 -112 20 -455 29 -570 14z m498 -250 c201 -33 321 -67 477 -134 418 -181 753 -499 958 -910 98 -195 151 -356 193 -580 19 -106 28 -449 13 -565 -66 -531 -324 -1001 -729 -1327 -490 -395 -1147 -515 -1742 -320 -411 136 -755 401 -1005 776 -158 238 -276 563 -313 866 -15 118 -11 393 7 524 90 656 509 1232 1098 1511 175 83 419 150 617 169 103 11 336 5 426 -10z"/>
<path d="M5725 5514 c-146 -16 -365 -72 -505 -129 -380 -157 -710 -454 -912 -820 -259 -471 -316 -1030 -156 -1540 172 -549 595 -1006 1113 -1200 222 -83 406 -116 645 -116 356 0 683 99 985 298 793 523 1076 1586 655 2458 -263 545 -768 932 -1345 1031 -87 15 -397 26 -480 18z m270 -409 c63 -28 118 -83 152 -153 35 -72 38 -183 6 -254 -26 -57 -93 -131 -134 -149 -29 -11 -31 -15 -25 -50 16 -102 35 -435 36 -625 l0 -131 328 -7 c180 -3 374 -9 432 -12 l105 -7 12 34 c18 49 67 105 120 136 68 40 172 44 244 11 107 -50 160 -128 167 -249 4 -61 1 -84 -16 -122 -52 -118 -146 -183 -262 -181 -36 0 -81 8 -101 16 -48 21 -110 78 -135 123 l-19 36 -95 -6 c-52 -3 -124 -8 -160 -10 -36 -2 -189 -7 -340 -11 -151 -4 -276 -7 -276 -8 -1 0 -4 -104 -8 -231 -6 -220 -21 -455 -31 -483 -3 -7 28 -46 68 -85 90 -89 112 -141 105 -251 -6 -88 -41 -159 -106 -217 -115 -101 -311 -96 -420 13 -102 100 -125 236 -63 363 19 38 47 77 68 93 19 15 44 34 56 43 20 15 20 19 8 178 -6 89 -14 255 -18 369 -3 114 -6 208 -7 208 0 1 -84 5 -186 8 -219 7 -363 14 -480 22 l-85 6 -22 -45 c-95 -195 -329 -235 -479 -82 -67 68 -88 128 -82 234 5 87 28 141 85 197 85 86 219 110 326 60 63 -30 120 -84 144 -137 18 -38 18 -38 68 -33 81 9 377 21 550 23 87 1 160 3 161 4 1 1 4 103 7 227 6 217 23 504 32 545 3 14 -11 33 -48 66 -29 26 -66 71 -82 100 -26 48 -30 64 -30 139 0 70 4 93 23 129 37 69 80 117 133 146 88 47 184 51 274 10z"/>
<path d="M5937 5029 c-28 -16 -20 -44 21 -72 40 -29 77 -81 67 -97 -11 -18 15 -51 38 -48 18 2 23 11 25 42 4 51 -12 89 -58 130 -52 47 -72 56 -93 45z"/>
<path d="M7227 3813 c-16 -16 -2 -42 53 -102 59 -63 83 -72 96 -36 17 44 -118 170 -149 138z"/>
<path d="M4676 3794 c-9 -8 -16 -19 -16 -24 0 -11 29 -40 40 -40 5 0 29 -21 55 -47 38 -37 50 -45 64 -36 41 26 12 84 -68 134 -52 34 -55 34 -75 13z"/>
<path d="M5953 3663 c-14 -5 -18 -45 -5 -57 4 -4 7 -27 7 -49 0 -35 3 -42 22 -45 25 -4 53 31 53 68 0 31 -35 90 -52 89 -7 0 -19 -3 -25 -6z"/>
<path d="M4804 3616 c-12 -31 0 -51 31 -51 27 0 30 3 30 30 0 25 -4 30 -28 33 -17 2 -29 -2 -33 -12z"/>
<path d="M5827 3613 c-13 -12 -7 -51 8 -57 32 -12 61 17 49 49 -6 15 -45 21 -57 8z"/>
<path d="M5956 2635 c-21 -21 -11 -42 30 -61 20 -10 34 -24 34 -34 0 -23 26 -44 45 -36 39 15 30 74 -18 109 -45 34 -72 41 -91 22z"/>
<path d="M6060 2445 c-19 -23 -8 -50 20 -50 19 0 26 6 28 24 5 35 -26 53 -48 26z"/>
<path d="M3843 5395 c-31 -44 -136 -179 -156 -200 -10 -11 -28 -36 -40 -55 -11 -19 -40 -60 -63 -91 -23 -30 -59 -91 -79 -135 -21 -43 -66 -137 -102 -208 -35 -71 -62 -129 -61 -130 9 -6 438 -156 445 -156 9 0 36 76 57 156 8 28 26 72 42 98 16 26 38 61 48 79 11 18 34 55 53 84 18 28 33 54 33 58 0 3 34 56 76 117 l75 111 -58 59 c-32 33 -102 100 -155 149 l-96 90 -19 -26z"/>
<path d="M8286 4170 c-98 -27 -180 -51 -183 -54 -3 -2 0 -26 7 -53 6 -26 17 -151 25 -278 13 -227 9 -340 -15 -385 -6 -10 -10 -28 -10 -39 0 -23 -6 -22 238 -57 202 -28 218 -26 207 27 -3 15 -2 30 3 33 15 9 12 303 -4 367 -8 31 -14 97 -14 145 0 56 -9 134 -25 209 -14 66 -25 123 -25 127 0 12 -14 10 -204 -42z"/>
<path d="M3430 3325 c-91 -7 -177 -13 -192 -14 -25 -1 -28 -5 -28 -37 0 -19 6 -65 14 -102 8 -37 22 -107 31 -157 23 -126 31 -153 91 -306 30 -76 54 -144 54 -152 0 -9 11 -28 24 -44 13 -15 30 -44 39 -64 l15 -36 196 99 c108 54 196 101 196 104 0 3 -7 18 -15 33 -22 43 -74 193 -139 401 -28 87 -36 132 -36 187 0 39 -3 78 -6 87 -7 18 -9 18 -244 1z"/>
<path d="M2146 2956 c3 -9 11 -16 16 -16 13 0 5 23 -10 28 -7 2 -10 -2 -6 -12z"/>
<path d="M7741 2317 c-6 -18 -21 -44 -34 -57 -12 -13 -35 -43 -52 -66 -25 -35 -88 -111 -174 -209 -19 -22 -224 -205 -243 -216 -8 -5 -9 -12 -2 -21 6 -7 57 -77 114 -156 l103 -143 66 68 c36 38 93 86 126 107 65 42 162 138 227 226 23 30 64 82 92 114 28 33 58 69 66 82 8 12 30 40 47 62 l33 39 -163 96 c-89 53 -169 99 -178 102 -13 5 -20 -2 -28 -28z"/>
<path d="M4574 1728 c-3 -4 -10 -5 -16 -2 -7 4 -8 2 -4 -5 9 -13 -12 -44 -24 -36 -4 3 -7 -3 -6 -13 0 -9 -5 -16 -12 -14 -8 1 -11 -2 -7 -8 9 -14 -14 -42 -28 -33 -6 3 -7 1 -3 -6 4 -6 -21 -50 -60 -103 -53 -72 -64 -94 -53 -100 8 -5 41 -25 74 -45 33 -19 88 -49 123 -65 34 -16 107 -53 160 -83 101 -55 199 -98 337 -145 89 -30 212 -57 221 -48 6 6 85 351 81 353 -1 1 -27 9 -57 18 -224 64 -675 283 -675 327 0 15 -43 22 -51 8z"/>
</g>
<g id="layer106" fill="#b63021" stroke="none">
<path d="M6086 6313 c-3 -21 -6 -65 -6 -98 -1 -33 -7 -107 -14 -165 -7 -58 -13 -106 -12 -107 1 -1 48 -7 106 -13 58 -6 139 -18 180 -26 83 -17 373 -109 405 -128 27 -17 176 -78 180 -74 1 2 31 59 66 128 48 95 64 136 65 170 0 25 4 54 7 65 6 17 -1 25 -38 43 -37 18 -45 19 -45 7 0 -32 -47 -19 -343 89 -107 39 -208 60 -362 76 -136 13 -178 26 -172 51 3 10 2 19 -3 19 -4 0 -10 -17 -14 -37z"/>
<path d="M4805 6083 c-27 -6 -177 -64 -190 -74 -5 -4 -39 -21 -75 -39 -36 -18 -101 -56 -145 -85 -128 -84 -178 -115 -186 -115 -4 0 -56 -43 -116 -95 -59 -52 -114 -95 -121 -95 -20 0 -4 -18 160 -179 l147 -144 58 49 c32 26 81 69 108 95 28 26 75 65 106 86 31 21 80 55 110 76 91 64 227 145 267 159 20 7 39 14 41 15 6 4 -132 353 -139 352 -3 -1 -14 -3 -25 -6z"/>
<path d="M5660 5819 c-477 -59 -944 -292 -1267 -632 -543 -572 -745 -1362 -547 -2137 194 -757 793 -1366 1527 -1555 213 -54 345 -68 587 -62 273 8 452 43 695 139 666 263 1174 879 1318 1598 83 409 52 852 -85 1225 -166 455 -463 835 -853 1091 -247 163 -507 266 -805 319 -112 20 -455 29 -570 14z m554 -259 c765 -131 1379 -729 1550 -1510 275 -1255 -674 -2449 -1914 -2407 -477 16 -900 195 -1244 527 -329 317 -539 739 -596 1200 -15 125 -12 392 6 521 83 595 422 1119 924 1425 232 141 512 235 788 264 121 12 353 3 486 -20z"/>
<path d="M5696 5510 c-543 -68 -1026 -376 -1331 -849 -70 -108 -168 -320 -209 -450 -190 -603 -86 -1248 282 -1751 269 -368 668 -625 1117 -720 129 -27 420 -38 561 -21 545 67 1039 385 1332 857 267 430 357 935 257 1432 -154 761 -750 1353 -1495 1487 -109 19 -408 28 -514 15z m299 -405 c65 -29 121 -86 154 -155 34 -73 35 -182 4 -252 -26 -57 -93 -131 -133 -148 -27 -11 -30 -16 -25 -44 12 -75 26 -289 32 -517 l6 -246 326 -7 c179 -3 373 -9 431 -12 l105 -7 13 35 c18 52 76 113 134 142 101 51 234 28 316 -55 54 -54 75 -104 80 -194 4 -75 2 -84 -30 -145 -70 -135 -218 -192 -355 -135 -43 18 -118 89 -133 126 l-13 31 -66 -6 c-91 -9 -551 -26 -692 -26 l-116 0 -6 -222 c-4 -123 -12 -289 -18 -369 l-12 -146 69 -69 c87 -86 109 -140 102 -248 -21 -324 -458 -402 -596 -106 -60 127 -18 289 97 375 l54 40 -7 95 c-18 265 -26 416 -26 528 l0 122 -57 0 c-92 1 -530 19 -618 26 l-80 6 -22 -45 c-31 -64 -78 -114 -137 -145 -43 -22 -64 -27 -131 -27 -67 0 -88 5 -131 27 -66 35 -128 106 -150 170 -22 68 -16 187 14 245 73 141 246 204 385 140 61 -28 120 -85 144 -139 17 -36 20 -38 58 -33 68 9 453 25 593 25 l132 0 0 127 c0 132 16 448 29 588 l8 80 -54 49 c-67 60 -102 127 -110 210 -22 236 216 408 432 311z"/>
<path d="M4355 5254 c-22 -19 -31 -31 -20 -25 19 8 74 61 64 61 -2 0 -22 -16 -44 -36z"/>
<path d="M7813 5137 c-89 -73 -162 -135 -163 -140 0 -4 9 -2 21 5 18 12 23 10 42 -16 21 -29 103 -181 141 -264 23 -50 15 -68 -10 -20 -21 42 -76 128 -82 128 -2 0 8 -21 23 -46 36 -61 105 -201 105 -213 0 -5 7 -22 16 -37 l16 -29 -6 32 c-3 18 -14 51 -25 73 -13 27 -16 42 -9 47 7 3 8 1 4 -5 -4 -7 -3 -12 2 -12 7 0 45 -71 48 -90 0 -3 17 -40 36 -82 40 -86 55 -127 63 -178 9 -62 12 -62 115 -33 106 30 109 31 92 42 -15 9 27 31 58 31 21 0 107 31 158 58 21 11 31 23 29 32 -3 8 -11 36 -18 63 -7 26 -17 47 -22 47 -4 0 -5 5 -1 12 4 6 3 8 -3 5 -6 -4 -15 -1 -20 6 -11 14 -31 92 -31 123 0 21 -58 154 -67 154 -3 0 -1 -9 5 -19 16 -32 13 -43 -9 -31 -11 5 -40 45 -64 88 -106 185 -119 208 -136 227 -10 11 -32 45 -50 75 -38 63 -70 100 -85 99 -6 0 -84 -60 -173 -132z"/>
<path d="M8219 5015 c17 -33 31 -51 31 -40 0 6 -10 21 -21 35 -13 17 -17 18 -10 5z"/>
<path d="M3270 4384 c0 -47 -18 -114 -30 -114 -4 0 -11 -21 -13 -47 -3 -27 -13 -86 -22 -133 -36 -194 -51 -576 -23 -628 10 -19 9 -25 -2 -32 -14 -9 71 -4 170 10 52 7 53 8 15 10 l-40 2 44 14 c24 7 92 18 150 24 58 6 125 13 149 16 l42 6 -1 57 c-1 33 -4 44 -6 26 -12 -81 -21 -28 -28 157 -7 221 1 292 50 430 14 37 20 70 16 73 -8 5 -416 151 -453 162 -15 4 -18 -1 -18 -33z"/>
<path d="M8331 4319 c-18 -6 -31 -12 -29 -14 2 -3 24 1 49 9 49 16 33 20 -20 5z"/>
<path d="M3200 4268 c0 -23 3 -29 9 -19 8 12 4 51 -5 51 -2 0 -4 -15 -4 -32z"/>
<path d="M8100 3199 c0 -18 -5 -21 -30 -17 -24 4 -30 1 -30 -13 0 -63 -81 -317 -178 -561 -10 -23 -9 -26 5 -21 13 5 14 3 3 -17 -8 -15 -15 -19 -19 -11 -5 7 -12 2 -21 -15 -13 -23 -12 -27 3 -35 21 -12 22 -23 2 -42 -13 -13 -13 -16 0 -21 9 -3 15 0 15 9 0 24 28 18 88 -19 102 -61 267 -151 287 -157 16 -4 27 6 53 49 43 72 74 133 70 138 -3 2 -23 -32 -47 -76 -23 -44 -47 -83 -53 -86 -19 -12 1 44 41 115 20 36 43 93 49 126 7 33 25 80 40 105 26 43 55 112 65 155 3 11 6 0 7 -25 l1 -45 18 50 c10 28 21 61 26 75 7 24 7 24 -9 5 -21 -27 -20 -7 1 36 9 18 19 57 21 86 3 32 12 59 23 72 27 29 24 51 -7 51 -23 0 -26 3 -22 25 4 20 1 26 -16 30 -22 5 -367 55 -379 55 -4 0 -7 -10 -7 -21z"/>
<path d="M3748 2381 c-104 -54 -191 -100 -194 -104 -13 -13 8 -57 46 -97 22 -23 52 -63 67 -88 14 -26 47 -69 73 -97 25 -27 64 -72 86 -100 101 -128 370 -385 403 -385 4 0 11 12 17 28 6 15 57 90 113 166 55 77 101 142 101 145 0 3 -45 52 -100 109 -96 98 -120 132 -83 118 15 -6 15 -5 1 11 -52 61 -140 177 -172 227 -28 43 -40 56 -46 46 -12 -19 -36 3 -75 69 -17 28 -34 51 -40 50 -5 0 -94 -44 -197 -98z"/>
<path d="M7044 1640 c-36 -21 -252 -135 -306 -162 -20 -10 -42 -18 -49 -18 -7 0 -64 -18 -128 -39 -64 -22 -141 -47 -172 -55 l-56 -16 23 -142 c13 -79 26 -164 30 -191 6 -39 9 -45 21 -35 8 6 27 13 42 14 61 7 283 78 401 128 69 30 148 61 177 70 28 10 69 30 91 45 21 16 70 46 108 66 38 21 81 47 95 59 l26 22 -64 89 c-72 100 -77 106 -67 82 3 -9 2 -17 -4 -17 -11 0 -75 69 -92 99 -13 25 -35 26 -76 1z"/>
</g>
<g id="layer107" fill="#677c2a" stroke="none">
<path d="M5537 1368 c-43 -185 -63 -239 -85 -236 -10 2 -20 -18 -32 -67 -11 -38 -19 -74 -19 -80 -1 -5 20 -11 47 -12 87 -3 327 -24 356 -31 34 -8 45 -28 19 -35 -48 -12 175 -10 302 3 160 17 163 18 157 46 -3 19 0 24 17 24 11 0 21 6 21 13 0 6 -12 88 -27 181 l-28 168 -70 -7 c-79 -9 -370 -8 -487 1 -67 6 -78 9 -78 25 0 13 -7 19 -22 19 -13 0 -33 3 -44 6 -17 4 -23 0 -27 -18z"/>
</g>
<g id="layer108" fill="#e43b27" stroke="none">
<path d="M6086 6285 c-3 -9 -6 -47 -6 -83 0 -37 -5 -110 -10 -162 -5 -52 -8 -95 -7 -96 1 -2 49 -8 107 -14 58 -6 138 -18 178 -26 97 -20 346 -103 456 -153 l90 -40 25 58 c15 31 52 107 84 169 l57 112 -27 11 c-16 6 -77 28 -138 49 -60 21 -157 56 -215 77 -133 50 -211 68 -380 88 -74 9 -151 19 -171 22 -28 4 -38 1 -43 -12z"/>
<path d="M4715 6049 c-38 -16 -83 -37 -100 -46 -16 -9 -55 -30 -85 -46 -49 -26 -92 -53 -279 -176 -30 -20 -84 -63 -120 -96 -37 -33 -86 -75 -110 -94 l-43 -35 151 -148 152 -148 100 87 c99 87 243 198 327 251 134 85 198 122 223 127 38 9 42 17 25 55 -9 22 -15 28 -19 19 -11 -26 -42 25 -92 148 -27 65 -51 121 -54 125 -3 4 -37 -7 -76 -23z"/>
<path d="M7915 5159 c-124 -101 -171 -133 -185 -124 -5 3 -7 11 -4 17 4 6 -1 6 -14 -1 -24 -13 -38 -31 -24 -31 25 0 230 -364 262 -465 7 -22 30 -80 51 -128 22 -48 41 -102 42 -120 2 -21 8 -31 17 -30 31 5 375 105 382 112 5 4 -9 47 -29 96 -31 77 -37 102 -38 172 0 45 -4 85 -8 89 -4 4 -7 3 -7 -3 0 -15 -35 -5 -53 15 -8 10 -40 66 -71 125 -30 60 -79 145 -109 190 -29 45 -66 101 -80 125 -15 23 -28 42 -30 42 -1 0 -47 -37 -102 -81z"/>
<path d="M3268 4358 c-3 -35 -10 -76 -15 -93 -39 -107 -60 -222 -74 -405 -10 -139 -9 -373 2 -385 4 -3 114 2 245 12 l237 18 2 230 c2 240 8 283 52 428 14 48 24 89 22 91 -2 2 -101 38 -219 79 -118 41 -222 78 -232 82 -14 5 -17 -3 -20 -57z"/>
<path d="M8040 3155 c0 -13 -4 -35 -9 -48 -8 -22 -7 -24 10 -20 24 7 25 -11 3 -78 -18 -55 -37 -56 -29 -1 7 50 -4 22 -43 -101 -21 -66 -26 -94 -16 -87 11 10 15 9 20 -3 9 -25 -22 -119 -76 -224 -27 -53 -48 -98 -47 -99 5 -5 348 -204 351 -204 10 0 110 213 128 270 11 36 30 81 43 101 12 19 39 98 58 175 49 193 67 255 73 265 3 5 -1 11 -8 14 -20 7 -350 55 -408 59 -47 4 -50 2 -50 -19z"/>
<path d="M3750 2374 c-220 -117 -220 -117 -152 -189 38 -39 92 -115 92 -127 0 -4 14 -22 31 -40 17 -18 56 -64 86 -102 76 -94 318 -336 371 -371 25 -16 46 -24 51 -19 5 5 50 68 101 139 51 72 102 142 112 156 l19 26 -121 119 c-66 65 -131 134 -142 154 -12 19 -47 67 -78 105 -32 39 -79 104 -106 146 -27 43 -53 84 -59 92 -8 12 -42 -2 -205 -89z"/>
<path d="M6908 1565 c-98 -52 -209 -103 -250 -115 -40 -12 -102 -32 -138 -45 -36 -13 -91 -31 -122 -40 -42 -11 -58 -20 -58 -33 0 -9 12 -89 26 -178 l26 -160 52 7 c84 11 235 55 341 99 55 23 143 57 195 77 52 20 116 51 142 69 26 18 79 49 118 69 39 20 70 39 68 43 -9 21 -211 302 -216 302 -4 0 -87 -43 -184 -95z"/>
</g>
<g id="layer109" fill="#7bb530" stroke="none">
<path d="M5495 1173 c-21 -93 -40 -173 -42 -179 -5 -13 4 -14 242 -34 157 -13 413 -8 519 10 32 5 60 11 62 13 3 3 -39 270 -51 322 -4 19 -12 20 -267 20 -145 0 -299 3 -344 8 l-81 7 -38 -167z"/>
</g>
<g id="layer110" fill="#d77b4c" stroke="none">
<path d="M5640 5816 c-550 -76 -1037 -352 -1380 -782 -336 -421 -510 -954 -487 -1494 26 -591 264 -1127 677 -1524 400 -384 899 -586 1445 -586 576 0 1102 226 1506 647 321 335 516 734 596 1218 27 165 24 536 -5 698 -32 176 -59 280 -104 402 -168 457 -464 835 -853 1091 -248 163 -504 264 -810 320 -121 22 -457 27 -585 10z m571 -255 c608 -105 1119 -495 1399 -1066 134 -276 200 -567 200 -889 0 -1108 -893 -2000 -1965 -1963 -195 7 -340 32 -519 91 -276 91 -507 231 -720 436 -327 315 -532 722 -592 1175 -24 182 -15 497 21 665 117 558 439 1021 907 1307 230 140 510 234 786 263 123 12 350 4 483 -19z"/>
<path d="M5670 5505 c-700 -96 -1282 -590 -1509 -1281 -132 -402 -131 -826 4 -1233 160 -480 499 -875 940 -1094 260 -130 503 -186 799 -187 227 0 418 33 616 107 645 241 1099 813 1206 1518 22 146 21 414 -1 559 -64 420 -239 776 -529 1075 -400 411 -972 612 -1526 536z m326 -400 c66 -29 120 -84 152 -154 35 -74 36 -183 5 -253 -26 -56 -93 -131 -133 -148 -24 -10 -28 -17 -25 -39 12 -69 26 -309 32 -527 l6 -241 331 -6 c182 -4 376 -10 431 -13 l100 -7 13 35 c19 53 77 114 137 143 48 24 64 27 127 23 83 -4 130 -24 182 -74 57 -55 79 -107 84 -199 4 -75 2 -84 -30 -145 -70 -135 -218 -192 -355 -135 -43 18 -118 89 -133 126 l-13 31 -66 -6 c-91 -9 -551 -26 -692 -26 l-116 0 -6 -222 c-3 -123 -11 -289 -18 -369 l-12 -146 70 -69 c86 -85 108 -138 101 -248 -15 -225 -236 -355 -444 -262 -66 30 -120 85 -152 155 -60 129 -18 290 97 376 l53 40 -6 90 c-15 208 -25 418 -26 533 l0 122 -52 0 c-89 0 -548 19 -629 26 l-75 6 -20 -44 c-61 -137 -213 -206 -359 -164 -78 23 -163 106 -190 185 -23 71 -17 189 13 248 73 142 245 205 383 141 63 -29 122 -85 146 -140 17 -36 20 -38 58 -33 72 9 445 25 586 25 l139 0 0 128 c0 134 16 452 29 587 l8 80 -54 49 c-67 61 -104 131 -111 212 -19 237 217 406 434 309z"/>
<path d="M5927 5023 c-17 -16 -4 -42 33 -67 41 -27 75 -78 66 -101 -2 -7 2 -21 9 -32 11 -14 18 -16 32 -7 44 27 27 99 -38 164 -46 46 -84 62 -102 43z"/>
<path d="M6024 4746 c-10 -26 4 -48 28 -44 17 2 23 10 23 28 0 18 -6 26 -23 28 -13 2 -25 -3 -28 -12z"/>
<path d="M7227 3813 c-16 -15 -4 -44 28 -70 20 -15 44 -43 55 -60 21 -36 40 -41 60 -18 18 21 4 49 -53 105 -47 47 -74 59 -90 43z"/>
<path d="M4682 3798 c-21 -21 -13 -46 21 -69 17 -12 46 -38 64 -58 27 -30 35 -34 50 -25 42 26 16 80 -64 133 -52 35 -54 36 -71 19z"/>
<path d="M5949 3654 c-11 -13 -11 -20 2 -43 11 -19 12 -33 5 -54 -20 -56 41 -63 64 -7 15 35 8 68 -20 98 -25 26 -33 27 -51 6z"/>
<path d="M4804 3616 c-11 -28 1 -51 25 -51 32 0 49 28 32 49 -17 20 -50 21 -57 2z"/>
<path d="M5827 3614 c-12 -12 -8 -41 8 -54 20 -17 47 5 43 34 -3 21 -37 34 -51 20z"/>
<path d="M5963 2643 c-27 -10 -14 -49 21 -66 21 -10 36 -25 38 -38 2 -12 11 -27 21 -33 38 -23 57 50 24 92 -9 12 -82 53 -89 51 -2 0 -9 -3 -15 -6z"/>
<path d="M6057 2444 c-12 -13 -8 -42 8 -48 25 -9 46 5 43 28 -3 21 -37 34 -51 20z"/>
</g>
<g id="layer111" fill="#fcfcfc" stroke="none">
<!-- <path d="M1274 5683 c-13 -4 -7 -43 7 -43 4 0 13 9 18 19 11 20 -2 32 -25 24z"/> -->
<path d="M5927 5023 c-16 -15 -4 -40 28 -61 42 -27 75 -77 75 -113 0 -30 25 -45 46 -28 23 19 16 72 -15 120 -39 62 -111 106 -134 82z"/>
<path d="M6024 4745 c-9 -23 3 -45 25 -45 20 0 37 32 26 50 -9 15 -45 12 -51 -5z"/>
<path d="M7227 3813 c-16 -16 -4 -44 31 -71 21 -17 44 -42 51 -56 17 -32 36 -39 55 -21 22 22 9 49 -49 105 -51 47 -73 58 -88 43z"/>
<path d="M4677 3793 c-16 -16 -4 -43 27 -63 19 -11 48 -37 64 -57 30 -38 56 -40 69 -8 19 50 -124 164 -160 128z"/>
<path d="M5949 3654 c-10 -13 -10 -20 4 -43 10 -18 13 -32 7 -41 -22 -34 -1 -67 34 -54 16 6 36 47 36 74 0 19 -45 80 -60 80 -4 0 -13 -7 -21 -16z"/>
<path d="M4810 3616 c-27 -33 18 -72 48 -42 13 13 14 20 6 34 -15 23 -38 26 -54 8z"/>
<path d="M5825 3600 c-8 -26 6 -43 31 -38 13 2 19 12 19 28 0 34 -40 41 -50 10z"/>
<path d="M7334 3606 c-10 -26 4 -48 28 -44 17 2 23 10 23 28 0 18 -6 26 -23 28 -13 2 -25 -3 -28 -12z"/>
<path d="M5963 2643 c-27 -9 -14 -49 21 -66 21 -10 36 -25 38 -38 2 -12 11 -27 21 -33 28 -17 48 15 36 57 -13 45 -81 92 -116 80z"/>
<path d="M6054 2435 c-4 -9 0 -23 8 -31 20 -20 50 -7 46 20 -4 26 -45 35 -54 11z"/>
</g>


</svg>