<?xml version="1.0" encoding="UTF-8" standalone="no"?>
<svg
   xmlns:dc="http://purl.org/dc/elements/1.1/"
   xmlns:cc="http://creativecommons.org/ns#"
   xmlns:rdf="http://www.w3.org/1999/02/22-rdf-syntax-ns#"
   xmlns:svg="http://www.w3.org/2000/svg"
   xmlns="http://www.w3.org/2000/svg"
   xmlns:sodipodi="http://sodipodi.sourceforge.net/DTD/sodipodi-0.dtd"
   xmlns:inkscape="http://www.inkscape.org/namespaces/inkscape"
   version="1.0"
   width="561.43109"
   height="559.67108"
   viewBox="0 0 5614.3109 5596.7108"
   preserveAspectRatio="xMidYMid meet"
   id="svg682"
   sodipodi:docname="roulette.svg"
   inkscape:version="1.0.2 (1.0.2+r75+1)">
  <metadata
     id="metadata688">
    <rdf:RDF>
      <cc:Work
         rdf:about="">
        <dc:format>image/svg+xml</dc:format>
        <dc:type
           rdf:resource="http://purl.org/dc/dcmitype/StillImage" />
        <dc:title></dc:title>
      </cc:Work>
    </rdf:RDF>
  </metadata>
  <defs
     id="defs686">
    <clipPath
       clipPathUnits="userSpaceOnUse"
       id="clipPath692">
      <rect
         style="fill:#d40000;fill-opacity:0.443818;fill-rule:evenodd;stroke-width:9.83741"
         id="rect694"
         width="5619.0181"
         height="5615.126"
         x="3059.2151"
         y="-6438.1455"
         transform="scale(1,-1)" />
    </clipPath>
    <clipPath
       clipPathUnits="userSpaceOnUse"
       id="clipPath696">
      <rect
         style="fill:#d40000;fill-opacity:0.443818;fill-rule:evenodd;stroke-width:9.83741"
         id="rect698"
         width="5619.0181"
         height="5615.126"
         x="3059.2151"
         y="-6438.1455"
         transform="scale(1,-1)" />
    </clipPath>
    <clipPath
       clipPathUnits="userSpaceOnUse"
       id="clipPath700">
      <rect
         style="fill:#d40000;fill-opacity:0.443818;fill-rule:evenodd;stroke-width:9.83741"
         id="rect702"
         width="5619.0181"
         height="5615.126"
         x="3059.2151"
         y="-6438.1455"
         transform="scale(1,-1)" />
    </clipPath>
    <clipPath
       clipPathUnits="userSpaceOnUse"
       id="clipPath704">
      <rect
         style="fill:#d40000;fill-opacity:0.443818;fill-rule:evenodd;stroke-width:9.83741"
         id="rect706"
         width="5619.0181"
         height="5615.126"
         x="3059.2151"
         y="-6438.1455"
         transform="scale(1,-1)" />
    </clipPath>
    <clipPath
       clipPathUnits="userSpaceOnUse"
       id="clipPath708">
      <rect
         style="fill:#d40000;fill-opacity:0.443818;fill-rule:evenodd;stroke-width:9.83741"
         id="rect710"
         width="5619.0181"
         height="5615.126"
         x="3059.2151"
         y="-6438.1455"
         transform="scale(1,-1)" />
    </clipPath>
    <clipPath
       clipPathUnits="userSpaceOnUse"
       id="clipPath712">
      <rect
         style="fill:#d40000;fill-opacity:0.443818;fill-rule:evenodd;stroke-width:9.83741"
         id="rect714"
         width="5619.0181"
         height="5615.126"
         x="3059.2151"
         y="-6438.1455"
         transform="scale(1,-1)" />
    </clipPath>
    <clipPath
       clipPathUnits="userSpaceOnUse"
       id="clipPath716">
      <rect
         style="fill:#d40000;fill-opacity:0.443818;fill-rule:evenodd;stroke-width:9.83741"
         id="rect718"
         width="5619.0181"
         height="5615.126"
         x="3059.2151"
         y="-6438.1455"
         transform="scale(1,-1)" />
    </clipPath>
    <clipPath
       clipPathUnits="userSpaceOnUse"
       id="clipPath720">
      <rect
         style="fill:#d40000;fill-opacity:0.443818;fill-rule:evenodd;stroke-width:9.83741"
         id="rect722"
         width="5619.0181"
         height="5615.126"
         x="3059.2151"
         y="-6438.1455"
         transform="scale(1,-1)" />
    </clipPath>
    <clipPath
       clipPathUnits="userSpaceOnUse"
       id="clipPath724">
      <rect
         style="fill:#d40000;fill-opacity:0.443818;fill-rule:evenodd;stroke-width:9.83741"
         id="rect726"
         width="5619.0181"
         height="5615.126"
         x="3059.2151"
         y="-6438.1455"
         transform="scale(1,-1)" />
    </clipPath>
    <clipPath
       clipPathUnits="userSpaceOnUse"
       id="clipPath728">
      <rect
         style="fill:#d40000;fill-opacity:0.443818;fill-rule:evenodd;stroke-width:9.83741"
         id="rect730"
         width="5619.0181"
         height="5615.126"
         x="3059.2151"
         y="-6438.1455"
         transform="scale(1,-1)" />
    </clipPath>
    <clipPath
       clipPathUnits="userSpaceOnUse"
       id="clipPath732">
      <rect
         style="fill:#d40000;fill-opacity:0.443818;fill-rule:evenodd;stroke-width:9.83741"
         id="rect734"
         width="5619.0181"
         height="5615.126"
         x="3059.2151"
         y="-6438.1455"
         transform="scale(1,-1)" />
    </clipPath>
  </defs>
  <sodipodi:namedview
     pagecolor="#ffffff"
     bordercolor="#666666"
     borderopacity="1"
     objecttolerance="10"
     gridtolerance="10"
     guidetolerance="10"
     inkscape:pageopacity="0"
     inkscape:pageshadow="2"
     inkscape:window-width="1680"
     inkscape:window-height="1023"
     id="namedview684"
     showgrid="false"
     inkscape:zoom="1.8589651"
     inkscape:cx="414.94119"
     inkscape:cy="272.26137"
     inkscape:window-x="0"
     inkscape:window-y="27"
     inkscape:window-maximized="1"
     inkscape:current-layer="svg682"
     inkscape:document-rotation="0" />
  <g
     id="layer101"
     fill="#080508"
     stroke="none"
     clip-path="url(#clipPath732)"
     transform="translate(-3059.2151,-829.46154)"
     style="display:inline">
    <path
       d="M 5505,6410 C 4571,6286 3768,5713 3355,4875 c -144,-292 -219,-529 -268,-850 -17,-115 -21,-186 -21,-395 0,-209 4,-280 21,-395 66,-432 190,-757 443,-1161 44,-71 86,-133 93,-139 7,-5 46,-50 87,-100 41,-49 124,-139 185,-199 380,-375 851,-631 1372,-745 364,-80 807,-82 1173,-6 338,70 676,209 958,394 382,251 701,591 918,977 188,336 305,703 345,1084 27,247 9,607 -41,845 -27,133 -78,320 -101,372 -46.4452,120.9862 -95.4547,241.837 -156,356 -80.1669,164.974 -184.4169,312.214 -283,442 -93,124 -333,367 -462,469 -334,263 -726,450 -1133,541 -204,46 -307,57 -580,60 -212,3 -286,1 -400,-15 z"
       id="path485"
       sodipodi:nodetypes="cccscccccccccccccccccc"
       style="display:inline" />
    <path
       d="m 2140,2973 c 21,-44 30,-53 30,-30 0,6 -12,26 -25,42 l -26,30 z"
       id="path487" />
  </g>
  <g
     id="layer102"
     fill="#483d3b"
     stroke="none"
     clip-path="url(#clipPath728)"
     transform="translate(-3059.2151,-829.46154)">
    <path
       d="m 5700,6359 c -267,-15 -521,-67 -754,-153 -38,-14 -71,-26 -73,-26 -2,0 -1,-5 2,-11 16.6331,-44.1024 73.3098,-183.3618 95,-238 44,-112 82,-206 84,-208 2,-3 21,4 43,15 149,75 462,143 730,158 l 123,7 4,31 c 3,17 8,92 11,166 3,74 8,162 11,195 l 6,61 -59,2 c -32,1 -65,4 -73,6 -8,1 -76,-1 -150,-5 z"
       id="path490"
       sodipodi:nodetypes="ccscccccccsccccc" />
    <path
       d="m 7062,5821 c -56,-109 -102,-200 -102,-203 0,-6 83,-61 132,-88 92,-50 321,-258 469,-426 l 45,-52 134,110 c 88.6437,72.8301 164.8423,134.9967 243.3444,211.7923 L 7892,5474 c -138,155 -300,294 -516,440 -210,143 -189,149 -314,-93 z"
       id="path492"
       sodipodi:nodetypes="cscccccccc" />
    <path
       d="m 3744,5358 c -164,-205 -272,-370 -333,-511 -24,-54 -63,-139 -87,-188 -24,-49 -45,-94 -47,-101 -3,-18 266.0818,-103.9944 308.7268,-117.8197 110.4497,-50.5619 130.1374,-56.1921 161.2732,-64.1803 28.166,-9.5536 35.968,-16.9288 60.187,-14.5503 19,1 30.813,49.5503 61.813,129.5503 69,177 186,382 323,567 48,60 23.8824,30.2501 48,60 0,4 -78,85 -173,180 -218,217 -200,214 -323,60 z"
       id="path514"
       sodipodi:nodetypes="ccsccccccccc" />
    <path
       d="m 8273,4223 c -192,-53 -241.2133,-58.5683 -236.2133,-78.5683 C 8044,4068 8032.4628,4144.1651 8044,4068 c 29,-180 36,-264 36,-438 0,-167 -6,-254 -22,-319 -2,-11 49,-22 244,-51 l 274.9838,-39.9782 4.8634,34.5465 c 46.6318,170.0926 32.7215,370.8236 36.6612,461.6382 -2.5028,66.1043 -21.8253,224.2252 -36.8253,325.3619 -24,175 -37.6831,202.4316 -71.6831,221.4316 -15,9 -30,17 -32,16 -1,0 -94,-26 -205,-56 z"
       id="path516"
       sodipodi:nodetypes="cccsccccccccc" />
    <path
       d="m 3410,3374 c -136,-10 -220,-18 -261,-23 -11,-2 21,-228 47,-328 11.5002,-71.4704 23.8384,-136.1425 39.0162,-184.9401 30.6536,-103.4625 48.1609,-144.05 67.0274,-186.4697 C 3334.4373,2576.7156 3430,2367 3452,2345 c 4,-4 465,235 487,251 12,10 -40.4099,90.3387 -59.2021,133.8415 -49.0219,152.4916 0,0 -63.7979,187.1585 -36,111 -75,285 -82,366 -7,84 -7,86 -37,96 -36,13 -70,12 -287,-5 z"
       id="path522"
       sodipodi:nodetypes="cccccscccccc" />
    <path
       d="m 7732,2396 c -19,-42 -127,-188 -207,-279 -92,-106 -206,-216 -295,-288 -36,-28 -65,-57 -64,-63 1,-15 252,-370 265,-374 13,-5 184,124 282,212 144,130 465,511 467,552 0,9 -383,241 -430,262 -4,1 -11,-8 -18,-22 z"
       id="path524" />
    <path
       d="M 4440.6459,1609.398 C 4410.9557,1575.9468 4358,1505 4330,1467 l -51,-67 114,-74 c 200,-131 490,-266 687,-319 155,-43 239,-62 245,-55 2,2 24,96 49,209 44,201 45.1327,217.0265 42.5575,239.1592 -15.4404,17.0468 -37.3469,29.1735 -58.5575,34.8408 -128,36 -318.6018,110.9646 -392.0708,150.0973 -103.4177,55.6765 -300.3411,179.8617 -373.3804,186.4956 -56.9982,-29.5772 -84.3878,-81.0857 -151.9029,-162.1949 z"
       id="path526"
       sodipodi:nodetypes="cccccccccccc" />
  </g>
  <g
     id="layer103"
     fill="#9e2a1e"
     stroke="none"
     clip-path="url(#clipPath724)"
     transform="translate(-3059.2151,-829.46154)">
    <path
       d="m 6037,6249 c -4,-63 -10,-168 -13,-235 l -7,-121 89,-7 c 204,-16 480,-92 684,-188 l 105,-49 15,22 c 8,12 58,107 111,210 l 96,187 -96,45 c -268,127 -584,211 -912,243 l -66,6 z"
       id="path529" />
    <path
       d="m 4685,6097 c -242,-114 -459,-261 -677,-460 -49,-43 -88,-84 -88,-90 0,-7 82,-94 182,-194 l 182,-183 101,98 c 164,160 333,285 498,368 59,30 107,57 107,60 0,21 -176,454 -184,454 -6,-1 -61,-24 -121,-53 z"
       id="path531" />
    <path
       d="m 7833,5155 -192,-155 63,-95 c 93,-138 230,-413 256,-515 20,-78 46,-159 52,-165 3,-4 115,23 248,59 133,36 244,66 246,66 3,0 2,10 -1,23 -19,65 -58,186 -70,212 -7,17 -27,66 -45,110 -69,173 -281,538 -347,598 -18,16 -28,9 -210,-138 z"
       id="path537" />
    <path
       d="m 3227,4388 c -75,-261 -114,-598 -100,-850 l 6,-118 h 31 c 50,0 538,39 543,43 2,2 6,98 9,213 2,115 9,245 14,289 10,79 48,245 68,295 l 10,26 -272,97 c -149,54 -274,97 -277,97 -3,0 -18,-42 -32,-92 z"
       id="path539" />
    <path
       d="m 8044,3193 c -31,-186 -127,-465 -214,-628 l -48,-91 207,-121 c 114,-67 214,-123 221,-125 39,-9 223,401 295,657 32,116 64,269 56,272 -8,3 -489,73 -501,73 -5,0 -12,-17 -16,-37 z"
       id="path541" />
    <path
       d="m 3728,2412 c -131,-70 -238,-132 -238,-138 0,-9 83,-147 137,-226 48,-71 187,-234 287,-336 92,-95 255,-237 303,-266 11,-6 82,83 276,351 l 37,51 -121,119 c -66,65 -154,159 -194,208 -73,89 -218,308 -230,346 -4,10 -9,19 -13,19 -4,-1 -114,-58 -244,-128 z"
       id="path543" />
    <path
       d="M 7020,1693 C 6830.4874,1583.2769 6817.7248,1575.789 6659.6592,1506.087 6570.2515,1465.6647 6326,1398 6327,1389 c 1,-8 16,-110 34,-226 29,-189 35,-213 52,-213 29,0 209,47 349,91 162,51 432,181 571,275 l 45,30 -134,190 c -73,104 -139,190 -146,190 -7,1 -42,-14 -78,-33 z"
       id="path545"
       sodipodi:nodetypes="ccccscccccc" />
  </g>
  <g
     id="layer104"
     fill="#677c2a"
     stroke="none"
     clip-path="url(#clipPath720)"
     transform="translate(-3059.2151,-829.46154)">
    <path
       d="m 2140,2975 c 0,-18 19,-40 26,-32 4,4 0,15 -9,24 -9,10 -17,13 -17,8 z"
       id="path548" />
    <path
       d="m 5485,1379 c -26,-112 -95,-442 -93,-444 9,-8 172,-27 307,-36 160,-10 405,0 556,22 58,9 75,15 75,28 0,22 -68,432 -72,435 -2,2 -88,-1 -193,-7 -179,-10 -486,1 -552,19 -17,5 -23,1 -28,-17 z"
       id="path550" />
  </g>
  <g
     id="layer105"
     fill="#5e504c"
     stroke="none"
     clip-path="url(#clipPath716)"
     transform="translate(-3059.2151,-829.46154)">
    <path
       d="m 5645,6309 c -55,-5 -134,-16 -175,-23 -41,-8 -95,-18 -120,-21 -60,-9 -341,-82 -386,-101 -27,-11 -34,-19 -29,-32 3,-9 35,-92 72,-184 61,-156 67,-166 87,-159 11,5 48,20 81,34 123,52 527,127 682,127 h 51 l 6,73 c 3,39 7,123 10,185 l 5,112 -92,-1 c -51,-1 -137,-6 -192,-10 z"
       id="path553" />
    <path
       d="m 7145,5887 c -26,-51 -68,-127 -93,-170 -24,-43 -43,-80 -41,-81 4,-3 37,-25 237,-158 31,-20 125,-107 210,-193 108,-111 157,-154 165,-147 7,5 75,58 153,119 l 141,109 -72,84 c -39,47 -106,112 -147,145 -42,33 -116,95 -165,138 -48,42 -124,100 -168,127 -44,27 -100,65 -125,84 l -46,35 z"
       id="path555" />
    <path
       d="m 3843,5395 c -31,-44 -136,-179 -156,-200 -10,-11 -28,-36 -40,-55 -11,-19 -40,-60 -63,-91 -23,-30 -59,-91 -79,-135 -21,-43 -66,-137 -102,-208 -35,-71 -62,-129 -61,-130 9,-6 438,-156 445,-156 71.7096,158.8611 108.4582,237.0326 188.146,383.6897 C 4042.4537,4914.014 4099.3369,5016.9386 4171,5123 l -58,59 c -32,33 -102,100 -155,149 l -96,90 z"
       id="path577"
       sodipodi:nodetypes="cccccccccccccc" />
    <path
       d="m 8286,4170 c -98,-27 -180,-51 -183,-54 -3,-2 0,-26 7,-53 6,-26 17,-151 25,-278 7.4828,-149.517 2.3893,-289.8555 -18.5923,-424.801 0,-23 -5.1989,-32.4125 238.8011,-67.4125 120.3012,-11.1797 143.5101,-13.1845 197.3884,-21.859 11.0909,128.496 7.0379,331.907 12.2006,460.6408 -4.8068,147.8932 -53.6595,420.2624 -74.7978,480.4317 6.756,9.9175 -14,10 -204,-42 z"
       id="path579"
       sodipodi:nodetypes="cccccccccc" />
    <path
       d="m 3430,3325 c -91,-7 -177,-13 -192,-14 -25,-1 -28,-5 -28,-37 0,-19 6,-65 14,-102 8,-37 22,-107 31,-157 23,-126 26.5796,-152.5981 86.5796,-305.5981 23.5359,-63.5595 53.3028,-138.7397 86.4389,-195.1963 19.2483,-32.0402 34.9912,-65.2289 49.9815,-101.2056 l 196,99 c 108,54 196,101 196,104 0,3 0.2087,22.0048 -7.7913,37.0048 -22,43 -72.3981,189.7962 -137.3981,397.7962 -22.8211,119.2111 -34.9109,173.1808 -50.8106,273.199 -7,18 -9,18 -244,1 z"
       id="path581"
       sodipodi:nodetypes="ccsscccccscccc" />
    <path
       d="m 2146,2956 c 3,-9 11,-16 16,-16 13,0 5,23 -10,28 -7,2 -10,-2 -6,-12 z"
       id="path583" />
    <path
       d="m 7741,2317 c -6,-18 -21,-44 -34,-57 -12,-13 -35,-43 -52,-66 -25,-35 -88,-111 -174,-209 -19,-22 -224,-205 -243,-216 -8,-5 -9,-12 -2,-21 6,-7 57,-77 114,-156 l 103,-143 166.8657,134.708 C 7744.182,1690.1888 7778.4375,1725.1935 7872,1850 c 55.8974,70.3068 106.0444,127.6648 158,196 18.0464,21.6445 30,40 47,62 l 33,39 -163,96 c -89,53 -169,99 -178,102 -13,5 -20,-2 -28,-28 z"
       id="path585"
       sodipodi:nodetypes="cccccccccccccccc" />
    <path
       d="M 4539.4404,1667.3198 C 4504.5746,1621.0051 4455.0635,1568.0325 4414,1508 c -53,-72 -64,-94 -53,-100 8,-5 41,-31.4297 74,-51.4297 96.7331,-61.3146 189.1756,-105.1931 280.9907,-150.4111 C 4816.9907,1151.1592 4917,1117 5055,1070 c 89,-30 212,-57 221,-48 6,6 85,351 81,353 -1,1 -284.9115,100.3103 -367.7754,142.9509 -154.3159,61.5972 -348.4986,214.4463 -393.9619,204.4602 -22.9368,-5.0381 -32.8052,-31.3287 -55.8223,-55.0913 z"
       id="path587"
       sodipodi:nodetypes="ccccccsccsc" />
  </g>
  <g
     id="layer106"
     fill="#b63021"
     stroke="none"
     clip-path="url(#clipPath712)"
     transform="translate(-3059.2151,-829.46154)">
    <path
       d="m 6086,6313 c -3,-21 -6,-65 -6,-98 -1,-33 -7,-107 -14,-165 -7,-58 -13,-106 -12,-107 1,-1 48,-7 106,-13 58,-6 139,-18 180,-26 83,-17 373,-109 405,-128 27,-17 153.8359,-78 167.4972,-72.8634 24.6093,83.6868 110.1567,237.2879 139.5246,299.1366 9.6612,24.4317 16.5029,47.1803 19.5029,58.1803 -147.0264,69.6136 -298.8952,100.1446 -430.5466,148.093 -107,39 -211.9781,61.7049 -365.9781,77.7049 -107.9468,21.3224 -152.5869,31.3604 -189,26.7486 z"
       id="path590"
       sodipodi:nodetypes="ccssscccccccc" />
    <path
       d="M 4794.8053,6077.3363 C 4767.8053,6071.3363 4628,6019 4615,6009 c -5,-4 -39,-21 -75,-39 -36,-18 -101,-56 -145,-85 -128,-84 -178,-115 -186,-115 -4,0 -56,-43 -116,-95 -59,-52 -116.6771,-89.4943 -121,-95 -18.2951,-23.3007 -6.8415,-27.6613 157.1585,-188.6613 l 145.295,-143.4316 67.6613,54.1147 c 32,26 75.8852,72.9782 102.8852,98.9782 28,26 75,65 106,86 31,21 80,55 110,76 91,64 216.8053,139.3363 256.8053,153.3363 20,7 -24.0823,144.7112 -43.6781,186.0611 -33.1889,69.9973 -56.1896,125.7531 -79.3219,174.9389 z"
       id="path592"
       sodipodi:nodetypes="ccscscsccccscscc" />
    <path
       d="M 7821.0097,5113.7719 C 7724.288,5031.989 7697.3133,5044.4536 7687.3691,5003.6213 7877.9025,4674.4827 7841.8988,4755.4766 7972,4468 c 40,-86 61.4077,-152.631 69.4077,-203.631 53.006,10.4636 200.4974,53.2684 258.5923,65.631 40.2232,10.4126 107,31 158,58 14.7896,40.7343 -54.5294,166.8643 -79.8194,244.0884 C 8300.8853,4807.273 8301.3143,4789.4192 8257,4868 c -106,185 -119,208 -136,227 -10,11 -32,45 -50,75 -38,63 -41.9661,83.1796 -56.9661,82.1796 -6,0 -104.0242,-66.4077 -193.0242,-138.4077 z"
       id="path600"
       sodipodi:nodetypes="cccccccccccc" />
    <path
       d="m 3270,4384 c -23.5873,-106.724 -45.0564,-189.2848 -65,-294 -36,-194 -51,-576 -23,-628 88.4207,-0.1407 113.0407,0.9987 187,4 24,7 93.6074,8.7573 151.6074,14.7573 58,6 127.4112,8.1778 151.4112,11.1778 3.3414,141.5335 6.6286,175.3766 2.9814,260.0649 19.4319,221 13.0145,287.1943 50,430 14,37 20,70 16,73 -8,5 -416,151 -453,162 -15,4 -18,-1 -18,-33 z"
       id="path604"
       sodipodi:nodetypes="ccccscccccc" />
    <path
       d="m 8072.0093,3194.4575 c -24,4 -18.3929,-29.8798 -18.3929,-43.8798 -46.2848,-203.0379 -64.3775,-263.1958 -101.8693,-368.6904 -30.6213,-68.6552 -119.3296,-270.0867 -130.0265,-287.3129 92.8005,-58.7855 29.778,-20.7173 114.6774,-66.5841 102,-61 258.6814,-148.1585 278.6814,-154.1585 23.8263,37.3115 -44.7491,-74.0128 73.9206,145.1682 75.2802,151.8424 144.2379,354.3212 187.2021,484.2733 20.7138,48.1187 45.5339,180.2358 51.707,212.7259 -130.157,43.9101 -300.2328,56.5417 -455.8998,78.4583 z"
       id="path610"
       sodipodi:nodetypes="cccccccccc" />
    <path
       d="m 3748,2381 c -104,-54 -191,-100 -194,-104 27.6247,-77.1617 134.4758,-225.963 186,-282 25,-27 64,-72 86,-100 101,-128 370,-385 403,-385 4,0 11,12 17,28 6,15 57,90 113,166 55,77 101,142 101,145 0,3 -45,52 -100,109 -119.0501,133.4288 -71.9766,69.3039 -192.918,214.9488 C 4094.4225,2279.4713 4026.6779,2359.2416 3985,2429 c -17,28 -34,51 -40,50 -5,0 -94,-44 -197,-98 z"
       id="path612"
       sodipodi:nodetypes="ccccsccsccccc" />
    <path
       d="m 7044,1640 c -36,-21 -252,-135 -306,-162 -20,-10 -42,-18 -49,-18 -7,0 -64,-18 -128,-39 -64,-22 -163.3112,-48.0641 -194.3112,-56.0641 -2.5565,-39.6067 21.9791,-189.4124 26.4512,-226.0978 6,-39 20.5738,-110.2297 27.4765,-154.03472 307.8662,79.01902 361.3177,110.13442 466.7049,149.26992 151.0852,69.2743 296.8338,128.7977 433.6786,229.9267 -52.8548,77.7295 -164.1761,223.1484 -201,275 -13,25 -35,26 -76,1 z"
       id="path614"
       sodipodi:nodetypes="csscccccccc" />
  </g>
  <g
     id="layer107"
     fill="#677c2a"
     stroke="none"
     clip-path="url(#clipPath708)"
     transform="translate(-3059.2151,-829.46154)">
    <path
       d="m 5537,1368 c -43,-185 -63,-239 -85,-236 -10,2 -20,-18 -32,-67 -11,-38 -19,-74 -19,-80 -1,-5 20,-11 47,-12 87,-3 327,-24 356,-31 34,-8 45,-28 19,-35 -48,-12 175,-10 302,3 160,17 163,18 157,46 -3,19 0,24 17,24 11,0 21,6 21,13 0,6 -12,88 -27,181 l -28,168 -70,-7 c -79,-9 -370,-8 -487,1 -67,6 -78,9 -78,25 0,13 -7,19 -22,19 -13,0 -33,3 -44,6 -17,4 -23,0 -27,-18 z"
       id="path617" />
  </g>
  <g
     id="layer108"
     fill="#e43b27"
     stroke="none"
     clip-path="url(#clipPath704)"
     transform="translate(-3059.2151,-829.46154)">
    <path
       d="m 6086,6285 c -3,-9 -6,-47 -6,-83 0,-37 -5,-110 -10,-162 -5,-52 -8,-95 -7,-96 1,-2 49,-8 107,-14 58,-6 138,-18 178,-26 97,-20 346,-103 456,-153 l 90,-40 25,58 c 15,31 52,107 84,169 l 57,112 -27,11 c -16,6 -77,28 -138,49 -60,21 -157,56 -215,77 -133,50 -211,68 -380,88 -74,9 -151,19 -171,22 -28,4 -38,1 -43,-12 z"
       id="path620" />
    <path
       d="m 4721.4077,6037.7865 c -38.074,-15.823 -83.1133,-36.7891 -100,-46 -16.116,-8.7906 -54.979,-30.0395 -85,-46 -48.979,-26.0395 -88.7961,-50.5972 -275.7961,-173.5972 -95.7345,-70.5111 -179.612,-148.9865 -273,-225 L 4129,5408 l 152,-148 100,87 c 99,87 243,198 327,251 134,85 209.6538,128.0279 233.8501,137.0464 -12.0261,25.3868 -10.3162,24.1506 -24.5409,53.9072 C 4902.2906,5813.9893 4895,5824 4845,5947 c -27,65 -28.0234,86.6488 -47.5923,113.7865 -15.4808,21.4686 -37.0732,-6.8226 -76,-23 z"
       id="path622"
       sodipodi:nodetypes="ssscccccccccss" />
    <path
       d="m 7915,5159 c -97.1137,-69.0844 -166.27,-124.4304 -212.7923,-149.2296 36.9345,-31.257 209.3846,-358.5762 254.2,-453.9694 38.6881,-79.6236 78.0331,-235.2351 103.5923,-278.801 31,5 375,105 382,112 5,4 -9,47 -29,96 -47.6944,144.0558 -82.6293,212.9937 -108.813,272.1963 C 8298.5981,4770.0093 8267,4824 8236,4883 c -30,60 -79,145 -109,190 -29,45 -66,101 -80,125 -15,23 -28,42 -30,42 -1,0 -47,-37 -102,-81 z"
       id="path624"
       sodipodi:nodetypes="ccccccccccsc" />
    <path
       d="m 3268,4358 c -41.2718,-175.8022 -78.0519,-358.3199 -89,-498 -10,-139 -9,-373 2,-385 4,-3 114,2 245,12 l 237,18 2,230 c 12.4125,240 12.8058,278.5947 44.7913,430.4029 14,48 29.9626,84.3553 20.3981,89.3981 C 3708.6571,4266.1536 3638,4292 3520,4333 c -118,41 -222,78 -232,82 -9.9952,-10.6189 -17,-3 -20,-57 z"
       id="path626"
       sodipodi:nodetypes="cccccccsscc" />
    <path
       d="m 7997.6397,2813.3888 c -18.296,-51.8612 -39.6212,-117.3981 -93.6212,-222.3981 -27,-53 -52.0185,-95.9907 -51.0185,-96.9907 5,-5 348,-204 351,-204 89.6823,169.1713 178.453,376.0909 229,546 15.5327,51.8485 81.3598,233.0328 73.0097,270.9903 -20,7 -358.0097,63.0097 -416.0097,67.0097 -23.2703,-136.0259 -65.6793,-279.8427 -92.3603,-360.6112 z"
       id="path628"
       sodipodi:nodetypes="ccsccccc" />
    <path
       d="m 3760.4126,2358.7816 c -101.4568,-56.9274 -138.3013,-72.1458 -187.2426,-108.9032 52.3793,-46.9849 105.2985,-186.547 147.83,-231.8784 17,-18 56,-64 86,-102 76,-94 318,-336 371,-371 25,-16 46,-24 51,-19 5,5 50,68 101,139 51,72 102,142 112,156 l 19,26 -121,119 c -66,65 -131,134 -142,154 -12,19 -47,67 -78,105 -32,39 -79,104 -106,146 -27,43 -56.2039,75.1894 -62.2039,83.1894 -24.0194,-4.8203 -110.0822,-52.461 -191.3835,-95.4078 z"
       id="path630"
       sodipodi:nodetypes="cccccsccccccccc" />
    <path
       d="m 6908,1565 c -98,-52 -209,-103 -250,-115 -40,-12 -102,-32 -138,-45 -36,-13 -76.1821,-27.7961 -107.1821,-36.7961 -42,-11 -26.8496,-21.1328 -26.8496,-34.1328 0,-9 15.9645,-84.1858 29.9645,-173.1858 19.0892,-104.4123 13.1077,-116.1972 29.2922,-154.9823 200.4883,51.607 369.8344,117.687 439.6886,142.379 C 6955.7677,1171.0878 7201,1295 7240,1315 c 39,20 70,39 68,43 -9,21 -211,302 -216,302 -4,0 -87,-43 -184,-95 z"
       id="path632"
       sodipodi:nodetypes="ccscscccscsc" />
  </g>
  <g
     id="layer109"
     fill="#7bb530"
     stroke="none"
     clip-path="url(#clipPath700)"
     transform="translate(-3059.2151,-829.46154)">
    <path
       d="m 5495,1173 c -21,-93 -40,-173 -42,-179 -5,-13 4,-14 242,-34 157,-13 413,-8 519,10 32,5 60,11 62,13 3,3 -40.1327,288.6902 -52.1327,340.6902 -4,19 -214.3131,6.4236 -345.1631,12.0304 -114.9884,3.3737 -228.5153,9.8346 -342.9008,16.6944 z"
       id="path635"
       sodipodi:nodetypes="ccccscccc" />
  </g>
  <g
     id="layer110"
     fill="#d77b4c"
     stroke="none"
     clip-path="url(#clipPath696)"
     transform="translate(-3059.2151,-829.46154)"
     style="display:inline">
    <path
       d="m 5640,5816 c -550,-76 -1037,-352 -1380,-782 -336,-421 -510,-954 -487,-1494 3.0466,-69.2523 5.7893,-137.7493 14.5982,-205.3561 C 3853.9648,2825.2936 4085.3946,2366.4803 4450,2016 c 400,-384 899,-586 1445,-586 576,0 1102,226 1506,647 321,335 516,734 596,1218 27,165 24,536 -5,698 -32,176 -59,280 -104,402 -168,457 -464,835 -853,1091 -248,163 -504,264 -810,320 -121,22 -457,27 -585,10 z m 571,-255 c 608,-105 1119,-495 1399,-1066 134,-276 200,-567 200,-889 0,-1108 -893,-2000 -1965,-1963 -195,7 -340,32 -519,91 -276,91 -507,231 -720,436 -327,315 -532,722 -592,1175 -24,182 -15,497 21,665 120.3742,557.1263 443.4387,1020.2115 907,1307 231.2737,138.8678 510.302,233.7316 786,263 123,12 350,4 483,-19 z"
       id="path638"
       sodipodi:nodetypes="cccscscccccccccscccccccc" />
    <path
       d="M 5670,5505 C 5108.0377,5427.9309 4621.8575,5094.5673 4332.1721,4609.934 4260.9793,4490.831 4202.9874,4361.4816 4159.6939,4224.7033 4027.6939,3822.7033 4030,3398 4165,2991 c 160,-480 499,-875 940,-1094 260,-130 503,-186 799,-187 227,0 418,33 616,107 645,241 1099,813 1206,1518 22,146 21,414 -1,559 -64,420 -239,776 -529,1075 -400,411 -972,612 -1526,536 z m 326,-400 c 66,-29 129.0619,-79.8938 161.0619,-149.8938 35,-74 26.9381,-187.1062 -4.0619,-257.1062 -26,-56 -93,-131 -133,-148 -24,-10 -28,-17 -25,-39 12,-69 26,-309 32,-527 l 6,-241 331,-6 c 182,-4 376,-10 431,-13 l 100,-7 13,35 c 19,53 77,114 137,143 48,24 64,27 127,23 83,-4 130,-24 182,-74 57,-55 79,-107 84,-199 4,-75 2,-84 -30,-145 -70,-135 -218,-192 -355,-135 -43,18 -118,89 -133,126 l -13,31 -66,-6 c -91,-9 -551,-26 -692,-26 h -116 l -6,-222 c -3,-123 -11,-289 -18,-369 l -12,-146 70,-69 c 86,-85 108,-138 101,-248 -15,-225 -236,-355 -444,-262 -66,30 -120,85 -152,155 -60,129 -18,290 97,376 l 53,40 -6,90 c -15,208 -25,418 -26,533 v 122 h -52 c -89,0 -548,19 -629,26 l -82.3956,5.7985 -14.3933,-46.0024 C 4851.2111,3338.7961 4701,3272 4555,3314 c -78,23 -163,106 -190,185 -23,71 -13.7961,187.7985 16.2039,246.7985 73,131.5875 247.4029,196.9904 379.7961,142.2015 60.5971,-33.4053 122,-85 146,-140 17,-36 16.0435,-31.3836 18,-40 72,9 485,32 626,32 h 139 v 128 c 0,134 16,452 29,587 l 8,80 -54,49 c -67,61 -104,131 -111,212 -19,237 217,406 434,309 z"
       id="path640"
       sodipodi:nodetypes="cscccccccccccccccccccccccccccccscccccccccccccscccccccccscsccccc" />
    <path
       d="m 6024,4746 c -10,-26 4,-48 28,-44 17,2 23,10 23,28 0,18 -6,26 -23,28 -13,2 -25,-3 -28,-12 z"
       id="path644" />
  </g>
  <g
     id="layer111"
     fill="#fcfcfc"
     stroke="none"
     clip-path="url(#clipPath692)"
     transform="translate(-3059.2151,-829.46154)">
    <!-- <path d="M1274 5683 c-13 -4 -7 -43 7 -43 4 0 13 9 18 19 11 20 -2 32 -25 24z"/> -->
    <path
       d="m 5927,5023 c -16,-15 -4,-40 28,-61 42,-27 75,-77 75,-113 0,-30 25,-45 46,-28 23,19 16,72 -15,120 -39,62 -111,106 -134,82 z"
       id="path661" />
    <path
       d="m 6024,4745 c -9,-23 3,-45 25,-45 20,0 37,32 26,50 -9,15 -45,12 -51,-5 z"
       id="path663" />
    <path
       d="m 7227,3813 c -16,-16 -4,-44 31,-71 21,-17 44,-42 51,-56 17,-32 36,-39 55,-21 22,22 9,49 -49,105 -51,47 -73,58 -88,43 z"
       id="path665" />
    <path
       d="m 4677,3793 c -16,-16 -4,-43 27,-63 19,-11 48,-37 64,-57 30,-38 56,-40 69,-8 19,50 -124,164 -160,128 z"
       id="path667" />
    <path
       d="m 5949,3654 c -10,-13 -10,-20 4,-43 10,-18 13,-32 7,-41 -22,-34 -1,-67 34,-54 16,6 36,47 36,74 0,19 -45,80 -60,80 -4,0 -13,-7 -21,-16 z"
       id="path669" />
    <path
       d="M 4805.6865,3596.7672 C 4803.743,3573.902 4837.157,3559.9058 4858,3574 c 8.1499,5.511 13.0098,19.1152 4.8602,35.8621 -13.4697,21.6758 -51.3316,16.9937 -57.1737,-13.0949 z"
       id="path671"
       sodipodi:nodetypes="cscc" />
    <path
       d="m 5825,3600 c -8,-26 6,-43 31,-38 13,2 19,12 19,28 0,34 -40,41 -50,10 z"
       id="path673" />
    <path
       d="m 7334,3606 c -10,-26 4,-48 28,-44 17,2 23,10 23,28 0,18 -6,26 -23,28 -13,2 -25,-3 -28,-12 z"
       id="path675" />
    <path
       d="m 5963,2643 c -27,-9 -14,-49 21,-66 21,-10 36,-25 38,-38 2,-12 11,-27 21,-33 28,-17 48,15 36,57 -13,45 -81,92 -116,80 z"
       id="path677" />
    <path
       d="m 6054,2435 c -4,-9 0,-23 8,-31 20,-20 50,-7 46,20 -4,26 -45,35 -54,11 z"
       id="path679" />
  </g>
</svg>
